<?xml version="1.0" encoding="utf-8"?>
<!-- Generator: Adobe Illustrator 16.0.0, SVG Export Plug-In . SVG Version: 6.00 Build 0)  -->
<!DOCTYPE svg PUBLIC "-//W3C//DTD SVG 1.1//EN" "http://www.w3.org/Graphics/SVG/1.1/DTD/svg11.dtd">
<svg version="1.1" id="圖層_1" xmlns="http://www.w3.org/2000/svg" xmlns:xlink="http://www.w3.org/1999/xlink" x="0px" y="0px"
	 width="15px" height="15px" viewBox="0 0 15 15" enable-background="new 0 0 15 15" xml:space="preserve">
<g>
	<path fill="#A8C132" d="M2.785,14.323c-0.307,0-0.533-0.137-0.679-0.412c-0.081-0.129-0.121-0.258-0.121-0.388
		c0-0.146,0.04-0.282,0.121-0.412l3.588-5.769c0.064-0.097,0.064-0.194,0-0.291L2.446,1.89C2.365,1.743,2.325,1.606,2.325,1.477
		c0-0.128,0.032-0.258,0.097-0.388c0.146-0.274,0.38-0.412,0.703-0.412h0.218c0.437,0,0.849,0.109,1.236,0.327
		C4.967,1.224,5.273,1.525,5.5,1.913l0.897,1.503c0.274,0.501,0.694,1.252,1.26,2.254c0.017,0.033,0.045,0.049,0.085,0.049
		S7.803,5.703,7.803,5.67c0.113-0.226,0.234-0.464,0.364-0.715c0.129-0.25,0.27-0.524,0.424-0.824
		c0.153-0.299,0.271-0.537,0.352-0.715l0.775-1.479c0.194-0.388,0.48-0.694,0.861-0.921c0.379-0.227,0.787-0.34,1.224-0.34h0.121
		c0.307,0,0.541,0.138,0.702,0.412c0.082,0.13,0.122,0.26,0.122,0.388c0,0.146-0.04,0.283-0.122,0.413L9.354,7.367
		c-0.064,0.097-0.064,0.202,0,0.315l3.515,5.429c0.097,0.146,0.146,0.291,0.146,0.437c0,0.113-0.041,0.234-0.121,0.363
		c-0.146,0.275-0.372,0.412-0.68,0.412h-0.242c-0.436,0-0.848-0.109-1.236-0.327c-0.387-0.218-0.702-0.513-0.945-0.885l-1.018-1.673
		c-0.55-1.001-1.01-1.793-1.382-2.375C7.358,9.031,7.322,9.015,7.282,9.015c-0.041,0-0.069,0.017-0.085,0.049
		c-0.372,0.679-0.784,1.471-1.236,2.375l-0.896,1.624c-0.211,0.388-0.51,0.695-0.897,0.922c-0.388,0.226-0.8,0.339-1.236,0.339
		H2.785z"/>
</g>
</svg>
