<svg xmlns="http://www.w3.org/2000/svg" width="210.519" height="624.108" viewBox="0 0 210.519 624.108">
  <g id="Group_776" data-name="Group 776" transform="translate(-1119.799 -214.596)">
    <g id="Group_773" data-name="Group 773" transform="translate(1119.799 325.766)">
      <path id="Path_11967" data-name="Path 11967" d="M1284.787,476.988c-13.214-.242-26.276,2.43-39.055,5.527q-25.148,6.094-49.708,14.357-6.214,2.089-12.38,4.314a452.233,452.233,0,0,0,42.434-30.031q16.478-13.154,31.68-27.806,7.588-7.317,14.828-14.986c2.893-3.067,8.783-8.331,8.939-12.866.337-9.958-20.54-1.339-24.587.041-8.265,2.817-16.085,6.759-23.948,10.517-14.518,6.939-28.664,14.643-42.433,22.968q13.241-14.753,25.6-30.272c7.333-9.229,14.533-18.567,21.439-28.121,6.351-8.787,13.906-17.933,18.151-27.968,3.053-7.219-7.229-12.032-13.017-8.554-26.726,16.058-48.532,43.341-71.656,64.124q-2.794,2.51-5.576,5.031c-8.147,7.376-16.254,14.865-23.831,22.84l44.359-73.417c6.4-10.6,14.736-20.05,21.106-30.671q4.777-7.964,9.5-15.962c1.966-3.329,4.845-10.458,2.542-14.6-2.152-3.869-10.307-1.948-13.217-.259-25,14.528-41.766,40.766-56.991,64.79-8.95,14.122-17.238,28.659-26.443,42.622-.894,1.357-1.809,2.7-2.728,4.043V598.1q3.6,1.481,7.14,2.966c22.57,9.479,46.158,16.108,69.7,22.685,5.607,1.567,18.688,7.786,22.283-.259,1.157-2.588-.1-4.835-1.947-6.71-3.823-3.874-9.028-6.871-13.716-9.586-19.521-11.309-42.051-17.758-63.443-24.55q-5.66-1.8-11.374-3.459c5.654-.352,11.3-.9,16.947-1.438,14.323-1.365,28.67-2.084,43.05-2.479,27.045-.743,55.129.573,81.747-5.009,2.9-.608,9.2-1.1,8.762-5.469-.353-3.549-4.843-5.006-7.632-5.95a224.11,224.11,0,0,0-38.79-9.491c-27.6-4.111-54.7-.291-82.168,2.842-8.266.944-16.544,1.908-24.8,3.007,18.429-4.607,36.758-9.6,54.8-15.578,13.825-4.581,27.37-9.9,40.917-15.233,14.074-5.542,28.568-10.53,42.2-17.1,6.942-3.346,16.741-6.689,22.6-11.694,3.344-2.854,5.217-6.082,7.473-10.253C1297.466,478.082,1290.549,477.094,1284.787,476.988Z" transform="translate(-1119.799 -309.194)" fill="#d9d7d7"/>
      <path id="Path_11968" data-name="Path 11968" d="M1136.789,427.621a177.09,177.09,0,0,1-13.359,16.58c-.763.839.482,2.092,1.249,1.248a180.793,180.793,0,0,0,13.635-16.936C1138.974,427.585,1137.443,426.7,1136.789,427.621Z" transform="translate(-1119.204 -288.514)" fill="#eeeded"/>
      <path id="Path_11969" data-name="Path 11969" d="M1178.812,429.955a122.173,122.173,0,0,1-24.468,18.749.884.884,0,0,0,.892,1.526,124.024,124.024,0,0,0,24.825-19.025A.884.884,0,0,0,1178.812,429.955Z" transform="translate(-1113.821 -288.082)" fill="#eeeded"/>
      <path id="Path_11970" data-name="Path 11970" d="M1154.622,447.906a184.124,184.124,0,0,1-33.122,22.5c-1,.534-.113,2.058.892,1.526a186.214,186.214,0,0,0,33.478-22.777C1156.736,448.416,1155.482,447.172,1154.622,447.906Z" transform="translate(-1119.578 -284.931)" fill="#eeeded"/>
      <path id="Path_11971" data-name="Path 11971" d="M1178.328,473.633a346.965,346.965,0,0,0-53.384,19.918c-1.028.483-.133,2.006.892,1.524a344.155,344.155,0,0,1,52.962-19.74A.884.884,0,0,0,1178.328,473.633Z" transform="translate(-1118.977 -280.391)" fill="#eeeded"/>
    </g>
    <g id="Group_774" data-name="Group 774" transform="translate(1119.799 214.596)">
      <path id="Path_11972" data-name="Path 11972" d="M1330.315,249.477a12.414,12.414,0,0,1-.831,4.61,35.693,35.693,0,0,1-4.9,8.247,100.388,100.388,0,0,1-21.559,21.8c-4.3,3.2-9.419,6.917-6.829,12.622.117.266.26.536.412.812a24.27,24.27,0,0,0,2.184,3.151c1.86,2.348,3.916,4.544,4.957,7.459,2.968,8.295-1.36,17.438-7.482,23.054-7.518,6.9-17.461,10.05-26.1,15.184a36.82,36.82,0,0,0-11,9.39c-.36.477-.694.966-1.019,1.472-.377.595-.73,1.2-1.054,1.813-2.042,3.785-3.278,7.965-4.668,12.021-3,8.755-7.295,16.019-16.013,20.005-9.38,4.286-19.782,4.116-29.832,5.2-5.651.612-14.112,1.267-17.644,6.406a32.043,32.043,0,0,0-2.784,5.262,59.96,59.96,0,0,1-2.761,5.8c-.282.489-.583.972-.906,1.436-5.022,7.259-12.2,12.728-19.8,17.067-8.714,4.981-18.156,8.66-27.529,12.187q-7.622,2.87-15.354,5.422V232.227c6.523-3.644,14.194-6.465,21.323-6.152a11.336,11.336,0,0,1,9.444,5.233c.382.565.747,1.136,1.119,1.684a11.966,11.966,0,0,0,2.578,3,6.719,6.719,0,0,0,2.572,1.219,11.856,11.856,0,0,0,8.313-1.436c4.768-2.584,8.348-7.171,12.5-10.6a65.089,65.089,0,0,1,12.74-8.607c3.592-1.742,8-2.937,11.733-.906,3.908,2.119,5.2,6.817,8.736,9.325a8.312,8.312,0,0,0,.771.483c.118.065.236.129.353.188a8.432,8.432,0,0,0,1.9.689l.153.035c.153.036.313.066.471.089a11.407,11.407,0,0,0,2.373.135c3.568-.165,7.3-1.766,10.379-3.032a82.17,82.17,0,0,1,16.265-5.057,73.09,73.09,0,0,1,16.385-1.225c5.522.223,7.141,3.255,8.9,6.616.5.966,1.011,1.955,1.629,2.914a12.343,12.343,0,0,0,4.3,4.2c5.894,3.386,13.789,2.785,20.293,2.326,9.908-.7,21.807.647,29.96,6.876a13.955,13.955,0,0,1,4.552,5.64A9.894,9.894,0,0,1,1330.315,249.477Z" transform="translate(-1119.799 -214.596)" fill="#e6e3e3"/>
      <path id="Path_11973" data-name="Path 11973" d="M1329.544,244.48c-14.071,6.553-28.636,12.392-44.255,13.482-8.713.606-17.42.277-26.068,1.76-.442.076-.884.17-1.325.253,2-4.15,3.933-8.33,5.652-12.6,2.608-6.494,4.262-13.211,6.247-19.905.2-.683.418-1.36.641-2.031-.618-.959-1.131-1.948-1.629-2.914a90.279,90.279,0,0,0-9.585,10.633,57.336,57.336,0,0,0-8.789,16.219c-1.485,4.4-2.332,9.608-4.669,13.7q-4.654,1.491-9.179,3.343c-14.589,5.947-28.117,14.088-41.881,21.682-.907.5-1.813,1-2.727,1.5a57.854,57.854,0,0,0,11.681-17.468c3.892-9.525,3.7-19.881,5.164-29.906.352-2.426,4.162-12.658,5.686-17.138-.158-.023-.318-.053-.471-.089l-.153-.035a8.435,8.435,0,0,1-1.9-.689c-1.578,3.409-4.81,10.774-5.211,11.475a83.323,83.323,0,0,0-6.252,13.883c-1.842,5.351-2.707,10.879-4.133,16.336-2.466,9.467-9.147,15.784-16.213,22.083-4.521,4.027-9.178,8.2-12.48,13.235-5.671,2.219-11.463,4.091-17.285,5.9-.212.072-.418.136-.631.2,3.863-12.67.76-27.064-.294-40.193a72.315,72.315,0,0,1,4.781-32.586,11.964,11.964,0,0,1-2.578-3c-2.174,3.945-4.151,7.983-5.988,12.034a129.7,129.7,0,0,0-6.029,14.577c-1.755,5.6-.972,10.532.5,16.084,2.979,11.2,1.7,22.9-4.64,32.768a41.188,41.188,0,0,1-6.287,7.412,88.581,88.581,0,0,0-9.443,4.575V357.8c1.16.424,2.26.841,3.273,1.213,4.539,1.661,9.067,3.762,12.711,6.994,3.9,3.468,6.164,8.036,8.089,12.793,3.355,8.313,6.576,15.578,14.07,20.994,7.541,5.44,16.755,9.3,25.444,12.6a59.974,59.974,0,0,0,2.761-5.8,91.5,91.5,0,0,1-15.813-10.514,69.735,69.735,0,0,1-17.367-20.982c-4.292-8.212-5.935-17.791-11.4-25.391a24.183,24.183,0,0,0-9.172-7.73c6.559-4.969,13.347-9.62,20.293-14.041q10.528-6.711,21.171-13.24c5.092-.2,10.379.229,15.018,2.449,5.628,2.69,7.8,8.065,12.3,11.921,4.628,3.963,11.263,2.661,15.86,6.741,3.885,3.45,6.188,8.307,9.9,11.934,4.262,4.155,10.085,5.6,15.7,6.982q7.172,1.766,14.453,2.979c.324-.618.678-1.219,1.054-1.813.324-.507.659-1,1.019-1.473a78.01,78.01,0,0,1-10.573-6.759c-7.519-5.681-13.83-12.692-22.149-17.279-4.009-2.207-8.213-4.133-11.892-6.882-3.762-2.815-6.764-6.5-10.65-9.167-5.452-3.732-11.793-5.616-18.245-6.87q8.759-5.352,17.509-10.7c13.181-8.077,26.763-15.972,41.6-20.411a11.54,11.54,0,0,1,5,4.622c2.12,3.668,2.592,8.03,4.37,11.851,3.891,8.36,12.827,8.66,20.929,8.4q11.913-.39,23.737-1.884a24.279,24.279,0,0,1-2.184-3.151c-.153-.276-.295-.547-.412-.812a126.912,126.912,0,0,1-18.375-2.625c-4.084-.9-8.507-1.831-11.927-4.38a8.687,8.687,0,0,1-3.679-6.441c-.19-2.013.076-4.056-.4-6.046a11.309,11.309,0,0,0-1.207-3.026c7.465-1.383,14.877-2.784,22.26-4.8,8.378-2.285,16.756-4.6,25.033-7.23a198.308,198.308,0,0,0,21.576-8.124,12.414,12.414,0,0,0,.831-4.61A9.893,9.893,0,0,0,1329.544,244.48Z" transform="translate(-1119.799 -213.207)" fill="#f1f1f1"/>
    </g>
    <g id="Group_775" data-name="Group 775" transform="translate(1119.919 540.453)">
      <path id="Path_11974" data-name="Path 11974" d="M1207.023,455.847c-7.644-11.29-24.312-16.668-36.28-8.812-3.465,2.275-6.11,5.538-8.76,8.672-2.861,3.383-5.7,6.786-8.4,10.294-5.1,6.61-9.761,13.647-12.853,21.437-3.311,8.344-3.945,16.967-3.995,25.858-.054,9.418.181,19.264-4.039,27.945-3.1,6.385-7.951,11.514-12.791,16.644v86.131c.265-.207.523-.41.769-.6a61.626,61.626,0,0,0,8.855-8.454c11.954-13.745,18.773-31.256,31.877-44.086,6.1-5.969,13.043-11.24,17.226-18.852,4.021-7.316,5.509-15.635,6.97-23.759,1.576-8.758,3.412-17.221,7.456-25.222,3.975-7.868,9.09-15.088,13.182-22.891C1213.423,486.446,1216.215,469.424,1207.023,455.847Z" transform="translate(-1119.901 -443.317)" fill="#e6e3e3"/>
      <path id="Path_11975" data-name="Path 11975" d="M1119.9,657.465l.462-1.093a.8.8,0,0,0-.462-1.054Z" transform="translate(-1119.901 -451.858)" fill="#7fbd77"/>
      <path id="Path_11976" data-name="Path 11976" d="M1287.073,720.2c-5.481-5.128-14.113-6.433-21.261-7.252-8.284-.949-16.739-1.033-24.761-3.551-8.231-2.585-14.064-7.861-18.268-15.3-3.706-6.554-6.255-13.74-10.58-19.944a52.089,52.089,0,0,0-14.862-14.068c-23.7-15.051-54-10.712-77.439,3.053v35.618c6.2,2.99,13.488,3.86,20.219,4.515,8.637.842,17.36.936,25.939,2.339a55.862,55.862,0,0,1,23.138,9.1c6.482,4.482,12.148,10,18.076,15.162a84.842,84.842,0,0,0,19.2,13.162,71.633,71.633,0,0,0,21.991,6.352A67.386,67.386,0,0,0,1271.7,748.3c6.627-1.536,13.577-4.68,17.051-10.86C1291.838,731.957,1291.9,724.707,1287.073,720.2Z" transform="translate(-1119.901 -451.67)" fill="#e6e3e3"/>
      <path id="Path_11977" data-name="Path 11977" d="M1321.515,559.1c-7.552-5.7-17.527-8.068-26.33-11.11-9.466-3.272-19.2-7.453-29.4-7.178-8.734.236-17.018,3.411-24.968,6.769-8.8,3.716-17.457,7.633-26.93,9.284-9.4,1.638-19.18,1.787-28.221,5.123-15.925,5.875-24.347,21.26-34.345,33.862-5.263,6.633-11.844,12.32-18.115,18.237-4.472,3.867-8.965,7.722-13.307,11.728v41.231a62.6,62.6,0,0,1,5.884-4.365,61.7,61.7,0,0,1,11.871-6.062c4.424-1.675,9.046-2.679,13.562-4.056a39.834,39.834,0,0,0,19.2-12.716c5.015-5.836,9.065-12.45,14.317-18.089a36.694,36.694,0,0,1,9.409-7.508c4.229-2.266,8.923-3.45,13.545-4.611a75.891,75.891,0,0,0,12.924-4.056,66.227,66.227,0,0,0,11.961-7.6c7.621-5.662,15.32-10.177,24.74-12.085a69.109,69.109,0,0,1,28.963.705c9.073,2.071,18.382,5.881,27.841,4.24,6.635-1.151,13.546-5.18,15.583-11.973C1331.975,571.3,1327.433,563.569,1321.515,559.1Z" transform="translate(-1119.901 -447.245)" fill="#e6e3e3"/>
      <path id="Path_11978" data-name="Path 11978" d="M1179.116,566.269a48.557,48.557,0,0,0-28.854,28.834c-1.308,3.6-1.581,7.441-2.828,11.018-1.365,3.915-5.907,5.875-8.947,8.383a66.389,66.389,0,0,0-15.664,18.9c-.453.812.792,1.539,1.246.728a65.329,65.329,0,0,1,15.439-18.612c2.64-2.177,6.481-3.922,8.349-6.9,1.792-2.857,1.844-6.614,2.727-9.8a46.948,46.948,0,0,1,28.916-31.162C1180.365,567.347,1179.992,565.953,1179.116,566.269Z" transform="translate(-1120.015 -448.269)" fill="#f1f1f1"/>
      <path id="Path_11979" data-name="Path 11979" d="M1159.024,650.762c-1.8.195-3.511-.54-5.266-.863a28.09,28.09,0,0,0-3.967-.44,34.788,34.788,0,0,0-8.612.841c-6.038,1.3-11.733,3.867-17.264,6.553-.835.406-.1,1.65.728,1.246,5.424-2.635,11-5.128,16.92-6.407a32.662,32.662,0,0,1,8.648-.767c2.922.155,5.917,1.595,8.812,1.279C1159.937,652.1,1159.948,650.662,1159.024,650.762Z" transform="translate(-1120.048 -451.622)" fill="#f5f5f5"/>
      <path id="Path_11980" data-name="Path 11980" d="M1191.232,452.516a107.213,107.213,0,0,0-19.446,32.753c-.326.87,1.068,1.247,1.391.384a105.188,105.188,0,0,1,19.075-32.117C1192.857,452.838,1191.841,451.814,1191.232,452.516Z" transform="translate(-1121.989 -443.678)" fill="#f1f1f1"/>
      <path id="Path_11981" data-name="Path 11981" d="M1189.677,487.559q-13.64,13.155-26.423,27.152,2.45-9.183,4.9-18.367a.722.722,0,0,0-1.391-.384c-3.017,11.305-5.922,22.65-8.972,33.95-1.48-1.1-2.087-3.287-2.82-4.894l-2.9-6.359-5.606-12.295c-.385-.843-1.628-.111-1.246.728q3.19,6.995,6.38,13.99c1.031,2.261,2.053,4.526,3.093,6.783a6.893,6.893,0,0,0,2.7,3.51q-1.473,5.433-3,10.849c-2.109,7.438-4.987,14.309-10.021,20.261-4.419,5.226-9.665,9.694-13.981,15.011-4.368,5.383-7.783,11.583-8.056,18.64-.036.928,1.407.926,1.443,0,.356-9.214,6.339-16.642,12.47-22.991,2.068-2.141,4.163-4.246,6.172-6.411a.678.678,0,0,0,.4.106,91.312,91.312,0,0,0,18.8-2.444c.9-.215.521-1.606-.383-1.392a89.271,89.271,0,0,1-17.567,2.361,48.358,48.358,0,0,0,8.546-12.531c3.78-8.486,5.634-17.873,8.02-26.814q1.277-4.785,2.554-9.57a.63.63,0,0,0,.894-.076q13.055-14.331,27.011-27.794C1191.366,487.934,1190.345,486.914,1189.677,487.559Z" transform="translate(-1119.999 -445.091)" fill="#f1f1f1"/>
      <path id="Path_11982" data-name="Path 11982" d="M1313.577,571.82c-12.515-6.067-26.682-6.572-40.325-7.233a147.791,147.791,0,0,0-17.423-.031l15.442-12.786c.715-.592-.31-1.607-1.02-1.02q-8.465,7.011-16.93,14.019a53.78,53.78,0,0,0-20.1,5.666c-5.809,3.085-10.878,7.326-16.3,11.01q-1.607,1.094-3.237,2.038c.726-4.211,3.278-8.1,5.255-11.808q3.216-6.026,6.566-11.977a.722.722,0,0,0-1.246-.728q-3.792,6.749-7.421,13.586c-1.99,3.754-4.266,7.509-4.72,11.8a53.6,53.6,0,0,1-14.28,5.141c-6.334,1.361-12.931,2.463-18.437,6.106-5.315,3.516-9.112,8.744-12.85,13.8q-.973,1.317-1.981,2.642c-.56-8.493-.854-17.109,2.146-25.222.322-.871-1.071-1.247-1.391-.383-3.227,8.725-2.717,18.061-2.091,27.179a.75.75,0,0,0,.022.13c-9.03,11.578-20.183,22.718-35.583,23.694-.922.058-.928,1.5,0,1.442,13.385-.848,24.278-9.361,32.675-19.218,4.471-5.25,8.21-11.08,12.7-16.309a32.224,32.224,0,0,1,13.272-9.441c.014.007.025.016.04.024l21.362,10.005c.836.391,1.569-.852.728-1.246l-20.2-9.462c.788-.252,1.593-.484,2.421-.692,6.346-1.6,12.885-2.385,18.884-5.143,5.724-2.632,10.7-6.573,15.791-10.216,5.695-4.073,11.582-7.494,18.4-9.3a79.77,79.77,0,0,1,21.452-2.13c5.137.066,10.3.271,15.448.614a.657.657,0,0,0,.039.077c4.409,7.16,13.7,9.161,17.975,16.378a.722.722,0,0,0,1.246-.728c-4.141-6.988-12.9-9.094-17.462-15.6q3.227.237,6.439.547c8.254.8,16.459,2.379,23.968,6.019C1313.68,573.469,1314.413,572.226,1313.577,571.82Z" transform="translate(-1120.186 -447.638)" fill="#f1f1f1"/>
      <path id="Path_11983" data-name="Path 11983" d="M1266.5,720.183q-9.246,5.475-18.952,10.092c-.619.294-3.365-1.071-4.045-1.312q-2.076-.735-4.11-1.582c-2.7-1.124-5.346-2.388-7.926-3.769a103.225,103.225,0,0,1-14.365-9.195c-1.77-1.369-3.5-2.878-5.168-4.347-7.5-6.614-13.344-14.47-20.006-21.854a43.645,43.645,0,0,0-11.523-9.476c-.922-.5-1.865-.947-2.819-1.374a78.393,78.393,0,0,0,18.5-5.549c.848-.372.115-1.615-.728-1.245a76.977,76.977,0,0,1-20.291,5.738c-2.9-1.123-5.895-2.021-8.88-2.867-12.443-3.527-24.872-4.667-37.435-.985a.722.722,0,0,0,.383,1.391,54.912,54.912,0,0,1,9.589-1.9,251.746,251.746,0,0,1,18.474,27.91.722.722,0,0,0,1.246-.729,251.917,251.917,0,0,0-18.049-27.344,70.144,70.144,0,0,1,24.108,2.678c5.308,1.458,10.7,3.033,15.542,5.711a45.252,45.252,0,0,1,11.928,10.253c6.527,7.49,12.522,15.162,20.1,21.664.608.521,1.224,1.034,1.843,1.542a130.591,130.591,0,0,1,5.071,21.635c.134.915,1.524.526,1.391-.384a130.4,130.4,0,0,0-4.425-19.615,98.916,98.916,0,0,0,19.924,12.209,79.6,79.6,0,0,0,30.263,7.284c.928.031.927-1.411,0-1.443a74.22,74.22,0,0,1-16.506-2.471q8.992-4.347,17.6-9.427A.722.722,0,0,0,1266.5,720.183Z" transform="translate(-1120.237 -452.457)" fill="#f5f5f5"/>
    </g>
  </g>
</svg>
