<svg xmlns="http://www.w3.org/2000/svg" width="156.205" height="90.603" viewBox="0 0 156.205 90.603">
  <g id="Group_820" data-name="Group 820" transform="translate(-674.73 -316.614)">
    <g id="Group_818" data-name="Group 818" transform="translate(674.73 316.614)">
      <path id="Path_12455" data-name="Path 12455" d="M850.046,356.712c.079-.675-.025-1.353.008-2.03a.446.446,0,0,0-.076-.235,1.555,1.555,0,0,1-.167-.923.986.986,0,0,0-.3-.946.237.237,0,0,1-.091-.182.989.989,0,0,0-.243-.565.638.638,0,0,1-.095-.4,2.081,2.081,0,0,0-.021-.373,5.9,5.9,0,0,1-.141-1.448.553.553,0,0,0-.061-.366c-.271-.352-.4-.783-.7-1.127a2.235,2.235,0,0,1-.645-1.283,18.191,18.191,0,0,1,.12-2.869,2.878,2.878,0,0,1,.3-.951.2.2,0,0,0-.053-.263c-.107-.072-.185,0-.247.082a1.185,1.185,0,0,1-.315.327,1.668,1.668,0,0,0-.6.624,13.58,13.58,0,0,0-1.1,2.2,10.683,10.683,0,0,0-.742,2.152c-.115.822-.255,1.646-.4,2.465a21.115,21.115,0,0,1-.373,2.674.6.6,0,0,0-.005.33.66.66,0,0,1-.006.371,8.771,8.771,0,0,0-.214,1.933,1.894,1.894,0,0,0-.038.537,2.967,2.967,0,0,1-.056,1.032,10.436,10.436,0,0,0-.024,2.454,2.524,2.524,0,0,1-.014.786,5.31,5.31,0,0,0-.117,1.491,5.07,5.07,0,0,1-.055,1.414,1.681,1.681,0,0,0,.019.662,3.382,3.382,0,0,1-.208,1.8,1.8,1.8,0,0,0-.151.724,4.607,4.607,0,0,1-.19,1.482c-.13.469-.249.942-.337,1.42a2.347,2.347,0,0,1-1.451,1.848c-.218.094-.44.17-.66.255a10.521,10.521,0,0,1-3.159.481,11.6,11.6,0,0,1-3.693-.213c-.054-.014-.112-.009-.166-.022a14.687,14.687,0,0,1-2.013-.5,16.7,16.7,0,0,1-1.65-.8,1.9,1.9,0,0,1-.988-.917c-.047-.113-.115-.262-.211-.3-.354-.141-.56-.491-1-.624a9.5,9.5,0,0,1,2.141-.257,2.951,2.951,0,0,0,.583-.022c.809-.125,1.615-.268,2.424-.39.319-.049.61-.2.928-.239a7.617,7.617,0,0,0,1.2-.3c.612-.185,1.174-.5,1.79-.676a1.286,1.286,0,0,0,.848-.618c.128-.237.321-.448.473-.681a2.05,2.05,0,0,0,.4-1.721,2.887,2.887,0,0,1-.079-.451,2.178,2.178,0,0,0-.985-1.416.441.441,0,0,0-.144-.081,6.468,6.468,0,0,0-2.355-.466,5.59,5.59,0,0,0-1.285.1c-.4.119-.8.248-1.2.345a10.84,10.84,0,0,1-2.555.337c-.776,0-1.544.16-2.319.225a13.722,13.722,0,0,1-2.28.173c-.514-.044-1.026-.063-1.54-.076a2.2,2.2,0,0,1-.249-.017,16.217,16.217,0,0,0-4.32.061,3.265,3.265,0,0,0-1.025.163,5.077,5.077,0,0,1-1.286.3c-.677.132-1.374.161-2.049.33a1.053,1.053,0,0,0-.563.236,1.214,1.214,0,0,1-.437.235,1.314,1.314,0,0,0-.361.2c-.253.217-.529.525-.855.454-.408-.09-.593.343-.947.278-.014,0-.028,0-.042,0-.142-.024-.221.053-.316.151a2.175,2.175,0,0,0-.367.946,3.419,3.419,0,0,0-.13,1.432.938.938,0,0,0,.4.741c.273.193.541.391.808.592a.923.923,0,0,0,.379.165,1.85,1.85,0,0,1,.855.416,4.04,4.04,0,0,0,1.582.708,2.386,2.386,0,0,0,.942.15,23.519,23.519,0,0,0,2.692-.293.666.666,0,0,1,.549.034.314.314,0,0,1-.251.277,3.312,3.312,0,0,1-1.21.289,2.465,2.465,0,0,0-1.083.262,2.968,2.968,0,0,1-1.622.183,6,6,0,0,0-3.174.456,2.776,2.776,0,0,1-1.343.206,2.6,2.6,0,0,0-1.908.36,1.493,1.493,0,0,1-.438.239,1.215,1.215,0,0,0-.639.573,1.111,1.111,0,0,0-.179,1.025,1.889,1.889,0,0,1,.158.55,1.554,1.554,0,0,0,.124.607,7.875,7.875,0,0,0,1.008,1.9,2.894,2.894,0,0,0,.745.7.709.709,0,0,1,.254,1c-.051.092-.135.184-.042.34a1.843,1.843,0,0,1,1.027.188.582.582,0,0,0,.329.021,4.816,4.816,0,0,0,1.432-.195.473.473,0,0,1,.207-.017,1.161,1.161,0,0,0,.832-.33.9.9,0,0,1,.6-.255,5.014,5.014,0,0,0,1.534-.5.3.3,0,0,0,.158-.129c.135-.286.417-.391.648-.565.419-.319.846-.629,1.287-.917a1.13,1.13,0,0,0,.282-.3,2.562,2.562,0,0,1,1.278-.9,2.555,2.555,0,0,0,.958-.627,4.84,4.84,0,0,1,1.009-.927,3.006,3.006,0,0,0,.63-.447c.107.258.191.46.276.664a6.524,6.524,0,0,0,1.85,2.375,8.58,8.58,0,0,0,.956.668,9.541,9.541,0,0,0,3.273,1.5,23.1,23.1,0,0,0,3.969.445c.167.005.333.014.5.029a11.6,11.6,0,0,0,1.956.022,26.039,26.039,0,0,1,2.742-.143,5.7,5.7,0,0,0,1.443-.161,4.126,4.126,0,0,1,.8-.186,1.146,1.146,0,0,0,.5-.133,1.723,1.723,0,0,1,1.086-.2,1.145,1.145,0,0,0,1.092-.357.742.742,0,0,1,.291-.23c.364-.107.68-.319,1.028-.45a1.228,1.228,0,0,0,.564-.4,2.993,2.993,0,0,1,.907-.841.391.391,0,0,0,.145-.146,1.894,1.894,0,0,1,.759-.7,1.131,1.131,0,0,0,.566-.726c.089-.3.192-.61.561-.715a.505.505,0,0,0,.242-.22c.279-.445.446-.952.751-1.384.034-.608.631-.976.679-1.581,0-.047.06-.092.1-.132a1.031,1.031,0,0,0,.261-.643,2.384,2.384,0,0,1,.314-.888,2.355,2.355,0,0,0,.328-1.83,1.517,1.517,0,0,1,.026-1.206,1.435,1.435,0,0,0,.133-.977,2.066,2.066,0,0,1,.062-.943,4.849,4.849,0,0,0,.262-1.554c-.05-.541-.021-1.085-.1-1.621a1.6,1.6,0,0,1,.011-.5c.094-.617.179-1.235.27-1.853a.987.987,0,0,0-.053-.45A2.008,2.008,0,0,1,850.046,356.712Z" transform="translate(-694.028 -320.42)" fill="#1a1311"/>
      <path id="Path_12456" data-name="Path 12456" d="M782.23,341.283a3.993,3.993,0,0,0-.193-1.927,1.062,1.062,0,0,1,.026-.576,8.65,8.65,0,0,0,.126-1.659c0-.331-.086-.661-.095-.993a6.9,6.9,0,0,0-.133-1.027,3.68,3.68,0,0,0-.313-1.225.092.092,0,0,1-.005-.041,1.977,1.977,0,0,0-.264-.954,4.244,4.244,0,0,1-.322-1.155,4.669,4.669,0,0,0-.5-1.449,1.679,1.679,0,0,1-.254-.741c-.008-.2-.133-.267-.279-.37a4.457,4.457,0,0,0-1.379-.438.323.323,0,0,0-.415.19c-.089.2-.227.39-.158.631a.469.469,0,0,1-.076.353,2.269,2.269,0,0,1-.3.448,1.1,1.1,0,0,0-.214,1.1,4.128,4.128,0,0,1,.185,1.105,7.354,7.354,0,0,0,.162,1.153,4.52,4.52,0,0,1,.109,1.034.757.757,0,0,0,.043.286,2.762,2.762,0,0,1,.128.987,2.09,2.09,0,0,0,.108.984.5.5,0,0,1,0,.246,10.921,10.921,0,0,0,0,1.7c.029.431.126.848.163,1.277a7.876,7.876,0,0,1,0,1.368c-.023.255-.041.274-.3.178-.507-.188-.965-.475-1.476-.664a7.2,7.2,0,0,0-1.464-.461,1.362,1.362,0,0,1-1.123-.871,15.632,15.632,0,0,0-1.067-1.526,1.175,1.175,0,0,0-.725-.522,1.43,1.43,0,0,1-.376-.177,2.923,2.923,0,0,0-1.971-.315c-.284.026-.371.158-.38.454a4.011,4.011,0,0,0,.026.415c.012.179.056.36-.158.472a.2.2,0,0,0-.073.293c.1.2.009.338-.131.475a1.084,1.084,0,0,0-.255,1.088,7.986,7.986,0,0,1,.36,1.748,1.172,1.172,0,0,0,.112.442c.218.539.492,1.052.746,1.573.125.257.233.524.331.786a11.92,11.92,0,0,0,.6,1.087,2.294,2.294,0,0,0,.677.882,1.254,1.254,0,0,1,.3.342A4.239,4.239,0,0,0,773.2,348.4c.371.256.831.339,1.169.618a2.239,2.239,0,0,0,1.061.374,1.626,1.626,0,0,0,.662.015c.212-.041.355.083.288.23a8.425,8.425,0,0,1-.353.928,5.805,5.805,0,0,0-.6,1.139,8.931,8.931,0,0,1-.776,1.731,2.846,2.846,0,0,1-1.466,1.35,16.808,16.808,0,0,0-1.567.665.835.835,0,0,1-1.009-.007.5.5,0,0,0-.073-.039c-.152-.087-.25-.037-.346.1-.178.261-.207.267-.5.152a4.223,4.223,0,0,0-.666-.243.825.825,0,0,1-.428-.237c-.2-.2-.307-.186-.467.027-.27.36-.272.368-.709.248a.366.366,0,0,0-.441.122.52.52,0,0,1-.4.206.927.927,0,0,0-.564.245,1.638,1.638,0,0,1-1.006.343c-.413.014-.6.348-.923.482-.046.02-.083.119-.084.181a2.027,2.027,0,0,1-.295.987.488.488,0,0,0-.031.366c0,.016.04.026.079.049l.109-.3.1-.012a5.756,5.756,0,0,0,.482,1.2.7.7,0,0,0,.16.289c.4.324.625.815,1.067,1.1a9.207,9.207,0,0,0,1.069.764,3.887,3.887,0,0,1,.939.517,2.962,2.962,0,0,0,1.309.582,3.817,3.817,0,0,0,2.045.132,5.95,5.95,0,0,1,.907-.033c.376-.054.734-.181,1.1.079.114.081.263.114.349.251.174.276.185.279.5.166.261-.095.527-.167.8-.236a5.968,5.968,0,0,0,1.135-.352,6.546,6.546,0,0,1,.975-.33,6.993,6.993,0,0,0,1.612-.662,2.192,2.192,0,0,1,.72-.311.436.436,0,0,0,.343-.259c.2-.4.495-.738.676-1.147a.635.635,0,0,1,.2-.26,4.02,4.02,0,0,0,1.154-1.937,3.409,3.409,0,0,0,.1-.9,6.482,6.482,0,0,0,.169-1.271,3.412,3.412,0,0,1,.237-1.47c.021-.05.009-.113.028-.164.114-.314-.032-.63.008-.942.079-.62.16-1.24.259-1.857a3.659,3.659,0,0,0,.018-.952,10.648,10.648,0,0,1-.095-1.453,4.489,4.489,0,0,1,.166-1.52.829.829,0,0,0,0-.493,3,3,0,0,1-.023-1.44,7.683,7.683,0,0,0,.143-.779,1.992,1.992,0,0,0,.051-.537q-.12-.929-.287-1.85A2.41,2.41,0,0,1,782.23,341.283Z" transform="translate(-687.696 -318.377)" fill="#1a1311"/>
      <path id="Path_12457" data-name="Path 12457" d="M807.9,335.87a.641.641,0,0,0,.124.111,2.022,2.022,0,0,1,.825,1.058,1.178,1.178,0,0,0,1.063.862.65.65,0,0,1,.238.068,8.516,8.516,0,0,0,1.631.629,2.869,2.869,0,0,0,1.51.162,2.541,2.541,0,0,1,.624-.034,5.171,5.171,0,0,0,.708-.024,4.705,4.705,0,0,1,1.695-.07,1.829,1.829,0,0,0,.664-.012,3.872,3.872,0,0,0,.928-.239,3.865,3.865,0,0,1,.964-.221,5.877,5.877,0,0,0,1.789-.861c.281-.147.515-.384.8-.525a14.79,14.79,0,0,0,2.491-1.942c.585-.466,1.049-1.072,1.661-1.508a11.694,11.694,0,0,0,2.008-1.618.534.534,0,0,1,.413-.166.357.357,0,0,0,.357-.174,2.23,2.23,0,0,1,.585-.841c.064-.056.073-.176.1-.268a1.083,1.083,0,0,1,.082-.278.725.725,0,0,0,.025-.672,9.664,9.664,0,0,1-.46-1.457.747.747,0,0,0-1.206-.566c-.264.154-.537.29-.8.443s-.3.155-.473-.135c-.085-.141-.2-.194-.293-.067a4.334,4.334,0,0,1-1.066.786,1,1,0,0,1-.528.21,1.507,1.507,0,0,0,.02-.381,5.832,5.832,0,0,1,.061-1.409.434.434,0,0,1,.339-.465c.524-.135,1.036-.321,1.563-.44a14.274,14.274,0,0,0,1.645-.46,3.719,3.719,0,0,0,1.774-1.028.324.324,0,0,1,.138-.09c.76-.282,1.082-.964,1.457-1.594a.523.523,0,0,0,.04-.407,2.386,2.386,0,0,1-.054-.788,1.173,1.173,0,0,0-.788-1.2,6.467,6.467,0,0,1-1.01-.576.61.61,0,0,0-.463-.144,2.272,2.272,0,0,1-1.137-.172,1.376,1.376,0,0,0-1.305.141,2.406,2.406,0,0,1-.565.254,12.279,12.279,0,0,1-1.793.369c-.561.088-.734.073-.987-.565a4.385,4.385,0,0,1-.314-1.42.8.8,0,0,0-.641-.841c-.12-.036-.242-.066-.358-.111a1.316,1.316,0,0,1-.609-.343.455.455,0,0,0-.688-.131.358.358,0,0,1-.16.038c-.437.058-.528.161-.578.6a6.879,6.879,0,0,1-.3,1.55,2.714,2.714,0,0,0-.11.567,13.869,13.869,0,0,0-.084,2.08c.008.471-.094.583-.543.689a3.379,3.379,0,0,1-.45.081q-1.846.169-3.694.331a5.3,5.3,0,0,1-.914.038,10.632,10.632,0,0,0-1.83.079,1.892,1.892,0,0,1-.817-.05.329.329,0,0,0-.388.063c-.155.188-.337.154-.532.114a1.33,1.33,0,0,0-.287-.045c-.141,0-.238.109-.128.213.287.272.114.448-.073.661a.411.411,0,0,0-.026.634,12.031,12.031,0,0,0,.952,1.045c.406.38.939.594,1.349.975a.357.357,0,0,0,.152.066,6.6,6.6,0,0,0,2.128.351,2.333,2.333,0,0,1,1.151.018c1.015-.084,2.024.076,3.039.061.4-.006.534.145.465.534-.132.738-.257,1.475-.328,2.222-.015.151-.043.3-.061.454a.266.266,0,0,1-.193.246,4.8,4.8,0,0,1-.642.174,12.2,12.2,0,0,1-2,.086.913.913,0,0,1-.558-.138,1.773,1.773,0,0,0-.858-.284,1.958,1.958,0,0,1-1.048-.344,1.294,1.294,0,0,0-.583-.3,1.2,1.2,0,0,1-.539-.208,1.264,1.264,0,0,0-1.508-.137c-.092.045-.179.137-.3.084-.052-.263.159-.5.078-.758-.126-.037-.168.055-.235.1-.583.383-1.034.927-1.605,1.323a.258.258,0,0,0-.114.324.358.358,0,0,1,0,.318,14.378,14.378,0,0,1-1.061,1.537,1.447,1.447,0,0,0-.266.506c-.106.416-.2.836-.338,1.243a.925.925,0,0,0,.169.977C807.332,335.16,807.6,335.524,807.9,335.87Z" transform="translate(-693.982 -316.614)" fill="#1a1311"/>
      <path id="Path_12458" data-name="Path 12458" d="M808.856,360.725c.8.1,1.6.181,2.4.261a25.906,25.906,0,0,0,2.863.216c.346,0,.694-.078,1.037-.056a4.261,4.261,0,0,0,1.559-.218,5.276,5.276,0,0,1,1.462-.308.781.781,0,0,0,.279-.074c.409-.171.824-.333,1.222-.528a1.7,1.7,0,0,0,.987-.845,1.466,1.466,0,0,1,.495-.555,1.222,1.222,0,0,0,.447-.538.418.418,0,0,1,.271-.238c.526-.232.551-.3.33-.809a1.014,1.014,0,0,0-.068-.152.392.392,0,0,1,.094-.555c.094-.086.242-.151.187-.4-.46.354-.676.015-.9-.295a.768.768,0,0,0-.06-.058,2.712,2.712,0,0,0-1.076-.593,3.467,3.467,0,0,0-1.506-.2c-.426.032-.853.089-1.281.129s-.858.077-1.286.127a.246.246,0,0,1-.308-.2,1.879,1.879,0,0,1-.058-.327c-.022-.4-.046-.8-.05-1.206a.849.849,0,0,1,.716-.929,4.135,4.135,0,0,1,.491-.089,1.6,1.6,0,0,0,.606-.143c.374-.217.8-.317,1.174-.535a6.776,6.776,0,0,1,.814-.409.855.855,0,0,0,.624-.758.476.476,0,0,1,.39-.478.422.422,0,0,0,.3-.264,1.064,1.064,0,0,1,.48-.495.559.559,0,0,0,.036-.972,5.477,5.477,0,0,0-1.87-.769,2.728,2.728,0,0,1-.62-.179.818.818,0,0,0-.4-.114c-.888-.04-1.766-.2-2.657-.189-.453.005-.557-.088-.544-.533a3.043,3.043,0,0,0-.278-1.334,1.082,1.082,0,0,1-.1-.275,1.056,1.056,0,0,0-.671-.83,1.536,1.536,0,0,0-.935-.074c-.14.019-.291.071-.395-.042a.785.785,0,0,0-.646-.191c-.461-.009-.488.005-.683.418a15.292,15.292,0,0,0-.337,2.158,3.239,3.239,0,0,1-.031.624c-.038.205-.114.307-.363.278a5.959,5.959,0,0,1-1.737-.408,2.512,2.512,0,0,1-1.083-.81c-.244-.341-.628-.312-.97-.4-.241-.062-.3.129-.422.254a.605.605,0,0,1-.138.092,1.975,1.975,0,0,1-1.106.321.588.588,0,0,0-.658.39.511.511,0,0,1-.1.136.655.655,0,0,0-.21.6.16.16,0,0,1-.091.208c-.286.108-.438.383-.677.544a1.683,1.683,0,0,0-.654,1.078,1.179,1.179,0,0,0,.307,1.225,3.915,3.915,0,0,0,1.149.806,15.7,15.7,0,0,0,4.571,1.359c.307.038.612.021.917.039.372.021.464.121.459.488,0,.18-.029.36-.044.54a12.056,12.056,0,0,0-.224,1.353c.007.272-.122.35-.413.341a2.262,2.262,0,0,0-.538-.017,5.345,5.345,0,0,1-1.738.041,3.27,3.27,0,0,0-.791,0c-.67.084-1.348.085-2.014.229-.506.109-.709.285-.71.8,0,.1.017.206-.079.262a1.738,1.738,0,0,0-.59.792,1.313,1.313,0,0,0-.121,1.122,3.962,3.962,0,0,1,.155.563.444.444,0,0,0,.343.378,3.137,3.137,0,0,1,.785.377,1.792,1.792,0,0,0,1.105.3,4.414,4.414,0,0,1,1.928.207A6.783,6.783,0,0,0,808.856,360.725Z" transform="translate(-693.446 -320.562)" fill="#1a1311"/>
      <path id="Path_12459" data-name="Path 12459" d="M830.209,344.77a4.6,4.6,0,0,1-.811.5c-.371.125-.468.434-.624.706-.128.224-.068.389.126.585.079.079.141.173.22.249a4.126,4.126,0,0,0,1.151,1.007,6.567,6.567,0,0,0,3.055.518c.374-.027.745-.086,1.118-.127.309-.033.41.041.451.343a3.769,3.769,0,0,1,.015.417,17.646,17.646,0,0,0,.068,2.166c.038.258-.026.3-.311.279a1.319,1.319,0,0,0-.572,0,14.642,14.642,0,0,0-1.964.8,6.42,6.42,0,0,0-1.14.679,8.863,8.863,0,0,1-.993.689,1.626,1.626,0,0,0-.382.246,7.875,7.875,0,0,1-1.383,1.136c-.32.22-.671.391-.758.82-.008.038-.047.068-.068.1-.1.167-.352.149-.428.308s.119.353.039.561a.881.881,0,0,0,.114.72c.23.46.457.923.675,1.389a.6.6,0,0,0,.278.3,4.7,4.7,0,0,0,.541.218c.477.176.993.119,1.474.261a2.268,2.268,0,0,0,.909.085,16.148,16.148,0,0,0,1.695-.2,3.3,3.3,0,0,0,1.978-.982.6.6,0,0,1,.387-.229,8.706,8.706,0,0,0,1.354-.518.832.832,0,0,0,.345-.229,3.668,3.668,0,0,1,.677-.542,9.2,9.2,0,0,1,2.265-1.349.662.662,0,0,0,.15-.073,1.342,1.342,0,0,1,.748-.213c.384,0,.468-.1.6-.455a2.1,2.1,0,0,1,1.065-1.219c.328-.162.713-.234.936-.577a.4.4,0,0,1,.3-.124.955.955,0,0,0,.35-.13,6.913,6.913,0,0,0,.768-1.2c0-.264,0-.528-.009-.792a.52.52,0,0,0-.325-.494.752.752,0,0,1-.333-.3,5.442,5.442,0,0,1-.365-.558.477.477,0,0,0-.554-.263.808.808,0,0,0-.791.671c-.03.145-.12.322-.25.29-.283-.068-.353.129-.484.28a1.752,1.752,0,0,1-.32.267c-.174.12-.255.088-.276-.114-.079-.745-.116-1.5-.259-2.233a2.875,2.875,0,0,1,.224-1.725,1.4,1.4,0,0,1,.845-.842,3.367,3.367,0,0,0,.91-.5c.407-.319.9-.536,1.112-1.081a3.722,3.722,0,0,0,.291-2.151c-.023-.109-.024-.241-.111-.308a3.34,3.34,0,0,0-1.056-.7.955.955,0,0,1-.687-.482.532.532,0,0,0-.769-.269c-.17.061-.332.143-.5.2a.6.6,0,0,1-.655-.138,1.259,1.259,0,0,1-.274-.416,1.321,1.321,0,0,0-.777-.712.741.741,0,0,1-.481-.478,1.271,1.271,0,0,0-1.143-.847,3.588,3.588,0,0,1-1.359-.48c-.22-.132-.348-.091-.485.131a1.865,1.865,0,0,0-.159.339,3.7,3.7,0,0,0-.411,1.167c-.01.751-.124,1.5-.091,2.249.015.347-.014.7,0,1.043.009.235-.1.325-.3.426-.949.475-2,.667-2.962,1.116A16.8,16.8,0,0,0,830.209,344.77Z" transform="translate(-696.924 -319.651)" fill="#1a1311"/>
      <path id="Path_12460" data-name="Path 12460" d="M802.625,367.21a13.091,13.091,0,0,0-1.919-2.511,2.927,2.927,0,0,1-.34-.421,14,14,0,0,0-2.89-3.1,18.087,18.087,0,0,0-3.021-1.995,2.3,2.3,0,0,1-.32-.195q-.683-.514-1.359-1.036a.5.5,0,0,0-.289-.155c-.475,0-.929-.179-1.467-.164-.246-.1-.454.185-.721.216a1,1,0,0,0-.746,1.172c.173.676.2,1.374.35,2.05a2.3,2.3,0,0,0,.369,1.01,4.913,4.913,0,0,1,.6.993,1.872,1.872,0,0,1,.249,1.2.644.644,0,0,0,.048.487,14.131,14.131,0,0,0,1.062,1.588,8.658,8.658,0,0,1,1.117,1.638,5.619,5.619,0,0,0,1.114,1.443,12.293,12.293,0,0,0,1.517,1.087,17.16,17.16,0,0,0,2.325.987.743.743,0,0,0,.247.023,1.288,1.288,0,0,1,.365.073,1.9,1.9,0,0,0,.98.138.59.59,0,0,1,.439.078.549.549,0,0,0,.629.005,1.633,1.633,0,0,1,1-.209.817.817,0,0,0,.848-.421,1.942,1.942,0,0,0,.294-1.029c-.038-.507.193-1.019-.028-1.521A2.024,2.024,0,0,0,802.625,367.21Z" transform="translate(-691.467 -322.592)" fill="#1a1311"/>
      <path id="Path_12461" data-name="Path 12461" d="M791.024,343.154a.99.99,0,0,1,.2.028c.409-.005.875-.162,1.356-.208a.64.64,0,0,0,.52-.367,1.9,1.9,0,0,0,.186-.462,11.323,11.323,0,0,1,.338-1.328,3.29,3.29,0,0,0,.188-1.5,5.6,5.6,0,0,0-.58-2.062,5.952,5.952,0,0,1-.388-.829,1.12,1.12,0,0,0-.321-.48,7.633,7.633,0,0,1-.789-.911,2.63,2.63,0,0,0-1.674-1.2.8.8,0,0,1-.2-.064,1.323,1.323,0,0,0-1.092.036,2.887,2.887,0,0,1-.716.211.976.976,0,0,0-.752.781.332.332,0,0,1-.178.292c-.236.138-.23.214,0,.383a1.063,1.063,0,0,1,.291.292,3.942,3.942,0,0,1,.559,2.63,5.756,5.756,0,0,0-.07,1.864.831.831,0,0,1-.138.6,3.59,3.59,0,0,0-.288.691c-.038.109-.055.231.049.307a.737.737,0,0,0,.649.208c.355-.124.56.042.813.245A2.631,2.631,0,0,0,791.024,343.154Z" transform="translate(-691.091 -319.1)" fill="#1a1311"/>
      <path id="Path_12462" data-name="Path 12462" d="M729.28,361.579a3.08,3.08,0,0,0-.249-2.071c-.509-1.078-.837-2.242-1.276-3.467a4.87,4.87,0,0,1,1.026-.422,34.706,34.706,0,0,0,4.52-1.2,1.449,1.449,0,0,1,.331,0,3.7,3.7,0,0,0,.459.4c.559.361,1.6.326,1.812-.193.312-.765,1.121-1.028,1.45-1.711a2.922,2.922,0,0,1,.442-2.414,9.752,9.752,0,0,0,.4-1c.548-1.542,1.107-3.069,3.09-3.244a.323.323,0,0,0,.126-.044,3.006,3.006,0,0,0,1.658-2.148,2.44,2.44,0,0,0-1.137-2.417c-.823-.607-1.566-1.321-2.337-2-.47-.412-.927-.838-1.391-1.257a2.14,2.14,0,0,0-1.746-.521,22.612,22.612,0,0,0-2.658.37,75.592,75.592,0,0,1-9.823,1.069c1.853-.647,3.324-.833,3.03-1.765-.3-1.214-1.224-2.2-1.556-3.411s-.431-1.288-1.733-1.455c-.131-.016-.262-.023-.352-.031-1.855,1.159-3.657,2.323-5.495,3.422-1.277.763-1.3.724-1.355,2.1a2.734,2.734,0,0,0-2.58,1.818s-1.08.109-.975.625a1.526,1.526,0,0,0-.118,1.536,15.33,15.33,0,0,0,.718,1.59,7.487,7.487,0,0,1,.919,3.064,23.439,23.439,0,0,1,.166,2.67c-.065,1.017.9,1.532,1,2.433.009.086.089.169.085.252a1.5,1.5,0,0,1-.078.483c-.643.393-.783,1.874-.783,1.874-.155.092-.4.038-.741.061.456.617.356,1.313.918,1.757a17.714,17.714,0,0,0,1.348,1.283,7.194,7.194,0,0,0,1.666.557,10.4,10.4,0,0,1,5.469-1.559c-.067.911.013,1.793-.12,2.675a1.047,1.047,0,0,1-.208.487,6.4,6.4,0,0,0-1.1,4.338,26.5,26.5,0,0,0,.81,6.247c.279,1.087.786,2.192.4,3.384a.783.783,0,0,0,.123.506c.437.864.932,1.659,2.094,1.561a2.05,2.05,0,0,1,.452.049c.686-.43.645-1.547,1.6-1.424a3.944,3.944,0,0,1,.615-1.227,2.54,2.54,0,0,0,.665-1.419c.117-.429.125-.889.248-1.315a11.1,11.1,0,0,0,.194-4.913A9.738,9.738,0,0,1,729.28,361.579Zm-8.825-15.539c1.009-.118,1.975-.24,2.944-.342a13.5,13.5,0,0,0,4.235-1.225,19.71,19.71,0,0,1,5.838-1.3c.079-.01.167.056.3.105a5.769,5.769,0,0,1,.748,2.365c.168,1.373.219,2.761.319,4.142a1.1,1.1,0,0,1-.493,1.031c-.7.521-1.262,1.331-2.563.9.886-.9,2.234-1.2,2.363-2.659-.536-.733-1.049-1.629-2.186-1.825a1.152,1.152,0,0,1-.727-.518,1.689,1.689,0,0,0-1.787-.626,20.5,20.5,0,0,1-2.069.2c-.176.226-.333.6-.61.741a3.813,3.813,0,0,1-1.171.189c-1.329.173-2.657.349-3.987.518-.522.067-1.045.117-1.754.195Zm4.722,5.915c-1.915.027-3.829.1-5.744.141a5.9,5.9,0,0,1-.832-.155c.372-.331.528-.577.727-.621a4.5,4.5,0,0,1,.929.034,6.412,6.412,0,0,0,2.751-.428,9.166,9.166,0,0,1,3.012-.547,3.524,3.524,0,0,1,1.877.629,3.658,3.658,0,0,0,1.988.657c.137-.013.29.159.674.387a14.436,14.436,0,0,1-2.583-.015C727.044,351.977,726.109,351.942,725.177,351.956Z" transform="translate(-680.264 -318.952)" fill="#1a1311"/>
      <path id="Path_12463" data-name="Path 12463" d="M754.636,369.034c-1.1-.05-2.2-.409-3.3.132a2.8,2.8,0,0,1-2.095.161,3.76,3.76,0,0,0-.929-.131c-1.474-.069-2.95-.124-4.425-.184a3.871,3.871,0,0,1-1.892-.6,8.121,8.121,0,0,0-2.456-1.338c-.182-.038-.364-.262-.47-.445-.466-.807-1.445-.826-2.069-1.382-.467.138-.934.278-1.4.413-.166.048-.333.087-.464.121-.332.981-.327.98-.136,1.724.312,1.211.573,2.437.939,3.63a6.2,6.2,0,0,0,.865,1.8,12.326,12.326,0,0,0,7.341,4.615,2.833,2.833,0,0,0,.666.035c.535,0,1.069,0,1.6-.009q1.612-.019,3.223-.044a1.1,1.1,0,0,0,1.054-.46,2.919,2.919,0,0,1,1.431-1.175c1.187-.516,1.863-1.6,2.81-2.267a3.906,3.906,0,0,1-.1-1.724,1.772,1.772,0,0,0,.042-1.156c-.269-.539.106-.806.33-1.211C755.011,369.358,754.831,369.043,754.636,369.034Z" transform="translate(-683.498 -323.704)" fill="#1a1311"/>
      <path id="Path_12464" data-name="Path 12464" d="M714.527,366.651a1.569,1.569,0,0,0-.123-.249c-.018-.038-.028-.078-.048-.116l-.021.019a1.539,1.539,0,0,0-.513-.432c-.4-.22-1.305.661-1.509.778h0c-.328.188-.656.374-.981.565-.645.377-1.246.409-1.689-.146l-7.653,1.181a2.307,2.307,0,0,1-.029.394,1.516,1.516,0,0,0,.65,1.825,2.522,2.522,0,0,1,1.067,2.03,3.758,3.758,0,0,1,1.591,1.447,1.368,1.368,0,0,0,1.222.707,4.433,4.433,0,0,1,1.762.58,4.6,4.6,0,0,0,2.729.395,9.233,9.233,0,0,0,4.512-2.421c-.549-2.142-.1-4.408-.955-6.483A.481.481,0,0,0,714.527,366.651Z" transform="translate(-678.687 -323.79)" fill="#1a1311"/>
      <path id="Path_12465" data-name="Path 12465" d="M698.227,351.755a.838.838,0,0,1,.212-.67,5.875,5.875,0,0,0,.716-1.062c.234-.3.736-.316,1.018-.6.126-.74.1-.565.542-1.152a.79.79,0,0,0,.1-.19,1.2,1.2,0,0,0,.565-.324c.1-.133.235-.324.375-.519a.442.442,0,0,0,.026.074.97.97,0,0,0,.39-.6c.039-.107.082-.212.12-.318.082-.177.563-.327.856-.518.123-.079.212-.167.212-.266.467-.677.334-2.189.665-2.887a1.851,1.851,0,0,0,.033-.629.666.666,0,0,1,.054-.269c.342-.635-.439-1.583-.214-2.248a3.03,3.03,0,0,1,.314-.755,2.328,2.328,0,0,0,.356-.934c.125-.693-.624-1.228-.478-2,.538-.112.657-.582.752-1.086.114-.6.283-1.2.386-1.8a4.042,4.042,0,0,1,.308-.952,14.56,14.56,0,0,0,.566-3.179c0-.414.832-2.052,1.009-2.7l3.8.817c.915-.037,1.775-.138,2.619-.094q5.87.3,11.731.681a5.907,5.907,0,0,1,1.774.321,16.263,16.263,0,0,0,5.566.735,3.97,3.97,0,0,0,1.275-.115,5.544,5.544,0,0,1,2.838-.454,1.328,1.328,0,0,0,.838-.244,7.079,7.079,0,0,1,2.953-1.128c1.086-.186,1.851-.759,1.907-1.749.027-.472.132-.945.183-1.291-.6-.46-1.08-.812-1.539-1.179-.255-.2-.426-.5-.725-.632a2.647,2.647,0,0,1-1.312-1.507,6.35,6.35,0,0,1-.3-.894,14.847,14.847,0,0,0-2.346-.3,16.535,16.535,0,0,1-3.993-.315,3.766,3.766,0,0,0-2.138.184,8.3,8.3,0,0,1-2.313.448,47.758,47.758,0,0,0-5.827.573c-2.657.472-5.342.638-8.028.858a20.114,20.114,0,0,0-2.726.345,24.775,24.775,0,0,1-5.651.567c-.142,0-.284.006-.425.009-.114-.05-.225-.095-.336-.15a1.113,1.113,0,0,1-.358-.266,3.9,3.9,0,0,0-1.937-1.3,4.144,4.144,0,0,1-.836-.32c-.251-.134-.394.016-.566.136-.138-.114-1.627.433-1.791.3a1.056,1.056,0,0,1-1.434.392l-.528.875-.922.239c-.265.285-.241.655-.549.817-.5.263-.517.7-.413,1.184a1.787,1.787,0,0,1,.121.8.566.566,0,0,0,.179.4,1.523,1.523,0,0,0,.507.383c.535.214.769.813,1.009,1.349a.555.555,0,0,0,.416.328.7.7,0,0,1,.6.7c.02.243.089,1.241.126,1.484.1.665.706,2.669.808,3.335a8.86,8.86,0,0,1,.059,2.285,9.78,9.78,0,0,1-.378,2.067,4.068,4.068,0,0,0-.1.722,3.693,3.693,0,0,1-.108.72c-.263.757.353,1.753.227,2.542a2.435,2.435,0,0,1-.293.955,7.058,7.058,0,0,0-.782,1.852c-.3.973-.663.718-1.227,1.568a4.779,4.779,0,0,0-.364.639,9.483,9.483,0,0,1-1.882,2.24,5.041,5.041,0,0,1-2.945,1.522c-.932.146-1.932-.534-2.776-.087a8.623,8.623,0,0,1-2.939.749,2.381,2.381,0,0,1-1.493.284,2.227,2.227,0,0,0-.238,0,.92.92,0,0,1-.1-.072,1.505,1.505,0,0,0-1.269-.577,2.02,2.02,0,0,1-1.031-.281c-.407-.205-.741-.132-1.052-.484a1.888,1.888,0,0,0-2.075-.585,3.422,3.422,0,0,1-.8.151,3.221,3.221,0,0,0-.718.145.877.877,0,0,0-.611.636,6.8,6.8,0,0,0-.255,1.152c-.038.351.231.622.371.925.013.027.032.062.024.087a.661.661,0,0,1-.091.231c-.027.034-.113.033-.17.031a.277.277,0,0,1-.271-.2c-.042-.12-.118-.232-.26-.148a.252.252,0,0,0-.1.217.435.435,0,0,1-.1.5c-.169.173-.413.346-.456.553-.13.629-.69,1.2-.3,1.911.034.063-.016.173-.032.26s-.072.183-.056.264c.12.626.164,1.286.789,1.686a2.535,2.535,0,0,1,.451.456,1.032,1.032,0,0,1,.352.724.677.677,0,0,0,.327.522,4.744,4.744,0,0,0,2.449.928.746.746,0,0,0,.515-.112.733.733,0,0,1,.77-.091,1.709,1.709,0,0,0,.635.038,3.017,3.017,0,0,1,1.181.11,1.118,1.118,0,0,0,.443.011c.242-.02.481-.063.723-.085a10.75,10.75,0,0,0,2.255-.191.188.188,0,0,0,.1-.057.308.308,0,0,0,.032-.161c.014-.131.785-.236.8-.37a1.322,1.322,0,0,1,.058-.378c.091-.224.574.267.8.167.612-.267.5-.58,1.19-.649a2.836,2.836,0,0,0,.694-.3c.015-.145.807-.093.852-.152a1.532,1.532,0,0,1,.373-.386,7.178,7.178,0,0,0,1.169-.709,2.256,2.256,0,0,1,1.018-.571,4.131,4.131,0,0,0,1.617-.863,4.364,4.364,0,0,1,1.335-.585,6.434,6.434,0,0,0,2.124-1.432A1.147,1.147,0,0,0,698.227,351.755Z" transform="translate(-674.73 -316.925)" fill="#1a1311"/>
    </g>
    <g id="Group_819" data-name="Group 819" transform="translate(711.538 381.721)">
      <path id="Path_12466" data-name="Path 12466" d="M735.479,405.835a6.249,6.249,0,0,0-1.279.132l-7.189-12.775a.7.7,0,1,0-1.227.69l7.059,12.543a6.249,6.249,0,0,0-1.354.855l-12.476-12.089a.7.7,0,0,0-.98,1.011l12.485,12.1a6.236,6.236,0,1,0,4.959-2.466Zm0,10.136a3.888,3.888,0,0,1-3.255-6.02l2.514,2.436a.7.7,0,1,0,.98-1.011l-2.521-2.443a3.89,3.89,0,1,1,2.283,7.037Z" transform="translate(-717.82 -392.833)" fill="#1a1311"/>
      <path id="Path_12467" data-name="Path 12467" d="M765.249,407.7a1.176,1.176,0,0,0-1.175,1.176v7.137l-6.3-7.687a1.176,1.176,0,0,0-2.085.745V419.32a1.175,1.175,0,1,0,2.351,0v-6.955l6.3,7.686a1.176,1.176,0,0,0,2.085-.745V408.88A1.176,1.176,0,0,0,765.249,407.7Z" transform="translate(-723.342 -395.001)" fill="#1a1311"/>
      <path id="Path_12468" data-name="Path 12468" d="M773.64,407.785a1.176,1.176,0,0,0-1.175,1.176v10.354a1.175,1.175,0,1,0,2.351,0V408.961A1.176,1.176,0,0,0,773.64,407.785Z" transform="translate(-725.787 -395.013)" fill="#1a1311"/>
      <path id="Path_12469" data-name="Path 12469" d="M780.747,407.785a1.177,1.177,0,0,0-1.176,1.176v10.354a1.176,1.176,0,1,0,2.352,0V408.961A1.176,1.176,0,0,0,780.747,407.785Z" transform="translate(-726.823 -395.013)" fill="#1a1311"/>
      <path id="Path_12470" data-name="Path 12470" d="M786.32,414.377l3.972-3.788a1.176,1.176,0,0,0-1.623-1.7l-4.907,4.679a1.175,1.175,0,0,0,.041,1.738l5.414,4.7a1.175,1.175,0,1,0,1.541-1.775Z" transform="translate(-727.381 -395.127)" fill="#1a1311"/>
      <path id="Path_12471" data-name="Path 12471" d="M750.317,413.846h-.794a1.176,1.176,0,0,0,0,2.352h.794a1.176,1.176,0,0,0,0-2.352Z" transform="translate(-722.271 -395.897)" fill="#1a1311"/>
      <path id="Path_12472" data-name="Path 12472" d="M804.191,407.529a1.175,1.175,0,0,0-1.175,1.175v6.448a2.97,2.97,0,0,1-2.968,2.967h-.084A2.97,2.97,0,0,1,797,415.153V408.7a1.176,1.176,0,0,0-2.352,0v6.448a5.325,5.325,0,0,0,5.318,5.318h.084a5.325,5.325,0,0,0,5.318-5.318V408.7A1.175,1.175,0,0,0,804.191,407.529Z" transform="translate(-729.021 -394.976)" fill="#1a1311"/>
    </g>
  </g>
</svg>
