<svg xmlns="http://www.w3.org/2000/svg" width="129.125" height="50" viewBox="0 0 129.125 50">
  <g id="Group_920" data-name="Group 920" transform="translate(-6824.875 201.555)">
    <text id="立即購買_buy" data-name="立即購買
buy" transform="translate(6915 -180.555)" fill="#a1c969" font-size="18" font-family="NotoSansCJKtc-Medium, Noto Sans CJK TC" letter-spacing="0.1em" font-weight="500"><tspan x="-38.7" y="0">立即購買</tspan><tspan font-size="14" font-family="NotoSansCJKtc-Regular, Noto Sans CJK TC" font-weight="400"><tspan x="-14.658" y="25">BUY</tspan></tspan></text>
    <g id="shopping-cart" transform="translate(6824.875 -192.555)">
      <path id="Path_12564" data-name="Path 12564" d="M137.362,437a2.362,2.362,0,1,0,2.362,2.362A2.365,2.365,0,0,0,137.362,437Zm0,3.779a1.417,1.417,0,1,1,1.417-1.417A1.419,1.419,0,0,1,137.362,440.779Z" transform="translate(-126.497 -409.475)" fill="#a1c969"/>
      <circle id="Ellipse_8" data-name="Ellipse 8" cx="0.5" cy="0.5" r="0.5" transform="translate(10.25 29.249)" fill="#a1c969"/>
      <circle id="Ellipse_9" data-name="Ellipse 9" cx="0.5" cy="0.5" r="0.5" transform="translate(26.25 29.249)" fill="#a1c969"/>
      <path id="Path_12565" data-name="Path 12565" d="M394.362,437a2.362,2.362,0,1,0,2.362,2.362A2.365,2.365,0,0,0,394.362,437Zm0,3.779a1.417,1.417,0,1,1,1.417-1.417A1.419,1.419,0,0,1,394.362,440.779Z" transform="translate(-367.309 -409.475)" fill="#a1c969"/>
      <path id="Path_12566" data-name="Path 12566" d="M7.8,22.861l3.439-1.95h7.72a2.366,2.366,0,0,0,2.315-1.89h4.92a3.305,3.305,0,0,0,3.2-2.488l2.837-11.1a.473.473,0,0,0-.458-.589H8.583l-.241-.942A5.192,5.192,0,0,0,3.307,0H1.417a1.417,1.417,0,1,0,0,2.834h1.89A2.36,2.36,0,0,1,5.6,4.61L9.224,18.8,6.4,20.4a3.307,3.307,0,0,0,1.627,6.185H28.943a1.417,1.417,0,1,0,0-2.834H8.031a.472.472,0,0,1-.23-.885Zm17.51-9.193h-2.9l.177-3.464h3.257ZM26.8,10.2h3.243l-.886,3.464H26.267Zm-1.632,4.409-.531,3.464H22.183l.177-3.464Zm-3.7-.945H18.554L18.377,10.2h3.262Zm1.171-4.409.177-3.464h3.708l-.531,3.464Zm-.946,0H18.328l-.177-3.464h3.713Zm-4.3,0h-1.87a.472.472,0,0,0,0,.945h1.918l.177,3.464H14.7L13.5,5.795h3.708Zm-3.633,4.409H10.838L9.952,10.2h3.265Zm.145.945.532,3.464h-2.46l-.886-3.464Zm1.488,3.464-.532-3.464h2.806l.177,3.464Zm3.4,0L18.6,14.613h2.811l-.177,3.464Zm9.7-1.777a2.361,2.361,0,0,1-2.288,1.777h-.6l.531-3.464h2.792Zm1.8-7.041H26.943l.531-3.464h3.694ZM12.541,5.795l.532,3.464H9.71L8.824,5.795ZM3.307,1.89H1.417a.472.472,0,1,1,0-.945h1.89a4.247,4.247,0,0,1,2.654.929l-.674.674A3.3,3.3,0,0,0,3.307,1.89Zm4.724,22.8H28.943a.472.472,0,1,1,0,.945H8.031a2.362,2.362,0,0,1-1.162-4.418L10,19.44a.472.472,0,0,0,.225-.528L6.511,4.376a3.294,3.294,0,0,0-.555-1.16l.674-.674a4.237,4.237,0,0,1,.8,1.6l3.715,14.525a.472.472,0,0,0,.458.355h8.7a1.42,1.42,0,0,1-1.336.945H11.115a.472.472,0,0,0-.233.061L7.335,22.039a1.417,1.417,0,0,0,.7,2.652Z" transform="translate(0 0)" fill="#a1c969"/>
    </g>
  </g>
</svg>
