<svg xmlns="http://www.w3.org/2000/svg" width="186.569" height="50" viewBox="0 0 186.569 50">
  <g id="Group_918" data-name="Group 918" transform="translate(-6592.431 293)">
    <text id="一人衣愛助兒盟_about" data-name="一人衣愛助兒盟
about" transform="translate(6710 -272)" fill="#333" font-size="18" font-family="NotoSansCJKtc-Medium, Noto Sans CJK TC" letter-spacing="0.1em" font-weight="500"><tspan x="-68.4" y="0">一人衣愛助兒盟</tspan><tspan fill="#a1c969" font-size="14" font-family="NotoSansCJKtc-Regular, Noto Sans CJK TC" font-weight="400"><tspan x="-26.082" y="25">ABOUT</tspan></tspan></text>
    <g id="tshirt" transform="translate(6592.431 -276.687) rotate(-16)">
      <g id="Group_870" data-name="Group 870" transform="translate(0)">
        <path id="Path_12567" data-name="Path 12567" d="M30,26.407l-.021-.021-6.226-5.533a.591.591,0,0,0-.2-.118l-4.5-1.61a.592.592,0,0,0-.793.527,3.2,3.2,0,0,1-6.409,0,.592.592,0,0,0-.787-.527l-4.5,1.627a.591.591,0,0,0-.2.118L.184,26.385a.592.592,0,0,0-.021.837l.021.021L5.108,32.22V45.831a.592.592,0,0,0,.592.592H24.459a.592.592,0,0,0,.592-.592V32.22l4.924-4.977A.592.592,0,0,0,30,26.407Zm-4.963,4.127V27.788a.592.592,0,0,0-1.184,0V45.21H6.268V27.788a.592.592,0,0,0-1.184,0V30.54L1.445,26.853l5.634-5.042,3.7-1.337a4.361,4.361,0,0,0,8.563,0l3.7,1.337,5.616,5.042Z" transform="translate(0 -19.089)" fill="#a1c969"/>
      </g>
    </g>
  </g>
</svg>
