<svg xmlns="http://www.w3.org/2000/svg" width="105.25" height="50" viewBox="0 0 105.25 50">
  <g id="Group_915" data-name="Group 915" transform="translate(-7200.75 293)">
    <text id="問與答_Q_A" data-name="問與答
Q&amp;A" transform="translate(7277 -272)" fill="#333" font-size="18" font-family="NotoSansCJKtc-Medium, Noto Sans CJK TC" letter-spacing="0.1em" font-weight="500"><tspan x="-28.8" y="0">問與答</tspan><tspan fill="#a1c969" font-size="14" font-family="NotoSansCJKtc-Regular, Noto Sans CJK TC" font-weight="400"><tspan x="-15.603" y="25">Q&amp;A</tspan></tspan></text>
    <g id="question" transform="translate(7200.75 -284)">
      <g id="Group_865" data-name="Group 865" transform="translate(9.198 4.153)">
        <g id="Group_864" data-name="Group 864">
          <path id="Path_12561" data-name="Path 12561" d="M150.465,66.441a7.055,7.055,0,0,0-4.441,6.54,1.89,1.89,0,0,0,3.78,0,3.25,3.25,0,0,1,3.251-3.252,3.294,3.294,0,0,1,3.255,3.249,3.236,3.236,0,0,1-2.086,3.04A4.758,4.758,0,0,0,152,77.754c-1,1.44-.833,2.656-.833,4.543a1.92,1.92,0,0,0,.052.445.473.473,0,0,0,.919-.222,12.768,12.768,0,0,1-.027-2.086,3.782,3.782,0,0,1,2.451-3.535,4.193,4.193,0,1,0-5.7-3.918.945.945,0,0,1-1.89,0,6.088,6.088,0,1,1,8.271,5.682,1.937,1.937,0,0,0-.9.7c-.428.611-.34.965-.34,2.94a.948.948,0,0,1-.945.944.473.473,0,0,0-.472.472c0,.992,2.36.388,2.362-1.416V80.434a.953.953,0,0,1,.632-.89,7.033,7.033,0,1,0-5.114-13.1Z" transform="translate(-146.024 -65.942)" fill="#a1c969"/>
        </g>
      </g>
      <g id="Group_867" data-name="Group 867" transform="translate(14.34 24.311)">
        <g id="Group_866" data-name="Group 866">
          <path id="Path_12562" data-name="Path 12562" d="M231.162,386.874a1.888,1.888,0,1,0-1.6,2.867A1.881,1.881,0,0,0,231.162,386.874Zm-1.838,1.893a.92.92,0,0,1-.7-.729.942.942,0,1,1,.7.729Z" transform="translate(-227.659 -385.96)" fill="#a1c969"/>
        </g>
      </g>
      <g id="Group_869" data-name="Group 869" transform="translate(0)">
        <g id="Group_868" data-name="Group 868">
          <path id="Path_12563" data-name="Path 12563" d="M8.039,2.175a16.126,16.126,0,0,1,23.4,19,15.417,15.417,0,0,1-2.321,4.475l0,0v0l0,0h0a.469.469,0,0,1-.391.106h0a.44.44,0,0,1-.089-.026h0l-.011-.005h0a.473.473,0,0,1-.194-.712,15.186,15.186,0,1,0-3.4,3.4.477.477,0,0,1,.5-.033l5.3,2.87a.325.325,0,0,0,.478-.279c0-.113.115.135-2.014-3.8a.472.472,0,1,1,.83-.45c2.143,3.955,2.13,3.823,2.129,4.246a1.27,1.27,0,0,1-1.873,1.11l-5.044-2.731A16.124,16.124,0,1,1,8.039,2.175Z" transform="translate(0 0)" fill="#a1c969"/>
        </g>
      </g>
    </g>
  </g>
</svg>
