<svg xmlns="http://www.w3.org/2000/svg" width="211.533" height="46.491" viewBox="0 0 211.533 46.491">
  <g id="Group_18" data-name="Group 18" transform="translate(0)">
    <g id="Group_17" data-name="Group 17" transform="translate(0 0)">
      <path id="Path_49" data-name="Path 49" d="M479.46,370.192c.063-.534-.02-1.071.006-1.607a.356.356,0,0,0-.06-.185,1.231,1.231,0,0,1-.133-.73.78.78,0,0,0-.239-.75.189.189,0,0,1-.073-.143.788.788,0,0,0-.191-.448.5.5,0,0,1-.076-.315,1.689,1.689,0,0,0-.016-.3,4.642,4.642,0,0,1-.112-1.146.438.438,0,0,0-.049-.289c-.214-.278-.314-.62-.555-.892a1.768,1.768,0,0,1-.51-1.015,14.268,14.268,0,0,1,.1-2.271,2.273,2.273,0,0,1,.236-.752.155.155,0,0,0-.041-.208c-.084-.057-.146,0-.2.065a.952.952,0,0,1-.25.26,1.312,1.312,0,0,0-.476.493,10.734,10.734,0,0,0-.87,1.738,8.52,8.52,0,0,0-.588,1.7c-.091.65-.2,1.3-.321,1.951a16.559,16.559,0,0,1-.295,2.116.472.472,0,0,0,0,.261.521.521,0,0,1,0,.293,6.92,6.92,0,0,0-.169,1.53,1.491,1.491,0,0,0-.03.424,2.338,2.338,0,0,1-.044.817,8.245,8.245,0,0,0-.019,1.941,2.032,2.032,0,0,1-.012.622,4.179,4.179,0,0,0-.093,1.179,4,4,0,0,1-.044,1.119,1.351,1.351,0,0,0,.016.524,2.684,2.684,0,0,1-.165,1.425,1.439,1.439,0,0,0-.12.573,3.623,3.623,0,0,1-.15,1.173c-.1.371-.2.745-.267,1.123a1.857,1.857,0,0,1-1.148,1.463c-.172.074-.349.134-.523.2a8.322,8.322,0,0,1-2.5.381,9.2,9.2,0,0,1-2.923-.168c-.042-.011-.088-.007-.13-.017a11.848,11.848,0,0,1-1.594-.4,13.5,13.5,0,0,1-1.306-.63,1.5,1.5,0,0,1-.782-.726c-.037-.089-.09-.207-.166-.238-.281-.112-.444-.389-.792-.494a7.568,7.568,0,0,1,1.694-.2,2.263,2.263,0,0,0,.46-.017c.64-.1,1.278-.212,1.919-.31.253-.038.483-.154.735-.189a5.912,5.912,0,0,0,.954-.241c.484-.147.929-.393,1.416-.534a1.021,1.021,0,0,0,.672-.489c.1-.187.254-.355.374-.538a1.625,1.625,0,0,0,.316-1.363,2.293,2.293,0,0,1-.063-.357,1.726,1.726,0,0,0-.779-1.121.346.346,0,0,0-.115-.064,5.117,5.117,0,0,0-1.863-.369,4.4,4.4,0,0,0-1.016.081c-.316.094-.63.2-.95.273a8.589,8.589,0,0,1-2.022.267c-.614,0-1.222.126-1.835.177a10.788,10.788,0,0,1-1.8.137c-.406-.034-.812-.049-1.218-.059a1.646,1.646,0,0,1-.2-.014,12.8,12.8,0,0,0-3.419.048,2.59,2.59,0,0,0-.811.129,3.994,3.994,0,0,1-1.018.236c-.535.1-1.087.128-1.622.26a.835.835,0,0,0-.445.187.959.959,0,0,1-.347.186,1.025,1.025,0,0,0-.285.161c-.2.172-.419.416-.677.359-.323-.07-.469.271-.75.22-.011,0-.022,0-.033,0-.112-.019-.176.042-.25.119a1.735,1.735,0,0,0-.291.75,2.708,2.708,0,0,0-.1,1.133.74.74,0,0,0,.315.587c.215.153.427.31.639.469a.741.741,0,0,0,.3.13,1.456,1.456,0,0,1,.675.329,3.205,3.205,0,0,0,1.253.561,1.89,1.89,0,0,0,.746.118,18.6,18.6,0,0,0,2.13-.232.53.53,0,0,1,.434.027.246.246,0,0,1-.2.219,2.621,2.621,0,0,1-.959.229,1.945,1.945,0,0,0-.856.207,2.354,2.354,0,0,1-1.285.145,4.752,4.752,0,0,0-2.512.361,2.2,2.2,0,0,1-1.063.163,2.057,2.057,0,0,0-1.51.285,1.193,1.193,0,0,1-.346.19.962.962,0,0,0-.506.454.878.878,0,0,0-.141.811,1.474,1.474,0,0,1,.125.434,1.233,1.233,0,0,0,.1.481,6.225,6.225,0,0,0,.8,1.5,2.271,2.271,0,0,0,.59.551.562.562,0,0,1,.2.789c-.041.073-.107.145-.034.269a1.456,1.456,0,0,1,.813.149.469.469,0,0,0,.26.016,3.852,3.852,0,0,0,1.133-.154.375.375,0,0,1,.163-.013.919.919,0,0,0,.658-.261.719.719,0,0,1,.476-.2,3.951,3.951,0,0,0,1.214-.4.233.233,0,0,0,.126-.1c.107-.226.33-.31.512-.448.332-.253.669-.5,1.019-.725a.9.9,0,0,0,.223-.24,2.026,2.026,0,0,1,1.012-.711,2.037,2.037,0,0,0,.758-.5,3.819,3.819,0,0,1,.8-.734,2.377,2.377,0,0,0,.5-.353l.218.525a5.165,5.165,0,0,0,1.464,1.88,6.88,6.88,0,0,0,.757.529,7.545,7.545,0,0,0,2.59,1.183,18.271,18.271,0,0,0,3.14.353c.132,0,.264.011.4.023a9.16,9.16,0,0,0,1.548.018,20.608,20.608,0,0,1,2.171-.113,4.5,4.5,0,0,0,1.141-.128,3.341,3.341,0,0,1,.636-.147.9.9,0,0,0,.4-.105,1.372,1.372,0,0,1,.86-.161.9.9,0,0,0,.864-.282.591.591,0,0,1,.231-.182c.287-.084.537-.253.814-.356a.979.979,0,0,0,.446-.321,2.363,2.363,0,0,1,.718-.666.313.313,0,0,0,.115-.115,1.5,1.5,0,0,1,.6-.551.892.892,0,0,0,.448-.574c.07-.24.152-.483.444-.566a.394.394,0,0,0,.192-.175c.222-.352.353-.753.6-1.094.027-.482.5-.773.537-1.252,0-.037.047-.073.076-.1a.818.818,0,0,0,.207-.509,1.879,1.879,0,0,1,.248-.7,1.866,1.866,0,0,0,.26-1.448,1.2,1.2,0,0,1,.02-.954,1.136,1.136,0,0,0,.1-.774,1.631,1.631,0,0,1,.05-.746,3.836,3.836,0,0,0,.207-1.229c-.041-.428-.016-.859-.083-1.284a1.279,1.279,0,0,1,.009-.393c.074-.488.141-.978.213-1.467a.778.778,0,0,0-.041-.356A1.587,1.587,0,0,1,479.46,370.192Z" transform="translate(-355.986 -341.47)" fill="#1a1311"/>
      <path id="Path_50" data-name="Path 50" d="M422.52,356.926a3.167,3.167,0,0,0-.153-1.525.844.844,0,0,1,.02-.456,6.865,6.865,0,0,0,.1-1.313c0-.262-.068-.523-.075-.785a5.375,5.375,0,0,0-.105-.813,2.915,2.915,0,0,0-.248-.97.064.064,0,0,1,0-.033,1.574,1.574,0,0,0-.209-.755,3.381,3.381,0,0,1-.255-.914,3.686,3.686,0,0,0-.4-1.146,1.336,1.336,0,0,1-.2-.587c-.006-.157-.105-.211-.22-.292a3.534,3.534,0,0,0-1.091-.346.254.254,0,0,0-.328.15c-.07.158-.18.309-.126.5a.366.366,0,0,1-.06.278,1.759,1.759,0,0,1-.236.354.874.874,0,0,0-.17.867,3.272,3.272,0,0,1,.147.874,5.86,5.86,0,0,0,.129.913,3.558,3.558,0,0,1,.086.818.593.593,0,0,0,.034.227,2.188,2.188,0,0,1,.1.781,1.656,1.656,0,0,0,.085.778.387.387,0,0,1,0,.194,8.663,8.663,0,0,0,0,1.35c.023.341.1.671.129,1.01a6.291,6.291,0,0,1,0,1.083c-.018.2-.033.217-.236.141-.4-.149-.764-.376-1.168-.526a5.7,5.7,0,0,0-1.159-.365,1.078,1.078,0,0,1-.889-.69,12.423,12.423,0,0,0-.844-1.207.929.929,0,0,0-.574-.413,1.1,1.1,0,0,1-.3-.14,2.313,2.313,0,0,0-1.56-.249c-.225.02-.293.125-.3.359a3.088,3.088,0,0,0,.021.328c.009.142.044.286-.126.374a.162.162,0,0,0-.059.232c.083.161.008.268-.1.375a.86.86,0,0,0-.2.862,6.268,6.268,0,0,1,.285,1.383.936.936,0,0,0,.089.349c.172.426.39.833.59,1.245.1.2.185.416.263.622a9.257,9.257,0,0,0,.473.86,1.818,1.818,0,0,0,.537.7,1,1,0,0,1,.237.271,3.336,3.336,0,0,0,.924.875c.293.2.658.268.925.49a1.768,1.768,0,0,0,.84.3,1.284,1.284,0,0,0,.523.012c.168-.033.281.065.228.182a6.688,6.688,0,0,1-.279.734,4.649,4.649,0,0,0-.474.9,7.085,7.085,0,0,1-.614,1.37,2.259,2.259,0,0,1-1.16,1.069,13.425,13.425,0,0,0-1.24.526.662.662,0,0,1-.8-.005.372.372,0,0,0-.058-.031c-.121-.069-.2-.029-.274.082-.14.206-.164.211-.4.12a3.206,3.206,0,0,0-.526-.192.654.654,0,0,1-.339-.188c-.161-.159-.243-.147-.37.022-.214.285-.215.291-.562.2a.29.29,0,0,0-.349.1.41.41,0,0,1-.313.163.728.728,0,0,0-.446.194,1.3,1.3,0,0,1-.8.271c-.328.012-.479.275-.731.381-.037.016-.065.094-.066.144a1.608,1.608,0,0,1-.233.781.385.385,0,0,0-.024.289c0,.013.031.02.062.039l.086-.241.076-.01a4.542,4.542,0,0,0,.381.949.548.548,0,0,0,.126.229c.316.257.495.645.844.869a7.371,7.371,0,0,0,.846.6,3.077,3.077,0,0,1,.743.409,2.359,2.359,0,0,0,1.036.461,3.021,3.021,0,0,0,1.619.1,4.681,4.681,0,0,1,.718-.027c.3-.042.581-.143.873.062.091.064.208.09.277.2.138.219.146.221.392.132a6.559,6.559,0,0,1,.629-.186,4.758,4.758,0,0,0,.9-.278,5.137,5.137,0,0,1,.771-.261,5.59,5.59,0,0,0,1.276-.523,1.736,1.736,0,0,1,.569-.247.346.346,0,0,0,.271-.205c.159-.313.392-.584.535-.908a.509.509,0,0,1,.159-.206,3.179,3.179,0,0,0,.914-1.533,2.69,2.69,0,0,0,.081-.716,5.141,5.141,0,0,0,.134-1.006A2.7,2.7,0,0,1,422.35,367c.016-.04.008-.089.023-.13.09-.249-.025-.5.006-.746.062-.491.126-.981.2-1.469a2.861,2.861,0,0,0,.014-.753,8.516,8.516,0,0,1-.075-1.15,3.586,3.586,0,0,1,.131-1.2.646.646,0,0,0,0-.39,2.379,2.379,0,0,1-.018-1.14,6.034,6.034,0,0,0,.113-.616,1.559,1.559,0,0,0,.041-.426c-.063-.489-.14-.978-.227-1.464A1.9,1.9,0,0,1,422.52,356.926Z" transform="translate(-347.704 -338.798)" fill="#1a1311"/>
      <path id="Path_51" data-name="Path 51" d="M446.079,351.731a.524.524,0,0,0,.1.088,1.594,1.594,0,0,1,.654.838.933.933,0,0,0,.842.682.508.508,0,0,1,.188.055,6.794,6.794,0,0,0,1.291.5,2.268,2.268,0,0,0,1.195.128,2.05,2.05,0,0,1,.494-.027,3.962,3.962,0,0,0,.56-.019,3.726,3.726,0,0,1,1.342-.055,1.435,1.435,0,0,0,.525-.009,3.091,3.091,0,0,0,.734-.19,3.038,3.038,0,0,1,.763-.175,4.625,4.625,0,0,0,1.415-.682c.223-.116.408-.3.632-.416a11.735,11.735,0,0,0,1.971-1.537c.463-.37.831-.849,1.314-1.193a9.239,9.239,0,0,0,1.59-1.281.425.425,0,0,1,.327-.131.282.282,0,0,0,.282-.138,1.763,1.763,0,0,1,.463-.666c.051-.044.058-.14.081-.212a.824.824,0,0,1,.065-.219.574.574,0,0,0,.019-.533,7.664,7.664,0,0,1-.364-1.154.591.591,0,0,0-.954-.448c-.209.122-.425.229-.634.35s-.234.124-.374-.106c-.068-.112-.158-.154-.232-.054a3.44,3.44,0,0,1-.844.622.794.794,0,0,1-.418.166,1.137,1.137,0,0,0,.016-.3,4.6,4.6,0,0,1,.049-1.115.342.342,0,0,1,.268-.367c.415-.107.82-.254,1.237-.348a11.46,11.46,0,0,0,1.3-.364,2.936,2.936,0,0,0,1.4-.814.276.276,0,0,1,.11-.071c.6-.222.856-.762,1.154-1.261a.413.413,0,0,0,.031-.322,1.866,1.866,0,0,1-.042-.623.93.93,0,0,0-.623-.951,5.121,5.121,0,0,1-.8-.456.478.478,0,0,0-.366-.114,1.791,1.791,0,0,1-.9-.136,1.09,1.09,0,0,0-1.033.112,1.921,1.921,0,0,1-.446.2,9.735,9.735,0,0,1-1.42.292c-.445.069-.581.057-.781-.448a3.471,3.471,0,0,1-.249-1.123.63.63,0,0,0-.507-.665c-.094-.028-.191-.052-.283-.088a1.032,1.032,0,0,1-.482-.272.361.361,0,0,0-.544-.1.288.288,0,0,1-.126.03c-.345.046-.418.128-.457.474a5.475,5.475,0,0,1-.239,1.227,2.17,2.17,0,0,0-.087.449,10.941,10.941,0,0,0-.067,1.645c.006.373-.075.462-.43.545a2.537,2.537,0,0,1-.357.064q-1.46.135-2.923.262a4.165,4.165,0,0,1-.723.03,8.464,8.464,0,0,0-1.448.062,1.5,1.5,0,0,1-.646-.04.261.261,0,0,0-.307.05c-.122.148-.268.122-.421.09a1.033,1.033,0,0,0-.227-.035c-.112,0-.189.086-.1.168.227.216.09.355-.059.523a.325.325,0,0,0-.021.5,9.6,9.6,0,0,0,.753.827c.321.3.743.47,1.067.772a.287.287,0,0,0,.12.051,5.209,5.209,0,0,0,1.685.278,1.845,1.845,0,0,1,.91.015c.8-.066,1.6.06,2.406.048.32,0,.423.115.368.423-.1.583-.2,1.167-.26,1.757-.012.12-.034.239-.049.36a.21.21,0,0,1-.153.194,3.774,3.774,0,0,1-.509.138,9.551,9.551,0,0,1-1.58.068.714.714,0,0,1-.441-.109,1.413,1.413,0,0,0-.679-.225,1.543,1.543,0,0,1-.83-.272,1.022,1.022,0,0,0-.462-.236.954.954,0,0,1-.427-.165,1,1,0,0,0-1.193-.108c-.074.036-.142.108-.238.066-.041-.208.126-.4.062-.6-.1-.029-.133.044-.186.078-.462.3-.818.733-1.271,1.047a.2.2,0,0,0-.09.256.286.286,0,0,1,0,.252,11.338,11.338,0,0,1-.839,1.216,1.149,1.149,0,0,0-.211.4c-.083.33-.161.662-.268.984a.73.73,0,0,0,.134.773C445.632,351.169,445.845,351.457,446.079,351.731Z" transform="translate(-355.925 -336.491)" fill="#1a1311"/>
      <path id="Path_52" data-name="Path 52" d="M446.561,373.442c.633.076,1.266.143,1.9.206a20.227,20.227,0,0,0,2.266.171c.274,0,.549-.062.821-.044a3.367,3.367,0,0,0,1.233-.172,4.192,4.192,0,0,1,1.158-.243.61.61,0,0,0,.221-.058c.324-.136.652-.264.967-.418a1.345,1.345,0,0,0,.782-.668,1.161,1.161,0,0,1,.391-.44.961.961,0,0,0,.354-.425.332.332,0,0,1,.214-.19c.417-.183.436-.236.261-.64a.926.926,0,0,0-.053-.121.309.309,0,0,1,.074-.438c.074-.069.191-.12.148-.316-.364.28-.535.011-.716-.233a.536.536,0,0,0-.048-.046,2.145,2.145,0,0,0-.852-.47,2.755,2.755,0,0,0-1.192-.161c-.337.026-.675.071-1.014.1s-.679.061-1.017.1a.194.194,0,0,1-.244-.159,1.406,1.406,0,0,1-.046-.259c-.017-.318-.037-.636-.04-.955a.672.672,0,0,1,.566-.736,3.254,3.254,0,0,1,.389-.07,1.282,1.282,0,0,0,.479-.112c.3-.172.631-.251.929-.424a5.407,5.407,0,0,1,.644-.324.676.676,0,0,0,.495-.6.376.376,0,0,1,.309-.378.335.335,0,0,0,.24-.209.84.84,0,0,1,.38-.392.443.443,0,0,0,.029-.77,4.342,4.342,0,0,0-1.48-.608,2.116,2.116,0,0,1-.491-.143.65.65,0,0,0-.315-.09c-.7-.032-1.4-.158-2.1-.15-.359,0-.441-.069-.431-.422a2.4,2.4,0,0,0-.221-1.055.884.884,0,0,1-.076-.218.837.837,0,0,0-.531-.658,1.207,1.207,0,0,0-.739-.059c-.111.014-.231.055-.313-.034a.62.62,0,0,0-.511-.151c-.365-.008-.386,0-.54.33a3.642,3.642,0,0,0-.129.635,3.768,3.768,0,0,0-.138,1.073,2.613,2.613,0,0,1-.025.494c-.03.161-.09.243-.287.219a4.708,4.708,0,0,1-1.374-.322,1.989,1.989,0,0,1-.857-.641c-.193-.269-.5-.246-.768-.317-.19-.049-.241.1-.334.2a.458.458,0,0,1-.109.073,1.564,1.564,0,0,1-.876.255.464.464,0,0,0-.52.308.423.423,0,0,1-.076.108.518.518,0,0,0-.166.477.127.127,0,0,1-.072.165c-.227.086-.347.3-.537.431a1.336,1.336,0,0,0-.517.853.933.933,0,0,0,.242.97,3.129,3.129,0,0,0,.909.637,12.434,12.434,0,0,0,3.618,1.076c.242.03.483.017.725.031.295.017.367.1.363.386,0,.143-.023.285-.034.427a9.6,9.6,0,0,0-.176,1.072c.005.214-.1.277-.327.269a1.763,1.763,0,0,0-.426-.013,4.22,4.22,0,0,1-1.376.032,2.581,2.581,0,0,0-.626,0c-.531.066-1.067.066-1.6.18-.4.087-.561.226-.561.632,0,.08.013.163-.063.207a1.38,1.38,0,0,0-.466.626,1.039,1.039,0,0,0-.1.889,3.212,3.212,0,0,1,.122.445.353.353,0,0,0,.272.3,2.475,2.475,0,0,1,.621.3,1.418,1.418,0,0,0,.875.236,3.474,3.474,0,0,1,1.526.164A5.434,5.434,0,0,0,446.561,373.442Z" transform="translate(-355.225 -341.656)" fill="#1a1311"/>
      <path id="Path_53" data-name="Path 53" d="M465.257,360.343a3.59,3.59,0,0,1-.641.4c-.293.1-.37.344-.495.559-.1.176-.054.307.1.463.062.062.111.137.174.2a3.28,3.28,0,0,0,.911.8,5.2,5.2,0,0,0,2.417.409c.3-.021.59-.069.884-.1.245-.026.324.032.357.271a3.084,3.084,0,0,1,.012.329,14.125,14.125,0,0,0,.054,1.714c.03.205-.02.235-.246.221a1.034,1.034,0,0,0-.453,0,11.453,11.453,0,0,0-1.554.635,5.092,5.092,0,0,0-.9.537,6.839,6.839,0,0,1-.785.544,1.312,1.312,0,0,0-.3.2,6.232,6.232,0,0,1-1.094.9c-.254.174-.531.31-.6.65-.006.03-.037.054-.054.082-.08.133-.278.118-.339.244s.093.279.03.445a.7.7,0,0,0,.09.57c.182.364.362.729.534,1.1a.475.475,0,0,0,.22.235,3.694,3.694,0,0,0,.427.173c.378.139.785.094,1.167.207a1.808,1.808,0,0,0,.72.067,12.751,12.751,0,0,0,1.341-.157,2.616,2.616,0,0,0,1.566-.778.476.476,0,0,1,.306-.182,6.847,6.847,0,0,0,1.072-.409.651.651,0,0,0,.273-.181,2.923,2.923,0,0,1,.535-.428,7.284,7.284,0,0,1,1.793-1.068.522.522,0,0,0,.119-.058,1.066,1.066,0,0,1,.593-.169c.3,0,.37-.076.473-.36a1.663,1.663,0,0,1,.843-.964c.26-.129.565-.186.741-.457a.317.317,0,0,1,.239-.1.735.735,0,0,0,.277-.1,5.494,5.494,0,0,0,.608-.948c0-.209,0-.419-.007-.627a.41.41,0,0,0-.257-.391.6.6,0,0,1-.264-.241,4.29,4.29,0,0,1-.288-.441.378.378,0,0,0-.438-.208.639.639,0,0,0-.626.531c-.024.115-.1.254-.2.23-.224-.054-.28.1-.384.221a1.375,1.375,0,0,1-.253.211c-.138.1-.2.069-.218-.09-.062-.59-.092-1.184-.205-1.767a2.276,2.276,0,0,1,.177-1.365,1.108,1.108,0,0,1,.669-.667,2.657,2.657,0,0,0,.719-.4c.322-.253.714-.424.881-.855a2.94,2.94,0,0,0,.23-1.7c-.018-.087-.018-.191-.087-.244a2.628,2.628,0,0,0-.836-.555.758.758,0,0,1-.543-.381.421.421,0,0,0-.608-.214c-.135.048-.263.114-.4.161a.471.471,0,0,1-.519-.108A1,1,0,0,1,473,356.6a1.045,1.045,0,0,0-.615-.563.586.586,0,0,1-.38-.378,1.006,1.006,0,0,0-.9-.67,2.853,2.853,0,0,1-1.076-.38c-.174-.1-.275-.073-.384.1a1.525,1.525,0,0,0-.125.268,2.909,2.909,0,0,0-.326.924c-.008.594-.1,1.185-.073,1.78.013.275-.011.551,0,.826.007.186-.082.257-.24.337-.751.376-1.584.528-2.345.883A13.216,13.216,0,0,0,465.257,360.343Z" transform="translate(-359.774 -340.463)" fill="#1a1311"/>
      <path id="Path_54" data-name="Path 54" d="M440.608,379.621a10.389,10.389,0,0,0-1.519-1.987,2.3,2.3,0,0,1-.27-.333,11.068,11.068,0,0,0-2.286-2.452,14.344,14.344,0,0,0-2.391-1.578,1.867,1.867,0,0,1-.254-.154q-.54-.406-1.076-.82a.4.4,0,0,0-.229-.123c-.376,0-.735-.141-1.161-.129-.195-.077-.36.146-.571.17a.793.793,0,0,0-.59.928c.136.534.155,1.087.277,1.622a1.817,1.817,0,0,0,.292.8,3.891,3.891,0,0,1,.473.785,1.478,1.478,0,0,1,.2.952.509.509,0,0,0,.038.385,11.3,11.3,0,0,0,.84,1.257,6.924,6.924,0,0,1,.885,1.3,4.456,4.456,0,0,0,.881,1.142,9.709,9.709,0,0,0,1.2.861,13.529,13.529,0,0,0,1.839.781.607.607,0,0,0,.2.019,1.014,1.014,0,0,1,.289.058,1.506,1.506,0,0,0,.775.109.467.467,0,0,1,.347.062.434.434,0,0,0,.5,0,1.283,1.283,0,0,1,.791-.166.647.647,0,0,0,.672-.333,1.532,1.532,0,0,0,.232-.814c-.03-.4.153-.807-.022-1.2A1.6,1.6,0,0,0,440.608,379.621Z" transform="translate(-352.636 -344.31)" fill="#1a1311"/>
      <path id="Path_55" data-name="Path 55" d="M431.233,358.78a.886.886,0,0,1,.159.023c.324,0,.693-.129,1.073-.165a.505.505,0,0,0,.411-.29,1.479,1.479,0,0,0,.147-.366,9.1,9.1,0,0,1,.268-1.051,2.607,2.607,0,0,0,.15-1.188,4.46,4.46,0,0,0-.459-1.633,4.655,4.655,0,0,1-.307-.656.883.883,0,0,0-.254-.38,6.05,6.05,0,0,1-.625-.721,2.079,2.079,0,0,0-1.324-.948.669.669,0,0,1-.157-.051,1.048,1.048,0,0,0-.864.028,2.3,2.3,0,0,1-.567.168.77.77,0,0,0-.594.617.262.262,0,0,1-.141.232c-.186.108-.182.169,0,.3a.853.853,0,0,1,.23.231,3.122,3.122,0,0,1,.441,2.082,4.586,4.586,0,0,0-.055,1.475.654.654,0,0,1-.108.472,2.8,2.8,0,0,0-.228.548c-.03.087-.043.183.039.243a.582.582,0,0,0,.514.165c.281-.1.444.033.643.194A2.08,2.08,0,0,0,431.233,358.78Z" transform="translate(-352.145 -339.743)" fill="#1a1311"/>
      <path id="Path_56" data-name="Path 56" d="M376.775,373.285a2.43,2.43,0,0,0-.2-1.638c-.4-.854-.662-1.775-1.01-2.745a3.892,3.892,0,0,1,.813-.334,27.428,27.428,0,0,0,3.577-.951,1.115,1.115,0,0,1,.262,0,2.94,2.94,0,0,0,.364.32c.442.285,1.265.259,1.434-.153.246-.6.887-.813,1.147-1.353a2.312,2.312,0,0,1,.349-1.911,7.471,7.471,0,0,0,.314-.789c.433-1.221.876-2.429,2.445-2.568a.271.271,0,0,0,.1-.034,2.38,2.38,0,0,0,1.313-1.7,1.932,1.932,0,0,0-.9-1.913c-.651-.48-1.239-1.045-1.849-1.579-.373-.326-.734-.663-1.1-.995a1.694,1.694,0,0,0-1.382-.413,18.067,18.067,0,0,0-2.1.293,59.819,59.819,0,0,1-7.773.846c1.466-.512,2.63-.66,2.4-1.4-.237-.961-.968-1.745-1.232-2.7s-.34-1.019-1.371-1.151c-.1-.012-.207-.019-.278-.025-1.469.918-2.894,1.838-4.349,2.708-1.01.6-1.029.573-1.072,1.665a2.164,2.164,0,0,0-2.041,1.438s-.854.086-.771.5a1.208,1.208,0,0,0-.093,1.215,12.05,12.05,0,0,0,.568,1.258,5.923,5.923,0,0,1,.727,2.424,18.589,18.589,0,0,1,.132,2.114c-.051.806.713,1.212.795,1.925.008.069.07.134.068.2a1.189,1.189,0,0,1-.062.382c-.509.311-.619,1.483-.619,1.483-.122.073-.314.031-.587.048.361.488.282,1.039.726,1.39a13.984,13.984,0,0,0,1.067,1.016,5.636,5.636,0,0,0,1.318.441,8.237,8.237,0,0,1,4.327-1.233c-.052.721.01,1.419-.094,2.117a.842.842,0,0,1-.165.386,5.069,5.069,0,0,0-.868,3.434,20.985,20.985,0,0,0,.641,4.944,4.623,4.623,0,0,1,.314,2.678.624.624,0,0,0,.1.4c.346.684.737,1.313,1.658,1.236a1.657,1.657,0,0,1,.357.039c.543-.34.511-1.225,1.267-1.128a3.116,3.116,0,0,1,.487-.97,2.011,2.011,0,0,0,.526-1.124c.093-.339.1-.7.2-1.041a8.8,8.8,0,0,0,.154-3.887A7.71,7.71,0,0,1,376.775,373.285Zm-6.984-12.3c.8-.093,1.564-.19,2.33-.271a10.643,10.643,0,0,0,3.352-.97,15.617,15.617,0,0,1,4.621-1.029c.062-.008.131.044.237.083a4.56,4.56,0,0,1,.592,1.872c.133,1.087.173,2.185.254,3.278a.873.873,0,0,1-.39.815c-.552.413-1,1.054-2.029.711.7-.714,1.768-.946,1.87-2.1-.424-.58-.83-1.29-1.73-1.445a.909.909,0,0,1-.575-.41,1.337,1.337,0,0,0-1.414-.5c-.518.1-1.055.108-1.638.161-.14.179-.264.478-.482.587a3.044,3.044,0,0,1-.927.149c-1.051.137-2.1.276-3.155.41-.413.052-.828.093-1.388.154C369.5,361.9,369.642,361.461,369.791,360.988Zm3.738,4.682c-1.516.022-3.031.077-4.546.112a4.507,4.507,0,0,1-.658-.122c.294-.262.417-.457.575-.491a3.549,3.549,0,0,1,.735.027,5.076,5.076,0,0,0,2.177-.339,7.266,7.266,0,0,1,2.384-.433,2.8,2.8,0,0,1,1.486.5,2.9,2.9,0,0,0,1.573.519c.108-.01.23.126.534.306a11.374,11.374,0,0,1-2.044-.012C375.006,365.686,374.266,365.658,373.529,365.669Z" transform="translate(-337.984 -339.55)" fill="#1a1311"/>
      <path id="Path_57" data-name="Path 57" d="M398.513,381.64a4.968,4.968,0,0,0-2.612.1,2.216,2.216,0,0,1-1.657.127,3.01,3.01,0,0,0-.736-.1c-1.167-.055-2.334-.1-3.5-.145a3.075,3.075,0,0,1-1.5-.473,6.4,6.4,0,0,0-1.943-1.059c-.144-.03-.288-.207-.371-.353-.369-.639-1.144-.653-1.638-1.094-.37.109-.739.22-1.109.328-.13.038-.263.069-.367.1-.263.777-.259.776-.107,1.365.246.959.453,1.928.743,2.873a4.9,4.9,0,0,0,.684,1.422,9.758,9.758,0,0,0,5.81,3.653,2.233,2.233,0,0,0,.527.027c.423,0,.846,0,1.269-.007.849-.01,1.7-.023,2.55-.034a.87.87,0,0,0,.835-.364,2.315,2.315,0,0,1,1.132-.93c.94-.409,1.475-1.27,2.225-1.794a3.08,3.08,0,0,1-.076-1.365A1.4,1.4,0,0,0,398.7,383c-.213-.427.084-.637.261-.958C398.81,381.9,398.667,381.647,398.513,381.64Z" transform="translate(-342.213 -345.765)" fill="#1a1311"/>
      <path id="Path_58" data-name="Path 58" d="M364.285,379.8a1.288,1.288,0,0,0-.1-.2c-.015-.03-.023-.061-.038-.091l-.016.015a1.2,1.2,0,0,0-.406-.342c-.314-.175-1.033.523-1.194.615h0c-.26.148-.519.3-.777.446-.51.3-.986.324-1.336-.115l-6.057.934a1.831,1.831,0,0,1-.023.312,1.2,1.2,0,0,0,.515,1.445,2,2,0,0,1,.844,1.607,2.971,2.971,0,0,1,1.26,1.145,1.082,1.082,0,0,0,.967.56,3.5,3.5,0,0,1,1.395.459,3.64,3.64,0,0,0,2.16.313,7.317,7.317,0,0,0,3.572-1.916c-.435-1.695-.081-3.488-.757-5.131A.322.322,0,0,0,364.285,379.8Z" transform="translate(-335.921 -345.878)" fill="#1a1311"/>
      <path id="Path_59" data-name="Path 59" d="M349.342,364.464a.662.662,0,0,1,.167-.53,4.632,4.632,0,0,0,.567-.84c.185-.241.582-.25.806-.476.1-.586.076-.447.428-.912a.631.631,0,0,0,.081-.151.95.95,0,0,0,.447-.256l.3-.411a.281.281,0,0,0,.02.059.769.769,0,0,0,.309-.472c.031-.084.065-.167.1-.251.065-.14.445-.259.678-.409.1-.063.167-.132.168-.211.37-.537.264-1.732.525-2.285a1.469,1.469,0,0,0,.027-.5.532.532,0,0,1,.043-.212c.27-.5-.348-1.253-.169-1.78a2.438,2.438,0,0,1,.249-.6,1.849,1.849,0,0,0,.282-.739c.1-.548-.494-.971-.379-1.579.426-.089.52-.46.6-.86.09-.477.224-.946.306-1.423a3.222,3.222,0,0,1,.243-.753,11.543,11.543,0,0,0,.449-2.516c0-.328.658-1.623.8-2.14l3.011.647c.725-.029,1.4-.108,2.073-.074q4.645.24,9.283.539a4.693,4.693,0,0,1,1.4.254,12.857,12.857,0,0,0,4.405.581,3.117,3.117,0,0,0,1.009-.09,4.382,4.382,0,0,1,2.246-.359,1.052,1.052,0,0,0,.663-.193,5.607,5.607,0,0,1,2.338-.893c.859-.147,1.465-.6,1.509-1.384.021-.374.1-.747.145-1.022-.477-.363-.855-.643-1.218-.933-.2-.161-.338-.4-.574-.5a2.092,2.092,0,0,1-1.038-1.193,4.961,4.961,0,0,1-.237-.708,11.812,11.812,0,0,0-1.857-.235,13.079,13.079,0,0,1-3.16-.25,2.975,2.975,0,0,0-1.693.146,6.608,6.608,0,0,1-1.831.354,37.982,37.982,0,0,0-4.611.453c-2.1.374-4.228.5-6.353.679a15.924,15.924,0,0,0-2.157.273,19.629,19.629,0,0,1-4.472.448c-.112,0-.225,0-.337.006-.09-.039-.178-.074-.266-.118a.9.9,0,0,1-.284-.21,3.082,3.082,0,0,0-1.533-1.032,3.293,3.293,0,0,1-.661-.254c-.2-.106-.312.013-.448.108-.109-.09-1.289.342-1.418.236a.835.835,0,0,1-1.135.31l-.417.692-.731.19c-.21.226-.19.519-.434.647-.4.208-.409.557-.326.937a1.423,1.423,0,0,1,.1.635.445.445,0,0,0,.141.317,1.209,1.209,0,0,0,.4.3c.424.168.608.643.8,1.067a.442.442,0,0,0,.33.26.549.549,0,0,1,.478.555c.016.193.07.983.1,1.175.079.526.558,2.112.64,2.639a6.985,6.985,0,0,1,.047,1.809,7.727,7.727,0,0,1-.3,1.636,3.193,3.193,0,0,0-.076.572,2.978,2.978,0,0,1-.086.569c-.208.6.279,1.388.179,2.012a1.9,1.9,0,0,1-.232.756,5.588,5.588,0,0,0-.618,1.466c-.242.77-.525.569-.972,1.242a3.712,3.712,0,0,0-.288.5,7.507,7.507,0,0,1-1.489,1.773,3.986,3.986,0,0,1-2.331,1.2c-.738.116-1.53-.423-2.2-.069a6.815,6.815,0,0,1-2.327.593,1.883,1.883,0,0,1-1.182.225,1.688,1.688,0,0,0-.188,0,.7.7,0,0,1-.08-.057,1.191,1.191,0,0,0-1-.456,1.6,1.6,0,0,1-.817-.222c-.321-.162-.586-.1-.832-.383a1.5,1.5,0,0,0-1.642-.463,2.717,2.717,0,0,1-.634.119,2.558,2.558,0,0,0-.568.115.694.694,0,0,0-.484.5,5.441,5.441,0,0,0-.2.913c-.03.278.183.492.294.732a.118.118,0,0,1,.019.069.53.53,0,0,1-.072.183c-.021.027-.089.026-.135.024a.219.219,0,0,1-.214-.159c-.033-.1-.094-.184-.207-.117a.2.2,0,0,0-.079.171.347.347,0,0,1-.08.394c-.134.136-.327.273-.36.438-.1.5-.547.947-.242,1.512.027.05-.013.137-.027.206s-.056.144-.044.208c.1.5.129,1.018.625,1.335a2.007,2.007,0,0,1,.356.361.815.815,0,0,1,.278.573.535.535,0,0,0,.259.413,3.749,3.749,0,0,0,1.938.735.6.6,0,0,0,.408-.088.579.579,0,0,1,.609-.073,1.387,1.387,0,0,0,.5.03,2.384,2.384,0,0,1,.934.087.892.892,0,0,0,.35.009c.191-.016.381-.051.572-.069a8.42,8.42,0,0,0,1.785-.151.153.153,0,0,0,.079-.044.243.243,0,0,0,.025-.129c.012-.1.621-.186.635-.293a1.051,1.051,0,0,1,.046-.3c.072-.177.454.211.634.133.484-.211.395-.459.941-.514a2.262,2.262,0,0,0,.549-.238c.011-.115.639-.074.674-.121a1.2,1.2,0,0,1,.3-.3,5.734,5.734,0,0,0,.926-.562,1.776,1.776,0,0,1,.8-.452,3.269,3.269,0,0,0,1.28-.682,3.463,3.463,0,0,1,1.057-.463,5.066,5.066,0,0,0,1.68-1.134A.909.909,0,0,0,349.342,364.464Z" transform="translate(-330.746 -336.899)" fill="#1a1311"/>
      <path id="Path_60" data-name="Path 60" d="M512.345,353.061a7,7,0,0,0-1.428.148l-8.03-14.268a.786.786,0,0,0-1.37.771l7.885,14.01a6.986,6.986,0,0,0-1.512.955l-13.935-13.5a.786.786,0,1,0-1.094,1.129L506.8,355.816a6.964,6.964,0,1,0,5.54-2.755Zm0,11.322a4.343,4.343,0,0,1-3.637-6.724l2.808,2.721a.786.786,0,1,0,1.094-1.129l-2.817-2.728a4.345,4.345,0,1,1,2.551,7.86Z" transform="translate(-366.359 -336.942)" fill="#1a1311"/>
      <path id="Path_61" data-name="Path 61" d="M549.619,356.729a1.314,1.314,0,0,0-1.313,1.314v7.972l-7.033-8.585a1.313,1.313,0,0,0-2.328.832V369.7a1.313,1.313,0,1,0,2.625,0v-7.769l7.033,8.585a1.313,1.313,0,0,0,2.329-.832V358.043A1.314,1.314,0,0,0,549.619,356.729Z" transform="translate(-376.551 -340.944)" fill="#1a1311"/>
      <path id="Path_62" data-name="Path 62" d="M560.775,356.829a1.313,1.313,0,0,0-1.313,1.314v11.565a1.313,1.313,0,0,0,2.625,0V358.143A1.313,1.313,0,0,0,560.775,356.829Z" transform="translate(-381.065 -340.966)" fill="#1a1311"/>
      <path id="Path_63" data-name="Path 63" d="M569.468,356.829a1.314,1.314,0,0,0-1.314,1.314v11.565a1.313,1.313,0,0,0,2.626,0V358.143A1.313,1.313,0,0,0,569.468,356.829Z" transform="translate(-382.977 -340.966)" fill="#1a1311"/>
      <path id="Path_64" data-name="Path 64" d="M576.1,364.273l4.437-4.23a1.313,1.313,0,0,0-1.812-1.9l-5.482,5.226a1.313,1.313,0,0,0,.046,1.942l6.047,5.249a1.313,1.313,0,1,0,1.721-1.983Z" transform="translate(-384.007 -341.175)" fill="#1a1311"/>
      <path id="Path_65" data-name="Path 65" d="M532.161,364.242h-.887a1.314,1.314,0,0,0,0,2.627h.887a1.314,1.314,0,0,0,0-2.627Z" transform="translate(-374.575 -342.597)" fill="#1a1311"/>
      <path id="Path_66" data-name="Path 66" d="M597.255,356.515a1.313,1.313,0,0,0-1.313,1.314v7.2a3.318,3.318,0,0,1-3.314,3.313h-.094a3.317,3.317,0,0,1-3.314-3.313v-7.2a1.313,1.313,0,1,0-2.626,0v7.2a5.948,5.948,0,0,0,5.94,5.94h.094a5.947,5.947,0,0,0,5.94-5.94v-7.2A1.313,1.313,0,0,0,597.255,356.515Z" transform="translate(-387.034 -340.897)" fill="#1a1311"/>
    </g>
  </g>
</svg>
