<svg xmlns="http://www.w3.org/2000/svg" viewBox="0 0 62.89 55.21"><defs><style>.cls-1,.cls-3{opacity:0.9;}.cls-2,.cls-3{fill:#995b23;}</style></defs><title>資產 2</title><g id="圖層_2" data-name="圖層 2"><g id="圖層_1-2" data-name="圖層 1"><g class="cls-1"><g id="awards"><path class="cls-2" d="M57,8.2a10.69,10.69,0,0,1,.14,6.93c-1,2.49-3.51,3.27-4.09,3s-1.89-2.52-.9-5A10.68,10.68,0,0,1,57,8.2ZM5.41,8.78a10.69,10.69,0,0,1,5,4.85c1,2.47-.22,4.79-.79,5s-3.11-.48-4.15-2.95A10.69,10.69,0,0,1,5.41,8.78ZM0,30.22a10.71,10.71,0,0,1,6.88.86C9.2,32.42,9.6,35,9.29,35.56s-2.77,1.5-5.09.16A10.69,10.69,0,0,1,0,30.22ZM53.16,45.1a4.84,4.84,0,0,1-4.55-1.79,24.51,24.51,0,0,1-4.27,4,5,5,0,0,1,2.09-.1,10.67,10.67,0,0,1,5.86,3.7,10.67,10.67,0,0,1-6.75,1.58c-2.64-.45-3.92-2.75-3.82-3.36A.86.86,0,0,1,41.8,49a24.79,24.79,0,0,1-7.49,2.73,10.44,10.44,0,0,1,5,2.76.38.38,0,0,1,0,.54,8.62,8.62,0,0,1-2.07,0c-1.11-2.07-4.36-2.74-5.55-2.93-1.19.21-4.42,1-5.49,3a8.62,8.62,0,0,1-2.07,0,.38.38,0,0,1,0-.54A10.42,10.42,0,0,1,29,51.75a24.78,24.78,0,0,1-7.55-2.56.71.71,0,0,1,.09.18c.12.61-1.12,2.95-3.75,3.45a10.68,10.68,0,0,1-6.78-1.43,10.68,10.68,0,0,1,5.77-3.83,5,5,0,0,1,2.09.05,24.43,24.43,0,0,1-4.36-3.91,4.83,4.83,0,0,1-4.51,1.89,10.67,10.67,0,0,1-6-3.41,10.68,10.68,0,0,1,6.66-1.91,5.11,5.11,0,0,1,1.67.51A25,25,0,0,1,8.41,27.5c0-.55,0-1.09.05-1.64a2,2,0,0,1-.38,1.09c-.47.42-3.1.55-4.88-1.46A10.69,10.69,0,0,1,1,18.93a10.68,10.68,0,0,1,6.25,3A5.06,5.06,0,0,1,8.5,25.25,24.92,24.92,0,0,1,13.67,12a.81.81,0,0,1-.23.09c-.52.07-2.48-1.07-2.81-3.34A9.15,9.15,0,0,1,12.12,3a9.16,9.16,0,0,1,3.06,5.09,4.32,4.32,0,0,1-.47,2.67,25,25,0,0,1,4.22-3.81,1.69,1.69,0,0,1-1,.1,3.22,3.22,0,0,1-.31-3.62A7.64,7.64,0,0,1,21.37.22,7.62,7.62,0,0,1,21,5.15a3.55,3.55,0,0,1-.56.79c.55-.34,1.11-.65,1.69-.94a3.53,3.53,0,0,1,2.39-2.3,7.64,7.64,0,0,1,4.92.55A7.62,7.62,0,0,1,25.6,6.37a3.54,3.54,0,0,1-3.24-.63A23.85,23.85,0,0,0,20.13,7a3.2,3.2,0,0,1,.48,0A7.63,7.63,0,0,1,25,9.21a7.65,7.65,0,0,1-4.67,1.63A3.5,3.5,0,0,1,17.5,9.05,24.36,24.36,0,0,0,9.59,22.91,4.32,4.32,0,0,1,10.71,21a9.17,9.17,0,0,1,5.53-2.17,9.16,9.16,0,0,1-2.32,5.47c-1.65,1.6-3.89,1.32-4.26.94a1.85,1.85,0,0,1-.26-1.09,23.86,23.86,0,0,0-.21,3.29A24.2,24.2,0,0,0,13,40.37a5.05,5.05,0,0,1,.3-4.15,10.68,10.68,0,0,1,5.4-4.35A10.69,10.69,0,0,1,18,38.77c-1.24,2.29-3.7,2.79-4.35,2.55a23.85,23.85,0,0,0,17.6,9.93h.18l.21,0,.2,0h.17A23.84,23.84,0,0,0,49.44,40.92c-.64.25-3.11-.19-4.4-2.45a10.67,10.67,0,0,1-.83-6.88,10.68,10.68,0,0,1,5.49,4.22A5.05,5.05,0,0,1,50.09,40a24.22,24.22,0,0,0,3.56-13,23.66,23.66,0,0,0-.28-3.28,1.83,1.83,0,0,1-.24,1.09c-.36.39-2.6.72-4.28-.84a9.16,9.16,0,0,1-2.44-5.41A9.17,9.17,0,0,1,52,20.58a4.3,4.3,0,0,1,1.17,1.83A24.37,24.37,0,0,0,44.92,8.74a3.49,3.49,0,0,1-2.83,1.85,7.63,7.63,0,0,1-4.71-1.52,7.62,7.62,0,0,1,4.39-2.29,3.2,3.2,0,0,1,.48,0A23.56,23.56,0,0,0,40,5.54a3.54,3.54,0,0,1-3.22.7,7.62,7.62,0,0,1-3.91-3,7.65,7.65,0,0,1,4.91-.66A3.54,3.54,0,0,1,40.2,4.8q.87.42,1.7.9a3.48,3.48,0,0,1-.58-.77A7.62,7.62,0,0,1,40.86,0,7.61,7.61,0,0,1,44.7,3.11a3.22,3.22,0,0,1-.23,3.63,1.69,1.69,0,0,1-1-.07,25,25,0,0,1,4.31,3.71,4.31,4.31,0,0,1-.53-2.66,9.16,9.16,0,0,1,2.95-5.16,9.16,9.16,0,0,1,1.61,5.71c-.28,2.28-2.21,3.47-2.73,3.4a.73.73,0,0,1-.23-.09,25,25,0,0,1,5.47,13.15,5,5,0,0,1,1.19-3.34,10.68,10.68,0,0,1,6.18-3.14,10.68,10.68,0,0,1-2.09,6.6c-1.73,2-4.37,2-4.84,1.57a2,2,0,0,1-.4-1.09c0,.54.08,1.09.09,1.64a25,25,0,0,1-3.65,13.35,5,5,0,0,1,1.66-.55,10.68,10.68,0,0,1,6.7,1.76A10.67,10.67,0,0,1,53.16,45.1ZM24.61,36.24a9.73,9.73,0,0,1-.37,6.3c-1.08,2.19-3.42,2.71-3.93,2.46s-1.53-2.43-.46-4.61A9.73,9.73,0,0,1,24.61,36.24Zm-7.82-19.4c-2.11.91-4.11-.16-4.32-.64s.39-2.67,2.5-3.57a9.14,9.14,0,0,1,5.94-.06A9.15,9.15,0,0,1,16.79,16.84Zm-2.3,14.88c-1.24,1.93-3.49,2.17-3.94,1.89s-1.17-2.43.07-4.36a9.13,9.13,0,0,1,4.89-3.37A9.16,9.16,0,0,1,14.49,31.72Zm28.77,8.41c1.12,2.16.15,4.36-.35,4.62s-2.86-.21-4-2.38a9.75,9.75,0,0,1-.51-6.29A9.73,9.73,0,0,1,43.26,40.13ZM41.59,12.34a9.16,9.16,0,0,1,5.94-.08c2.13.86,2.78,3,2.58,3.52s-2.17,1.6-4.3.74A9.15,9.15,0,0,1,41.59,12.34Zm5.7,13.18a9.14,9.14,0,0,1,5,3.27c1.28,1.91.6,4.06.16,4.36s-2.7.11-4-1.8A9.15,9.15,0,0,1,47.29,25.51Zm11.52,9.61c-2.29,1.39-4.77.48-5.09-.05s0-3.15,2.32-4.54a10.7,10.7,0,0,1,6.85-1A10.69,10.69,0,0,1,58.81,35.12Z"/></g></g><polygon class="cls-3" points="34.93 20.39 31.44 13.33 27.96 20.39 20.17 21.53 25.81 27.02 24.48 34.78 31.44 31.11 38.41 34.78 37.08 27.02 42.72 21.53 34.93 20.39"/></g></g></svg>