<?xml version="1.0" encoding="utf-8"?>
<!-- Generator: Adobe Illustrator 25.4.1, SVG Export Plug-In . SVG Version: 6.00 Build 0)  -->
<svg version="1.1" id="Capa_1" xmlns="http://www.w3.org/2000/svg" xmlns:xlink="http://www.w3.org/1999/xlink" x="0px" y="0px"
	 viewBox="0 0 425 425" style="enable-background:new 0 0 425 425;" xml:space="preserve">
<style type="text/css">
	.st0{fill:url(#SVGID_1_);}
	.st1{fill:url(#SVGID_00000011750248279620267550000005295072390689359500_);}
	.st2{fill:url(#SVGID_00000043434375230503756450000009615643793193312403_);}
	.st3{fill:url(#SVGID_00000165922696140934043570000003159935156501804979_);}
	.st4{fill:url(#SVGID_00000171693230260766165810000004529235461567397294_);}
	.st5{fill:url(#SVGID_00000068657984950926350180000001587391591666995862_);}
	.st6{fill:url(#SVGID_00000137835136262353219200000011827233959441970319_);}
</style>
<g>
	<g>
		<g>
			<linearGradient id="SVGID_1_" gradientUnits="userSpaceOnUse" x1="221.3" y1="292.1" x2="244.5863" y2="292.1">
				<stop  offset="0" style="stop-color:#00ADFD"/>
				<stop  offset="0.4" style="stop-color:#1482F9"/>
				<stop  offset="1" style="stop-color:#2B51F4"/>
			</linearGradient>
			<path class="st0" d="M241.4,282.3c-1.6-1.7-3.6-3-5.7-4.1c-4.5-2.4-9.5-3.8-14.4-5.1v38c8-0.9,17.1-3.8,21.3-11.2l0,0
				c2-3.6,2.4-7.9,1.6-11.9C243.8,285.9,242.9,283.9,241.4,282.3z"/>
		</g>
		<g>
			
				<linearGradient id="SVGID_00000093146109523282471680000000148735493072676780_" gradientUnits="userSpaceOnUse" x1="242.6" y1="299.9625" x2="242.6" y2="299.9625">
				<stop  offset="0" style="stop-color:#00ADFD"/>
				<stop  offset="0.4" style="stop-color:#1482F9"/>
				<stop  offset="1" style="stop-color:#2B51F4"/>
			</linearGradient>
			<path style="fill:url(#SVGID_00000093146109523282471680000000148735493072676780_);" d="M242.6,300
				C242.6,299.9,242.6,299.9,242.6,300L242.6,300C242.6,299.9,242.6,299.9,242.6,300z"/>
		</g>
		<g>
			
				<linearGradient id="SVGID_00000096051229817250806610000013410001759979118518_" gradientUnits="userSpaceOnUse" x1="181.4135" y1="229.3" x2="200.4" y2="229.3">
				<stop  offset="0" style="stop-color:#00ADFD"/>
				<stop  offset="0.4" style="stop-color:#1482F9"/>
				<stop  offset="1" style="stop-color:#2B51F4"/>
			</linearGradient>
			<path style="fill:url(#SVGID_00000096051229817250806610000013410001759979118518_);" d="M184,221.5c-1.4,2-2.2,4.3-2.5,6.7
				c-0.2,2.4-0.1,5.1,0.8,7.4c0.9,2.2,2.7,3.8,4.6,5.1c2.1,1.4,4.5,2.6,6.8,3.5c2,0.8,4.2,1.6,6.7,2.3v-34.4
				C194.3,213.4,187.7,216.2,184,221.5z"/>
		</g>
		<g>
			
				<linearGradient id="SVGID_00000148624376290643888260000009874073006817712034_" gradientUnits="userSpaceOnUse" x1="242.6" y1="299.75" x2="242.8" y2="299.75">
				<stop  offset="0" style="stop-color:#00ADFD"/>
				<stop  offset="0.4" style="stop-color:#1482F9"/>
				<stop  offset="1" style="stop-color:#2B51F4"/>
			</linearGradient>
			<path style="fill:url(#SVGID_00000148624376290643888260000009874073006817712034_);" d="M242.8,299.6c-0.1,0.1-0.1,0.2-0.2,0.3
				l0,0C242.7,299.8,242.8,299.7,242.8,299.6z"/>
		</g>
		<g>
			
				<linearGradient id="SVGID_00000095324649247838714500000000507344008248738723_" gradientUnits="userSpaceOnUse" x1="243" y1="299.2625" x2="243" y2="299.2625">
				<stop  offset="0" style="stop-color:#00ADFD"/>
				<stop  offset="0.4" style="stop-color:#1482F9"/>
				<stop  offset="1" style="stop-color:#2B51F4"/>
			</linearGradient>
			<path style="fill:url(#SVGID_00000095324649247838714500000000507344008248738723_);" d="M243,299.3
				C243,299.2,243,299.2,243,299.3L243,299.3z"/>
		</g>
		<g>
			
				<linearGradient id="SVGID_00000176727068203750019570000016684014800415252868_" gradientUnits="userSpaceOnUse" x1="36.2262" y1="212.5032" x2="388.7538" y2="212.5032">
				<stop  offset="0" style="stop-color:#00ADFD"/>
				<stop  offset="0.4" style="stop-color:#1482F9"/>
				<stop  offset="1" style="stop-color:#2B51F4"/>
			</linearGradient>
			<path style="fill:url(#SVGID_00000176727068203750019570000016684014800415252868_);" d="M234.8,92.5
				c32.3-27.2,53.9-88.3,40.6-91c-17.7-3.6-56,12-74.6,14.8c-26.3,3.2-54.9-28.5-71-10.9c-13.1,14.4,9.4,66.6,44.5,89.3
				c-104.8,51.5-252,309.9,4.9,328.7C534.6,449.4,356.6,142.6,234.8,92.5z M265.3,296.3c-1.1,10.1-6.4,19.2-14.4,25.4
				c-8.4,6.5-19,9.6-29.5,10.4v11.1c0,3-1.3,5.9-3.5,7.8c-3.1,2.7-7.6,3.4-11.3,1.7c-3.7-1.7-6.1-5.5-6.1-9.5V331
				c-1.8-0.3-3.6-0.7-5.4-1.2c-9.8-2.7-18.9-8-25.6-15.7c-3.3-3.9-6-8.3-7.9-13c-0.5-1.2-0.9-2.5-1.3-3.8c-0.3-1.2-0.7-2.3-0.8-3.5
				c-0.2-2,0.2-4.1,1.1-5.9c1.9-3.7,6-5.9,10.2-5.6c4.1,0.4,7.7,3.2,9,7.1c0.4,1.2,0.7,2.4,1.1,3.6c0.4,1.2,1,2.3,1.6,3.4
				c1.2,2.2,2.8,4.1,4.6,5.9c3.7,3.6,8.4,5.9,13.3,7.2v-41.4c-9.6-2.5-19.5-5.7-27.4-11.8c-3.8-3-7.1-6.7-9.3-11.1
				c-2.3-4.6-3.2-9.8-3.2-15s1-10.4,3.1-15.2c2-4.5,5-8.5,8.6-11.8c7.7-7.1,17.9-11,28.2-12.5V190v-10.6c0-3,1.3-5.9,3.5-7.8
				c3.1-2.7,7.6-3.4,11.3-1.7s6.1,5.5,6.1,9.5V190v0.8c1.4,0.2,2.7,0.4,4.1,0.6c10.1,1.8,19.9,6,27.3,13.2c3.5,3.4,6.3,7.5,8.4,12
				c0.6,1.2,1.1,2.5,1.5,3.8c0.4,1.2,0.8,2.5,1,3.7c0.3,2,0,4.1-0.9,6c-1.8,3.8-5.7,6.2-9.9,6c-4.1-0.2-7.8-2.9-9.3-6.7
				c-0.4-1.1-0.7-2.4-1.1-3.5c-0.5-1.2-1-2.3-1.7-3.3c-1.3-2-3-3.8-4.9-5.2c-4.2-3.1-9.3-4.7-14.4-5.6v39.6c6,1.4,12.1,3,17.9,5.3
				c8.7,3.4,17,8.7,21.8,17.1c-0.7-1.3-1.5-2.6,0,0s0.8,1.3,0,0.1C264.9,280.7,266.1,288.7,265.3,296.3z"/>
		</g>
		<g>
			
				<linearGradient id="SVGID_00000181809150717000861160000016958030112097582754_" gradientUnits="userSpaceOnUse" x1="242.3" y1="300.35" x2="242.5" y2="300.35">
				<stop  offset="0" style="stop-color:#00ADFD"/>
				<stop  offset="0.4" style="stop-color:#1482F9"/>
				<stop  offset="1" style="stop-color:#2B51F4"/>
			</linearGradient>
			<path style="fill:url(#SVGID_00000181809150717000861160000016958030112097582754_);" d="M242.5,300.2c-0.1,0.1-0.1,0.2-0.2,0.3
				C242.4,300.4,242.4,300.3,242.5,300.2z"/>
		</g>
	</g>
</g>
</svg>
