<?xml version="1.0" encoding="utf-8"?>
<!-- Generator: Adobe Illustrator 25.4.1, SVG Export Plug-In . SVG Version: 6.00 Build 0)  -->
<svg version="1.1" id="Capa_1" xmlns="http://www.w3.org/2000/svg" xmlns:xlink="http://www.w3.org/1999/xlink" x="0px" y="0px"
	 viewBox="0 0 512 512" style="enable-background:new 0 0 512 512;" xml:space="preserve">
<style type="text/css">
	.st0{fill:url(#SVGID_1_);}
</style>
<g>
	<g>
		<g>
			<linearGradient id="SVGID_1_" gradientUnits="userSpaceOnUse" x1="0" y1="256" x2="512" y2="256">
				<stop  offset="0" style="stop-color:#00ADFD"/>
				<stop  offset="0.4" style="stop-color:#1482F9"/>
				<stop  offset="1" style="stop-color:#2B51F4"/>
			</linearGradient>
			<path class="st0" d="M497,76H15C6.7,76,0,82.7,0,91v45h512V91C512,82.7,505.3,76,497,76z M346,256h-15v30h15c8.3,0,15-6.7,15-15
				S354.3,256,346,256z M346,256h-15v30h15c8.3,0,15-6.7,15-15S354.3,256,346,256z M346,256h-15v30h15c8.3,0,15-6.7,15-15
				S354.3,256,346,256z M346,256h-15v30h15c8.3,0,15-6.7,15-15S354.3,256,346,256z M0,166v255c0,8.3,6.7,15,15,15h482
				c8.3,0,15-6.7,15-15V166H0z M76,316c-8.3,0-15-6.7-15-15s6.7-15,15-15s15,6.7,15,15S84.3,316,76,316z M210.2,245.7l-29.9,89.8
				c-0.1,0.1-3.1,10.4-14.3,10.4c-6.9,0-12.5-4.6-14.3-10.4l-29.9-89.8c-2.6-7.9,1.6-16.4,9.5-19s16.4,1.6,19,9.5l15.8,47.3
				l15.8-47.3c2.6-7.9,11.1-12.1,19-9.5S212.9,237.9,210.2,245.7L210.2,245.7z M271,331c0,8.3-6.7,15-15,15s-15-6.7-15-15v-90
				c0-8.3,6.7-15,15-15c8.3,0,15,6.7,15,15V331z M346,316h-15v15c0,8.3-6.7,15-15,15s-15-6.7-15-15v-90c0-8.3,6.7-15,15-15h30
				c24.8,0,45,20.2,45,45S370.8,316,346,316z M436,316c-8.3,0-15-6.7-15-15s6.7-15,15-15s15,6.7,15,15S444.3,316,436,316z M346,256
				h-15v30h15c8.3,0,15-6.7,15-15S354.3,256,346,256z M346,256h-15v30h15c8.3,0,15-6.7,15-15S354.3,256,346,256z M346,256h-15v30h15
				c8.3,0,15-6.7,15-15S354.3,256,346,256z M346,256h-15v30h15c8.3,0,15-6.7,15-15S354.3,256,346,256z M346,256h-15v30h15
				c8.3,0,15-6.7,15-15S354.3,256,346,256z"/>
		</g>
	</g>
</g>
</svg>
