<?xml version="1.0" encoding="utf-8"?>
<!-- Generator: Adobe Illustrator 25.0.0, SVG Export Plug-In . SVG Version: 6.00 Build 0)  -->
<svg version="1.1" id="Capa_1" xmlns="http://www.w3.org/2000/svg" xmlns:xlink="http://www.w3.org/1999/xlink" x="0px" y="0px"
	 viewBox="0 0 512 512" style="enable-background:new 0 0 512 512;" xml:space="preserve">
<style type="text/css">
	.st0{fill:#8CC8D4;}
	.st1{fill:#7FBAC1;}
	.st2{fill:#000100;}
</style>
<circle class="st0" cx="256.6" cy="256.3" r="245"/>
<path class="st1" d="M501.6,256.3c0,135.3-109.7,245-245,245c-101.5,0-188.5-61.7-225.7-149.6C75.8,401.1,140.4,432,212.3,432
	c135.3,0,245-109.7,245-245c0-33.8-6.9-66.1-19.3-95.3C477.5,135.1,501.6,192.9,501.6,256.3z"/>
<circle class="st0" cx="256.4" cy="256.5" r="245.5"/>
<path class="st1" d="M501.6,259.4c0,134.5-109.1,243.6-243.6,243.6C170,503,92.9,456.3,50,386.2c41.2,32,93,51.2,149.3,51.2
	c134.5,0,243.6-109.1,243.6-243.6c0-46.5-13.1-89.8-35.5-126.8C464.7,111.6,501.6,181.2,501.6,259.4z"/>
<path class="st2" d="M462,105C415.5,41.8,340.6,0.9,256.3,0.9C209.2,0.9,163,13.8,123,38.3c-4.7,3-6.2,9.2-3.4,13.9
	c3,4.7,9.2,6.2,13.9,3.4c17-10.4,35.3-18.6,54.3-24.4c-16.6,22.5-42.3,61.7-61.3,111.9H50c8.6-15.6,19-30.4,31.1-43.9
	c3.8-4.2,3.4-10.5-0.8-14.3s-10.5-3.4-14.3,0.8c-42,47-65.2,107.6-65.2,170.7c0,141,114.6,255.5,255.5,255.5S512,397.4,512,256.5
	c0-49-13.9-94.7-37.8-133.6C466,108.6,462,105,462,105z M452.6,126.7c0.4,0.8,0.9,1.6,1.6,2.4c3,4.6,5.8,9.3,8.5,14.1h-76.3
	c-19-50.1-44.7-89.4-61.3-111.8C377.8,47.5,422.7,81.6,452.6,126.7z M266.5,21.4c9.2,0.4,18.2,1.2,26.9,2.7
	c1.9,2,42.8,49.1,71.1,119.2h-98V21.4L266.5,21.4z M219.4,24.1c8.9-1.3,17.9-2.3,26.9-2.7v121.7h-98
	C176.3,73.7,217.1,26.6,219.4,24.1z M293.5,489c-8.9,1.3-17.8,2.3-26.9,2.7V369.8h106.4c-15.9,42-42.4,81.9-79,118.8
	C293.6,488.7,293.6,488.8,293.5,489z M246.4,491.7c-9.2-0.4-18.2-1.3-26.9-2.7c-0.1-0.1-0.1-0.3-0.3-0.3
	c-37-37.3-63.4-76.9-79.4-118.8h106.6V491.7L246.4,491.7z M133,349.6c-16.2-54.8-14.8-113.1,4-174.6c1.2-4,2.6-7.9,3.8-11.7h105.6
	v186.3L133,349.6L133,349.6z M40.2,163.3h79.3c-0.5,1.8-1.1,3.5-1.6,5.3c-16.8,54.5-20.5,108-10.8,158.7c1.5,7.5,3.2,15.1,5.3,22.5
	h-72c-12.4-28.5-19.3-60.1-19.3-93.2C21.1,224.1,27.7,192.5,40.2,163.3z M50.2,369.8h68.4c13.6,38.9,35.5,75.9,65.6,110.7
	C126.7,461.9,78.9,421.8,50.2,369.8z M328.8,480.5c30-34.7,52-71.8,65.6-110.7h68.4C433.9,421.8,386.1,461.9,328.8,480.5z
	 M472.5,349.6h-71.9c5.5-20.1,8.8-40.5,10-61.5c0.3-5.5-3.9-10.4-9.6-10.6c-5.5-0.3-10.4,3.9-10.6,9.6c-1.2,21.4-4.8,42.3-10.9,62.6
	H266.4V163.3H372c5.8,17,10.6,35,14,53.9c0.8,4.8,5.1,8.3,10,8.3c0.5,0,1.2,0,1.8-0.1c5.5-0.9,9.2-6.2,8.2-11.7
	c-3.1-17.6-7.4-34.5-12.5-50.4h79.2c12.4,28.5,19.3,60.1,19.3,93.2C491.8,289.6,484.9,321.1,472.5,349.6z"/>
</svg>
