<svg viewBox="0 0 182.63 198.59" xmlns="http://www.w3.org/2000/svg"><path d="m33.23 179.08s6 2.35 8.7 6.8a20.19 20.19 0 0 1 3 7.93s-1.61 4.7-8.28 4.78-15.77-4.47-20-11.68c2.81-4.42 16.58-7.83 16.58-7.83z" fill="#b51a36"/><path d="m39.22 163.88s-6.22 0-10.46 3.52c-4.45 1.34-13.47 3.3-14.9 5.81a13.12 13.12 0 0 0 -1.47 5.57 12.07 12.07 0 0 0 2.46 7.22c2.56 3 4.71 3 9.64 1.25s14.58-12.15 15.62-17.1z" fill="#e76141"/><path d="m63.35 169.67s-7.43 6.53-14.88 5.33-10-3.85-10-3.85 1.73-5 .1-6.93c4-2 19.11-2.57 19.11-2.57z" fill="#d7443b"/><path d="m26.73 155.69s-10.84-1.69-12.56-3.32a22.88 22.88 0 0 0 -7.53-2.57s-2.27 1.3-1.57 2.53 8.09 5.51 9.92 6.94 10.8 2.53 13 1.71-1.26-5.29-1.26-5.29z" fill="#d66141"/><g fill="#b51a36"><path d="m11 146.42a8.81 8.81 0 0 0 -3.27 3.83c-.79 2.28 1.32 3.21 5.55 3s26.19-.39 26.19-.39l-7.47-8.65s-15.71.98-21 2.21z"/><path d="m26.73 155.69a61.35 61.35 0 0 1 .05 6.14c3.52.63 9.31-.54 12.77 0s9.23-3.75 9.23-3.75l-8.49-4.08s-13.62.36-13.56 1.69z"/><path d="m54.28 160.68s6.3 7.76 8.21 9.54 8-1 10.95-3.77c-8.91-3.07-19.16-5.77-19.16-5.77z"/></g><path d="m174.69 94.27s-1.13-3.52-15.6 1.07a5.12 5.12 0 0 0 -1.85 2.38s13.82-.29 15.28.34a12.15 12.15 0 0 0 2.17-3.79z" fill="#d66141"/><path d="m165.74 114.22s3.41-11.42 5.71-16.82c1.63-3.63 4.27-4 4.33-1.8s-3 14.93-6.18 17.72c-2.94 2.58-3.86.9-3.86.9z" fill="#d66141"/><path d="m142.83 104.93s7.07-8.37 9.33-10.72 1.26-2.38 3.38-3.51 5.06.09 5.06.09 2 1.71-2.73 7.67-10.69 14-10.69 14z" fill="#b51a36"/><path d="m154.68 92.21s-7.54.09-9.93.07-1.87-4.42 3.5-6.08 11.61 1.47 12.75 2.9.9 3.04-6.32 3.11z" fill="#d66141"/><path d="m105.74 45.18a42.06 42.06 0 0 0 -15.39-.6c-7.84 1.33-17.41 5.44-17.68 13 0 1.75.93-1.29 2-2.29s7.77-5.82 21.64-4.14c6.08 1.25 10.62 2.48 10.62 2.48s4.07-4.4-1.19-8.45z" fill="#b51a36"/><path d="m75.08 57s11.17 4 15.53 5.4 13.24 4.45 15.4 5.31 17.67 8.71 24.16 5.52c9.06-5.32 12.57-15.14 12.57-15.14s-19.45-15.09-30.81-15.87c-3.68 1.33-7.12 2.71-7.12 2.71s2.21 5.25 1 6.61a68.77 68.77 0 0 1 -5.81 4.74 29 29 0 0 0 -8.79-2.64c-5.3-.76-14.62.66-16.13 3.36z" fill="#de493c"/><path d="m135 71.92s-3.8-4.26-7.39-5.66c3.67-2 2.36-2.56 3-5.4s1.62-5.55 5-6.16 9 .41 13.38 4.74 9.61 12.94 4.83 19.36c-6.55-1.43-18.82-6.88-18.82-6.88z" fill="#d66141"/><path d="m121 89.36a25.66 25.66 0 0 1 2.54-8.88c2.08.54 3.81-1.94 4.28-3.42s.84-3.27.84-3.27 1.45 2.69 2.76 1.24 4.09-5.73 4.09-5.73.3 3.47 1.84 2.31 5.19-2.27 6.28-1.08 4 4.74 7 5.24 5.16 3 5 3.7-4.72 14.6-16.91 23.62c-9.14-6.71-17.72-13.73-17.72-13.73z" fill="#b51a36"/><path d="m127.83 153.35s2.41 6.15 7 4.21c.16-2.1.52-4.53.81-6.25.22-1.32.4-2.21.4-2.21s-4.61-.53-5.5.71-2.71 3.54-2.71 3.54z" fill="#bc493c"/><path d="m135 155.93a2.23 2.23 0 0 0 2.37 2.45c2.55 0 11 .12 16.57-4.71 1.61-3 2.28-6.26-.84-7.14s-13.39-1.79-17.79 3.16z" fill="#e76141"/><path d="m179 166.93c-2.4 7.29-10.36 15.37-15 16s-8.28.4-9.73-1.68-.33-4 .3-8.83 6.48-9.6 6.48-9.6a30.24 30.24 0 0 0 17.95 4.11z" fill="#e76141"/><path d="m154.53 147.28a34.52 34.52 0 0 1 9.41-.18c4.55.65 11.4 2.06 13.41 3.29a13.1 13.1 0 0 1 5.18 8.25c.57 3.58-1.24 9.59-6.72 10.32s-11.17-3.12-14.67-4.59c-4.53-1.91-10.2-11.68-8.33-10.46z" fill="#d7443b"/><path d="m128.22 146.91s4.26 1.4 2.91 3.66a8.46 8.46 0 0 1 -9.06 4.22 24.77 24.77 0 0 1 6.15-7.88z" fill="#b51a36"/><path d="m8.2 152.46a5.54 5.54 0 0 1 -2.68-5.46c.3-3.95 2.37-12.91 4-15 2.12 1.63 5.15 7.33 5.15 7.33l-3.11 7.83z" fill="#d66141"/><path d="m10.07 132.52s1.75-11.23 2.46-13.45a27.54 27.54 0 0 1 6.35 4.7s-.46 10.07-4.49 16.25c-2.39-2.13-4.32-7.5-4.32-7.5z" fill="#b51a36"/><path d="m32.23 130.72a32.3 32.3 0 0 1 -10.51-3.72c-6-3.2-11.64-6.52-13.09-9.9s2-8 2-8l23.14 10.1z" fill="#95232c"/><path d="m18.36 51.66a51.93 51.93 0 0 1 9.92-11.31c6.7-5.84 17.88-11.9 25.57-8.3.52.88.39 1-2.6 1.5s-16.47 4.93-20.7 19.37c-2.14 5.08-8.5 3.83-12.19-1.26z" fill="#95232c"/><path d="m19.29 83a30.12 30.12 0 0 0 15.11-17.85c2.31-7.22 11.25-16.57 14.17-19.58s8.09-7.91 6.43-12.57a54.08 54.08 0 0 1 -10.3 7.68c-5.94 3.51-11.8 8.24-14.13 12.2-2 2.41-4.33 2.49-7.15.66s-5.76-3.7-5.76-3.7-15.41 18.71-11.27 29.33c6.78 5.95 12.9 3.83 12.9 3.83z" fill="#de493c"/><path d="m7.72 104.91s-3.8-3.56-5.29-6.64-3.5-8.2-1.76-12.74 3.86-10.62 6.91-7.46a16 16 0 0 0 6.69 4.06l5 .82s.28 9.82-.18 12.52c-3.48 2.53-11.37 9.44-11.37 9.44z" fill="#d66141"/><path d="m33 121.18s-15.7 2.34-26.46-15.33c-.54-3.27 7.6-9.61 7.6-9.61s3.34-3.24 6.86-2.58 1.13-2.55 1.13-2.55 4.64 2.9 5.52 5.22 14.48 7.84 16.65 9.54-11.3 15.31-11.3 15.31z" fill="#ce4b35"/><path d="m102.38 80.3.25 8.34" fill="none" stroke="#251d1b" stroke-linecap="round" stroke-linejoin="round" stroke-width="1.3"/><path d="m54.35 93.01 3.46 7.6" fill="none" stroke="#251d1b" stroke-linecap="round" stroke-linejoin="round" stroke-width="1.3"/><path d="m37.76 153.68a6.9 6.9 0 0 0 -2.71-4.18c-2.47-2-5.4-3.55-6.73-6.56 1.29-1 2-2.63.71-4.79a9.91 9.91 0 0 1 -1.24-4.6s3-.25 2.77-2.2-1.09-5.92-1.09-5.92 2.17.07 2.22-1.77.18-5.27.18-5.27 2.48 1 2.75-.53a28.47 28.47 0 0 0 .15-4.35s1.27 1.41 2.68-.62a9.45 9.45 0 0 0 1.32-5s2.15 1.75 3 .5a38.22 38.22 0 0 0 2.11-4.55s2.29 1.92 3.4-.05a10.24 10.24 0 0 0 1.07-4.52s2.5 1.77 6.86-.1 8.46-6.17 8.46-6.17 1.6 1.5 2.92.55 1.61-3.46 1.61-3.46 3.61 2.29 5.35 1a9.42 9.42 0 0 0 2.62-3.07s2.52 1.67 3.41 1a8.9 8.9 0 0 0 1.84-2s2.52 1.66 3.8 1.53 3.66-3 3.66-3l3.32 1.8 2.91-3.19a4.55 4.55 0 0 0 4.31 3.41c3.62.2 10.23-4 10.23-4s2.54 2.94 4.88 3.26 2.57-.75 2.57-.75 2.11 2.78 4.35 2.48 2.35-1.17 2.35-1.17.8 2.63 3.07 3.11 3-.92 3-.92.44 2.42 1.41 3.14 3.13-.8 3.13-.8.82 3.52 1.9 4.63 3 .07 3 .07 2.85 4.58 2.77 6.23c.07 1.33 2.36.21 2.36.21s2.55 4.21 2.34 7.06a4.9 4.9 0 0 0 2.09.13s.49 5.86-.73 7.82c-.45 1.05 2.87 1 2.87 1a22.48 22.48 0 0 1 -4.91 8.16c-3.42 3.43-20 24.13-23.47 28.6s-2.7 6.71-13.23 10.92-23.9 8-31.86 3.34-21.36-7.86-25.43-9-14.35-7.41-14.35-7.41z" fill="#de493c"/><path d="m69.62 101.42s2.3 1.58 1.38 6.18" fill="none" stroke="#251d1b" stroke-linecap="round" stroke-linejoin="round" stroke-width="1.44"/><path d="m93.84 93.78s-1.43 2.29 1.32 6" fill="none" stroke="#251d1b" stroke-linecap="round" stroke-linejoin="round" stroke-width="1.34"/><path d="m70.77 103.09s7.2-2.15 11.42-3a84.24 84.24 0 0 0 11.28-3.33s-5.59 7.37-11.28 7.7a37.41 37.41 0 0 1 -11.42-1.37z" fill="none" stroke="#251d1b" stroke-linecap="round" stroke-linejoin="round" stroke-width="1.34"/><path d="m158.55 126.75s4-7.46 5.11-9.84 2.4-3.14 4.69-3.73 2.62 2.17-1 7.52-3.88 8.28-8.54 9-.26-2.95-.26-2.95z" fill="#d7443b"/><path d="m137.18 137.85a120.69 120.69 0 0 0 13.56-4.34c6.57-2.62 7.91-1.63 10.28-3.65 1.75-2.63-.89-4.92-3.06-4.71s-15.46 3.52-15.46 3.52-7.95 8.11-5.32 9.18z" fill="#b51a36"/><circle cx="51.57" cy="88.49" fill="#fff" r="6.66"/><circle cx="51.57" cy="88.49" fill="#251d1b" r="4.61"/><circle cx="101.16" cy="76.66" fill="#fff" r="6"/><circle cx="101.16" cy="76.66" fill="#251d1b" r="4.12"/><path d="m68.92 22.83-1.6-22.83 11.13 1.06-4.63 21.93z" fill="#bc493c"/><path d="m69.1 27 4.71.12v4.69l-5.23-.46a29.79 29.79 0 0 0 .52-4.35z" fill="#bc493c"/></svg>