<svg xmlns="http://www.w3.org/2000/svg" width="125.759" height="125.759" viewBox="0 0 125.759 125.759">
  <g id="Group_45" data-name="Group 45" transform="translate(-463.254 -263.815)">
    <circle id="Ellipse_4" data-name="Ellipse 4" cx="62.88" cy="62.88" r="62.88" transform="translate(463.254 263.815)" fill="#f0dbe6"/>
    <g id="Group_44" data-name="Group 44">
      <g id="Group_40" data-name="Group 40">
        <g id="Group_33" data-name="Group 33">
          <g id="Group_28" data-name="Group 28">
            <path id="Path_73" data-name="Path 73" d="M505.005,330.642l-8.569-14.12c-.044-.078-.211-.335-.218-.345h0a4.079,4.079,0,0,0-3.339-1.758h-5.855a4.079,4.079,0,0,0-3.339,1.758h0c-.007.01-.174.267-.218.345l-8.568,14.12a2.385,2.385,0,0,0,4.077,2.475l3.48-5.735a.241.241,0,0,1,.447.132v25.81a2.889,2.889,0,0,0,5.777,0V340.08a.714.714,0,0,1,.7-.723h1.14a.713.713,0,0,1,.7.723v13.244a2.889,2.889,0,0,0,5.777,0v-25.81a.242.242,0,0,1,.448-.132l3.479,5.735a2.385,2.385,0,0,0,4.078-2.475Z" fill="#fff"/>
            <path id="Path_74" data-name="Path 74" d="M494.112,357.007a3.687,3.687,0,0,1-3.683-3.683V340.151h-.956v13.173a3.683,3.683,0,0,1-7.366,0V329.486l-2.454,4.043a3.179,3.179,0,0,1-4.384,1.058c-1.484-.913-1.956-4.155-1.052-5.644l8.564-12.826c.051-.088.159-.256.212-.336l.015-.031.038-.048a4.895,4.895,0,0,1,3.977-2.079h5.855a4.9,4.9,0,0,1,3.981,2.084l.027.039c.031.047.179.277.233.369l8.565,14.115a3.179,3.179,0,0,1-5.436,3.3l-2.453-4.043v23.838A3.687,3.687,0,0,1,494.112,357.007Zm-4.731-18.445h1.14a1.51,1.51,0,0,1,1.5,1.518v13.244a2.093,2.093,0,1,0,4.187,0v-25.81a1.036,1.036,0,0,1,1.922-.544l3.48,5.734a1.589,1.589,0,0,0,2.193.529,1.593,1.593,0,0,0,.525-2.178l-8.579-14.141c-.036-.062-.15-.236-.184-.288a3.3,3.3,0,0,0-2.684-1.413h-5.855a3.3,3.3,0,0,0-2.682,1.411c-.025.038-.148.225-.185.291l-.012.019-8.568,14.121A1.59,1.59,0,0,0,478.3,332.7l3.479-5.734a1.036,1.036,0,0,1,1.922.544v25.81a2.094,2.094,0,0,0,4.188,0V340.08A1.509,1.509,0,0,1,489.381,338.562Z" fill="#302d2c"/>
          </g>
          <g id="Group_32" data-name="Group 32">
            <g id="Group_29" data-name="Group 29">
              <ellipse id="Ellipse_5" data-name="Ellipse 5" cx="8.179" cy="7.94" rx="8.179" ry="7.94" transform="translate(481.772 297.176)" fill="#fff"/>
              <path id="Path_75" data-name="Path 75" d="M489.951,313.851a8.738,8.738,0,1,1,8.973-8.735A8.867,8.867,0,0,1,489.951,313.851Zm0-15.88a7.149,7.149,0,1,0,7.384,7.145A7.275,7.275,0,0,0,489.951,297.971Z" fill="#302d2c"/>
            </g>
            <g id="Group_31" data-name="Group 31">
              <g id="Group_30" data-name="Group 30">
                <path id="Path_76" data-name="Path 76" d="M493.885,304.016c0,.77-.437,1.394-.977,1.394s-.977-.624-.977-1.394.438-1.394.977-1.394S493.885,303.246,493.885,304.016Z" fill="#302d2c"/>
                <path id="Path_77" data-name="Path 77" d="M487.97,304.016c0,.77-.437,1.394-.977,1.394s-.977-.624-.977-1.394.437-1.394.977-1.394S487.97,303.246,487.97,304.016Z" fill="#302d2c"/>
                <path id="Path_78" data-name="Path 78" d="M492.627,307.846a.38.38,0,0,0-.468.268,1.949,1.949,0,0,1-1.994,1.222h-.039l-.08,0-.08,0h-.038a1.947,1.947,0,0,1-1.994-1.222.382.382,0,0,0-.737.2,2.673,2.673,0,0,0,2.721,1.785h.046l.082,0,.082,0h.046a2.673,2.673,0,0,0,2.721-1.785A.382.382,0,0,0,492.627,307.846Z" fill="#302d2c"/>
              </g>
            </g>
          </g>
        </g>
        <g id="Group_39" data-name="Group 39">
          <g id="Group_34" data-name="Group 34">
            <path id="Path_79" data-name="Path 79" d="M577.371,330.642l-8.568-14.12c-.045-.078-.212-.335-.218-.345h0a4.077,4.077,0,0,0-3.339-1.758h-5.855a4.079,4.079,0,0,0-3.339,1.758h0c-.006.01-.174.267-.218.345l-8.568,14.12a2.385,2.385,0,0,0,4.077,2.475l3.48-5.735a.242.242,0,0,1,.448.132v25.81a2.888,2.888,0,0,0,5.776,0V340.08a.714.714,0,0,1,.7-.723h1.14a.713.713,0,0,1,.7.723v13.244a2.889,2.889,0,0,0,5.777,0v-25.81a.242.242,0,0,1,.448-.132l3.479,5.735a2.385,2.385,0,0,0,4.078-2.475Z" fill="#fff"/>
            <path id="Path_80" data-name="Path 80" d="M566.478,357.007a3.687,3.687,0,0,1-3.683-3.683V340.151h-.956v13.173a3.683,3.683,0,0,1-7.366,0V329.486l-2.453,4.043a3.18,3.18,0,0,1-5.437-3.3l8.565-14.115c.05-.086.181-.289.223-.352l.036-.054a4.892,4.892,0,0,1,3.983-2.086h5.854a4.894,4.894,0,0,1,3.982,2.085l.048.072c.052.08.162.249.213.337l8.564,14.113a3.18,3.18,0,0,1-5.437,3.3l-2.453-4.043v23.838A3.687,3.687,0,0,1,566.478,357.007Zm-4.731-18.445h1.14a1.51,1.51,0,0,1,1.5,1.518v13.244a2.094,2.094,0,1,0,4.187,0v-25.81a1.035,1.035,0,0,1,.76-1.006,1.024,1.024,0,0,1,1.162.462l3.48,5.734a1.59,1.59,0,0,0,2.192.53,1.594,1.594,0,0,0,.526-2.179l-8.579-14.141c-.037-.064-.157-.247-.185-.29a3.3,3.3,0,0,0-2.683-1.411H559.39a3.3,3.3,0,0,0-2.67,1.392l-.019.028c-.045.068-.146.223-.179.282l-.011.019-8.569,14.121a1.59,1.59,0,0,0,2.719,1.649l3.48-5.734a1.035,1.035,0,0,1,1.921.544v25.81a2.094,2.094,0,0,0,4.188,0V340.08A1.509,1.509,0,0,1,561.747,338.562Z" fill="#302d2c"/>
          </g>
          <g id="Group_38" data-name="Group 38">
            <g id="Group_35" data-name="Group 35">
              <ellipse id="Ellipse_6" data-name="Ellipse 6" cx="8.179" cy="7.94" rx="8.179" ry="7.94" transform="translate(554.138 297.176)" fill="#fff"/>
              <path id="Path_81" data-name="Path 81" d="M562.317,313.851a8.738,8.738,0,1,1,8.973-8.735A8.866,8.866,0,0,1,562.317,313.851Zm0-15.88a7.149,7.149,0,1,0,7.384,7.145A7.275,7.275,0,0,0,562.317,297.971Z" fill="#302d2c"/>
            </g>
            <g id="Group_37" data-name="Group 37">
              <g id="Group_36" data-name="Group 36">
                <ellipse id="Ellipse_7" data-name="Ellipse 7" cx="0.977" cy="1.394" rx="0.977" ry="1.394" transform="translate(564.297 302.622)" fill="#302d2c"/>
                <ellipse id="Ellipse_8" data-name="Ellipse 8" cx="0.977" cy="1.394" rx="0.977" ry="1.394" transform="translate(558.382 302.622)" fill="#302d2c"/>
                <path id="Path_82" data-name="Path 82" d="M564.993,307.846a.38.38,0,0,0-.468.268,1.949,1.949,0,0,1-1.994,1.222h-.039l-.08,0-.08,0h-.038a1.947,1.947,0,0,1-1.994-1.222.382.382,0,0,0-.737.2,2.673,2.673,0,0,0,2.721,1.785h.046l.082,0,.082,0h.046a2.673,2.673,0,0,0,2.721-1.785A.381.381,0,0,0,564.993,307.846Z" fill="#302d2c"/>
              </g>
            </g>
          </g>
        </g>
      </g>
      <g id="Group_42" data-name="Group 42">
        <g id="Group_41" data-name="Group 41">
          <path id="Path_83" data-name="Path 83" d="M514.96,315.745a1.034,1.034,0,0,1-1.055-1.112,1.917,1.917,0,0,1,.547-1.281c1.3-1.47,3.486-3.712,5.144-5.747a3.893,3.893,0,0,0,1.055-2.412,1.88,1.88,0,0,0-1.96-1.922,2.743,2.743,0,0,0-2.317,1.451,1.141,1.141,0,0,1-.98.565,1.069,1.069,0,0,1-1.112-1c0-.659,1.432-2.9,4.391-2.9,2.185,0,4.258,1.357,4.258,3.6a6.158,6.158,0,0,1-1.564,3.731c-1.432,1.809-3.279,3.411-4.843,5.107,1.564-.019,3.694-.17,5.239-.17a1.006,1.006,0,0,1,1.13.98,1.12,1.12,0,0,1-1.187,1.112Z" fill="#302d2c"/>
          <path id="Path_84" data-name="Path 84" d="M536.478,314.878c.019-.735.019-2.092.019-3.241,0-.848,0-1.583-.019-1.9-.057-1.112-.641-1.564-1.319-1.564a2.422,2.422,0,0,0-2.243,2.242c-.018.3-.018.66-.018,1.093,0,.81.018,1.9.056,3.373v.038a.925.925,0,0,1-.942.961.9.9,0,0,1-.9-.98v-.019c.019-.735.019-2.092.019-3.241,0-.848,0-1.583-.019-1.9-.076-1.131-.66-1.583-1.319-1.583a2.406,2.406,0,0,0-2.205,2.261c-.019.3-.019.66-.019,1.093,0,.81.019,1.9.057,3.373a.9.9,0,0,1-.924,1.018.949.949,0,0,1-.96-1v-.038c.056-2.016.075-3.335.075-4.56,0-.942-.019-1.847-.038-2.939v-.038a.9.9,0,0,1,.942-.9.917.917,0,0,1,.942.942.229.229,0,0,0,.019.094c.019,0,.057-.038.076-.057a3.013,3.013,0,0,1,2.261-1.017,2.722,2.722,0,0,1,2.543,1.715,3.4,3.4,0,0,1,2.846-1.7,2.988,2.988,0,0,1,2.92,3.184c.019.66.038,2.28.038,3.656,0,.621,0,1.187-.019,1.6a.964.964,0,0,1-.942,1.056.943.943,0,0,1-.923-1Z" fill="#302d2c"/>
        </g>
      </g>
      <g id="Group_43" data-name="Group 43">
        <path id="Path_85" data-name="Path 85" d="M544.7,326.042l-8.111-4.683a.753.753,0,0,0-1.129.652v2.476H516.81v-2.476a.753.753,0,0,0-1.13-.652l-8.111,4.683a.753.753,0,0,0,0,1.3l8.111,4.683a.753.753,0,0,0,1.13-.652V328.9h18.648v2.476a.753.753,0,0,0,1.129.652l8.111-4.683A.753.753,0,0,0,544.7,326.042Z" fill="#d6006c"/>
        <path id="Path_86" data-name="Path 86" d="M536.21,332.8a1.429,1.429,0,0,1-1.423-1.427v-1.8H517.48v1.8a1.423,1.423,0,0,1-2.135,1.233l-8.111-4.682a1.424,1.424,0,0,1,0-2.466l8.111-4.683a1.423,1.423,0,0,1,2.135,1.233v1.806h17.307v-1.806a1.423,1.423,0,0,1,2.136-1.233l8.11,4.683a1.423,1.423,0,0,1,0,2.466l-8.11,4.683A1.42,1.42,0,0,1,536.21,332.8Zm-20.071-4.573h19.989v3.146a.076.076,0,0,0,.041.072.077.077,0,0,0,.083,0l8.111-4.683a.076.076,0,0,0,.041-.071.077.077,0,0,0-.041-.071l-8.111-4.683a.079.079,0,0,0-.083,0,.075.075,0,0,0-.041.071v3.147H516.139v-3.147a.076.076,0,0,0-.041-.071.08.08,0,0,0-.083,0l-8.11,4.683a.082.082,0,0,0,0,.142l8.11,4.682a.077.077,0,0,0,.083,0,.076.076,0,0,0,.041-.072Z" fill="#302d2c"/>
      </g>
    </g>
  </g>
</svg>
