<svg xmlns="http://www.w3.org/2000/svg" xmlns:xlink="http://www.w3.org/1999/xlink" width="125.759" height="125.759" viewBox="0 0 125.759 125.759">
  <defs>
    <clipPath id="clip-path">
      <circle id="Ellipse_3" data-name="Ellipse 3" cx="62.88" cy="62.88" r="62.88" transform="translate(273.406 263.815)" fill="none"/>
    </clipPath>
  </defs>
  <g id="Group_27" data-name="Group 27" transform="translate(-273.406 -263.815)">
    <circle id="Ellipse_2" data-name="Ellipse 2" cx="62.88" cy="62.88" r="62.88" transform="translate(273.406 263.815)" fill="#f0dbe6"/>
    <g id="Group_26" data-name="Group 26">
      <g id="Group_25" data-name="Group 25" clip-path="url(#clip-path)">
        <g id="Group_24" data-name="Group 24">
          <g id="Group_23" data-name="Group 23">
            <g id="Group_19" data-name="Group 19">
              <g id="Group_18" data-name="Group 18">
                <path id="Path_46" data-name="Path 46" d="M350.329,303.533a1.586,1.586,0,1,1-.492,2.189A1.587,1.587,0,0,1,350.329,303.533Z" fill="#d6006c"/>
                <path id="Path_47" data-name="Path 47" d="M355.025,306.037a1.586,1.586,0,1,1-.492,2.189A1.588,1.588,0,0,1,355.025,306.037Z" fill="#d6006c"/>
                <path id="Path_48" data-name="Path 48" d="M337.266,296.863a1.586,1.586,0,1,1-.492,2.189A1.586,1.586,0,0,1,337.266,296.863Z" fill="#d6006c"/>
                <path id="Path_49" data-name="Path 49" d="M339.563,314.676a1.586,1.586,0,1,1-.492,2.189A1.587,1.587,0,0,1,339.563,314.676Z" fill="#d6006c"/>
                <path id="Path_50" data-name="Path 50" d="M347.617,310.247a1.586,1.586,0,1,1-.493,2.189A1.587,1.587,0,0,1,347.617,310.247Z" fill="#d6006c"/>
                <path id="Path_51" data-name="Path 51" d="M342.136,298.865a1.587,1.587,0,1,1-.492,2.189A1.588,1.588,0,0,1,342.136,298.865Z" fill="#d6006c"/>
                <path id="Path_52" data-name="Path 52" d="M343.575,312.469a1.587,1.587,0,1,1-.492,2.189A1.586,1.586,0,0,1,343.575,312.469Z" fill="#d6006c"/>
                <path id="Path_53" data-name="Path 53" d="M359.318,309.32a1.482,1.482,0,1,1-.723,2.045A1.535,1.535,0,0,1,359.318,309.32Z" fill="#d6006c"/>
                <path id="Path_54" data-name="Path 54" d="M354.1,312.231a1.482,1.482,0,1,1-.393,2.133A1.536,1.536,0,0,1,354.1,312.231Z" fill="#d6006c"/>
                <path id="Path_55" data-name="Path 55" d="M349.169,314.932a1.482,1.482,0,1,1-.546,2.1A1.535,1.535,0,0,1,349.169,314.932Z" fill="#d6006c"/>
                <path id="Path_56" data-name="Path 56" d="M344.765,317.35a1.482,1.482,0,1,1-.672,2.062A1.536,1.536,0,0,1,344.765,317.35Z" fill="#d6006c"/>
                <path id="Path_57" data-name="Path 57" d="M340.811,319.6a1.482,1.482,0,1,1-1.245,1.775A1.535,1.535,0,0,1,340.811,319.6Z" fill="#d6006c"/>
                <path id="Path_58" data-name="Path 58" d="M346.82,301.064a1.482,1.482,0,1,1-1.245,1.775A1.535,1.535,0,0,1,346.82,301.064Z" fill="#d6006c"/>
                <path id="Path_59" data-name="Path 59" d="M337.638,301.459a1.482,1.482,0,1,1-.637,2.073A1.536,1.536,0,0,1,337.638,301.459Z" fill="#d6006c"/>
                <path id="Path_60" data-name="Path 60" d="M351.393,308.292a1.482,1.482,0,1,1-.574,2.091A1.536,1.536,0,0,1,351.393,308.292Z" fill="#d6006c"/>
                <path id="Path_61" data-name="Path 61" d="M342.856,307.765a1.482,1.482,0,1,1-.575,2.091A1.535,1.535,0,0,1,342.856,307.765Z" fill="#d6006c"/>
                <path id="Path_62" data-name="Path 62" d="M338.671,310.066a1.482,1.482,0,1,1-.575,2.091A1.535,1.535,0,0,1,338.671,310.066Z" fill="#d6006c"/>
                <path id="Path_63" data-name="Path 63" d="M346.7,305.652a1.482,1.482,0,1,1-.574,2.091A1.536,1.536,0,0,1,346.7,305.652Z" fill="#d6006c"/>
                <path id="Path_64" data-name="Path 64" d="M338.141,305.767a1.482,1.482,0,1,1-.574,2.091A1.536,1.536,0,0,1,338.141,305.767Z" fill="#d6006c"/>
                <path id="Path_65" data-name="Path 65" d="M342.373,303.439a1.482,1.482,0,1,1-.574,2.092A1.536,1.536,0,0,1,342.373,303.439Z" fill="#d6006c"/>
              </g>
            </g>
            <g id="Group_20" data-name="Group 20">
              <path id="Path_66" data-name="Path 66" d="M325.957,319.1v36.045c0,2.129-2.194,3.079-15.161,3.079-12.675,0-15.157-1.129-15.161-3.077V319.053a5.813,5.813,0,0,1,1.325-3.766l5.955-6.9a.974.974,0,0,1,.73-.369h14.3a.972.972,0,0,1,.73.369l5.93,6.867A5.929,5.929,0,0,1,325.957,319.1Z" fill="#fff"/>
              <rect id="Rectangle_4" data-name="Rectangle 4" width="31.819" height="29.357" transform="translate(294.886 321.03)" fill="#d6006c"/>
              <path id="Path_67" data-name="Path 67" d="M325.74,314.278l-5.93-6.868a2.448,2.448,0,0,0-1.864-.887h-14.3a2.447,2.447,0,0,0-1.863.887l-5.956,6.9a7.329,7.329,0,0,0-1.688,4.744v36.093c.007,3.5,3.9,4.571,16.658,4.571,13.226,0,16.65-.94,16.658-4.573V319.1A7.452,7.452,0,0,0,325.74,314.278Zm.217,4.819v36.045c0,2.129-2.194,3.079-15.161,3.079-12.675,0-15.157-1.129-15.161-3.077V319.053a5.813,5.813,0,0,1,1.325-3.766l5.955-6.9a.974.974,0,0,1,.73-.369h14.3a.972.972,0,0,1,.73.369l5.93,6.867A5.929,5.929,0,0,1,325.957,319.1Z" fill="#302d2c"/>
              <path id="Path_68" data-name="Path 68" d="M334.794,292.242l-5.556-5.255a.347.347,0,0,0-.24-.1H315.19a1.012,1.012,0,0,0-.989-.8h-6.81a1.014,1.014,0,0,0-1.013,1.013v2.787a1.014,1.014,0,0,0,1.013,1.014h2.522v3.732H308.5a1.41,1.41,0,0,0-1.41,1.409v3.523h-2.483a.877.877,0,0,0-.877.877v5.947a.876.876,0,0,0,.877.877h12.382a.876.876,0,0,0,.877-.877v-5.947a.877.877,0,0,0-.877-.877H314.5V296.2a1.56,1.56,0,0,0-1.561-1.56H311.68v-3.732H314.2a1.014,1.014,0,0,0,1.013-1.014v-.821h12.875a.452.452,0,0,1,.312.124l4.869,4.606a1.109,1.109,0,0,0,1.567-.044A1.072,1.072,0,0,0,334.794,292.242Z" fill="#302d2c"/>
            </g>
            <g id="Group_21" data-name="Group 21">
              <path id="Path_69" data-name="Path 69" d="M356.184,321.966a2.756,2.756,0,0,0-1.093,1.526,3.1,3.1,0,0,0-.147.982,5.34,5.34,0,0,0,2.144,3.672,37.042,37.042,0,0,0,4.393,2.916c.992.592,2.018,1.2,3,1.881a7.563,7.563,0,0,0,.768.465l.044.023-.056.225h-.049c-.441,0-3.243-.005-5.418-.011,0,0-2.6-.007-2.629-.006l-20.039,0-.093,0a3.6,3.6,0,0,0,.22,7.206l19.617-.3a.554.554,0,0,1,.561.543l0,.274a.551.551,0,0,1-.544.561l-22.8.347a3.68,3.68,0,0,0-3.48,2.877,3.864,3.864,0,0,0-.069.777,3.6,3.6,0,0,0,3.66,3.554l22.846-.347a.522.522,0,0,1,.529.514l.005.278a.526.526,0,0,1-.51.533l-22.132.494a3.7,3.7,0,0,0-3.464,4.456,3.578,3.578,0,0,0,3.651,2.751l22.09-.492a.505.505,0,0,1,.518.5l.005.271a.519.519,0,0,1-.505.523l-16.235.362a3.333,3.333,0,0,0-3.022,2.506,3.265,3.265,0,0,0-.05.612,3.075,3.075,0,0,0,3.145,3.032l17.836-.244V365.2l8.826-.62a38.487,38.487,0,0,0,5.1-.767,37.329,37.329,0,0,0,5.1-1.5,34.731,34.731,0,0,0,6.794-3.527s10.1.014,13.111.022l8.553-21.507c-8.666-.022-22.038-.027-22.189-.149l-7.41-5.452-6.88-4.177c-.9-.533-1.788-1.094-2.727-1.684a56.561,56.561,0,0,0-6.466-3.681,6.659,6.659,0,0,0-2.943-.658A3.07,3.07,0,0,0,356.184,321.966Z" fill="#fff"/>
              <path id="Path_70" data-name="Path 70" d="M356.112,321.856a2.876,2.876,0,0,0-1.146,1.6,3.193,3.193,0,0,0-.153,1.023,5.318,5.318,0,0,0,2.192,3.772c2.3,1.864,4.974,3.134,7.4,4.8a7.928,7.928,0,0,0,.782.473c-.736,0-8.047-.019-8.047-.017l-20.04,0a3.737,3.737,0,0,0,.131,7.472l19.617-.3a.421.421,0,0,1,.428.413l0,.274a.42.42,0,0,1-.415.427l-22.683.345a3.808,3.808,0,0,0-3.731,3.028,3.9,3.9,0,0,0-.065.761,3.737,3.737,0,0,0,3.793,3.685l22.847-.348a.391.391,0,0,1,.4.385l.005.278a.392.392,0,0,1-.383.4l-22.056.493a3.863,3.863,0,0,0-3.746,3.883c0,.117.009.235.022.355a3.748,3.748,0,0,0,3.862,3.233l22.07-.492a.376.376,0,0,1,.384.369l.005.269a.385.385,0,0,1-.377.39l-16.16.361a3.412,3.412,0,0,0-3.265,2.942c-.008.105-.012.208-.01.311a3.206,3.206,0,0,0,3.278,3.161l17.965-.245v-.032l8.706-.611a38.447,38.447,0,0,0,5.121-.77,36.892,36.892,0,0,0,5.115-1.5,33.221,33.221,0,0,0,6.744-3.515l0,0,8.424.021a.581.581,0,0,0,.582-.585l0-.629a.584.584,0,0,0-.578-.585c-3.007-.022-8.421-.053-8.421-.053a1.826,1.826,0,0,0-1.029.314,31.5,31.5,0,0,1-6.376,3.324,35.465,35.465,0,0,1-4.855,1.424,36.766,36.766,0,0,1-4.856.732l-8.265.58-.441.031a1.747,1.747,0,0,0-.23.032l-17.648.241a1.376,1.376,0,0,1-1.407-1.357,1.545,1.545,0,0,1,.025-.292,1.663,1.663,0,0,1,1.441-1.105l16.18-.36a2.224,2.224,0,0,0,2.166-2.255l0-.2a2.278,2.278,0,0,0-.339-1.209,2.213,2.213,0,0,0-1.917-1.025l-22.089.492a1.906,1.906,0,0,1-1.95-1.4,2,2,0,0,1,1.913-2.412l22.056-.493a2.232,2.232,0,0,0,2.173-2.263l0-.263a2.237,2.237,0,0,0-2.269-2.2l-22.787.347a1.892,1.892,0,0,1-1.98-1.879,2.109,2.109,0,0,1,.039-.43,1.986,1.986,0,0,1,1.943-1.5l22.694-.344a2.258,2.258,0,0,0,2.218-2.293l-.005-.258a2.265,2.265,0,0,0-2.3-2.225l-19.607.3a1.906,1.906,0,0,1-.1-3.811l20.041,0h.025c.135,0,1.2,0,2.522.006,2.191.006,5.063.014,5.51.011a1.83,1.83,0,0,0,1.769-1.4,1.862,1.862,0,0,0,.052-.461,1.83,1.83,0,0,0-.976-1.593,6.186,6.186,0,0,1-.6-.364c-1.02-.7-2.074-1.331-3.094-1.939a35.213,35.213,0,0,1-4.192-2.777,3.589,3.589,0,0,1-1.515-2.376,1.32,1.32,0,0,1,.066-.44,1.038,1.038,0,0,1,.407-.624,3.524,3.524,0,0,1,2.879.32,55.364,55.364,0,0,1,6.263,3.571c.9.568,1.837,1.156,2.752,1.7l7.014,4.258h0l2.088,1.473c1.044.736,2.077,1.491,3.133,2.209a14.69,14.69,0,0,1,1.273.989,5.069,5.069,0,0,0,1.187.926c.231.1,5.983.106,9.24.1a.693.693,0,0,0,.691-.7l0-.376a.691.691,0,0,0-.689-.691l-3.19-.008-4.11-.01c-.359,0-.728.023-1.086,0a.337.337,0,0,1-.258-.133c-.2-.186-.4-.367-.6-.544-.409-.353-.834-.688-1.274-1q-2.23-1.593-4.487-3.144c-.311-.212-.615-.441-.935-.638l-5.529-3.41c-3.549-1.942-6.991-4.538-10.722-6.24C359.285,321.37,357.384,321.021,356.112,321.856Z" fill="#302d2c"/>
            </g>
            <g id="Group_22" data-name="Group 22">
              <path id="Path_71" data-name="Path 71" d="M377.009,316.261c-1.32-3.239-3.011-5.294-6.279-6.633a15.4,15.4,0,0,0,6.264-6.831,15.116,15.116,0,0,0,6.243,6.981A10.674,10.674,0,0,0,377.009,316.261Z" fill="#ffe600"/>
              <path id="Path_72" data-name="Path 72" d="M377.009,316.993a.731.731,0,0,1-.677-.455c-1.347-3.3-2.994-5.052-5.879-6.233a.732.732,0,0,1-.1-1.307,14.747,14.747,0,0,0,5.98-6.52.706.706,0,0,1,.665-.412.731.731,0,0,1,.657.423,14.444,14.444,0,0,0,5.948,6.657.731.731,0,0,1-.1,1.31,9.978,9.978,0,0,0-5.822,6.077.733.733,0,0,1-.678.46Zm-4.766-7.469a10.8,10.8,0,0,1,4.767,4.973,10.858,10.858,0,0,1,4.708-4.823,15.586,15.586,0,0,1-4.737-5.293A15.817,15.817,0,0,1,372.243,309.524Z" fill="#302d2c"/>
            </g>
          </g>
          <text id="_75_" data-name="75%" transform="translate(311.213 340.025)" fill="#fff" font-size="10.512" font-family="SegoeUI, Segoe UI"><tspan x="-9.968" y="0">75%</tspan></text>
        </g>
      </g>
    </g>
  </g>
</svg>
