<svg xmlns="http://www.w3.org/2000/svg" xmlns:xlink="http://www.w3.org/1999/xlink" width="125.759" height="125.759" viewBox="0 0 125.759 125.759">
  <defs>
    <linearGradient id="linear-gradient" y1="0.5" x2="1" y2="0.5" gradientUnits="objectBoundingBox">
      <stop offset="0" stop-color="#ce245f"/>
      <stop offset="0.473" stop-color="#d44276"/>
      <stop offset="0.712" stop-color="#d85384"/>
    </linearGradient>
  </defs>
  <g id="Group_17" data-name="Group 17" transform="translate(-83.557 -263.815)">
    <circle id="Ellipse_1" data-name="Ellipse 1" cx="62.88" cy="62.88" r="62.88" transform="translate(83.557 263.815)" fill="#f0dbe6"/>
    <g id="Group_16" data-name="Group 16">
      <g id="Group_13" data-name="Group 13">
        <path id="Path_34" data-name="Path 34" d="M199.391,307.142a6.633,6.633,0,0,0-2.911-.633c-2.189,0-5.244.917-9.185,4.18-8.054-2.279-14.388-4.529-18.7-5.387-10.98-2.184-16.036-2.661-21.1-2.661h-2.106c-5.066,0-10.121.476-21.1,2.661-4.316.858-10.65,3.108-18.7,5.387-3.94-3.263-7-4.18-9.185-4.18a6.633,6.633,0,0,0-2.911.633c-2.982,1.442-4.569,5.135-4.245,9.879.625,9.131,7.915,20.5,22.781,25.369,5.32,8.223,16.46,11.682,25.942,13.1a63.646,63.646,0,0,0,8.477.689,63.617,63.617,0,0,0,8.476-.689c9.482-1.421,20.622-4.88,25.942-13.1,14.867-4.868,22.156-16.238,22.781-25.369C203.961,312.277,202.374,308.584,199.391,307.142Zm-89.045,32.034C98.2,334.3,92.219,324.659,91.684,316.853c-.253-3.708.818-6.512,2.866-7.5a4.2,4.2,0,0,1,1.849-.4c2.3,0,5.263,1.51,8.463,4.357,1.213,6.105,5.594,25.867,5.484,25.867Zm90.843-22.323c-.534,7.806-6.517,17.442-18.662,22.323h0c-.11,0,4.271-19.761,5.484-25.867,3.2-2.846,6.165-4.356,8.465-4.356a4.193,4.193,0,0,1,1.848.4C200.371,310.341,201.443,313.145,201.189,316.853Z" fill="#302d2c"/>
        <path id="Path_35" data-name="Path 35" d="M179.483,341.5c-5.126,7.921-16.322,11.1-24.812,12.374a62.205,62.205,0,0,1-8.234.671,62.221,62.221,0,0,1-8.235-.671c-8.49-1.273-19.686-4.453-24.811-12.374a17.307,17.307,0,0,1-2.1-5.913c-.418-1.966-1-4.64-1.615-7.5-1.159-5.363-3.172-14.833-3.381-15.818a.086.086,0,0,1,.064-.107c.719-.213,6.028-1.783,8.378-2.5,3.93-1.208,7.325-2.251,9.863-2.756,11.057-2.2,15.993-2.629,20.783-2.629h2.106c4.79,0,9.726.43,20.782,2.629,2.539.505,5.933,1.548,9.864,2.756,2.356.724,7.687,2.3,8.375,2.5a.077.077,0,0,1,.057.1c-.2.939-2.207,10.439-3.368,15.809-.619,2.863-1.2,5.541-1.617,7.511A17.358,17.358,0,0,1,179.483,341.5Z" fill="url(#linear-gradient)"/>
        <path id="Path_36" data-name="Path 36" d="M179.761,317.82a.681.681,0,0,1-.26-.051,97.136,97.136,0,0,0-27.378-6.938c-1.509-.153-2.858-.252-4.127-.3a59.273,59.273,0,0,0-6.654.127,97.129,97.129,0,0,0-27.591,6.035.68.68,0,0,1-.478-1.273A98.526,98.526,0,0,1,141.25,309.3a60.02,60.02,0,0,1,6.8-.129c1.3.053,2.671.155,4.206.31a98.547,98.547,0,0,1,27.762,7.033.68.68,0,0,1-.26,1.308Z" fill="#302d2c"/>
        <path id="Path_37" data-name="Path 37" d="M178.253,326.523a.7.7,0,0,1-.232-.04c-11.665-4.234-48.826-4.838-63.113-1.026a.68.68,0,0,1-.351-1.314c14.458-3.856,52.1-3.231,63.928,1.061a.68.68,0,0,1-.232,1.319Z" fill="#302d2c"/>
        <path id="Path_38" data-name="Path 38" d="M149.743,335.759a207.29,207.29,0,0,1-33.392-2.326.68.68,0,0,1,.2-1.345,205.819,205.819,0,0,0,59.613.3.669.669,0,0,1,.768.577.678.678,0,0,1-.577.768A207.29,207.29,0,0,1,149.743,335.759Z" fill="#302d2c"/>
        <path id="Path_39" data-name="Path 39" d="M146.617,348.144a61.55,61.55,0,0,1-29.557-7.461.736.736,0,1,1,.709-1.289c17.653,9.709,40.155,9.711,57.328,0a.736.736,0,0,1,.724,1.281A59.507,59.507,0,0,1,146.617,348.144Z" fill="#302d2c"/>
        <path id="Path_40" data-name="Path 40" d="M178.228,341.375h0a.68.68,0,0,1-.53-.8l5.4-26.5a.68.68,0,0,1,1.332.272l-5.4,26.5A.68.68,0,0,1,178.228,341.375Z" fill="#302d2c"/>
        <path id="Path_41" data-name="Path 41" d="M114.828,342.021a.68.68,0,0,1-.682-.54l-5.7-27.129a.68.68,0,0,1,1.33-.28l5.7,27.13a.679.679,0,0,1-.525.8A.666.666,0,0,1,114.828,342.021Z" fill="#302d2c"/>
      </g>
      <g id="Group_14" data-name="Group 14">
        <path id="Path_42" data-name="Path 42" d="M112.555,298.817c-1.32-3.24-3.011-5.295-6.279-6.634a15.4,15.4,0,0,0,6.264-6.831,15.111,15.111,0,0,0,6.243,6.981A10.673,10.673,0,0,0,112.555,298.817Z" fill="#ffe600"/>
        <path id="Path_43" data-name="Path 43" d="M112.555,299.548a.733.733,0,0,1-.678-.455c-1.345-3.3-2.994-5.051-5.879-6.233a.732.732,0,0,1-.1-1.307,14.74,14.74,0,0,0,5.979-6.52.733.733,0,0,1,1.323.011,14.438,14.438,0,0,0,5.948,6.657.731.731,0,0,1-.1,1.31,9.978,9.978,0,0,0-5.822,6.077.733.733,0,0,1-.678.46Zm-4.767-7.468a10.8,10.8,0,0,1,4.768,4.972,10.85,10.85,0,0,1,4.708-4.822,15.617,15.617,0,0,1-4.738-5.293A15.8,15.8,0,0,1,107.788,292.08Z" fill="#302d2c"/>
      </g>
      <g id="Group_15" data-name="Group 15">
        <path id="Path_44" data-name="Path 44" d="M180.485,368.037c-1.32-3.24-3.011-5.295-6.28-6.634a15.4,15.4,0,0,0,6.264-6.83,15.12,15.12,0,0,0,6.243,6.98A10.674,10.674,0,0,0,180.485,368.037Z" fill="#ffe600"/>
        <path id="Path_45" data-name="Path 45" d="M180.485,368.768a.732.732,0,0,1-.678-.455c-1.346-3.3-2.994-5.051-5.879-6.233a.731.731,0,0,1-.1-1.306,14.739,14.739,0,0,0,5.98-6.521.8.8,0,0,1,.665-.412.732.732,0,0,1,.657.424,14.446,14.446,0,0,0,5.948,6.656.732.732,0,0,1-.1,1.311,9.976,9.976,0,0,0-5.822,6.076.732.732,0,0,1-.677.46Zm-4.768-7.468a10.8,10.8,0,0,1,4.768,4.972,10.866,10.866,0,0,1,4.708-4.822,15.614,15.614,0,0,1-4.737-5.293A15.787,15.787,0,0,1,175.717,361.3Z" fill="#302d2c"/>
      </g>
    </g>
  </g>
</svg>
