<svg xmlns="http://www.w3.org/2000/svg" xmlns:xlink="http://www.w3.org/1999/xlink" width="635.802" height="246.626" viewBox="0 0 635.802 246.626">
  <defs>
    <linearGradient id="linear-gradient" x1="0.233" y1="0.08" x2="0.78" y2="0.94" gradientUnits="objectBoundingBox">
      <stop offset="0" stop-color="#f9ce69"/>
      <stop offset="0.005" stop-color="#f6cd6a"/>
      <stop offset="0.083" stop-color="#d4c67a"/>
      <stop offset="0.167" stop-color="#b7c087"/>
      <stop offset="0.262" stop-color="#9fbc92"/>
      <stop offset="0.369" stop-color="#8cb89b"/>
      <stop offset="0.495" stop-color="#7fb5a1"/>
      <stop offset="0.658" stop-color="#78b4a4"/>
      <stop offset="1" stop-color="#76b4a6"/>
    </linearGradient>
    <linearGradient id="linear-gradient-2" x1="0.15" y1="0.137" x2="0.867" y2="0.88" xlink:href="#linear-gradient"/>
    <linearGradient id="linear-gradient-3" x1="0.233" y1="0.08" x2="0.78" y2="0.94" xlink:href="#linear-gradient"/>
    <linearGradient id="linear-gradient-4" x1="11.377" y1="-14.548" x2="12.019" y2="-13.683" xlink:href="#linear-gradient"/>
    <linearGradient id="linear-gradient-5" x1="42.237" y1="264.933" x2="42.785" y2="265.793" xlink:href="#linear-gradient"/>
    <linearGradient id="linear-gradient-6" x1="33.29" y1="199.366" x2="33.838" y2="200.226" xlink:href="#linear-gradient"/>
    <clipPath id="clip-path">
      <rect id="Rectangle_6" data-name="Rectangle 6" width="595.392" height="208.315" transform="translate(1256.301 243.685)" fill="none"/>
    </clipPath>
    <linearGradient id="linear-gradient-7" x1="-6.093" y1="-21.272" x2="-5.451" y2="-20.407" xlink:href="#linear-gradient"/>
  </defs>
  <g id="Group_103" data-name="Group 103" transform="translate(-1227.459 -205.374)">
    <g id="Background_1" data-name="Background 1">
      <path id="Path_160" data-name="Path 160" d="M1293.642,452c-6.807-1.671-22.437-12.328-24.826-28.664s6.539-32.791,19.3-43.125,28.849-15.5,44.8-19.194c16.925-3.923,35.127-6.9,48.087-18.564,17.9-16.1,20.153-43.42,33.129-63.764,10.965-17.19,31.694-29.131,51.53-24.967,15.312,3.215,27.745,15.073,43.023,18.453,21.466,4.749,42.4-7.975,61.765-18.466,26.761-14.5,56.468-25.795,86.78-23.8,23.125,1.523,48.58,14.508,52.6,37.538,1.389,7.962.022,16.2,1.21,24.193,2.851,19.2,19.893,33.344,37.816,40.415s37.433,8.961,55.8,14.771,36.742,17.009,43.434,35.215c5.7,15.5,1.648,33.311-6.948,47.386s-11.712,16.459-19.013,22.57Z" fill="#f0dbe6"/>
    </g>
    <g id="Main_1" data-name="Main 1">
      <g id="Group_91" data-name="Group 91">
        <g id="Group_87" data-name="Group 87">
          <line id="Line_1" data-name="Line 1" x2="2.649" y2="1.735" transform="translate(1729.368 258.418)" fill="none" stroke="#76b4a6" stroke-miterlimit="10" stroke-width="0.644"/>
          <line id="Line_2" data-name="Line 2" x2="2.724" y2="2.337" transform="translate(1736.416 263.277)" fill="none" stroke="#76b4a6" stroke-miterlimit="10" stroke-width="0.644"/>
          <line id="Line_3" data-name="Line 3" x1="0.23" y2="2.504" transform="translate(1735.075 256.495)" fill="none" stroke="#76b4a6" stroke-miterlimit="10" stroke-width="0.644"/>
          <line id="Line_4" data-name="Line 4" x1="1.794" y2="1.507" transform="translate(1736.655 258.657)" fill="none" stroke="#76b4a6" stroke-miterlimit="10" stroke-width="0.429"/>
          <line id="Line_5" data-name="Line 5" x1="2.682" y2="0.608" transform="translate(1737.552 260.773)" fill="none" stroke="#76b4a6" stroke-miterlimit="10" stroke-width="0.429"/>
          <line id="Line_6" data-name="Line 6" x1="3.107" y2="1.4" transform="translate(1729.777 262.768)" fill="none" stroke="#76b4a6" stroke-miterlimit="10" stroke-width="0.644"/>
          <line id="Line_7" data-name="Line 7" x1="0.71" y2="3.716" transform="translate(1734.005 263.277)" fill="none" stroke="#76b4a6" stroke-miterlimit="10" stroke-width="0.429"/>
          <circle id="Ellipse_17" data-name="Ellipse 17" cx="3.525" cy="3.525" r="3.525" transform="translate(1730.776 259.243) rotate(-9.528)" fill="url(#linear-gradient)"/>
          <path id="Path_161" data-name="Path 161" d="M1728.084,258.418a1.284,1.284,0,1,0,1.284-1.283A1.284,1.284,0,0,0,1728.084,258.418Z" fill="#76b4a6"/>
          <path id="Path_162" data-name="Path 162" d="M1738.334,265.614a.807.807,0,1,0,.807-.807A.807.807,0,0,0,1738.334,265.614Z" fill="#76b4a6"/>
          <path id="Path_163" data-name="Path 163" d="M1734.5,256.495a.807.807,0,1,0,.807-.807A.807.807,0,0,0,1734.5,256.495Z" fill="#76b4a6"/>
          <path id="Path_164" data-name="Path 164" d="M1728.965,263.952a.84.84,0,1,0,1.028-.6A.84.84,0,0,0,1728.965,263.952Z" fill="#76b4a6"/>
          <path id="Path_165" data-name="Path 165" d="M1739.752,260.773a.609.609,0,1,0,.609-.609A.609.609,0,0,0,1739.752,260.773Z" fill="#76b4a6"/>
          <path id="Path_166" data-name="Path 166" d="M1737.955,258.657a.494.494,0,1,0,.494-.494A.494.494,0,0,0,1737.955,258.657Z" fill="#76b4a6"/>
          <path id="Path_167" data-name="Path 167" d="M1733.511,266.993a.494.494,0,1,0,.494-.493A.494.494,0,0,0,1733.511,266.993Z" fill="#76b4a6"/>
        </g>
        <g id="Group_88" data-name="Group 88">
          <line id="Line_8" data-name="Line 8" x1="1.813" y2="4.37" transform="translate(1828.634 267.628)" fill="none" stroke="#76b4a6" stroke-miterlimit="10" stroke-width="1.252"/>
          <line id="Line_9" data-name="Line 9" x1="2.387" y2="4.146" transform="translate(1823.438 278.061)" fill="none" stroke="#76b4a6" stroke-miterlimit="10" stroke-width="1.252"/>
          <line id="Line_10" data-name="Line 10" x1="3.337" y2="0.317" transform="translate(1831.097 274.93)" fill="none" stroke="#76b4a6" stroke-miterlimit="10" stroke-width="1.252"/>
          <line id="Line_11" data-name="Line 11" x1="2.482" y1="3.354" transform="translate(1829.115 278.412)" fill="none" stroke="#76b4a6" stroke-miterlimit="10" stroke-width="0.835"/>
          <line id="Line_12" data-name="Line 12" x1="2.602" y1="3.723" transform="translate(1823.017 269.585)" fill="none" stroke="#76b4a6" stroke-miterlimit="10" stroke-width="1.252"/>
          <line id="Line_13" data-name="Line 13" x1="5.043" y1="0.011" transform="translate(1820.362 275.821)" fill="none" stroke="#76b4a6" stroke-miterlimit="10" stroke-width="0.835"/>
          <path id="Path_168" data-name="Path 168" d="M1826.223,271.52a4.263,4.263,0,1,0,4.979,3.4A4.263,4.263,0,0,0,1826.223,271.52Z" fill="url(#linear-gradient-2)"/>
          <path id="Path_169" data-name="Path 169" d="M1829.761,267.116a1.383,1.383,0,1,0,1.616,1.1A1.384,1.384,0,0,0,1829.761,267.116Z" fill="#76b4a6"/>
          <path id="Path_170" data-name="Path 170" d="M1823.238,281.15a1.076,1.076,0,1,0,1.257.857A1.074,1.074,0,0,0,1823.238,281.15Z" fill="#76b4a6"/>
          <path id="Path_171" data-name="Path 171" d="M1834.234,273.873a1.076,1.076,0,1,0,1.256.857A1.075,1.075,0,0,0,1834.234,273.873Z" fill="#76b4a6"/>
          <path id="Path_172" data-name="Path 172" d="M1823.1,268.468a1.12,1.12,0,1,0,1.034,1.2A1.12,1.12,0,0,0,1823.1,268.468Z" fill="#76b4a6"/>
          <path id="Path_173" data-name="Path 173" d="M1831.435,280.907a1.043,1.043,0,1,0,1.219.832A1.042,1.042,0,0,0,1831.435,280.907Z" fill="#76b4a6"/>
          <path id="Path_174" data-name="Path 174" d="M1820.005,274.979a.856.856,0,1,0,1,.683A.857.857,0,0,0,1820.005,274.979Z" fill="#76b4a6"/>
        </g>
        <g id="Group_89" data-name="Group 89">
          <line id="Line_14" data-name="Line 14" x2="2.649" y2="1.734" transform="translate(1851.66 217.824)" fill="none" stroke="#76b4a6" stroke-miterlimit="10" stroke-width="0.644"/>
          <line id="Line_15" data-name="Line 15" x2="2.724" y2="2.337" transform="translate(1858.709 222.683)" fill="none" stroke="#76b4a6" stroke-miterlimit="10" stroke-width="0.644"/>
          <line id="Line_16" data-name="Line 16" x1="0.231" y2="2.504" transform="translate(1857.368 215.901)" fill="none" stroke="#76b4a6" stroke-miterlimit="10" stroke-width="0.644"/>
          <line id="Line_17" data-name="Line 17" x1="1.794" y2="1.507" transform="translate(1858.948 218.063)" fill="none" stroke="#76b4a6" stroke-miterlimit="10" stroke-width="0.429"/>
          <line id="Line_18" data-name="Line 18" x1="2.682" y2="0.608" transform="translate(1859.845 220.178)" fill="none" stroke="#76b4a6" stroke-miterlimit="10" stroke-width="0.429"/>
          <line id="Line_19" data-name="Line 19" x1="3.107" y2="1.4" transform="translate(1852.07 222.174)" fill="none" stroke="#76b4a6" stroke-miterlimit="10" stroke-width="0.644"/>
          <line id="Line_20" data-name="Line 20" x1="0.71" y2="3.716" transform="translate(1856.298 222.683)" fill="none" stroke="#76b4a6" stroke-miterlimit="10" stroke-width="0.429"/>
          <path id="Path_175" data-name="Path 175" d="M1853.6,221.541a3.525,3.525,0,1,0,3.525-3.525A3.525,3.525,0,0,0,1853.6,221.541Z" fill="url(#linear-gradient-3)"/>
          <path id="Path_176" data-name="Path 176" d="M1850.377,217.824a1.284,1.284,0,1,0,1.283-1.284A1.283,1.283,0,0,0,1850.377,217.824Z" fill="#76b4a6"/>
          <path id="Path_177" data-name="Path 177" d="M1860.627,225.019a.807.807,0,1,0,.807-.806A.808.808,0,0,0,1860.627,225.019Z" fill="#76b4a6"/>
          <path id="Path_178" data-name="Path 178" d="M1856.791,215.9a.807.807,0,1,0,.807-.807A.808.808,0,0,0,1856.791,215.9Z" fill="#76b4a6"/>
          <path id="Path_179" data-name="Path 179" d="M1851.258,223.357a.84.84,0,1,0,1.028-.6A.84.84,0,0,0,1851.258,223.357Z" fill="#76b4a6"/>
          <path id="Path_180" data-name="Path 180" d="M1862.045,220.178a.608.608,0,1,0,.609-.608A.609.609,0,0,0,1862.045,220.178Z" fill="#76b4a6"/>
          <path id="Path_181" data-name="Path 181" d="M1860.248,218.063a.493.493,0,1,0,.494-.494A.494.494,0,0,0,1860.248,218.063Z" fill="#76b4a6"/>
          <path id="Path_182" data-name="Path 182" d="M1855.8,226.4a.494.494,0,1,0,.494-.494A.494.494,0,0,0,1855.8,226.4Z" fill="#76b4a6"/>
        </g>
        <g id="Group_90" data-name="Group 90">
          <line id="Line_21" data-name="Line 21" x1="2.652" y2="4.672" transform="translate(1793.152 220.821)" fill="none" stroke="#76b4a6" stroke-miterlimit="10" stroke-width="1.446"/>
          <line id="Line_22" data-name="Line 22" x1="3.664" y2="4.865" transform="translate(1784.67 233.279)" fill="none" stroke="#76b4a6" stroke-miterlimit="10" stroke-width="1.446"/>
          <line id="Line_23" data-name="Line 23" x1="4.265" y1="0.121" transform="translate(1795.434 230.548)" fill="none" stroke="#76b4a6" stroke-miterlimit="10" stroke-width="1.446"/>
          <line id="Line_24" data-name="Line 24" x1="2.745" y1="2.875" transform="translate(1793.631 233.348)" fill="none" stroke="#76b4a6" stroke-miterlimit="10" stroke-width="0.964"/>
          <line id="Line_25" data-name="Line 25" x1="1.319" y1="4.475" transform="translate(1791.666 234.998)" fill="none" stroke="#76b4a6" stroke-miterlimit="10" stroke-width="0.964"/>
          <line id="Line_26" data-name="Line 26" x1="2.705" y1="5.11" transform="translate(1786.111 222.132)" fill="none" stroke="#76b4a6" stroke-miterlimit="10" stroke-width="1.446"/>
          <line id="Line_27" data-name="Line 27" x1="6.369" y1="0.802" transform="translate(1781.782 229.595)" fill="none" stroke="#76b4a6" stroke-miterlimit="10" stroke-width="0.964"/>
          <circle id="Ellipse_18" data-name="Ellipse 18" cx="5.981" cy="5.981" r="5.981" transform="translate(1783.388 235.632) rotate(-82.519)" fill="url(#linear-gradient-4)"/>
          <path id="Path_183" data-name="Path 183" d="M1795.666,218.647a2.178,2.178,0,1,0,2.311,2.036A2.178,2.178,0,0,0,1795.666,218.647Z" fill="#76b4a6"/>
          <path id="Path_184" data-name="Path 184" d="M1784.583,236.777a1.369,1.369,0,1,0,1.453,1.28A1.37,1.37,0,0,0,1784.583,236.777Z" fill="#76b4a6"/>
          <path id="Path_185" data-name="Path 185" d="M1799.612,229.3a1.369,1.369,0,1,0,1.453,1.28A1.37,1.37,0,0,0,1799.612,229.3Z" fill="#76b4a6"/>
          <path id="Path_186" data-name="Path 186" d="M1786.391,220.733a1.426,1.426,0,1,0,1.118,1.678A1.426,1.426,0,0,0,1786.391,220.733Z" fill="#76b4a6"/>
          <path id="Path_187" data-name="Path 187" d="M1792.934,238.658a1.033,1.033,0,1,0,1.1.965A1.033,1.033,0,0,0,1792.934,238.658Z" fill="#76b4a6"/>
          <path id="Path_188" data-name="Path 188" d="M1796.323,235.387a.838.838,0,1,0,.889.783A.839.839,0,0,0,1796.323,235.387Z" fill="#76b4a6"/>
          <path id="Path_189" data-name="Path 189" d="M1781.436,228.389a1.061,1.061,0,1,0,1.126.991A1.061,1.061,0,0,0,1781.436,228.389Z" fill="#76b4a6"/>
        </g>
      </g>
      <g id="Group_94" data-name="Group 94">
        <g id="Group_92" data-name="Group 92">
          <line id="Line_28" data-name="Line 28" x2="1.485" y2="2.796" transform="translate(1272.177 206.658)" fill="none" stroke="#76b4a6" stroke-miterlimit="10" stroke-width="0.644"/>
          <line id="Line_29" data-name="Line 29" x2="1.261" y2="3.36" transform="translate(1276.012 214.312)" fill="none" stroke="#76b4a6" stroke-miterlimit="10" stroke-width="0.644"/>
          <line id="Line_30" data-name="Line 30" x1="1.408" y2="2.083" transform="translate(1276.898 207.834)" fill="none" stroke="#76b4a6" stroke-miterlimit="10" stroke-width="0.644"/>
          <line id="Line_31" data-name="Line 31" x1="2.298" y2="0.456" transform="translate(1277.721 211.243)" fill="none" stroke="#76b4a6" stroke-miterlimit="10" stroke-width="0.429"/>
          <line id="Line_32" data-name="Line 32" x1="2.643" y1="0.759" transform="translate(1277.92 213.198)" fill="none" stroke="#76b4a6" stroke-miterlimit="10" stroke-width="0.429"/>
          <line id="Line_33" data-name="Line 33" x1="3.397" y1="0.27" transform="translate(1269.765 211.893)" fill="none" stroke="#76b4a6" stroke-miterlimit="10" stroke-width="0.644"/>
          <line id="Line_34" data-name="Line 34" x1="2.413" y2="2.914" transform="translate(1272.108 213.492)" fill="none" stroke="#76b4a6" stroke-miterlimit="10" stroke-width="0.429"/>
          <path id="Path_190" data-name="Path 190" d="M1272.088,210.852a3.525,3.525,0,1,0,4.788-1.391A3.526,3.526,0,0,0,1272.088,210.852Z" fill="url(#linear-gradient-5)"/>
          <path id="Path_191" data-name="Path 191" d="M1271.052,206.039a1.283,1.283,0,1,0,1.743-.506A1.284,1.284,0,0,0,1271.052,206.039Z" fill="#76b4a6"/>
          <path id="Path_192" data-name="Path 192" d="M1276.566,217.283a.807.807,0,1,0,1.1-.318A.807.807,0,0,0,1276.566,217.283Z" fill="#76b4a6"/>
          <path id="Path_193" data-name="Path 193" d="M1277.6,207.445a.807.807,0,1,0,1.1-.318A.807.807,0,0,0,1277.6,207.445Z" fill="#76b4a6"/>
          <path id="Path_194" data-name="Path 194" d="M1269.157,211.312a.841.841,0,1,0,1.188-.026A.84.84,0,0,0,1269.157,211.312Z" fill="#76b4a6"/>
          <path id="Path_195" data-name="Path 195" d="M1280.141,213.725a.609.609,0,1,0,.827-.24A.609.609,0,0,0,1280.141,213.725Z" fill="#76b4a6"/>
          <path id="Path_196" data-name="Path 196" d="M1279.586,211.005a.494.494,0,1,0,.671-.2A.493.493,0,0,0,1279.586,211.005Z" fill="#76b4a6"/>
          <path id="Path_197" data-name="Path 197" d="M1271.675,216.168a.494.494,0,1,0,.671-.195A.495.495,0,0,0,1271.675,216.168Z" fill="#76b4a6"/>
        </g>
        <g id="Group_93" data-name="Group 93">
          <line id="Line_35" data-name="Line 35" x2="1.916" y2="3.607" transform="translate(1376.339 241.167)" fill="none" stroke="#76b4a6" stroke-miterlimit="10" stroke-width="0.644"/>
          <line id="Line_36" data-name="Line 36" x2="1.627" y2="4.334" transform="translate(1381.286 251.04)" fill="none" stroke="#76b4a6" stroke-miterlimit="10" stroke-width="0.644"/>
          <line id="Line_37" data-name="Line 37" x1="1.817" y2="2.687" transform="translate(1382.429 242.684)" fill="none" stroke="#76b4a6" stroke-miterlimit="10" stroke-width="0.644"/>
          <line id="Line_38" data-name="Line 38" x1="2.964" y2="0.588" transform="translate(1383.49 247.081)" fill="none" stroke="#76b4a6" stroke-miterlimit="10" stroke-width="0.429"/>
          <line id="Line_39" data-name="Line 39" x1="3.409" y1="0.979" transform="translate(1383.747 249.603)" fill="none" stroke="#76b4a6" stroke-miterlimit="10" stroke-width="0.429"/>
          <line id="Line_40" data-name="Line 40" x1="4.381" y1="0.349" transform="translate(1373.228 247.92)" fill="none" stroke="#76b4a6" stroke-miterlimit="10" stroke-width="0.644"/>
          <line id="Line_41" data-name="Line 41" x1="3.112" y2="3.759" transform="translate(1376.25 249.982)" fill="none" stroke="#76b4a6" stroke-miterlimit="10" stroke-width="0.429"/>
          <path id="Path_198" data-name="Path 198" d="M1376.225,246.577a4.546,4.546,0,1,0,6.175-1.793A4.547,4.547,0,0,0,1376.225,246.577Z" fill="url(#linear-gradient-6)"/>
          <path id="Path_199" data-name="Path 199" d="M1374.889,240.37a1.655,1.655,0,1,0,2.248-.653A1.654,1.654,0,0,0,1374.889,240.37Z" fill="#76b4a6"/>
          <path id="Path_200" data-name="Path 200" d="M1382,254.872a1.041,1.041,0,1,0,1.414-.41A1.041,1.041,0,0,0,1382,254.872Z" fill="#76b4a6"/>
          <path id="Path_201" data-name="Path 201" d="M1383.333,242.183a1.041,1.041,0,1,0,1.414-.411A1.04,1.04,0,0,0,1383.333,242.183Z" fill="#76b4a6"/>
          <path id="Path_202" data-name="Path 202" d="M1372.445,247.171a1.084,1.084,0,1,0,1.532-.034A1.083,1.083,0,0,0,1372.445,247.171Z" fill="#76b4a6"/>
          <path id="Path_203" data-name="Path 203" d="M1386.612,250.282a.785.785,0,1,0,1.066-.309A.784.784,0,0,0,1386.612,250.282Z" fill="#76b4a6"/>
          <path id="Path_204" data-name="Path 204" d="M1385.9,246.774a.637.637,0,1,0,.865-.251A.637.637,0,0,0,1385.9,246.774Z" fill="#76b4a6"/>
          <path id="Path_205" data-name="Path 205" d="M1375.692,253.434a.637.637,0,1,0,.865-.251A.638.638,0,0,0,1375.692,253.434Z" fill="#76b4a6"/>
        </g>
      </g>
      <g id="Group_101" data-name="Group 101">
        <g id="Group_100" data-name="Group 100" clip-path="url(#clip-path)">
          <g id="Group_95" data-name="Group 95">
            <path id="Path_206" data-name="Path 206" d="M1724.734,399.779c-7.585,2.2-16.432,5.216-23.734,4.321-16.176-1.982-38.27-5.4-40.438-25.49-.084-12.338,9.343-23.362,24.538-28.467,5.476-1.84,9.959-2.809,14.867-5.855,4.657-2.89,7.585-5.214,9.193-10.454s2.53-10.747,5.049-15.615c4.844-9.364,14.237-13.689,24.71-12.473s16.66,9.3,19.32,19.5c2.343,8.987,3.876,34.508-3.494,48.287S1732.318,397.585,1724.734,399.779Z" fill="#272a6e"/>
            <path id="Path_207" data-name="Path 207" d="M1651.021,452c2.575-21.8,8.1-50.776,32.4-75.731,3.458-3.551,21.513-15.911,37.192-16.952,12.969-.862,80.643-8.166,98.816,92.683Z" fill="#b70760"/>
            <path id="Path_208" data-name="Path 208" d="M1746.489,443.581a13.983,13.983,0,0,1-6.282-6.592,8.539,8.539,0,0,1,1.13-8.735c.549-.623,1.249-1.232,1.307-2.06a3.7,3.7,0,0,0-.84-2.05,8.393,8.393,0,0,1,13.213-10.2,7.624,7.624,0,0,1,12.73,7.587l-5.3,22.553Z" fill="#fff"/>
            <path id="Path_209" data-name="Path 209" d="M1752.143,328.363c.12,6.424-.51,12-4.574,16.974-1.8,2.206-5.511,3.618-8.345,3.9a11.112,11.112,0,0,1-7.886-2.287,22.152,22.152,0,0,1-7.289-10.586,16.584,16.584,0,0,1-.1-11.97,14.9,14.9,0,0,1,9.22-8.575,16.184,16.184,0,0,1,13.65,1.467C1750.472,319.785,1752.065,324.21,1752.143,328.363Z" fill="#fba49b"/>
            <path id="Path_210" data-name="Path 210" d="M1740.463,348.852s-.108,6.46-.066,11.32c.066,7.745-14.243,6.477-14.112.663.139-6.234.117-19.44.117-19.44Z" fill="#fba49b"/>
            <path id="Path_211" data-name="Path 211" d="M1745.2,330.736c.065,3.485.716,10.427.716,10.427a8.007,8.007,0,0,1-4.106-.569" fill="none" stroke="#382827" stroke-linecap="round" stroke-linejoin="round" stroke-width="1.104"/>
            <path id="Path_212" data-name="Path 212" d="M1738.7,332.451a.763.763,0,0,1,.282,1.5A.763.763,0,0,1,1738.7,332.451Z" fill="#382827"/>
            <path id="Path_213" data-name="Path 213" d="M1749.108,332.57a.763.763,0,0,1,.281,1.5A.763.763,0,0,1,1749.108,332.57Z" fill="#382827"/>
            <path id="Path_214" data-name="Path 214" d="M1743.948,321.877c-2.142,4.03-3.339,5.392-8.15,8.507-2.353,1.523-9.037,3.7-11.547,2.451a5.319,5.319,0,0,1-2.995-3.941c-1.641-7.234.469-13.323,7.47-17.03,6.554-3.472,17.116-1.344,21.994,4.245a11.669,11.669,0,0,1,2.836,5.508c.417,2.327.567,4.58-2.328,4.158A12.05,12.05,0,0,1,1743.948,321.877Z" fill="#272a6e"/>
            <path id="Path_215" data-name="Path 215" d="M1738.85,342.393a3.837,3.837,0,0,0,3.249,1.178.59.59,0,0,1,.139,1.171,4.963,4.963,0,0,1-4.129-1.432C1737.583,342.775,1738.317,341.851,1738.85,342.393Z" fill="#382827"/>
            <path id="Path_216" data-name="Path 216" d="M1728.975,333.6h0a3.673,3.673,0,0,0-2.239-3.919,4.4,4.4,0,0,0-4.535.935,5.515,5.515,0,0,0-1.614,4.442,7.431,7.431,0,0,0,2.015,4.357,5.753,5.753,0,0,0,5.189,2.032Z" fill="#fba49b"/>
            <path id="Path_217" data-name="Path 217" d="M1723.218,333.325c-.462,3.66,2.468,5.336,3.879,4.908" fill="none" stroke="#ffd6cb" stroke-linecap="round" stroke-miterlimit="10" stroke-width="1.104"/>
            <path id="Path_218" data-name="Path 218" d="M1742.32,359.133c4.29,4.8,11.845,14.243,8.415,15.715-4.321,1.06-9.8-3.106-12.54-6.4.123,1.256-.674,9.1-5.826,8.734-3.65-.257-8.293-12.326-8.824-18.053" fill="none" stroke="#382827" stroke-linecap="round" stroke-linejoin="round" stroke-width="1.104"/>
            <path id="Path_219" data-name="Path 219" d="M1731.177,347.236a5.785,5.785,0,0,0,2.045,1.353,10.121,10.121,0,0,0,2.342.689c.806.132,1.615.121,2.408.2s1.592.136,2.475.19a.058.058,0,0,1,.056.06.064.064,0,0,1-.024.045,4.822,4.822,0,0,1-2.526.809,7.155,7.155,0,0,1-2.6-.451,7.708,7.708,0,0,1-4.267-2.834.054.054,0,0,1,.016-.076A.057.057,0,0,1,1731.177,347.236Z" fill="#382827"/>
            <path id="Path_220" data-name="Path 220" d="M1797.237,459.36l-14.152-17.367s5.832-23.977,11.06-30.621c4.234-5.381,7.342-8.336,11.217-12.808a3.679,3.679,0,0,1,5.391.051c1.864,3.108-.043,7.283-1.243,9.849-1.28,2.736-1.93,5.083-3.21,7.819,5.413-3.922,9.72-9,14.844-12.457,1.912-1.29,4.638-.9,5.5.478,1.351,2.173.653,5.738-1.721,8.83-3.54,4.608-6.9,8.6-10,12.489a126.085,126.085,0,0,0,12.546-5.286,12.229,12.229,0,0,1,4.653-1.539,3.388,3.388,0,0,1,3.57,3.515c-.127,2.653-2.71,4.317-4.016,5.355-4.182,3.325-11.108,7.331-11.124,8.718,0,1.53,3.3.382,5.976-.478,2.44-.784,4.918-1.684,7.473-1.5,3.085.224,3.527,4.771.85,6.81-1.347,1.027-3.821,2.838-6.585,4.523-4.078,2.484-6.974,4.937-12.1,7.643C1808.528,457.42,1797.237,459.36,1797.237,459.36Z" fill="#fba49b"/>
            <path id="Path_221" data-name="Path 221" d="M1771.088,412.544a14.878,14.878,0,0,1,15.367-8.934c5.473.564,10.568,5.757,11.131,10.028a12.282,12.282,0,0,1,7.44-3.5c3.328-.34,7.2,1.134,8.985,3.964a12.61,12.61,0,0,1,1.23,9.687c2.216-.03,4,.69,4.608,2.5.843,2.515-.424,3.957-1.594,5.105,3.3.118,8.023,2.6,9.36,7.249,1.425,4.951-.038,11.61-4.062,13.385h-54.239Z" fill="#fff"/>
            <path id="Path_222" data-name="Path 222" d="M1789.552,452c4.721-2.349,13.518-5.8,16.176-10.349.723-1.239,1.227-2.821.436-4.017a3.89,3.89,0,0,0-4.1-1.764c-6.574,1.134-11.2,3.257-17.786,4.845,5.612-3.534,10.126-8.868,13.431-12.36,2.278-2.406,4.477-7.817,1.564-10.117-1.383-1.092-3.565-.5-4.876.215-5.706,3.1-9.321,8.537-16.191,13.032,3.281-6.225,11.837-20.944,8.341-24.624-1.312-1.381-4.048-1.226-6.623,1.718-3.311,3.783-7.6,11.49-9.414,14.928.831-5.563,1.836-9.856,2.667-15.419.606-4.05-.167-9.551-3.373-9.567-5.674-.029-8.863,18.744-13.247,26.739-3.363,6.133-8.931,9.349-14.453,13.643-9.63,7.49-11.548,5.607-21.179,13.1Z" fill="#fba49b"/>
            <path id="Path_223" data-name="Path 223" d="M1829.846,388.185a8.507,8.507,0,1,1-8.507-8.507A8.507,8.507,0,0,1,1829.846,388.185Z" fill="#fff"/>
            <path id="Path_224" data-name="Path 224" d="M1821.339,382.169a6.018,6.018,0,0,1,5.068,9.258" fill="none" stroke="#382827" stroke-linecap="round" stroke-linejoin="round" stroke-width="1.104"/>
            <path id="Path_225" data-name="Path 225" d="M1803.572,368.169a5.538,5.538,0,1,1-5.538-5.538A5.537,5.537,0,0,1,1803.572,368.169Z" fill="#fff"/>
            <circle id="Ellipse_19" data-name="Ellipse 19" cx="5.537" cy="5.537" r="5.537" transform="translate(1740.375 391.155)" fill="#fff"/>
            <path id="Path_226" data-name="Path 226" d="M1795.673,365.079a3.8,3.8,0,0,1,6.115,2.642" fill="none" stroke="#382827" stroke-linecap="round" stroke-linejoin="round" stroke-width="1.104"/>
            <path id="Path_227" data-name="Path 227" d="M1745.1,393.065a3.8,3.8,0,0,1,4.353,3.143" fill="none" stroke="#382827" stroke-linecap="round" stroke-linejoin="round" stroke-width="1.104"/>
            <path id="Path_228" data-name="Path 228" d="M1704.619,428.386a77.6,77.6,0,0,0,.7,23.655" fill="none" stroke="#382827" stroke-linecap="round" stroke-linejoin="round" stroke-width="1.104"/>
          </g>
          <g id="Group_98" data-name="Group 98">
            <path id="Path_229" data-name="Path 229" d="M1327.345,335.311l23.734-1.8,19.038,54.045L1337.291,452Z" fill="#b70760"/>
            <path id="Path_230" data-name="Path 230" d="M1339.823,296.627a52.252,52.252,0,0,1-1.666-5.958c-.468-1.762-.073-4,1.5-4.8,2.064-1.052,4.3.967,5.765,2.815q3.474,4.381,6.776,8.907a21.816,21.816,0,0,1,3.449,6.044c1.025,3.2.611,6.686.2,10.035-1.075,8.719-2.082,14.334-2.695,16.31-.552,1.779-3.014,5.326-4.419,4.673Z" fill="#fba49b"/>
            <path id="Path_231" data-name="Path 231" d="M1299.675,294.975c.435-3.581,3.473-5.646,12.246-4.052,3.839.7,15.557,2.958,19.437,3.373-.344,2.457-9.372,9.694-9.372,9.694C1318.625,303.3,1299.095,299.754,1299.675,294.975Z" fill="#fba49b"/>
            <path id="Path_232" data-name="Path 232" d="M1309.554,277.8l-3.428,18.48,4.233.877,10.5-17.329Z" fill="#fb6b7c"/>
            <path id="Path_233" data-name="Path 233" d="M1324.184,280.467l-17.929-3.4v-9.076h37.979l-.2,6.68c-1,1.3-4.382,3.13-5.372,4.416-2.361,3.066-1.472,9.383-1.472,9.383l-8.541.859S1328.226,281.2,1324.184,280.467Z" fill="none" stroke="#382827" stroke-linecap="round" stroke-linejoin="round" stroke-width="1.104"/>
            <path id="Path_234" data-name="Path 234" d="M1338.921,293.519a43.677,43.677,0,0,0-.468-4.548,1.85,1.85,0,0,0-.345-.844,1.5,1.5,0,0,0-.822-.4,15.025,15.025,0,0,0-8.811.87,1.332,1.332,0,0,0-.62.418,1.551,1.551,0,0,0-.14,1.042c.141,1.419.384,4.847.384,4.847a16.2,16.2,0,0,1,5.024-1.45A16.8,16.8,0,0,1,1338.921,293.519Z" fill="#fb6b7c"/>
            <path id="Path_235" data-name="Path 235" d="M1321.118,344.219c1.292,1.93,4.054,3.255,7.387,3.984,8.061,1.762,19.462.031,21.485-5.089-.6-6.608-1.414-20.519-3.175-39.124-.781-8.253-6.018-10.427-11.006-10.544-6.173-.145-13.033,2.423-13.759,9.978C1322.036,303.572,1321.118,309.507,1321.118,344.219Z" fill="#fff"/>
            <path id="Path_236" data-name="Path 236" d="M1321.147,334.112l-.029,10.107c1.292,1.93,4.054,3.255,7.387,3.984" fill="none" stroke="#382827" stroke-linecap="round" stroke-linejoin="round" stroke-width="1.104"/>
            <path id="Path_237" data-name="Path 237" d="M1326.382,463.775c5.262-17.409,25.916-55.783,36.978-72.592,20.725-31.5,37.516-31.734,58.7-32.278,7.365-.189,34.022.529,45.823,4.56,12.243,4.182,21.554,15.554,28.152,29.217,10.829,22.423,17.194,47.35,24.7,71.093Z" fill="#b70760"/>
            <g id="Group_96" data-name="Group 96">
              <path id="Path_238" data-name="Path 238" d="M1417.877,311.59c-7.868,3.675-11.623,14.059-12.185,21.745s4.192,17.033,15.574,16.5v10.309c0,3.625,1.86,8.68,6.837,9.147,5.3.5,8.833-2.648,8.833-8.709V343.958c0-1.249,4.2-7.77,3.437-18.121-.486-6.575-2.678-9.809-6.542-12.505C1429.857,310.558,1423.061,309.168,1417.877,311.59Z" fill="#fba49b"/>
              <path id="Path_239" data-name="Path 239" d="M1444.211,327.533a11.148,11.148,0,0,0-.507-6.134c-.862-1.893-4.272-4.25-6.319-3.881.937-2.232,1.932-7.544-.984-9.346-3.345-2.066-6.3-.393-9.282,2.37,1.272-4.158-2.228-8.253-6.431-9.365-2.359-.623-5.417-.044-6.288,2.235-.859,2.248.87,4.586,2.481,6.373a12.451,12.451,0,0,0-4.256-2.066,4.232,4.232,0,0,0-4.278,1.4,3.869,3.869,0,0,0,.173,4.3,14.572,14.572,0,0,0,3,3.5,35.524,35.524,0,0,0,7.971,3.737c3.453,1.135,10.833,1.9,14.426,1.36a66.375,66.375,0,0,0,2.582,13.207,6.008,6.008,0,0,0,1.546,2.814C1439.8,339.562,1444.041,328.781,1444.211,327.533Z" fill="#fcc760"/>
              <path id="Path_240" data-name="Path 240" d="M1434.61,342.772a12.875,12.875,0,0,0,5.947-.092c1.356-.363,6.052-3.161,4.312-7.508-1.068-2.666-5.762-3.306-8.37.053Z" fill="#fba49b"/>
              <path id="Path_241" data-name="Path 241" d="M1415.853,324.758a93.827,93.827,0,0,0-8.02,10.705q2.2,1.5,4.425,2.945" fill="none" stroke="#382827" stroke-linecap="round" stroke-linejoin="round" stroke-width="1.104"/>
              <path id="Path_242" data-name="Path 242" d="M1420.858,328.734a.884.884,0,0,1,0,1.767A.884.884,0,0,1,1420.858,328.734Z" fill="#382827"/>
              <path id="Path_243" data-name="Path 243" d="M1409.643,323.875a.884.884,0,0,1,0,1.767A.884.884,0,0,1,1409.643,323.875Z" fill="#382827"/>
              <path id="Path_244" data-name="Path 244" d="M1411.108,341.363a4.412,4.412,0,0,0,2.889.25c1.483-.3,1.575.849.322,1.235a4.434,4.434,0,0,1-3.675-.381C1409.5,341.5,1410.1,340.84,1411.108,341.363Z" fill="#382827"/>
              <path id="Path_245" data-name="Path 245" d="M1442.254,336.672s-1.962,3.187-3.576,3.471" fill="none" stroke="#ffd6cb" stroke-linecap="round" stroke-miterlimit="10" stroke-width="1.104"/>
              <path id="Path_246" data-name="Path 246" d="M1430.153,347.078a27.149,27.149,0,0,1-3.693,2.357c-.7.3-1.254.685-1.972.98a2.452,2.452,0,0,1-1.244.11,2.8,2.8,0,0,1-1.1-.474.061.061,0,0,1-.016-.085.069.069,0,0,1,.034-.024,12.982,12.982,0,0,0,1.931-.6c.621-.249,1.42-.385,2.052-.632,1.33-.483,2.639-1.106,3.948-1.73a.056.056,0,0,1,.074.026A.054.054,0,0,1,1430.153,347.078Z" fill="#382827"/>
            </g>
            <g id="Group_97" data-name="Group 97">
              <path id="Path_247" data-name="Path 247" d="M1333.306,305.3c3.6.688,6.45,2.72,6.448,5.075,0,4.366-3.005,4.583-6.1,5.534,2.332-.718,3.907-1.986,5.124,1.951.477,1.541-.7,5.028-3.7,6.985,2.634-.033,3.576,5.243.583,7.563a14.574,14.574,0,0,1-15.189,1.4c-6.026-2.879-9.643-14.512-6.32-24.83C1316.7,301.083,1330.623,304.793,1333.306,305.3Z" fill="#fba49b"/>
              <path id="Path_248" data-name="Path 248" d="M1336.8,315.176s-6.318,1.5-10.882.089" fill="none" stroke="#382827" stroke-linecap="round" stroke-miterlimit="10" stroke-width="1.104"/>
              <path id="Path_249" data-name="Path 249" d="M1335.083,324.85a20.891,20.891,0,0,1-9.946.428" fill="none" stroke="#382827" stroke-linecap="round" stroke-miterlimit="10" stroke-width="1.104"/>
            </g>
            <path id="Path_250" data-name="Path 250" d="M1417.636,363.888a11,11,0,0,0,6.152,9.418c4.789,2.418,11.413,1.173,14.228-1.426a11.688,11.688,0,0,0,3.681-7.6" fill="none" stroke="#382827" stroke-linecap="round" stroke-linejoin="round" stroke-width="1.104"/>
            <line id="Line_42" data-name="Line 42" y1="5.995" x2="9.7" transform="translate(1290.73 276.511)" fill="none" stroke="#382827" stroke-linecap="round" stroke-linejoin="round" stroke-width="1.104"/>
            <line id="Line_43" data-name="Line 43" x2="10.045" transform="translate(1290.061 271.405)" fill="none" stroke="#382827" stroke-linecap="round" stroke-linejoin="round" stroke-width="1.104"/>
            <path id="Path_251" data-name="Path 251" d="M1363.746,392.724c-9.107,12.932-21.9,36.548-27.511,49.915" fill="none" stroke="#382827" stroke-linecap="round" stroke-linejoin="round" stroke-width="1.104"/>
            <line id="Line_44" data-name="Line 44" x2="10.133" y2="6.263" transform="translate(1290.297 260.537)" fill="none" stroke="#382827" stroke-linecap="round" stroke-linejoin="round" stroke-width="1.104"/>
          </g>
          <g id="Group_99" data-name="Group 99">
            <path id="Path_252" data-name="Path 252" d="M1534.637,309.953c-2.663.008-5.942,1.333-5.942,5.268,0,3.168,3.607,5.453,6.8,5.229,0,0,2.352,17.962,19.183,17.962s19-18.686,19-18.686,5.66-1.226,5.66-4.977c0-4.629-3.206-6.027-5.757-5.808,0-4.706-5.242-17.855-19.72-17.855S1534.637,303.574,1534.637,309.953Z" fill="#cc6626"/>
            <path id="Path_253" data-name="Path 253" d="M1563.789,358.5h-17.535l1.559-23.77h14.418Z" fill="#cc6626"/>
            <path id="Path_254" data-name="Path 254" d="M1677.97,452a126.994,126.994,0,0,0-35.083-57.193c-16.62-15.3-40.609-24.469-63.369-31.024-2.2-2.331,1.831-7.973-1.923-9.093s-8.968.863-13.177,1.4c-18.745,2.406-26.536-2.846-30.763-.6-4.432,2.353-.86,5.72-.052,8.56-44.41,11.168-85.243,44.3-99.1,87.948Z" fill="#d6006c"/>
            <path id="Path_255" data-name="Path 255" d="M1545.7,309.966a1.065,1.065,0,0,1,.1,2.126A1.065,1.065,0,0,1,1545.7,309.966Z" fill="#382827"/>
            <path id="Path_256" data-name="Path 256" d="M1563.659,309.966a1.065,1.065,0,0,1,.1,2.126A1.065,1.065,0,0,1,1563.659,309.966Z" fill="#382827"/>
            <line id="Line_45" data-name="Line 45" x1="0.914" y2="10.323" transform="translate(1553.362 307.399)" fill="none" stroke="#382827" stroke-linecap="round" stroke-miterlimit="10" stroke-width="1.104"/>
            <path id="Path_257" data-name="Path 257" d="M1566.68,334.982c-2.158,1.467-5.9,3.43-12.4,3.43s-10.561-2.251-12.031-3.424-4.3-3.349-4.3-4.969V318.732a2.844,2.844,0,0,1,2.746-2.932h27.171a2.844,2.844,0,0,1,2.746,2.932v11.287C1570.607,331.639,1568.838,333.515,1566.68,334.982Z" fill="#fff"/>
            <path id="Path_258" data-name="Path 258" d="M1538.055,304.011a8.277,8.277,0,0,1,4.836-4.465c2.528-1,4.8-1.909,12.908-2.419a33.236,33.236,0,0,1,7.4.386,8.691,8.691,0,0,1,5.876,3.5c.992,1.526,1.289,3.383,1.816,5.125s2.246,5.955,3.09,4.3a55.869,55.869,0,0,0,2.257-12.986,23.039,23.039,0,0,0-3.031-12.672,5.817,5.817,0,0,0-1.654-1.881c-1.916-1.262-4.434-.379-6.657.186a21.334,21.334,0,0,1-9.366.247c-2.518-.5-5.053-1.461-7.579-1-2.248.407-4.132,1.879-6.187,2.88-1.679.817-3.718,1.828-5.766,1.8-1.929-.032-3.888-1.1-4.834-.707-1.346.782-1.448,2.652-1.388,4.208a63.088,63.088,0,0,0,2.376,14.741c.349,1.342,2.083,5.785,3.914,5.785C1537.641,311.03,1537.469,305.551,1538.055,304.011Z" fill="#312524"/>
            <path id="Path_259" data-name="Path 259" d="M1395.332,452c7.653-40.2,51.907-104.9,90.063-136.742,3.014-2.515,5.412-6.392,7.084-9.262s2.986-5.47,5.639-6.5a24.308,24.308,0,0,1,6.679-1.817q3.477-.316,6.969-.455a17.684,17.684,0,0,1,5.164.334c3.562.929,9.21,10.691,8.161,12.407s-6.086-.446-8.388-1.167c-5.7-1.785-6.659.24-8.855,3.763a5.134,5.134,0,0,0,1.27,5.161c1.287.944,2.643,0,5.606-1.647,2.29-1.273,7.164-6.44,8.707-5.458,1.51.961-.694,4.425-1.064,5.183-1.794,3.677-5.448,8.344-7.462,11.087-2.218,3.02-9.412,5.414-15.733,5.766-.424.281-12.446,13.168-26.464,42.426C1462.9,395.555,1460,429.3,1460,452Z" fill="#cc6626"/>
            <path id="Path_260" data-name="Path 260" d="M1524.335,309.583c-1.847-1.525-3.3-3.258-5.143-4.784a20.97,20.97,0,0,0-4.48-3.209c-1.634-.727-5.148-.687-8.512.068" fill="none" stroke="#382827" stroke-linecap="round" stroke-linejoin="round" stroke-width="1.104"/>
            <path id="Path_261" data-name="Path 261" d="M1514.507,308.118a46,46,0,0,0-8.31-.745,10.269,10.269,0,0,0-5.606,1.574,17.13,17.13,0,0,0-2.972,3.147" fill="none" stroke="#382827" stroke-linecap="round" stroke-linejoin="round" stroke-width="1.104"/>
            <path id="Path_262" data-name="Path 262" d="M1499.172,332.653c-.424.281-12.446,13.168-26.464,42.426-9.811,20.476-11.061,54.216-11.061,76.921h-66.315c7.653-40.2,51.907-104.9,90.063-136.742Z" fill="#d6006c"/>
            <path id="Path_263" data-name="Path 263" d="M1538.355,330.242c-2.567-1.673-11.253-7.86-14.109-13.138s.973-17.231,17.308-.068" fill="none" stroke="#fff" stroke-linecap="round" stroke-miterlimit="10" stroke-width="1.472"/>
            <path id="Path_264" data-name="Path 264" d="M1712.662,452c-7.654-40.2-51.907-104.9-90.064-136.742-3.013-2.515-5.412-6.392-7.083-9.262s-2.986-5.47-5.639-6.5a24.328,24.328,0,0,0-6.679-1.817q-3.478-.316-6.97-.455a17.686,17.686,0,0,0-5.164.334c-3.562.929-9.21,10.691-8.161,12.407s6.086-.446,8.388-1.167c5.7-1.785,6.659.24,8.856,3.763a5.136,5.136,0,0,1-1.27,5.161c-1.287.944-2.643,0-5.607-1.647-2.29-1.273-7.164-6.44-8.707-5.458-1.51.961.695,4.425,1.064,5.183,1.8,3.677,5.449,8.344,7.462,11.087,2.218,3.02,9.412,5.414,15.733,5.766.424.281,12.447,13.168,26.465,42.426,9.81,20.476,12.708,54.216,12.708,76.921Z" fill="#cc6626"/>
            <path id="Path_265" data-name="Path 265" d="M1583.632,309.583c1.847-1.525,3.3-3.258,5.143-4.784a20.989,20.989,0,0,1,4.479-3.209c1.635-.727,5.149-.687,8.513.068" fill="none" stroke="#382827" stroke-linecap="round" stroke-linejoin="round" stroke-width="1.104"/>
            <path id="Path_266" data-name="Path 266" d="M1593.46,308.118a46,46,0,0,1,8.31-.745,10.269,10.269,0,0,1,5.606,1.574,17.131,17.131,0,0,1,2.972,3.147" fill="none" stroke="#382827" stroke-linecap="round" stroke-linejoin="round" stroke-width="1.104"/>
            <path id="Path_267" data-name="Path 267" d="M1608.821,332.653c.424.281,12.447,13.168,26.465,42.426,9.81,20.476,11.061,54.216,11.061,76.921h66.315c-7.654-40.2-51.907-104.9-90.064-136.742Z" fill="#d6006c"/>
            <path id="Path_268" data-name="Path 268" d="M1569.638,330.242c2.567-1.673,11.253-7.86,14.109-13.138s-.973-17.231-17.308-.068" fill="none" stroke="#fff" stroke-linecap="round" stroke-miterlimit="10" stroke-width="1.472"/>
            <path id="Path_269" data-name="Path 269" d="M1464.074,408.006c-1.46,14.359-3.114,35.207-2.427,43.994" fill="none" stroke="#382827" stroke-linecap="round" stroke-linejoin="round" stroke-width="1.104"/>
            <path id="Path_270" data-name="Path 270" d="M1644.777,408.006c1.459,14.359,3.113,35.207,2.427,43.994" fill="none" stroke="#382827" stroke-linecap="round" stroke-linejoin="round" stroke-width="1.104"/>
            <path id="Path_271" data-name="Path 271" d="M1531.767,367.778c3.079,3.351,7.812,5.223,12.6,5.959a61.189,61.189,0,0,0,14.211.466c2.067-.194,7.075-1.39,9.066-2.625" fill="none" stroke="#382827" stroke-linecap="round" stroke-linejoin="round" stroke-width="1.104"/>
          </g>
        </g>
      </g>
      <g id="Group_102" data-name="Group 102">
        <line id="Line_46" data-name="Line 46" x1="4.936" y2="2.121" transform="translate(1243.231 355.198)" fill="none" stroke="#76b4a6" stroke-miterlimit="10" stroke-width="1.446"/>
        <line id="Line_47" data-name="Line 47" x1="5.859" y2="1.663" transform="translate(1228.829 360.613)" fill="none" stroke="#76b4a6" stroke-miterlimit="10" stroke-width="1.446"/>
        <line id="Line_48" data-name="Line 48" x1="3.325" y1="2.673" transform="translate(1241.996 362.726)" fill="none" stroke="#76b4a6" stroke-miterlimit="10" stroke-width="1.446"/>
        <line id="Line_49" data-name="Line 49" x1="0.45" y1="3.95" transform="translate(1238.867 363.869)" fill="none" stroke="#76b4a6" stroke-miterlimit="10" stroke-width="0.964"/>
        <line id="Line_50" data-name="Line 50" y1="4.363" x2="1.653" transform="translate(1234.652 363.996)" fill="none" stroke="#76b4a6" stroke-miterlimit="10" stroke-width="0.964"/>
        <line id="Line_51" data-name="Line 51" y1="5.707" x2="0.932" transform="translate(1238.719 350.387)" fill="none" stroke="#76b4a6" stroke-miterlimit="10" stroke-width="1.446"/>
        <line id="Line_52" data-name="Line 52" x1="4.59" y1="4.488" transform="translate(1231.692 353.719)" fill="none" stroke="#76b4a6" stroke-miterlimit="10" stroke-width="0.964"/>
        <path id="Path_272" data-name="Path 272" d="M1241.088,354.462a5.981,5.981,0,1,0,1.681,8.29A5.981,5.981,0,0,0,1241.088,354.462Z" fill="url(#linear-gradient-7)"/>
        <path id="Path_273" data-name="Path 273" d="M1249.37,353.383a2.178,2.178,0,1,0,.612,3.018A2.178,2.178,0,0,0,1249.37,353.383Z" fill="#76b4a6"/>
        <path id="Path_274" data-name="Path 274" d="M1229.585,361.134a1.369,1.369,0,1,0,.385,1.9A1.371,1.371,0,0,0,1229.585,361.134Z" fill="#76b4a6"/>
        <path id="Path_275" data-name="Path 275" d="M1246.077,364.258a1.369,1.369,0,1,0,.385,1.9A1.368,1.368,0,0,0,1246.077,364.258Z" fill="#76b4a6"/>
        <path id="Path_276" data-name="Path 276" d="M1240.719,349.442a1.426,1.426,0,1,0-.122,2.012A1.426,1.426,0,0,0,1240.719,349.442Z" fill="#76b4a6"/>
        <path id="Path_277" data-name="Path 277" d="M1235.1,367.678a1.033,1.033,0,1,0,.29,1.432A1.032,1.032,0,0,0,1235.1,367.678Z" fill="#76b4a6"/>
        <path id="Path_278" data-name="Path 278" d="M1239.78,367.12a.838.838,0,1,0,.236,1.161A.837.837,0,0,0,1239.78,367.12Z" fill="#76b4a6"/>
        <path id="Path_279" data-name="Path 279" d="M1232.145,352.549a1.06,1.06,0,1,0,.3,1.47A1.06,1.06,0,0,0,1232.145,352.549Z" fill="#76b4a6"/>
      </g>
    </g>
  </g>
</svg>
