<svg xmlns="http://www.w3.org/2000/svg" xmlns:xlink="http://www.w3.org/1999/xlink" width="187.412" height="39.675" viewBox="0 0 187.412 39.675">
  <defs>
    <radialGradient id="radial-gradient" cx="0.5" cy="0.5" r="0.469" gradientTransform="translate(0.344 0.012) scale(1.19 0.975)" gradientUnits="objectBoundingBox">
      <stop offset="0" stop-color="#ce245f"/>
      <stop offset="0.664" stop-color="#d44276"/>
      <stop offset="1" stop-color="#d85384"/>
    </radialGradient>
    <radialGradient id="radial-gradient-2" cx="0.5" cy="0.5" r="0.469" gradientTransform="translate(0.348 0.012) scale(1.19 0.975)" xlink:href="#radial-gradient"/>
    <radialGradient id="radial-gradient-3" cx="0.5" cy="0.5" r="0.459" gradientTransform="translate(0.506 0.012) scale(1.255 0.975)" xlink:href="#radial-gradient"/>
    <radialGradient id="radial-gradient-4" cx="0.5" cy="0.5" r="0.48" gradientTransform="translate(0.305 0.012) scale(1.121 0.975)" xlink:href="#radial-gradient"/>
    <radialGradient id="radial-gradient-5" cx="0.5" cy="0.5" r="0.477" gradientTransform="translate(0.361 0.012) scale(1.143 0.975)" xlink:href="#radial-gradient"/>
    <radialGradient id="radial-gradient-6" cx="0.5" cy="0.5" r="0.428" gradientTransform="translate(1.445 0.012) scale(1.554 0.975)" xlink:href="#radial-gradient"/>
    <radialGradient id="radial-gradient-7" cx="0.5" cy="0.5" r="0.5" gradientTransform="translate(0.081 0.012) scale(1.028 0.975)" xlink:href="#radial-gradient"/>
    <radialGradient id="radial-gradient-8" cx="0.5" cy="0.5" r="0.515" gradientTransform="translate(-0.101 0.012) scale(0.965 0.975)" xlink:href="#radial-gradient"/>
    <radialGradient id="radial-gradient-9" cx="0.5" cy="0.5" r="0.503" gradientTransform="translate(0.044 0.012) scale(1.014 0.975)" xlink:href="#radial-gradient"/>
    <radialGradient id="radial-gradient-10" cx="0.5" cy="0.5" r="0.509" gradientTransform="translate(-0.026 0.012) scale(0.991 0.975)" xlink:href="#radial-gradient"/>
    <radialGradient id="radial-gradient-11" cx="0.5" cy="0.5" r="0.468" gradientTransform="translate(1.651 0.012) scale(1.196 0.975)" xlink:href="#radial-gradient"/>
    <radialGradient id="radial-gradient-12" cx="0.5" cy="0.5" r="0.634" gradientTransform="translate(-2.005 0.012) scale(0.68 0.975)" xlink:href="#radial-gradient"/>
    <radialGradient id="radial-gradient-13" cx="0.5" cy="0.5" r="0.488" gradientTransform="translate(0.842 0.012) scale(1.084 0.975)" xlink:href="#radial-gradient"/>
    <radialGradient id="radial-gradient-14" cx="0.5" cy="0.5" r="0.43" gradientTransform="translate(7.947 0.012) scale(1.535 0.975)" xlink:href="#radial-gradient"/>
    <radialGradient id="radial-gradient-15" cx="0.5" cy="0.5" r="0.408" gradientTransform="translate(13.116 0.012) scale(1.891 0.975)" xlink:href="#radial-gradient"/>
    <radialGradient id="radial-gradient-16" cx="0.5" cy="0.5" r="0.47" gradientTransform="translate(1.591 0.012) scale(1.182 0.975)" xlink:href="#radial-gradient"/>
    <radialGradient id="radial-gradient-17" cx="0.5" cy="0.5" r="0.488" gradientTransform="translate(0.851 0.012) scale(1.084 0.975)" xlink:href="#radial-gradient"/>
    <radialGradient id="radial-gradient-18" cx="0.5" cy="0.5" r="0.374" gradientTransform="translate(77.598 0.012) scale(3.787 0.975)" xlink:href="#radial-gradient"/>
    <radialGradient id="radial-gradient-19" cx="0.5" cy="0.5" r="0.408" gradientTransform="translate(13.242 0.012) scale(1.891 0.975)" xlink:href="#radial-gradient"/>
    <radialGradient id="radial-gradient-20" cx="0.5" cy="0.5" r="0.491" gradientTransform="translate(0.711 0.012) scale(1.069 0.975)" xlink:href="#radial-gradient"/>
    <radialGradient id="radial-gradient-21" cx="0.5" cy="0.5" r="0.493" gradientTransform="translate(0.608 0.012) scale(1.059 0.975)" xlink:href="#radial-gradient"/>
    <radialGradient id="radial-gradient-22" cx="0.5" cy="0.5" r="0.444" gradientTransform="translate(3.64 0.012) scale(1.376 0.975)" xlink:href="#radial-gradient"/>
    <clipPath id="clip-path">
      <rect id="Rectangle_3" data-name="Rectangle 3" width="40.678" height="39.675" transform="translate(242.579 606.143)" fill="none"/>
    </clipPath>
    <clipPath id="clip-path-2">
      <path id="Path_23" data-name="Path 23" d="M248.2,606.143a5.713,5.713,0,0,0-5.623,5.643v28.392a5.711,5.711,0,0,0,5.623,5.64h29.432a5.711,5.711,0,0,0,5.623-5.64V611.786a5.713,5.713,0,0,0-5.623-5.643Z" fill="none"/>
    </clipPath>
    <radialGradient id="radial-gradient-23" cx="0.345" cy="0.5" r="0.989" gradientTransform="matrix(-0.001, 1, 1, 0.001, -22.887, 22.871)" xlink:href="#radial-gradient"/>
  </defs>
  <g id="Group_12" data-name="Group 12" transform="translate(-242.579 -606.143)">
    <g id="Group_4" data-name="Group 4">
      <g id="Group_1" data-name="Group 1">
        <path id="Path_1" data-name="Path 1" d="M304.07,616.532v2.408h-5.776v14.782h-2.888V618.94H289.63v-2.408Z" fill="url(#radial-gradient)"/>
        <path id="Path_2" data-name="Path 2" d="M319.25,616.532v2.408h-5.776v14.782h-2.888V618.94H304.81v-2.408Z" fill="url(#radial-gradient-2)"/>
        <path id="Path_3" data-name="Path 3" d="M328.654,616.532c4.246,0,6.393,1.758,6.393,5.273,0,3.539-2.147,5.32-6.442,5.32h-4.369v6.6h-2.888v-17.19Zm-4.418,8.186h4.2a4.8,4.8,0,0,0,2.814-.674,2.653,2.653,0,0,0,.889-2.239,2.533,2.533,0,0,0-.914-2.191,4.586,4.586,0,0,0-2.789-.674h-4.2Z" fill="url(#radial-gradient-3)"/>
        <path id="Path_4" data-name="Path 4" d="M340.082,621.275v7.584a3.153,3.153,0,0,0,.642,2.215,2.831,2.831,0,0,0,2.123.7,2.669,2.669,0,0,0,1.777-.77,4.445,4.445,0,0,0,1.235-2.119v-7.608h2.813v12.447h-2.813v-1.613a5.025,5.025,0,0,1-4,1.95c-3.06,0-4.591-1.685-4.591-5.032v-7.752Z" fill="url(#radial-gradient-4)"/>
        <path id="Path_5" data-name="Path 5" d="M361.952,624.886h-2.74a2.292,2.292,0,0,0-.889-1.324,3.689,3.689,0,0,0-1.925-.385,3.444,3.444,0,0,0-1.679.313,1.053,1.053,0,0,0-.641,1.035c0,.385.32.747,1.012,1.035a22.369,22.369,0,0,0,2.542.723,10.436,10.436,0,0,1,3.209,1.179,2.964,2.964,0,0,1,1.531,2.625c0,2.648-1.926,3.972-5.752,3.972-3.555,0-5.455-1.468-5.727-4.382h2.74a2.711,2.711,0,0,0,.864,1.686,3.618,3.618,0,0,0,2.024.457c1.975,0,2.963-.53,2.963-1.541q0-.867-1.111-1.372a14.753,14.753,0,0,0-2.518-.7,11.01,11.01,0,0,1-3.184-1.084,2.815,2.815,0,0,1-1.481-2.528,2.964,2.964,0,0,1,1.456-2.672,6.477,6.477,0,0,1,3.8-.987C359.8,620.938,361.656,622.238,361.952,624.886Z" fill="url(#radial-gradient-5)"/>
        <path id="Path_6" data-name="Path 6" d="M367.406,616.2v6.741a4.423,4.423,0,0,1,1.753-1.541,4.684,4.684,0,0,1,2.148-.457,4.331,4.331,0,0,1,3.48,1.324,5.674,5.674,0,0,1,1.086,3.756v7.7h-2.814V626.5a3.989,3.989,0,0,0-.642-2.431,2.627,2.627,0,0,0-2.172-.891,2.42,2.42,0,0,0-2.073,1.011,4.071,4.071,0,0,0-.766,2.576v6.958h-2.813V616.2Z" fill="url(#radial-gradient-6)"/>
      </g>
      <g id="Group_2" data-name="Group 2">
        <path id="Path_7" data-name="Path 7" d="M384.306,619.921v-1.083h.514l-.572-.7a5.865,5.865,0,0,0,1.413-1.948l1.1.239c-.081.2-.163.41-.257.593h3.143v1.036H388c-.024.274-.047.525-.082.775h2.056v1.083h-2.3l-.035.1a15.651,15.651,0,0,1,2.185,1.288l-.689.672h4.485v4.91h-1.238v-.421h-5.4v.421h-1.226v-4.637c-.281.16-.573.319-.876.467l-.818-.968a4.478,4.478,0,0,0,2.336-1.834Zm.923-1.083h1.519c.046-.25.081-.5.105-.775h-.946A5.642,5.642,0,0,1,385.229,618.838Zm3.528,3.145a11.4,11.4,0,0,0-1.519-1.083,4.7,4.7,0,0,1-1.075,1.083Zm3.621,1.754v-.706h-5.4v.706Zm0,1.687v-.661h-5.4v.661Zm2.091-8.363v4.363h-4.182v-4.363Zm-1.191,1.048h-1.8v2.279h1.8Z" fill="url(#radial-gradient-7)"/>
        <path id="Path_8" data-name="Path 8" d="M397.95,624.592a6.893,6.893,0,0,1-.981,2.1L396,626.1a5.334,5.334,0,0,0,.9-1.732Zm3.539-.592a11.82,11.82,0,0,1,1,.922l-.829.57a12.576,12.576,0,0,0-1.192-1.151l.561-.341h-3.878v-.866h6.74v-.388h-7.745v-.832H403.9v-.4h-6.682v-.878h1.051v-.444H396.3v-.82h1.962v-.422h-1.518v-.809h1.518v-.421h-1.74V616.9h1.74v-.524h1.192v.524h1.553v.821h-1.553v.421h1.367v.809h-1.367v.422H401v.82h-1.542v.444h3.574v-.444h-1.693v-.82h1.693v-.422H401.6v-.809h1.436v-.421H401.4V616.9h1.635v-.524h1.192v.524h1.729v.821h-1.729v.421H405.7v.809h-1.472v.422h1.892v.82h-1.892v.444h.841v1.276h1.343v.832h-1.343V624Zm-1.787,2.654q-1.191,0-1.191-1.059V624.33h1.179v1.014c0,.194.106.3.328.3h2.6a.534.534,0,0,0,.385-.125,1.65,1.65,0,0,0,.21-.889l1.11.342c-.093.82-.257,1.31-.479,1.47a1.989,1.989,0,0,1-1,.216Zm6.986-.74-.888.6a15.132,15.132,0,0,0-1.46-1.845l.864-.524A13.643,13.643,0,0,1,406.688,625.914Z" fill="url(#radial-gradient-8)"/>
        <path id="Path_9" data-name="Path 9" d="M417.948,622.826h-.934v.308h-1.122a11,11,0,0,1,.912.854l-.841.57c-.141-.16-.292-.319-.444-.479-.666.023-1.344.057-2.021.08v.433H417v.82h-3.5v.365h4.544v.9H407.891v-.9h4.485v-.365h-3.563v-.82h3.563v-.4c-1,.023-2.009.046-3.037.057l-.2-.683a2.072,2.072,0,0,0,1.062-.433h-1.354v-.342h-1.017v-1.55h10.116Zm-5.665-6.073v-.433H413.5v.433h4.228v.866H413.5v.353h3.679v.843h-8.632v-.843h3.738v-.353h-4.252v-.866Zm4.5,5.594v-.319H409v.319Zm-.081-3.213v1.812h-7.582v-1.812Zm-1.122.752h-5.35v.319h5.35Zm-4.112,3.248c-.187.159-.35.3-.514.421,1.343-.023,2.64-.068,3.878-.125l-.35-.3Z" fill="url(#radial-gradient-9)"/>
        <path id="Path_10" data-name="Path 10" d="M423.976,617.186v-.911h1.191v.911H429.7V618.3h-4.533v.706h3.7v4.5h-2.628a9.026,9.026,0,0,0,3.715,1.925l-.549,1.1a9.023,9.023,0,0,1-4.241-3.03v3.406h-1.191v-3.4a8.818,8.818,0,0,1-4.077,3.065l-.678-1.071a9.845,9.845,0,0,0,3.7-2.005h-2.675v-4.5h3.727V618.3h-4.533v-1.117Zm0,2.849h-2.547v.774h2.547Zm-2.547,2.449h2.547v-.763h-2.547Zm6.261-2.449h-2.523v.774h2.523Zm-2.523,2.449h2.523v-.763h-2.523Z" fill="url(#radial-gradient-10)"/>
      </g>
      <g id="Group_3" data-name="Group 3">
        <path id="Path_11" data-name="Path 11" d="M386.221,633.027a.681.681,0,0,0,.777.569c.4,0,.584-.143.584-.409,0-.3-.2-.417-.912-.59-1.33-.328-1.6-.823-1.6-1.442,0-.771.556-1.416,1.81-1.416,1.3,0,1.837.674,1.9,1.4h-1.276c-.034-.247-.158-.5-.627-.5-.3,0-.488.117-.488.365s.165.346.86.52c1.389.353,1.665.863,1.665,1.516,0,.863-.653,1.463-1.976,1.463-1.247,0-1.907-.593-2.007-1.477Z" fill="url(#radial-gradient-11)"/>
        <path id="Path_12" data-name="Path 12" d="M389.479,631.879c0-.322,0-.66-.007-.958H390.7c.013.081.032.249.039.373a1.145,1.145,0,0,1,.966-.457.905.905,0,0,1,.875.481,1.251,1.251,0,0,1,1.052-.481c.639,0,1.112.41,1.112,1.307v2.274h-1.248v-2.162c0-.258-.084-.47-.357-.47s-.393.189-.393.59v2.042h-1.254v-2.15c0-.263-.065-.478-.351-.478s-.4.163-.4.617v2.011h-1.258Z" fill="url(#radial-gradient-12)"/>
        <path id="Path_13" data-name="Path 13" d="M398.611,633.381c0,.394.019.92.041,1.037h-1.177a1.425,1.425,0,0,1-.053-.323,1.239,1.239,0,0,1-2.153-.707c0-.822.646-1.177,1.694-1.177h.421v-.194c0-.224-.078-.388-.386-.388-.289,0-.364.135-.395.361h-1.177c.045-.584.385-1.158,1.6-1.153,1.125,0,1.581.446,1.581,1.289Zm-1.227-.515H397.1c-.439,0-.584.157-.584.415a.345.345,0,0,0,.374.371c.432,0,.493-.3.493-.678Z" fill="url(#radial-gradient-13)"/>
        <path id="Path_14" data-name="Path 14" d="M399.346,631.925c0-.334,0-.692-.009-1h1.247c.016.109.031.415.031.569a1.066,1.066,0,0,1,1.055-.653v1.188c-.722-.031-1.048.137-1.048.957v1.436h-1.276Z" fill="url(#radial-gradient-14)"/>
        <path id="Path_15" data-name="Path 15" d="M402.026,630.921h.494v-.906h1.262v.906h.6v.877h-.6v1.5c0,.216.067.3.335.3.049,0,.111,0,.178-.006v.8a2.784,2.784,0,0,1-.743.08c-.811,0-1.039-.4-1.039-1.064V631.8h-.487Z" fill="url(#radial-gradient-15)"/>
        <path id="Path_16" data-name="Path 16" d="M407.369,630.822h-1.288v-1h3.888v1h-1.277v3.6h-1.323Z" fill="url(#radial-gradient-16)"/>
        <path id="Path_17" data-name="Path 17" d="M413.1,633.381c0,.394.019.92.041,1.037h-1.177a1.485,1.485,0,0,1-.053-.323,1.239,1.239,0,0,1-2.153-.707c0-.822.646-1.177,1.694-1.177h.421v-.194c0-.224-.078-.388-.386-.388-.289,0-.364.135-.395.361h-1.177c.045-.584.385-1.158,1.6-1.153,1.124,0,1.58.446,1.58,1.289Zm-1.227-.515h-.283c-.439,0-.584.157-.584.415a.345.345,0,0,0,.374.371c.432,0,.493-.3.493-.678Z" fill="url(#radial-gradient-17)"/>
        <path id="Path_18" data-name="Path 18" d="M413.839,629.586h1.276v.906h-1.276Zm0,1.335h1.276v3.5h-1.276Z" fill="url(#radial-gradient-18)"/>
        <path id="Path_19" data-name="Path 19" d="M415.59,630.921h.494v-.906h1.262v.906h.6v.877h-.6v1.5c0,.216.067.3.335.3.048,0,.111,0,.178-.006v.8a2.784,2.784,0,0,1-.743.08c-.811,0-1.039-.4-1.039-1.064V631.8h-.487Z" fill="url(#radial-gradient-19)"/>
        <path id="Path_20" data-name="Path 20" d="M421.745,633.3c0,.31,0,.784.006,1.117H420.5c-.016-.084-.022-.275-.027-.369a1.018,1.018,0,0,1-.948.456c-.736,0-1.127-.455-1.127-1.284v-2.3h1.274v2.084c0,.317.088.54.376.54s.421-.171.421-.689v-1.935h1.276Z" fill="url(#radial-gradient-20)"/>
        <path id="Path_21" data-name="Path 21" d="M422.474,631.828c0-.3,0-.63-.009-.907h1.246a3.751,3.751,0,0,1,.039.386,1.1,1.1,0,0,1,.975-.47c.687,0,1.121.473,1.121,1.328v2.253h-1.273v-2.1c0-.336-.1-.526-.389-.526-.267,0-.434.143-.434.634v1.994h-1.276Z" fill="url(#radial-gradient-21)"/>
        <path id="Path_22" data-name="Path 22" d="M429.982,633.9c0,1.145-.4,1.87-1.843,1.87-1.379,0-1.619-.755-1.657-1.145h1.261a.394.394,0,0,0,.446.311c.441,0,.532-.269.532-.841v-.184a.989.989,0,0,1-.922.439c-.9,0-1.391-.751-1.391-1.674,0-1.091.614-1.835,1.474-1.835.546,0,.786.247.839.408.007-.087.028-.263.037-.324h1.233c-.007.266-.009.6-.009,1Zm-2.267-1.288c0,.528.194.834.521.834.426,0,.525-.327.525-.844,0-.547-.056-.866-.506-.866C427.955,631.732,427.715,631.973,427.715,632.608Z" fill="url(#radial-gradient-22)"/>
      </g>
    </g>
    <g id="Group_11" data-name="Group 11">
      <g id="向量圖智慧型物件">
        <g id="Group_10" data-name="Group 10">
          <g id="Group_9" data-name="Group 9" clip-path="url(#clip-path)">
            <g id="Group_6" data-name="Group 6">
              <g id="Group_5" data-name="Group 5" clip-path="url(#clip-path-2)">
                <rect id="Rectangle_1" data-name="Rectangle 1" width="40.198" height="41.214" transform="translate(242.053 645.811) rotate(-89.258)" fill="url(#radial-gradient-23)"/>
              </g>
            </g>
            <g id="Group_8" data-name="Group 8">
              <g id="Group_7" data-name="Group 7" clip-path="url(#clip-path)">
                <path id="Path_24" data-name="Path 24" d="M252.226,616.5l1.483,4.391-3.35,1.291,1.339,4.129,3.353-1.121,4.121,11.866a4.892,4.892,0,0,0,2.777,2.85,5.775,5.775,0,0,0,3.4.559,26.106,26.106,0,0,0,5.747-2.194c1.628-.982,4.984-3.224,4.984-3.224l-1.966-3.831-4.182,2.261s-1.75.653-2.658.047a3.379,3.379,0,0,1-1.207-1.794l-3.3-9.11,7.282-2.429L268.7,615.8l-7.291,2.449-2.384-6.812Z" fill="#fcfefe"/>
                <path id="Path_25" data-name="Path 25" d="M272.8,623.8l1.425,5.952,2.711-4.663Z" fill="#fcfefe"/>
                <path id="Path_26" data-name="Path 26" d="M275.377,630.975l4.372-4.2,1.05,4.2Z" fill="#fcfefe"/>
                <path id="Path_27" data-name="Path 27" d="M252.919,619.865c-.188-.363-.424-.232-.847-.447a7.357,7.357,0,0,1-1.491-1.042,11.612,11.612,0,0,0-1.307-1.187,1.847,1.847,0,0,0-1.255-.4,1.539,1.539,0,0,0-1.068.727c-.2.247-.54,1.143-.9,1.539a5.268,5.268,0,0,1-1.017.808,7.771,7.771,0,0,0,.459,2.266,2.236,2.236,0,0,0,1.252,1.42,3.289,3.289,0,0,0,2.136.4,2.138,2.138,0,0,0,1.169-.841c.266-.413.634-.146,1.053-.813.372-.594,1.171-1.17,1.339-1.537.2-.445.57-.7.474-.893" fill="#c01"/>
                <path id="Path_28" data-name="Path 28" d="M253.308,621.636a2.491,2.491,0,0,0-1.253.2,2.808,2.808,0,0,0-.984.759,4.065,4.065,0,0,0-.713,1.091,3.53,3.53,0,0,1-.3.844c-.221.331-.272.645-.492.744s-.168.364-.117.5.233.255.728.2a3.7,3.7,0,0,0,1.3-.235,5,5,0,0,0,1.613-.977,3.284,3.284,0,0,0,.677-1.256c.078-.3-.079-.886.04-.97s.069-.168.043-.237-.235-.216-.286-.332-.036-.282-.256-.329" fill="#349029"/>
                <path id="Path_29" data-name="Path 29" d="M254.452,621.535a.538.538,0,0,0-.373.559c0,.269.071,1.682.119,1.793s.543.678.771.67.17-.123.259-.121a.47.47,0,0,0,.492-.257c.18-.292.058-.557.152-.594s.109-.413.028-.593.053-.332-.256-.651c-.185-.188-.669-.878-1.192-.806" fill="#e77e00"/>
                <path id="Path_30" data-name="Path 30" d="M255.512,620.9c.1-.255.847-.522.933-.527a.3.3,0,0,0,.231-.062c.1-.079.107-.087.373-.087a3.15,3.15,0,0,1,1.05.235c.2.094.406-.042.566.065a8.508,8.508,0,0,1,1.285,1.157c.272.421,1.251,1.024,1.284,1.18s-.043.579-.6.745a5.881,5.881,0,0,1-2.457-.062,8.827,8.827,0,0,1-1.915-.863c-.18-.228-.3-.78-.474-.817-.094-.022-.292-.022-.3-.1s.061-.215.051-.314a1.1,1.1,0,0,1-.018-.551" fill="#6e0a69"/>
                <path id="Path_31" data-name="Path 31" d="M260.45,614.911c-.305-.307-.52-.121-.713-.143s-1.027-.315-1.253-.315-2.328-.108-2.43-.054-.847.245-.925.542-.036,1.345-.18,1.917-.7,2.053-.731,2.125c-.04.1-.205.183-.205.309a1.354,1.354,0,0,0,.842.529c.408.045.33.022.431.057a.816.816,0,0,0,.383.087,2.877,2.877,0,0,1,.487-.045c.17.022.434.1.593.126a6.349,6.349,0,0,0,1.689.013c.345-.065.713.091,1.007,0s1.557-.752,1.694-1.632a4.011,4.011,0,0,0-.055-2.029,3.573,3.573,0,0,0-.634-1.484" fill="#facf06"/>
                <path id="Path_32" data-name="Path 32" d="M252.774,621.155a.84.84,0,0,1,0-.759c.127-.141.4-.24.525-.373s.358-.5.715-.416a1.888,1.888,0,0,1,1,.717c.135.265.274.569.183.658s-.442-.007-.629.05-.1.274-.556.3-.393-.082-.578-.082-.51.171-.662-.092" fill="#c40064"/>
                <path id="Path_33" data-name="Path 33" d="M251.025,611.9c-.306.052-.5.512-.578.67a4.061,4.061,0,0,1-.423.544,6.06,6.06,0,0,0-.059,1.5c.066.131.246.22.236.418s-.124.44-.134.6a3.4,3.4,0,0,0,.147,1.078,6.113,6.113,0,0,0,1.017,1.455c.36.376,1.549,1.556,2.014,1.355.149-.066.086-.2.177-.232a2.153,2.153,0,0,0,.746-.735c.068-.158-.076-.269-.01-.47.045-.148.116-.069.167-.227.038-.119-.023-.176,0-.3s.152-.124.175-.374a7.327,7.327,0,0,0-.1-1.578c-.1-.428-.269-1.234-.315-1.519a3.323,3.323,0,0,0-.938-1.355c-.226-.213-.317-.584-.655-.727a3.663,3.663,0,0,0-1.471-.1" fill="#00317c"/>
              </g>
            </g>
          </g>
        </g>
      </g>
    </g>
  </g>
</svg>
