<svg id="logo" xmlns="http://www.w3.org/2000/svg" xmlns:xlink="http://www.w3.org/1999/xlink" width="374.759" height="30" viewBox="0 0 374.759 30">
  <defs>
    <clipPath id="clip-path">
      <path id="Clip_13" data-name="Clip 13" d="M0,0H39.811V27.545H0Z" transform="translate(0 0.035)" fill="none"/>
    </clipPath>
    <clipPath id="clip-path-2">
      <path id="Clip_20" data-name="Clip 20" d="M0,30H374.759V0H0Z" fill="none"/>
    </clipPath>
  </defs>
  <path id="Fill_2" data-name="Fill 2" d="M34.045,27.54H16.617A17.848,17.848,0,0,1,4.735,23.565,12.076,12.076,0,0,1,0,13.794,12.524,12.524,0,0,1,4.652,3.735C7.751,1.258,11.764,0,16.617,0H34.05l-.005,7.138H16.617a9.052,9.052,0,0,0-5.8,1.871,6.045,6.045,0,0,0-2.3,4.848,5.777,5.777,0,0,0,2.3,4.745,9.028,9.028,0,0,0,5.8,1.838H34.05Z" transform="translate(54.498 0.041)" fill="#fefefe"/>
  <path id="Fill_4" data-name="Fill 4" d="M24.949,27.54V17.268H8.555V27.54H0V0H8.555V10.171H24.949V0h8.514V27.54Z" transform="translate(92.263 0.041)" fill="#fefefe"/>
  <path id="Fill_6" data-name="Fill 6" d="M32.716,7.137h-12v20.4H12.16V7.137H0L.006,0h32.71Z" transform="translate(129.315 0.041)" fill="#fefefe"/>
  <path id="Fill_8" data-name="Fill 8" d="M41.61,27.695,24.4,13.64,39.945,0H28.453L8.556,17.453V.041H0V27.58H8.556V27.5l9.91-8.681,10.72,8.873Z" transform="translate(199.043 0)" fill="#fefefe"/>
  <path id="Fill_10" data-name="Fill 10" d="M41.61,27.695,24.4,13.64,39.945,0H28.453L8.556,17.453V.041H0V27.58H8.556V27.5l9.91-8.681,10.72,8.873Z" transform="translate(199.043 0)" fill="#fefefe"/>
  <g id="Group_14" data-name="Group 14">
    <path id="Clip_13-2" data-name="Clip 13" d="M0,0H39.811V27.545H0Z" transform="translate(0 0.035)" fill="none"/>
    <g id="Group_14-2" data-name="Group 14" clip-path="url(#clip-path)">
      <path id="Fill_12" data-name="Fill 12" d="M8.583,27.546H.025v-.027H0V0L21.7.006c4.382,0,7.806.8,10.468,2.441a8.79,8.79,0,0,1,4.508,7.947,8.362,8.362,0,0,1-1.791,5.233,11.967,11.967,0,0,1-5.106,3.66l10.029,8.257-12.334,0-8.406-6.92H8.583v6.92Zm-.116-20.4h0v6.344H22.508a8.805,8.805,0,0,0,3.585-.654,2.676,2.676,0,0,0,1.8-2.475c0-2.133-1.811-3.215-5.382-3.215H8.467Z" transform="translate(0 0.035)" fill="#fefefe"/>
    </g>
  </g>
  <path id="Fill_15" data-name="Fill 15" d="M29.91,27.54H0V0H29.433l.006,6.47H8.55v4.443H27.405L27.4,16.588H8.55v4.484H29.905Z" transform="translate(165.501 0.041)" fill="#fefefe"/>
  <path id="Fill_17" data-name="Fill 17" d="M25.358,23.813H0V21.388H13.865c.807-1.932,1.474-3.7,1.984-5.263a80.644,80.644,0,0,0,2.26-8.077l2.563,1.021c.365.11.551.248.551.412s-.225.366-.688.662c-1.007,3.4-2.361,7.186-4.023,11.245h8.847v2.424ZM8.186,19.624h0a69.837,69.837,0,0,0-3-10.03l2.48-.551a50.469,50.469,0,0,1,3.031,10.085l-2.506.5ZM24.144,7.111H1.434V4.8H11.466V0l2.508.22c.457.02.688.15.688.386,0,.147-.185.37-.551.662V4.8H24.144V7.11Z" transform="translate(255.823 4.092)" fill="#fefefe"/>
  <path id="Clip_20-2" data-name="Clip 20" d="M0,30H374.759V0H0Z" fill="none"/>
  <g id="Mask_Group_5" data-name="Mask Group 5" clip-path="url(#clip-path-2)">
    <path id="Fill_19" data-name="Fill 19" d="M19.46,25.8h0l-.937-2.369h2.59c.878,0,1.36-.25,1.434-.744V13.395h-10.2V11.3h14v2.094H24.86v9.756a2.165,2.165,0,0,1-1.047,1.985C23.265,25.574,21.8,25.8,19.46,25.8ZM1.873,25.632c-.182,0-.284-.121-.3-.358L.992,22.9c1.483-.106,3.022-.236,4.576-.386V14.883H1.433v-2.2H5.567V9.867H2.315V8.213L2.092,8.4c-.128.1-.256.209-.382.314L0,7A31.855,31.855,0,0,0,3.749,3.748,23.939,23.939,0,0,0,6.615,0l2.1.992c.22.092.331.2.331.331,0,.255-.214.44-.635.551a21.187,21.187,0,0,0,4.6,3.914L11.08,7.5A30.4,30.4,0,0,1,7.057,3.554a27.751,27.751,0,0,1-1.93,2.178c-.66.658-1.42,1.344-2.262,2.04h7.94V9.867H7.883v2.812h3.693v2.2H7.883v7.385c1.427-.167,2.818-.362,4.133-.579v1.985c-2.059.392-5.3.9-9.646,1.517C2.205,25.484,2.038,25.632,1.873,25.632ZM15.71,22.49h-2.1V14.5h6.836v7.055H15.71v.937Zm0-6.119v3.308h2.647V16.371ZM2.37,21.387h0A22.976,22.976,0,0,0,1.186,16.95l2.4-.414c.353,1.343.668,2.771.937,4.245l-2.149.605Zm8.3-.551h0L8.82,20.258c.2-.627.369-1.192.495-1.682.19-.8.343-1.541.469-2.26l2.04.772c.275.073.415.184.415.329,0,.111-.181.282-.553.526-.254.853-.6,1.826-1.018,2.892Zm3.5-10.252h0L12.678,8.627a6.765,6.765,0,0,0,3.529-1.6,5.393,5.393,0,0,0,1.488-2.343H13.01V2.591h5.125A19.111,19.111,0,0,0,18.3.11l2.12.248c.311.018.469.092.469.221a1.159,1.159,0,0,1-.386.688c-.048.422-.1.843-.166,1.324H25.8V4.685H21.361a11.7,11.7,0,0,0,1.626,1.957A12.427,12.427,0,0,0,26.35,8.681l-2.068,1.9a11.8,11.8,0,0,1-2.922-2.591,13.852,13.852,0,0,1-1.654-2.536,5.637,5.637,0,0,1-.221.608,7.576,7.576,0,0,1-1.765,2.674,8.464,8.464,0,0,1-3.554,1.847Z" transform="translate(285.988 3.74)" fill="#fefefe"/>
    <path id="Fill_21" data-name="Fill 21" d="M22.765,25.356H20.23V18.329L13.919,20.12c-.276.547-.526.825-.745.825-.165,0-.3-.157-.414-.468L11.8,18c2.827-.585,5.665-1.28,8.433-2.068V0l2.4.219c.446.021.663.138.663.359,0,.147-.172.355-.525.635V15.186c.979-.283,1.963-.589,2.923-.909V16.73l-2.923.854v7.771Zm-14.938,0H5.4V14.415c-.258.755-.5,1.394-.716,1.9A24.643,24.643,0,0,1,2.2,20.726L0,18.742A21.184,21.184,0,0,0,2.893,14.69,24.908,24.908,0,0,0,4.6,10.528H.551V8.213H5.4V3.968c-.965.223-1.939.408-2.893.551L.771,2.176a24.033,24.033,0,0,0,4.74-.689A25.456,25.456,0,0,0,9.867,0L11.74,1.846a.6.6,0,0,1,.166.442c0,.11-.13.166-.385.166l-.69-.139a1.95,1.95,0,0,0-.715.166c-.752.312-1.522.59-2.289.826V8.213h4.411v2.315H8.572A17.058,17.058,0,0,0,12.237,15.3l-1.985,2.121a24.288,24.288,0,0,1-2.426-3.942V25.355Zm8.544-10.94h0a20.919,20.919,0,0,0-3.691-3.253L14.36,9.591a22.724,22.724,0,0,1,3.83,3.2l-1.82,1.627ZM17.032,7.5h0a23.168,23.168,0,0,0-3.912-3.169L14.8,2.756a23.6,23.6,0,0,1,4.05,3.087L17.032,7.5Z" transform="translate(317.608 4.093)" fill="#fefefe"/>
    <path id="Fill_22" data-name="Fill 22" d="M24.2,26.349h0a32.54,32.54,0,0,1-5.373-3.583,21.246,21.246,0,0,1-6.973,3.472l-1.71-2.259a24.781,24.781,0,0,0,4.576-1.461,14.114,14.114,0,0,0,2.317-1.433c-.33-.367-.609-.7-.855-1.021a15.121,15.121,0,0,1-2.924-6.835h-1.24V11.024h4.8V6.45H11.466V4.135h5.346V0l2.4.221c.439.018.661.138.661.358,0,.146-.176.359-.523.633V4.135h5.787V6.45H19.35v4.574h3.225a2.292,2.292,0,0,1,.577-.357.736.736,0,0,1,.552.275l1.322,1.241a.687.687,0,0,1,.222.5c0,.182-.251.414-.746.689a23.935,23.935,0,0,1-3.8,7.579,34.7,34.7,0,0,0,5.539,3.226L24.2,26.349ZM15.6,13.23A11.874,11.874,0,0,0,18.3,18.8a6.847,6.847,0,0,0,.524.523c.057-.072.11-.141.156-.2l.036-.047a19.531,19.531,0,0,0,2.7-5.843ZM2.7,26.129h0l-1.046-2.59h2.1c.712,0,1.1-.445,1.157-1.323V16.868L2.123,18.136c-.28.556-.524.827-.745.827-.166,0-.3-.158-.412-.469L0,15.986c1.641-.5,3.291-1.063,4.907-1.681V7.276H.662V4.851H4.907V0L7.663.332c.312.036.47.166.47.385,0,.2-.232.441-.689.716V4.851h3.251V7.276H7.443v5.982c1.184-.5,2.389-1.049,3.582-1.626v2.452L7.443,15.71v7.029a3.313,3.313,0,0,1-.91,2.562C6.041,25.85,4.752,26.129,2.7,26.129Z" transform="translate(348.52 3.651)" fill="#fefefe"/>
    <path id="Fill_1" data-name="Fill 1" d="M0,27.54H8.517V0H0Z" transform="translate(42.467 0.041)" fill="#fefefe"/>
  </g>
</svg>
