<svg xmlns="http://www.w3.org/2000/svg" width="10.124" height="11.571" viewBox="0 0 10.124 11.571">
  <path id="bell-regular" d="M5.084,0a.722.722,0,0,0-.723.723v.4A3.436,3.436,0,0,0,1.468,4.52v.755A4.524,4.524,0,0,1,.478,8.1L.142,8.52A.542.542,0,0,0,.564,9.4H9.6a.542.542,0,0,0,.423-.881L9.69,8.1A4.535,4.535,0,0,1,8.7,5.275V4.52A3.436,3.436,0,0,0,5.807,1.128v-.4A.722.722,0,0,0,5.084,0Zm0,2.17h.181a2.351,2.351,0,0,1,2.35,2.35v.755a5.613,5.613,0,0,0,.9,3.042H1.656a5.613,5.613,0,0,0,.9-3.042V4.52A2.351,2.351,0,0,1,4.9,2.17Zm1.446,7.955H3.638a1.446,1.446,0,1,0,2.893,0Z" transform="translate(-0.022)" fill="#fff"/>
</svg>
