<svg xmlns="http://www.w3.org/2000/svg" xmlns:xlink="http://www.w3.org/1999/xlink" width="36.3" height="36.3" viewBox="0 0 36.3 36.3">
  <defs>
    <clipPath id="clip-path">
      <rect id="Rectangle_15" data-name="Rectangle 15" width="28.558" height="28.558" fill="none"/>
    </clipPath>
  </defs>
  <g id="Group_11" data-name="Group 11" transform="translate(0 9.298) rotate(-19)">
    <g id="Group_10" data-name="Group 10" clip-path="url(#clip-path)">
      <path id="Path_33" data-name="Path 33" d="M28.558,14.279A14.279,14.279,0,1,1,14.279,0,14.279,14.279,0,0,1,28.558,14.279" transform="translate(0 0)" fill="#fed002"/>
      <path id="Path_34" data-name="Path 34" d="M44.135,72.325a3.159,3.159,0,0,1-1.51,1.345c-.2.117-.4.243-.6.365a5.443,5.443,0,0,1-2.561,1.232,11.054,11.054,0,0,1-10.846-2.793,10.6,10.6,0,0,1-3.5-8.747A4.031,4.031,0,0,1,25.4,62.06a7.6,7.6,0,0,1,1.851-3.835,15.382,15.382,0,0,1,4.069,1.255c.574.234,1.273.248,1.667.846.015.633-.168,1.244-.17,1.884a2.648,2.648,0,0,0,1.1,2.131,13.358,13.358,0,0,0,2.547,1.352,4.617,4.617,0,0,1,.467.24,1.522,1.522,0,0,1-.617,2.837,4.547,4.547,0,0,1-2.566-.393c-.274-.123-.564-.43-.814.068-.351.7-.349,1.117.067,1.407a3.4,3.4,0,0,0,1.342.509c.91.176.963.256,1,1.155.01.251-.1.595.216.7a1.745,1.745,0,0,0,1.223-.018c.264-.111.192-.422.183-.653a1.056,1.056,0,0,1,.72-1.125,3.239,3.239,0,0,0,2.136-3.113,3.507,3.507,0,0,0-2.23-3.221c-.505-.259-1.045-.456-1.561-.7a2.165,2.165,0,0,1-.956-.781c-.245-.393-.376-.813.139-1.132a4.366,4.366,0,0,1,1.528.866,21.583,21.583,0,0,1,6.43,7.271c.319.6.6,1.218.877,1.838a.905.905,0,0,1,.088.875" transform="translate(-21.781 -50.547)" fill="#fda801"/>
      <path id="Path_35" data-name="Path 35" d="M58.372,47.31a17.777,17.777,0,0,0-3.215-5.794,22.923,22.923,0,0,0-4.892-4.489c-.245-.173-.588-.213-.733-.525-.152-.271.034-.388.228-.5a3.8,3.8,0,0,1,2.851.383c.159.1.35.226.514-.014.751-1.931.659-1.765-.976-2.3a1,1,0,0,1-.823-1.133c.022-.717-.037-.737-.889-.734-.791,0-.881.042-.845.718a1.258,1.258,0,0,1-.967,1.489,2.165,2.165,0,0,0-.8.561c-.187.169-.34.422-.659.351a23.713,23.713,0,0,0-5.257-1.842.506.506,0,0,1-.417-.266A4.626,4.626,0,0,1,43.2,31.5a10.222,10.222,0,0,1,8.353-1.874,11.207,11.207,0,0,1,8.515,6.755,10.161,10.161,0,0,1,.666,6.549,2.236,2.236,0,0,1-.13.7,10.754,10.754,0,0,1-2.049,3.636c-.031.04-.122.032-.186.047" transform="translate(-36.019 -25.532)" fill="#fcb526"/>
      <path id="Path_36" data-name="Path 36" d="M71.883,40.372a23.2,23.2,0,0,0,.224-2.537,10.767,10.767,0,0,0-.273-2.791,11.442,11.442,0,0,0-6.058-7.516A11.429,11.429,0,0,0,59.795,26.4a10.31,10.31,0,0,0-4.723,1.574,1.352,1.352,0,0,1-.593.263,8.32,8.32,0,0,1,3.73-2.084,11.043,11.043,0,0,1,7.394.3,10.708,10.708,0,0,1,5.286,4.506,11.155,11.155,0,0,1,1.635,6.295,9.016,9.016,0,0,1-.641,3.113" transform="translate(-47.295 -22.278)" fill="#ea8e02"/>
      <path id="Path_37" data-name="Path 37" d="M24.115,87.306a12.453,12.453,0,0,0,.163,4.948A11.345,11.345,0,0,0,33.6,100.6a10.806,10.806,0,0,0,7.14-1.322c.32.094.117.183-.007.259a11.817,11.817,0,0,1-4.775,1.719,11.115,11.115,0,0,1-11.863-7.694,12.724,12.724,0,0,1-.342-5.507,1.22,1.22,0,0,1,.364-.752" transform="translate(-20.495 -75.793)" fill="#fde161"/>
      <path id="Path_38" data-name="Path 38" d="M83.777,53.287a.406.406,0,0,0-.258.395c-.419.376-.345.747,0,1.126a6.461,6.461,0,0,0,2.282,1.24,3.9,3.9,0,0,1,2.312,2.522,3.563,3.563,0,0,1-1.389,3.826.429.429,0,0,1-.164.107,1.361,1.361,0,0,0-1.2,1.785c.037.2-.087.33-.308.33-.439,0-.878,0-1.317,0-.367,0-.333-.261-.344-.505-.053-1.239-.055-1.239-1.25-1.482A4,4,0,0,1,80.854,62a.391.391,0,0,1-.181-.509,4.06,4.06,0,0,1,.482-1.277c.447-.5.753.228,1.157.32a6.805,6.805,0,0,0,2,.266,1.562,1.562,0,0,0,1.44-1.133,1.623,1.623,0,0,0-.995-1.614c-.781-.378-1.589-.685-2.345-1.136-1.658-.99-1.794-2.5-1.328-4.166.023-.084.042-.169.062-.254a5.074,5.074,0,0,1,1.927-1.311c.429-.113.3-.529.308-.842.027-1.318-.181-1.132,1.156-1.14,1.061-.006.982-.109.944.94-.02.558.12.879.714.912a1.056,1.056,0,0,1,.309.1c1.477.586,1.625,1.123.7,2.527-.381.091-.661-.15-.975-.289a2.766,2.766,0,0,0-2.457-.11" transform="translate(-70.006 -42.711)" fill="#fed002"/>
      <path id="Path_39" data-name="Path 39" d="M104.429,77.351c.649-.714,1.407-.372,2.119-.176a9.431,9.431,0,0,1,1.312.576c-.056.371-.293.272-.469.144a4.2,4.2,0,0,0-2.962-.544" transform="translate(-90.658 -66.775)" fill="#f09e09"/>
    </g>
  </g>
</svg>
