<svg id="Group_7" data-name="Group 7" xmlns="http://www.w3.org/2000/svg" xmlns:xlink="http://www.w3.org/1999/xlink" width="29.21" height="19.243" viewBox="0 0 29.21 19.243">
  <defs>
    <clipPath id="clip-path">
      <rect id="Rectangle_7" data-name="Rectangle 7" width="29.21" height="19.243" fill="#989898"/>
    </clipPath>
  </defs>
  <g id="Group_6" data-name="Group 6" clip-path="url(#clip-path)">
    <path id="Path_6" data-name="Path 6" d="M23.068,12.759a17.831,17.831,0,0,1,1.9,6.013c.043.356.008.484-.382.468-.723-.029-1.449-.034-2.171,0-.433.021-.551-.1-.513-.539a12.788,12.788,0,0,0-.437-4.673,11.51,11.51,0,0,0-7.678-7.991,10.244,10.244,0,0,0-2.816-.587c.358.319.628.574.912.811,2.113,1.767,2.378,3.237.75,5.829a21.583,21.583,0,0,1-4.916,5.091c-.743.6-1.521,1.166-2.276,1.756a1.331,1.331,0,0,1-.894.3c-1.112-.021-2.225-.008-3.364-.11.836-.517,1.68-1.023,2.508-1.554a38.068,38.068,0,0,0,6.991-5.384,7.345,7.345,0,0,0,1.8-2.616,1.463,1.463,0,0,0,.04-1.245A8.691,8.691,0,0,1,9.535,11.64,57.182,57.182,0,0,1,.412,17.381a.483.483,0,0,1-.4.081v-.469c0-3.583,0-7.166-.009-10.749a.827.827,0,0,1,.408-.8c.713-.462,1.408-.954,2.091-1.46a.682.682,0,0,1,.964.005c.893.71.9.695,1.732-.064.48-.44.977-.863,1.439-1.321A.662.662,0,0,1,7.7,2.576c.812.746,1.658,1.455,2.475,2.2a.467.467,0,0,0,.691.052c2.193-1.5,4.4-2.988,6.6-4.481.7-.475.754-.472,1.391.1.873.787,1.762,1.558,2.616,2.365a.646.646,0,0,0,.9.108c.355-.214.732-.394,1.1-.58a.982.982,0,0,1,1.373.342Q26.915,5.542,28.98,8.4a1.125,1.125,0,0,1,.223.7c-.006,3.221-.009,6.442.007,9.663,0,.39-.123.479-.492.475-1.159-.012-1.148,0-1.5-1.117a17.232,17.232,0,0,0-1.82-4.1,5.587,5.587,0,0,1-.973-1.343,13.87,13.87,0,0,0-1.087-1.391,17.678,17.678,0,0,0-4.187-3.461,10.958,10.958,0,0,0-1.006-.578,4.411,4.411,0,0,1,.765.524,15.272,15.272,0,0,1,3.686,4c.045.06.087.121.127.184a1.682,1.682,0,0,1,.348.8" transform="translate(0 0)" fill="#989898"/>
    <path id="Path_7" data-name="Path 7" d="M129.677,152.358c-1.05,0-1.046,0-.722-1.008.182-.568.352-1.139.519-1.712.042-.146.065-.294.262-.277.4.033.792.074,1.188.11.2.019.219.146.188.308-.146.782-.294,1.563-.431,2.346-.032.184-.131.236-.3.233-.235-.005-.47,0-.706,0" transform="translate(-114.769 -133.128)" fill="#989898"/>
    <path id="Path_8" data-name="Path 8" d="M144.4,104.139c0,.145,0,.29,0,.434-.024.71-.024.684-.725.653-.41-.018-.517-.146-.448-.552a11.787,11.787,0,0,0,.117-1.512c.008-.227.077-.368.309-.3s.63-.214.7.253c.052.338.045.685.064,1.028H144.4" transform="translate(-127.642 -91.658)" fill="#989898"/>
    <path id="Path_9" data-name="Path 9" d="M141.928,79.843c-.294.059-.421-.057-.457-.326a4.87,4.87,0,0,0-.142-.519c-.03-.12-.224-.283.006-.351.176-.052.424-.229.573.053.125.237.217.491.32.739.134.324.061.492-.3.4" transform="translate(-125.875 -70.007)" fill="#989898"/>
    <path id="Path_10" data-name="Path 10" d="M129.685,65.169c.523-.185.763.257,1.225.527-.67.232-.876-.323-1.225-.527" transform="translate(-115.591 -58.048)" fill="#989898"/>
  </g>
</svg>
