<svg id="Group_5" data-name="Group 5" xmlns="http://www.w3.org/2000/svg" xmlns:xlink="http://www.w3.org/1999/xlink" width="37.236" height="21.875" viewBox="0 0 37.236 21.875">
  <defs>
    <clipPath id="clip-path">
      <rect id="Rectangle_6" data-name="Rectangle 6" width="37.236" height="21.875" transform="translate(0 0)" fill="none"/>
    </clipPath>
  </defs>
  <g id="Group_4" data-name="Group 4" transform="translate(0 0)" clip-path="url(#clip-path)">
    <path id="Path_4" data-name="Path 4" d="M96.988,8.867c-3.427,2.906-5.564,6.453-5.435,11.306a8.338,8.338,0,0,1-2.616-7.542A12.472,12.472,0,0,1,94.83,4.046C99.277,1.129,104.3.126,109.734,0a13.363,13.363,0,0,0-1.87,2.582,30.7,30.7,0,0,0-2.513,7.9c-.667,3.136-1.65,6.141-3.886,8.555a7.207,7.207,0,0,1-7.826,2.174c-.571-.166-.682-.45-.7-.973a15.212,15.212,0,0,1,2.924-9.171A7.849,7.849,0,0,1,97.2,9.242a3.661,3.661,0,0,1,.885-1.028,12.79,12.79,0,0,0,1.1-.845c-.347.33-.773.555-1.142.856a2.481,2.481,0,0,1-1.055.641" transform="translate(-72.498 0)" fill="#2ca43f"/>
    <path id="Path_5" data-name="Path 5" d="M9.994,58.686a10.451,10.451,0,0,1,3.932,5.349.889.889,0,0,1-.49,1.251,4.646,4.646,0,0,1-5.393-.435,12.334,12.334,0,0,1-3.228-3.938c-.55-.985-1.092-1.977-1.694-2.931A10.108,10.108,0,0,0,0,54.767a20.258,20.258,0,0,1,7.913-.624,9.866,9.866,0,0,1,6.011,2.822,5.71,5.71,0,0,1,1.089,7.086,8.553,8.553,0,0,0-4.253-5.4c-.626-.422-1.43-.427-1.825-.773a1.937,1.937,0,0,1,1.06.805" transform="translate(0 -44.075)" fill="#acce22"/>
  </g>
</svg>
