<svg id="Group_3" data-name="Group 3" xmlns="http://www.w3.org/2000/svg" xmlns:xlink="http://www.w3.org/1999/xlink" width="19.933" height="29.634" viewBox="0 0 19.933 29.634">
  <defs>
    <clipPath id="clip-path">
      <rect id="Rectangle_5" data-name="Rectangle 5" width="19.933" height="29.634" fill="none"/>
    </clipPath>
  </defs>
  <g id="Group_2" data-name="Group 2" clip-path="url(#clip-path)">
    <path id="Path_1" data-name="Path 1" d="M.622,23.491C-1.9,16.525,3.783,9.061,8.453,4.444,9.426,3.481,10.472,2.6,11.506,1.7A16.64,16.64,0,0,1,14.151,0c.034.209-.076.308-.133.424C13.489,1.52,12.927,2.6,12.5,3.743a8.564,8.564,0,0,0-.681,2.843,5.6,5.6,0,0,0,1.6,4.7c.192.229.4.447.572.688.2.271.292.205.417-.059A26.422,26.422,0,0,1,15.6,9.5a3.868,3.868,0,0,1,2.975-1.9c.5-.058.534.015.353.469a8.075,8.075,0,0,0-.484,1.37,8.91,8.91,0,0,0,.072,3.634c.35,1.688,1.01,3.284,1.222,4.982a10.024,10.024,0,0,1-.465,5.709A10.046,10.046,0,0,1,13.559,29C8.822,30.756,2.876,28.793.843,24.05q-.12-.279-.221-.56" transform="translate(0 -0.001)" fill="#ee6060"/>
    <path id="Path_2" data-name="Path 2" d="M204.24,199.3c-.188.028-.277-.048-.317-.236-.437-2.074-1.2-4.062-1.637-6.137-.055-.259-.033-.37.266-.43,1.061-.21,1.04-.219,1.317.828.448,1.694.927,3.379,1.381,5.071.185.689.17.693-.561.822-.15.026-.3.055-.449.083" transform="translate(-187.742 -178.003)" fill="#efefef"/>
    <path id="Path_3" data-name="Path 3" d="M221.274,288.9c1.147.063,1.147.063.99,1.179-.113.81-.113.81-.934.678-.618-.1-.617-.1-.521-.733.041-.271.089-.542.107-.815.017-.257.127-.361.358-.309" transform="translate(-204.546 -265.658)" fill="#efefef"/>
  </g>
</svg>
