<?xml version="1.0" encoding="UTF-8"?>
<svg id="_選單_banner" data-name="選單/banner" xmlns="http://www.w3.org/2000/svg" viewBox="0 0 143.55 143.55">
  <defs>
    <style>
      .cls-1 {
        fill: #ee89a7;
      }
    </style>
  </defs>
  <path class="cls-1" d="m72.21,70.84l41.23,34.12c.5.41,1.13.64,1.77.64.1,0,.2,0,.3-.02.51-.05.98-.25,1.38-.56.19-.14.36-.3.51-.49l5.55-7.13c.31-.4.49-.88.55-1.38.03-.24.04-.48,0-.72-.1-.74-.51-1.41-1.11-1.85l-43.22-31.56,5.86-7.54c.9.45,1.88.68,2.85.68,1.92,0,3.82-.85,5.08-2.47,2.18-2.8,1.67-6.85-1.13-9.03l-17.82-13.86c-1.36-1.06-3.04-1.52-4.75-1.31-1.71.21-3.23,1.08-4.28,2.43-1.66,2.14-1.75,5.06-.37,7.3l-18.53,23.83c-2.51-.79-5.33.02-7,2.16-1.05,1.36-1.52,3.04-1.31,4.74.21,1.7,1.08,3.22,2.43,4.28l17.82,13.86c1.17.91,2.56,1.35,3.94,1.35,1.92,0,3.82-.85,5.08-2.48,1.91-2.46,1.76-5.87-.2-8.14l5.34-6.86Zm-26.04-5.37l17.82,13.86c1.41,1.1,1.67,3.14.57,4.56-1.1,1.41-3.14,1.67-4.56.57l-17.82-13.86c-1.41-1.1-1.67-3.14-.57-4.55.62-.8,1.58-1.24,2.55-1.24.56,0,1.12.14,1.64.44,0,0,0,0,0,0,0,0,.08.05.08.05.1.05.19.1.28.17Zm21.91-28.17c-.09-.07-.16-.15-.23-.23l-.07-.07c-1.13-1.16-1.25-2.98-.26-4.25.53-.69,1.3-1.12,2.16-1.23.14-.02.27-.03.41-.03.72,0,1.41.24,1.99.69h0l17.82,13.86c1.41,1.1,1.67,3.14.57,4.56-1.1,1.41-3.14,1.67-4.56.57l-.24-.19-17.58-13.68Zm-3.64,38.34l-15.57-12.11,18-23.14,3.82,2.97,11.75,9.14-18,23.14Zm9.73-7.32l3.05-3.92,3.24,2.37,39.72,29-5.03,6.47-37.87-31.34-3.11-2.57Z"/>
  <path class="cls-1" d="m89.19,95.15s0,0,0,0c-.65-.64-1.5-.99-2.4-.99h-51.52c-.89,0-1.77.36-2.41,1-.63.63-1,1.51-1,2.41v4.01h-4.15c-.95,0-1.73.77-1.73,1.73v4.01h70.09v-4.01c0-.95-.77-1.73-1.73-1.73h-4.15v-4.01c0-.91-.35-1.76-1-2.41Z"/>
  <polygon class="cls-1" points="38.82 85.11 27.43 80.29 30.41 73.96 38.82 85.11"/>
  <polygon class="cls-1" points="36.08 88.72 26.77 90.5 25.97 85.2 36.08 88.72"/>
</svg>