<?xml version="1.0" encoding="UTF-8"?>
<svg id="_選單_banner" data-name="選單/banner" xmlns="http://www.w3.org/2000/svg" viewBox="0 0 143.55 143.55">
  <defs>
    <style>
      .cls-1 {
        fill: #ee89a7;
      }
    </style>
  </defs>
  <path class="cls-1" d="m81.16,41.32h-24.4c-.76,0-1.47.2-2.09.56-1.28.73-2.15,2.11-2.15,3.69v4.5c0,1.02.83,1.85,1.85,1.85h29.18c1.02,0,1.85-.83,1.85-1.85v-4.5c0-2.34-1.9-4.25-4.24-4.25Zm.53,6.89h-25.46v-2.64c0-.3.24-.53.53-.53h24.4c.29,0,.53.23.53.53v2.64Zm-.53-6.89h-24.4c-.76,0-1.47.2-2.09.56-1.28.73-2.15,2.11-2.15,3.69v4.5c0,1.02.83,1.85,1.85,1.85h29.18c1.02,0,1.85-.83,1.85-1.85v-4.5c0-2.34-1.9-4.25-4.24-4.25Zm.53,6.89h-25.46v-2.64c0-.3.24-.53.53-.53h24.4c.29,0,.53.23.53.53v2.64Zm23.99,0h-13.09v-2.64c0-6.3-5.13-11.43-11.43-11.43h-24.4c-1.68,0-3.28.36-4.71,1.02-3.1,1.41-5.47,4.16-6.35,7.51-.24.92-.37,1.9-.37,2.9v2.64h-13.09c-1.02,0-1.99.17-2.9.48-3.57,1.2-6.14,4.58-6.14,8.56v44.7c0,4.99,4.05,9.04,9.04,9.04h73.44c3.92,0,7.28-2.51,8.52-6.02.34-.94.52-1.96.52-3.02v-44.7c0-4.99-4.06-9.04-9.04-9.04Zm0,59.07H32.24c-2.94,0-5.33-2.39-5.33-5.33v-44.7c0-1.64.74-3.11,1.91-4.08.93-.78,2.12-1.25,3.42-1.25h14.95c1.02,0,1.85-.83,1.85-1.85v-4.5c0-1.03.2-2.01.56-2.9.33-.81.79-1.56,1.36-2.2,1.03-1.16,2.4-2.02,3.96-2.4.59-.14,1.21-.22,1.84-.22h24.4c4.25,0,7.71,3.46,7.71,7.72v4.5c0,1.02.84,1.85,1.86,1.85h14.95c2.94,0,5.33,2.39,5.33,5.33v44.7c0,1.34-.5,2.56-1.32,3.5-.97,1.12-2.41,1.83-4.01,1.83Zm-24.52-65.96h-24.4c-.76,0-1.47.2-2.09.56-1.28.73-2.15,2.11-2.15,3.69v4.5c0,1.02.83,1.85,1.85,1.85h29.18c1.02,0,1.85-.83,1.85-1.85v-4.5c0-2.34-1.9-4.25-4.24-4.25Zm.53,6.89h-25.46v-2.64c0-.3.24-.53.53-.53h24.4c.29,0,.53.23.53.53v2.64Z"/>
  <path class="cls-1" d="m47.17,104.45c-.91,0-1.65-.74-1.65-1.65v-45.93c0-.91.74-1.65,1.65-1.65s1.65.74,1.65,1.65v45.93c0,.91-.74,1.65-1.65,1.65Z"/>
  <path class="cls-1" d="m53.21,104.45c-.91,0-1.65-.74-1.65-1.65v-45.93c0-.91.74-1.65,1.65-1.65s1.65.74,1.65,1.65v45.93c0,.91-.74,1.65-1.65,1.65Z"/>
  <path class="cls-1" d="m85.41,104.45c-.91,0-1.65-.74-1.65-1.65v-45.93c0-.91.74-1.65,1.65-1.65s1.65.74,1.65,1.65v45.93c0,.91-.74,1.65-1.65,1.65Z"/>
  <path class="cls-1" d="m91.45,104.45c-.91,0-1.65-.74-1.65-1.65v-45.93c0-.91.74-1.65,1.65-1.65s1.65.74,1.65,1.65v45.93c0,.91-.74,1.65-1.65,1.65Z"/>
  <path class="cls-1" d="m120.34,51.71l-5.62,51.09h-3.71l5.62-51.09c0-2.94-2.39-5.33-5.33-5.33h-14.95c-1.02,0-1.85-.83-1.85-1.85v-4.5c0-4.25-3.46-7.72-7.72-7.72h-24.4c-1.89,0-3.63.69-4.97,1.83h-.65c-1.68,0-3.28.36-4.71,1.02,1.83-3.87,5.77-6.56,10.33-6.56h24.4c6.3,0,11.43,5.13,11.43,11.43v2.64h13.09c4.99,0,9.04,4.06,9.04,9.04Z"/>
</svg>