<?xml version="1.0" encoding="UTF-8"?>
<svg id="_選單_banner" data-name="選單/banner" xmlns="http://www.w3.org/2000/svg" viewBox="0 0 143.55 143.55">
  <defs>
    <style>
      .cls-1 {
        fill: #ee89a7;
      }
    </style>
  </defs>
  <path class="cls-1" d="m31.55,45.82l6.31,3.47,9.33,37.32-4.4,3.47c-1.05.83-1.65,2.07-1.65,3.41v6.54c0,2.37,1.92,4.31,4.28,4.34l4.34.06c-.22.68-.33,1.4-.33,2.14,0,3.84,3.12,6.96,6.96,6.96s6.96-3.12,6.96-6.96c0-.67-.09-1.32-.28-1.95l28.83.4c-.12.5-.18,1.02-.18,1.54,0,3.84,3.12,6.96,6.96,6.96s6.96-3.12,6.96-6.96c0-.46-.04-.91-.13-1.35l1.9.03c2.36,0,4.31-1.92,4.34-4.28.02-1.16-.42-2.26-1.23-3.09-.81-.83-1.89-1.3-3.05-1.32l-57.64-.81v-.15l3.05-2.41c.28.04.56.07.83.07l47.15.44c2.96,0,5.48-2.01,6.14-4.89l6.11-26.6c.78-3.39-1.35-6.78-4.74-7.55h0c-3.39-.78-6.78,1.35-7.56,4.73l-4.97,21.66-37.14-.34-9.28-37.13c-.43-1.7-1.55-3.15-3.08-3.99l-8.72-4.8c-3.05-1.67-6.89-.56-8.56,2.49-1.67,3.05-.56,6.89,2.49,8.56Zm.54-6.9c.76-1.38,2.5-1.88,3.87-1.12l8.72,4.79c.69.38,1.2,1.04,1.39,1.81l9.61,38.42c.19.76.87,1.3,1.66,1.31l39.87.37c.82-.04,1.52-.55,1.7-1.34l5.28-23.01c.35-1.53,1.89-2.49,3.42-2.14,1.53.35,2.49,1.88,2.14,3.41l-6.11,26.6c-.3,1.3-1.44,2.21-2.8,2.21l-47.1-.44c-.24,0-.49-.04-.78-.13-.54-.16-1.12-.05-1.57.3l-4.35,3.44c-.42.33-.66.83-.66,1.36v2.69c0,.94.76,1.71,1.7,1.73l59.34.84c.24,0,.46.1.63.27.1.1.26.31.25.63,0,.48-.41.88-.9.88l-4.5-.06c-.66,0-1.26.36-1.56.94-.3.59-.24,1.29.16,1.82.46.62.71,1.34.71,2.08,0,1.93-1.57,3.5-3.5,3.5s-3.5-1.57-3.5-3.5c0-.98.42-1.71.77-2.16.41-.52.49-1.22.21-1.81-.28-.59-.88-.98-1.54-.98l-34.54-.48h-.02c-.7,0-1.32.42-1.59,1.06-.27.65-.12,1.4.38,1.9.67.66,1.04,1.55,1.04,2.49,0,1.93-1.57,3.5-3.5,3.5s-3.5-1.57-3.5-3.5c0-.97.4-1.88,1.13-2.55.52-.48.69-1.23.44-1.89-.25-.66-.88-1.1-1.59-1.11l-7.39-.11c-.48,0-.87-.4-.87-.89v-6.54c0-.28.12-.53.34-.7l5.27-4.16c.53-.42.77-1.12.61-1.78l-9.79-39.13c-.12-.47-.42-.86-.84-1.09l-6.97-3.83c-1.38-.76-1.88-2.49-1.13-3.87Z"/>
  <path class="cls-1" d="m81.19,41.4h-8.2c-2.46,0-4.46,2-4.46,4.46v10.59h-2.53c-1.58,0-2.8.64-3.36,1.76-.56,1.12-.34,2.48.6,3.75l10.42,13.99c.87,1.16,2.12,1.83,3.43,1.83s2.57-.67,3.43-1.83l10.42-13.99c.94-1.27,1.16-2.63.6-3.75-.56-1.12-1.79-1.76-3.36-1.76h-2.53v-10.59c0-2.46-2-4.46-4.46-4.46Zm6.98,18.51l-10.42,13.98c-.41.55-.91.55-1.32,0l-10.42-13.98h4.24c.95,0,1.73-.77,1.73-1.73v-12.32c0-.55.45-1.01,1-1.01h8.2c.55,0,1.01.45,1.01,1.01v12.32c0,.96.77,1.73,1.73,1.73h4.25Z"/>
</svg>