<?xml version="1.0" encoding="UTF-8"?>
<svg id="_選單_banner" data-name="選單/banner" xmlns="http://www.w3.org/2000/svg" viewBox="0 0 906.96 115.13">
  <defs>
    <style>
      .cls-1 {
        fill: #fff;
        stroke-width: 0px;
      }
    </style>
  </defs>
  <path class="cls-1" d="m906.96,115.13h-2c0-24.81-20.19-45-45-45h-198.78l-.14-.83c-6.77-39-40.45-67.3-80.08-67.3s-73.31,28.31-80.08,67.3l-.14.83h-97.64l-.14-.83c-6.77-39-40.45-67.3-80.08-67.3s-73.31,28.31-80.08,67.3l-.14.83H47c-24.81,0-45,20.19-45,45H0c0-25.92,21.08-47,47-47h193.98C248.25,28.6,282.56,0,322.88,0s74.63,28.6,81.9,68.13h94.29C506.33,28.6,540.64,0,580.96,0s74.63,28.6,81.9,68.13h197.1c25.92,0,47,21.08,47,47Z"/>
</svg>