<svg xmlns="http://www.w3.org/2000/svg" xmlns:xlink="http://www.w3.org/1999/xlink" width="227" height="637" viewBox="0 0 227 637">
  <defs>
    <clipPath id="clip-path">
      <rect id="Rectangle_30" data-name="Rectangle 30" width="227" height="637" transform="translate(1693 1057)" fill="#fff" stroke="#707070" stroke-width="1"/>
    </clipPath>
  </defs>
  <g id="Mask_Group_1" data-name="Mask Group 1" transform="translate(-1693 -1057)" clip-path="url(#clip-path)">
    <g id="Group_822" data-name="Group 822" transform="translate(1683.337 1457.465)">
      <g id="Group_773" data-name="Group 773" transform="translate(112.633 -218.829)">
        <path id="Path_11967" data-name="Path 11967" d="M1127.081,432.563c9.716-.178,19.319,1.787,28.715,4.064q18.49,4.48,36.547,10.556,4.569,1.536,9.1,3.172a332.494,332.494,0,0,1-31.2-22.08q-12.116-9.671-23.293-20.444-5.579-5.38-10.9-11.018c-2.127-2.255-6.458-6.125-6.573-9.46-.248-7.322,15.1-.984,18.078.03a163.922,163.922,0,0,1,17.607,7.732c10.674,5.1,21.075,10.766,31.2,16.887q-9.735-10.847-18.821-22.257c-5.392-6.785-10.686-13.651-15.763-20.676-4.67-6.46-10.224-13.185-13.346-20.564-2.245-5.308,5.315-8.846,9.57-6.289,19.65,11.806,35.682,31.866,52.685,47.147q2.054,1.846,4.1,3.7c5.99,5.423,11.951,10.929,17.522,16.793L1199.7,355.876c-4.709-7.794-10.834-14.742-15.518-22.551q-3.512-5.856-6.988-11.736c-1.446-2.448-3.563-7.689-1.869-10.736,1.582-2.845,7.578-1.433,9.717-.19,18.383,10.681,30.708,29.973,41.9,47.636,6.58,10.383,12.674,21.072,19.442,31.337.657,1,1.33,1.986,2.005,2.972v129q-2.648,1.089-5.249,2.181c-16.594,6.969-33.937,11.844-51.243,16.679-4.122,1.152-13.74,5.724-16.384-.19-.85-1.9.071-3.555,1.431-4.934,2.811-2.848,6.638-5.052,10.085-7.048,14.352-8.315,30.917-13.057,46.646-18.05q4.161-1.321,8.363-2.543c-4.157-.259-8.31-.661-12.46-1.058-10.531-1-21.079-1.532-31.652-1.822-19.884-.546-40.533.422-60.1-3.683-2.13-.447-6.761-.809-6.442-4.021.259-2.61,3.561-3.681,5.611-4.375a164.774,164.774,0,0,1,28.52-6.978c20.29-3.023,40.214-.214,60.414,2.089,6.078.694,12.164,1.4,18.236,2.211-13.55-3.387-27.026-7.058-40.289-11.454-10.164-3.368-20.123-7.278-30.084-11.2-10.348-4.075-21-7.742-31.029-12.574-5.1-2.46-12.308-4.918-16.617-8.6-2.458-2.1-3.836-4.471-5.495-7.539C1117.759,433.368,1122.844,432.641,1127.081,432.563Z" transform="translate(-1119.799 -309.194)" fill="#d9d7d7"/>
        <path id="Path_11968" data-name="Path 11968" d="M1124.432,427.518a130.193,130.193,0,0,0,9.822,12.19c.561.617-.354,1.538-.919.918a132.937,132.937,0,0,1-10.025-12.452C1122.826,427.491,1123.951,426.842,1124.432,427.518Z" transform="translate(-1008.773 -325.241)" fill="#eeeded"/>
        <path id="Path_11969" data-name="Path 11969" d="M1155.029,429.887a89.83,89.83,0,0,0,17.99,13.785.65.65,0,0,1-.656,1.122,91.191,91.191,0,0,1-18.252-13.988A.65.65,0,0,1,1155.029,429.887Z" transform="translate(-1074.224 -325.576)" fill="#eeeded"/>
        <path id="Path_11970" data-name="Path 11970" d="M1122.192,447.847a135.378,135.378,0,0,0,24.353,16.542c.738.392.083,1.513-.656,1.122a136.913,136.913,0,0,1-24.615-16.746C1120.638,448.222,1121.56,447.307,1122.192,447.847Z" transform="translate(-1019.37 -328.021)" fill="#eeeded"/>
        <path id="Path_11971" data-name="Path 11971" d="M1125.292,473.623a255.1,255.1,0,0,1,39.25,14.645c.756.355.1,1.475-.656,1.121a253.037,253.037,0,0,0-38.94-14.513A.65.65,0,0,1,1125.292,473.623Z" transform="translate(-1040.341 -331.543)" fill="#eeeded"/>
      </g>
      <g id="Group_774" data-name="Group 774" transform="translate(30.702 -400)">
        <path id="Path_11972" data-name="Path 11972" d="M1119.8,415.016a12.415,12.415,0,0,1,.831-4.61,35.693,35.693,0,0,1,4.9-8.247,100.388,100.388,0,0,1,21.559-21.8c4.3-3.2,9.419-6.917,6.829-12.622-.117-.266-.26-.536-.412-.812a24.27,24.27,0,0,0-2.184-3.151c-1.86-2.348-3.916-4.544-4.957-7.459-2.968-8.295,1.36-17.438,7.482-23.054,7.518-6.9,17.461-10.05,26.1-15.184a36.82,36.82,0,0,0,11-9.39c.36-.477.694-.966,1.019-1.472.377-.595.73-1.2,1.054-1.813,2.042-3.785,3.278-7.965,4.668-12.021,3-8.755,7.295-16.019,16.013-20.005,9.38-4.286,19.782-4.116,29.832-5.2,5.651-.612,14.112-1.267,17.644-6.406a32.043,32.043,0,0,0,2.784-5.262,59.96,59.96,0,0,1,2.761-5.8c.282-.489.583-.972.906-1.436,5.022-7.259,12.2-12.728,19.8-17.067,8.714-4.981,18.156-8.66,27.529-12.187q7.622-2.87,15.354-5.422V432.265c-6.523,3.644-14.194,6.465-21.323,6.152a11.336,11.336,0,0,1-9.444-5.233c-.382-.565-.747-1.136-1.119-1.684a11.966,11.966,0,0,0-2.578-3,6.719,6.719,0,0,0-2.572-1.219,11.856,11.856,0,0,0-8.313,1.436c-4.768,2.584-8.348,7.171-12.5,10.6a65.087,65.087,0,0,1-12.74,8.607c-3.592,1.742-8,2.937-11.733.906-3.908-2.119-5.2-6.817-8.736-9.325a8.305,8.305,0,0,0-.771-.483c-.118-.065-.236-.129-.353-.188a8.429,8.429,0,0,0-1.9-.689l-.153-.035c-.153-.036-.313-.066-.471-.089a11.4,11.4,0,0,0-2.373-.135c-3.568.165-7.3,1.766-10.379,3.032a82.168,82.168,0,0,1-16.265,5.057,73.09,73.09,0,0,1-16.385,1.225c-5.522-.223-7.141-3.255-8.9-6.616-.5-.966-1.011-1.955-1.629-2.914a12.344,12.344,0,0,0-4.3-4.2c-5.894-3.386-13.789-2.785-20.293-2.326-9.908.7-21.807-.648-29.96-6.876a13.955,13.955,0,0,1-4.552-5.64A9.894,9.894,0,0,1,1119.8,415.016Z" transform="translate(-1119.799 -214.596)" fill="#e6e3e3"/>
        <path id="Path_11973" data-name="Path 11973" d="M1120.572,390.436c14.071-6.553,28.636-12.392,44.255-13.482,8.713-.606,17.42-.277,26.068-1.76.442-.076.884-.17,1.325-.253-2,4.15-3.933,8.33-5.652,12.6-2.608,6.494-4.262,13.211-6.247,19.905-.2.683-.418,1.36-.641,2.031.618.959,1.131,1.948,1.629,2.914a90.282,90.282,0,0,0,9.585-10.633,57.336,57.336,0,0,0,8.789-16.219c1.485-4.4,2.332-9.608,4.669-13.7q4.654-1.491,9.179-3.343c14.589-5.947,28.117-14.088,41.881-21.682.907-.5,1.813-1,2.727-1.5a57.854,57.854,0,0,0-11.681,17.468c-3.892,9.525-3.7,19.881-5.164,29.906-.352,2.426-4.162,12.658-5.686,17.138.158.023.318.053.471.089l.153.035a8.432,8.432,0,0,1,1.9.689c1.578-3.409,4.81-10.774,5.211-11.475a83.322,83.322,0,0,0,6.252-13.883c1.842-5.351,2.707-10.879,4.133-16.336,2.466-9.467,9.147-15.784,16.213-22.083,4.521-4.027,9.178-8.2,12.48-13.235,5.671-2.219,11.463-4.091,17.285-5.9.212-.072.418-.136.631-.2-3.863,12.67-.76,27.064.294,40.193a72.315,72.315,0,0,1-4.781,32.586,11.964,11.964,0,0,1,2.578,3c2.174-3.945,4.151-7.983,5.988-12.034a129.7,129.7,0,0,0,6.029-14.577c1.755-5.6.972-10.532-.5-16.084-2.979-11.2-1.7-22.9,4.64-32.768a41.188,41.188,0,0,1,6.287-7.412,88.581,88.581,0,0,0,9.443-4.575v-38.75c-1.16-.424-2.26-.841-3.273-1.213-4.539-1.661-9.067-3.762-12.711-6.994-3.9-3.468-6.164-8.036-8.089-12.793-3.355-8.313-6.576-15.578-14.07-20.994-7.541-5.44-16.755-9.3-25.444-12.6a59.974,59.974,0,0,0-2.761,5.8,91.5,91.5,0,0,1,15.813,10.514,69.735,69.735,0,0,1,17.367,20.982c4.292,8.212,5.935,17.791,11.4,25.391a24.183,24.183,0,0,0,9.172,7.73c-6.559,4.969-13.347,9.62-20.293,14.041q-10.528,6.711-21.171,13.24c-5.092.2-10.379-.229-15.018-2.449-5.628-2.69-7.8-8.065-12.3-11.921-4.628-3.963-11.263-2.661-15.86-6.741-3.885-3.45-6.188-8.307-9.9-11.934-4.262-4.155-10.085-5.6-15.7-6.982q-7.172-1.766-14.453-2.979c-.324.618-.678,1.219-1.054,1.813-.324.507-.659,1-1.019,1.473a78.01,78.01,0,0,1,10.573,6.759c7.519,5.681,13.83,12.692,22.149,17.279,4.009,2.207,8.213,4.133,11.892,6.882,3.762,2.815,6.764,6.5,10.65,9.167,5.452,3.732,11.793,5.616,18.245,6.87q-8.759,5.352-17.509,10.7c-13.181,8.077-26.763,15.972-41.6,20.411a11.54,11.54,0,0,1-5-4.622c-2.12-3.668-2.592-8.03-4.37-11.851-3.891-8.36-12.827-8.66-20.929-8.4q-11.913.39-23.737,1.884a24.279,24.279,0,0,1,2.184,3.151c.153.276.295.547.412.812a126.912,126.912,0,0,1,18.375,2.625c4.084.9,8.507,1.831,11.927,4.38a8.687,8.687,0,0,1,3.679,6.441c.19,2.013-.076,4.056.4,6.046a11.309,11.309,0,0,0,1.207,3.026c-7.465,1.383-14.877,2.784-22.26,4.8-8.378,2.285-16.756,4.6-25.033,7.23a198.3,198.3,0,0,0-21.576,8.124,12.414,12.414,0,0,0-.831,4.61A9.893,9.893,0,0,0,1120.572,390.436Z" transform="translate(-1119.799 -186.407)" fill="#f1f1f1"/>
      </g>
      <g id="Group_823" data-name="Group 823" transform="matrix(0.966, 0.259, -0.259, 0.966, 105.704, -45.234)">
        <path id="Path_11972-2" data-name="Path 11972" d="M1119.8,415.016a12.415,12.415,0,0,1,.831-4.61,35.693,35.693,0,0,1,4.9-8.247,100.388,100.388,0,0,1,21.559-21.8c4.3-3.2,9.419-6.917,6.829-12.622-.117-.266-.26-.536-.412-.812a24.27,24.27,0,0,0-2.184-3.151c-1.86-2.348-3.916-4.544-4.957-7.459-2.968-8.295,1.36-17.438,7.482-23.054,7.518-6.9,17.461-10.05,26.1-15.184a36.82,36.82,0,0,0,11-9.39c.36-.477.694-.966,1.019-1.472.377-.595.73-1.2,1.054-1.813,2.042-3.785,3.278-7.965,4.668-12.021,3-8.755,7.295-16.019,16.013-20.005,9.38-4.286,19.782-4.116,29.832-5.2,5.651-.612,14.112-1.267,17.644-6.406a32.043,32.043,0,0,0,2.784-5.262,59.96,59.96,0,0,1,2.761-5.8c.282-.489.583-.972.906-1.436,5.022-7.259,12.2-12.728,19.8-17.067,8.714-4.981,18.156-8.66,27.529-12.187q7.622-2.87,15.354-5.422V432.265c-6.523,3.644-14.194,6.465-21.323,6.152a11.336,11.336,0,0,1-9.444-5.233c-.382-.565-.747-1.136-1.119-1.684a11.966,11.966,0,0,0-2.578-3,6.719,6.719,0,0,0-2.572-1.219,11.856,11.856,0,0,0-8.313,1.436c-4.768,2.584-8.348,7.171-12.5,10.6a65.087,65.087,0,0,1-12.74,8.607c-3.592,1.742-8,2.937-11.733.906-3.908-2.119-5.2-6.817-8.736-9.325a8.305,8.305,0,0,0-.771-.483c-.118-.065-.236-.129-.353-.188a8.429,8.429,0,0,0-1.9-.689l-.153-.035c-.153-.036-.313-.066-.471-.089a11.4,11.4,0,0,0-2.373-.135c-3.568.165-7.3,1.766-10.379,3.032a82.168,82.168,0,0,1-16.265,5.057,73.09,73.09,0,0,1-16.385,1.225c-5.522-.223-7.141-3.255-8.9-6.616-.5-.966-1.011-1.955-1.629-2.914a12.344,12.344,0,0,0-4.3-4.2c-5.894-3.386-13.789-2.785-20.293-2.326-9.908.7-21.807-.648-29.96-6.876a13.955,13.955,0,0,1-4.552-5.64A9.894,9.894,0,0,1,1119.8,415.016Z" transform="translate(-1119.799 -214.596)" fill="#e6e3e3"/>
        <path id="Path_11973-2" data-name="Path 11973" d="M1120.572,390.436c14.071-6.553,28.636-12.392,44.255-13.482,8.713-.606,17.42-.277,26.068-1.76.442-.076.884-.17,1.325-.253-2,4.15-3.933,8.33-5.652,12.6-2.608,6.494-4.262,13.211-6.247,19.905-.2.683-.418,1.36-.641,2.031.618.959,1.131,1.948,1.629,2.914a90.282,90.282,0,0,0,9.585-10.633,57.336,57.336,0,0,0,8.789-16.219c1.485-4.4,2.332-9.608,4.669-13.7q4.654-1.491,9.179-3.343c14.589-5.947,28.117-14.088,41.881-21.682.907-.5,1.813-1,2.727-1.5a57.854,57.854,0,0,0-11.681,17.468c-3.892,9.525-3.7,19.881-5.164,29.906-.352,2.426-4.162,12.658-5.686,17.138.158.023.318.053.471.089l.153.035a8.432,8.432,0,0,1,1.9.689c1.578-3.409,4.81-10.774,5.211-11.475a83.322,83.322,0,0,0,6.252-13.883c1.842-5.351,2.707-10.879,4.133-16.336,2.466-9.467,9.147-15.784,16.213-22.083,4.521-4.027,9.178-8.2,12.48-13.235,5.671-2.219,11.463-4.091,17.285-5.9.212-.072.418-.136.631-.2-3.863,12.67-.76,27.064.294,40.193a72.315,72.315,0,0,1-4.781,32.586,11.964,11.964,0,0,1,2.578,3c2.174-3.945,4.151-7.983,5.988-12.034a129.7,129.7,0,0,0,6.029-14.577c1.755-5.6.972-10.532-.5-16.084-2.979-11.2-1.7-22.9,4.64-32.768a41.188,41.188,0,0,1,6.287-7.412,88.581,88.581,0,0,0,9.443-4.575v-38.75c-1.16-.424-2.26-.841-3.273-1.213-4.539-1.661-9.067-3.762-12.711-6.994-3.9-3.468-6.164-8.036-8.089-12.793-3.355-8.313-6.576-15.578-14.07-20.994-7.541-5.44-16.755-9.3-25.444-12.6a59.974,59.974,0,0,0-2.761,5.8,91.5,91.5,0,0,1,15.813,10.514,69.735,69.735,0,0,1,17.367,20.982c4.292,8.212,5.935,17.791,11.4,25.391a24.183,24.183,0,0,0,9.172,7.73c-6.559,4.969-13.347,9.62-20.293,14.041q-10.528,6.711-21.171,13.24c-5.092.2-10.379-.229-15.018-2.449-5.628-2.69-7.8-8.065-12.3-11.921-4.628-3.963-11.263-2.661-15.86-6.741-3.885-3.45-6.188-8.307-9.9-11.934-4.262-4.155-10.085-5.6-15.7-6.982q-7.172-1.766-14.453-2.979c-.324.618-.678,1.219-1.054,1.813-.324.507-.659,1-1.019,1.473a78.01,78.01,0,0,1,10.573,6.759c7.519,5.681,13.83,12.692,22.149,17.279,4.009,2.207,8.213,4.133,11.892,6.882,3.762,2.815,6.764,6.5,10.65,9.167,5.452,3.732,11.793,5.616,18.245,6.87q-8.759,5.352-17.509,10.7c-13.181,8.077-26.763,15.972-41.6,20.411a11.54,11.54,0,0,1-5-4.622c-2.12-3.668-2.592-8.03-4.37-11.851-3.891-8.36-12.827-8.66-20.929-8.4q-11.913.39-23.737,1.884a24.279,24.279,0,0,1,2.184,3.151c.153.276.295.547.412.812a126.912,126.912,0,0,1,18.375,2.625c4.084.9,8.507,1.831,11.927,4.38a8.687,8.687,0,0,1,3.679,6.441c.19,2.013-.076,4.056.4,6.046a11.309,11.309,0,0,0,1.207,3.026c-7.465,1.383-14.877,2.784-22.26,4.8-8.378,2.285-16.756,4.6-25.033,7.23a198.3,198.3,0,0,0-21.576,8.124,12.414,12.414,0,0,0-.831,4.61A9.893,9.893,0,0,0,1120.572,390.436Z" transform="translate(-1119.799 -186.407)" fill="#f1f1f1"/>
      </g>
    </g>
  </g>
</svg>
