<svg xmlns="http://www.w3.org/2000/svg" width="150.176" height="50" viewBox="0 0 150.176 50">
  <g id="Group_921" data-name="Group 921" transform="translate(-6998.824 201.555)">
    <text id="愛心抵用券_ticket" data-name="愛心抵用券
ticket" transform="translate(7100 -180.555)" fill="#a1c969" font-size="18" font-family="NotoSansCJKtc-Medium, Noto Sans CJK TC" letter-spacing="0.1em" font-weight="500"><tspan x="-48.6" y="0">愛心抵用券</tspan><tspan font-size="14" font-family="NotoSansCJKtc-Regular, Noto Sans CJK TC" font-weight="400"><tspan x="-27.041" y="25">TICKET</tspan></tspan></text>
    <g id="coupon" transform="translate(6998.824 -179.564) rotate(-20)">
      <g id="Group_835" data-name="Group 835" transform="translate(10.674 11.834)">
        <g id="Group_834" data-name="Group 834" transform="translate(0 0)">
          <rect id="Rectangle_18" data-name="Rectangle 18" width="0.795" height="1.192" fill="#a1c969"/>
        </g>
      </g>
      <g id="Group_837" data-name="Group 837" transform="translate(10.674 13.903)">
        <g id="Group_836" data-name="Group 836" transform="translate(0 0)">
          <rect id="Rectangle_19" data-name="Rectangle 19" width="0.795" height="1.192" fill="#a1c969"/>
        </g>
      </g>
      <g id="Group_839" data-name="Group 839" transform="translate(10.674 16.477)">
        <g id="Group_838" data-name="Group 838" transform="translate(0 0)">
          <rect id="Rectangle_20" data-name="Rectangle 20" width="0.795" height="1.192" fill="#a1c969"/>
        </g>
      </g>
      <g id="Group_841" data-name="Group 841" transform="translate(10.674 9.352)">
        <g id="Group_840" data-name="Group 840" transform="translate(0 0)">
          <rect id="Rectangle_21" data-name="Rectangle 21" width="0.795" height="1.192" fill="#a1c969"/>
        </g>
      </g>
      <g id="Group_843" data-name="Group 843" transform="translate(10.674 6.869)">
        <g id="Group_842" data-name="Group 842" transform="translate(0 0)">
          <rect id="Rectangle_22" data-name="Rectangle 22" width="0.795" height="1.192" fill="#a1c969"/>
        </g>
      </g>
      <g id="Group_845" data-name="Group 845" transform="translate(10.674 4.8)">
        <g id="Group_844" data-name="Group 844" transform="translate(0 0)">
          <rect id="Rectangle_23" data-name="Rectangle 23" width="0.795" height="1.192" fill="#a1c969"/>
        </g>
      </g>
      <g id="Group_847" data-name="Group 847" transform="translate(10.674 2.225)">
        <g id="Group_846" data-name="Group 846" transform="translate(0 0)">
          <rect id="Rectangle_24" data-name="Rectangle 24" width="0.795" height="1.192" fill="#a1c969"/>
        </g>
      </g>
      <g id="Group_849" data-name="Group 849" transform="translate(2.319 2.225)">
        <g id="Group_848" data-name="Group 848" transform="translate(0 0)">
          <rect id="Rectangle_25" data-name="Rectangle 25" width="2" height="1" transform="translate(-0.483 0.375)" fill="#a1c969"/>
        </g>
      </g>
      <g id="Group_851" data-name="Group 851" transform="translate(31.442 2.225)">
        <g id="Group_850" data-name="Group 850" transform="translate(0 0)">
          <rect id="Rectangle_26" data-name="Rectangle 26" width="1.192" height="1.192" fill="#a1c969"/>
        </g>
      </g>
      <g id="Group_853" data-name="Group 853" transform="translate(31.442 16.477)">
        <g id="Group_852" data-name="Group 852" transform="translate(0 0)">
          <rect id="Rectangle_27" data-name="Rectangle 27" width="1.192" height="1.192" fill="#a1c969"/>
        </g>
      </g>
      <g id="Group_855" data-name="Group 855" transform="translate(2.319 16.477)">
        <g id="Group_854" data-name="Group 854" transform="translate(0 0)">
          <rect id="Rectangle_28" data-name="Rectangle 28" width="1.192" height="1.192" fill="#a1c969"/>
        </g>
      </g>
      <g id="Group_857" data-name="Group 857">
        <g id="Group_856" data-name="Group 856">
          <path id="Path_12558" data-name="Path 12558" d="M34.474,111.012a.584.584,0,0,0,.584-.584v-5.843a.584.584,0,0,0-.584-.584H.584a.584.584,0,0,0-.584.584v5.843a.584.584,0,0,0,.584.584,2.922,2.922,0,1,1,0,5.843.584.584,0,0,0-.584.584v5.843a.584.584,0,0,0,.584.584h33.89a.584.584,0,0,0,.584-.584v-5.843a.584.584,0,0,0-.584-.584,2.922,2.922,0,1,1,0-5.843Zm-4.052,3.5a4.09,4.09,0,0,0,3.468,3.468V122.7H1.169v-4.716a4.09,4.09,0,0,0,0-8.1v-4.716H33.89v4.716A4.09,4.09,0,0,0,30.423,114.514Z" transform="translate(0 -104)" fill="#a1c969"/>
        </g>
      </g>
      <g id="Group_859" data-name="Group 859" transform="translate(15.279 4.137)">
        <g id="Group_858" data-name="Group 858">
          <path id="Path_12559" data-name="Path 12559" d="M210.25,160a2.25,2.25,0,1,0,2.25,2.25A2.25,2.25,0,0,0,210.25,160Zm0,3.375a1.125,1.125,0,1,1,1.125-1.125A1.125,1.125,0,0,1,210.25,163.375Z" transform="translate(-208 -160)" fill="#a1c969"/>
        </g>
      </g>
      <g id="Group_861" data-name="Group 861" transform="translate(22.332 11.23)">
        <g id="Group_860" data-name="Group 860">
          <path id="Path_12560" data-name="Path 12560" d="M306.25,256a2.25,2.25,0,1,0,2.25,2.25A2.25,2.25,0,0,0,306.25,256Zm0,3.375a1.125,1.125,0,1,1,1.125-1.125A1.125,1.125,0,0,1,306.25,259.375Z" transform="translate(-304 -256)" fill="#a1c969"/>
        </g>
      </g>
      <g id="Group_863" data-name="Group 863" transform="translate(16.191 5.035)">
        <g id="Group_862" data-name="Group 862" transform="translate(0 0)">
          <rect id="Rectangle_29" data-name="Rectangle 29" width="12.727" height="1.125" transform="translate(0 8.999) rotate(-45)" fill="#a1c969"/>
        </g>
      </g>
    </g>
  </g>
</svg>
