<svg id="Group_28" data-name="Group 28" xmlns="http://www.w3.org/2000/svg" width="207.351" height="51" viewBox="0 0 207.351 51">
  <g id="Group_23" data-name="Group 23">
    <g id="Group_22" data-name="Group 22">
      <g id="Group_21" data-name="Group 21">
        <g id="Group_19" data-name="Group 19" transform="translate(42.783 5.853)">
          <path id="Path_67" data-name="Path 67" d="M190.518,293.577a19.483,19.483,0,0,1,1.363,1.938.839.839,0,0,1-.041.947,20.189,20.189,0,0,0-3.723,7.572c-.606,2.9-.192,5.543,1.136,7.244a4.857,4.857,0,0,0,3.687,1.906,5.028,5.028,0,0,0,3.973-1.665c1.045-1.147,2.174-3.4,1.615-7.634a23.285,23.285,0,0,0-2.271-7.027.825.825,0,0,1,.131-.93,25.559,25.559,0,0,1,9.165-6.452l.449-.167a1.106,1.106,0,0,0,.651-1.421l-.334-.9a1.1,1.1,0,0,0-1.421-.65l-.449.167a28.22,28.22,0,0,0-9.86,6.746.275.275,0,0,1-.426-.042c-.478-.718-.9-1.283-1.2-1.648l-.3-.37a1.105,1.105,0,0,0-1.556-.151l-.739.609a1.106,1.106,0,0,0-.15,1.556Zm3.007,5.96a.278.278,0,0,1,.486.043,18.579,18.579,0,0,1,1.376,4.721c.421,3.183-.33,4.552-.815,5.084a1.887,1.887,0,0,1-1.508.633,1.669,1.669,0,0,1-1.313-.69c-.743-.951-.941-2.688-.532-4.646A15.5,15.5,0,0,1,193.525,299.536Z" transform="translate(-187.845 -284.655)" fill="#ffbc36"/>
          <path id="Path_68" data-name="Path 68" d="M223.53,306.88a14.589,14.589,0,0,0-.97-1.177.817.817,0,0,1-.037-1.065,15.577,15.577,0,0,0,3.684-10.359,10.483,10.483,0,0,0-3.579-7.772,12.03,12.03,0,0,0-9.359-2.433l-.475.059a1.106,1.106,0,0,0-.962,1.232l.117.95a1.106,1.106,0,0,0,1.232.962l.475-.059a9.024,9.024,0,0,1,6.93,1.71,7.3,7.3,0,0,1,2.456,5.5,12.652,12.652,0,0,1-3.221,8.5.415.415,0,0,1-.533.077,14.6,14.6,0,0,0-6.979-2.2h-.024c-3.883-.151-6.031,2.212-6.147,4.628-.108,2.232,1.628,4.592,5.15,4.784a12.84,12.84,0,0,0,8.171-2.65.414.414,0,0,1,.544.038,11.537,11.537,0,0,1,.978,1.156,10.321,10.321,0,0,1,1.656,9.052,10.752,10.752,0,0,1-8.424,7.77c-4.475,1.018-11.08-.045-16.2-6.074l-.31-.365a1.105,1.105,0,0,0-1.558-.128l-.73.62a1.1,1.1,0,0,0-.128,1.557l.31.365a20.61,20.61,0,0,0,14.747,7.532,17.516,17.516,0,0,0,4.567-.419A14,14,0,0,0,225.7,318.619,13.582,13.582,0,0,0,223.53,306.88Zm-12.07.174c-1.351-.073-2.2-.65-2.158-1.469.041-.857,1.036-1.685,2.861-1.614h.015a11.15,11.15,0,0,1,4.465,1.177.277.277,0,0,1,.02.482A9.129,9.129,0,0,1,211.46,307.054Z" transform="translate(-190.009 -283.959)" fill="#ffbc36"/>
        </g>
        <g id="Group_20" data-name="Group 20">
          <path id="Path_69" data-name="Path 69" d="M163.777,316.654a13.381,13.381,0,0,1-16.083-.659l-.356-.321a1.106,1.106,0,0,0-1.561.082l-.641.711a1.105,1.105,0,0,0,.081,1.561l.356.321a15.994,15.994,0,0,0,13.151,3.6,16.885,16.885,0,0,0,6.828-2.67,12.566,12.566,0,0,0,5.68-11.337,10.573,10.573,0,0,0-6.21-8.859,12.469,12.469,0,0,0-2.647-.871.824.824,0,0,1-.629-.664,13.318,13.318,0,0,0-2.05-4.989,9.769,9.769,0,0,0-8.084-4.447,10.234,10.234,0,0,0-8.347,4.1,12.647,12.647,0,0,0-2.415,8.179l.052.469a1.105,1.105,0,0,0,1.218.976l.946-.1a1.106,1.106,0,0,0,.98-1.207l-.047-.477a9.6,9.6,0,0,1,1.834-5.983,7.135,7.135,0,0,1,5.74-2.786,6.681,6.681,0,0,1,5.51,3.069,10.148,10.148,0,0,1,1.48,3.415.3.3,0,0,1-.24.361c-3.927.776-6.7,2.994-7.9,5.469s-.831,4.953.943,6.3c1.935,1.472,4.881,1.095,7.165-.915a11.046,11.046,0,0,0,3.412-7.263.291.291,0,0,1,.361-.258,9.138,9.138,0,0,1,1.406.509,7.35,7.35,0,0,1,4.365,6.24A9.28,9.28,0,0,1,163.777,316.654Zm-5.218-15.26a.28.28,0,0,1,.321.314,7.776,7.776,0,0,1-2.495,4.9c-1.3,1.079-2.583,1.158-3.176.679-.516-.417-.492-1.336.061-2.4A7.5,7.5,0,0,1,158.559,301.393Z" transform="translate(-130.892 -279.357)" fill="#6fc3d3"/>
          <path id="Path_70" data-name="Path 70" d="M170.239,313.195a21.214,21.214,0,0,1-3.222,4.2,20.823,20.823,0,0,1-15.274,6.005,22.722,22.722,0,0,1-16.069-7.26,22.327,22.327,0,0,1,1.221-31.464,22.171,22.171,0,0,1,31.382,1.219l.325.351a1.1,1.1,0,0,0,1.562.062l.7-.65a1.1,1.1,0,0,0,.062-1.561l-.325-.352a25.338,25.338,0,0,0-35.863-1.392,25.5,25.5,0,0,0-1.4,35.936,25.866,25.866,0,0,0,17.908,8.265c.139.006.279.009.419.013a23.965,23.965,0,0,0,17.574-6.922,24.464,24.464,0,0,0,3.726-4.846l.242-.413a1.106,1.106,0,0,0-.4-1.513l-.826-.483a1.105,1.105,0,0,0-1.513.395Z" transform="translate(-126.61 -275.582)" fill="#6fc3d3"/>
        </g>
      </g>
    </g>
  </g>
  <g id="Group_27" data-name="Group 27" transform="translate(94.904 19.032)">
    <g id="Group_25" data-name="Group 25" transform="translate(50.402 0.436)">
      <g id="Group_24" data-name="Group 24" transform="translate(0 0.753)">
        <path id="Path_71" data-name="Path 71" d="M387.3,323.073h0a.928.928,0,0,0,.78.3h1.307a.967.967,0,0,0,1.016-1.045v-7.236c0-2.374-.542-3.949-1.754-5.106a6.077,6.077,0,0,0-4.212-1.513c-.126,0-.253,0-.382.009a6.589,6.589,0,0,0-4.7,2.119l-.259.3-.054-1.42a.9.9,0,0,0-.972-.912h-1.022c-1.039,0-1.119.469-1.119,1.131v12.726a.873.873,0,0,0,.221.669,2.26,2.26,0,0,0,1.537.279c.2-.006.372-.008.512,0a.858.858,0,0,0,.939-.945V315.6a4,4,0,0,1,1.867-3.469,4.773,4.773,0,0,1,4.3-.491,3.382,3.382,0,0,1,1.822,3.432v7.293A1.24,1.24,0,0,0,387.3,323.073Z" transform="translate(-347.042 -305.715)" fill="#8c8886"/>
        <path id="Path_72" data-name="Path 72" d="M344.325,315.8a2.122,2.122,0,0,1,.351-1.176c1.13-1.711,5.893-8.917,5.972-9.023a.722.722,0,0,0,.089-.748.623.623,0,0,0-.587-.328l-1.91,0a1.174,1.174,0,0,0-.757.537c-.077.113-3.667,5.434-4.5,6.674a.347.347,0,0,1-.286.152.343.343,0,0,1-.286-.152l-4.1-6.082-.4-.592a1.178,1.178,0,0,0-.78-.538h-1.889a.614.614,0,0,0-.587.328.726.726,0,0,0,.09.749c.081.108,4.854,7.331,5.972,9.023a2.121,2.121,0,0,1,.351,1.176v5.161a.857.857,0,0,0,.973.906h.269l.826,0h.219a.858.858,0,0,0,.975-.906Z" transform="translate(-334.583 -304.525)" fill="#8c8886"/>
      </g>
      <path id="Path_73" data-name="Path 73" d="M413.918,322.811a.935.935,0,0,0,.688.231h.05c.124-.008.282,0,.446,0a2.1,2.1,0,0,0,1.3-.222.786.786,0,0,0,.336-.653V309.022a.88.88,0,0,0-.317-.713l-.01-.01a1.963,1.963,0,0,0-1.288-.243h-.079c-.106,0-.2,0-.293,0a.943.943,0,0,0-.766.289,2.058,2.058,0,0,0-.271,1.1l-.034.461-.246-.291a5.655,5.655,0,0,0-4.446-1.8,8.175,8.175,0,0,0-3.139.625,7.523,7.523,0,0,0-4.526,7.157,7.447,7.447,0,0,0,4.557,7.146c2.276.952,5.692.819,7.475-1.056l.272-.284,0,.393A1.378,1.378,0,0,0,413.918,322.811Zm-4.9-2.257a5.041,5.041,0,1,1,4.722-5.03A4.777,4.777,0,0,1,409.02,320.553Z" transform="translate(-354.693 -304.762)" fill="#8c8886"/>
      <path id="Path_74" data-name="Path 74" d="M364.022,303.447a1.912,1.912,0,1,0,1.913,1.912A1.914,1.914,0,0,0,364.022,303.447Z" transform="translate(-342.878 -303.447)" fill="#8c8886"/>
      <path id="Rectangle_3" data-name="Rectangle 3" d="M1.071,0h1.07A1.069,1.069,0,0,1,3.21,1.069v9.589A1.071,1.071,0,0,1,2.14,11.729H1.071A1.071,1.071,0,0,1,0,10.658V1.071A1.071,1.071,0,0,1,1.071,0Z" transform="translate(19.54 6.683)" fill="#8c8886"/>
    </g>
    <g id="Group_26" data-name="Group 26" transform="translate(0 0)">
      <path id="Path_75" data-name="Path 75" d="M298.756,311.664c-.219.245-.521.581-.692.76a1.29,1.29,0,0,1-1.873-1.775c3.788-3.994,4.4-6.775,4.407-6.8a1.29,1.29,0,0,1,2.53.507,11.937,11.937,0,0,1-1.385,3.238,1,1,0,0,0-.134.487l-.008,12.191a1.291,1.291,0,0,1-2.582,0v-8.147c0-.228,0-.511-.069-.541S298.835,311.576,298.756,311.664Z" transform="translate(-272.507 -302.822)" fill="#8c8886"/>
      <path id="Path_76" data-name="Path 76" d="M309.486,321.423a7.518,7.518,0,0,0,2.347.324c2.353-.077,4.183-1.313,4.183-4.411v-3.273a.165.165,0,0,1,.166-.166h3.624a1.27,1.27,0,0,0,1.286-1.091,1.222,1.222,0,0,0-1.214-1.347h-3.694a.165.165,0,0,1-.165-.168l.015-.929a.532.532,0,0,1,.21-.408,12.066,12.066,0,0,0,3.131-3.431,2.02,2.02,0,0,0,.119-1.89,1.894,1.894,0,0,0-1.718-1.077h-8.235a1.344,1.344,0,0,0-1.36,1.156,1.292,1.292,0,0,0,1.283,1.425h6.761a.123.123,0,0,1,.087.21A19.632,19.632,0,0,1,314,308.4c-.568.385-.564.8-.564,1.368v1.524a.165.165,0,0,1-.166.165h-5.307a1.271,1.271,0,0,0-1.286,1.092,1.221,1.221,0,0,0,1.214,1.346h5.38a.165.165,0,0,1,.166.166v3.273c0,1.023-.821,2.267-3.168,1.628a1.461,1.461,0,0,0-.388-.061,1.3,1.3,0,0,0-1.232.9,1.29,1.29,0,0,0,.839,1.62Z" transform="translate(-275.77 -303.043)" fill="#8c8886"/>
      <path id="Path_77" data-name="Path 77" d="M279.469,303.164H263.675a1.232,1.232,0,0,0-1.231,1.231v16.393a1.232,1.232,0,0,0,1.231,1.231,1.218,1.218,0,0,0,1.161-.88l.01-.034H278.3l.01.034a1.215,1.215,0,0,0,1.159.88,1.233,1.233,0,0,0,1.232-1.231V304.4A1.233,1.233,0,0,0,279.469,303.164Zm-1.425,15.622H265.1a.194.194,0,0,1-.194-.194V305.82a.2.2,0,0,1,.194-.195h12.942a.2.2,0,0,1,.194.195v12.771A.194.194,0,0,1,278.043,318.786Z" transform="translate(-262.444 -302.925)" fill="#8c8886"/>
      <path id="Path_78" data-name="Path 78" d="M270.351,319.275a5.774,5.774,0,0,0,1.582.2c1.745,0,3.171-.79,3.171-3.043v-.9a.108.108,0,0,1,.108-.108h2.512a.973.973,0,0,0,.975-.778.937.937,0,0,0-.922-1.093h-2.559c-.108,0-.115-.062-.115-.129v-.388a.079.079,0,0,1,.033-.068,6.268,6.268,0,0,0,.734-.43,3.521,3.521,0,0,0,1.693-3.211,1.044,1.044,0,0,0-1.033-.908h-6.668a1.083,1.083,0,0,0-1.086.866,1.043,1.043,0,0,0,1.028,1.218h5.324c.129,0,.188.1.044.251a4.246,4.246,0,0,1-1.469.989.882.882,0,0,0-.682,1v.7a.108.108,0,0,1-.108.108h-4.16a.972.972,0,0,0-.975.778.937.937,0,0,0,.922,1.093h4.212a.108.108,0,0,1,.108.108v.762a1.065,1.065,0,0,1-1.281,1.112,5.529,5.529,0,0,1-.908-.163,1.02,1.02,0,0,0-.237-.028,1.047,1.047,0,0,0-1.017.8,1.042,1.042,0,0,0,.773,1.254Z" transform="translate(-264.047 -304.511)" fill="#8c8886"/>
    </g>
  </g>
</svg>
