<svg xmlns="http://www.w3.org/2000/svg" width="32.25" height="32.249" viewBox="0 0 32.25 32.249">
  <g id="Group_890" data-name="Group 890" transform="translate(-387.75 -5216.75)">
    <g id="question" transform="translate(387.75 5216.75)">
      <g id="Group_869" data-name="Group 869" transform="translate(0)">
        <g id="Group_868" data-name="Group 868">
          <path id="Path_12563" data-name="Path 12563" d="M8.039,2.175a16.126,16.126,0,0,1,23.4,19,15.417,15.417,0,0,1-2.321,4.475l0,0v0l0,0h0a.469.469,0,0,1-.391.106h0a.44.44,0,0,1-.089-.026h0l-.011-.005h0a.473.473,0,0,1-.194-.712,15.186,15.186,0,1,0-3.4,3.4.477.477,0,0,1,.5-.033l5.3,2.87a.325.325,0,0,0,.478-.279c0-.113.115.135-2.014-3.8a.472.472,0,1,1,.83-.45c2.143,3.955,2.13,3.823,2.129,4.246a1.27,1.27,0,0,1-1.873,1.11l-5.044-2.731A16.124,16.124,0,1,1,8.039,2.175Z" transform="translate(0 0)" fill="#a1c969"/>
        </g>
      </g>
    </g>
    <text id="Q15" transform="translate(391 5236.996)" fill="#a1c969" font-size="13" font-family="Arial-BoldMT, Arial" font-weight="700"><tspan x="0" y="0">Q15</tspan></text>
  </g>
</svg>
