<?xml version="1.0" encoding="utf-8"?>
<!-- Generator: Adobe Illustrator 16.0.0, SVG Export Plug-In . SVG Version: 6.00 Build 0)  -->
<!DOCTYPE svg PUBLIC "-//W3C//DTD SVG 1.1//EN" "http://www.w3.org/Graphics/SVG/1.1/DTD/svg11.dtd">
<svg version="1.1" id="圖層_1" xmlns="http://www.w3.org/2000/svg" xmlns:xlink="http://www.w3.org/1999/xlink" x="0px" y="0px"
	 width="15px" height="80px" viewBox="0 0 15 80" enable-background="new 0 0 15 80" xml:space="preserve">
<g>
	<g>
		<path fill="#5D8026" d="M6.942,17.965H3.497v-0.996h9.076v2.449c0,0.949-0.236,1.691-0.709,2.227s-1.137,0.803-1.992,0.803
			c-0.891,0-1.609-0.314-2.156-0.943S6.911,20.1,6.942,19.178V17.965z M11.653,17.965H7.874v1.137c0,0.746,0.169,1.315,0.507,1.708
			s0.819,0.589,1.444,0.589c1.219,0,1.828-0.719,1.828-2.156V17.965z"/>
		<path fill="#5D8026" d="M3.497,31.341v-1.107l2.578-0.984v-3.891l-2.578-0.92v-1.113l9.076,3.492v1.014L3.497,31.341z
			 M6.989,28.909l3.92-1.453c0.109-0.039,0.309-0.084,0.598-0.134v-0.03c-0.266-0.043-0.465-0.092-0.598-0.146l-3.92-1.436V28.909z"
			/>
		<path fill="#5D8026" d="M4.118,40.463c-0.516-0.906-0.773-1.914-0.773-3.023c0-1.285,0.421-2.326,1.263-3.121
			s1.944-1.191,3.308-1.191c1.398,0,2.55,0.441,3.454,1.326s1.356,2.006,1.356,3.361c0,1-0.162,1.826-0.486,2.479h-1.131
			c0.465-0.727,0.697-1.594,0.697-2.602c0-1.027-0.353-1.871-1.058-2.529s-1.624-0.986-2.757-0.986
			c-1.156,0-2.068,0.303-2.736,0.908s-1.002,1.438-1.002,2.496c0,0.73,0.146,1.357,0.439,1.881h2.596v-1.998h0.914v3H4.118z"/>
		<path fill="#5D8026" d="M3.497,48.559v-4.77h9.076v4.564h-0.914v-3.568H8.571v3.299H7.657v-3.299H4.411v3.773H3.497z"/>
		<path fill="#5D8026" d="M11.659,61.02V58.4H3.497v-1.002h8.162v-2.613h0.914v6.234H11.659z"/>
		<path fill="#5D8026" d="M7.927,62.483c1.457,0,2.621,0.396,3.492,1.187s1.307,1.861,1.307,3.208c0,1.25-0.426,2.257-1.277,3.021
			s-1.949,1.146-3.293,1.146c-1.449,0-2.613-0.386-3.492-1.157s-1.318-1.825-1.318-3.161c0-1.277,0.428-2.304,1.283-3.079
			S6.583,62.483,7.927,62.483z M8.021,63.532c-1.09,0-1.991,0.29-2.704,0.867c-0.713,0.578-1.069,1.352-1.069,2.32
			c0,1.035,0.337,1.841,1.011,2.417s1.589,0.864,2.745,0.864c1.195,0,2.129-0.278,2.801-0.835s1.008-1.344,1.008-2.364
			c0-0.992-0.358-1.785-1.075-2.379S9.114,63.532,8.021,63.532z"/>
		<path fill="#5D8026" d="M6.942,75.045H3.497v-0.996h9.076v2.449c0,0.949-0.236,1.691-0.709,2.227s-1.137,0.803-1.992,0.803
			c-0.891,0-1.609-0.314-2.156-0.943s-0.805-1.404-0.773-2.326V75.045z M11.653,75.045H7.874v1.137c0,0.746,0.169,1.314,0.507,1.707
			s0.819,0.59,1.444,0.59c1.219,0,1.828-0.719,1.828-2.156V75.045z"/>
	</g>
	<polygon fill="#5D8026" points="2.25,9 7.25,0.379 12.25,9 	"/>
</g>
<g>
	<path fill="#5D8026" d="M1373.771,6362.311h-3.445v-0.996h9.076v2.449c0,0.949-0.236,1.691-0.709,2.227s-1.137,0.803-1.992,0.803
		c-0.891,0-1.609-0.314-2.156-0.943s-0.805-1.404-0.773-2.326V6362.311z M1378.482,6362.311h-3.779v1.137
		c0,0.746,0.169,1.315,0.507,1.708s0.819,0.589,1.444,0.589c1.219,0,1.828-0.719,1.828-2.156V6362.311z"/>
	<path fill="#5D8026" d="M1370.326,6375.687v-1.107l2.578-0.984v-3.891l-2.578-0.92v-1.113l9.076,3.492v1.014L1370.326,6375.687z
		 M1373.818,6373.255l3.92-1.453c0.109-0.039,0.309-0.084,0.598-0.134v-0.03c-0.266-0.043-0.465-0.092-0.598-0.146l-3.92-1.436
		V6373.255z"/>
	<path fill="#5D8026" d="M1370.947,6384.809c-0.516-0.906-0.773-1.914-0.773-3.023c0-1.285,0.421-2.326,1.263-3.121
		s1.944-1.191,3.308-1.191c1.398,0,2.55,0.441,3.454,1.326s1.356,2.006,1.356,3.361c0,1-0.162,1.826-0.486,2.479h-1.131
		c0.465-0.727,0.697-1.594,0.697-2.602c0-1.027-0.353-1.871-1.058-2.529s-1.624-0.986-2.757-0.986c-1.156,0-2.068,0.303-2.736,0.908
		s-1.002,1.438-1.002,2.496c0,0.73,0.146,1.357,0.439,1.881h2.596v-1.998h0.914v3H1370.947z"/>
	<path fill="#5D8026" d="M1370.326,6392.904v-4.77h9.076v4.564h-0.914v-3.568h-3.088v3.299h-0.914v-3.299h-3.246v3.773H1370.326z"/>
	<path fill="#5D8026" d="M1378.488,6405.365v-2.619h-8.162v-1.002h8.162v-2.613h0.914v6.234H1378.488z"/>
	<path fill="#5D8026" d="M1374.756,6406.829c1.457,0,2.621,0.396,3.492,1.187s1.307,1.861,1.307,3.208
		c0,1.25-0.426,2.257-1.277,3.021s-1.949,1.146-3.293,1.146c-1.449,0-2.613-0.386-3.492-1.157s-1.318-1.825-1.318-3.161
		c0-1.277,0.428-2.304,1.283-3.079S1373.412,6406.829,1374.756,6406.829z M1374.85,6407.878c-1.09,0-1.991,0.29-2.704,0.867
		c-0.713,0.578-1.069,1.352-1.069,2.32c0,1.035,0.337,1.841,1.011,2.417s1.589,0.864,2.745,0.864c1.195,0,2.129-0.278,2.801-0.835
		s1.008-1.344,1.008-2.364c0-0.992-0.358-1.785-1.075-2.379S1375.943,6407.878,1374.85,6407.878z"/>
	<path fill="#5D8026" d="M1373.771,6419.391h-3.445v-0.996h9.076v2.449c0,0.949-0.236,1.691-0.709,2.227s-1.137,0.803-1.992,0.803
		c-0.891,0-1.609-0.314-2.156-0.943s-0.805-1.404-0.773-2.326V6419.391z M1378.482,6419.391h-3.779v1.137
		c0,0.746,0.169,1.314,0.507,1.707s0.819,0.59,1.444,0.59c1.219,0,1.828-0.719,1.828-2.156V6419.391z"/>
</g>
<polygon fill="#5D8026" points="1369.25,6354 1374.25,6345.379 1379.25,6354 "/>
<g>
	<path fill="#5D8026" d="M1373.771,6362.311h-3.445v-0.996h9.076v2.449c0,0.949-0.236,1.691-0.709,2.227s-1.137,0.803-1.992,0.803
		c-0.891,0-1.609-0.314-2.156-0.943s-0.805-1.404-0.773-2.326V6362.311z M1378.482,6362.311h-3.779v1.137
		c0,0.746,0.169,1.315,0.507,1.708s0.819,0.589,1.444,0.589c1.219,0,1.828-0.719,1.828-2.156V6362.311z"/>
	<path fill="#5D8026" d="M1370.326,6375.687v-1.107l2.578-0.984v-3.891l-2.578-0.92v-1.113l9.076,3.492v1.014L1370.326,6375.687z
		 M1373.818,6373.255l3.92-1.453c0.109-0.039,0.309-0.084,0.598-0.134v-0.03c-0.266-0.043-0.465-0.092-0.598-0.146l-3.92-1.436
		V6373.255z"/>
	<path fill="#5D8026" d="M1370.947,6384.809c-0.516-0.906-0.773-1.914-0.773-3.023c0-1.285,0.421-2.326,1.263-3.121
		s1.944-1.191,3.308-1.191c1.398,0,2.55,0.441,3.454,1.326s1.356,2.006,1.356,3.361c0,1-0.162,1.826-0.486,2.479h-1.131
		c0.465-0.727,0.697-1.594,0.697-2.602c0-1.027-0.353-1.871-1.058-2.529s-1.624-0.986-2.757-0.986c-1.156,0-2.068,0.303-2.736,0.908
		s-1.002,1.438-1.002,2.496c0,0.73,0.146,1.357,0.439,1.881h2.596v-1.998h0.914v3H1370.947z"/>
	<path fill="#5D8026" d="M1370.326,6392.904v-4.77h9.076v4.564h-0.914v-3.568h-3.088v3.299h-0.914v-3.299h-3.246v3.773H1370.326z"/>
	<path fill="#5D8026" d="M1378.488,6405.365v-2.619h-8.162v-1.002h8.162v-2.613h0.914v6.234H1378.488z"/>
	<path fill="#5D8026" d="M1374.756,6406.829c1.457,0,2.621,0.396,3.492,1.187s1.307,1.861,1.307,3.208
		c0,1.25-0.426,2.257-1.277,3.021s-1.949,1.146-3.293,1.146c-1.449,0-2.613-0.386-3.492-1.157s-1.318-1.825-1.318-3.161
		c0-1.277,0.428-2.304,1.283-3.079S1373.412,6406.829,1374.756,6406.829z M1374.85,6407.878c-1.09,0-1.991,0.29-2.704,0.867
		c-0.713,0.578-1.069,1.352-1.069,2.32c0,1.035,0.337,1.841,1.011,2.417s1.589,0.864,2.745,0.864c1.195,0,2.129-0.278,2.801-0.835
		s1.008-1.344,1.008-2.364c0-0.992-0.358-1.785-1.075-2.379S1375.943,6407.878,1374.85,6407.878z"/>
	<path fill="#5D8026" d="M1373.771,6419.391h-3.445v-0.996h9.076v2.449c0,0.949-0.236,1.691-0.709,2.227s-1.137,0.803-1.992,0.803
		c-0.891,0-1.609-0.314-2.156-0.943s-0.805-1.404-0.773-2.326V6419.391z M1378.482,6419.391h-3.779v1.137
		c0,0.746,0.169,1.314,0.507,1.707s0.819,0.59,1.444,0.59c1.219,0,1.828-0.719,1.828-2.156V6419.391z"/>
</g>
<polygon fill="#5D8026" points="1369.25,6354 1374.25,6345.379 1379.25,6354 "/>
</svg>
