<svg xmlns="http://www.w3.org/2000/svg" width="449.055" height="70.182" viewBox="0 0 449.055 70.182">
  <g id="Group_907" data-name="Group 907" transform="translate(-735.473 -4882.543)">
    <path id="Path_12531" data-name="Path 12531" d="M683.847,423.328c-1.4-7.263-3.751-14.439-3.849-21.814-.108-7.88-1.1-15.752-1.754-23.624-.042-.527-.529-1.036-.851-1.631-4.228.471-8.194,1.2-12.2,1.294-9.2.221-18.417.056-27.621.194-15.606.228-31.2.7-46.8.83-16.116.142-32.246.075-48.366-.03-14.479-.094-28.953-.419-43.432-.535-15.976-.123-31.951-.142-47.922-.168-10.677-.019-33.621.561-44.3.617l-.033.007c-55.821-.74-111.628-.026-167.87-1.126-1.2,8.325-2.614,16.492-1,24.727.622,3.171.617,3.171,5.575,4.619a31.651,31.651,0,0,1,1.244,16.949c-.968,4.88.687,4.514,7.16,5.135,1.281.123,2.628.026,3.942.026a95.536,95.536,0,0,1,10.153.063c14.2,1.567,28.5.912,42.768.939,12.8.026,25.6-.191,38.4-.1,25.02.161,50.036.445,75.056.707,11.467.123,22.939.546,34.4.438,23.313-.217,46.622-.729,69.935-1.066,14.3-.209,28.612-.449,42.913-.437,16.182.015,32.358.329,48.539.441,7.717.052,15.438-.086,23.154-.094,13.165-.015,26.325.03,39.49-.019,2.937-.011,4-.752,3.97-2.588A22.482,22.482,0,0,0,683.847,423.328Z" transform="matrix(0.999, -0.035, 0.035, 0.999, 485.358, 4530.404)" fill="#fff"/>
    <text id="_5_4開賣_5_10_活動正式開跑_" data-name="5/4開賣，5/10 活動正式開跑！" transform="matrix(0.999, -0.035, 0.035, 0.999, 969.86, 4927.645)" fill="#333" font-size="24" font-family="NotoSansCJKtc-Medium, Noto Sans CJK TC" font-weight="500" letter-spacing="0.1em"><tspan x="-186.66" y="0">5/4開賣，</tspan><tspan y="0" fill="#f3407b">5/10</tspan><tspan y="0" xml:space="preserve"> 活動正式開跑！</tspan></text>
  </g>
</svg>
