<svg xmlns="http://www.w3.org/2000/svg" width="13.247" height="15.14" viewBox="0 0 13.247 15.14">
  <path id="trash-alt-solid" d="M.946,13.72A1.419,1.419,0,0,0,2.366,15.14h8.516A1.419,1.419,0,0,0,12.3,13.72V3.785H.946ZM8.989,6.15a.473.473,0,0,1,.946,0v6.624a.473.473,0,0,1-.946,0Zm-2.839,0a.473.473,0,0,1,.946,0v6.624a.473.473,0,1,1-.946,0Zm-2.839,0a.473.473,0,0,1,.946,0v6.624a.473.473,0,1,1-.946,0Zm9.462-5.2H9.226L8.948.393A.71.71,0,0,0,8.312,0H4.932A.7.7,0,0,0,4.3.393L4.022.946H.473A.473.473,0,0,0,0,1.419v.946a.473.473,0,0,0,.473.473h12.3a.473.473,0,0,0,.473-.473V1.419A.473.473,0,0,0,12.774.946Z" transform="translate(0 0)" fill="#24a09a"/>
</svg>
