<svg viewBox="0 0 181.54 133.36" xmlns="http://www.w3.org/2000/svg"><path d="m143.09 106.15a26.34 26.34 0 0 1 -4.16 9.61c-3.83 5.79-7 7.19-9.13 4.9a4.72 4.72 0 0 1 -1.22-3.23" fill="#b7c6d6"/><path d="m91.13 128s-4.18 6-9.94 5.25l-.44-4.95" fill="#b7c6d6"/><path d="m174.47 65.69c2.12-1.14 6.74-19.61 7-21.18s-.36-2.64-1.38-2.86a2.53 2.53 0 0 0 -2.58 1.29c-.67.94-5.11 7.37-5.11 7.37l-1.4 1.69-4.31 11.54z" fill="#c2dae2"/><path d="m29.55 110.33c11.57 2.56 28.26 2.1 39.36-5.06a102.87 102.87 0 0 0 15.59-12.65c11.17-10.52 25.31-24.37 38.5-33.47s29.86-20.86 42-25.84c0 0 .22 6.65.85 18.33.19 3.49 0 8.15 2.7 9.61s4.81 1.54 5.61 3.4c1.12 2.6-1.58 8.56-3.18 14.19s-4.4 12.49-7.98 12.69a11.51 11.51 0 0 1 -2.19-.15l-.55 1.28c.14.85 0 2.28-1.61 4.25s-15.77 20-48 28.38c-37.14 9.71-69-.62-82.44-9.68l.74-2z" fill="#e9f0f8"/><path d="m166.51 75.08a13.44 13.44 0 0 1 -2.81 2.17 15.58 15.58 0 0 1 -3.21 1.48c-1.14.34-2.31.55-3.46.78s-2.29.53-3.47.68a12.58 12.58 0 0 1 -7.06-1.12 13.38 13.38 0 0 1 -5.31-4.71.05.05 0 0 1 0-.08 0 0 0 0 1 .07 0 25.16 25.16 0 0 0 5.74 3.66 19.37 19.37 0 0 0 3.15 1.13 20.48 20.48 0 0 0 3.35.48 10.7 10.7 0 0 0 3.41-.41 21.71 21.71 0 0 0 3.2-1.31c2.1-.91 4.18-1.84 6.3-2.84a.06.06 0 0 1 .08 0s.04.08.02.09z" fill="#a2a2a2" opacity=".53"/><path d="m35.46 111.92s-4.87-14.33-8.26-20.68-6.05-8.72-8.56-8.58a76 76 0 0 0 1 17.58c.5 3.14 1.92 7 1 9s-4.62 3.67-7.24 5.47a75.59 75.59 0 0 0 -13.4 11.37c1.62 1.92 5.17 2.22 12.11.3s20.69-8.26 20.69-8.26a3.85 3.85 0 0 1 -1.37-4c.46-2.85 4.03-2.2 4.03-2.2z" fill="#204d7b"/><path d="m121.4 56.62s-11.1-2.94-19 5.06l5.13 5.08" fill="#3e5c88"/><path d="m77.92 91.14s-7-.85-10 1.72-.21 5.93-.21 5.93" fill="#3e5c88"/><path d="m167.86 61s2.8-1.54 4-7.13c1.06-4.89 1.37-17.82 1.33-19.09-.19-4.78-5.38-4.62-8.19-1.47l-6.39 12.31 6.69 15.1 1.66.72z" fill="#8db0ce"/><path d="m82.63 86.71a348.91 348.91 0 0 1 39-31.2c13.23-9.1 31.28-17.22 43.39-22.2 0 0 .22 6.65.85 18.33.18 3.22 0 7.43 2.12 9.21-4.74 5.35-6.13 7.88-24 10.21-17.66 4.36-23.64 14.31-35.11 23.12s-30.79 36.61-78.33 19.29c.22-1 .43-2 .64-2.85 18.51 2.85 41.58-14.62 51.44-23.91z" fill="#204d7b"/><circle cx="151" cy="56.83" fill="#fff" r="8.61" stroke="#5473b4" stroke-linecap="round" stroke-linejoin="round" stroke-width="1.75"/><circle cx="151" cy="56.83" fill="#374879" r="4.64"/><path d="m157.87 72.63a3.93 3.93 0 0 1 -1.44.73 4.4 4.4 0 0 1 -1.57.19c-.54 0-1.06-.23-1.57-.32a13.51 13.51 0 0 0 -1.57-.09c-.27 0-.54 0-.81-.06s-.53-.13-.79-.2a7.21 7.21 0 0 1 -.77-.3 2.79 2.79 0 0 1 -.71-.41 4.88 4.88 0 0 1 -1.9-2.61.06.06 0 0 1 0-.07h.06c.93.57 1.63 1.19 2.48 1.63a21.06 21.06 0 0 0 2.54 1.38 3.37 3.37 0 0 0 1.46.35 6.87 6.87 0 0 0 1.49-.28 12.68 12.68 0 0 1 3-.06.06.06 0 0 1 0 .07.05.05 0 0 1 .1.05z" fill="#a2a2a2" opacity=".53"/><g fill="#374879" opacity=".37"><path d="m21.59 89.88a11.63 11.63 0 0 1 2.29 1.9 18.57 18.57 0 0 1 1.81 2.22 25.78 25.78 0 0 1 2.68 5c.72 1.77 1.25 3.56 1.9 5.32.32.88.65 1.76 1 2.63a12 12 0 0 0 1.24 2.51 12 12 0 0 1 -1.37-2.45c-.4-.86-.77-1.72-1.13-2.59-.74-1.73-1.37-3.51-2.15-5.19a25.89 25.89 0 0 0 -2.86-4.7 18 18 0 0 0 -1.83-2 10.26 10.26 0 0 0 -2.1-1.6.58.58 0 0 1 -.23-.77.57.57 0 0 1 .77-.22z"/><path d="m21.66 96a15.32 15.32 0 0 1 3.05 3.14 28.43 28.43 0 0 1 2.29 3.64c.65 1.24 1.32 2.47 2.05 3.67a35.3 35.3 0 0 0 2.33 3.49 38 38 0 0 1 -2.57-3.34c-.8-1.15-1.56-2.35-2.3-3.54a27 27 0 0 0 -2.45-3.36 14.5 14.5 0 0 0 -3-2.71.58.58 0 0 1 -.18-.78.57.57 0 0 1 .78-.17z"/><path d="m22.82 103.21a13.37 13.37 0 0 1 2.18 1.61 18.69 18.69 0 0 1 1.78 1.89l3.2 4-3.62-3.61a16.26 16.26 0 0 0 -1.9-1.62 13 13 0 0 0 -2.08-1.26.56.56 0 1 1 .47-1 .05.05 0 0 1 -.03-.01z"/><path d="m22.87 107.76a8.28 8.28 0 0 1 2 .81 11.71 11.71 0 0 1 1.73 1.18l3.12 2.58-3.45-2.12a10.19 10.19 0 0 0 -1.75-.87 7.69 7.69 0 0 0 -1.81-.47.56.56 0 0 1 -.51-.62.55.55 0 0 1 .61-.5z"/></g><g fill="#374879" opacity=".37"><path d="m7.67 122.12a10.63 10.63 0 0 0 2.6.43 18.1 18.1 0 0 0 2.75-.09 25.47 25.47 0 0 0 5.41-1.21c1.76-.59 3.48-1.35 5.24-2 .88-.34 1.76-.66 2.65-1a12.45 12.45 0 0 1 2.73-.7 12.22 12.22 0 0 0 -2.68.83c-.87.34-1.73.71-2.59 1.09-1.72.74-3.39 1.59-5.16 2.28a26.51 26.51 0 0 1 -5.5 1.52 18.22 18.22 0 0 1 -2.87.23 11.36 11.36 0 0 1 -3-.34.57.57 0 0 1 .3-1.09h.08z"/><path d="m12.1 117.92a15 15 0 0 0 4 .29 27.34 27.34 0 0 0 4.12-.54c1.37-.29 2.76-.56 4.15-.78a34.75 34.75 0 0 1 4.2-.43 36.33 36.33 0 0 0 -4.15.71c-1.37.3-2.72.66-4.07 1a27.87 27.87 0 0 1 -4.18.84 15.34 15.34 0 0 1 -4.38 0 .56.56 0 0 1 -.45-.65.56.56 0 0 1 .65-.46z"/><path d="m18.19 113.85a13.06 13.06 0 0 0 2.35.64 17.23 17.23 0 0 0 2.49.26l5.1.14-5.09.43a18.79 18.79 0 0 1 -2.6 0 13.08 13.08 0 0 1 -2.64-.43.56.56 0 0 1 -.39-.69.58.58 0 0 1 .7-.4h.06z"/><path d="m21.84 110.92a7.07 7.07 0 0 0 1.58 1 10.67 10.67 0 0 0 1.84.68l3.91 1-4-.49a13.14 13.14 0 0 1 -2-.44 8.5 8.5 0 0 1 -2-.9.56.56 0 0 1 .61-1l.06.05z"/></g><path d="m157.64 90.93s-15.7-3.93-23.85-12.29" style="fill:none;stroke:#bcbcbc;stroke-linecap:round;stroke-linejoin:round;stroke-width:2.37;opacity:.53"/><path d="m137 84.27s-7.1-3.52-21.35 8.63c-10.69 9.11-31.15 35-63.38 27.16 17.55 5.83 31.38 5.27 51.27-10 11.79-9.06 25.95-27.55 33.46-25.79z" fill="#bcbcbc" opacity=".53"/><g fill="#8db0ce"><path d="m135.25 23.74-11.46-19.8 10.46-3.94 5.48 21.74z"/><path d="m137.1 27.26 4.37-2 2.15 4.28-5 1.92a30.83 30.83 0 0 0 -1.52-4.2z"/></g></svg>