<?xml version="1.0" encoding="utf-8"?>
<!-- Generator: Adobe Illustrator 26.1.0, SVG Export Plug-In . SVG Version: 6.00 Build 0)  -->
<svg version="1.1" id="Layer_1" xmlns="http://www.w3.org/2000/svg" xmlns:xlink="http://www.w3.org/1999/xlink" x="0px" y="0px"
	 viewBox="0 0 67 66" style="enable-background:new 0 0 67 66;" xml:space="preserve">
<style type="text/css">
	.st0{fill:#E5A319;}
	.st1{fill:#1482F9;}
	.st2{fill:#1EBF8C;}
	.st3{fill:#4CAF50;}
	.st4{fill:#FFFFFF;}
</style>
<circle class="st0" cx="33.5" cy="33" r="33"/>
<circle class="st1" cx="33.5" cy="33" r="33"/>
<circle class="st2" cx="33.5" cy="33" r="33"/>
<circle class="st3" cx="33.5" cy="33" r="33"/>
<path class="st4" d="M33.5,10.2c-14.2,0-25.7,9.4-25.7,21c0,10.4,9.2,19.1,21.5,20.7c0.8,0.2,2,0.6,2.3,1.3c0.3,0.6,0.2,1.7,0.1,2.3
	l-0.4,2.2c-0.1,0.6-0.5,2.6,2.2,1.4c2.8-1.2,14.8-8.8,20.2-15c3.7-4.1,5.5-8.2,5.5-12.9C59.2,19.6,47.7,10.2,33.5,10.2L33.5,10.2z
	 M23.4,38.1h-5.1c-0.7,0-1.4-0.6-1.4-1.4V26.5c0-0.7,0.6-1.4,1.4-1.4c0.7,0,1.4,0.6,1.4,1.4v8.9h3.8c0.7,0,1.3,0.6,1.3,1.4
	C24.8,37.5,24.2,38.1,23.4,38.1z M28.7,36.8c0,0.7-0.6,1.4-1.4,1.4c-0.7,0-1.3-0.6-1.3-1.4V26.5c0-0.7,0.6-1.4,1.4-1.4
	c0.7,0,1.3,0.6,1.3,1.4L28.7,36.8z M41,36.8c0,0.6-0.4,1.1-0.9,1.3c-0.1,0-0.3,0.1-0.4,0.1c-0.5,0-0.8-0.2-1.1-0.5l-5.2-7.2v6.3
	c0,0.7-0.6,1.4-1.4,1.4c-0.7,0-1.3-0.6-1.3-1.4V26.5c0-0.6,0.4-1.1,0.9-1.3c0.1,0,0.3-0.1,0.4-0.1c0.4,0,0.8,0.2,1.1,0.5l5.3,7.2
	v-6.4c0-0.7,0.6-1.4,1.4-1.4c0.7,0,1.4,0.6,1.4,1.4V36.8z M49.3,30.2c0.7,0,1.4,0.6,1.4,1.4c0,0.7-0.6,1.4-1.4,1.4h-3.8v2.4h3.8
	c0.7,0,1.4,0.6,1.4,1.4c0,0.7-0.6,1.4-1.4,1.4h-5.1c-0.7,0-1.3-0.6-1.3-1.4V26.5c0-0.7,0.6-1.4,1.4-1.4h5.1c0.7,0,1.3,0.6,1.3,1.4
	c0,0.8-0.6,1.4-1.4,1.4h-3.8v2.4H49.3z"/>
</svg>
