<?xml version="1.0" encoding="utf-8"?>
<!-- Generator: Adobe Illustrator 24.3.0, SVG Export Plug-In . SVG Version: 6.00 Build 0)  -->
<svg version="1.1" id="圖層_1" xmlns="http://www.w3.org/2000/svg" xmlns:xlink="http://www.w3.org/1999/xlink" x="0px" y="0px"
	 width="425.4px" height="151.7px" viewBox="0 0 425.4 151.7" style="enable-background:new 0 0 425.4 151.7;" xml:space="preserve"
	>
<style type="text/css">
	.st0{fill:#595959;stroke:#595959;stroke-width:3;stroke-miterlimit:10;}
	.st1{fill:#FFFFF8;}
	.st2{fill:none;stroke:#595959;stroke-width:5;stroke-miterlimit:10;}
	.st3{enable-background:new    ;}
	.st4{fill:#58B06E;}
	.st5{fill:#F95711;}
	.st6{fill:#595959;}
</style>
<g id="Group_172" transform="translate(-121.51 195.926)">
	<g id="Group_116" transform="translate(127.05 -187.843)">
		<path id="Path_423" class="st0" d="M374.5,0c-12.7,0-24.7,5.5-33.1,15C333.1,5.5,321,0,308.4,0c-12.7,0-24.7,5.5-33.1,15
			C267,5.5,254.9,0,242.2,0c-12.7,0-24.7,5.5-33.1,15c-8.3-9.6-20.4-15-33.1-15c-12.7,0-24.7,5.5-33.1,15C134.7,5.5,122.7,0,110,0
			C97.3,0,85.3,5.5,76.9,15C68.6,5.5,56.6,0,43.9,0C19.6,0,0,19.7,0,43.9s19.7,43.9,43.9,43.9l0,0c12.7,0,24.7-5.5,33.1-15
			c8.3,9.6,20.4,15,33.1,15c12.7,0,24.7-5.5,33.1-15c8.3,9.6,20.4,15,33.1,15c12.7,0,24.7-5.5,33.1-15c8.3,9.6,20.4,15,33.1,15
			c12.7,0,24.7-5.5,33.1-15c8.3,9.6,20.4,15,33.1,15c12.7,0,24.7-5.5,33.1-15c8.3,9.6,20.4,15,33.1,15c24.2,0,43.9-19.7,43.9-43.9
			c0,0,0,0,0,0C418.4,19.6,398.7,0,374.5,0z"/>
	</g>
	<g id="Group_117" transform="translate(124.01 -193.426)">
		<circle id="Ellipse_7" class="st1" cx="43.9" cy="43.9" r="43.9"/>
		<circle id="Ellipse_8" class="st1" cx="110" cy="43.9" r="43.9"/>
		<circle id="Ellipse_9" class="st1" cx="176.1" cy="43.9" r="43.9"/>
		<circle id="Ellipse_10" class="st1" cx="242.3" cy="43.9" r="43.9"/>
		<circle id="Ellipse_11" class="st1" cx="308.4" cy="43.9" r="43.9"/>
		<circle id="Ellipse_12" class="st1" cx="374.5" cy="43.9" r="43.9"/>
	</g>
	<g id="Group_118" transform="translate(124.01 -193.426)">
		<path id="Path_424" class="st2" d="M374.5,0c-12.7,0-24.7,5.5-33.1,15c-8.3-9.6-20.4-15-33.1-15c-12.7,0-24.7,5.5-33.1,15
			C267,5.5,254.9,0,242.3,0c-12.7,0-24.7,5.5-33.1,15c-8.3-9.6-20.4-15-33.1-15c-12.7,0-24.7,5.5-33.1,15C134.7,5.5,122.7,0,110,0
			C97.3,0,85.3,5.5,77,15C68.6,5.5,56.6,0,43.9,0C19.6,0,0,19.7,0,43.9s19.7,43.9,43.9,43.9l0,0c12.7,0,24.7-5.5,33.1-15
			c8.3,9.6,20.4,15,33.1,15c12.7,0,24.7-5.5,33.1-15c8.3,9.6,20.4,15,33.1,15c12.7,0,24.7-5.5,33.1-15c8.3,9.6,20.4,15,33.1,15
			c12.7,0,24.7-5.5,33.1-15c8.3,9.6,20.4,15,33.1,15c12.7,0,24.7-5.5,33.1-15c8.3,9.6,20.4,15,33.1,15c24.2,0,43.9-19.7,43.9-43.9v0
			C418.4,19.6,398.7,0,374.5,0z"/>
	</g>
	<g class="st3">
		<path class="st4" d="M166.2-174.3c2.1-1,3.8-0.4,5.3,1.8c0.8,0.9,1.6,1.6,2.5,2.1c3.9,2.2,7.5,5.2,10.9,8.9
			c3.3,3.2,4.2,5.9,2.9,8.1c-0.8,0.9-1.7,1.4-2.8,1.4l-11.5-0.5c-4.3-0.3-10.7,0.1-19.2,1c-1.8,0.2-3.3,0-4.6-0.4
			c-1.7-1.2-2.3-2.6-1.7-4.2c0.5-1.1,1.9-2.8,4.1-5C157.7-165.9,162.4-170.3,166.2-174.3z M154.5-147.2c13.7-0.3,23.4-0.2,28.9,0.2
			c2.3-0.2,3.8,0.6,4.6,2.3c0.3,0.6,0.3,1.4,0.3,2.3c-0.5,3.9-0.7,7-0.6,9.4c0,2.2-1.3,3.6-4,4.1c-12.9-1-22.5-0.8-28.9,0.6
			c-2.8,0.3-4.3-1.2-4.4-4.3l-0.3-5.5c-0.1-3.1-0.1-5.2-0.1-6.5C150.8-146.6,152.2-147.5,154.5-147.2z M180.3-143.3
			c-8.6-0.5-16.5-0.4-23.7,0.4c-0.9,0.2-1.5,1-1.7,2.3c0,1.4,0.1,3.1,0.3,5.2c0.2,1,0.4,1.6,0.6,1.7c1,0.3,2.4,0.4,4.1,0.3
			c7.2-0.4,13.5-0.5,18.8-0.3c1.2,0,2.1-0.1,2.7-0.2c0.6-0.3,1-1.1,1.2-2.4c0.2-1.7,0.2-3.4,0-5.1
			C182.5-142.3,181.7-143,180.3-143.3z M167.5-168.2c-1.1,0.3-2.8,1.5-5.1,3.6c-2.7,2.3-4.8,4.3-6.3,6.2c-0.7,1.3-0.4,2.1,0.9,2.3
			l21.3-0.1l3-0.3c1-0.2,1.2-0.9,0.4-2.2c-3.1-3.8-7-6.8-11.7-9C168.9-168.2,168-168.3,167.5-168.2z"/>
		<path class="st4" d="M230.4-173.4c-0.1-1.7,0.6-2.8,2.2-3.2c1.7,0.3,2.5,1.5,2.5,3.5c0,1.1,0.7,1.6,2,1.5l13.6-0.1
			c1.1,0.1,1.8,0.3,2.2,0.5c0.8,0.6,0.5,1.5-0.9,2.7c-1.4,1.4-3.1,1.8-5.1,1.2c-3.4-0.5-6.8-0.7-10.3-0.7c-1,0-1.6,0.5-1.7,1.5
			c0,1,0.6,1.5,1.9,1.5c3.7-0.2,6.8,0,9.3,0.6c1.8,0.7,2.6,2.1,2.3,4.4c-0.3,3-0.5,5.9-0.4,8.6c0,2-1.1,3.4-3.3,4.1
			c-1,0.2-2.8,0.1-5.4-0.3c-1.1,0-1,0.6,0.3,1.7c1.8,1.6,5,3.5,9.5,5.8c3.3,1.6,7,3,11.3,4.2c1.3,0.6,1.9,1,2,1.3
			c0,0.4-0.8,1.1-2.3,2.2l-2.5,1.2c-1.9,0.9-3.6,0.7-5.1-0.6c-5.4-4-10.8-8.1-16.3-12.3c-1-0.7-1.5-0.4-1.5,0.8
			c0,3.8,0.1,7.7,0.2,11.6c-0.1,1.3-0.4,2.4-1,3.2c-0.9,1.3-2,1.2-3.4-0.3c-0.3-0.5-0.5-1-0.6-1.5l0.3-13.2c0-1-0.6-1-1.9-0.1
			c-8,6.7-14.6,10.9-19.7,12.8c-2.1,0.8-3.8,0.2-5.1-1.8c-0.7-1.5-0.1-2.5,2-3.1c6.7-2,13.3-5.5,19.9-10.5c1.2-0.9,1.1-1.4-0.1-1.3
			l-5.2,0.8c-1.2,0.2-2.2-0.2-2.9-1.2c-0.7-1.1-0.9-2.4-0.7-3.7c-0.2-3.4-0.3-6.8-0.4-10.2c0.5-2.4,2.1-3.4,4.7-3
			c2.6-0.1,5.2-0.2,7.7-0.2c1.1,0,1.6-0.5,1.6-1.5c0-1-0.6-1.5-1.9-1.5c-4.7,0.1-9.3,0.8-14,2c-2.4,0.4-3.5-0.6-3.2-2.9
			c1.4-2.6,4.4-3.6,9-2.8h8.5C229.7-171.5,230.3-172.1,230.4-173.4z M228.4-161.1c-1.8,0-3.6,0.2-5.3,0.4c-1.4,0.3-2.1,0.8-2.3,1.4
			c0,0.6,0.6,1,1.9,1.1c1.9,0.2,4,0.2,6,0.2c1.1,0,1.6-0.5,1.6-1.5S229.7-161.1,228.4-161.1z M228.9-154.1c-1.8,0-3.9,0-6.3,0.2
			c-1,0.1-1.5,0.4-1.5,1c0,1.4,0.8,2,2.3,1.6c1.7,0,3.5,0,5.4-0.1c1.1,0,1.6-0.4,1.6-1.3C230.5-153.7,230-154.1,228.9-154.1z
			 M241.5-160.9c-1.7-0.3-3.4-0.4-5.1-0.3c-1.1,0-1.6,0.5-1.6,1.5s0.5,1.5,1.6,1.5l5.4-0.1c1,0,1.5-0.4,1.5-1.1
			C243.2-160.2,242.6-160.7,241.5-160.9z M241.7-154.1h-0.5c-1.6-0.1-3.2-0.2-4.8-0.1c-1.1,0-1.6,0.4-1.6,1.2c0,0.9,0.5,1.3,1.5,1.3
			c1.5,0,3,0,4.4,0.1c1.6,0.2,2.5-0.3,2.7-1.4C243.6-153.6,243-153.9,241.7-154.1z"/>
	</g>
	<g class="st3">
		<path class="st5" d="M304.5-176.6c0.3-0.2,0.8-0.2,1.4-0.1c1.8,1.2,2.4,2.7,1.8,4.4c-0.2,0.3-0.5,0.7-0.9,1
			c-1.4,0.9-1.6,1.4-0.5,1.4c1.4,0,2.9,0,4.5,0.1c1.1,0,1.8,0.4,2.2,1.5c0.3,0.9-0.2,1.6-1.4,2.2c-0.6,0.3-1.6,0.4-3.1,0.2
			c-2,0-4.1,0-6.2,0.1c-1.1,0-1.6,0.6-1.7,1.6c0,1,0.6,1.5,1.9,1.5c2.1-0.1,4.1-0.1,6.2-0.1c1.1,0.1,1.9,0.8,2.2,2.1
			c-0.2,1.2-1,1.9-2.5,2h-5.8c-1.3,0-1.9,0.7-1.9,1.8c0,1,0.6,1.5,1.8,1.5l7.8-0.1c1.5-0.2,2.7,0.1,3.7,0.8c0.6,0.5,0.7,1.3,0.1,2.3
			c-0.8,0.8-1.9,1.1-3.4,0.9c-3,0-6.1,0-9.2,0.1c-1,0-1.3,0.2-0.8,0.6c0.8,1.1,0.7,2.4-0.4,4c-0.5,1.1-0.1,2.1,1.1,3
			c9.2,5.8,17.5,9.1,24.7,10.2c1,0,2,0.3,2.9,0.7c0.8,0.9,0.3,1.9-1.6,3.2c-3.6,2.5-7,2.6-10.1,0.3c-7.2-5-13.3-8.6-18.2-11
			c-1-0.3-2,0.1-3,1.4c-1,1.1-2,2.2-3.2,3.3c-3.4,2.3-8.5,4.7-15.2,7c-2.3,1.1-4.4,0.5-6.3-1.7c-1.7-2-1.2-3.2,1.7-3.6
			c3.7-0.3,7.1-0.9,10.2-1.9c7.9-2.5,12.2-7,12.9-13.6c0.3-1.2-0.1-1.8-1.2-1.7c-3.4,0-6.9,0.2-10.3,0.6c-1.6,0.2-2.7-0.1-3.4-1.1
			c-0.2-0.8,0.1-1.8,1-2.9c1.1-1,2.4-1.4,3.8-1c2.2,0.3,5.1,0.4,8.5,0.4c1,0,1.6-0.6,1.8-1.7c0-1.1-0.7-1.6-2.1-1.6
			c-2.1,0.1-4.3,0.3-6.4,0.5c-0.8,0.3-1.8,0.1-2.8-0.5c-0.6-0.4-0.7-1.2-0.3-2.3c0.9-1.7,2.3-2.4,4.1-2.1c1.9,0,3.8,0.1,5.7,0.2
			c1.1,0,1.6-0.2,1.6-0.5l-0.1-1.6c0-0.6-0.5-0.9-1.6-0.9c-3.5,0.1-6.9,0.3-10.4,0.6c-1.9-0.4-2.2-1.7-0.8-3.7
			c1.2-1.4,2.8-1.7,4.8-1c1.2,0.2,1.4-0.2,0.7-1.2c-1-1.1-1.6-1.9-1.8-2.6c-0.2-0.8,0-1.4,0.7-2c0.6-0.5,1.4-0.7,2.5-0.4
			c1.6,0.3,2.6,1.2,2.9,2.7c0,0.7,0.1,1.4,0.3,2.2c0.3,1,1.1,1.5,2.3,1.5l2.9-0.1c1.1,0,2.2-0.6,3.1-2
			C302.6-174.1,303.6-175.8,304.5-176.6z M277.9-145.5c1.1-1.7,2.5-2,4.2-1.1l5.1,0.4c1,0.1,1.9,0.5,2.8,1.2c0.3,0.6,0.2,1-0.2,1.4
			c-0.4,0.5-1.1,0.8-2.1,0.8c-2.9,0.8-5,1.4-6.3,1.6C278.3-141.4,277.2-142.8,277.9-145.5z M311.7-148.5c0.8-0.3,1.8-0.1,2.9,0.8
			c1.2,1.6,1,2.9-0.5,4c-1.4,0.8-2.9,1-4.5,0.4c-1.3,0-2.6-0.1-3.9-0.3c-1.3-0.5-1.9-0.9-2-1.1c0.1-1.2,1.3-1.9,3.4-2.1
			C308.2-147.1,309.8-147.7,311.7-148.5z"/>
		<path class="st5" d="M358.7-175.6c0.8-1.9,1.9-2.7,3.6-2.3c1.2,0.5,2,1.5,2.2,3c2.5,2.6,6.2,5.3,11.2,8.3
			c6.4,3.8,11.9,6.4,16.5,7.7c2.2,0.1,2.6,0.9,1.3,2.5c-1.2,0.9-2.9,1.7-5.1,2.3c-1.4,0.5-2.6,0.3-3.8-0.4
			c-3.4-2.6-6.8-5.3-10.2-8.1c-4.1-3.1-7.9-5.6-11.4-7.7c-1.9-1.1-4-0.3-6.3,2.3c-1.4,1.1-1.3,1.6,0.2,1.5l9.1,0.2
			c0.8,0,1.7,0.1,2.5,0.4c0.9,0.4,1.2,1.2,0.8,2.4c-0.5,0.9-1.5,1.3-3,1c-4.9,0-8.2,0.1-9.9,0.4c-0.9,0.3-1.8,0.2-2.5-0.3
			c-0.8-0.5-1.1-1.2-0.9-2.2c0.2-0.4-0.2-0.3-1.2,0.5l-9.7,6.7c-2.2,1.5-3.8,2.4-4.7,2.6c-1,0-1.9-0.4-2.9-1.3
			c-1.6-1.3-1.7-2.5-0.4-3.7c6.4-2.5,13.2-6.2,20.3-11.1C356.8-172.7,358.3-174.3,358.7-175.6z M352.1-160.4c1.5-0.2,4-0.1,7.5,0.2
			c3.8,0,7.6,0.1,11.6,0.3c3.2,0.4,4.3,1.9,3.1,4.6c-0.7,1.6-1.2,4.1-1.5,7.6c-0.3,3.9-2.8,5.3-7.3,4.3c-2.5,0-5.1,0-7.9,0.1
			c-1.5,0-2.7,0.3-3.7,0.9v5.8c0,1,0.6,1.5,1.9,1.4c2.4-0.2,4.7-0.3,7.1-0.4c0.9-0.2,1.6,0.1,2.1,0.8c0.2,0.4,0.1,0.8-0.4,1.2
			c-0.6,0.5-1.5,0.9-2.9,1.2c-5.5,1.4-9.5,3.1-12,5.1c-1.4,0.4-2.5,0-3.4-1.3c-0.6-1.5,0-3,1.7-4.6c0.9-0.5,1.5-1.7,1.6-3.5
			c0.4-5.6,0.4-11.2,0.2-16.9c-0.3-2.5-0.2-4.2,0.2-5.1C350.2-159.5,350.9-160,352.1-160.4z M366.7-149.9c-4.7-0.1-8.4-0.1-11.2,0.2
			c-1,0.1-1.5,0.6-1.5,1.3c0.1,0.8,0.8,1.2,2.2,1.5c3.5-0.2,7-0.4,10.5-0.4c1-0.2,1.5-0.6,1.7-1.4
			C368.6-149.5,368-149.9,366.7-149.9z M366.8-156.4c-4.1-0.2-7.3-0.2-9.7,0.1c-1.4,0-2.3,0.5-2.6,1.5c-0.1,0.3,0.4,0.5,1.5,0.6
			c3.8,0.2,7.6,0.2,11.4,0c1-0.1,1.5-0.4,1.5-1C368.9-155.8,368.2-156.2,366.8-156.4z M377.5-146.8c0.6-0.7,1.3-0.7,2-0.2
			c0.8,0.8,1.2,2.1,1,3.8c-0.3,1-0.7,1.8-1.4,2.3c-1.6,0.6-3.2,1.3-4.9,2.2c-1.1,0.5-1,1,0.3,1.5c2.7,1.1,5.9,2.3,9.5,3.4
			c1.6,0.3,2.2,1,1.9,2.2c-1.8,3-4,3.9-6.5,2.6l-5.1-3.6c-4.1-3-8.2-4.9-12.3-5.7c-1.4-0.8-1.5-1.7-0.5-2.7c2.4-1.1,4.3-0.9,5.7,0.4
			c0.8,0.6,2,0.5,3.4-0.2C373.4-142.3,375.7-144.3,377.5-146.8z"/>
	</g>
	<g class="st3">
		<path class="st6" d="M409.1-172.6c2.4,0.3,3.5,1.9,3.2,4.8c-0.3,2.1-0.6,4.2-0.8,6.4c0,1.1,0.5,1.6,1.5,1.6h3.9
			c1.5,0.3,2.1,1.2,1.7,2.7c-0.5,1.4-1.6,2-3.2,1.8H413c-1,0-1.5,0.6-1.5,1.7c0,2.5,0,5,0.1,7.5c0,1.3,0.6,1.8,1.9,1.5
			c2.4-0.5,4-0.7,4.9-0.6c0.5,0.1,0.8,0.3,1,0.6c0.7,1.2-0.1,2.4-2.2,3.4c-4.7,1.3-9.8,3.2-15.2,5.6c-1.4,0.8-2.6,0.7-3.6-0.4
			c-0.5-0.9-0.3-1.8,0.4-2.7c1.3-1.8,2.9-2.9,4.8-3.4c0.6,0,1.2-0.1,1.8-0.3c1-0.3,1.5-0.9,1.5-2l0.3-9.2c0-1-0.6-1.5-1.9-1.5
			l-4.4,0.7c-2.1,0-2.9-1-2.3-3c1.1-1.9,2.4-2.8,4-2.7c1,0,2,0.1,3.1,0.3c1,0,1.5-0.6,1.5-1.9l-0.4-7.9
			C406.6-171.2,407.4-172.2,409.1-172.6z M434.9-172.9c0.9-0.8,1.9-0.9,3-0.3c1.4,1,1.9,2.5,1.5,4.6c-0.6,2.2-1.1,4.7-1.3,7.6
			c-0.1,1.1,0.3,1.6,1.3,1.3c1.5-0.3,3-0.8,4.6-1.3c1.8-0.6,3.6-0.4,5.3,0.6c1.4,1.1,1.5,2.4,0.6,3.7c-0.9,1.3-1.6,3-2.1,5.1
			c-0.6,1.9-1.4,3.6-2.2,5.1c-0.3,0.9-0.9,1.6-2,2.2c-1.4,0.4-2.2-0.1-2.5-1.4c0-0.5,0.2-1.2,0.5-2c1.9-3.9,2.8-6.8,2.7-8.6
			c-1.2-0.5-2.9-0.4-5.1,0.3c-1.1,0.3-1.6,1-1.7,2.3l-0.3,4.6c0.1,1.7,0,2.9-0.3,3.7c-0.3,2-1.4,2.8-3,2.4c-1.1-0.7-1.6-2-1.4-4.1
			l0.7-6c0.1-1-0.6-1.3-1.9-0.9c-0.6,0.1-1.3,0.3-2,0.6c-1.1,0.4-1.8,1.2-1.8,2.4c-0.2,2.4-0.1,4.4,0.3,6.2c0.2,1.9,1.5,3.5,3.7,4.8
			c5.5,2,11.2,2.8,17.2,2.4c3.1-0.4,5.7-1.3,7.6-2.7c1.2-0.8,1.9-1.3,2.2-1.3c0.6,0.3,0.8,0.8,0.6,1.5c-0.2,1.4-0.8,3.1-2,5.1
			c-1.1,1.9-2.7,3.2-4.7,3.6c-2.8,0.4-7.3-0.1-13.3-1.5c-5-0.9-9.2-2.8-12.7-5.7c-1.9-2.6-2.8-6.3-2.8-11.2c0-1-0.7-1.3-2-1
			c-2.1,0.8-3.6,1.2-4.4,1.3c-1.6-0.2-2.2-1.1-1.8-2.6c1.5-2.2,3.1-3.2,5-3c0.5,0,1.1-0.1,1.7-0.3c1-0.2,1.6-1,1.7-2.2l0.3-4.9
			c0.1-1.6,0.3-2.5,0.5-2.8c1.3-1.1,2.5-1.1,3.6,0.1c1.6,1.4,1.9,3.1,0.9,5c-0.3,0.9-0.5,1.9-0.6,2.8c0,0.2,0.7,0.1,2.1-0.3l1.7-0.4
			c1-0.3,1.6-1,1.7-2.3l0.3-9.1C433.9-170.7,434.2-171.9,434.9-172.9z"/>
		<path class="st6" d="M470.5-174.8c1.2-0.3,3.6-0.3,7-0.3l3.9,0.2c10.3-0.1,20.7-0.1,31.2,0.1c2.6-0.3,4.2,1,5,3.9
			c0.2,0.7,0.3,1.5,0.1,2.5c-0.8,12.6-1.1,22.3-0.8,29.1c0.3,1.7,0.3,4,0,6.7c-0.2,1.5-1,2.7-2.3,3.7c-1,0.6-2.7,0.7-5.1,0.3
			c-15.2-0.8-26.9-0.8-35,0.1c-2.4,0.5-4.4,0.3-5.9-0.7c-0.6-0.7-1-1.6-1.2-2.8c-0.1-3.5-0.1-7,0.1-10.7c0.2-10.1,0.3-19.3,0.3-27.7
			C467.9-172.9,468.9-174.4,470.5-174.8z M509.8-170.8c-5.8-0.8-17.1-0.8-33.9,0c-2.1-0.1-3.4,0.9-3.8,3c-0.3,12.4-0.5,23-0.4,31.9
			c0.1,1.3,0.5,2.2,1.1,2.7c0.5,0.2,1.1,0.3,1.7,0.4c9.1-0.2,18.3-0.2,27.4-0.1c1.4,0,2.9,0.1,4.5,0.2c2.2,0.1,3.7,0,4.5-0.3
			c0.7-0.3,1.1-1.1,1.2-2.3c0.8-7.9,0.9-18.9,0.4-32.9C512.3-170,511.4-170.8,509.8-170.8z M484.1-169.7c1.9-0.2,3.9-0.3,5.9-0.3
			c4.8-0.1,8.5,0,11,0.4c2.2,0.6,2.8,2.1,2,4.4c0.2,2.4-0.7,3.8-2.5,4.4c-1,0.2-2.5,0.2-4.6-0.1c-1,0-1.6,0.3-1.7,0.9
			c0,0.6,0.5,1,1.5,1c4.2,0.3,9.1,0.9,14.6,1.7c1.1,0,1.7,0.4,1.8,1.1c-1.6,3.8-3.9,4.7-6.9,2.8c-3.4-1.3-6.8-2-10.2-2.1
			c-7-0.8-13.3-0.1-18.9,2.2c-1.3,0.8-2.5,0.7-3.6-0.4c-0.4-0.6-0.4-1.3-0.1-2c0.9-2.1,2.5-2.9,4.6-2.6c3.6-0.3,7.3-0.5,11.1-0.7
			c1.1,0,1.6-0.3,1.6-0.9c0-0.6-0.6-0.9-1.9-0.8l-4.9,0.6c-1.7-0.5-2.5-1.6-2.3-3.1c-0.2-1.5-0.3-2.9-0.3-4.1
			C480.8-169.4,482-170.2,484.1-169.7z M479.8-153.1c6-0.4,13.3-0.4,22-0.1c3.5,0,4.8,1.9,3.9,5.6c-0.3,2.9-0.4,6-0.3,9.5
			c-0.7,2.8-2.4,3.8-5.1,3.2c-7.2-0.5-13.4-0.3-18.6,0.6c-2.5,0-3.7-1.3-3.6-4.1c-0.2-3.6-0.3-7.1-0.2-10.7c0-0.8,0.1-1.7,0.3-2.5
			C478.6-152.5,479.2-153,479.8-153.1z M499.1-149.8c-6.4-0.4-11.5-0.3-15.4,0.2c-1.1,0.2-1.8,1-1.8,2.3c0,2.2,0.1,4.7,0.4,7.2
			c0,1.2,0.8,1.7,2.2,1.4c4.7-0.2,9.5-0.3,14.2-0.4c1.3-0.1,2-0.3,2.2-0.4c0.5-1.9,0.7-4.7,0.4-8.3
			C501-148.9,500.3-149.6,499.1-149.8z M496.6-166.7c-4.8-0.1-8.4-0.1-10.6,0.1c-1.8-0.1-2.2,0.6-1.1,2.2l11.7-0.3
			c1.6,0.3,2.3-0.1,2.1-1.3C498.7-166.3,498-166.6,496.6-166.7z M485.4-146.6c0.3-1.7,1-2.5,2.3-2.4c2.6,0.1,5.2,0.1,7.9,0
			c1.7,0,2.5,0.9,2.7,2.5c-0.1,0.8-0.2,1.7-0.1,2.5c-0.6,3.2-2.2,4.5-4.6,3.9c-1.7-0.2-3.4-0.2-5.1-0.1c-2.1,0.6-3.1-0.6-3-3.5
			V-146.6z M490.7-145.9c-1.1,0.2-1.7,0.6-1.7,1.2c0.1,0.6,0.8,0.9,2.1,0.9c0.5-0.1,0.9-0.1,1.4-0.1c1,0,1.6-0.2,1.7-0.5
			c0.1-0.3,0.1-0.7,0-1c-0.2-0.3-0.9-0.5-2.2-0.6H490.7z"/>
	</g>
	<g class="st3">
		<path class="st6" d="M279.6-55.2c-0.6,0-1-0.2-1.4-0.6s-0.6-0.8-0.6-1.4v-18.1c0-0.2-0.1-0.2-0.3-0.2h-4.6c-0.6,0-1-0.2-1.4-0.6
			s-0.6-0.8-0.6-1.4v-1.1c0-0.5,0.2-1,0.6-1.4s0.8-0.6,1.4-0.6h15.9c0.5,0,1,0.2,1.4,0.6s0.6,0.8,0.6,1.4v1.1c0,0.5-0.2,1-0.6,1.4
			s-0.8,0.6-1.4,0.6h-4.7c-0.2,0-0.2,0.1-0.2,0.2v18.1c0,0.5-0.2,1-0.6,1.4s-0.8,0.6-1.4,0.6H279.6z"/>
		<path class="st6" d="M296.8-54.7c-1.7,0-3.1-0.6-4.2-1.7s-1.6-2.5-1.6-4.2c0-2,0.8-3.6,2.5-4.7s4.3-1.9,8-2.3
			c0.2,0,0.3-0.1,0.2-0.3c-0.2-1.5-1.2-2.3-2.9-2.3c-1,0-2.1,0.3-3.3,0.8c-0.3,0.1-0.6,0.2-0.9,0.2c-0.2,0-0.4,0-0.6-0.1
			c-0.5-0.2-0.9-0.5-1.2-1l-0.3-0.5c-0.2-0.3-0.2-0.6-0.2-0.9c0-0.2,0-0.4,0.1-0.6c0.2-0.5,0.5-0.9,1-1.1c2.2-1.1,4.4-1.6,6.6-1.6
			c5.2,0,7.8,2.9,7.8,8.8v9c0,0.5-0.2,1-0.6,1.4s-0.8,0.6-1.4,0.6h-1.2c-0.5,0-1-0.2-1.4-0.5s-0.7-0.7-0.8-1.2l0-0.1
			c0,0-0.1-0.1-0.1-0.1s-0.1,0-0.1,0C300.5-55.5,298.7-54.7,296.8-54.7z M298.9-59.4c1,0,1.9-0.5,2.8-1.4c0.1-0.1,0.2-0.3,0.2-0.4
			v-2.6c0-0.1-0.1-0.2-0.2-0.2c0,0,0,0-0.1,0c-3.2,0.5-4.7,1.4-4.7,2.9c0,0.6,0.2,1,0.5,1.2S298.3-59.4,298.9-59.4z"/>
		<path class="st6" d="M315.6-77.2c-1,0-1.9-0.3-2.5-0.9c-0.7-0.6-1-1.3-1-2.2c0-0.9,0.3-1.7,1-2.2s1.5-0.9,2.5-0.9
			c1,0,1.8,0.3,2.5,0.9s1,1.3,1,2.2c0,0.9-0.3,1.7-1,2.2C317.4-77.5,316.6-77.2,315.6-77.2z M314.5-55.2c-0.6,0-1-0.2-1.4-0.6
			s-0.6-0.8-0.6-1.4v-15.4c0-0.5,0.2-1,0.6-1.4s0.8-0.6,1.4-0.6h2.1c0.5,0,1,0.2,1.4,0.6s0.6,0.8,0.6,1.4v15.4c0,0.5-0.2,1-0.6,1.4
			s-0.8,0.6-1.4,0.6H314.5z"/>
		<path class="st6" d="M331-54.7c-2.3,0-4.1-0.7-5.2-2s-1.7-3.2-1.7-5.6v-7.2c0-0.2-0.1-0.2-0.2-0.2h-0.4c-0.5,0-1-0.2-1.4-0.6
			s-0.6-0.8-0.6-1.4v-0.6c0-0.6,0.2-1,0.6-1.4s0.8-0.6,1.4-0.7l0.8-0.1c0.2,0,0.3-0.1,0.3-0.3l0.4-2.9c0.1-0.6,0.3-1,0.8-1.4
			s0.9-0.5,1.5-0.5h1.1c0.5,0,1,0.2,1.4,0.6c0.4,0.4,0.6,0.8,0.6,1.4v2.9c0,0.2,0.1,0.2,0.2,0.2h2.4c0.5,0,1,0.2,1.4,0.6
			s0.6,0.8,0.6,1.4v0.8c0,0.5-0.2,1-0.6,1.4s-0.8,0.6-1.4,0.6h-2.4c-0.2,0-0.2,0.1-0.2,0.2v7.1c0,1.9,0.8,2.9,2.3,3
			c0.6,0,1.1,0.2,1.5,0.4s0.7,0.6,0.8,1.1l0.1,0.5c0,0.2,0,0.3,0,0.5c0,0.4-0.1,0.7-0.3,1c-0.3,0.5-0.7,0.8-1.2,0.9
			C332.7-54.8,331.9-54.7,331-54.7z"/>
		<path class="st6" d="M344.3-54.7c-2.1,0-3.6-0.7-4.5-2s-1.5-3.3-1.5-5.8v-10c0-0.5,0.2-1,0.6-1.4s0.8-0.6,1.4-0.6h2.1
			c0.5,0,1,0.2,1.4,0.6s0.6,0.8,0.6,1.4v9.3c0,1.3,0.2,2.2,0.5,2.7s0.9,0.7,1.7,0.7c0.7,0,1.2-0.1,1.7-0.4s0.9-0.7,1.4-1.4
			c0.1-0.1,0.2-0.3,0.2-0.4v-10.5c0-0.5,0.2-1,0.6-1.4s0.8-0.6,1.4-0.6h2.1c0.5,0,1,0.2,1.4,0.6s0.6,0.8,0.6,1.4v15.4
			c0,0.5-0.2,1-0.6,1.4s-0.8,0.6-1.4,0.6h-1c-0.6,0-1.1-0.2-1.5-0.5s-0.7-0.8-0.8-1.4l-0.1-0.7c0,0-0.1-0.1-0.1-0.1s-0.1,0-0.1,0.1
			c-0.9,1-1.8,1.8-2.7,2.3S345.6-54.7,344.3-54.7z"/>
		<path class="st6" d="M362.7-55.2c-0.6,0-1-0.2-1.4-0.6s-0.6-0.8-0.6-1.4v-15.4c0-0.5,0.2-1,0.6-1.4s0.8-0.6,1.4-0.6h1
			c0.6,0,1.1,0.2,1.5,0.5s0.7,0.8,0.8,1.4l0.1,0.4c0,0,0,0.1,0.1,0.1s0.1,0,0.1,0c1.9-1.9,4-2.9,6.1-2.9c2,0,3.5,0.7,4.5,2.1
			c1,1.4,1.5,3.3,1.5,5.8v10c0,0.5-0.2,1-0.6,1.4s-0.8,0.6-1.4,0.6h-2.1c-0.6,0-1-0.2-1.4-0.6s-0.6-0.8-0.6-1.4v-9.3
			c0-1.3-0.2-2.2-0.5-2.7s-0.9-0.7-1.7-0.7c-0.6,0-1.1,0.1-1.6,0.4c-0.5,0.2-1,0.6-1.6,1.2c-0.1,0.1-0.2,0.2-0.2,0.4v10.7
			c0,0.5-0.2,1-0.6,1.4s-0.8,0.6-1.4,0.6H362.7z"/>
		<path class="st6" d="M390-47c-1.5,0-2.9-0.2-4.1-0.5c-1.2-0.3-2.2-0.9-2.9-1.6s-1.1-1.7-1.1-2.8c0-0.8,0.2-1.5,0.7-2.1
			s1.1-1.2,2-1.6c0,0,0.1-0.1,0.1-0.1s0-0.1-0.1-0.1c-1.1-0.8-1.7-1.9-1.7-3.3c0-0.7,0.2-1.3,0.6-1.9s0.9-1.2,1.5-1.6
			c0,0,0.1-0.1,0.1-0.1c0,0,0-0.1-0.1-0.1c-0.7-0.5-1.3-1.2-1.8-2.1s-0.7-1.8-0.7-2.9c0-1.5,0.4-2.8,1.2-3.9s1.8-1.9,3-2.4
			s2.5-0.7,4-0.7c1,0,2,0.1,2.8,0.4c0.2,0,0.3,0.1,0.5,0.1h4.9c0.6,0,1,0.2,1.4,0.6s0.6,0.8,0.6,1.4v0.5c0,0.6-0.2,1-0.6,1.4
			c-0.4,0.4-0.8,0.6-1.4,0.6h-0.8c-0.1,0-0.1,0-0.1,0.1s0,0.1,0,0.1c0.3,0.6,0.4,1.3,0.4,2.1c0,2.1-0.7,3.8-2.1,4.9
			s-3.3,1.6-5.6,1.6c-0.6,0-1.3-0.1-2-0.3c-0.2,0-0.3,0-0.4,0.1c-0.3,0.3-0.4,0.7-0.4,1.2s0.2,0.8,0.7,1s1.2,0.3,2.2,0.3h3.1
			c5,0,7.4,1.7,7.4,5c0,2.1-1,3.7-3,5S393.4-47,390-47z M391-50.7c1.2,0,2.3-0.2,3-0.6c0.8-0.4,1.2-0.9,1.2-1.5
			c0-0.5-0.2-0.9-0.7-1.1s-1.2-0.3-2.1-0.3h-1.8c-1.1,0-2-0.1-2.5-0.2c0,0-0.1,0-0.1,0c-0.1,0-0.2,0-0.3,0.1c-0.5,0.5-0.8,1-0.8,1.6
			c0,0.7,0.4,1.2,1.1,1.5C388.7-50.9,389.7-50.7,391-50.7z M390.5-64.9c0.7,0,1.3-0.3,1.8-0.8s0.7-1.3,0.7-2.2c0-1-0.2-1.7-0.7-2.2
			c-0.5-0.5-1-0.8-1.8-0.8s-1.3,0.3-1.8,0.8s-0.7,1.3-0.7,2.2c0,1,0.2,1.7,0.7,2.2S389.8-64.9,390.5-64.9z"/>
		<path class="st6" d="M408.8-69c-0.4,0.3-0.8,0.5-1.3,0.5s-0.9-0.2-1.2-0.5c-0.4-0.3-0.6-0.7-0.6-1.2l-1-6.3l-0.1-3.4
			c0-0.5,0.2-1,0.5-1.4s0.8-0.6,1.4-0.6h2.2c0.6,0,1,0.2,1.4,0.6s0.5,0.8,0.5,1.4l-0.1,3.4l-0.9,6.3C409.4-69.7,409.1-69.3,408.8-69
			z"/>
		<path class="st6" d="M426.1-55.2c-0.5,0-1-0.2-1.4-0.6s-0.6-0.8-0.6-1.4v-21.4c0-0.5,0.2-1,0.6-1.4s0.8-0.6,1.4-0.6h12.2
			c0.6,0,1,0.2,1.4,0.6s0.6,0.8,0.6,1.4v1.1c0,0.5-0.2,1-0.6,1.4s-0.8,0.6-1.4,0.6h-7.8c-0.2,0-0.3,0.1-0.3,0.2v5
			c0,0.2,0.1,0.3,0.3,0.3h6.4c0.6,0,1,0.2,1.4,0.6c0.4,0.4,0.6,0.8,0.6,1.4v1.1c0,0.6-0.2,1-0.6,1.4c-0.4,0.4-0.8,0.6-1.4,0.6h-6.4
			c-0.2,0-0.3,0.1-0.3,0.3v7.4c0,0.5-0.2,1-0.6,1.4s-0.8,0.6-1.4,0.6H426.1z"/>
		<path class="st6" d="M452-54.7c-1.2,0-2.4-0.2-3.6-0.7s-2.2-1.1-3-2c-0.9-0.8-1.6-1.9-2.1-3.2s-0.8-2.7-0.8-4.3
			c0-1.5,0.3-3,0.8-4.3c0.5-1.3,1.2-2.4,2.1-3.2c0.9-0.8,1.9-1.5,3-2s2.3-0.7,3.6-0.7c1.2,0,2.4,0.2,3.5,0.7s2.1,1.1,3,2
			c0.9,0.8,1.6,1.9,2.1,3.2c0.5,1.3,0.8,2.7,0.8,4.3c0,1.6-0.3,3-0.8,4.3s-1.2,2.4-2.1,3.2c-0.9,0.8-1.9,1.5-3,2
			S453.2-54.7,452-54.7z M452-59.6c1.1,0,1.9-0.5,2.4-1.4s0.8-2.2,0.8-3.9s-0.3-3-0.8-3.9s-1.4-1.4-2.4-1.4c-1.1,0-1.9,0.5-2.5,1.4
			s-0.8,2.2-0.8,3.9s0.3,3,0.8,3.9S450.8-59.6,452-59.6z"/>
		<path class="st6" d="M473.6-54.7c-1.2,0-2.4-0.2-3.6-0.7s-2.2-1.1-3-2c-0.9-0.8-1.6-1.9-2.1-3.2s-0.8-2.7-0.8-4.3
			c0-1.5,0.3-3,0.8-4.3c0.5-1.3,1.2-2.4,2.1-3.2c0.9-0.8,1.9-1.5,3-2s2.3-0.7,3.6-0.7c1.2,0,2.4,0.2,3.5,0.7s2.1,1.1,3,2
			c0.9,0.8,1.6,1.9,2.1,3.2c0.5,1.3,0.8,2.7,0.8,4.3c0,1.6-0.3,3-0.8,4.3s-1.2,2.4-2.1,3.2c-0.9,0.8-1.9,1.5-3,2
			S474.8-54.7,473.6-54.7z M473.6-59.6c1.1,0,1.9-0.5,2.4-1.4s0.8-2.2,0.8-3.9s-0.3-3-0.8-3.9s-1.4-1.4-2.4-1.4
			c-1.1,0-1.9,0.5-2.5,1.4s-0.8,2.2-0.8,3.9s0.3,3,0.8,3.9S472.5-59.6,473.6-59.6z"/>
		<path class="st6" d="M493.8-54.7c-2.4,0-4.4-0.9-5.8-2.7s-2.1-4.3-2.1-7.4c0-1.5,0.2-2.9,0.7-4.3c0.5-1.3,1.1-2.4,1.8-3.2
			c0.8-0.8,1.6-1.5,2.6-2s1.9-0.7,3-0.7c1,0,1.8,0.2,2.5,0.5c0.7,0.3,1.4,0.8,2,1.4c0,0,0.1,0.1,0.1,0c0,0,0.1-0.1,0-0.1l-0.2-2.7
			v-4.5c0-0.6,0.2-1,0.6-1.4c0.4-0.4,0.8-0.6,1.4-0.6h2.2c0.6,0,1,0.2,1.4,0.6c0.4,0.4,0.6,0.8,0.6,1.4v23.2c0,0.5-0.2,1-0.6,1.4
			s-0.8,0.6-1.4,0.6h-1.3c-0.5,0-1-0.2-1.3-0.5c-0.4-0.3-0.6-0.7-0.7-1.2l0-0.1c0,0-0.1-0.1-0.1-0.1s-0.1,0-0.1,0
			c-0.7,0.7-1.5,1.3-2.4,1.7C495.5-54.9,494.7-54.7,493.8-54.7z M495.4-59.7c1.2,0,2.1-0.5,2.8-1.4c0.1-0.1,0.1-0.3,0.1-0.5v-7.1
			c0-0.2-0.1-0.3-0.2-0.4c-0.8-0.7-1.7-1-2.8-1c-0.9,0-1.7,0.4-2.3,1.3s-0.9,2.2-0.9,3.8C492.1-61.4,493.2-59.7,495.4-59.7z"/>
		<path class="st6" d="M515-54.7c-2,0-3.9-0.5-5.8-1.6c-0.5-0.3-0.7-0.7-0.8-1.2c0-0.1,0-0.2,0-0.3c0-0.4,0.1-0.8,0.4-1.2l0.4-0.6
			c0.3-0.4,0.7-0.7,1.3-0.8c0.1,0,0.3,0,0.4,0c0.4,0,0.8,0.1,1.1,0.3c1.1,0.6,2.2,1,3.3,1c1.5,0,2.3-0.5,2.3-1.5
			c0-0.2,0-0.3-0.1-0.4s-0.2-0.3-0.3-0.4s-0.3-0.2-0.4-0.3s-0.3-0.2-0.6-0.3s-0.5-0.2-0.7-0.3s-0.4-0.2-0.8-0.3s-0.7-0.3-0.8-0.3
			c-0.7-0.3-1.3-0.5-1.8-0.8s-1.1-0.7-1.6-1.1c-0.5-0.4-0.9-1-1.2-1.6s-0.4-1.3-0.4-2.1c0-1.8,0.7-3.3,2.1-4.4s3.2-1.7,5.4-1.7
			c1.9,0,3.6,0.5,5.3,1.4c0.5,0.3,0.7,0.7,0.8,1.2c0,0.1,0,0.2,0,0.3c0,0.4-0.1,0.8-0.4,1.1l-0.4,0.5c-0.3,0.4-0.7,0.7-1.3,0.8
			c-0.2,0-0.3,0-0.5,0c-0.4,0-0.7-0.1-1.1-0.3c-0.8-0.4-1.6-0.6-2.3-0.6c-1.4,0-2.1,0.5-2.1,1.4c0,0.1,0,0.3,0.1,0.4
			c0,0.1,0.1,0.2,0.2,0.3s0.2,0.2,0.3,0.3c0.1,0.1,0.2,0.2,0.4,0.3s0.3,0.1,0.4,0.2s0.3,0.1,0.5,0.2c0.2,0.1,0.4,0.2,0.6,0.2
			s0.4,0.1,0.6,0.2c0.3,0.1,0.5,0.2,0.7,0.2c0.7,0.3,1.3,0.5,1.8,0.8s1.1,0.6,1.6,1.1s1,1,1.2,1.7s0.4,1.4,0.4,2.2
			c0,1.9-0.7,3.4-2.1,4.5C519.5-55.3,517.5-54.7,515-54.7z"/>
	</g>
</g>
</svg>
