<svg xmlns="http://www.w3.org/2000/svg" width="425.424" height="151.731" viewBox="0 0 425.424 151.731">
  <g id="Group_172" data-name="Group 172" transform="translate(-121.51 195.926)">
    <g id="Group_116" data-name="Group 116" transform="translate(127.05 -187.843)">
      <path id="Path_423" data-name="Path 423" d="M499.8-191.026a43.778,43.778,0,0,0-33.058,15.035,43.787,43.787,0,0,0-33.061-15.035,43.778,43.778,0,0,0-33.058,15.035,43.783,43.783,0,0,0-33.061-15.035,43.778,43.778,0,0,0-33.058,15.035,43.779,43.779,0,0,0-33.061-15.035,43.778,43.778,0,0,0-33.058,15.035,43.778,43.778,0,0,0-33.058-15.035,43.779,43.779,0,0,0-33.061,15.035,43.778,43.778,0,0,0-33.058-15.035,43.9,43.9,0,0,0-43.9,43.9,43.9,43.9,0,0,0,43.9,43.9,43.778,43.778,0,0,0,33.058-15.034,43.779,43.779,0,0,0,33.061,15.034,43.778,43.778,0,0,0,33.058-15.034,43.778,43.778,0,0,0,33.058,15.034,43.779,43.779,0,0,0,33.061-15.034,43.778,43.778,0,0,0,33.058,15.034,43.783,43.783,0,0,0,33.061-15.034,43.778,43.778,0,0,0,33.058,15.034,43.787,43.787,0,0,0,33.061-15.034A43.778,43.778,0,0,0,499.8-103.234a43.9,43.9,0,0,0,43.9-43.9A43.9,43.9,0,0,0,499.8-191.026Z" transform="translate(-125.317 191.026)" fill="#595959" stroke="#595959" stroke-miterlimit="10" stroke-width="3"/>
    </g>
    <g id="Group_117" data-name="Group 117" transform="translate(124.01 -193.426)">
      <circle id="Ellipse_7" data-name="Ellipse 7" cx="43.897" cy="43.897" r="43.897" fill="#fffff8"/>
      <circle id="Ellipse_8" data-name="Ellipse 8" cx="43.897" cy="43.897" r="43.897" transform="translate(66.118)" fill="#fffff8"/>
      <circle id="Ellipse_9" data-name="Ellipse 9" cx="43.897" cy="43.897" r="43.897" transform="translate(132.237)" fill="#fffff8"/>
      <circle id="Ellipse_10" data-name="Ellipse 10" cx="43.897" cy="43.897" r="43.897" transform="translate(198.355)" fill="#fffff8"/>
      <circle id="Ellipse_11" data-name="Ellipse 11" cx="43.897" cy="43.897" r="43.897" transform="translate(264.474)" fill="#fffff8"/>
      <circle id="Ellipse_12" data-name="Ellipse 12" cx="43.897" cy="43.897" r="43.897" transform="translate(330.592)" fill="#fffff8"/>
    </g>
    <g id="Group_118" data-name="Group 118" transform="translate(124.01 -193.426)">
      <path id="Path_424" data-name="Path 424" d="M498.5-193.426a43.778,43.778,0,0,0-33.058,15.034,43.778,43.778,0,0,0-33.058-15.034,43.779,43.779,0,0,0-33.061,15.034,43.778,43.778,0,0,0-33.058-15.034A43.779,43.779,0,0,0,333.2-178.392a43.778,43.778,0,0,0-33.058-15.034,43.787,43.787,0,0,0-33.061,15.034,43.778,43.778,0,0,0-33.058-15.034,43.778,43.778,0,0,0-33.058,15.034,43.783,43.783,0,0,0-33.061-15.034,43.9,43.9,0,0,0-43.9,43.9,43.9,43.9,0,0,0,43.9,43.9,43.783,43.783,0,0,0,33.061-15.035,43.778,43.778,0,0,0,33.058,15.035,43.778,43.778,0,0,0,33.058-15.035,43.787,43.787,0,0,0,33.061,15.035A43.778,43.778,0,0,0,333.2-120.668a43.779,43.779,0,0,0,33.061,15.035,43.778,43.778,0,0,0,33.058-15.035,43.779,43.779,0,0,0,33.061,15.035,43.778,43.778,0,0,0,33.058-15.035A43.778,43.778,0,0,0,498.5-105.634a43.9,43.9,0,0,0,43.9-43.9A43.9,43.9,0,0,0,498.5-193.426Z" transform="translate(-124.01 193.426)" fill="none" stroke="#595959" stroke-miterlimit="10" stroke-width="5"/>
    </g>
    <text id="台東美食地圖" transform="translate(135.25 -132.231)" fill="#58b06e" font-size="65" font-family="HanWangLiSuMedium"><tspan x="0" y="0">台東</tspan><tspan y="0" fill="#f95711">美食</tspan><tspan y="0" fill="#595959">地圖</tspan></text>
    <text id="Taitung_Foods" data-name="Taitung&apos; Foods" transform="translate(269.77 -55.195)" fill="#595959" font-size="34" font-family="GenJyuuGothic-Heavy, Gen Jyuu Gothic" font-weight="800"><tspan x="0" y="0">Taitung&apos; Foods</tspan></text>
  </g>
</svg>
