<svg xmlns="http://www.w3.org/2000/svg" width="159.146" height="156.541" viewBox="0 0 159.146 156.541">
  <g id="グループ_1" data-name="グループ 1" transform="translate(-1108.814 -2982.317)">
    <path id="パス_1" data-name="パス 1" d="M1241.834,3088.611a6.9,6.9,0,0,1-9.658,1.4l0,0a53.219,53.219,0,0,1-23.751,25.133c5.3-5.871,8.76-14.673,10.034-25.082l11.529-2.681a5.986,5.986,0,0,1-.294-.554l-1.666-4.434-9.11,2.119a87.883,87.883,0,0,0-1.8-21.5l3.327-.774-1.882-5.008-2.648.616a95.716,95.716,0,0,0-3.177-9.861c-1.54.842-3.144,1.692-4.735,2.539a89.029,89.029,0,0,1,2.749,8.523l-18.2,4.233.153,5.41,19.248-4.477a82.174,82.174,0,0,1,1.586,21.549l-21.758,5.061-2.655-11.417-2.217,2.465a6.79,6.79,0,0,1-2.281,1.613l1.987,8.541-21.759,5.061a75.33,75.33,0,0,1-4.474-9.209c-.511.36-1.04.725-1.538,1.091-1,.728-1.878,1.428-2.822,2.144,1.072,2.51,2.214,4.947,3.459,7.225l-16.5,3.838v0c-1.275,1.253-2.483,2.487-3.584,3.713-.868.973-1.646,1.912-2.375,2.832a61.867,61.867,0,0,0,105.384-20.859Zm-94.682,18.035,15.2-3.534c5.742,8.776,12.724,15.15,20.072,18.079a53.245,53.245,0,0,1-35.267-14.545Zm45.428,11.017c-8.526.546-17.494-5.561-24.678-15.843l19.915-4.632Zm.4-21.677,19.915-4.632c-1.906,12.389-7.265,21.836-15.152,25.107Z" fill="#fff"/>
    <path id="パス_2" data-name="パス 2" d="M1267.96,2991.374c-9.736-3.59-26.482,4.438-44.313,16.554l-42.237-25.611-11.5,3.1L1207.118,3020c-10.166,7.882-20.085,16.332-28.72,24.014l-16.792-7.463-5.771,2.071,19.071,15.146,6.781,23.4,4.1-4.557-.533-18.365c10.387-5.062,21.976-11.039,33.125-17.446l17.864,47.554,7.227-9.469-7.662-48.788C1253.8,3014.187,1267.582,3001.741,1267.96,2991.374Z" fill="#fff"/>
    <path id="パス_3" data-name="パス 3" d="M1185.671,3009.65l-3.83-3.563a61.86,61.86,0,0,0-59.83,66.591c3.058-3.663,6.09-6.96,8.891-9.869a51.912,51.912,0,0,1,1.2-7.4l8.314-1.934c2.6-2.425,5.273-4.867,8.113-7.333l-14.656,3.409a53.246,53.246,0,0,1,25.23-28.617,36.648,36.648,0,0,0-6.831,11.7,6.64,6.64,0,0,1,1.2-.62l5.771-2.071c.035-.011.079-.019.109-.029,2.645-4.887,6.145-8.524,10.423-10.3l3.34,14.362,4.014,1.787c.523-.459,1.022-.87,1.539-1.328l-3.727-16.023c5.21-.336,10.59,1.844,15.628,5.913l5.952-4.738Z" fill="#fff"/>
    <path id="パス_4" data-name="パス 4" d="M1168.8,3057.873l-12.017-9.545c-5.562,4.705-11.719,10.18-18.019,16.485a155.5,155.5,0,0,0-20.423,24.513,66.875,66.875,0,0,0-7.7,15.736,38.858,38.858,0,0,0-1.772,9.3c-.069.8-.046,1.644-.05,2.465-.01.41.038.827.056,1.241l.119,1.489.4,1.761.65,2.581a22.841,22.841,0,0,0,4.889,8.712,18.491,18.491,0,0,0,8.007,5.107c5.589,1.738,10.312,1.136,14.338.447a78.217,78.217,0,0,0,17.937-6.182c1.269-.594,2.331-1.112,3.23-1.555-12.582,2.237-21.018,1.058-25.7-.232a17.58,17.58,0,0,1-3.711-1.315c-.512-.235-.8-.4-.8-.4l.078-.025a10.008,10.008,0,0,1-.939-.552c-2.394-1.8-2.915-3.825-2.932-6.9.045-.326.081-.622.1-.924l.113-1.807.005-.053c-.015-.275.023.31.019.232l.013-.065.016-.145.034-.277c.03-.183.029-.361.075-.559.087-.383.12-.754.241-1.15a22.532,22.532,0,0,1,1.86-4.906,49.462,49.462,0,0,1,7.267-10.167,135.242,135.242,0,0,1,20.538-17.891c6.256-4.561,12.4-8.507,17.989-11.923Z" fill="#fff"/>
  </g>
</svg>
