<svg xmlns="http://www.w3.org/2000/svg" viewBox="0 0 250 250"><defs><style>.cls-1{fill:#f8db25;}</style></defs><g id="レイヤー_2" data-name="レイヤー 2"><g id="レイヤー_1-2" data-name="レイヤー 1"><rect class="cls-1" width="250" height="250"/><path d="M69.19,120.26c0-15,8.25-22.48,21.44-22.48s19.83,7.49,19.83,22.67v5.7H77.82V128c0,9.2,4.37,13.85,13.1,13.85,6.54,0,10.15-3.23,10.72-7.31h8.06c-1.42,8.73-6.93,14.61-18.78,14.61-14.52,0-21.73-7.49-21.73-22.48Zm32.64-1.32c-.1-11.2-4.08-13.86-11.39-13.86-8.35,0-12.62,4.65-12.62,13.86Z"/><path d="M136.08,148.34v-40.4H125.8v-6.27h10.28v-14h8.63v14h10.12v6.27H144.71v40.4Z"/><path d="M229.05,101.67v46.67h-8.63V101.67Z"/><circle cx="224.74" cy="90.2" r="5.04" transform="translate(99.79 297.64) rotate(-80.81)"/><circle cx="40.34" cy="90.2" r="5.04" transform="translate(-55.15 115.61) rotate(-80.81)"/><path d="M14.22,166.19,17,159.72a22.56,22.56,0,0,0,9.58,2.3c7.9,0,10.1-4,10.1-11V108.7H21.55v-7h23.9v48.86c0,10.56-4.24,18.59-18.63,18.59A29.35,29.35,0,0,1,14.22,166.19Z"/><path d="M178,101.47v-7c0-8.65,3.5-13.54,10.85-13.54,5.62,0,9.73,4.17,11.42,7.61L194,92.16c-1.05-2-2.43-3.3-4.53-3.3-1.48,0-3,1.48-3,4.76v7.85h10.62v6.2H186.52v40.86H178V107.67H172.7v-6.2Z"/></g></g></svg>