<svg xmlns="http://www.w3.org/2000/svg" viewBox="0 0 158.05 46.02"><g id="レイヤー_2" data-name="レイヤー 2"><g id="レイヤー_1-2" data-name="レイヤー 1"><path d="M43,37a2.21,2.21,0,0,1-1.36.5,2.06,2.06,0,0,1-.85-.15,2.11,2.11,0,0,1-.85-.62,16.78,16.78,0,0,1-9.09,6,14.27,14.27,0,0,0,4.87-7h3.73c0-.06,0-.12,0-.19l-.19-1.48h-3a27.3,27.3,0,0,0,1-6.73h1.08l-.22-1.67h-.86A28.11,28.11,0,0,0,37,22.4l-1.63.44a28,28,0,0,1,.23,2.81H29.67l-.34,1.67h6.23a25.64,25.64,0,0,1-1.05,6.73h-7v-3.7l-.86.6a2,2,0,0,1-.81.34v2.76h-7A24.61,24.61,0,0,1,18,30.9l-.55.23-1,.45c.15.85.33,1.68.55,2.47H11.68c-.48.29-.94.58-1.37.88s-.64.47-.93.7a19.5,19.5,0,0,0,33.84,1.12ZM12.64,35.72h4.92a14.27,14.27,0,0,0,4.87,7A16.77,16.77,0,0,1,12.64,35.72ZM25.8,42.35c-2.66-.44-5-3-6.45-6.63H25.8Zm1.67-6.63h6.45c-1.47,3.67-3.79,6.19-6.45,6.63Z"/><path d="M58,9c-2.74-1.8-8.45-.53-14.79,1.92L32,0,28.28.13l9,13.27C33.55,15.1,29.9,17,26.7,18.73l-4.62-3.49-1.92.22,4.78,6,.41,7.67L26.93,28l1.15-5.67c3.55-.82,7.53-1.82,11.41-3l2.09,15.87,2.9-2.39,1.13-15.53C52,15,57.1,12.12,58,9Z"/><path d="M31.39,8.69l-.92-1.36A19.46,19.46,0,0,0,7.35,23.5c1.2-.91,2.36-1.7,3.43-2.4a16.65,16.65,0,0,1,.9-2.18h2.69c1-.56,2-1.12,3-1.67H12.64a16.75,16.75,0,0,1,9.79-7,11.57,11.57,0,0,0-2.94,3.11,2,2,0,0,1,.42-.11L21.83,13h0a6.92,6.92,0,0,1,3.94-2.42v4.65l1.1.83.57-.29V10.62a7.22,7.22,0,0,1,4.37,2.93l2.17-1Z"/><path d="M22.77,22.29l-3-3.78c-2,1-4.33,2.28-6.71,3.77a48.38,48.38,0,0,0-8,6.07,21.22,21.22,0,0,0-3.49,4.28A12.5,12.5,0,0,0,.33,35.36c-.07.24-.13.5-.19.75s0,.26-.07.39L0,37v.57l0,.84a7.22,7.22,0,0,0,.87,3A5.83,5.83,0,0,0,3,43.53a9.11,9.11,0,0,0,4.37,1.16,25,25,0,0,0,6-.61l1.1-.25a18.54,18.54,0,0,1-7.88-1.91,5,5,0,0,1-1-.67,1.9,1.9,0,0,1-.22-.18h0c-.08-.08-.18-.15-.25-.23a2.37,2.37,0,0,1-.41-2.33c0-.1.07-.19.1-.28l.16-.54v0c0-.09,0,.1,0,.07v-.06l0-.08L5,37.43c.06-.11.09-.22.16-.33a7.36,7.36,0,0,1,.92-1.38,15.52,15.52,0,0,1,3-2.6,43.34,43.34,0,0,1,7.58-4c2.25-.95,4.42-1.72,6.37-2.37Z"/><path d="M89.2,24.48c0-6.43,3.54-9.64,9.19-9.64s8.5,3.21,8.5,9.72V27h-14v.81c0,4,1.87,5.94,5.61,5.94,2.81,0,4.35-1.38,4.6-3.13h3.46c-.61,3.74-3,6.27-8.06,6.27-6.22,0-9.31-3.22-9.31-9.65Zm14-.57c0-4.8-1.75-5.94-4.88-5.94-3.58,0-5.41,2-5.41,5.94Z"/><path d="M117.88,36.52V19.19h-4.41V16.51h4.41v-6h3.7v6h4.34v2.68h-4.34V36.52Z"/><path d="M157.74,16.51v20H154v-20Z"/><circle cx="155.89" cy="11.59" r="2.16" transform="translate(119.55 163.63) rotate(-80.81)"/><circle cx="76.83" cy="11.59" r="2.16" transform="translate(53.11 85.58) rotate(-80.81)"/><path d="M65.63,44.17l1.18-2.77a9.67,9.67,0,0,0,4.1,1c3.39,0,4.33-1.7,4.33-4.7V19.52H68.77v-3H79v21c0,4.53-1.82,8-8,8A12.49,12.49,0,0,1,65.63,44.17Z"/><path d="M135.84,16.42v-3c0-3.71,1.5-5.81,4.65-5.81a5.73,5.73,0,0,1,4.9,3.27l-2.67,1.57A2.21,2.21,0,0,0,140.78,11c-.64,0-1.27.63-1.27,2v3.36h4.55v2.66h-4.55V36.6h-3.67V19.08h-2.26V16.42Z"/></g></g></svg>