<svg width="61" height="61" viewBox="0 0 61 61" fill="none" xmlns="http://www.w3.org/2000/svg">
<rect x="0.5" y="0.620605" width="60" height="60" rx="30" fill="#F2F1F6"/>
<g clip-path="url(#clip0_903_8919)">
<path d="M43.1873 22.6935L40.2029 17.9696C39.9373 17.5477 39.4633 17.2873 38.9581 17.2873H20.3748C19.8696 17.2873 19.3956 17.5477 19.13 17.9696L16.1404 22.6935C14.5988 25.131 15.9633 28.5216 18.8436 28.9123C19.0519 28.9383 19.2654 28.9539 19.4738 28.9539C20.8331 28.9539 22.0415 28.3602 22.8696 27.4435C23.6977 28.3602 24.9061 28.9539 26.2654 28.9539C27.6248 28.9539 28.8331 28.3602 29.6613 27.4435C30.4894 28.3602 31.6977 28.9539 33.0571 28.9539C34.4217 28.9539 35.6248 28.3602 36.4529 27.4435C37.2863 28.3602 38.4894 28.9539 39.8488 28.9539C40.0623 28.9539 40.2706 28.9383 40.479 28.9123C43.3696 28.5268 44.7394 25.1362 43.1925 22.6935H43.1873ZM40.6925 30.5633H40.6873C40.4113 30.5998 40.13 30.6206 39.8436 30.6206C39.1977 30.6206 38.5779 30.5216 37.9998 30.3446V37.2873H21.3331V30.3393C20.7498 30.5216 20.1248 30.6206 19.479 30.6206C19.1925 30.6206 18.9061 30.5998 18.63 30.5633H18.6248C18.4113 30.5321 18.2029 30.4956 17.9998 30.4435V37.2873V40.6206C17.9998 42.4591 19.4946 43.9539 21.3331 43.9539H37.9998C39.8383 43.9539 41.3331 42.4591 41.3331 40.6206V37.2873V30.4435C41.1248 30.4956 40.9165 30.5373 40.6925 30.5633Z" fill="#828282"/>
</g>
<defs>
<clipPath id="clip0_903_8919">
<rect width="30" height="26.6667" fill="white" transform="translate(15.5 17.2873)"/>
</clipPath>
</defs>
</svg>
