<svg width="39" height="38" viewBox="0 0 39 38" fill="none" xmlns="http://www.w3.org/2000/svg">
<path d="M18.6416 0.273937L0 15.6844V36.3762C0 36.8069 0.170442 37.2199 0.473829 37.5244C0.777217 37.8289 1.1887 38 1.61775 38L12.9481 37.9706C13.3757 37.9684 13.7852 37.7964 14.0868 37.4921C14.3884 37.1878 14.5578 36.7761 14.5578 36.3468V26.6337C14.5578 26.203 14.7282 25.79 15.0316 25.4855C15.335 25.181 15.7465 25.0099 16.1755 25.0099H22.6465C23.0756 25.0099 23.4871 25.181 23.7904 25.4855C24.0938 25.79 24.2643 26.203 24.2643 26.6337V36.3397C24.2636 36.5534 24.305 36.7651 24.386 36.9626C24.467 37.1602 24.586 37.3398 24.7363 37.4912C24.8866 37.6425 25.0652 37.7625 25.2618 37.8445C25.4584 37.9264 25.6692 37.9685 25.882 37.9685L37.2083 38C37.6374 38 38.0489 37.8289 38.3523 37.5244C38.6556 37.2199 38.8261 36.8069 38.8261 36.3762V15.6733L20.1886 0.273937C19.9694 0.0966674 19.6965 0 19.4151 0C19.1336 0 18.8607 0.0966674 18.6416 0.273937Z" fill="white"/>
</svg>
