<svg width="34" height="40" viewBox="0 0 34 40" fill="none" xmlns="http://www.w3.org/2000/svg">
<path d="M28.7508 4.85144C22.1739 -1.61812 11.5106 -1.61812 4.93367 4.85144C-1.64326 11.321 -1.64326 21.8138 4.93367 28.2833L16.8412 39.9993L28.7508 28.2833C35.3278 21.8138 35.3278 11.3231 28.7508 4.85144ZM16.8412 22.1043C15.4349 22.1043 14.1148 21.5569 13.119 20.5632C11.0664 18.5106 11.0664 15.1716 13.119 13.1189C14.1127 12.1252 15.4349 11.5778 16.8412 11.5778C18.2475 11.5778 19.5697 12.1252 20.5634 13.1189C22.616 15.1716 22.616 18.5127 20.5634 20.5632C19.5697 21.5569 18.2475 22.1043 16.8412 22.1043Z" fill="white"/>
</svg>
