<svg width="52" height="38" viewBox="0 0 52 38" fill="none" xmlns="http://www.w3.org/2000/svg">
<path fill-rule="evenodd" clip-rule="evenodd" d="M46.7083 38H4.75C2.12661 38 0 35.8734 0 33.25V2.375C0 1.06331 1.06331 0 2.375 0H49.0833C50.395 0 51.4583 1.06331 51.4583 2.375V33.25C51.4583 35.8734 49.3317 38 46.7083 38ZM43.9375 6.33333C44.5933 6.33333 45.125 6.86504 45.125 7.52083V11.4792C45.125 12.135 44.5933 12.6667 43.9375 12.6667H7.52083C6.86503 12.6667 6.33333 12.135 6.33333 11.4792V7.52083C6.33333 6.86504 6.86503 6.33333 7.52083 6.33333H43.9375ZM43.9375 31.6667H28.8958C28.24 31.6667 27.7083 31.135 27.7083 30.4792V29.6875C27.7083 29.0317 28.24 28.5 28.8958 28.5H43.9375C44.5933 28.5 45.125 29.0317 45.125 29.6875V30.4792C45.125 31.135 44.5933 31.6667 43.9375 31.6667ZM43.9375 22.1667H28.8958C28.24 22.1667 27.7083 21.635 27.7083 20.9792V20.1875C27.7083 19.5317 28.24 19 28.8958 19H43.9375C44.5933 19 45.125 19.5317 45.125 20.1875V20.9792C45.125 21.635 44.5933 22.1667 43.9375 22.1667ZM7.52083 31.6667H22.5625C23.2183 31.6667 23.75 31.135 23.75 30.4792V29.6875C23.75 29.0317 23.2183 28.5 22.5625 28.5H7.52083C6.86503 28.5 6.33333 29.0317 6.33333 29.6875V30.4792C6.33333 31.135 6.86503 31.6667 7.52083 31.6667ZM7.52083 22.1667H22.5625C23.2183 22.1667 23.75 21.635 23.75 20.9792V20.1875C23.75 19.5317 23.2183 19 22.5625 19H7.52083C6.86503 19 6.33333 19.5317 6.33333 20.1875V20.9792C6.33333 21.635 6.86503 22.1667 7.52083 22.1667Z" fill="white"/>
</svg>
