<svg width="138" height="138" viewBox="0 0 138 138" fill="none" xmlns="http://www.w3.org/2000/svg">
<path d="M55.5398 69.5665C53.8829 69.5665 52.5224 68.2209 52.6424 66.5684C52.8297 63.9889 53.2735 61.8411 53.9737 60.125C54.9297 57.7823 56.673 55.4819 59.2035 53.2238C61.7621 50.9375 63.4632 49.0887 64.3067 47.6774C65.1502 46.2379 65.572 44.7278 65.572 43.1472C65.572 38.377 63.3788 35.9919 58.9926 35.9919C56.912 35.9919 55.239 36.6411 53.9737 37.9395C53.3225 38.6082 52.8348 39.4137 52.5108 40.3562C51.9816 41.8955 50.7352 43.2319 49.1075 43.2319H42.8343C41.1652 43.2319 39.7894 41.8625 40.0268 40.2103C40.5974 36.2388 42.252 33.0263 44.9904 30.5726C48.4207 27.5242 53.0881 26 58.9926 26C64.9534 26 69.5786 27.4536 72.8683 30.3609C76.158 33.2399 77.8028 37.3186 77.8028 42.5968C77.8028 44.996 77.2686 47.2681 76.2002 49.4133C75.1317 51.5302 73.2619 53.8871 70.5908 56.4839L67.1746 59.744C65.0377 61.8044 63.8147 64.2177 63.5054 66.9839C63.4105 68.4367 62.2044 69.5665 60.7485 69.5665H55.5398Z" fill="#B4ABAE"/>
<path d="M51.3167 82.5645C51.3167 80.6734 51.9493 79.121 53.2146 77.9073C54.508 76.6653 56.1528 76.0444 58.1491 76.0444C60.1454 76.0444 61.7762 76.6653 63.0414 77.9073C64.3348 79.121 64.9815 80.6734 64.9815 82.5645C64.9815 84.4274 64.3489 85.9657 63.0836 87.1794C61.8465 88.3931 60.2016 89 58.1491 89C56.0966 89 54.4377 88.3931 53.1724 87.1794C51.9353 85.9657 51.3167 84.4274 51.3167 82.5645Z" fill="#B4ABAE"/>
<path fill-rule="evenodd" clip-rule="evenodd" d="M103.156 94.7079C111.286 84.7149 116.16 71.9665 116.16 58.0799C116.16 26.0032 90.1565 0 58.0799 0C26.0032 0 0 26.0032 0 58.0799C0 90.1565 26.0032 116.16 58.0799 116.16C71.9665 116.16 84.7149 111.286 94.708 103.156C94.9272 103.547 95.2031 103.915 95.5355 104.247L127.478 136.189C129.43 138.142 132.596 138.142 134.549 136.189L136.189 134.549C138.142 132.596 138.142 129.43 136.189 127.478L104.247 95.5355C103.915 95.2031 103.547 94.9272 103.156 94.7079ZM58.0799 106.16C84.6336 106.16 106.16 84.6336 106.16 58.0799C106.16 31.5261 84.6336 10 58.0799 10C31.5261 10 10 31.5261 10 58.0799C10 84.6336 31.5261 106.16 58.0799 106.16Z" fill="#B4ABAE"/>
</svg>
