<svg width="50" height="54" viewBox="0 0 50 54" fill="none" xmlns="http://www.w3.org/2000/svg">
<path d="M0 23.1429H21.1315V0H0V23.1429ZM7.04385 7.71429H14.0877V15.4286H7.04385V7.71429ZM28.1754 0V23.1429H49.3069V0H28.1754ZM42.2631 15.4286H35.2192V7.71429H42.2631V15.4286ZM0 54H21.1315V30.8571H0V54ZM7.04385 38.5714H14.0877V46.2857H7.04385V38.5714ZM45.785 30.8571H49.3069V46.2857H38.7412V42.4286H35.2192V54H28.1754V30.8571H38.7412V34.7143H45.785V30.8571ZM45.785 50.1429H49.3069V54H45.785V50.1429ZM38.7412 50.1429H42.2631V54H38.7412V50.1429Z" fill="#655A5E"/>
</svg>
