<svg width="46" height="40" viewBox="0 0 46 40" fill="none" xmlns="http://www.w3.org/2000/svg">
<path fill-rule="evenodd" clip-rule="evenodd" d="M40.631 8.57143H7.04787C6.26908 8.57143 5.6383 7.93214 5.6383 7.14286C5.6383 6.35357 6.26908 5.71429 7.04787 5.71429H40.8777C41.6565 5.71429 42.2872 5.075 42.2872 4.28571C42.2872 1.91875 40.394 0 38.0585 0H5.6383C2.52402 0 0 2.55804 0 5.71429V34.2857C0 37.442 2.52402 40 5.6383 40H40.631C43.0995 40 45.1064 38.0777 45.1064 35.7143V12.8571C45.1064 10.4938 43.0995 8.57143 40.631 8.57143ZM24.8862 26.7981C25.2695 27.1586 25.4611 27.6468 25.4611 28.2627C25.4611 28.8561 25.2486 29.3293 24.8238 29.6823C24.3989 30.0278 23.8199 30.2005 23.0868 30.2005C22.2037 30.2005 21.5248 29.9639 21.0499 29.4908C20.5834 29.0101 20.3501 28.3228 20.3501 27.429H16.7387C16.7387 28.9688 17.2052 30.2043 18.1383 31.1356C19.0797 32.0595 20.4043 32.604 22.1121 32.7693V35H24.099V32.758C25.6485 32.6153 26.8648 32.1459 27.7479 31.3497C28.6309 30.5536 29.0725 29.517 29.0725 28.2402C29.0725 27.5567 28.9558 26.9596 28.7226 26.4489C28.4893 25.9306 28.1519 25.4724 27.7104 25.0744C27.2689 24.6688 26.7274 24.3082 26.0859 23.9928C25.4444 23.6698 24.6238 23.3281 23.6241 22.9676C22.6328 22.607 21.9538 22.254 21.5872 21.9085C21.2207 21.563 21.0374 21.1049 21.0374 20.534C21.0374 19.9181 21.2248 19.4374 21.5997 19.0919C21.9746 18.7389 22.5036 18.5624 23.1868 18.5624C23.8782 18.5624 24.428 18.7877 24.8363 19.2384C25.2528 19.6815 25.4611 20.3538 25.4611 21.2551H29.0725C29.0725 19.7904 28.6559 18.6 27.8229 17.6836C26.9898 16.7598 25.836 16.204 24.3614 16.0162V13.5714H22.362V15.9824C20.8708 16.1176 19.6753 16.5908 18.7756 17.402C17.8759 18.2132 17.426 19.2534 17.426 20.5228C17.426 21.2588 17.5551 21.8935 17.8134 22.4268C18.08 22.96 18.4465 23.4257 18.913 23.8238C19.3879 24.2144 19.9544 24.5636 20.6125 24.8716C21.2707 25.172 22.0538 25.4762 22.9618 25.7841C23.8699 26.0921 24.5114 26.4301 24.8862 26.7981Z" fill="white"/>
</svg>
