<?xml version="1.0" encoding="UTF-8"?><svg id="_圖層_1" xmlns="http://www.w3.org/2000/svg" viewBox="0 0 360 150"><defs><style>.cls-1{fill:#c2d565;}.cls-2{fill:#312c59;}</style></defs><path class="cls-1" d="m106.67,92.38h-46.75c1.06,7.56,7.21,12.18,16.62,12.18,6.55,0,11.43-1.92,16.02-5.87l8.65,10.15c-6.31,6.43-15.22,9.81-26.36,9.81-21.37,0-34.11-13.2-32.53-31.25,1.59-18.16,16.86-31.25,35.7-31.25s31.12,11.96,29.41,31.47c-.12,1.35-.52,3.27-.76,4.74Zm-46.08-10.27h30.44c-.59-7.67-6.02-12.63-14.06-12.63s-14.44,4.85-16.38,12.63Z"/><path class="cls-2" d="m109.5,109.98l7.52-13.76c6.35,4.85,16.17,8.24,25.81,8.24,11.03,0,15.82-3.61,16.25-8.46,1.29-14.78-46.35-4.62-43.78-33.96,1.17-13.42,13.18-24.59,36.04-24.59,10.11,0,20.24,2.37,27.3,6.99l-6.96,13.88c-7.1-4.17-14.62-6.21-21.74-6.21-11.03,0-15.63,4.06-16.07,9.03-1.27,14.55,46.36,4.51,43.82,33.5-1.15,13.2-13.28,24.48-36.26,24.48-12.75,0-25.29-3.72-31.94-9.14Z"/><path class="cls-2" d="m192.46,38.8h18.61l-6.91,78.96h-18.61l6.91-78.96Z"/><path class="cls-2" d="m293.53,117.76l4.03-47.38-27.08,39.03h-8.39l-20.22-38.01-4.06,46.36h-17.46l6.91-78.96h15.39l25.8,49.07,33.93-49.07h15.28l-6.68,78.96h-17.46Z"/></svg>