<?xml version="1.0" encoding="utf-8"?>
<!-- Generator: Adobe Illustrator 26.2.1, SVG Export Plug-In . SVG Version: 6.00 Build 0)  -->
<svg version="1.1" id="圖層_1" xmlns="http://www.w3.org/2000/svg" xmlns:xlink="http://www.w3.org/1999/xlink" x="0px" y="0px"
	 viewBox="0 0 512 512" style="enable-background:new 0 0 512 512;" xml:space="preserve">

<g>
	<path fill="#EF6079" d="M256,40c29.2,0,57.5,5.7,84.1,17c25.7,10.9,48.8,26.5,68.7,46.3c19.8,19.8,35.4,43,46.3,68.7
		c11.3,26.6,17,54.9,17,84.1s-5.7,57.5-17,84.1c-10.9,25.7-26.5,48.8-46.3,68.7c-19.8,19.8-43,35.4-68.7,46.3
		c-26.6,11.3-54.9,17-84.1,17s-57.5-5.7-84.1-17c-25.7-10.9-48.8-26.5-68.7-46.3c-19.8-19.8-35.4-43-46.3-68.7
		c-11.3-26.6-17-54.9-17-84.1s5.7-57.5,17-84.1c10.9-25.7,26.5-48.8,46.3-68.7c19.8-19.8,43-35.4,68.7-46.3
		C198.5,45.7,226.8,40,256,40 M256,0C114.6,0,0,114.6,0,256s114.6,256,256,256s256-114.6,256-256S397.4,0,256,0L256,0z"/>
</g>
<path fill="#EF6079" d="M175,208.1l47.1,47L175,303c-9.3,9.4-9.3,24.6,0,33.1c9.4,10.2,24.6,10.2,33.1,0l47-46.2l47.9,46.2
	c9.4,10.2,24.6,10.2,33.1,0c10.2-8.5,10.2-23.7,0-33.1l-46.2-47.9l46.2-47c10.2-8.5,10.2-23.7,0-33.1c-8.5-9.3-23.7-9.3-33.1,0
	l-47.9,47.1l-47-47.1c-8.5-9.3-23.7-9.3-33.1,0C165.7,184.4,165.7,199.6,175,208.1L175,208.1z"/>
</svg>
