<svg width="251" height="227" viewBox="0 0 251 227" fill="none" xmlns="http://www.w3.org/2000/svg">
<path d="M198.4 34.4942L197.167 33.3429C169.443 6.79134 133.342 9.77231 114.284 13.9149C107.671 15.2823 101.201 17.2681 94.9592 19.8461C94.1637 20.1982 93.4828 20.7663 92.9939 21.4859C92.5051 22.2055 92.2278 23.0478 92.1935 23.917C92.1593 24.7863 92.3694 25.6478 92.8002 26.4036C93.2309 27.1594 93.8649 27.7794 94.6303 28.193C97.6009 29.8068 99.2354 31.6057 99.4718 33.5382C99.8932 36.9921 96.4805 41.2991 94.5685 43.1391C87.6476 48.0627 81.2388 53.6691 75.4387 59.8739C75.1919 59.0413 74.9041 58.2189 74.606 57.4171C77.7206 55.5977 80.2083 52.3288 81.8015 47.9087C83.3949 43.5503 85.1629 34.196 80.4962 30.0432C79.4924 29.154 78.2374 28.5983 76.9043 28.4528C75.5712 28.3074 74.2258 28.5793 73.0539 29.2311C69.7215 30.9335 66.8212 33.3733 64.5734 36.365C61.4485 34.7512 55.9798 32.8084 50.5214 35.0082C45.4743 37.0229 44.8061 40.8468 44.7548 42.3887C44.6006 47.3228 49.2673 51.8046 53.6772 53.881C56.6594 55.2571 59.9725 55.7528 63.2268 55.3099C65.6769 59.187 67.2 63.577 67.6777 68.1385C67.6904 68.4588 67.7422 68.7764 67.8319 69.0842C65.4856 72.2603 63.3794 75.6069 61.5307 79.0962C59.9534 76.4623 57.6807 74.3141 54.9622 72.8875C52.5315 71.6777 49.8138 71.1632 47.1092 71.4008C44.4045 71.6385 41.8181 72.619 39.6357 74.2342C33.8278 78.4384 29.1508 87.7926 31.8234 93.549C32.2551 94.4845 34.7222 99.0485 41.3421 97.3832C48.4758 95.6357 52.6802 89.6121 54.6435 85.9217C55.8996 89.3141 56.503 92.9135 56.4219 96.53C56.4354 96.8375 56.4732 97.1434 56.535 97.4449C56.2112 102.464 56.6268 107.503 57.7684 112.401C60.1222 122.963 66.5452 132.171 75.6442 138.028L75.7881 138.11C84.1144 142.499 92.5435 143.805 100.818 142.006C107.119 140.559 112.959 137.563 117.81 133.289C124.226 138.083 131.387 141.789 139.006 144.257C139.078 144.278 146.5 146.755 159.565 146.642L159.945 146.683C160.069 146.693 160.192 146.704 160.315 146.704L160.5 146.714C164.541 146.66 168.567 146.202 172.517 145.347C200.744 139.21 221.097 113.234 220.902 83.5678C220.768 64.993 212.154 46.1921 198.4 34.4942ZM62.6305 44.6913C62.502 45.4416 62.4401 46.2018 62.4455 46.9631L62.4352 47.7237L61.6746 47.7751C61.4073 47.7854 61.1503 47.7957 60.8933 47.7957C59.5354 47.8145 58.1903 47.53 56.9563 46.9631C55.2447 46.1847 53.7772 44.9552 52.711 43.4064L52.269 42.656L53.0399 42.2655C53.1557 42.195 53.2801 42.1397 53.4099 42.101C56.5966 40.8161 60.3176 42.6355 62.2606 43.8382L62.7334 44.1363L62.6305 44.6913ZM48.8769 80.1858C48.8564 80.2578 45.9472 88.1421 39.8105 89.869L38.5461 90.2288L38.7723 88.9336C39.5525 85.5791 41.4389 82.5848 44.1278 80.4326C44.9773 79.8111 45.9471 79.3735 46.9752 79.1477C47.3402 79.0647 47.7116 79.0131 48.0854 78.9935L49.2264 78.9319L48.8769 80.1858ZM68.7468 44.8249C69.769 41.7405 71.7912 39.0852 74.4929 37.2799L75.7264 36.3958L75.7984 37.9069C75.9015 41.3294 75.1114 44.7198 73.5062 47.7442C72.8345 49.1124 71.7529 50.237 70.4121 50.9617L69.7029 51.3009L69.343 50.6019C68.3884 48.8308 68.174 46.7537 68.7468 44.8249ZM122.374 114.272C121.389 117.044 119.944 119.63 118.098 121.92L117.492 122.712L116.834 121.951C113.034 117.778 110.609 112.539 109.885 106.943C109.875 106.892 109.474 102.667 111.735 100.159C112.642 99.1458 113.836 98.4324 115.158 98.1131C117.286 97.6506 119.362 98.5963 121.326 100.94C121.737 101.557 124.759 106.511 122.374 114.272ZM170.543 136.26C167.293 136.966 163.98 137.348 160.655 137.401L160.243 137.36C160.099 137.349 159.935 137.339 159.781 137.339H159.729C148.432 137.452 141.987 135.448 141.926 135.427C135.611 133.362 129.646 130.35 124.235 126.494C126.611 123.507 128.457 120.135 129.693 116.523C133.404 104.476 127.75 96.7254 127.534 96.4478L127.37 96.2114C122.148 89.869 116.453 89.9924 113.534 90.6297C110.638 91.2847 108.019 92.8262 106.04 95.0395C101.476 100.128 102.185 107.046 102.288 107.817C103.15 114.916 106.184 121.575 110.974 126.885C107.467 129.83 103.309 131.898 98.8447 132.919C92.7903 134.235 86.5198 133.227 80.2495 129.948C73.4379 125.343 68.6372 118.314 66.8247 110.294C64.9349 102.333 65.4829 93.9884 68.3974 86.3432C68.6954 85.5928 76.004 67.789 100.233 50.53C100.376 50.4251 100.513 50.3118 100.644 50.1907C101.589 49.3376 109.813 41.6281 108.703 32.4281C108.412 29.9937 107.479 27.6805 105.999 25.7259C109.309 24.6774 112.753 23.7626 116.268 23.0019C137.331 18.4276 167.357 17.6669 190.763 40.0759L192.099 41.3505L192.191 41.4327C192.243 41.4635 192.284 41.5047 192.305 41.5149C198.298 46.6902 203.088 53.1143 206.336 60.3364C209.713 67.6459 211.504 75.5881 211.589 83.6397C211.763 108.917 194.504 131.048 170.543 136.26Z" fill="white"/>
<path d="M186.949 61.4978C185.407 57.0777 182.735 55.7722 180.761 55.4535C179.116 55.1863 175.888 55.3508 172.815 59.3597C171.837 60.662 171.026 62.0812 170.399 63.5845C167.749 61.4037 164.604 59.9071 161.24 59.226C159.989 58.9573 158.69 59.0076 157.463 59.3722C156.237 59.7369 155.121 60.4042 154.22 61.3127C152.061 63.6564 151.588 67.6345 152.986 71.7052C154.117 75.0254 158.177 82.9816 171.427 85.9627C171.346 88.5876 171.023 91.1993 170.461 93.7647C170.321 94.4431 170.333 95.144 170.497 95.8171C170.661 96.4902 170.971 97.1187 171.407 97.6573C171.842 98.196 172.392 98.6314 173.015 98.9324C173.639 99.2333 174.322 99.3922 175.015 99.3977C175.343 99.3962 175.671 99.3583 175.991 99.2847C176.865 99.0951 177.666 98.658 178.299 98.0255C178.931 97.393 179.369 96.5919 179.558 95.7178C180.591 91.1135 180.931 86.3807 180.565 81.6761C183.392 79.24 190.557 71.7977 186.949 61.4978ZM178.469 64.5816L179.486 62.9473L179.959 64.8078C180.3 66.2948 180.295 67.8403 179.944 69.325C179.593 70.8097 178.905 72.1938 177.934 73.3705L176.927 74.6965L176.485 73.1033C175.775 70.5437 177.214 66.5861 178.469 64.5816V64.5816ZM159.894 67.8813L159.709 66.5964L160.953 66.9664C165.551 68.7464 169.307 72.1976 171.468 76.6291L172.322 78.3766L170.471 77.7701C164.982 75.9712 162.34 73.1341 161.086 71.0679V71.0577C160.483 70.0877 160.078 69.0083 159.894 67.8813V67.8813Z" fill="white"/>
<path d="M5.60058 178.316H1.37322V176.697H5.92555V167.627H8.85232V176.697H11.1285V178.316H8.85234V182.203C10.1118 183.436 11.3058 184.733 12.4294 186.09C12.32 188.033 12.0489 189.329 11.6163 189.977C10.8569 189.329 9.93554 187.386 8.85234 184.146V207.629H5.92557V189.329C4.51553 192.244 2.99809 195.159 1.37323 198.074H0.397644C3.334 191.862 5.09767 185.164 5.60058 178.316ZM15.3558 179.935V167.627H18.2826V192.892C18.3893 196.564 16.1131 201.368 11.4538 207.306H9.82793C13.405 202.986 15.2476 198.289 15.3559 193.216V189.005C14.3806 192.462 12.7547 194.621 10.4782 195.483C10.5799 194.154 10.3568 192.82 9.82793 191.596C11.8858 191.49 13.7285 189.924 15.3559 186.9V181.231L13.405 184.47C12.9705 182.527 12.5912 180.583 12.2669 178.64C11.9722 176.927 11.8091 175.195 11.7791 173.458L11.9416 173.296C13.2307 175.429 14.3715 177.647 15.3559 179.935L15.3558 179.935ZM19.9085 204.714V167.627H22.8353V182.365L27.0626 174.105L28.3632 174.753L22.8353 185.442C24.619 187.066 26.3023 188.797 27.8757 190.624C27.6892 192.041 27.2486 193.412 26.5748 194.673C25.4901 193.595 24.2436 190.95 22.8353 186.738V202.447C22.7261 203.634 23.3222 204.228 24.6236 204.228C25.9245 204.228 26.6291 203.634 26.7373 202.447L27.7129 195.483H28.526V201.151H29.0138V204.391C28.9044 206.334 27.8203 207.306 25.7617 207.306H22.6728C20.7216 207.197 19.8002 206.332 19.9085 204.714L19.9085 204.714Z" fill="white"/>
<path d="M61.6479 168.275V169.409H80.021L79.8582 168.275H83.2728V207.468H79.8582V205.363H61.8107V207.468H58.3962V168.275H61.6479ZM79.8582 171.191H61.6479V203.742H79.8582V171.191ZM68.8021 189.977H67.664V191.272H64.5747V182.203H67.664V183.661H74.4928V182.365H77.582V190.949L78.0698 190.301L79.2079 191.272L74.8181 196.131C75.7934 196.996 77.3108 197.644 79.3704 198.074C78.9423 198.711 78.6744 199.44 78.5895 200.201C78.5046 200.962 78.6051 201.733 78.8826 202.447C75.5217 201.584 72.7035 198.291 70.4279 192.568C70.2945 192.712 70.1848 192.876 70.1029 193.054V202.771H67.1762V195.645C66.0914 196.511 64.7906 197.536 63.2738 198.722H61.8107C65.1692 196.131 67.4996 193.216 68.8021 189.977V189.977ZM69.2899 171.838H72.3791V174.591H77.9074V176.049H72.3791V179.45H79.0454V181.07H62.461V179.45H69.2899V176.049H63.4366V174.591H69.2899V171.838ZM74.4928 185.118H67.664V188.519H74.4928V185.118ZM74.4928 189.977H72.3791C71.963 190.675 71.4724 191.327 70.9157 191.92C71.5648 193.295 72.5082 194.511 73.6797 195.483L77.2567 191.434H74.4928L74.4928 189.977Z" fill="white"/>
<path d="M113.143 174.915V173.134H126.476C126.278 172.887 126.114 172.614 125.988 172.324C125.119 170.781 124.411 169.153 123.874 167.466L124.037 167.304C125.81 168.232 127.497 169.316 129.077 170.543C128.821 171.484 128.379 172.365 127.776 173.134H141.109V174.915H128.752V181.393H134.443V179.936H137.857V199.046C137.748 201.313 136.338 202.933 133.629 203.905C133.52 203.148 133.141 202.878 132.491 203.095L130.053 203.581L129.727 202.771C133.086 202.341 134.658 201.153 134.443 199.208V183.175H128.752V207.629H125.338V183.175H119.484V203.095H116.07V179.936H119.484V181.393H125.338V174.916L113.143 174.915Z" fill="white"/>
<path d="M168.052 202.447H170.166V167.627H173.581V169.247H189.189V167.627H192.604V180.584H189.189V178.964H183.986V186.252H194.392V188.033H184.149C184.581 195.268 187.453 200.072 192.766 202.447L194.23 194.835L194.88 194.997L194.392 202.771L195.368 203.095V207.467C186.044 204.552 181.167 198.074 180.735 188.033H173.581V202.447C175.857 201.908 178.35 200.612 181.06 198.56C181.385 198.345 181.492 198.454 181.385 198.884C179.541 202.447 175.205 205.146 168.378 206.981C168.81 205.9 168.701 204.389 168.052 202.447ZM189.189 171.028H173.581V177.182H189.189V171.028ZM173.581 178.964V186.252H180.572V178.964L173.581 178.964Z" fill="white"/>
<path d="M234.018 182.527V167.627H237.595V174.105H248.651V176.049H237.595V182.527H250.602V184.47H237.595V207.629H234.018V184.47H222.961V182.527H234.018ZM239.546 187.224L239.708 187.061C239.746 187.405 239.857 187.736 240.034 188.033C242.091 192.244 244.747 194.943 248.001 196.131C247.353 197.733 247.296 199.511 247.838 201.151L247.513 201.313C242.526 199.263 239.87 194.567 239.546 187.224Z" fill="white"/>
<path d="M34.6151 226.228C33.7671 226.228 32.9381 225.978 32.2329 225.509C31.5276 225.04 30.9779 224.373 30.6532 223.593C30.3285 222.813 30.2435 221.954 30.4088 221.126C30.5741 220.297 30.9823 219.536 31.5819 218.939C32.1814 218.342 32.9454 217.935 33.7771 217.77C34.6088 217.605 35.4708 217.69 36.2542 218.013C37.0376 218.336 37.7072 218.884 38.1782 219.586C38.6492 220.289 38.9005 221.114 38.9003 221.959C38.8981 223.09 38.4459 224.175 37.6428 224.975C36.8397 225.775 35.751 226.226 34.6151 226.228ZM34.6139 218.552C33.9384 218.554 33.2785 218.755 32.7176 219.13C32.1567 219.505 31.7199 220.037 31.4623 220.659C31.2047 221.281 31.1378 221.965 31.2702 222.625C31.4026 223.284 31.7282 223.89 32.206 224.366C32.6838 224.842 33.2924 225.166 33.9549 225.297C34.6174 225.428 35.3041 225.361 35.9284 225.104C36.5527 224.847 37.0865 224.412 37.4625 223.853C37.8386 223.294 38.0399 222.637 38.0412 221.964C38.04 221.059 37.6785 220.192 37.0359 219.552C36.3934 218.912 35.5223 218.553 34.6139 218.552Z" fill="white"/>
<path d="M9.6079 218.694L1.96857 218.692C1.91271 218.693 1.85734 218.682 1.80565 218.661C1.75397 218.64 1.70703 218.609 1.66756 218.57C1.6281 218.53 1.59691 218.483 1.57581 218.432C1.55471 218.38 1.54413 218.325 1.54468 218.269C1.54384 218.213 1.55437 218.156 1.57567 218.103C1.59697 218.051 1.6286 218.003 1.66873 217.962C1.70885 217.922 1.75666 217.89 1.80937 217.868C1.86207 217.846 1.91861 217.835 1.97569 217.835L9.60708 217.835C9.66377 217.836 9.71988 217.847 9.77219 217.869C9.8245 217.89 9.872 217.922 9.91197 217.962C9.95195 218.002 9.98362 218.05 10.0052 218.102C10.0267 218.154 10.0377 218.21 10.0375 218.266C10.0388 218.323 10.0285 218.379 10.0073 218.432C9.98619 218.484 9.95459 218.532 9.91443 218.572C9.87428 218.611 9.82642 218.643 9.77373 218.664C9.72105 218.685 9.66463 218.695 9.6079 218.694Z" fill="white"/>
<path d="M5.79136 226.09C5.73425 226.092 5.6774 226.082 5.62436 226.061C5.57131 226.04 5.52319 226.008 5.48298 225.967C5.44276 225.927 5.41131 225.879 5.39056 225.826C5.36982 225.773 5.36022 225.716 5.36237 225.659L5.35727 221.225C5.35563 221.168 5.36561 221.111 5.38662 221.058C5.40763 221.005 5.43922 220.957 5.47949 220.916C5.51976 220.875 5.56788 220.843 5.62093 220.822C5.67398 220.8 5.73087 220.79 5.78816 220.791C5.90331 220.791 6.01354 220.837 6.095 220.918C6.17646 220.999 6.22261 221.109 6.22349 221.224L6.22566 225.659C6.22611 225.716 6.21518 225.773 6.19349 225.825C6.1718 225.878 6.1398 225.926 6.09936 225.966C6.05892 226.006 6.01084 226.037 5.95796 226.059C5.90507 226.08 5.84844 226.091 5.79136 226.09Z" fill="white"/>
<path d="M136.517 218.694L128.887 218.69C128.83 218.691 128.774 218.68 128.721 218.659C128.668 218.638 128.62 218.606 128.579 218.566C128.539 218.526 128.507 218.479 128.485 218.426C128.463 218.374 128.451 218.318 128.451 218.261C128.453 218.147 128.5 218.038 128.582 217.958C128.663 217.877 128.773 217.832 128.888 217.831L136.519 217.835C136.576 217.833 136.632 217.843 136.685 217.864C136.739 217.885 136.787 217.916 136.827 217.956C136.868 217.996 136.899 218.044 136.92 218.097C136.942 218.149 136.952 218.206 136.95 218.263C136.95 218.319 136.939 218.375 136.917 218.428C136.896 218.48 136.864 218.528 136.823 218.568C136.783 218.608 136.735 218.64 136.683 218.662C136.63 218.683 136.574 218.694 136.517 218.694Z" fill="white"/>
<path d="M132.707 226.09C132.591 226.088 132.48 226.041 132.398 225.959C132.317 225.877 132.27 225.766 132.269 225.65L132.269 221.214C132.27 221.1 132.317 220.99 132.398 220.909C132.48 220.828 132.59 220.783 132.705 220.783C132.762 220.783 132.819 220.794 132.872 220.816C132.924 220.838 132.972 220.871 133.012 220.911C133.052 220.952 133.084 221 133.105 221.052C133.126 221.105 133.137 221.162 133.136 221.218L133.134 225.65C133.135 225.707 133.124 225.763 133.104 225.816C133.083 225.869 133.052 225.917 133.012 225.958C132.972 225.999 132.925 226.031 132.873 226.054C132.82 226.077 132.764 226.089 132.707 226.09Z" fill="white"/>
<path d="M49.0234 226.089C48.9659 226.089 48.9089 226.078 48.8557 226.056C48.8025 226.034 48.7542 226.002 48.7134 225.962C48.6727 225.921 48.6403 225.873 48.6183 225.82C48.5962 225.767 48.5848 225.71 48.5848 225.653L48.5864 224.359C48.5874 224.245 48.6337 224.136 48.7152 224.056C48.7967 223.975 48.9069 223.93 49.0216 223.93C49.0782 223.929 49.1344 223.94 49.1869 223.961C49.2394 223.982 49.2871 224.014 49.3272 224.054C49.3673 224.093 49.3991 224.141 49.4206 224.193C49.442 224.245 49.4528 224.301 49.4523 224.358L49.4581 225.663C49.4555 225.776 49.4087 225.884 49.3275 225.964C49.2464 226.043 49.1373 226.088 49.0234 226.089Z" fill="white"/>
<path d="M63.4294 226.093C62.343 226.088 61.3025 225.656 60.5351 224.89C59.7676 224.124 59.3354 223.087 59.3328 222.005L59.3417 218.265C59.3413 218.209 59.352 218.153 59.3732 218.101C59.3944 218.049 59.4257 218.002 59.4653 217.962C59.5049 217.923 59.552 217.891 59.6039 217.869C59.6559 217.848 59.7115 217.836 59.7678 217.836C59.8241 217.836 59.8798 217.847 59.9318 217.869C59.9838 217.89 60.0311 217.921 60.0709 217.961C60.1107 218.001 60.1422 218.048 60.1637 218.099C60.1852 218.151 60.1961 218.207 60.196 218.263L60.2023 222.01C60.2027 222.864 60.5437 223.683 61.1504 224.286C61.757 224.89 62.5796 225.229 63.4371 225.229C64.2946 225.228 65.1168 224.888 65.7229 224.284C66.3289 223.68 66.6692 222.861 66.6688 222.007L66.6618 218.263C66.6627 218.148 66.709 218.038 66.7907 217.957C66.8724 217.876 66.9829 217.83 67.0983 217.83C67.2126 217.833 67.3212 217.88 67.4019 217.961C67.4825 218.042 67.5291 218.151 67.532 218.265L67.5298 222.006C67.5286 223.089 67.0963 224.127 66.3277 224.893C65.5591 225.66 64.5168 226.091 63.4294 226.093Z" fill="white"/>
<path d="M95.9147 226.091C95.8003 226.089 95.691 226.043 95.6107 225.962C95.5305 225.88 95.4857 225.771 95.4863 225.657L95.4829 221.981C95.484 221.557 95.4012 221.138 95.2393 220.747C95.0774 220.356 94.8396 220 94.5394 219.701C94.2392 219.401 93.8827 219.163 93.4901 219.001C93.0976 218.839 92.6768 218.756 92.252 218.756C91.8271 218.757 91.4064 218.841 91.0141 219.003C90.6218 219.166 90.2656 219.404 89.9659 219.704C89.6662 220.004 89.4288 220.36 89.2675 220.751C89.1062 221.143 89.024 221.562 89.0257 221.985L89.0205 225.656C89.0214 225.713 89.0109 225.769 88.9897 225.822C88.9686 225.874 88.9371 225.922 88.8972 225.963C88.8573 226.003 88.8098 226.035 88.7573 226.057C88.7048 226.08 88.6484 226.091 88.5915 226.091C88.5345 226.091 88.4781 226.08 88.4254 226.059C88.3728 226.037 88.325 226.005 88.2847 225.965C88.2445 225.925 88.2127 225.877 88.1911 225.825C88.1695 225.772 88.1586 225.716 88.1589 225.659L88.166 221.986C88.1652 221.451 88.2706 220.92 88.476 220.424C88.6814 219.929 88.9828 219.479 89.363 219.1C89.7432 218.721 90.1947 218.42 90.6917 218.214C91.1887 218.009 91.7214 217.903 92.2595 217.903C92.7975 217.903 93.3303 218.009 93.8273 218.214C94.3244 218.419 94.776 218.72 95.1562 219.099C95.5365 219.478 95.838 219.928 96.0435 220.424C96.249 220.919 96.3544 221.45 96.3538 221.986L96.3526 225.657C96.3526 225.714 96.3413 225.771 96.3192 225.823C96.2972 225.876 96.2649 225.924 96.2242 225.965C96.1836 226.005 96.1352 226.037 96.0821 226.058C96.029 226.08 95.9721 226.091 95.9147 226.091Z" fill="white"/>
<path d="M184.637 226.081C184.523 226.081 184.414 226.037 184.332 225.958C184.251 225.879 184.204 225.77 184.203 225.657L184.203 221.978C184.204 221.555 184.121 221.137 183.959 220.746C183.797 220.355 183.56 220 183.26 219.701C182.961 219.402 182.605 219.165 182.213 219.004C181.821 218.842 181.401 218.759 180.977 218.759C180.552 218.759 180.132 218.843 179.741 219.005C179.349 219.167 178.993 219.405 178.694 219.704C178.395 220.003 178.157 220.359 177.996 220.749C177.835 221.14 177.753 221.559 177.754 221.981L177.745 225.651C177.745 225.708 177.734 225.764 177.712 225.816C177.691 225.869 177.659 225.916 177.619 225.956C177.579 225.997 177.531 226.029 177.478 226.05C177.426 226.072 177.369 226.083 177.312 226.083C177.255 226.083 177.199 226.072 177.146 226.05C177.094 226.029 177.046 225.997 177.006 225.957C176.966 225.916 176.934 225.869 176.912 225.816C176.891 225.764 176.88 225.708 176.88 225.651L176.881 221.979C176.881 220.897 177.313 219.859 178.081 219.094C178.849 218.329 179.891 217.899 180.977 217.899C182.063 217.899 183.105 218.329 183.873 219.094C184.641 219.859 185.073 220.897 185.073 221.979L185.078 225.652C185.077 225.767 185.03 225.877 184.947 225.957C184.864 226.038 184.753 226.082 184.637 226.081Z" fill="white"/>
<path d="M117.254 226.09L114.355 226.087C113.817 226.087 113.283 225.981 112.786 225.775C112.288 225.57 111.837 225.268 111.456 224.888C111.076 224.508 110.775 224.057 110.57 223.561C110.365 223.065 110.26 222.533 110.262 221.997C110.265 220.909 110.695 219.865 111.458 219.087C112.222 218.309 113.26 217.858 114.353 217.83L117.252 217.831C117.366 217.832 117.476 217.878 117.558 217.958C117.64 218.038 117.687 218.146 117.69 218.26C117.689 218.317 117.678 218.373 117.656 218.426C117.634 218.478 117.602 218.526 117.562 218.566C117.521 218.606 117.473 218.638 117.42 218.659C117.367 218.681 117.311 218.692 117.254 218.691L114.352 218.694C113.488 218.716 112.667 219.074 112.065 219.691C111.462 220.308 111.125 221.136 111.127 221.997C111.126 222.851 111.465 223.67 112.07 224.275C112.675 224.881 113.497 225.222 114.354 225.224L117.252 225.224C117.309 225.224 117.366 225.235 117.418 225.257C117.471 225.278 117.519 225.31 117.559 225.35C117.6 225.39 117.632 225.438 117.654 225.49C117.675 225.543 117.687 225.599 117.687 225.656C117.685 225.77 117.64 225.879 117.559 225.96C117.478 226.041 117.369 226.088 117.254 226.09Z" fill="white"/>
<path d="M206.703 226.087L203.81 226.087C203.27 226.087 202.735 225.98 202.237 225.774C201.738 225.568 201.285 225.267 200.903 224.886C200.521 224.506 200.219 224.054 200.012 223.557C199.806 223.06 199.7 222.528 199.7 221.99C199.706 220.9 200.138 219.855 200.905 219.078C201.672 218.301 202.713 217.852 203.806 217.827L206.699 217.827C206.756 217.826 206.813 217.837 206.866 217.858C206.919 217.879 206.967 217.911 207.008 217.951C207.048 217.991 207.081 218.038 207.103 218.091C207.125 218.143 207.137 218.199 207.137 218.256C207.136 218.372 207.089 218.482 207.007 218.563C206.924 218.645 206.812 218.69 206.697 218.689L203.808 218.687C202.943 218.708 202.121 219.065 201.517 219.682C200.913 220.299 200.575 221.127 200.575 221.989C200.573 222.413 200.656 222.832 200.817 223.224C200.979 223.616 201.217 223.973 201.517 224.273C201.817 224.573 202.174 224.811 202.567 224.974C202.96 225.136 203.381 225.22 203.807 225.22L206.704 225.22C206.819 225.22 206.93 225.266 207.011 225.347C207.093 225.429 207.138 225.539 207.138 225.654C207.138 225.769 207.092 225.879 207.01 225.96C206.929 226.041 206.818 226.087 206.703 226.087Z" fill="white"/>
<path d="M228.39 226.661C228.333 226.661 228.276 226.65 228.224 226.628C228.171 226.606 228.123 226.574 228.083 226.534C228.043 226.493 228.011 226.446 227.989 226.393C227.968 226.34 227.957 226.284 227.957 226.227L227.956 222.435C227.955 222.378 227.966 222.321 227.987 222.267C228.008 222.214 228.04 222.166 228.08 222.125C228.12 222.084 228.168 222.051 228.221 222.028C228.274 222.006 228.331 221.994 228.388 221.993L233.647 221.996C234.082 221.994 234.498 221.821 234.805 221.515C235.113 221.208 235.286 220.793 235.287 220.36C235.286 219.923 235.113 219.504 234.806 219.191C234.498 218.879 234.081 218.698 233.642 218.687L228.387 218.685C228.273 218.684 228.165 218.639 228.084 218.558C228.004 218.478 227.96 218.369 227.96 218.256C227.96 218.142 228.006 218.034 228.087 217.954C228.167 217.874 228.276 217.829 228.39 217.829L233.645 217.829C234.312 217.835 234.949 218.103 235.419 218.575C235.888 219.047 236.151 219.685 236.15 220.349C236.15 221.013 235.886 221.65 235.416 222.121C234.946 222.593 234.308 222.86 233.642 222.865L228.823 222.866L228.826 226.23C228.825 226.345 228.779 226.454 228.697 226.535C228.615 226.616 228.505 226.661 228.39 226.661Z" fill="white"/>
<path d="M246.496 226.069L242.817 226.071C242.76 226.072 242.703 226.061 242.65 226.039C242.597 226.018 242.549 225.986 242.508 225.945C242.468 225.905 242.436 225.856 242.415 225.803C242.394 225.75 242.384 225.694 242.385 225.636L242.381 218.256C242.38 218.199 242.391 218.143 242.413 218.091C242.434 218.039 242.466 217.991 242.506 217.951C242.546 217.911 242.594 217.88 242.647 217.859C242.699 217.837 242.755 217.827 242.812 217.827L246.499 217.828C247.592 217.85 248.633 218.298 249.4 219.075C250.166 219.851 250.598 220.896 250.601 221.985C250.599 223.069 250.166 224.107 249.396 224.873C248.627 225.638 247.584 226.069 246.496 226.069ZM243.247 225.199L246.5 225.199C247.355 225.2 248.176 224.862 248.782 224.261C249.388 223.66 249.729 222.844 249.732 221.992C249.733 221.13 249.396 220.301 248.792 219.683C248.188 219.065 247.365 218.706 246.5 218.684L243.247 218.687L243.247 225.199Z" fill="white"/>
<path d="M169.809 226.075L166.562 226.077C165.477 226.074 164.436 225.643 163.669 224.877C162.901 224.112 162.47 223.075 162.469 221.993C162.472 220.904 162.901 219.859 163.666 219.081C164.431 218.303 165.471 217.853 166.564 217.827L169.813 217.83C169.87 217.829 169.927 217.84 169.98 217.861C170.033 217.883 170.081 217.914 170.122 217.955C170.162 217.995 170.194 218.043 170.216 218.095C170.238 218.148 170.249 218.205 170.248 218.262C170.248 218.319 170.236 218.375 170.214 218.427C170.191 218.48 170.158 218.527 170.117 218.566C170.075 218.606 170.027 218.637 169.973 218.657C169.92 218.678 169.863 218.687 169.806 218.686L166.56 218.69C165.697 218.715 164.878 219.073 164.275 219.689C163.673 220.304 163.335 221.129 163.332 221.989C163.335 222.842 163.677 223.66 164.283 224.262C164.889 224.865 165.711 225.203 166.567 225.204L169.807 225.202C169.923 225.202 170.034 225.248 170.116 225.33C170.198 225.412 170.244 225.522 170.245 225.638C170.245 225.753 170.199 225.864 170.118 225.946C170.036 226.028 169.925 226.075 169.809 226.075L169.809 226.075Z" fill="white"/>
<path d="M49.025 222.173C48.966 222.176 48.9072 222.166 48.8526 222.144C48.798 222.121 48.749 222.087 48.7092 222.044L45.2448 218.59C45.1648 218.509 45.1195 218.4 45.1185 218.286C45.1175 218.172 45.1608 218.062 45.2394 217.979C45.279 217.938 45.3267 217.906 45.3793 217.884C45.432 217.862 45.4887 217.85 45.5458 217.851C45.603 217.851 45.6595 217.863 45.712 217.885C45.7644 217.908 45.8117 217.941 45.851 217.983L49.021 221.13L52.1907 217.978C52.2303 217.938 52.2777 217.906 52.33 217.884C52.3822 217.862 52.4384 217.85 52.4952 217.85C52.5519 217.85 52.6081 217.861 52.6605 217.883C52.7129 217.905 52.7604 217.937 52.8003 217.977C52.8411 218.017 52.8735 218.065 52.8957 218.118C52.9178 218.171 52.9293 218.228 52.9293 218.285C52.9293 218.342 52.918 218.399 52.8959 218.452C52.8738 218.505 52.8414 218.553 52.8005 218.593L49.3238 222.046C49.2861 222.087 49.2399 222.12 49.1883 222.142C49.1368 222.164 49.081 222.174 49.025 222.173Z" fill="white"/>
<path d="M20.7681 225.142L19.6283 225.147C19.5129 225.145 19.4028 225.098 19.3221 225.016C19.2414 224.934 19.1966 224.823 19.1975 224.708C19.1985 224.593 19.2451 224.483 19.3272 224.403C19.4092 224.322 19.5201 224.276 19.6355 224.277L20.7661 224.276C20.8814 224.276 20.992 224.321 21.0737 224.402C21.1554 224.483 21.2015 224.593 21.2017 224.708C21.202 224.823 21.1565 224.933 21.0751 225.014C20.9938 225.096 20.8834 225.141 20.7681 225.142Z" fill="white"/>
<path d="M24.0758 226.671C23.9942 226.671 23.9141 226.648 23.8451 226.605C23.7761 226.561 23.7211 226.499 23.6866 226.425L20.2029 219.258L16.7219 226.433C16.6689 226.534 16.5785 226.611 16.4697 226.648C16.3608 226.685 16.242 226.678 16.1381 226.629C16.0866 226.604 16.0406 226.57 16.0027 226.527C15.9648 226.485 15.9358 226.435 15.9174 226.381C15.899 226.327 15.8916 226.27 15.8955 226.214C15.8995 226.157 15.9148 226.102 15.9405 226.051L19.8034 218.082C19.843 218.013 19.9 217.956 19.9687 217.916C20.0374 217.876 20.1154 217.855 20.1949 217.854C20.2744 217.853 20.3528 217.873 20.4222 217.912C20.4915 217.951 20.5495 218.007 20.5903 218.075L24.4636 226.047C24.5139 226.151 24.5214 226.27 24.4846 226.379C24.4477 226.488 24.3694 226.578 24.2665 226.631C24.2066 226.658 24.1415 226.671 24.0758 226.671Z" fill="white"/>
<path d="M217.569 225.139L216.438 225.137C216.38 225.138 216.323 225.127 216.269 225.105C216.216 225.083 216.167 225.051 216.126 225.01C216.085 224.97 216.053 224.921 216.031 224.868C216.008 224.815 215.997 224.758 215.997 224.7C215.997 224.643 216.009 224.586 216.031 224.533C216.054 224.48 216.086 224.431 216.127 224.391C216.169 224.35 216.217 224.319 216.271 224.297C216.324 224.275 216.382 224.265 216.44 224.265L217.571 224.27C217.627 224.27 217.683 224.281 217.736 224.303C217.788 224.324 217.835 224.356 217.875 224.397C217.914 224.437 217.945 224.485 217.966 224.537C217.987 224.59 217.997 224.646 217.995 224.702C217.996 224.759 217.987 224.815 217.966 224.868C217.945 224.921 217.914 224.969 217.874 225.01C217.835 225.05 217.787 225.083 217.735 225.105C217.683 225.127 217.626 225.138 217.569 225.139Z" fill="white"/>
<path d="M168.753 222.468L167.623 222.469C167.565 222.47 167.508 222.46 167.454 222.439C167.4 222.417 167.351 222.386 167.309 222.345C167.268 222.305 167.235 222.257 167.212 222.203C167.19 222.15 167.178 222.093 167.178 222.035C167.178 221.977 167.189 221.92 167.212 221.867C167.234 221.814 167.267 221.765 167.308 221.725C167.349 221.684 167.399 221.652 167.452 221.631C167.506 221.609 167.564 221.599 167.622 221.6L168.753 221.6C168.868 221.601 168.978 221.647 169.059 221.728C169.139 221.81 169.185 221.92 169.185 222.034C169.186 222.091 169.175 222.148 169.154 222.201C169.133 222.254 169.101 222.302 169.061 222.342C169.021 222.383 168.972 222.415 168.92 222.436C168.867 222.458 168.81 222.469 168.753 222.468Z" fill="white"/>
<path d="M213.132 226.663C213.066 226.661 213.002 226.646 212.944 226.617C212.892 226.594 212.845 226.56 212.806 226.519C212.768 226.477 212.738 226.428 212.719 226.375C212.701 226.321 212.693 226.265 212.697 226.208C212.701 226.152 212.716 226.096 212.742 226.046L216.61 218.071C216.649 218.001 216.706 217.943 216.774 217.903C216.843 217.862 216.921 217.841 217.001 217.84C217.081 217.84 217.159 217.861 217.228 217.901C217.297 217.941 217.354 217.999 217.394 218.068L221.268 226.042C221.317 226.145 221.323 226.263 221.285 226.371C221.246 226.479 221.167 226.567 221.063 226.617C220.96 226.666 220.841 226.673 220.733 226.635C220.624 226.598 220.535 226.519 220.485 226.417L217.007 219.253L213.524 226.416C213.488 226.489 213.432 226.551 213.363 226.595C213.294 226.638 213.214 226.662 213.132 226.663Z" fill="white"/>
<path d="M78.4088 225.14L77.2796 225.14C77.2221 225.141 77.1651 225.13 77.1118 225.109C77.0585 225.088 77.01 225.056 76.969 225.016C76.9281 224.976 76.8955 224.928 76.8732 224.875C76.8509 224.822 76.8393 224.766 76.8391 224.709C76.8389 224.651 76.8501 224.595 76.872 224.542C76.8939 224.489 76.9261 224.441 76.9668 224.4C77.0074 224.36 77.0557 224.328 77.1088 224.306C77.162 224.285 77.2189 224.274 77.2763 224.274L78.4132 224.277C78.47 224.277 78.5262 224.289 78.5786 224.311C78.631 224.333 78.6785 224.365 78.7184 224.405C78.7583 224.445 78.7898 224.493 78.8111 224.546C78.8325 224.598 78.8432 224.654 78.8427 224.711C78.8411 224.825 78.7948 224.933 78.7137 225.013C78.6325 225.094 78.5231 225.139 78.4088 225.14Z" fill="white"/>
<path d="M73.979 226.673C73.9096 226.667 73.8413 226.652 73.7757 226.629C73.6747 226.577 73.5977 226.488 73.5607 226.381C73.5238 226.274 73.5297 226.157 73.5774 226.054L77.4463 218.075C77.4865 218.006 77.5443 217.949 77.6139 217.909C77.6834 217.87 77.7622 217.849 77.8423 217.85C77.9224 217.85 78.0009 217.872 78.0699 217.912C78.1389 217.953 78.1959 218.011 78.2352 218.08L82.1062 226.05C82.1311 226.101 82.1457 226.156 82.1491 226.213C82.1525 226.27 82.1446 226.327 82.126 226.38C82.1073 226.434 82.0782 226.483 82.0404 226.526C82.0025 226.568 81.9567 226.603 81.9054 226.628C81.8541 226.653 81.7984 226.667 81.7415 226.671C81.6845 226.674 81.6275 226.666 81.5736 226.648C81.5197 226.629 81.47 226.6 81.4274 226.562C81.3847 226.525 81.35 226.479 81.325 226.428L77.8367 219.256L74.3557 226.431C74.3213 226.502 74.2679 226.562 74.2014 226.605C74.135 226.648 74.058 226.671 73.979 226.673Z" fill="white"/>
<path d="M123.147 226.09C123.031 226.09 122.92 226.045 122.837 225.964C122.755 225.883 122.708 225.772 122.707 225.657L122.707 218.261C122.706 218.205 122.717 218.149 122.738 218.096C122.759 218.044 122.791 217.996 122.831 217.956C122.871 217.916 122.918 217.885 122.971 217.863C123.023 217.842 123.079 217.831 123.136 217.832C123.193 217.831 123.25 217.841 123.304 217.862C123.357 217.883 123.405 217.915 123.446 217.955C123.487 217.995 123.52 218.043 123.542 218.095C123.564 218.148 123.575 218.205 123.575 218.262L123.576 225.655C123.577 225.711 123.566 225.768 123.545 225.82C123.524 225.873 123.492 225.921 123.452 225.961C123.412 226.002 123.365 226.034 123.312 226.056C123.26 226.078 123.204 226.089 123.147 226.09Z" fill="white"/>
<path d="M142.263 226.073C142.148 226.073 142.038 226.028 141.958 225.947C141.877 225.866 141.831 225.757 141.831 225.643L141.829 218.346C141.828 218.289 141.839 218.233 141.861 218.18C141.883 218.127 141.915 218.079 141.956 218.038C141.996 217.998 142.045 217.966 142.098 217.944C142.151 217.922 142.208 217.911 142.265 217.912C142.381 217.912 142.491 217.957 142.574 218.037C142.656 218.117 142.703 218.227 142.705 218.342L142.71 225.638C142.709 225.755 142.661 225.866 142.577 225.948C142.493 226.029 142.38 226.074 142.263 226.073Z" fill="white"/>
<path d="M155.84 226.077L149.492 226.074C149.41 226.072 149.33 226.048 149.261 226.003C149.192 225.959 149.137 225.896 149.103 225.822C149.065 225.747 149.051 225.663 149.062 225.58C149.073 225.497 149.108 225.419 149.164 225.357L154.89 218.777L149.739 218.775C149.682 218.775 149.625 218.764 149.573 218.742C149.52 218.72 149.472 218.688 149.432 218.648C149.392 218.607 149.36 218.56 149.338 218.507C149.317 218.455 149.305 218.398 149.306 218.341C149.306 218.285 149.317 218.228 149.339 218.176C149.361 218.124 149.393 218.076 149.433 218.036C149.474 217.996 149.522 217.964 149.575 217.942C149.627 217.921 149.684 217.91 149.741 217.91L155.841 217.907C155.923 217.91 156.003 217.935 156.071 217.981C156.139 218.026 156.193 218.09 156.227 218.164C156.26 218.239 156.272 218.321 156.261 218.402C156.25 218.483 156.217 218.559 156.164 218.622L150.446 225.209L155.839 225.207C155.954 225.208 156.064 225.254 156.146 225.335C156.227 225.417 156.273 225.526 156.274 225.641C156.275 225.698 156.264 225.755 156.243 225.808C156.222 225.861 156.19 225.91 156.149 225.95C156.109 225.991 156.06 226.023 156.007 226.045C155.954 226.066 155.897 226.077 155.84 226.077Z" fill="white"/>
<path d="M234.988 226.584C234.905 226.585 234.823 226.561 234.753 226.517C234.683 226.472 234.628 226.408 234.594 226.332L234.129 225.294C234.083 225.189 234.081 225.07 234.123 224.963C234.165 224.856 234.247 224.77 234.352 224.723C234.404 224.699 234.461 224.686 234.519 224.685C234.576 224.683 234.633 224.694 234.687 224.715C234.74 224.736 234.789 224.768 234.829 224.809C234.87 224.849 234.902 224.897 234.923 224.951L235.387 225.979C235.41 226.031 235.422 226.086 235.424 226.143C235.425 226.199 235.415 226.255 235.395 226.307C235.374 226.36 235.343 226.408 235.304 226.448C235.265 226.489 235.218 226.522 235.166 226.544C235.111 226.572 235.05 226.585 234.988 226.584Z" fill="white"/>
</svg>
