<svg width="171" height="30" viewBox="0 0 171 30" fill="none" xmlns="http://www.w3.org/2000/svg">
<path d="M33.6972 6.57839L33.4619 6.35883C28.1747 1.29507 21.2897 1.86358 17.6551 2.65364C16.3938 2.91442 15.1599 3.29314 13.9695 3.7848C13.8178 3.85195 13.6879 3.9603 13.5947 4.09754C13.5015 4.23477 13.4486 4.3954 13.442 4.56118C13.4355 4.72697 13.4756 4.89126 13.5577 5.03541C13.6399 5.17955 13.7608 5.29778 13.9068 5.37666C14.4733 5.68445 14.785 6.02752 14.8301 6.39608C14.9105 7.05478 14.2596 7.87619 13.895 8.2271C12.5751 9.16609 11.3528 10.2353 10.2467 11.4187C10.1996 11.2599 10.1447 11.103 10.0879 10.9501C10.6819 10.6031 11.1563 9.97971 11.4601 9.13674C11.764 8.30552 12.1012 6.52153 11.2112 5.72952C11.0198 5.55994 10.7804 5.45396 10.5262 5.42622C10.2719 5.39848 10.0154 5.45035 9.79186 5.57466C9.15632 5.89932 8.60318 6.36462 8.17451 6.93519C7.57853 6.6274 6.53558 6.25689 5.49459 6.67641C4.53204 7.06065 4.40461 7.78993 4.39482 8.08399C4.36541 9.02499 5.25542 9.87973 6.09645 10.2757C6.66518 10.5382 7.29704 10.6327 7.91768 10.5482C8.38496 11.2877 8.67544 12.1249 8.76654 12.9948C8.76896 13.0559 8.77884 13.1165 8.79595 13.1752C8.34847 13.7809 7.94678 14.4192 7.59421 15.0846C7.2934 14.5823 6.85996 14.1726 6.3415 13.9005C5.87795 13.6698 5.35964 13.5717 4.84383 13.617C4.32801 13.6623 3.83476 13.8493 3.41854 14.1574C2.31088 14.9592 1.41891 16.7431 1.92861 17.841C2.01096 18.0194 2.48146 18.8898 3.74396 18.5722C5.10447 18.2389 5.9063 17.0901 6.28072 16.3863C6.52029 17.0333 6.63537 17.7198 6.6199 18.4095C6.62246 18.4681 6.62967 18.5265 6.64146 18.584C6.57971 19.5412 6.65897 20.5022 6.8767 21.4364C7.32559 23.4507 8.55055 25.2068 10.2859 26.3237L10.3133 26.3394C11.9012 27.1765 13.5088 27.4254 15.0869 27.0824C16.2886 26.8064 17.4024 26.235 18.3275 25.42C19.551 26.3343 20.9168 27.041 22.3699 27.5117C22.3836 27.5156 23.799 27.9881 26.2907 27.9665L26.3632 27.9744C26.3868 27.9763 26.4103 27.9783 26.4338 27.9783L26.4691 27.9803C27.2398 27.9699 28.0075 27.8826 28.7608 27.7195C34.1441 26.5492 38.0257 21.5952 37.9885 15.9374C37.963 12.3949 36.3202 8.80935 33.6972 6.57839ZM7.80396 8.52313C7.77946 8.66622 7.76766 8.81121 7.76869 8.95638L7.76673 9.10145L7.62166 9.11125C7.57068 9.11321 7.52167 9.11517 7.47266 9.11517C7.21368 9.11876 6.95716 9.06451 6.72181 8.95638C6.39538 8.80793 6.11551 8.57345 5.91218 8.27807L5.82787 8.13497L5.9749 8.06049C5.99698 8.04704 6.0207 8.0365 6.04548 8.02911C6.65322 7.78406 7.36287 8.13106 7.73341 8.36042L7.82359 8.41729L7.80396 8.52313ZM5.18097 15.2924C5.17704 15.3062 4.62223 16.8098 3.45187 17.1392L3.21074 17.2078L3.25386 16.9608C3.40267 16.321 3.76244 15.7499 4.27523 15.3395C4.43726 15.221 4.6222 15.1375 4.81827 15.0944C4.88788 15.0786 4.95872 15.0688 5.03001 15.065L5.24761 15.0533L5.18097 15.2924ZM8.97043 8.54861C9.16538 7.96036 9.55103 7.45397 10.0663 7.10966L10.3015 6.94107L10.3153 7.22925C10.3349 7.88197 10.1843 8.52856 9.87811 9.10536C9.75 9.36628 9.54374 9.58078 9.28802 9.71897L9.15276 9.78367L9.08413 9.65036C8.90207 9.31258 8.86119 8.91645 8.97043 8.54861ZM19.1979 21.7932C19.0101 22.3218 18.7344 22.8149 18.3824 23.2517L18.2667 23.4027L18.1412 23.2576C17.4167 22.4619 16.9541 21.4627 16.816 20.3954C16.8141 20.3856 16.7376 19.5799 17.1689 19.1015C17.3419 18.9084 17.5696 18.7723 17.8217 18.7114C18.2275 18.6232 18.6235 18.8036 18.998 19.2505C19.0764 19.3681 19.6527 20.3131 19.1979 21.7932ZM28.3844 25.9865C27.7645 26.1211 27.1328 26.194 26.4985 26.2041L26.4201 26.1963C26.3927 26.1943 26.3613 26.1924 26.3319 26.1924H26.3221C24.1675 26.2139 22.9384 25.8316 22.9266 25.8277C21.7223 25.4338 20.5847 24.8594 19.5527 24.1241C20.006 23.5545 20.358 22.9113 20.5937 22.2225C21.3014 19.9249 20.2232 18.4468 20.1821 18.3938L20.1507 18.3487C19.1548 17.1392 18.0687 17.1627 17.5119 17.2842C16.9597 17.4091 16.4601 17.7031 16.0828 18.1252C15.2124 19.0956 15.3476 20.415 15.3673 20.562C15.5317 21.9159 16.1102 23.186 17.0238 24.1986C16.3549 24.7603 15.562 25.1547 14.7105 25.3494C13.5559 25.6003 12.36 25.4082 11.1642 24.7828C9.86508 23.9045 8.94953 22.5641 8.60385 21.0345C8.24345 19.5163 8.34796 17.9248 8.9038 16.4667C8.96063 16.3236 10.3545 12.9282 14.9752 9.63664C15.0026 9.61664 15.0288 9.59504 15.0536 9.57194C15.234 9.40924 16.8023 7.93892 16.5906 6.18436C16.5352 5.72009 16.3572 5.27893 16.075 4.90616C16.7062 4.7062 17.363 4.53173 18.0334 4.38666C22.0503 3.51427 27.7767 3.3692 32.2406 7.6429L32.4954 7.88599L32.5131 7.90167C32.5229 7.90755 32.5307 7.9154 32.5346 7.91735C33.6777 8.90435 34.5911 10.1295 35.2106 11.5069C35.8547 12.9009 36.1961 14.4156 36.2124 15.9511C36.2457 20.7718 32.9541 24.9926 28.3844 25.9865Z" fill="#ffffff"/>
<path d="M31.5133 11.7285C31.2192 10.8855 30.7095 10.6366 30.3331 10.5758C30.0195 10.5248 29.4039 10.5562 28.8177 11.3207C28.6313 11.5691 28.4765 11.8398 28.357 12.1265C27.8516 11.7106 27.2518 11.4251 26.6103 11.2953C26.3717 11.244 26.1239 11.2536 25.89 11.3231C25.656 11.3927 25.4433 11.5199 25.2713 11.6932C24.8596 12.1402 24.7695 12.8989 25.0361 13.6752C25.2517 14.3084 26.0261 15.8258 28.5531 16.3943C28.5376 16.8949 28.4759 17.393 28.3688 17.8822C28.3421 18.0116 28.3445 18.1453 28.3757 18.2737C28.4069 18.402 28.4661 18.5219 28.5492 18.6246C28.6322 18.7274 28.737 18.8104 28.856 18.8678C28.9749 18.9252 29.1052 18.9555 29.2373 18.9566C29.2999 18.9563 29.3624 18.949 29.4235 18.935C29.5902 18.8988 29.743 18.8155 29.8636 18.6948C29.9842 18.5742 30.0676 18.4214 30.1038 18.2547C30.3008 17.3766 30.3656 16.474 30.2959 15.5768C30.835 15.1122 32.2014 13.6928 31.5133 11.7285ZM29.896 12.3166L30.09 12.0049L30.1802 12.3598C30.2453 12.6434 30.2443 12.9381 30.1773 13.2213C30.1103 13.5044 29.9792 13.7684 29.794 13.9928L29.6019 14.2457L29.5176 13.9418C29.3823 13.4537 29.6568 12.6989 29.896 12.3166V12.3166ZM26.3535 12.9459L26.3182 12.7009L26.5554 12.7715C27.4323 13.1109 28.1487 13.7691 28.5609 14.6143L28.7236 14.9475L28.3708 14.8319C27.3239 14.4888 26.8201 13.9477 26.5809 13.5537V13.5517C26.4659 13.3667 26.3887 13.1609 26.3535 12.9459V12.9459Z" fill="#ffffff"/>
<path d="M46.4939 5.56576H44.3581V4.74755H46.6581V0.165527H48.1368V4.74755H49.2868V5.56576H48.1368V7.52959C48.7732 8.15238 49.3764 8.80783 49.9441 9.49327C49.8888 10.4752 49.7519 11.1298 49.5333 11.4571C49.1496 11.1299 48.6841 10.148 48.1368 8.51151V20.3757H46.6581V11.1299C45.9457 12.6026 45.1791 14.0754 44.3581 15.5483H43.8652C45.3488 12.4096 46.2398 9.02571 46.4939 5.56576ZM51.4226 6.38397V0.165527H52.9013V12.93C52.9553 14.785 51.8052 17.2125 49.4512 20.2124H48.6297C50.437 18.0298 51.368 15.6568 51.4226 13.0935V10.9661C50.9299 12.7126 50.1084 13.8036 48.9583 14.2392C49.0097 13.5677 48.8969 12.8939 48.6297 12.2753C49.6695 12.2216 50.6004 11.4307 51.4226 9.90245V7.03863L50.437 8.67506C50.2175 7.69314 50.0258 6.71128 49.862 5.72946C49.7131 4.8642 49.6307 3.98888 49.6155 3.11112L49.6976 3.02935C50.3489 4.10698 50.9253 5.22781 51.4227 6.38397L51.4226 6.38397ZM53.7228 18.9028V0.165527H55.2015V7.61137L57.3373 3.43838L57.9944 3.76563L55.2015 9.16601C56.1027 9.98672 56.9532 10.8611 57.7481 11.7844C57.6539 12.4999 57.4313 13.1928 57.0909 13.83C56.5428 13.2853 55.913 11.9489 55.2015 9.82067V17.7575C55.1464 18.3572 55.4475 18.6572 56.1051 18.6573C56.7623 18.6573 57.1183 18.3574 57.173 17.7575L57.6659 14.2392H58.0767V17.1028H58.3231V18.7396C58.2678 19.7215 57.7201 20.2124 56.6801 20.2124H55.1194C54.1336 20.1572 53.6681 19.7206 53.7228 18.9028L53.7228 18.9028Z" fill="#ffffff"/>
<path d="M74.8111 0.492676V1.06541H84.0938L84.0116 0.492676H85.7367V20.2939H84.0116V19.2304H74.8934V20.2939H73.1682V0.492676H74.8111ZM84.0116 1.96555H74.8111V18.4117H84.0116V1.96555ZM78.4256 11.457H77.8506V12.1115H76.2898V7.52948H77.8506V8.26592H81.3008V7.61126H82.8616V11.9479L83.108 11.6207L83.683 12.1115L81.4651 14.5663C81.9579 15.0035 82.7245 15.3308 83.7651 15.5482C83.5488 15.8696 83.4135 16.2382 83.3706 16.6227C83.3277 17.0073 83.3785 17.3965 83.5187 17.7574C81.8206 17.3213 80.3968 15.6576 79.2471 12.7662C79.1797 12.8388 79.1242 12.9217 79.0829 13.0116V17.9211H77.6042V14.3208C77.0561 14.7581 76.3989 15.2763 75.6326 15.8755H74.8934C76.5902 14.5663 77.7676 13.0935 78.4256 11.457V11.457ZM78.6721 2.2928H80.2329V3.68374H83.0259V4.42017H80.2329V6.13853H83.6009V6.95674H75.2219V6.13853H78.6721V4.42018H75.7148V3.68375H78.6721V2.2928ZM81.3008 9.00218H77.8506V10.7205H81.3008V9.00218ZM81.3008 11.457H80.2329C80.0227 11.8099 79.7748 12.1391 79.4935 12.4389C79.8215 13.1333 80.2981 13.7477 80.89 14.239L82.6972 12.1934H81.3008L81.3008 11.457Z" fill="#ffffff"/>
<path d="M100.828 3.84769V2.94755H107.564C107.464 2.82258 107.382 2.68505 107.318 2.53852C106.879 1.75864 106.521 0.936104 106.25 0.0837307L106.332 0.00195312C107.228 0.470993 108.08 1.01863 108.879 1.63837C108.749 2.11409 108.526 2.55922 108.221 2.94754H114.957V3.84769H108.714V7.12053H111.589V6.3841H113.315V16.0392C113.259 17.1849 112.547 18.0032 111.179 18.4942C111.123 18.1117 110.932 17.9753 110.604 18.0849L109.372 18.3303L109.207 17.9213C110.904 17.7039 111.698 17.1039 111.589 16.1212V8.02068H108.714V20.3758H106.989V8.02068H104.032V18.0849H102.307V6.3841H104.032V7.12054H106.989V3.8477L100.828 3.84769Z" fill="#ffffff"/>
<path d="M128.57 17.7575H129.638V0.165527H131.363V0.983738H139.249V0.165527H140.974V6.71138H139.249V5.89317H136.621V9.5752H141.878V10.4752H136.703C136.921 14.1304 138.372 16.5578 141.057 17.7575L141.796 13.9117L142.124 13.9937L141.878 17.9212L142.371 18.0847V20.294C137.66 18.8212 135.196 15.5482 134.978 10.4752H131.363V17.7575C132.513 17.4851 133.773 16.8305 135.142 15.7936C135.306 15.685 135.36 15.7399 135.306 15.9573C134.374 17.7575 132.184 19.1212 128.734 20.0486C128.953 19.5024 128.898 18.7387 128.57 17.7575ZM139.249 1.88374H131.363V4.99304H139.249V1.88374ZM131.363 5.89318V9.5752H134.896V5.89317L131.363 5.89318Z" fill="#ffffff"/>
<path d="M161.898 7.69313V0.165527H163.705V3.43837H169.291V4.42029H163.705V7.69313H170.277V8.67505H163.705V20.3757H161.898V8.67505H156.312V7.69313H161.898ZM164.691 10.0662L164.773 9.98422C164.793 10.1576 164.849 10.325 164.938 10.4752C165.977 12.6026 167.319 13.9663 168.963 14.5664C168.636 15.3757 168.607 16.2742 168.881 17.1028L168.716 17.1847C166.197 16.1491 164.855 13.7763 164.691 10.0662Z" fill="#ffffff"/>
<path d="M61.1531 29.7727C60.7246 29.7729 60.3058 29.6465 59.9495 29.4095C59.5932 29.1725 59.3154 28.8356 59.1514 28.4414C58.9873 28.0472 58.9444 27.6134 59.0279 27.1948C59.1114 26.7763 59.3177 26.3918 59.6206 26.09C59.9235 25.7882 60.3095 25.5827 60.7297 25.4995C61.1499 25.4162 61.5854 25.459 61.9812 25.6223C62.377 25.7856 62.7153 26.0622 62.9533 26.4171C63.1912 26.7719 63.3182 27.1891 63.3181 27.6159C63.317 28.1875 63.0885 28.7354 62.6828 29.1396C62.277 29.5439 61.727 29.7715 61.1531 29.7727ZM61.1525 25.8946C60.8112 25.8955 60.4778 25.9971 60.1944 26.1865C59.911 26.3759 59.6903 26.6447 59.5602 26.959C59.43 27.2732 59.3962 27.6188 59.4631 27.9522C59.53 28.2855 59.6945 28.5917 59.9359 28.832C60.1773 29.0722 60.4848 29.2359 60.8195 29.3023C61.1542 29.3687 61.5012 29.3348 61.8166 29.205C62.132 29.0752 62.4017 28.8551 62.5917 28.5727C62.7817 28.2903 62.8834 27.9582 62.8841 27.6183C62.8835 27.1611 62.7008 26.7229 62.3762 26.3997C62.0515 26.0766 61.6114 25.8949 61.1525 25.8946Z" fill="#ffffff"/>
<path d="M48.5187 25.9661L44.659 25.9655C44.6308 25.9657 44.6028 25.9603 44.5767 25.9496C44.5506 25.939 44.5269 25.9232 44.5069 25.9033C44.487 25.8835 44.4712 25.8598 44.4606 25.8338C44.4499 25.8077 44.4446 25.7799 44.4448 25.7518C44.4444 25.723 44.4497 25.6945 44.4605 25.6678C44.4713 25.6412 44.4872 25.6169 44.5075 25.5965C44.5278 25.5761 44.552 25.5599 44.5786 25.5488C44.6052 25.5378 44.6338 25.5321 44.6626 25.5322L48.5183 25.5324C48.5469 25.5325 48.5752 25.5382 48.6017 25.5492C48.6281 25.5602 48.6521 25.5762 48.6723 25.5964C48.6925 25.6167 48.7085 25.6407 48.7194 25.667C48.7303 25.6934 48.7358 25.7217 48.7357 25.7502C48.7364 25.7788 48.7312 25.8071 48.7205 25.8336C48.7098 25.8601 48.6938 25.8842 48.6735 25.9044C48.6533 25.9246 48.6291 25.9404 48.6025 25.951C48.5758 25.9616 48.5473 25.9668 48.5187 25.9661Z" fill="#ffffff"/>
<path d="M46.5903 29.703C46.5614 29.7038 46.5327 29.6988 46.5059 29.6881C46.4791 29.6774 46.4548 29.6613 46.4344 29.6409C46.4141 29.6205 46.3982 29.5961 46.3878 29.5693C46.3773 29.5425 46.3724 29.5139 46.3735 29.4852L46.3709 27.2449C46.3701 27.2161 46.3752 27.1874 46.3858 27.1605C46.3964 27.1337 46.4123 27.1093 46.4327 27.0888C46.453 27.0683 46.4773 27.0521 46.5041 27.0412C46.531 27.0303 46.5597 27.0249 46.5886 27.0254C46.6468 27.0258 46.7025 27.049 46.7437 27.09C46.7848 27.1309 46.8081 27.1864 46.8086 27.2443L46.8097 29.4853C46.8099 29.514 46.8044 29.5425 46.7934 29.5691C46.7825 29.5956 46.7663 29.6198 46.7459 29.6401C46.7254 29.6603 46.7011 29.6763 46.6744 29.6871C46.6477 29.698 46.6191 29.7034 46.5903 29.703Z" fill="#ffffff"/>
<path d="M112.637 25.9662L108.783 25.9644C108.754 25.9647 108.725 25.9593 108.699 25.9485C108.672 25.9378 108.648 25.9218 108.627 25.9017C108.607 25.8815 108.59 25.8575 108.579 25.8311C108.568 25.8046 108.562 25.7762 108.562 25.7475C108.563 25.6898 108.587 25.6348 108.628 25.5942C108.67 25.5536 108.725 25.5307 108.783 25.5303L112.638 25.5325C112.667 25.5315 112.696 25.5363 112.723 25.5468C112.749 25.5573 112.774 25.5731 112.794 25.5933C112.815 25.6136 112.831 25.6378 112.841 25.6644C112.852 25.691 112.857 25.7196 112.856 25.7483C112.856 25.7769 112.851 25.8053 112.84 25.8318C112.829 25.8583 112.813 25.8824 112.792 25.9026C112.772 25.9229 112.748 25.939 112.721 25.9499C112.695 25.9608 112.666 25.9663 112.637 25.9662Z" fill="#ffffff"/>
<path d="M110.713 29.7027C110.654 29.7017 110.598 29.678 110.557 29.6365C110.515 29.5951 110.492 29.5392 110.491 29.4808L110.492 27.2395C110.492 27.1816 110.515 27.1261 110.557 27.0853C110.598 27.0445 110.654 27.0215 110.712 27.0215C110.741 27.0216 110.769 27.0273 110.796 27.0385C110.822 27.0496 110.846 27.0659 110.867 27.0863C110.887 27.1068 110.903 27.1311 110.914 27.1577C110.924 27.1844 110.93 27.2129 110.929 27.2416L110.928 29.4805C110.929 29.5092 110.923 29.5377 110.913 29.5644C110.902 29.5911 110.887 29.6155 110.867 29.6361C110.847 29.6568 110.823 29.6733 110.796 29.6847C110.77 29.6961 110.741 29.7023 110.713 29.7027Z" fill="#ffffff"/>
<path d="M68.4326 29.7019C68.4035 29.702 68.3747 29.6964 68.3478 29.6853C68.3209 29.6743 68.2965 29.6581 68.2759 29.6377C68.2554 29.6172 68.239 29.5929 68.2279 29.5662C68.2167 29.5395 68.211 29.5108 68.2109 29.4818L68.2118 28.8282C68.2122 28.7705 68.2356 28.7153 68.2768 28.6747C68.318 28.634 68.3737 28.6113 68.4316 28.6113C68.4602 28.611 68.4886 28.6163 68.5152 28.627C68.5417 28.6377 68.5658 28.6536 68.586 28.6737C68.6063 28.6938 68.6224 28.7177 68.6332 28.7441C68.6441 28.7705 68.6495 28.7987 68.6493 28.8272L68.6522 29.4867C68.6509 29.544 68.6272 29.5985 68.5862 29.6387C68.5452 29.6789 68.4901 29.7016 68.4326 29.7019Z" fill="#ffffff"/>
<path d="M75.7111 29.7043C75.1622 29.7019 74.6365 29.4834 74.2488 29.0965C73.861 28.7095 73.6427 28.1855 73.6414 27.6387L73.6458 25.7492C73.6456 25.7209 73.6511 25.6928 73.6618 25.6666C73.6725 25.6404 73.6883 25.6165 73.7083 25.5964C73.7283 25.5763 73.7521 25.5603 73.7784 25.5494C73.8046 25.5384 73.8327 25.5328 73.8611 25.5327C73.8896 25.5326 73.9177 25.5382 73.944 25.549C73.9703 25.5598 73.9942 25.5756 74.0143 25.5957C74.0344 25.6157 74.0503 25.6395 74.0612 25.6657C74.072 25.6918 74.0775 25.7199 74.0775 25.7482L74.0807 27.6412C74.0809 28.0727 74.2532 28.4865 74.5597 28.7915C74.8662 29.0965 75.2817 29.2677 75.715 29.2675C76.1482 29.2673 76.5636 29.0957 76.8698 28.7904C77.176 28.4851 77.3479 28.0712 77.3477 27.6397L77.3442 25.7484C77.3447 25.6903 77.3681 25.6348 77.4094 25.5938C77.4506 25.5528 77.5064 25.5296 77.5647 25.5293C77.6225 25.5312 77.6774 25.555 77.7181 25.5959C77.7589 25.6367 77.7824 25.6916 77.7839 25.7491L77.7827 27.6392C77.7821 28.1864 77.5637 28.7111 77.1754 29.0982C76.7871 29.4853 76.2605 29.7032 75.7111 29.7043Z" fill="#ffffff"/>
<path d="M92.1238 29.703C92.066 29.7023 92.0108 29.6789 91.9702 29.6378C91.9297 29.5967 91.9071 29.5413 91.9073 29.4837L91.9056 27.6264C91.9062 27.4126 91.8644 27.2008 91.7826 27.0031C91.7008 26.8054 91.5806 26.6258 91.429 26.4744C91.2773 26.3231 91.0972 26.203 90.8988 26.1212C90.7005 26.0393 90.4879 25.9973 90.2733 25.9975C90.0586 25.9976 89.8461 26.04 89.6479 26.1221C89.4497 26.2042 89.2697 26.3245 89.1183 26.4761C88.9668 26.6276 88.8469 26.8075 88.7654 27.0053C88.6839 27.2031 88.6424 27.415 88.6433 27.6288L88.6406 29.4832C88.641 29.5119 88.6358 29.5403 88.6251 29.567C88.6144 29.5936 88.5985 29.6178 88.5783 29.6383C88.5582 29.6587 88.5341 29.675 88.5076 29.6862C88.4811 29.6973 88.4526 29.7031 88.4239 29.7032C88.3951 29.7033 88.3666 29.6978 88.34 29.6868C88.3134 29.6759 88.2892 29.6598 88.2689 29.6395C88.2486 29.6192 88.2325 29.5951 88.2216 29.5686C88.2106 29.542 88.2051 29.5136 88.2053 29.485L88.2089 27.6294C88.2085 27.3586 88.2617 27.0904 88.3655 26.8402C88.4693 26.5899 88.6216 26.3625 88.8136 26.1709C89.0057 25.9793 89.2338 25.8273 89.4849 25.7236C89.736 25.6198 90.0052 25.5664 90.2771 25.5664C90.5489 25.5664 90.8181 25.6197 91.0692 25.7234C91.3203 25.8271 91.5485 25.979 91.7406 26.1706C91.9327 26.3621 92.085 26.5895 92.1889 26.8398C92.2927 27.09 92.346 27.3582 92.3457 27.629L92.345 29.4838C92.345 29.5127 92.3393 29.5413 92.3282 29.5679C92.3171 29.5946 92.3008 29.6188 92.2802 29.6392C92.2596 29.6596 92.2352 29.6757 92.2084 29.6867C92.1816 29.6976 92.1528 29.7032 92.1238 29.703Z" fill="#ffffff"/>
<path d="M136.95 29.698C136.892 29.6983 136.837 29.676 136.796 29.6359C136.754 29.5958 136.731 29.5412 136.73 29.4839L136.73 27.6249C136.731 27.4114 136.689 27.2 136.607 27.0026C136.525 26.8053 136.405 26.626 136.254 26.4749C136.102 26.3238 135.923 26.204 135.725 26.1223C135.527 26.0406 135.314 25.9986 135.1 25.9987C134.886 25.9988 134.674 26.0411 134.476 26.123C134.278 26.2049 134.098 26.3249 133.947 26.4762C133.796 26.6274 133.676 26.8069 133.594 27.0043C133.513 27.2017 133.471 27.4132 133.472 27.6267L133.467 29.4807C133.467 29.5094 133.462 29.5378 133.451 29.5643C133.44 29.5908 133.424 29.6149 133.404 29.6352C133.383 29.6555 133.359 29.6716 133.333 29.6826C133.306 29.6936 133.278 29.6992 133.249 29.6992C133.22 29.6992 133.192 29.6936 133.165 29.6826C133.138 29.6716 133.114 29.6555 133.094 29.6352C133.074 29.6149 133.058 29.5908 133.047 29.5644C133.036 29.5379 133.03 29.5095 133.03 29.4808L133.031 27.6257C133.031 27.079 133.249 26.5547 133.637 26.1682C134.025 25.7816 134.551 25.5645 135.1 25.5645C135.649 25.5644 136.175 25.7816 136.564 26.1682C136.952 26.5547 137.17 27.079 137.17 27.6256L137.172 29.4811C137.172 29.5393 137.148 29.5948 137.106 29.6355C137.064 29.6761 137.008 29.6986 136.95 29.698Z" fill="#ffffff"/>
<path d="M102.905 29.7037L101.441 29.7018C101.168 29.7018 100.899 29.6484 100.648 29.5444C100.396 29.4405 100.168 29.2882 99.9758 29.0963C99.7837 28.9043 99.6315 28.6765 99.5279 28.4258C99.4244 28.1751 99.3715 27.9066 99.3723 27.6355C99.3741 27.0857 99.591 26.5583 99.9769 26.1652C100.363 25.7721 100.887 25.5444 101.439 25.5303L102.904 25.5309C102.962 25.5314 103.017 25.5542 103.059 25.5947C103.1 25.6352 103.124 25.69 103.125 25.7477C103.125 25.7764 103.119 25.8048 103.108 25.8313C103.097 25.8578 103.081 25.8819 103.06 25.9021C103.04 25.9223 103.016 25.9383 102.989 25.9492C102.962 25.96 102.934 25.9655 102.905 25.9653L101.439 25.9666C101.003 25.978 100.588 26.1588 100.283 26.4706C99.9787 26.7824 99.8087 27.2005 99.8094 27.6354C99.8089 28.0669 99.9803 28.481 100.286 28.7867C100.592 29.0924 101.007 29.2648 101.44 29.2661L102.904 29.2662C102.933 29.2661 102.961 29.2716 102.988 29.2825C103.015 29.2934 103.039 29.3094 103.059 29.3296C103.08 29.3499 103.096 29.3739 103.107 29.4004C103.118 29.4269 103.124 29.4553 103.124 29.484C103.123 29.5417 103.1 29.5969 103.059 29.6379C103.018 29.6789 102.963 29.7025 102.905 29.7037Z" fill="#ffffff"/>
<path d="M148.098 29.7016L146.636 29.7016C146.363 29.7015 146.093 29.6479 145.841 29.5438C145.589 29.4397 145.36 29.2872 145.168 29.095C144.975 28.9028 144.822 28.6746 144.718 28.4236C144.613 28.1725 144.56 27.9034 144.56 27.6316C144.563 27.081 144.781 26.5533 145.168 26.1605C145.556 25.7678 146.082 25.5411 146.634 25.5287L148.096 25.5283C148.125 25.528 148.154 25.5334 148.18 25.5442C148.207 25.5549 148.231 25.5709 148.252 25.591C148.272 25.6112 148.289 25.6352 148.3 25.6617C148.311 25.6882 148.317 25.7166 148.317 25.7454C148.317 25.8037 148.293 25.8595 148.251 25.9005C148.21 25.9415 148.153 25.9644 148.095 25.964L146.635 25.9628C146.198 25.9736 145.783 26.1541 145.478 26.4658C145.172 26.7775 145.002 27.1957 145.002 27.6312C145.001 27.8453 145.043 28.0574 145.124 28.2554C145.206 28.4535 145.326 28.6335 145.478 28.7851C145.63 28.9368 145.81 29.0571 146.008 29.1393C146.207 29.2214 146.42 29.2636 146.635 29.2636L148.098 29.2637C148.157 29.2637 148.212 29.2868 148.254 29.3279C148.295 29.369 148.318 29.4248 148.318 29.4828C148.318 29.5409 148.295 29.5966 148.253 29.6376C148.212 29.6786 148.156 29.7016 148.098 29.7016Z" fill="#ffffff"/>
<path d="M159.055 29.9918C159.026 29.9918 158.998 29.9861 158.971 29.9751C158.944 29.964 158.92 29.9478 158.9 29.9274C158.879 29.9071 158.863 29.8829 158.853 29.8563C158.842 29.8296 158.836 29.8012 158.836 29.7724L158.835 27.8565C158.835 27.8276 158.84 27.7988 158.851 27.772C158.862 27.7451 158.878 27.7206 158.898 27.6998C158.919 27.6791 158.943 27.6626 158.969 27.6512C158.996 27.6398 159.025 27.6337 159.054 27.6333L161.711 27.6347C161.931 27.6337 162.141 27.5464 162.296 27.3916C162.451 27.2368 162.539 27.0272 162.54 26.8084C162.539 26.5875 162.451 26.3756 162.296 26.2177C162.141 26.0599 161.93 25.9685 161.708 25.9629L159.053 25.9619C158.996 25.9616 158.941 25.9386 158.901 25.898C158.86 25.8573 158.837 25.8024 158.838 25.7451C158.838 25.6879 158.861 25.633 158.902 25.5927C158.942 25.5523 158.997 25.5296 159.055 25.5297L161.71 25.5293C162.047 25.5324 162.369 25.668 162.606 25.9065C162.843 26.1449 162.976 26.467 162.976 26.8026C162.975 27.1381 162.842 27.46 162.605 27.6981C162.367 27.9362 162.045 28.0713 161.708 28.0739L159.274 28.0743L159.275 29.7741C159.275 29.832 159.251 29.8873 159.21 29.9281C159.169 29.9689 159.113 29.9918 159.055 29.9918Z" fill="#ffffff"/>
<path d="M168.203 29.6924L166.344 29.6935C166.315 29.6939 166.286 29.6884 166.26 29.6775C166.233 29.6665 166.208 29.6503 166.188 29.6298C166.168 29.6093 166.152 29.585 166.141 29.5582C166.13 29.5314 166.125 29.5027 166.126 29.4739L166.124 25.7448C166.123 25.7163 166.129 25.688 166.14 25.6616C166.151 25.6352 166.167 25.6112 166.187 25.591C166.207 25.5709 166.231 25.555 166.258 25.5442C166.284 25.5334 166.313 25.528 166.341 25.5283L168.204 25.5287C168.756 25.54 169.282 25.7661 169.67 26.1586C170.057 26.551 170.275 27.0788 170.277 27.6292C170.276 28.1765 170.057 28.7012 169.668 29.088C169.279 29.4748 168.752 29.6921 168.203 29.6924ZM166.561 29.2527L168.205 29.2531C168.637 29.2532 169.051 29.0828 169.358 28.779C169.664 28.4753 169.836 28.063 169.838 27.6327C169.838 27.1969 169.668 26.7783 169.363 26.466C169.057 26.1537 168.642 25.9725 168.205 25.961L166.561 25.9625L166.561 29.2527Z" fill="#ffffff"/>
<path d="M129.458 29.6956L127.817 29.6963C127.269 29.6949 126.743 29.477 126.355 29.0903C125.968 28.7036 125.75 28.1796 125.749 27.6331C125.751 27.0829 125.968 26.5549 126.354 26.1617C126.741 25.7686 127.266 25.5413 127.818 25.5283L129.46 25.5299C129.488 25.5295 129.517 25.5348 129.544 25.5456C129.571 25.5564 129.595 25.5724 129.616 25.5927C129.636 25.613 129.652 25.6372 129.663 25.6638C129.674 25.6904 129.68 25.719 129.68 25.7478C129.679 25.7766 129.673 25.805 129.662 25.8315C129.651 25.8579 129.634 25.8819 129.613 25.9018C129.592 25.9218 129.568 25.9374 129.541 25.9478C129.514 25.9581 129.485 25.963 129.456 25.9621L127.816 25.9642C127.38 25.9768 126.966 26.1578 126.662 26.4689C126.358 26.78 126.187 27.1968 126.185 27.6311C126.187 28.0622 126.359 28.4751 126.666 28.7795C126.972 29.0839 127.387 29.255 127.82 29.2552L129.457 29.2543C129.515 29.2545 129.572 29.2777 129.613 29.319C129.654 29.3602 129.678 29.4162 129.678 29.4745C129.678 29.5328 129.655 29.5889 129.614 29.6303C129.572 29.6717 129.516 29.6952 129.458 29.6956L129.458 29.6956Z" fill="#ffffff"/>
<path d="M68.4334 27.7241C68.4036 27.7257 68.3739 27.7206 68.3463 27.7093C68.3187 27.6981 68.294 27.6809 68.2739 27.659L66.5235 25.914C66.4831 25.8729 66.4602 25.8178 66.4597 25.7603C66.4592 25.7027 66.4811 25.6472 66.5208 25.6054C66.5408 25.5847 66.5649 25.5682 66.5915 25.557C66.6181 25.5458 66.6467 25.5401 66.6756 25.5403C66.7045 25.5404 66.7331 25.5464 66.7596 25.5579C66.7861 25.5693 66.81 25.586 66.8298 25.6069L68.4314 27.1971L70.0328 25.6047C70.0529 25.5843 70.0768 25.5681 70.1032 25.557C70.1296 25.5459 70.158 25.5401 70.1867 25.54C70.2153 25.54 70.2437 25.5456 70.2702 25.5566C70.2967 25.5676 70.3207 25.5837 70.3408 25.604C70.3615 25.6244 70.3778 25.6487 70.389 25.6754C70.4002 25.7021 70.406 25.7308 70.406 25.7597C70.406 25.7887 70.4003 25.8174 70.3891 25.8441C70.3779 25.8708 70.3616 25.8951 70.341 25.9155L68.5844 27.6598C68.5653 27.6807 68.542 27.6973 68.5159 27.7084C68.4899 27.7195 68.4617 27.7248 68.4334 27.7241Z" fill="#ffffff"/>
<path d="M54.157 29.2236L53.5812 29.2263C53.5229 29.2255 53.4672 29.2017 53.4265 29.1602C53.3857 29.1186 53.3631 29.0627 53.3635 29.0046C53.364 28.9465 53.3876 28.891 53.429 28.8501C53.4705 28.8093 53.5265 28.7864 53.5848 28.7866L54.156 28.7861C54.2143 28.786 54.2702 28.8089 54.3114 28.8498C54.3527 28.8908 54.376 28.9463 54.3761 29.0044C54.3763 29.0624 54.3532 29.1181 54.3122 29.1592C54.2711 29.2003 54.2153 29.2235 54.157 29.2236Z" fill="#ffffff"/>
<path d="M55.8283 29.9966C55.7871 29.9968 55.7466 29.9852 55.7117 29.9632C55.6769 29.9413 55.6491 29.9098 55.6317 29.8725L53.8716 26.2511L52.1129 29.8763C52.0861 29.9276 52.0404 29.9666 51.9854 29.985C51.9304 30.0035 51.8704 30.0001 51.8179 29.9755C51.7919 29.963 51.7686 29.9455 51.7495 29.924C51.7303 29.9025 51.7157 29.8775 51.7064 29.8502C51.6971 29.823 51.6933 29.7943 51.6953 29.7656C51.6974 29.7369 51.7051 29.7089 51.7181 29.6833L53.6697 25.6572C53.6898 25.6224 53.7186 25.5936 53.7533 25.5734C53.788 25.5532 53.8274 25.5423 53.8675 25.542C53.9077 25.5417 53.9473 25.5518 53.9824 25.5714C54.0174 25.591 54.0467 25.6194 54.0673 25.6537L56.0243 29.6815C56.0497 29.7338 56.0534 29.794 56.0348 29.8491C56.0162 29.9042 55.9767 29.9498 55.9247 29.9762C55.8944 29.9898 55.8615 29.9968 55.8283 29.9966Z" fill="#ffffff"/>
<path d="M153.588 29.2226L153.016 29.2219C152.987 29.2221 152.958 29.2165 152.931 29.2055C152.904 29.1944 152.879 29.1782 152.859 29.1576C152.838 29.1371 152.822 29.1127 152.811 29.0858C152.799 29.059 152.794 29.0302 152.794 29.0011C152.794 28.972 152.8 28.9432 152.811 28.9164C152.822 28.8896 152.839 28.8652 152.859 28.8448C152.88 28.8244 152.905 28.8082 152.932 28.7973C152.959 28.7864 152.988 28.781 153.017 28.7813L153.589 28.7836C153.617 28.7835 153.646 28.7892 153.672 28.8002C153.698 28.8112 153.722 28.8274 153.742 28.8477C153.762 28.8681 153.778 28.8922 153.788 28.9188C153.799 28.9453 153.804 28.9736 153.803 29.0021C153.804 29.0307 153.799 29.0592 153.788 29.0858C153.778 29.1125 153.762 29.1368 153.742 29.1573C153.722 29.1779 153.698 29.1942 153.672 29.2054C153.645 29.2166 153.617 29.2225 153.588 29.2226Z" fill="#ffffff"/>
<path d="M128.924 27.8723L128.353 27.8729C128.324 27.8735 128.295 27.8683 128.268 27.8575C128.241 27.8468 128.216 27.8307 128.195 27.8103C128.174 27.7899 128.157 27.7655 128.146 27.7386C128.134 27.7117 128.128 27.6828 128.128 27.6536C128.128 27.6245 128.134 27.5955 128.145 27.5686C128.157 27.5417 128.173 27.5173 128.194 27.4968C128.215 27.4763 128.24 27.4602 128.267 27.4494C128.294 27.4385 128.324 27.4332 128.353 27.4338L128.924 27.4336C128.982 27.4341 129.038 27.4574 129.079 27.4985C129.12 27.5397 129.142 27.5952 129.142 27.6531C129.143 27.6819 129.138 27.7105 129.127 27.7373C129.116 27.764 129.1 27.7883 129.08 27.8088C129.059 27.8292 129.035 27.8454 129.008 27.8563C128.982 27.8672 128.953 27.8727 128.924 27.8723Z" fill="#ffffff"/>
<path d="M151.346 29.9925C151.313 29.9919 151.281 29.984 151.251 29.9694C151.225 29.9577 151.201 29.9409 151.182 29.9198C151.162 29.8988 151.147 29.874 151.138 29.847C151.128 29.82 151.124 29.7914 151.126 29.7628C151.128 29.7343 151.136 29.7064 151.149 29.6809L153.103 25.6515C153.123 25.6163 153.152 25.587 153.186 25.5666C153.221 25.5461 153.261 25.5353 153.301 25.5352C153.341 25.535 153.381 25.5456 153.416 25.5658C153.451 25.586 153.479 25.6152 153.499 25.6502L155.457 29.6788C155.481 29.731 155.485 29.7908 155.465 29.8453C155.446 29.8997 155.406 29.9443 155.353 29.9693C155.301 29.9943 155.241 29.9977 155.186 29.9788C155.131 29.9598 155.086 29.9201 155.061 29.8682L153.304 26.2491L151.544 29.868C151.526 29.9049 151.498 29.9362 151.463 29.9581C151.428 29.9801 151.387 29.992 151.346 29.9925Z" fill="#ffffff"/>
<path d="M83.2791 29.2225L82.7086 29.2227C82.6796 29.2231 82.6508 29.2178 82.6239 29.207C82.5969 29.1962 82.5724 29.1802 82.5517 29.16C82.531 29.1397 82.5146 29.1155 82.5033 29.0889C82.492 29.0623 82.4862 29.0337 82.4861 29.0048C82.486 28.9759 82.4916 28.9472 82.5027 28.9205C82.5138 28.8938 82.53 28.8695 82.5506 28.8491C82.5711 28.8287 82.5955 28.8125 82.6224 28.8015C82.6492 28.7906 82.678 28.785 82.707 28.7852L83.2814 28.7866C83.3101 28.7868 83.3385 28.7926 83.3649 28.8037C83.3914 28.8148 83.4154 28.831 83.4356 28.8514C83.4557 28.8717 83.4717 28.8959 83.4824 28.9224C83.4932 28.9489 83.4986 28.9773 83.4983 29.0059C83.4976 29.0634 83.4742 29.1183 83.4332 29.1588C83.3922 29.1993 83.3369 29.2222 83.2791 29.2225Z" fill="#ffffff"/>
<path d="M81.041 29.997C81.006 29.9938 80.9715 29.9863 80.9383 29.9746C80.8873 29.9484 80.8484 29.9036 80.8297 29.8495C80.8111 29.7954 80.8141 29.7363 80.8381 29.6844L82.7929 25.653C82.8132 25.6181 82.8424 25.5892 82.8775 25.5692C82.9126 25.5492 82.9525 25.5388 82.9929 25.5391C83.0334 25.5393 83.0731 25.5503 83.1079 25.5707C83.1428 25.5912 83.1716 25.6205 83.1914 25.6556L85.1472 29.6821C85.1598 29.7079 85.1671 29.7359 85.1689 29.7646C85.1706 29.7932 85.1666 29.8219 85.1572 29.8491C85.1478 29.8762 85.1331 29.9012 85.114 29.9227C85.0948 29.9441 85.0717 29.9616 85.0457 29.9742C85.0198 29.9867 84.9917 29.994 84.9629 29.9957C84.9342 29.9975 84.9054 29.9935 84.8781 29.9841C84.8509 29.9747 84.8258 29.9601 84.8042 29.9411C84.7827 29.922 84.7651 29.8989 84.7525 29.8731L82.9901 26.2496L81.2314 29.8748C81.214 29.9106 81.187 29.941 81.1534 29.9625C81.1199 29.9841 81.081 29.996 81.041 29.997Z" fill="#ffffff"/>
<path d="M105.882 29.7023C105.824 29.7025 105.768 29.6796 105.726 29.6386C105.684 29.5977 105.661 29.5419 105.66 29.4836L105.66 25.747C105.66 25.7185 105.665 25.6902 105.676 25.6638C105.687 25.6373 105.702 25.6133 105.723 25.5931C105.743 25.5729 105.767 25.5569 105.793 25.5462C105.82 25.5354 105.848 25.53 105.877 25.5303C105.906 25.5297 105.935 25.5349 105.962 25.5455C105.989 25.5562 106.013 25.5721 106.034 25.5923C106.054 25.6126 106.071 25.6367 106.082 25.6634C106.093 25.69 106.099 25.7186 106.099 25.7475L106.099 29.4826C106.1 29.5112 106.094 29.5396 106.084 29.5662C106.073 29.5928 106.057 29.617 106.037 29.6374C106.017 29.6578 105.993 29.674 105.966 29.6852C105.94 29.6963 105.911 29.7021 105.882 29.7023Z" fill="#ffffff"/>
<path d="M115.54 29.6948C115.483 29.6947 115.427 29.6717 115.386 29.6309C115.345 29.5902 115.322 29.5349 115.322 29.4772L115.321 25.791C115.321 25.7621 115.326 25.7334 115.337 25.7067C115.348 25.6799 115.365 25.6556 115.385 25.6352C115.406 25.6148 115.43 25.5986 115.457 25.5876C115.484 25.5766 115.513 25.5711 115.542 25.5713C115.6 25.5713 115.656 25.594 115.698 25.6346C115.739 25.6753 115.763 25.7306 115.764 25.7886L115.767 29.4748C115.766 29.5338 115.742 29.5901 115.699 29.6314C115.657 29.6726 115.6 29.6954 115.54 29.6948Z" fill="#ffffff"/>
<path d="M122.4 29.6958L119.193 29.6945C119.151 29.6937 119.111 29.6814 119.076 29.6588C119.041 29.6363 119.014 29.6045 118.996 29.567C118.977 29.5292 118.97 29.4867 118.975 29.4448C118.981 29.403 118.999 29.3637 119.027 29.3321L121.92 26.0079L119.318 26.0068C119.289 26.0068 119.26 26.0011 119.234 25.99C119.207 25.979 119.183 25.9628 119.163 25.9425C119.142 25.9221 119.126 25.898 119.115 25.8715C119.104 25.8449 119.099 25.8165 119.099 25.7878C119.099 25.7591 119.104 25.7307 119.115 25.7042C119.127 25.6777 119.143 25.6536 119.163 25.6334C119.184 25.6131 119.208 25.5971 119.235 25.5861C119.261 25.5752 119.29 25.5696 119.319 25.5697L122.401 25.5684C122.442 25.5697 122.482 25.5825 122.517 25.6055C122.551 25.6284 122.578 25.6605 122.595 25.6982C122.612 25.7358 122.618 25.7775 122.613 25.8184C122.607 25.8593 122.59 25.8978 122.564 25.9296L119.675 29.2573L122.399 29.2563C122.458 29.2569 122.513 29.2802 122.554 29.3213C122.595 29.3623 122.619 29.4179 122.619 29.4759C122.62 29.5047 122.614 29.5334 122.604 29.5602C122.593 29.5871 122.577 29.6114 122.556 29.6319C122.536 29.6524 122.511 29.6686 122.485 29.6796C122.458 29.6906 122.429 29.6961 122.4 29.6958Z" fill="#ffffff"/>
<path d="M162.389 29.9518C162.347 29.9522 162.305 29.9404 162.27 29.9178C162.234 29.8952 162.206 29.8628 162.189 29.8246L161.954 29.3C161.931 29.2468 161.93 29.1867 161.951 29.1328C161.972 29.0788 162.014 29.0353 162.067 29.0117C162.094 28.9996 162.122 28.993 162.151 28.9923C162.18 28.9915 162.209 28.9967 162.236 29.0075C162.263 29.0182 162.288 29.0343 162.308 29.0548C162.329 29.0753 162.345 29.0997 162.356 29.1266L162.59 29.6463C162.602 29.6724 162.608 29.7004 162.609 29.7289C162.609 29.7573 162.604 29.7856 162.594 29.8121C162.583 29.8386 162.568 29.8628 162.548 29.8834C162.528 29.9039 162.505 29.9203 162.479 29.9317C162.451 29.9456 162.42 29.9525 162.389 29.9518Z" fill="#ffffff"/>
</svg>
