<?xml version="1.0" encoding="utf-8"?>
<!-- Generator: Adobe Illustrator 26.2.1, SVG Export Plug-In . SVG Version: 6.00 Build 0)  -->
<svg version="1.1" id="圖層_1" xmlns="http://www.w3.org/2000/svg" xmlns:xlink="http://www.w3.org/1999/xlink" x="0px" y="0px"
	 viewBox="0 0 494 512" style="enable-background:new 0 0 494 512;" xml:space="preserve">
<style type="text/css">
	.st0{fill:#FFFFFF;}
	.st1{opacity:0.15;fill:none;stroke:#000000;stroke-width:5;stroke-miterlimit:10;}
</style>
<path class="st0" d="M193.3,103.9c-89.9,0-163.1,59.4-163.1,132.4c0,65.4,58,120.2,136.4,130.6c19.1,4.1,16.9,11.1,12.6,36.8
	c-0.7,4.1-3.3,16.1,14.1,8.8c17.4-7.3,93.9-55.3,128.2-94.7c23.6-26,34.9-52.3,34.9-81.5C356.4,163.3,283.2,103.9,193.3,103.9z
	 M135.7,275.2c0,1.8-1.4,3.2-3.2,3.2H86.8c-0.9,0-1.6-0.4-2.2-0.9c-0.6-0.6-0.9-1.3-0.9-2.2v-71.1c0-1.8,1.4-3.2,3.2-3.2h11.4
	c1.8,0,3.2,1.4,3.2,3.2v56.4h31.1c1.7,0,3.1,1.5,3.1,3.2V275.2z M163.3,275.3c0,1.8-1.4,3.2-3.2,3.2h-11.4c-1.8,0-3.2-1.4-3.2-3.2
	v-71.1c0-1.8,1.4-3.2,3.2-3.2h11.4c1.8,0,3.2,1.5,3.2,3.2V275.3z M242.1,275.3c0,1.8-1.4,3.2-3.2,3.2h-11.4c-1.1,0-2.1-0.6-2.6-1.3
	l-32.6-44v42.2c0,1.8-1.4,3.2-3.2,3.2h-11.4c-1.8,0-3.2-1.4-3.2-3.2v-71.1c0-1.8,1.4-3.2,3.2-3.2H189c1,0,2.1,0.5,2.6,1.4l32.6,44
	v-42.2c0-1.8,1.4-3.2,3.2-3.2h11.4c1.8-0.1,3.3,1.4,3.3,3.1V275.3z M305.3,215.6c0,1.8-1.4,3.2-3.2,3.2H271v12h31.1
	c1.8,0,3.2,1.4,3.2,3.2v11.5c0,1.8-1.4,3.2-3.2,3.2H271v12h31.1c1.8,0,3.2,1.4,3.2,3.2v11.4c0,1.8-1.4,3.2-3.2,3.2h-45.7
	c-1.8,0-3.2-1.5-3.2-3.2v-71.1c0-1.8,1.5-3.2,3.2-3.2h45.7c1.7,0,3.1,1.5,3.2,3.2V215.6z"/>
<line class="st1" x1="487" y1="103.9" x2="487" y2="414.8"/>
</svg>
