<?xml version="1.0" encoding="utf-8"?>
<!-- Generator: Adobe Illustrator 26.2.1, SVG Export Plug-In . SVG Version: 6.00 Build 0)  -->
<svg version="1.1" id="圖層_1" xmlns="http://www.w3.org/2000/svg" xmlns:xlink="http://www.w3.org/1999/xlink" x="0px" y="0px"
	 viewBox="0 0 583.82 421.01" style="enable-background:new 0 0 583.82 421.01;" xml:space="preserve">
<style type="text/css">
	.st0{fill:#EF6079;}
</style>
<g>
	<path class="st0" d="M472.25,158.99c-4.22-12.1-11.39-15.63-16.6-16.48c-4.41-0.69-13.03-0.24-21.48,10.76
		c-3.24,4.21-6.03,9.46-8.13,15.18c-9.76-8.22-20.37-13.34-28.87-14.62c-10.54-1.57-16.31,2.76-18.85,5.48
		c-5.83,6.32-7.07,17.32-3.19,28.66c3.4,9.94,15.51,33.25,55.44,41.54c-0.04,10.49-1.84,20.42-2.99,25.88
		c-1.34,6.16,2.59,12.28,8.79,13.6c1.65,0.35,3.29,0.35,4.84-0.01c4.27-0.93,7.82-4.25,8.79-8.78c2.19-10.17,4.65-26.46,2.85-42.6
		C459.91,211.79,483.07,189.87,472.25,158.99z M399.19,185.58c-2.09-3.49-2.92-6.5-3.24-8.63c7.32,2.22,22.04,11.3,30.01,27.66
		C409.67,199.25,402.35,190.78,399.19,185.58z M445.59,192.29c-1.8-6.46,1.91-17.55,5.67-23.55
		C453.71,178.37,449.87,186.62,445.59,192.29z"/>
	<path class="st0" d="M507.25,79.14l-3.77-3.53C421.22-3.14,314.01,5.75,257.4,18.05c-34.17,7.43-56.51,17.18-57.43,17.6
		c-3.98,1.75-6.65,5.64-6.8,10.02c-0.19,4.37,2.14,8.45,5.99,10.56c9.65,5.23,14.97,11.23,15.8,17.88
		c1.45,11.95-10.38,26.02-15.56,30.98c-25.42,18.17-45.04,36.51-60.06,53.13c-1.07-4.05-2.51-8.59-4.43-13.41
		c9.57-4.79,17.4-14.5,22.34-28.17c5.3-14.58,8.79-40.14-3.23-50.84c-5.36-4.75-12.69-5.57-19.57-2.09
		c-8.67,4.37-18.61,12.03-25.75,22.36c-9.15-5.06-25.55-11.56-41.93-4.96c-13.81,5.52-15.61,15.77-15.75,19.92
		c-0.42,13.64,12.84,26.21,25.32,32.11c11.05,5.23,21.82,4.95,28.89,3.84c0.23,0.43,0.45,0.87,0.72,1.29
		c12.63,20.1,13.74,39.38,13.76,39.72c0.04,1.18,0.33,2.31,0.73,3.37c-11.16,15.11-17.89,27.37-21.47,34.74
		c-6.49-12.25-14.82-18.51-20.93-21.6c-13.82-6.99-30.42-5.52-43.35,3.84c-16.3,11.79-30.04,38.87-22.63,54.85
		c1.59,3.47,8.24,14.52,25.7,10.13c23.44-5.76,35.93-27.65,40.48-37.54c4.9,8.75,7.64,21.58,7.77,37.33
		c0.02,0.89,0.15,1.77,0.34,2.6c-1.03,14.7,0.18,29.52,3.62,44.42c11.98,51.64,50.72,74.29,52.36,75.22
		c0.13,0.07,0.25,0.14,0.37,0.21c24.44,12.85,49.1,16.69,73.31,11.42c22.03-4.79,39.28-16.14,51.35-26.88
		c23.26,18.49,49.76,28.92,64.36,33.71c0.9,0.31,22.8,7.42,60.93,7l1.26,0.15c0.45,0.05,0.91,0.05,1.37,0.07
		c11.96-0.15,23.9-1.5,35.51-4.02c83.45-18.13,143.6-94.96,143.02-182.66C573.44,169.32,547.94,113.72,507.25,79.14z M139.1,87.63
		c0.32,6.98-1.2,18.66-6.55,28.14c-1.83,3.23-4.58,6.97-8.15,8.64c-2.59-4.91-3.11-10.01-1.59-15.5
		C125.22,100.23,132.09,92.62,139.1,87.63z M74.51,102.74c0.21-0.11,0.47-0.22,0.79-0.33c8.95-3.62,19.79,2.11,24.41,4.97
		c-0.45,2.42-0.58,4.81-0.61,7.22c-3.62,0.24-8.37-0.04-12.93-2.2C80.42,109.68,76.01,105.3,74.51,102.74z M58.59,213.38
		c-0.08,0.24-8.37,22.61-25.51,27.44c1.08-6.01,6.52-17.71,15.06-23.9c2.37-1.73,4.97-2.88,7.62-3.46c0.96-0.21,1.96-0.34,2.93-0.39
		C58.66,213.17,58.61,213.27,58.59,213.38z M266.36,337.69c-11.56-13.2-18.32-27.84-20.23-43.63c-0.33-3.2-0.09-12.81,4.93-18.39
		c2.4-2.68,5.75-4.69,8.94-5.38c5.43-1.19,10.85,1.41,16.09,7.64c1.32,2.03,9.37,15.84,2.67,37.64
		C277.12,320.93,273.08,328.97,266.36,337.69z M550.84,224.5c0.54,76.91-52,144.22-124.9,160.07c-9.91,2.15-20.07,3.32-30.26,3.49
		l-1.29-0.14c-0.43-0.03-0.89-0.05-1.34-0.05c-34.35,0.42-53.96-5.78-54.14-5.84c-10.39-3.4-34.66-12.46-55.72-28.67
		c8.22-10.35,14.52-21.43,17.46-31.04c10.67-34.59-5.45-57.13-6.16-58.07c-0.11-0.17-0.25-0.34-0.35-0.5
		c-14.79-17.98-30.81-17.67-39.03-15.88c-7.96,1.73-15.46,6.16-21.13,12.46c-12.83,14.31-10.91,34.14-10.63,36.33
		c2.48,21.25,11.59,40.61,27.12,57.69c-9.68,8.27-22.92,16.65-39.37,20.22c-18.69,4.07-38.06,0.97-57.52-9.19
		c-2.26-1.39-32.01-20.29-41.3-60.43c-5.76-24.82-4.13-49.49,4.8-73.22c0.22-0.54,21.85-55.41,96.21-108.38
		c0.37-0.27,0.72-0.57,1.05-0.86c2.74-2.47,26.49-24.9,23.34-51.08c-0.96-8.02-4.25-15.25-9.81-21.62
		c8.93-2.93,20.65-6.34,34.39-9.33c63.7-13.85,154.51-16.11,225.4,51.77l4.02,3.81c0.17,0.12,0.31,0.28,0.5,0.42
		C528.05,126.82,550.56,175.88,550.84,224.5z"/>
</g>
</svg>
