<?xml version="1.0" encoding="utf-8"?>
<!-- Generator: Adobe Illustrator 26.2.1, SVG Export Plug-In . SVG Version: 6.00 Build 0)  -->
<svg version="1.1" id="圖層_1" xmlns="http://www.w3.org/2000/svg" xmlns:xlink="http://www.w3.org/1999/xlink" x="0px" y="0px"
	 viewBox="0 0 640 512" style="enable-background:new 0 0 640 512;" xml:space="preserve">
<style type="text/css">
	.st0{fill:#EF6079;}
</style>
<path class="st0" d="M256,384h-48v-35c81.9-15.1,144-86.7,144-173C352,78.8,273.2,0,176,0S0,78.8,0,176c0,86.3,62.1,157.9,144,172.1
	v35H96c-8.8,0-16,7.2-16,16v32c0,8.8,7.2,16,16,16h48v48c0,8.8,7.2,16,16,16h32c8.8,0,16-7.2,16-16v-48h48c8.8,0,16-7.2,16-16v-32
	C272,391.2,264.8,384,256,384z M176,272c-52.9,0-96-43.1-96-96c0-52.9,43.1-96,96-96c52.9,0,96,43.1,96,96
	C272,228.9,228.9,272,176,272z M624,0H511.6c-21.4,0-32.1,25.9-17,41l29.6,29.6l-24.5,24.6c-30-20.7-64.8-31.1-99.7-31.1
	c-15.2,0-30.4,2.2-45.2,6.1c13.5,22.8,22.8,48.4,26.8,75.7c6.1-1.2,12.3-1.8,18.5-1.8c24.6,0,49.2,9.4,67.9,28.1
	c37.4,37.4,37.4,98.3,0,135.8C449.2,326.6,424.6,336,400,336c-23.5,0-47-8.8-65.4-26c-15.9,18.8-34.9,35.1-56.8,47.4
	c11.5,5.9,20.2,16.3,24,28.8C331.5,406,365.7,416,400,416c45,0,90.1-17.2,124.5-51.5c61-61,67.7-155.6,20.5-224.1l24.5-24.6
	l29.6,29.6c4.9,4.9,10.9,7.1,16.8,7.1c12.3,0,24.1-9.6,24.1-24V16C640,7.2,632.8,0,624,0z"/>
</svg>
