<svg width="50" height="44" viewBox="0 0 50 44" fill="none" xmlns="http://www.w3.org/2000/svg">
<path d="M49.4434 37.7227L28.6133 2.17578C27.0186 -0.558594 22.9942 -0.558594 21.3887 2.17578L0.568394 37.7227C-1.03415 40.4473 0.961851 43.875 4.17386 43.875H45.834C49.0332 43.875 51.0352 40.457 49.4434 37.7227ZM22.6563 13.4062C22.6563 12.1123 23.7061 11.0625 25 11.0625C26.294 11.0625 27.3438 12.1172 27.3438 13.4062V25.9062C27.3438 27.2002 26.294 28.25 25.0879 28.25C23.8819 28.25 22.6563 27.2051 22.6563 25.9062V13.4062ZM25 37.625C23.3047 37.625 21.9297 36.25 21.9297 34.5547C21.9297 32.8594 23.3038 31.4844 25 31.4844C26.6963 31.4844 28.0704 32.8594 28.0704 34.5547C28.0664 36.248 26.6993 37.625 25 37.625Z" fill="#EB5757"/>
</svg>
