<svg width="17" height="19" viewBox="0 0 17 19" fill="none" xmlns="http://www.w3.org/2000/svg">
<g clip-path="url(#clip0_81_274)">
<path d="M0.59375 4.89844H16.0312C16.3592 4.89844 16.625 4.63262 16.625 4.30469V2.82031C16.625 2.49238 16.3592 2.22656 16.0312 2.22656H0.59375C0.265814 2.22656 0 2.49238 0 2.82031V4.30469C0 4.63262 0.265814 4.89844 0.59375 4.89844ZM0.59375 10.8359H16.0312C16.3592 10.8359 16.625 10.5701 16.625 10.2422V8.75781C16.625 8.42988 16.3592 8.16406 16.0312 8.16406H0.59375C0.265814 8.16406 0 8.42988 0 8.75781V10.2422C0 10.5701 0.265814 10.8359 0.59375 10.8359ZM0.59375 16.7734H16.0312C16.3592 16.7734 16.625 16.5076 16.625 16.1797V14.6953C16.625 14.3674 16.3592 14.1016 16.0312 14.1016H0.59375C0.265814 14.1016 0 14.3674 0 14.6953V16.1797C0 16.5076 0.265814 16.7734 0.59375 16.7734Z" fill="#FFCD85"/>
</g>
<defs>
<clipPath id="clip0_81_274">
<rect width="16.625" height="19" fill="white"/>
</clipPath>
</defs>
</svg>
