<svg width="23" height="21" viewBox="0 0 23 21" fill="none" xmlns="http://www.w3.org/2000/svg">
<path d="M21.0793 9.00331H19.1667V7.07403C19.1667 6.00891 18.3082 5.14476 17.25 5.14476H10.8611L8.30556 2.57239H1.91667C0.858507 2.57239 0 3.43654 0 4.50166V16.0773C0 17.1424 0.858507 18.0066 1.91667 18.0066H17.8889C18.5477 18.0066 19.1627 17.665 19.5141 17.0982L22.7045 11.9535C23.5031 10.6713 22.5847 9.00331 21.0793 9.00331ZM1.91667 4.74282C1.91667 4.61019 2.02448 4.50166 2.15625 4.50166H7.51094L10.0665 7.07403H17.0104C17.1422 7.07403 17.25 7.18255 17.25 7.31519V9.00331H6.06944C5.39861 9.00331 4.77569 9.35701 4.4283 9.93579L1.91667 14.1239V4.74282ZM17.8889 16.0773H2.875L5.95764 10.9326H21.0833L17.8889 16.0773Z" fill="#F0941D"/>
</svg>
