<svg width="16" height="19" viewBox="0 0 16 19" fill="none" xmlns="http://www.w3.org/2000/svg">
<g clip-path="url(#clip0_427_651)">
<path d="M15.3909 6.75795L15.6404 5.27358C15.6863 5.00064 15.4888 4.75 15.2278 4.75H12.615L13.1257 1.71108C13.1716 1.43814 12.9741 1.1875 12.7131 1.1875H11.294C11.1956 1.1875 11.1004 1.22428 11.0249 1.29138C10.9495 1.35849 10.8987 1.45165 10.8814 1.55455L10.3444 4.75H6.89938L7.41011 1.71108C7.456 1.43814 7.25849 1.1875 6.99752 1.1875H5.57839C5.48001 1.1875 5.38476 1.22428 5.30933 1.29138C5.2339 1.35849 5.18309 1.45165 5.1658 1.55455L4.62874 4.75H1.86619C1.76781 4.75 1.67257 4.78678 1.59714 4.85388C1.52171 4.92099 1.4709 5.01415 1.45361 5.11705L1.20413 6.60142C1.15827 6.87436 1.35578 7.125 1.61672 7.125H4.22956L3.43125 11.875H0.668706C0.570325 11.875 0.475081 11.9118 0.39965 11.9789C0.324219 12.046 0.27341 12.1391 0.25612 12.242L0.00663988 13.7264C-0.0392186 13.9994 0.158291 14.25 0.419226 14.25H3.03208L2.52135 17.2889C2.47549 17.5619 2.673 17.8125 2.93393 17.8125H4.35306C4.45145 17.8125 4.54669 17.7757 4.62212 17.7086C4.69755 17.6415 4.74836 17.5484 4.76565 17.4455L5.30275 14.25H8.74769L8.23696 17.2889C8.19106 17.5619 8.38857 17.8125 8.64954 17.8125H10.0687C10.1671 17.8125 10.2623 17.7757 10.3377 17.7086C10.4132 17.6415 10.464 17.5484 10.4813 17.4455L11.0183 14.25H13.7809C13.8793 14.25 13.9745 14.2132 14.0499 14.1461C14.1254 14.079 14.1762 13.9859 14.1935 13.883L14.4429 12.3986C14.4888 12.1256 14.2913 11.875 14.0304 11.875H11.4175L12.2158 7.125H14.9784C15.0767 7.125 15.172 7.08822 15.2474 7.02112C15.3228 6.95401 15.3737 6.86085 15.3909 6.75795ZM9.14686 11.875H5.70192L6.50024 7.125H9.94518L9.14686 11.875Z" fill="#848484"/>
</g>
<defs>
<clipPath id="clip0_427_651">
<rect width="15.6471" height="19" fill="white"/>
</clipPath>
</defs>
</svg>
