<svg width="23" height="15" viewBox="0 0 23 15" fill="none" xmlns="http://www.w3.org/2000/svg">
<path d="M22.8611 6.53878C20.6956 2.63873 16.4087 0 11.5 0C6.59133 0 2.30318 2.64058 0.138937 6.53915C0.0475922 6.70594 0 6.89022 0 7.07711C0 7.264 0.0475922 7.44827 0.138937 7.61506C2.30437 11.5151 6.59133 14.1538 11.5 14.1538C16.4087 14.1538 20.6968 11.5133 22.8611 7.6147C22.9524 7.4479 23 7.26363 23 7.07674C23 6.88985 22.9524 6.70557 22.8611 6.53878ZM11.5 12.3846C10.3628 12.3846 9.25105 12.0733 8.30546 11.4901C7.35988 10.9069 6.62289 10.0779 6.18768 9.10809C5.75248 8.13823 5.63861 7.07103 5.86047 6.04144C6.08234 5.01185 6.62997 4.06611 7.43413 3.32382C8.23828 2.58152 9.26283 2.07601 10.3782 1.87122C11.4936 1.66642 12.6498 1.77153 13.7004 2.17325C14.7511 2.57498 15.6491 3.25528 16.281 4.12813C16.9128 5.00097 17.25 6.02716 17.25 7.07692C17.2504 7.77403 17.1019 8.46438 16.8131 9.10849C16.5242 9.7526 16.1007 10.3379 15.5667 10.8308C15.0327 11.3237 14.3987 11.7147 13.7009 11.9813C13.0031 12.2479 12.2552 12.385 11.5 12.3846ZM11.5 3.53846C11.1578 3.54288 10.8179 3.58986 10.4894 3.67816C10.7602 4.01788 10.8901 4.43594 10.8557 4.85652C10.8212 5.2771 10.6246 5.67235 10.3015 5.9706C9.97838 6.26885 9.55019 6.45034 9.09456 6.48215C8.63892 6.51397 8.18603 6.39401 7.818 6.14402C7.60843 6.85672 7.64626 7.61214 7.92616 8.30396C8.20607 8.99577 8.71395 9.58915 9.37833 10.0006C10.0427 10.412 10.8301 10.6207 11.6298 10.5974C12.4294 10.5741 13.201 10.3199 13.8359 9.87058C14.4708 9.42128 14.9371 8.79949 15.1692 8.09275C15.4012 7.38601 15.3873 6.62989 15.1294 5.93082C14.8715 5.23175 14.3826 4.62493 13.7316 4.19577C13.0805 3.76661 12.3 3.53672 11.5 3.53846Z" fill="#848484"/>
</svg>
