<svg width="22" height="21" viewBox="0 0 22 21" fill="none" xmlns="http://www.w3.org/2000/svg">
<path d="M0.6875 11.8125C0.309375 11.8125 0 12.1078 0 12.4688V13.7812C0 14.1422 0.309375 14.4375 0.6875 14.4375H5.5V11.8125H0.6875ZM21.6992 4.30664L17.4926 0.287109C17.2992 0.102539 17.0371 0 16.7621 0H16.5V5.25H22V4.9998C22 4.74141 21.8926 4.49121 21.6992 4.30664ZM15.125 5.57812V0H6.53125C5.95977 0 5.5 0.438867 5.5 0.984375V11.8125H11V9.13828C11 8.55176 11.7434 8.26055 12.1773 8.6748L16.2852 12.6328C16.5688 12.9076 16.5688 13.3465 16.2852 13.6172L12.173 17.5711C11.7391 17.9854 10.9957 17.6941 10.9957 17.1076V14.4375H5.5V20.0156C5.5 20.5611 5.95977 21 6.53125 21H20.9688C21.5402 21 22 20.5611 22 20.0156V6.5625H16.1562C15.5891 6.5625 15.125 6.11953 15.125 5.57812Z" fill="#848484"/>
</svg>
