<svg width="21" height="24" viewBox="0 0 21 24" fill="none" xmlns="http://www.w3.org/2000/svg">
<g clip-path="url(#clip0_537_382)">
<path d="M20.2472 6.09098L16.3334 2.15902C15.9134 1.73706 15.3437 1.5 14.7497 1.5H2.23963C1.0027 1.5 0 2.50734 0 3.75V20.25C0 21.4927 1.0027 22.5 2.23963 22.5H18.6636C19.9005 22.5 20.9032 21.4927 20.9032 20.25V7.68197C20.9032 7.08523 20.6673 6.51294 20.2472 6.09098ZM12.6912 3.75V7.5H6.71889V3.75H12.6912ZM18.3836 20.25H2.51959C2.44534 20.25 2.37413 20.2204 2.32163 20.1676C2.26913 20.1149 2.23963 20.0433 2.23963 19.9688V4.03125C2.23963 3.95666 2.26913 3.88512 2.32163 3.83238C2.37413 3.77963 2.44534 3.75 2.51959 3.75H4.47926V8.625C4.47926 9.24633 4.98061 9.75 5.59908 9.75H13.8111C14.4295 9.75 14.9309 9.24633 14.9309 8.625V3.93197L18.5816 7.59961C18.6076 7.62573 18.6282 7.65674 18.6423 7.69086C18.6564 7.72499 18.6636 7.76156 18.6636 7.7985V19.9688C18.6636 20.0433 18.6341 20.1149 18.5816 20.1676C18.5291 20.2204 18.4579 20.25 18.3836 20.25ZM10.4516 10.875C8.18758 10.875 6.34562 12.7255 6.34562 15C6.34562 17.2745 8.18758 19.125 10.4516 19.125C12.7156 19.125 14.5576 17.2745 14.5576 15C14.5576 12.7255 12.7156 10.875 10.4516 10.875ZM10.4516 16.875C9.4225 16.875 8.58525 16.0339 8.58525 15C8.58525 13.9661 9.4225 13.125 10.4516 13.125C11.4807 13.125 12.318 13.9661 12.318 15C12.318 16.0339 11.4807 16.875 10.4516 16.875Z" fill="#F0941D"/>
</g>
<defs>
<clipPath id="clip0_537_382">
<rect width="20.9032" height="24" fill="white"/>
</clipPath>
</defs>
</svg>
