<svg width="29" height="26" viewBox="0 0 29 26" fill="none" xmlns="http://www.w3.org/2000/svg">
<path d="M8.98628 19.2063L1.79929 19.2063C0.807521 19.2063 0.00305853 19.6873 0.00305848 20.2813L0.00305829 22.4313C0.00305824 23.0253 0.807521 23.5063 1.79929 23.5063L8.98628 23.5063C9.97872 23.5063 10.7832 23.0253 10.7832 22.4313L10.7832 20.2813C10.7832 19.6873 9.97872 19.2063 8.98628 19.2063Z" fill="#F0941D"/>
<path d="M1.08107 14.9072L9.70519 14.9072C10.3006 14.9072 10.7832 14.4259 10.7832 13.8322L10.7832 11.6822C10.7832 11.0884 10.3006 10.6071 9.70519 10.6071L1.08107 10.6071C0.485702 10.6071 0.00305877 11.0884 0.00305872 11.6822L0.00305853 13.8322C0.00305848 14.4259 0.485702 14.9072 1.08107 14.9072Z" fill="#F0941D"/>
<path d="M10.0131 2.00607L0.769788 2.00607C0.343973 2.00607 -0.000313556 2.48714 -0.000313608 3.08109L-0.000313796 5.23113C-0.000313848 5.82508 0.343972 6.30615 0.769788 6.30615L10.0131 6.30615C10.4382 6.30615 10.7832 5.82508 10.7832 5.23113L10.7832 3.08109C10.7832 2.48714 10.4382 2.00607 10.0131 2.00607Z" fill="#F0941D"/>
<path d="M16.3146 8.59947L19.5487 8.59947L19.5487 23.6498C19.5487 24.22 19.7758 24.7669 20.1802 25.1701C20.5845 25.5733 21.1329 25.7998 21.7047 25.7998C22.2765 25.7998 22.8249 25.5733 23.2293 25.1701C23.6336 24.7669 23.8607 24.22 23.8607 23.6498L23.8607 8.59947L27.0948 8.59947C28.0508 8.59947 28.5346 7.44114 27.8555 6.76455L22.4654 0.314424C22.2632 0.112971 21.9891 -0.000195748 21.7034 -0.000195773C21.4176 -0.000195798 21.1435 0.11297 20.9413 0.314424L15.5513 6.76455C14.8762 7.43979 15.3566 8.59947 16.3146 8.59947Z" fill="#F0941D"/>
</svg>
