<svg width="29" height="26" viewBox="0 0 29 26" fill="none" xmlns="http://www.w3.org/2000/svg">
<path d="M19.1866 6.59354H26.3736C27.3653 6.59354 28.1698 6.11247 28.1698 5.51852V3.36848C28.1698 2.77453 27.3653 2.29346 26.3736 2.29346H19.1866C18.1941 2.29346 17.3896 2.77453 17.3896 3.36848V5.51852C17.3896 6.11247 18.1941 6.59354 19.1866 6.59354Z" fill="#F0941D"/>
<path d="M27.0918 10.8926H18.4677C17.8723 10.8926 17.3896 11.3739 17.3896 11.9676V14.1176C17.3896 14.7114 17.8723 15.1927 18.4677 15.1927H27.0918C27.6872 15.1927 28.1698 14.7114 28.1698 14.1176V11.9676C28.1698 11.3739 27.6872 10.8926 27.0918 10.8926Z" fill="#F0941D"/>
<path d="M18.1598 23.7937H27.4031C27.8289 23.7937 28.1732 23.3127 28.1732 22.7187V20.5687C28.1732 19.9747 27.8289 19.4937 27.4031 19.4937H18.1598C17.7346 19.4937 17.3896 19.9747 17.3896 20.5687V22.7187C17.3896 23.3127 17.7346 23.7937 18.1598 23.7937Z" fill="#F0941D"/>
<path d="M11.8582 17.2003H8.62417V2.15004C8.62417 1.57981 8.39702 1.03294 7.99269 0.629733C7.58835 0.226522 7.03996 0 6.46814 0C5.89633 0 5.34793 0.226522 4.9436 0.629733C4.53926 1.03294 4.31211 1.57981 4.31211 2.15004V17.2003H1.07807C0.122004 17.2003 -0.361757 18.3587 0.317392 19.0353L5.70747 25.4854C5.90961 25.6868 6.18371 25.8 6.46949 25.8C6.75528 25.8 7.02937 25.6868 7.23152 25.4854L12.6216 19.0353C13.2967 18.36 12.8163 17.2003 11.8582 17.2003Z" fill="#F0941D"/>
</svg>
