<svg width="26" height="26" viewBox="0 0 26 26" fill="none" xmlns="http://www.w3.org/2000/svg">
<path d="M25.25 17.75H13.25C13.0511 17.75 12.8603 17.8224 12.7197 17.9514C12.579 18.0803 12.5 18.2552 12.5 18.4375V19.8125C12.5 19.9948 12.579 20.1697 12.7197 20.2986C12.8603 20.4276 13.0511 20.5 13.25 20.5H25.25C25.4489 20.5 25.6397 20.4276 25.7803 20.2986C25.921 20.1697 26 19.9948 26 19.8125V18.4375C26 18.2552 25.921 18.0803 25.7803 17.9514C25.6397 17.8224 25.4489 17.75 25.25 17.75ZM8.25002 18H6.00003V4.9375C6.00003 4.75516 5.92101 4.5803 5.78036 4.45136C5.63971 4.32243 5.44894 4.25 5.25003 4.25H3.75003C3.55112 4.25 3.36035 4.32243 3.2197 4.45136C3.07905 4.5803 3.00003 4.75516 3.00003 4.9375V18H0.750035C0.0848798 18 -0.251682 18.7408 0.220817 19.1735L3.97081 23.2985C4.11145 23.4273 4.30214 23.4997 4.50097 23.4997C4.69979 23.4997 4.89048 23.4273 5.03112 23.2985L8.78112 19.1735C9.2508 18.7416 8.91658 18 8.25002 18Z" fill="#848484"/>
<path d="M21.0292 8.75H18.7792V0.6875C18.7792 0.505164 18.7002 0.330295 18.5595 0.201364C18.4189 0.0724328 18.2281 0 18.0292 0H16.5292C16.3303 0 16.1395 0.0724328 15.9989 0.201364C15.8582 0.330295 15.7792 0.505164 15.7792 0.6875V8.75H13.5292C12.8641 8.75 12.5275 9.49078 13 9.92348L16.75 14.0485C16.8906 14.1773 17.0813 14.2497 17.2801 14.2497C17.479 14.2497 17.6697 14.1773 17.8103 14.0485L21.5603 9.92348C22.03 9.49164 21.6958 8.75 21.0292 8.75Z" fill="#848484"/>
<path d="M13.25 22.75H25.25C25.4489 22.75 25.6397 22.8224 25.7803 22.9514C25.921 23.0803 26 23.2552 26 23.4375V24.8125C26 24.9948 25.921 25.1697 25.7803 25.2986C25.6397 25.4276 25.4489 25.5 25.25 25.5H13.25C13.0511 25.5 12.8603 25.4276 12.7197 25.2986C12.579 25.1697 12.5 24.9948 12.5 24.8125V23.4375C12.5 23.2552 12.579 23.0803 12.7197 22.9514C12.8603 22.8224 13.0511 22.75 13.25 22.75Z" fill="#848484"/>
</svg>
