<svg width="28" height="24" viewBox="0 0 28 24" fill="none" xmlns="http://www.w3.org/2000/svg">
<g clip-path="url(#clip0_575_369)">
<path d="M27.3652 5.55937L24.4152 0.703125C24.1516 0.267187 23.6834 0 23.1834 0H4.81977C4.31977 0 3.85159 0.267187 3.58796 0.703125L0.637955 5.55937C-0.884772 8.06719 0.465228 11.5547 3.31068 11.9531C3.51523 11.9812 3.72432 11.9953 3.93341 11.9953C5.27886 11.9953 6.46977 11.3859 7.28796 10.4438C8.10614 11.3859 9.30159 11.9953 10.6425 11.9953C11.988 11.9953 13.1789 11.3859 13.997 10.4438C14.8152 11.3859 16.0107 11.9953 17.3516 11.9953C18.697 11.9953 19.888 11.3859 20.7061 10.4438C21.5289 11.3859 22.7198 11.9953 24.0607 11.9953C24.2743 11.9953 24.4789 11.9812 24.6834 11.9531C27.538 11.5594 28.8925 8.07187 27.3652 5.55937ZM24.0698 13.5C23.6152 13.5 23.1652 13.4297 22.7289 13.3219V18H5.27432V13.3219C4.83796 13.425 4.38796 13.5 3.93341 13.5C3.66068 13.5 3.38341 13.4812 3.11523 13.4437C2.86068 13.4062 2.61068 13.3453 2.36977 13.275V22.5C2.36977 23.3297 3.01977 24 3.82432 24H24.188C24.9925 24 25.6425 23.3297 25.6425 22.5V13.275C25.397 13.35 25.1516 13.4109 24.897 13.4437C24.6198 13.4812 24.347 13.5 24.0698 13.5Z" fill="white"/>
</g>
<defs>
<clipPath id="clip0_575_369">
<rect width="28" height="24" fill="white"/>
</clipPath>
</defs>
</svg>
