<svg width="35" height="35" viewBox="0 0 35 35" fill="none" xmlns="http://www.w3.org/2000/svg">
<path d="M17.5 0C7.83499 0 0 7.83499 0 17.5C0 27.165 7.83499 35 17.5 35C27.165 35 35 27.165 35 17.5C35 7.83499 27.165 0 17.5 0ZM17.5 3.3871C25.2996 3.3871 31.6129 9.69916 31.6129 17.5C31.6129 25.2996 25.3008 31.6129 17.5 31.6129C9.70036 31.6129 3.3871 25.3008 3.3871 17.5C3.3871 9.70036 9.69916 3.3871 17.5 3.3871ZM27.3934 12.5793L25.8032 10.9762C25.4739 10.6442 24.9377 10.642 24.6057 10.9714L14.6313 20.8657L10.4121 16.6123C10.0828 16.2803 9.5466 16.2781 9.2146 16.6074L7.61144 18.1977C7.27944 18.527 7.27725 19.0631 7.60664 19.3952L14.0126 25.853C14.3419 26.185 14.878 26.1872 15.21 25.8578L27.3887 13.7769C27.7206 13.4475 27.7228 12.9113 27.3934 12.5793Z" fill="#A1A1A1"/>
</svg>
