<svg width="29" height="29" viewBox="0 0 29 29" fill="none" xmlns="http://www.w3.org/2000/svg">
<g clip-path="url(#clip0_390_981)">
<path d="M16.7656 21.7521H12.2344C11.4811 21.7521 10.875 21.1461 10.875 20.3927V10.8771H5.90762C4.89941 10.8771 4.39531 9.65933 5.10898 8.94566L13.724 0.324951C14.1488 -0.0998536 14.8455 -0.0998536 15.2703 0.324951L23.891 8.94566C24.6047 9.65933 24.1006 10.8771 23.0924 10.8771H18.125V20.3927C18.125 21.1461 17.5189 21.7521 16.7656 21.7521ZM29 21.299V27.6427C29 28.3961 28.3939 29.0021 27.6406 29.0021H1.35938C0.606055 29.0021 0 28.3961 0 27.6427V21.299C0 20.5457 0.606055 19.9396 1.35938 19.9396H9.0625V20.3927C9.0625 22.1429 10.4842 23.5646 12.2344 23.5646H16.7656C18.5158 23.5646 19.9375 22.1429 19.9375 20.3927V19.9396H27.6406C28.3939 19.9396 29 20.5457 29 21.299ZM21.9766 26.2834C21.9766 25.6603 21.4668 25.1505 20.8438 25.1505C20.2207 25.1505 19.7109 25.6603 19.7109 26.2834C19.7109 26.9064 20.2207 27.4162 20.8438 27.4162C21.4668 27.4162 21.9766 26.9064 21.9766 26.2834ZM25.6016 26.2834C25.6016 25.6603 25.0918 25.1505 24.4688 25.1505C23.8457 25.1505 23.3359 25.6603 23.3359 26.2834C23.3359 26.9064 23.8457 27.4162 24.4688 27.4162C25.0918 27.4162 25.6016 26.9064 25.6016 26.2834Z" fill="white"/>
</g>
<defs>
<clipPath id="clip0_390_981">
<rect width="29" height="29" fill="white"/>
</clipPath>
</defs>
</svg>
