<svg xmlns="http://www.w3.org/2000/svg" width="17.75" height="15.779" viewBox="0 0 17.75 15.779">
  <path id="house-chimney-solid" d="M16.759,8.863a.994.994,0,0,0,.986-.989.844.844,0,0,0-.339-.74L15.779,5.7V1.972a.985.985,0,0,0-.986-.986h-.986a.985.985,0,0,0-.986.986V3.1L9.538.216A1.024,1.024,0,0,0,8.891,0a.889.889,0,0,0-.678.247L.308,7.135A1,1,0,0,0,0,7.874a.976.976,0,0,0,.986.989h.986v2.148a.779.779,0,0,0,0,.086v3.449A1.232,1.232,0,0,0,3.2,15.779H3.7c.037,0,.074,0,.111-.006s.092.006.139.006H5.671A1.232,1.232,0,0,0,6.9,14.546V11.834a.985.985,0,0,1,.986-.986H9.862a.985.985,0,0,1,.986.986v2.712a1.232,1.232,0,0,0,1.233,1.233h1.741c.043,0,.086,0,.129,0s.068,0,.1,0h.493a1.232,1.232,0,0,0,1.233-1.233v-.5a2.172,2.172,0,0,0,.015-.25L15.773,8.86h.986Z" fill="#555"/>
</svg>
