<?xml version="1.0" encoding="utf-8"?>
<!-- Generator: Adobe Illustrator 27.7.0, SVG Export Plug-In . SVG Version: 6.00 Build 0)  -->
<svg version="1.1" id="圖層_1" xmlns="http://www.w3.org/2000/svg" xmlns:xlink="http://www.w3.org/1999/xlink" x="0px" y="0px"
	 viewBox="0 0 13 17.3" style="enable-background:new 0 0 13 17.3;" xml:space="preserve">
<style type="text/css">
	.st0{fill:#FFFFFF;}
</style>
<g transform="matrix(1, 0, 0, 1, 0, 0)">
	<path id="location-dot-solid_1_2" class="st0" d="M7.3,16.9C9,14.7,13,9.5,13,6.5C13,2.9,10.1,0,6.5,0S0,2.9,0,6.5c0,0,0,0,0,0
		c0,3,4,8.2,5.7,10.4c0.3,0.4,1,0.5,1.4,0.2C7.2,17,7.2,17,7.3,16.9z M6.5,4.3c1.2,0,2.2,1,2.2,2.2s-1,2.2-2.2,2.2s-2.2-1-2.2-2.2
		l0,0C4.3,5.3,5.3,4.3,6.5,4.3z"/>
</g>
</svg>
