<svg id="Group_148" data-name="Group 148" xmlns="http://www.w3.org/2000/svg" xmlns:xlink="http://www.w3.org/1999/xlink" width="48.58" height="48.581" viewBox="0 0 48.58 48.581">
  <defs>
    <clipPath id="clip-path">
      <rect id="Rectangle_144" data-name="Rectangle 144" width="48.58" height="48.581" transform="translate(0 0)" fill="none"/>
    </clipPath>
  </defs>
  <g id="Group_147" data-name="Group 147" clip-path="url(#clip-path)">
    <path id="Path_378" data-name="Path 378" d="M46.629,14.757h0v0A24.373,24.373,0,0,0,28.845.434h0c-.46-.088-.925-.161-1.394-.222L27.372.2a24,24,0,0,0-9.51.668h0a24.391,24.391,0,0,0-16.1,14.363h0a24.236,24.236,0,0,0,.193,18.589h0c.222.518.465,1.023.721,1.522a24.36,24.36,0,0,0,17.063,12.8h0q.691.131,1.4.222l.073.009A24.282,24.282,0,0,0,46.629,14.757M24.9,13.54,24.764,4.2a25.257,25.257,0,0,1,8.1,9.229Zm8.687,1.407a24.886,24.886,0,0,1,1.993,8.412l-10.534.153-.123-8.438Zm-8.519,10.1,10.56-.154a24.9,24.9,0,0,1-1.5,8.463l-8.938.13ZM35.242,14.923l7.531-.109a20.6,20.6,0,0,1,2.254,8.408l-7.913.115a26.4,26.4,0,0,0-1.872-8.414m1.92,9.947,7.9-.115a20.62,20.62,0,0,1-2.023,8.47l-7.274.106a26.454,26.454,0,0,0,1.4-8.461M41.9,13.293,34.57,13.4a26.772,26.772,0,0,0-7.989-9.766A20.793,20.793,0,0,1,41.9,13.293M11.467,25.244a26.4,26.4,0,0,0,1.872,8.413l-7.532.11a20.638,20.638,0,0,1-2.254-8.408ZM3.523,23.826a20.619,20.619,0,0,1,2.022-8.47l7.274-.106a26.453,26.453,0,0,0-1.4,8.461ZM13,25.221l10.535-.153.123,8.439-8.664.126A24.881,24.881,0,0,1,13,25.221m-.048-1.533a24.946,24.946,0,0,1,1.5-8.462l8.938-.13.123,8.439ZM23.68,35.04l.136,9.346a25.241,25.241,0,0,1-8.1-9.23ZM23.221,3.554l.146,10.009-8.3.121A25.231,25.231,0,0,1,23.192,3.555h.029M13.394,13.708l-7.03.1A20.824,20.824,0,0,1,20.353,3.885a26.738,26.738,0,0,0-6.959,9.823M6.679,35.288l7.331-.107A26.756,26.756,0,0,0,22,44.947a20.791,20.791,0,0,1-15.32-9.659m18.68,9.739-.146-10.009,8.3-.121a25.228,25.228,0,0,1-8.125,10.128l-.03,0m9.827-10.154,7.031-.1A20.832,20.832,0,0,1,28.228,44.7a26.736,26.736,0,0,0,6.958-9.823" fill="#fff"/>
  </g>
</svg>
