<svg id="Group_146" data-name="Group 146" xmlns="http://www.w3.org/2000/svg" xmlns:xlink="http://www.w3.org/1999/xlink" width="52" height="42.43" viewBox="0 0 52 42.43">
  <defs>
    <clipPath id="clip-path">
      <rect id="Rectangle_143" data-name="Rectangle 143" width="52" height="42.43" transform="translate(0 0)" fill="none"/>
    </clipPath>
  </defs>
  <g id="Group_145" data-name="Group 145" clip-path="url(#clip-path)">
    <path id="Path_377" data-name="Path 377" d="M8.119,17.812a37.233,37.233,0,0,1,.416-4.245C9.866,7.357,13.746,3.316,19.594,1.152A18.461,18.461,0,0,1,40.846,7.4,15.4,15.4,0,0,1,43.795,16.5c0,.4,0,.806,0,1.3H45.56A6.119,6.119,0,0,1,52,24.24q0,1.794,0,3.588A6.14,6.14,0,0,1,45.61,34.2c-.573,0-1.146,0-1.753,0-.065.633-.076,1.23-.194,1.805a6.451,6.451,0,0,1-6.11,5.019c-.341.013-.684.018-1.025.005a2.947,2.947,0,0,0-2.44.722,3.2,3.2,0,0,1-1.951.625c-1.791.083-3.587.052-5.381.023a3.42,3.42,0,1,1,.018-6.84c1.772-.026,3.545-.012,5.318,0a3.4,3.4,0,0,1,2.58,1.084c.11.117.267.27.4.269a17.9,17.9,0,0,0,2.869-.109,2,2,0,0,0,1.748-2.238c0-5.743-.12-11.49.032-17.23C39.916,10.013,34.442,5.37,28.808,4.4A14.191,14.191,0,0,0,15.7,8.38c-2.56,2.553-3.433,5.721-3.376,9.286.086,5.379.02,10.761.016,16.142a2.583,2.583,0,0,1-.041.327,1.07,1.07,0,0,1-.25.064c-2.007,0-4.016.054-6.022-.008a5.984,5.984,0,0,1-5.929-5.61,33.1,33.1,0,0,1,.042-5.5,5.946,5.946,0,0,1,5.706-5.265c.764-.032,1.53,0,2.277,0m.075,4.095c-.7,0-1.342-.015-1.979,0a2.018,2.018,0,0,0-2.056,1.956c-.052,1.407-.046,2.818-.005,4.226a1.962,1.962,0,0,0,1.714,1.947,20.89,20.89,0,0,0,2.326.017Zm35.662.02V30.1c.511,0,.977,0,1.442,0a5.919,5.919,0,0,0,.766-.031,2.044,2.044,0,0,0,1.814-2q.06-2.079,0-4.16a2,2,0,0,0-1.766-1.968c-.737-.061-1.482-.012-2.256-.012" fill="#fff"/>
  </g>
</svg>
