<svg xmlns="http://www.w3.org/2000/svg" width="20" height="15" viewBox="0 0 20 15">
  <path id="Path_285" data-name="Path 285" d="M3,35.71a.627.627,0,0,0-.625.625V37.2L9.114,42.73a2.186,2.186,0,0,0,2.778,0L18.626,37.2v-.863A.627.627,0,0,0,18,35.71Zm-.625,3.914v6.711A.627.627,0,0,0,3,46.96H18a.627.627,0,0,0,.625-.625V39.624l-5.547,4.555a4.063,4.063,0,0,1-5.156,0ZM.5,36.335a2.5,2.5,0,0,1,2.5-2.5H18a2.5,2.5,0,0,1,2.5,2.5v10a2.5,2.5,0,0,1-2.5,2.5H3a2.5,2.5,0,0,1-2.5-2.5Z" transform="translate(-0.501 -33.835)" fill="#38a1db"/>
</svg>
