<svg xmlns="http://www.w3.org/2000/svg" width="24.5" height="24.5" viewBox="0 0 24.5 24.5">
  <path id="headset-solid" d="M12.25,2.3A9.952,9.952,0,0,0,2.3,12.25v1.914a1.148,1.148,0,1,1-2.3,0V12.25a12.25,12.25,0,0,1,24.5,0v6.9a4.212,4.212,0,0,1-4.216,4.211l-5.278,0A2.3,2.3,0,0,1,13.016,24.5H11.484a2.3,2.3,0,0,1,0-4.594h1.531a2.3,2.3,0,0,1,1.991,1.148l5.283,0A1.914,1.914,0,0,0,22.2,19.145v-6.9A9.952,9.952,0,0,0,12.25,2.3ZM6.891,9.953h.766a1.53,1.53,0,0,1,1.531,1.531v5.359a1.53,1.53,0,0,1-1.531,1.531H6.891a3.065,3.065,0,0,1-3.062-3.062v-2.3A3.065,3.065,0,0,1,6.891,9.953Zm10.719,0a3.065,3.065,0,0,1,3.063,3.063v2.3a3.065,3.065,0,0,1-3.062,3.062h-.766a1.53,1.53,0,0,1-1.531-1.531V11.484a1.53,1.53,0,0,1,1.531-1.531Z" fill="#fff"/>
</svg>
