<?xml version="1.0" encoding="UTF-8"?>
<svg id="_圖層_1" data-name="圖層 1" xmlns="http://www.w3.org/2000/svg" viewBox="0 0 300 300">
  <defs>
    <style>
      .cls-1 {
        fill: #090405;
      }

      .cls-2 {
        fill: #817f7f;
      }

      .cls-3 {
        fill: #f4a817;
      }

      .cls-4 {
        fill: #0a0405;
      }

      .cls-5 {
        fill: #514e50;
      }
    </style>
  </defs>
  <path class="cls-3" d="m100.18,53.76c3.54-6.07-9.22,57.02-9.22,57.02l.72,9.2,7.83,16.68,4.84-1.16,2.01-13.98s10.07-18.14,18.12-11.1c0,0,8.79-3.12,8.78,25.73l86,3.63,7.61-21.59-8.25-68.21-118.44,3.78Z"/>
  <g>
    <path class="cls-4" d="m201.43,142.23c1.17,1.94,2.29,3.85,3.47,5.72,4.47,7.11,8.24,14.57,11.22,22.44.95,2.5.42,4.85-.21,7.15-1.84,6.75-3.66,13.53-5.95,20.14-2.2,6.35-4.91,12.53-7.52,18.73-1.54,3.66-3.2,7.28-5.02,10.8-3.27,6.32-6.68,12.56-10.07,18.82-1.5,2.76-3.12,5.45-4.58,8.23-.4.76-.57,1.7-.61,2.58-.22,4.08-.35,8.17-.52,12.26-.08,1.98-.2,3.96-.24,5.94-.04,1.68-1.37,2.93-3.23,2.94-1.74.02-3.01-1.12-2.99-2.78.05-3.86.11-7.71.24-11.57.11-3.18.27-6.35.52-9.52.06-.81.43-1.64.84-2.36,2.38-4.27,4.86-8.49,7.2-12.78,2.63-4.81,5.35-9.58,7.68-14.53,3.75-8,7.39-16.06,10.73-24.23,3.43-8.38,5.91-17.1,7.77-25.97.24-1.12-.3-2.5-.76-3.65-3.05-7.77-7.04-15.04-11.58-22.02-1.24-1.9-2.49-3.8-3.79-5.66-.24-.34-.76-.65-1.16-.66-7.83-.09-15.67-.14-23.5-.19-1.44,0-2.89,0-4.65,0,1.02,1.65,1.87,3,2.7,4.36,3.57,5.77,7.15,11.54,10.71,17.32.89,1.45,1.86,2.88,2.52,4.43.74,1.74-.27,3.43-2.12,3.79-4.13.79-8.28,1.51-12.42,2.27-3.26.6-6.53,1.16-9.78,1.83-1.98.41-3.71-.56-4.07-2.44-.35-1.88,1.05-3.59,2.99-3.9,3.58-.58,7.15-1.28,10.73-1.91,1.75-.31,3.51-.6,5.28-.82.98-.12,1.13-.51.64-1.3-3.31-5.32-6.63-10.64-9.92-15.97-.48-.78-.94-.94-1.78-.42-7.07,4.39-14.15,8.74-21.24,13.09-.48.3-1.01.53-1.63.85,0,3.81.01,7.63,0,11.46,0,.95-1.27,2.47-3.16,2.5-1.47.03-2.77-.98-2.84-2.48-.12-2.58-.06-5.16-.06-7.74,0-13.12.04-26.25-.02-39.37-.01-2.73-.1-5.52-.7-8.16-.82-3.64-4.5-6.46-8.05-7.04-3.65-.59-6.63.48-9.08,3.01-1.92,1.98-2.98,4.45-2.98,7.31.04,24.24.16,48.49.04,72.73-.02,5.17.92,10.09,2.06,15.05,1.17,5.09,2.25,10.2,3.39,15.29.59,2.64,1.23,5.27,1.83,7.91,1.13,4.93,2.27,9.86,3.35,14.8.21.95.25,1.96.28,2.94.17,6.85.32,13.7.45,20.55.02,1.31-.07,2.64-.22,3.94-.04.39-.42.75-.67,1.1-.85,1.2-2.16,1.12-3.28.85-1.07-.25-1.8-1.2-1.97-2.39-.11-.76-.25-1.53-.25-2.3-.03-3.92.02-7.83-.03-11.75-.03-3.02.08-6.08-.31-9.06-.48-3.72-1.36-7.4-2.16-11.08-1.03-4.75-2.14-9.49-3.21-14.23-1.26-5.56-2.34-11.17-3.81-16.68-1.89-7.06-1.49-14.23-1.57-21.38-.03-2.7,0-5.41,0-8.17-1.39-.13-2.8-.26-4.21-.4-3.19-.32-5.95-1.66-8.4-3.68-3.2-2.64-5.16-6.07-5.86-10.13-.82-4.77.37-9.11,3.33-12.93,2.34-3.03,5.63-4.9,8.66-7.07,1.75-1.26,3.55-2.45,5.32-3.69.16-.11.21-.37.37-.67-.36-.04-.59-.09-.83-.1-4.18-.05-8.37-.12-12.55-.14-1.57,0-3.15.03-4.71.18-2.29.21-4.1-.76-5.55-2.33-5.09-5.49-9.08-11.69-11.38-18.88-.94-2.92-1.6-5.96-1.36-9.01.23-2.86.84-5.7,1.53-8.49,2.15-8.7,4.41-17.38,6.64-26.07.57-2.22,1.13-4.45,1.77-6.65.21-.71-.03-.94-.56-1.35-4.03-3.12-6.16-7.28-5.38-12.34.82-5.29,4.43-9.88,10.29-10.9.93-.16,1.88-.23,2.82-.24,40.98-.08,81.96-.15,122.95-.2,3.31,0,6.62.02,9.92.21,5.46.31,10.13,4.68,11.32,9.38,1.16,4.6.2,8.64-2.81,12.23-.37.44-.76.95-1.26,1.2-1.36.68-1.52,1.71-1.17,3.03,1.33,4.96,2.67,9.92,3.93,14.9,1.77,6.97,3.61,13.92,5.17,20.94,1.04,4.68.49,9.39-.98,13.94-1.97,6.12-5.32,11.43-9.44,16.31-1.34,1.58-2.53,3.33-4.66,3.85-1.25.31-2.57.41-3.86.43-3.93.05-7.86.02-11.98.02Zm-97.06,8.7c0-1.16-.75-.53-1.07-.36-.84.48-1.61,1.08-2.38,1.65-2.05,1.52-4.34,2.82-6.09,4.64-4.56,4.75-3.46,12.12,1.7,15.65,2.04,1.4,4.26,1.87,6.67,1.71.74-.05,1.11-.43,1.17-1.13.04-.5.04-1,.04-1.5-.03-6.78-.07-13.55-.1-20.33.02-.11.04-.23.07-.34Zm-.02-15.43c0-4.09-.01-8.04,0-11.98,0-1.54-.21-3.16.18-4.6.98-3.55,2.69-6.68,5.63-9.13,4.66-3.89,9.86-4.73,15.53-3.1,7.07,2.03,11.65,8.61,11.71,15.79.02,2.62.02,5.25.03,7.87,0,1.67,0,3.34,0,5.1.41.02.82.05,1.22.05,24.35,0,48.71-.03,73.06.07,2.51.01,4.22-.57,5.79-2.66,2.98-3.96,5.75-7.98,7.35-12.73,1.24-3.67,1.84-7.43,1.01-11.21-1.1-5-2.49-9.93-3.75-14.9-1.79-7-3.59-14-5.37-21-1.62-6.36-3.21-12.73-4.8-19.06h-123.85c-.7,2.76-1.39,5.47-2.08,8.19-1.58,6.21-3.16,12.42-4.73,18.64-2,7.96-4,15.92-5.97,23.89-.55,2.24-1.25,4.48-1.44,6.76-.26,3.23.44,6.37,1.62,9.44,2.01,5.21,5.06,9.7,8.74,13.82.35.39,1.03.68,1.56.69,5.39.06,10.79.04,16.18.05.69,0,1.39,0,2.36,0Zm33.12,20.24c2.48-1.49,4.89-2.92,7.27-4.37,2.38-1.45,4.76-2.91,7.11-4.41,2.32-1.48,4.76-2.77,6.89-4.65-6.88-.27-13.68-.28-20.47-.23-.27,0-.76.52-.76.8-.05,4.17-.03,8.35-.03,12.87Z"/>
    <path class="cls-2" d="m104.31,151.28c.02-.11.04-.23.07-.34-.02.11-.04.23-.07.34Z"/>
    <path class="cls-1" d="m146.53,75.48c-.86.74-1.75,1.44-2.57,2.23-.65.63-1.17,1.39-1.8,2.04-2.02,2.13-4.07,4.24-6.1,6.37-.93.97-2.1,1.29-3.34,1.05-1.41-.28-2.17-1.53-2.29-2.75-.09-.87.51-1.99,1.13-2.7,1.79-2.07,3.76-3.97,5.62-5.97,3.41-3.66,6.8-7.34,10.21-11.01,1.1-1.18,3.7-1.55,5.05-.06,3.62,3.98,7.39,7.83,11.08,11.75,1.86,1.98,3.73,3.96,5.49,6.03.87,1.02.61,3.02-.27,3.89-1.06,1.04-2.78,1.23-3.99.29-1.07-.83-2.06-1.78-2.99-2.77-2.78-2.94-5.51-5.93-8.52-9.19v1.56c0,11.7,0,23.41,0,35.11,0,2.46-1.07,3.68-3.13,3.88-1.3.12-2.77-.94-3.09-2.45-.14-.65-.2-1.32-.2-1.98-.01-11.29,0-22.58,0-33.86,0-.33.05-.66.08-.99.02-.2.04-.4.05-.6-.14.04-.29.09-.43.13Z"/>
    <path class="cls-5" d="m117.58,75.48c.14-.04.29-.09.43-.13-.02.2-.04.4-.05.6l-.37-.47Z"/>
  </g>
</svg>