<?xml version="1.0" encoding="UTF-8"?>
<svg id="_圖層_1" data-name="圖層 1" xmlns="http://www.w3.org/2000/svg" xmlns:xlink="http://www.w3.org/1999/xlink" viewBox="0 0 300 300">
  <defs>
    <style>
      .cls-1 {
        fill: #090405;
      }

      .cls-2 {
        fill: #0a0506;
      }

      .cls-3 {
        fill: #f4a817;
      }

      .cls-4 {
        fill: #888585;
      }

      .cls-5 {
        fill: #6e6a69;
      }

      .cls-6 {
        fill: #2188be;
      }

      .cls-7, .cls-8 {
        fill: none;
      }

      .cls-8 {
        clip-path: url(#clippath);
      }
    </style>
    <clipPath id="clippath">
      <rect class="cls-7" x="96.05" y="106.26" width="74.4" height="21.58"/>
    </clipPath>
  </defs>
  <rect class="cls-6" x="81.21" y="203.71" width="102.4" height="13.64"/>
  <rect class="cls-6" x="81.21" y="49.43" width="102.4" height="13.64"/>
  <g>
    <path class="cls-2" d="m228.88,242.24c-.1-1.06-.29-2.12-.3-3.18-.01-16.58,0-33.16,0-49.74,0-3.33-.03-6.65-.12-9.98-.14-5.07-1.38-9.82-4.78-13.71-1.98-2.26-4.24-4.28-6.37-6.41-1.49-1.49-2.95-3-4.45-4.47-5.69-5.57-11.41-11.11-17.1-16.68-1.62-1.59-3.21-3.22-4.82-4.82-.28-.28-.57-.54-1.07-1,0,.69,0,1.08,0,1.48,0,6.79.02,13.58-.02,20.37,0,1.04.31,1.8,1.04,2.53,6.42,6.4,12.81,12.82,19.2,19.25,1.64,1.65,1.73,3.65.21,4.95-1.09.94-2.87,1.25-4.11,0-9.18-9.33-18.45-18.59-27.69-27.86-1.34-1.35-2.63-2.78-4.14-3.92-3.28-2.48-8.79-1.77-10.43,3.01-.96,2.8-.17,5.02,1.8,7,7.24,7.27,14.48,14.55,21.73,21.82,1.39,1.39,1.78,2.83.98,4.77-1.62,3.94-2.04,8.18-1.47,12.32.61,4.48,2.98,8.13,7.13,10.26,1.76.9,3.65,1.57,5.51,2.24,2.21.79,2.94,1.95,2.45,4.21-.2.93-1.37,1.72-2.51,1.83-1.9.19-3.59-.52-5.25-1.22-1.54-.64-3-1.46-4.64-2.28-.25.94-.48,1.93-.79,2.89-1.98,6.14-7.41,10.76-13.65,11.77-2.99.49-6.08.33-9.44.47.68.88,1.24,1.74,1.94,2.47,2.19,2.32,4.88,3.94,7.69,5.38.84.43,1.67.87,2.51,1.3-.37.46-.72.93-1.11,1.38-.42.49-.92.91-1.29,1.43-.49.69-.9,1.44-1.34,2.17-6.26-2.81-11.73-6.56-14.88-12.96-.48-.98-1.06-1.34-2.2-1.34-20.33.04-40.65,0-60.98.06-5.03.02-9.36-1.65-12.87-5.09-2.85-2.79-4.82-6.23-5.15-10.38-.09-1.19-.21-2.37-.21-3.56-.01-50.24,0-100.48-.03-150.72,0-4.47.93-8.54,3.68-12.13,2.75-3.59,6.32-5.82,10.75-6.68.19-.04.33-.31.49-.48,26.89,0,53.78,0,80.66,0,.5.08,1,.17,1.5.25,1.24.38,2.51.68,3.72,1.15,4.13,1.61,7.16,4.46,9.24,8.4,1.5,2.84,1.96,5.88,1.97,9.01.02,21.36.02,42.73-.02,64.09,0,1.31.45,2.19,1.33,3.03,3.23,3.11,6.43,6.24,9.64,9.36,4.55,4.42,9.11,8.82,13.63,13.26,2.75,2.7,5.45,5.46,8.17,8.19,1.92,1.93,3.96,3.76,5.76,5.8,3.23,3.67,5.21,7.98,5.81,12.85.29,2.36.49,4.76.49,7.14.04,19.28.02,38.56.02,57.85,0,.29-.02.58-.03.87-1.11.04-2.21.14-2.83-1.17-.18-.37-.9-.86-1.14-.75-.42.18-.92.79-.91,1.21.02,1.05-.3,1.91-.89,2.72Zm-45.08-93.32c0-1.46.02-2.91.01-4.37-.05-25.79-.12-51.57-.14-77.36,0-1.26-.41-1.52-1.56-1.52-31.08.02-62.16.02-93.23.01-1.48,0-2.97,0-4.51,0v135.57c.79,0,1.53,0,2.26,0,29.54,0,59.09,0,88.63.01.8,0,1.64.11,2.4.37,1.37.47,1.91,2.06,1.5,4.03-.22,1.02-1.51,1.81-3.01,1.81-28.8,0-57.59,0-86.39,0-1.81,0-3.61,0-5.35,0,0,1.88-.3,3.64.05,5.26,1.17,5.39,5.85,9,11.44,8.99,1.77,0,3.54-.19,5.31-.19,23.78-.01,47.55,0,71.33,0,3.78,0,6.71-1.67,8.95-4.72,1.3-1.77,1.94-3.77,2.11-5.86.18-2.21.22-4.42-1.03-6.5-1.81-3.03-2.17-6.54-2.08-9.94.07-2.89.81-5.78,1.37-8.64.2-1,.2-1.72-.64-2.42-1.11-.92-2.16-1.93-3.17-2.96-6.02-6.12-12.08-12.2-17.99-18.42-1.82-1.92-2.68-4.5-2.77-7.17-.16-4.48,1.57-8.12,5.11-10.96,3.18-2.55,6.78-2.81,10.53-2.29,3.43.48,5.85,2.74,8.18,5.1.79.8,1.7,1.49,2.55,2.23.05-.02.1-.03.14-.05Zm-.05-89.45c-.12-1.69-.12-3.23-.36-4.72-.8-4.96-5.42-9.26-10.59-9.26-25.97,0-51.94,0-77.91.01-.91,0-1.84.2-2.72.47-5.95,1.83-8.86,7.34-7.7,13.5h99.28Z"/>
    <path class="cls-5" d="m174.94,39.23c-.5-.08-1-.17-1.5-.25.58,0,1.16,0,1.74,0-.08.08-.16.17-.25.25Z"/>
    <path class="cls-1" d="m174.19,242.25c.44-.73.85-1.48,1.34-2.17.37-.52.87-.95,1.29-1.43.39-.45.74-.92,1.11-1.38,2.57.44,3.43,2.46,4.28,4.57,2.53,6.29,5.12,12.55,7.7,18.82,1.79,4.34,3.65,8.65,5.36,13.01.33.85.31,1.95.11,2.86-.21.95-1.01,1.62-2.07,1.69-1.2.08-2.45.08-3.05-1.24-1.07-2.32-2.09-4.67-3.08-7.03-1.75-4.18-3.47-8.37-5.2-12.55-1.84-4.45-3.66-8.91-5.53-13.35-.18-.42-.61-.77-.99-1.07-.38-.3-.84-.49-1.27-.73Z"/>
    <path class="cls-1" d="m228.88,242.24c.58-.81.91-1.67.89-2.72,0-.42.5-1.03.91-1.21.24-.11.97.38,1.14.75.62,1.31,1.72,1.21,2.83,1.17,1.41,3.53,2.8,7.07,4.23,10.6,2.1,5.18,4.22,10.36,6.34,15.53,1.04,2.53,2.15,5.03,3.15,7.58.68,1.73.03,3.48-1.37,4.09-1.6.7-3.28.11-4.1-1.69-1.4-3.07-2.67-6.2-3.95-9.31-2.11-5.12-4.19-10.26-6.27-15.39-1.27-3.13-2.53-6.27-3.8-9.4Z"/>
    <path class="cls-4" d="m183.66,148.97l.05-.08.09.03s-.1.03-.14.05Z"/>
    <path class="cls-2" d="m133.87,55.98c-3.02,0-6.05.07-9.06-.03-1.57-.05-2.57-1.22-2.65-2.69-.09-1.81.66-2.91,2.29-3.32.48-.12.98-.16,1.47-.16,4.4,0,8.79-.02,13.19.01,1.48,0,2.96.1,4.44.2,1.06.07,2,1.19,2.25,2.59.17.95-.55,2.41-1.43,2.9-1.82,1.02-3.82.73-5.77.75-1.57.02-3.15,0-4.72,0,0-.08,0-.16,0-.25Z"/>
    <g class="cls-8">
      <g id="Group_1" data-name="Group 1">
        <path id="Path_1" data-name="Path 1" class="cls-6" d="m110.97,117.77l-4.25,9.89h-2.82l-.67-3.94c-.15-.85-.23-1.7-.22-2.56-.22.8-.49,1.59-.82,2.36l-1.69,4.15h-2.68l-1.76-9.89h2.52l.62,3.71c.19,1.07.31,2.16.35,3.25.24-.87.33-1.13.42-1.36l.39-.95,1.87-4.64h2.37l.72,4.25c.14.89.24,1.79.28,2.7.13-.5.3-.99.49-1.47l.3-.74,1.87-4.74h2.71Z"/>
        <path id="Path_2" data-name="Path 2" class="cls-6" d="m113.9,121.03l-.82,6.63h-2.45l.82-6.63h2.45Zm-.99-4.09c.74,0,1.33.6,1.33,1.33s-.6,1.33-1.33,1.33-1.33-.6-1.33-1.33c0-.73.59-1.33,1.32-1.33,0,0,0,0,.01,0"/>
        <path id="Path_3" data-name="Path 3" class="cls-6" d="m121.65,117.77l-.27,2.18h-3.13l-.21,1.68h2.85l-.27,2.16h-2.85l-.47,3.87h-2.51l1.22-9.89h5.63Z"/>
        <path id="Path_4" data-name="Path 4" class="cls-6" d="m124.94,121.03l-.82,6.63h-2.45l.82-6.63h2.45Zm-.99-4.09c.74,0,1.33.6,1.33,1.33s-.6,1.33-1.33,1.33c-.74,0-1.33-.6-1.33-1.33,0-.73.59-1.33,1.32-1.33,0,0,0,0,.01,0"/>
        <path id="Path_5" data-name="Path 5" class="cls-3" d="m136.75,122.21v.19c0,3.25-2.16,5.44-5.37,5.44s-5.39-2.02-5.39-4.99,2.31-5.28,5.59-5.28c2.99,0,5.05,1.84,5.17,4.64m-2.58.28c0-1.41-1.14-2.55-2.54-2.55-.05,0-.1,0-.15,0-1.53-.08-2.84,1.1-2.92,2.63,0,.06,0,.12,0,.19,0,1.63,1.11,2.71,2.77,2.71,1.49.09,2.77-1.04,2.86-2.53,0-.09,0-.18,0-.27,0-.06,0-.12-.01-.18"/>
        <path id="Path_6" data-name="Path 6" class="cls-3" d="m142.4,119.95l-.96,7.71h-2.49l.95-7.71h-2.11l.27-2.18h6.72l-.27,2.18h-2.11Z"/>
        <path id="Path_7" data-name="Path 7" class="cls-6" d="m160.94,122.22c.45-1.02.72-2.11.78-3.23h-3.75v1.59c-.36-.24-.67-.44-.97-.65-.05-.03-.07-.14-.07-.21,0-.23,0-.46,0-.74-.26-.01-.52,0-.78,0-.34.04-.68-.08-.92-.32-.28-.23-.56-.48-.82-.74h2.5v-3.82c-.09,0-.17-.02-.26-.02-.71,0-1.43,0-2.15,0-.16-.02-.31.07-.37.23-.37.75-.64,1.54-.8,2.35-.02.09-.05.18-.08.33-.29-.29-.57-.54-.82-.82-.04-.08-.04-.16-.01-.24.19-.6.39-1.2.59-1.84h-.69c-.19,0-.37,0-.56,0-.33-.01-.67-.05-.82.43-.23-.33-.43-.6-.61-.89-.03-.05.03-.18.07-.25,2.79-3.88,8.2-4.77,12.08-1.98,1.96,1.41,3.25,3.57,3.54,5.97.28,2.09-.23,4.2-1.43,5.93-.05.07-.17.15-.24.14-1.19-.27-2.35-.68-3.44-1.22m-2.94-8.13c-.01.05-.02.1-.03.15,0,1.16,0,2.32,0,3.48,0,.19.09.19.23.19,1.09,0,2.18,0,3.27,0,.08,0,.15-.01.25-.02,0-.14-.01-.27-.02-.39-.11-1.11-.43-2.19-.93-3.19-.05-.15-.2-.25-.36-.23-.35.02-.7,0-1.04,0h-1.37m7.02,3.82s.01-.07.01-.1c0-.06,0-.11,0-.17-.13-1.1-.48-2.17-1.05-3.13-.13-.31-.45-.49-.78-.44-.44.04-.88,0-1.37,0,.55,1.2.87,2.5.95,3.82h2.24Zm-3.08,4.65c.6,0,1.14,0,1.69,0,.15.02.3-.07.36-.2.49-.83.82-1.73.98-2.68.04-.22.05-.45.08-.68h-2.27c-.07,1.23-.35,2.43-.84,3.56m-3.97-11.55c0,.67,0,1.28,0,1.89,0,.05.07.14.12.14.61,0,1.22,0,1.9,0-.56-.78-1.24-1.47-2.02-2.04m-3.04,2.02h1.97v-2.01c-.76.56-1.42,1.24-1.97,2.01m-2.83.02c.53,0,.98,0,1.43,0,.07,0,.15-.08.2-.14.28-.37.55-.74.83-1.11.13-.17.28-.32.42-.49-1.09.34-2.07.94-2.88,1.75m10.67,0c-.59-.7-2.27-1.72-2.79-1.74.39.53.8,1.08,1.22,1.63.05.06.11.1.19.11.45,0,.89,0,1.38,0"/>
        <path id="Path_8" data-name="Path 8" class="cls-6" d="m167.07,119.52c.79,1.13,1.47,2.24,1.65,3.57.2,1.31-.7,2.54-2.01,2.75-.01,0-.02,0-.03,0-1.15.17-2.33.07-3.44-.29-2.14-.63-4.19-1.56-6.08-2.76-2.56-1.53-4.89-3.4-6.93-5.57-1.07-1.09-1.95-2.36-2.61-3.74-.34-.67-.49-1.41-.43-2.16.11-1.12,1-2.01,2.12-2.12,1.15-.14,2.31-.04,3.41.31.18.05.35.1.53.16-.56.36-1.09.71-1.64,1.05-.12.04-.26.05-.38.03-.45-.02-.91-.1-1.36-.08-1.01.04-1.37.55-1.1,1.53.28.89.72,1.72,1.3,2.45,1.14,1.51,2.46,2.86,3.93,4.04,2.27,1.91,4.8,3.47,7.51,4.66,1.28.6,2.66.96,4.07,1.05.33.01.66-.03.98-.11.44-.08.73-.49.65-.93,0-.04-.02-.08-.03-.12-.12-.5-.34-.97-.5-1.46-.04-.13-.06-.26-.04-.4.11-.56.24-1.12.36-1.67,0-.04.02-.08.05-.19"/>
        <path id="Path_9" data-name="Path 9" class="cls-3" d="m168.42,108.28c-1.19-1.19-2.77-1.91-4.44-2.02l-.16,1.34c2.97.17,5.3,2.63,5.3,5.6h1.35c0-1.85-.73-3.62-2.04-4.92"/>
        <path id="Path_10" data-name="Path 10" class="cls-3" d="m163.63,109.04l-.16,1.27v.08s.02,0,.02,0c1.56,0,2.82,1.26,2.82,2.82,0,0,0,0,0,0h1.35c0-2.25-1.78-4.09-4.03-4.16"/>
        <path id="Path_11" data-name="Path 11" class="cls-3" d="m149.81,124.14h2.3c-.26.96-1.16,1.61-2.15,1.54-1.51,0-2.59-1.14-2.59-2.74,0-1.85,1.2-3.25,2.77-3.25,1.08,0,1.82.53,2.31,1.62l1.6-.62c-1.24-.94-2.41-1.98-3.49-3.1-.12,0-.24-.01-.36-.01-2.89-.1-5.32,2.17-5.41,5.06,0,.12,0,.23,0,.35,0,2.88,2.02,4.86,4.92,4.86,2.15,0,3.91-1.11,4.61-2.95.33-.88.49-1.81.49-2.74h-4.76l-.24,1.99Z"/>
      </g>
    </g>
  </g>
</svg>