<?xml version="1.0" encoding="UTF-8"?>
<svg id="_圖層_1" data-name="圖層 1" xmlns="http://www.w3.org/2000/svg" viewBox="0 0 300 300">
  <defs>
    <style>
      .cls-1 {
        fill: #090405;
      }

      .cls-2 {
        fill: #090304;
      }

      .cls-3 {
        fill: #0a0506;
      }

      .cls-4 {
        fill: #090404;
      }

      .cls-5 {
        fill: #080405;
      }

      .cls-6 {
        fill: #0a0405;
      }

      .cls-7 {
        fill: #6c6867;
      }

      .cls-8 {
        fill: #090305;
      }

      .cls-9 {
        fill: none;
        stroke: #f4a817;
        stroke-linecap: round;
        stroke-linejoin: round;
        stroke-width: 8px;
      }

      .cls-10 {
        fill: #343333;
      }

      .cls-11 {
        fill: #575354;
      }

      .cls-12 {
        fill: #2188be;
      }

      .cls-13 {
        fill: #080304;
      }

      .cls-14 {
        fill: #272627;
      }

      .cls-15 {
        fill: #4f4b4c;
      }

      .cls-16 {
        fill: #3e3a3a;
      }

      .cls-17 {
        fill: #464343;
      }
    </style>
  </defs>
  <polyline class="cls-9" points="164.32 95.58 54.89 94.58 50.19 197.13 53.89 199.81 164.16 200.81"/>
  <rect class="cls-12" x="181.9" y="174.18" width="81.89" height="13.64"/>
  <rect class="cls-12" x="181.9" y="43.16" width="81.89" height="13.64"/>
  <g>
    <path class="cls-2" d="m212.52,278.98c-.57-.74-1.36-1.41-1.66-2.25-.34-.97-.33-2.09-.32-3.15.04-3.12.21-6.23.22-9.34.03-8.5,0-17,.04-25.5,0-.82-.28-1.28-.88-1.72-3.03-2.2-6.03-4.44-9.09-6.59-.59-.41-1.41-.6-2.15-.67-1.15-.12-2.32-.06-3.48-.06-48.09,0-96.18,0-144.27-.05-1.96,0-3.52.44-5.06,1.67-2.55,2.04-5.28,3.83-7.89,5.8-.41.31-.79.98-.79,1.49-.02,8.08,0,16.16.06,24.25.03,4.07.14,8.13.25,12.2.04,1.69-.93,2.82-2,3.93h-2.74c-.12-.16-.21-.38-.37-.47-1.27-.69-1.57-1.79-1.58-3.17-.07-12.65-.12-25.3-.34-37.94-.04-2.33.79-3.82,2.57-5.08,3.85-2.72,7.62-5.56,11.51-8.21.95-.65,2.23-.95,3.4-1.07.98-.1,1.17-.38,1.29-1.31.35-2.78.88-5.54,1.33-8.31.08-.52.16-1.03.2-1.26-2.41-1.55-4.88-2.83-7-4.55-3.45-2.8-5.7-6.53-6.45-10.93-.48-2.78-.49-5.66-.54-8.5-.05-2.56.14-5.13.22-7.7.09-2.86.16-5.71.25-8.57.08-2.4.17-4.79.25-7.19.09-2.69.17-5.38.25-8.06.08-2.73.17-5.47.25-8.2.16-5.34.33-10.67.5-16.01.08-2.52.17-5.04.25-7.56.09-2.73.17-5.47.25-8.2.08-2.61.17-5.21.25-7.82.08-2.73.14-5.46.26-8.19.2-4.66,1.31-9.07,4.26-12.75,2.93-3.65,6.57-6.41,11.32-7.17,2.56-.41,5.18-.74,7.77-.75,33.52-.05,67.05-.04,100.57,0,1.2,0,2.52.36,3.57.94,1.2.67,1.47,1.92,1.06,3.34-.44,1.51-1.5,2-2.87,2.15-.62.07-1.24.03-1.87.03-32.53,0-65.06,0-97.58,0-2.16,0-4.32-.05-6.47.03-5.28.2-9.14,2.75-11.72,7.32-1.09,1.93-1.56,4-1.57,6.22-.02,2.9-.16,5.8-.24,8.69-.09,3.4-.15,6.8-.26,10.2-.14,4.46-.33,8.93-.48,13.39-.09,2.56-.16,5.13-.23,7.69-.1,3.73-.17,7.46-.29,11.2-.14,4.25-.32,8.51-.47,12.76-.1,2.73-.17,5.46-.25,8.19-.1,3.6-.14,7.21-.28,10.81-.11,2.76-.39,5.51-.47,8.27-.13,4.71,1.45,8.79,5.03,11.89,2.08,1.8,4.53,2.88,7.4,2.88,44.06-.02,88.12-.02,132.19-.02,2.82,0,5.64,0,8.46,0,2.08,0,3.32.8,3.81,2.37.54,1.77-.14,3.19-1.81,3.9-.31.13-.74.6-.7.85.35,2.45.8,4.88,1.2,7.33.13.83.19,1.67.29,2.63,3.31-.63,5.33,1.6,7.6,3.2,3.14,2.22,6.24,4.52,9.37,6.76,1.12.8,1.69,1.79,1.69,3.21-.05,10.29-.04,20.58-.08,30.87,0,2.53-.03,5.07-.22,7.59-.11,1.4.11,3.07-1.61,3.85-.08.04-.06.29-.09.44h-2.99Zm-21.68-66.45H57.09c-.55,3.49-1.1,6.92-1.65,10.4h137.09c-.57-3.48-1.13-6.92-1.7-10.4Z"/>
    <path class="cls-6" d="m269.53,183.98c-.17.29-.4.57-.49.88-1.45,4.95-4.61,8.4-9.34,10.26-1.54.61-3.32.82-4.99.82-19.78.08-39.57.05-59.35.14-2.78.01-5.54.27-8.27-.57-5.67-1.74-9.25-5.48-10.62-11.24-.42-1.77-.52-3.66-.52-5.49-.03-41.62-.07-83.23.03-124.85.02-6.51,3.9-11.8,10.03-14.14.52-.2,1.12-.19,1.66-.34.18-.05.3-.31.45-.47,23.24,0,46.47,0,69.71,0,.35.25.66.61,1.05.73,5.16,1.63,8.58,4.92,9.95,10.26.06.22.46.34.71.51v.5c-.72.33-.48.67,0,1,0,44,0,88,0,132Zm-87.46-121.96v110.89h81.42V62.02h-81.42Zm-.18,117.16c0,.82-.03,1.4.01,1.98.03.36.22.7.26,1.06.53,4.56,4.88,7.84,9.26,7.82,20.95-.11,41.91-.03,62.86-.05,5.95,0,9.89-4.89,9.12-10.81h-81.52Zm81.89-123.45c-.31-1.7-.36-3.33-.9-4.77-1.41-3.77-4.42-5.97-9.01-5.98-20.78-.02-41.56-.01-62.34,0-.85,0-1.71.08-2.54.26-4.93,1.05-7.57,6.18-6.95,10.49h81.74Z"/>
    <path class="cls-15" d="m269.53,51.98c-.48-.33-.72-.67,0-1v1Z"/>
    <path class="cls-13" d="m62.33,102.98c-.06,1.19-.15,2.32-.18,3.45-.09,3.23-.16,6.46-.25,9.69-.07,2.48-.17,4.96-.24,7.45-.09,3.19-.16,6.38-.27,9.57-.15,4.46-.33,8.93-.49,13.39-.09,2.44-.17,4.88-.24,7.32-.09,2.9-.16,5.8-.26,8.69-.15,4.59-.33,9.18-.48,13.77-.09,2.48-.14,4.96-.25,7.44-.08,1.85-.24,3.7-.38,5.76.65,0,1.12,0,1.6,0,34.23,0,68.45,0,102.68.02.9,0,1.9.21,2.66.65,1.45.82,1.51,2.36,1.12,3.73-.42,1.46-1.84,1.81-3.18,2.06-.28.05-.58.01-.87.01-35.43,0-70.86-.02-106.29.05-2.36,0-4.32-1.82-4.09-4.48.19-2.18.2-4.38.27-6.57.09-2.86.16-5.71.25-8.57.08-2.44.17-4.88.25-7.31.17-5.09.33-10.17.5-15.26.08-2.36.17-4.71.25-7.07.17-5.21.33-10.43.5-15.64.08-2.4.17-4.8.25-7.2.17-5.13.33-10.26.5-15.39.08-2.57.11-5.14.27-7.7.09-1.55.32-3.17,2-3.87.77-.32,1.67-.43,2.51-.45,2.49-.06,4.98-.02,7.47-.02,31.49,0,62.98,0,94.47,0,1.31,0,2.61.03,3.65,1.13,1.02,1.07,1.16,2.22.65,3.5-.49,1.22-1.49,1.77-2.76,1.83-.41.02-.83,0-1.24,0-32.98,0-65.96,0-98.95,0-.41,0-.82,0-1.41,0Z"/>
    <path class="cls-4" d="m108.86,135.95h-19.5v-19.69c.75,0,1.48,0,2.22,0,5.18,0,10.37,0,15.55,0q1.82,0,1.81,1.86c-.01,5.62-.02,11.24-.04,16.87,0,.28-.03.56-.04.97Zm-16.53-3.21c4.26,0,8.38-.01,12.51.01.74,0,.9-.33.9-.99-.02-3.87,0-7.73-.05-11.6,0-.31-.52-.88-.8-.88-4.17-.06-8.34-.04-12.56-.04v13.5Z"/>
    <path class="cls-5" d="m89.34,174.47v-19.22c.89,0,1.78,0,2.68,0,5.02,0,10.03,0,15.05-.01q1.88,0,1.87,1.92c0,4.7.02,9.41-.02,14.11,0,1.1-.2,2.2-.32,3.37h-19.06c-.07-.06-.13-.12-.2-.18Zm3.2-16.35c-.08.05-.16.1-.25.15v13.84c1.99-.13,3.83-.31,5.68-.36,2.11-.06,4.23-.07,6.34,0,1.06.04,1.45-.24,1.43-1.38-.07-3.62-.07-7.24-.01-10.87.02-.99-.26-1.28-1.25-1.28-3.98.01-7.96-.06-11.93-.1Z"/>
    <path class="cls-8" d="m128.19,116.33h19.18v19.59h-19.18v-19.59Zm2.97,16.4c4.27,0,8.4-.01,12.53,0,.88,0,.87-.52.87-1.15,0-3.71-.04-7.41.02-11.12.02-1.04-.36-1.26-1.3-1.25-3.23.04-6.47.01-9.71.01-.81,0-1.62,0-2.42,0v13.5Z"/>
    <path class="cls-1" d="m114.74,133.47v-14.41h7.33v14.62c-2.43,0-4.78,0-7.13,0-.06-.07-.13-.14-.19-.21Z"/>
    <path class="cls-1" d="m128.71,156.72c-.02-2.25-.05-4.5-.07-6.74.08-.08.15-.16.23-.24h6.93v-7.11h7.2v7.33h-6.89v7.13c-2.5,0-4.92,0-7.34,0-.02-.12-.03-.24-.05-.36Z"/>
    <path class="cls-1" d="m128.87,149.73c-.08.08-.15.16-.23.24h-14.21c0-2.29-.03-4.49.04-6.67,0-.27.53-.75.82-.75,4.26-.05,8.52-.05,12.78,0,.26,0,.72.61.73.95.08,2.07.05,4.15.07,6.23Z"/>
    <path class="cls-1" d="m128.89,164.22h14.44c-.11.78-.25,1.36-.26,1.95-.04,1.12-.09,2.25,0,3.37.17,1.94.21,1.94-1.68,1.95-4.22,0-8.43,0-12.8,0v-6.94c.1-.11.2-.22.3-.32Z"/>
    <path class="cls-1" d="m92.83,149.47c-.02-2.15-.03-4.29-.07-6.44-.01-.69.31-.81.92-.79,1.93.06,3.87.06,5.8.09.09,0,.18-.01.28-.02.16.17.46.34.46.51.03,2.23.02,4.45.02,6.86-2.47,0-4.84,0-7.21,0-.07-.07-.13-.14-.2-.21Z"/>
    <path class="cls-1" d="m128.89,164.22c-.1.11-.2.22-.3.32-2.22-.02-4.45-.04-6.67-.06-.17,0-.35,0-.52,0,0-.1-.01-.19-.02-.29.03-.15.06-.29.1-.44,0-.1,0-.19,0-.29v-6.52h7.12c.04.07.09.11.17.12.04,2.38.08,4.77.12,7.15Z"/>
    <path class="cls-3" d="m121.4,164.48c.17,0,.35,0,.52,0-.09.39-.24.77-.26,1.16-.04.91-.03,1.83-.02,2.74q.01,3.1-3.13,3.09c-1.03,0-2.07-.03-3.1.02-.77.04-1.01-.29-.99-1.03.04-1.74.06-3.49.01-5.23-.02-.8.28-1,1.01-.99,1.82.05,3.64.04,5.46.05.17.06.33.12.5.19Z"/>
    <path class="cls-10" d="m121.4,164.48c-.17-.06-.33-.12-.5-.19.16-.04.32-.07.48-.11,0,.1.01.19.02.29Z"/>
    <path class="cls-16" d="m92.83,149.47c.07.07.13.14.2.21-.07-.07-.13-.14-.2-.21Z"/>
    <path class="cls-17" d="m99.75,142.31c-.09,0-.18.01-.28.02.09,0,.18-.01.28-.02Z"/>
    <path class="cls-16" d="m114.74,133.47c.06.07.13.14.19.21-.06-.07-.13-.14-.19-.21Z"/>
    <path class="cls-11" d="m121.48,163.46c0,.1,0,.19,0,.29,0-.1,0-.19,0-.29Z"/>
    <path class="cls-10" d="m89.34,174.47c.07.06.13.12.2.18-.07-.06-.13-.12-.2-.18Z"/>
    <path class="cls-15" d="m128.71,156.72c.02.12.03.24.05.36,0,0,.01,0,.01,0-.08-.01-.13-.05-.17-.12.04-.08.07-.15.11-.23Z"/>
    <path class="cls-7" d="m92.55,158.12c-.08.05-.16.1-.25.15.08-.05.16-.1.25-.15Z"/>
    <path class="cls-1" d="m231.68,131.95h-5.97c0,1.78-.05,3.47.02,5.16.03.89-.28,1.17-1.14,1.14-1.36-.05-2.73-.04-4.1,0-.75.02-1.03-.25-1.02-1.01.04-1.7.01-3.4.01-5.35h6.22c0-1.87.06-3.49-.02-5.1-.06-1.08.35-1.38,1.36-1.32,1.24.08,2.49-.03,3.73.03.88.05,1.17-.34,1.16-1.14-.02-1.54-.02-3.08-.03-4.61.1-.18.19-.36.29-.54,1.82.04,3.64.07,5.46.11.09,0,.17,0,.26,0,.16-.36.46-.72.47-1.08.05-1.7.02-3.4.02-5.17h6.22c0,1.28,0,2.59,0,3.9q.01,2.53-2.57,2.53c-1.08,0-2.15,0-3.37,0v6.23c-1.94,0-3.75.05-5.55-.02-.87-.03-1.22.34-1.2,1.11.03,1.22.13,2.45.2,3.67-.03.03-.08.06-.07.08.01.06.05.12.07.19,0,.33,0,.67,0,1h-.09c-.13.06-.25.14-.38.21Z"/>
    <path class="cls-5" d="m197.9,124.01h16.9v16.91h-16.9v-16.91Zm14.34,2.72h-11.6c-.06.14-.11.21-.11.29-.02,3.5-.02,6.99-.06,10.49,0,.85.53.78,1.08.78,2.28,0,4.56-.02,6.84-.02,1.27,0,2.54,0,3.85,0v-11.53Z"/>
    <path class="cls-4" d="m199.33,90.29c4.48,0,8.96-.03,13.44-.02.57,0,1.16.07,1.69.25.24.08.51.53.51.81.03,4.92.03,9.83.02,14.75,0,.57-.04,1.15-.89,1.15-5.38-.02-10.77,0-16.21,0v-16.93h1.18c.09,0,.18,0,.27,0Zm1.26,14.38h11.59v-11.59h-11.59v11.59Z"/>
    <path class="cls-1" d="m231.7,90.28c5.1,0,10.2,0,15.3-.02.92,0,1.4.21,1.39,1.31-.06,4.75-.05,9.5-.01,14.24,0,.96-.42,1.4-1.28,1.41-5.14.02-10.28.01-15.62.01v-16.75c.07-.07.15-.14.22-.21Zm13.19,14.5c.71.03,1.03-.25,1.01-1.02-.05-2.08-.02-4.17-.02-6.25,0-1.48,0-2.97,0-4.43h-11.76v11.7h10.76Z"/>
    <path class="cls-1" d="m232.06,131.73h.09c4.17,0,8.34,0,12.62,0,.02.37.04.67.06.98,0,.09-.02.19-.02.28.02,1.37.02,2.75.05,4.12.02.64-.14,1.04-.89,1.03-3.81-.03-7.63-.03-11.44-.05-.16,0-.31-.09-.6-.17v-5.94c.04-.09.08-.17.13-.26Z"/>
    <path class="cls-1" d="m231.67,119.54h-12.11v-6.56c3.86,0,7.71-.01,11.55.03.28,0,.77.41.79.66.13,1.68.17,3.37.24,5.06-.15.27-.31.54-.46.81Z"/>
    <path class="cls-1" d="m220.04,92.98c1.77,0,3.46.02,5.15,0,.84-.01,1.22-.01,1.09,1.17-.2,1.82.08,3.69.12,5.54.04,1.62.01,3.24.06,4.86.02.7-.24.96-.94.94-1.53-.04-3.06-.04-4.59,0-.73.02-.9-.27-.9-.96.03-3.82.01-7.63.01-11.56Z"/>
    <path class="cls-4" d="m200.85,119.23v-6.32h6.1c.11,1.76.22,3.58.34,5.41.05.84-.53.9-1.11.91-1.73.02-3.47,0-5.32,0Z"/>
    <path class="cls-10" d="m231.67,119.54c.15-.27.31-.54.46-.81.02.16.04.32.06.47-.1.18-.19.36-.29.54-.08-.07-.15-.14-.23-.2Z"/>
    <path class="cls-10" d="m231.7,90.28c-.07.07-.15.14-.22.21.07-.07.15-.14.22-.21Z"/>
    <path class="cls-15" d="m244.8,133c0-.09.02-.19.02-.28,0,.09-.02.19-.02.28Z"/>
    <path class="cls-16" d="m232.06,131.73c-.04.09-.08.17-.13.26-.08-.01-.17-.03-.25-.04.13-.07.25-.14.38-.22Z"/>
    <path class="cls-16" d="m232.15,130.74c-.03-.06-.06-.12-.07-.19,0-.02.05-.05.07-.08,0,.09,0,.18,0,.26Z"/>
    <path class="cls-10" d="m237.92,119.3c-.09,0-.17,0-.26,0,.09,0,.17,0,.26,0Z"/>
    <path class="cls-16" d="m199.33,90.29c-.09,0-.18,0-.27,0,.09,0,.18,0,.27,0Z"/>
    <path class="cls-6" d="m222.48,53.95c-2.32,0-4.65.03-6.97-.01-1.44-.02-2.59-1.08-2.97-2.61-.25-1.02.43-2.41,1.55-3.07.26-.15.59-.27.89-.28,4.01-.08,8.03-.14,12.04-.18,1.07,0,2.14.13,3.2.16,1.26.04,2.37.86,2.67,2.02.36,1.39-.24,2.92-1.48,3.46-.65.29-1.39.48-2.1.5-2.28.06-4.56.02-6.85.02,0,0,0-.02,0-.03Z"/>
    <path class="cls-1" d="m95.81,123.03h6.31c.12,1.73.24,3.4.35,5.07.06.93-.19,1.45-1.29,1.4-1.77-.08-3.54-.02-5.37-.02v-6.45Z"/>
    <path class="cls-1" d="m99.15,168.23q-3.39.02-3.39-3.34t3.43-3.41c.54,0,1.08,0,1.62,0,1.65,0,1.89.39,1.69,2-.16,1.32-.06,2.68-.15,4.02-.02.25-.36.67-.58.69-.86.08-1.74.03-2.61.03Z"/>
    <path class="cls-1" d="m141.26,123.98c.02,1.41.02,2.83.06,4.24.02.93-.32,1.32-1.3,1.27-1.53-.08-3.07-.06-4.6-.02-.77.02-1.13-.21-1.09-1.06.06-1.58.05-3.16,0-4.74-.02-.72.27-.96.95-.94,1.74.03,3.48.06,5.22,0,.85-.03.86.4.77,1-.03.02-.09.06-.08.07.02.06.05.12.08.18Z"/>
    <path class="cls-14" d="m141.26,123.98c-.03-.06-.06-.12-.08-.18,0-.02.05-.05.08-.07v.25Z"/>
    <path class="cls-14" d="m244.63,104.78h.26c-.09,0-.17,0-.26,0Z"/>
    <path class="cls-3" d="m203.62,129.63h5.67c0,1.81.03,3.46-.04,5.11-.01.26-.48.69-.76.7-1.6.07-3.21.03-4.88.03v-5.85Z"/>
    <path class="cls-3" d="m203.81,95.79h5.47c0,1.8.03,3.53-.04,5.27,0,.24-.5.64-.78.65-1.57.06-3.14.03-4.85.03,0-1.96,0-3.86,0-5.75.07-.06.13-.13.2-.19Z"/>
    <path class="cls-14" d="m203.81,95.79c-.07.06-.13.13-.2.19.07-.06.13-.13.2-.19Z"/>
    <path class="cls-1" d="m236.83,101.73v-5.7h5.69c.13,1.56.26,3.1.38,4.65.05.7-.19,1.08-.98,1.06-1.61-.04-3.23-.01-5.08-.01Z"/>
  </g>
</svg>