<svg xmlns="http://www.w3.org/2000/svg" xmlns:xlink="http://www.w3.org/1999/xlink" width="164.228" height="47.643" viewBox="0 0 164.228 47.643">
  <defs>
    <clipPath id="clip-path">
      <rect id="Rectangle_1" data-name="Rectangle 1" width="164.228" height="47.643" fill="none"/>
    </clipPath>
  </defs>
  <g id="Group_1" data-name="Group 1" clip-path="url(#clip-path)">
    <path id="Path_1" data-name="Path 1" d="M32.916,8.629,23.524,30.452H17.308l-1.472-8.7a31.73,31.73,0,0,1-.491-5.66,41.347,41.347,0,0,1-1.8,5.2L9.818,30.452H3.894L0,8.629H5.562l1.374,8.179a51.114,51.114,0,0,1,.783,7.166c.527-1.931.724-2.487.918-3.011l.851-2.093L13.612,8.629h5.236l1.6,9.391a54.844,54.844,0,0,1,.624,5.954,27.17,27.17,0,0,1,1.08-3.24l.653-1.636,4.12-10.469Z" transform="translate(0 16.766)" fill="#1c92cd"/>
    <path id="Path_2" data-name="Path 2" d="M18.137,17.035l-1.8,14.624h-5.4l1.8-14.624ZM15.944,8.006A2.945,2.945,0,1,1,13,10.952a2.934,2.934,0,0,1,2.946-2.946" transform="translate(21.254 15.556)" fill="#1c92cd"/>
    <path id="Path_3" data-name="Path 3" d="M29.178,8.629l-.589,4.809h-6.9l-.456,3.7h6.281l-.589,4.777H20.64l-1.048,8.541h-5.53L16.746,8.629Z" transform="translate(27.324 16.766)" fill="#1c92cd"/>
    <path id="Path_4" data-name="Path 4" d="M26.419,17.035l-1.8,14.624h-5.4l1.8-14.624ZM24.226,8.006a2.945,2.945,0,1,1-2.946,2.946,2.934,2.934,0,0,1,2.946-2.946" transform="translate(37.346 15.556)" fill="#1c92cd"/>
    <path id="Path_5" data-name="Path 5" d="M46.206,18.726v.424c0,7.166-4.777,12.008-11.843,12.008-7.1,0-11.908-4.45-11.908-11.025,0-6.84,5.1-11.649,12.335-11.649,6.607,0,11.154,4.059,11.416,10.242m-5.692.621A5.625,5.625,0,0,0,34.56,13.72a6.129,6.129,0,0,0-6.445,6.216c0,3.6,2.452,5.986,6.119,5.986a5.96,5.96,0,0,0,6.313-6.183,1.6,1.6,0,0,0-.032-.391" transform="translate(43.632 16.485)" fill="#ffaf00"/>
    <path id="Path_6" data-name="Path 6" d="M41.478,13.438,39.35,30.452H33.855l2.093-17.014H31.3l.589-4.809H46.714l-.589,4.809Z" transform="translate(60.826 16.766)" fill="#ffaf00"/>
    <path id="Path_7" data-name="Path 7" d="M64.118,30.11a20.166,20.166,0,0,0,1.713-7.128H57.563V26.5c-.795-.524-1.483-.962-2.148-1.436-.109-.077-.147-.309-.153-.471-.018-.509-.006-1.021-.006-1.642a16.6,16.6,0,0,0-1.716.012,2.488,2.488,0,0,1-2.034-.7,23.119,23.119,0,0,1-1.8-1.636h5.509V12.2c-.194-.012-.383-.035-.574-.035-1.577,0-3.155.015-4.735-.009a.765.765,0,0,0-.815.5,20.632,20.632,0,0,0-1.76,5.192c-.038.2-.1.4-.177.724-.65-.642-1.248-1.2-1.807-1.8a.671.671,0,0,1-.024-.539c.415-1.33.853-2.655,1.31-4.064H45.105c-.415,0-.827.012-1.242,0-.733-.024-1.486-.118-1.8.954-.509-.73-.951-1.327-1.339-1.96-.068-.112.056-.4.165-.55a19.113,19.113,0,0,1,34.493,8.791,18.619,18.619,0,0,1-3.149,13.1c-.106.156-.377.336-.527.3a34.192,34.192,0,0,1-7.593-2.69m-6.5-17.947a2.387,2.387,0,0,0-.059.336c0,2.563,0,5.124-.012,7.684,0,.409.2.43.515.43q3.607-.009,7.214,0c.171,0,.341-.024.556-.041-.018-.315-.024-.586-.053-.856a20.374,20.374,0,0,0-2.045-7.049.738.738,0,0,0-.795-.512c-.765.038-1.536.012-2.3.012H57.619m15.5,8.423a1.393,1.393,0,0,0,.032-.227A3.566,3.566,0,0,0,73.132,20a17.707,17.707,0,0,0-2.307-6.9,1.588,1.588,0,0,0-1.719-.965c-.965.091-1.945.021-3.023.021a23.352,23.352,0,0,1,2.09,8.423Zm-6.8,10.254c1.324,0,2.522-.015,3.72.009a.791.791,0,0,0,.8-.45A17.159,17.159,0,0,0,73,24.489c.079-.494.112-.995.168-1.51h-5a23.134,23.134,0,0,1-1.848,7.861M57.56,5.344c0,1.483-.006,2.834.012,4.182,0,.106.165.3.256.3,1.348.021,2.7.015,4.188.015a19.82,19.82,0,0,0-4.456-4.5M50.841,9.805H55.2V5.376a20.329,20.329,0,0,0-4.359,4.429M44.6,9.844c1.16,0,2.157.015,3.152-.015.15,0,.333-.174.439-.312.618-.812,1.213-1.642,1.834-2.455.285-.374.615-.715.927-1.071A15.568,15.568,0,0,0,44.6,9.844m23.548,0C66.849,8.293,63.14,6.038,61.993,6c.868,1.168,1.769,2.387,2.684,3.591a.627.627,0,0,0,.421.244c.983.021,1.966.012,3.049.012" transform="translate(79.102 5.124)" fill="#1c92cd"/>
    <path id="Path_8" data-name="Path 8" d="M82.282,25.08c1.748,2.5,3.234,4.936,3.641,7.888a5.315,5.315,0,0,1-4.515,6.072,16.648,16.648,0,0,1-7.593-.633A52.652,52.652,0,0,1,60.4,32.323,71.193,71.193,0,0,1,45.093,20.018a30.674,30.674,0,0,1-5.771-8.252A9.039,9.039,0,0,1,38.377,7a5.216,5.216,0,0,1,4.688-4.68,17.714,17.714,0,0,1,7.537.692c.391.106.78.23,1.168.344-1.233.795-2.41,1.578-3.614,2.31a1.632,1.632,0,0,1-.845.059c-1-.053-2.007-.212-3-.174-2.24.094-3.02,1.224-2.425,3.382a16.759,16.759,0,0,0,2.867,5.4,49.34,49.34,0,0,0,8.685,8.918A68.022,68.022,0,0,0,70.024,33.532a24.971,24.971,0,0,0,8.994,2.325,7.209,7.209,0,0,0,2.157-.253,1.772,1.772,0,0,0,1.374-2.313c-.271-1.1-.742-2.148-1.095-3.229a1.825,1.825,0,0,1-.082-.877c.241-1.236.527-2.463.8-3.694.021-.091.047-.18.112-.412" transform="translate(74.482 4.195)" fill="#1c92cd"/>
    <path id="Path_9" data-name="Path 9" d="M60.984,4.459A15.243,15.243,0,0,0,51.178,0l-.359,2.949a12.387,12.387,0,0,1,11.7,12.37h2.97a15.256,15.256,0,0,0-4.5-10.86" transform="translate(98.746 -0.001)" fill="#ffaf00"/>
    <path id="Path_10" data-name="Path 10" d="M50.923,2.084l-.344,2.8-.015.168h.056a6.22,6.22,0,0,1,6.222,6.225h2.973a9.193,9.193,0,0,0-8.891-9.188" transform="translate(98.251 4.049)" fill="#ffaf00"/>
    <path id="Path_11" data-name="Path 11" d="M47.643,22.979h5.071a4.6,4.6,0,0,1-4.744,3.4c-3.337,0-5.724-2.519-5.724-6.051,0-4.091,2.649-7.166,6.119-7.166,2.387,0,4.023,1.177,5.1,3.567L57,15.359A66.856,66.856,0,0,1,49.3,8.51c-.265-.015-.53-.026-.8-.026A11.569,11.569,0,0,0,36.55,20.427c0,6.348,4.45,10.731,10.863,10.731,4.744,0,8.638-2.455,10.177-6.51a16.972,16.972,0,0,0,1.077-6.054h-10.5Z" transform="translate(71.02 16.485)" fill="#ffaf00"/>
  </g>
</svg>
