<svg xmlns="http://www.w3.org/2000/svg" xmlns:xlink="http://www.w3.org/1999/xlink" width="131.114" height="38.036" viewBox="0 0 131.114 38.036">
  <defs>
    <clipPath id="clip-path">
      <rect id="Rectangle_1" data-name="Rectangle 1" width="131.114" height="38.036" fill="#fff"/>
    </clipPath>
  </defs>
  <g id="Group_7" data-name="Group 7" transform="translate(0 0)">
    <g id="Group_1" data-name="Group 1" transform="translate(0 0)" clip-path="url(#clip-path)">
      <path id="Path_1" data-name="Path 1" d="M26.279,8.629l-7.5,17.423H13.818L12.644,19.1a25.332,25.332,0,0,1-.392-4.518,33.011,33.011,0,0,1-1.436,4.152L7.838,26.052H3.109L0,8.629H4.441l1.1,6.53a40.807,40.807,0,0,1,.625,5.721c.421-1.541.578-1.985.733-2.4l.679-1.671,3.292-8.177h4.18l1.278,7.5a43.785,43.785,0,0,1,.5,4.753,21.692,21.692,0,0,1,.862-2.587l.522-1.306L21.5,8.629Z" transform="translate(0 11.646)" fill="#fff"/>
      <path id="Path_2" data-name="Path 2" d="M16.685,15.215,15.247,26.89H10.938l1.438-11.676ZM14.935,8.006a2.351,2.351,0,1,1-2.352,2.352,2.343,2.343,0,0,1,2.352-2.352" transform="translate(14.763 10.805)" fill="#fff"/>
      <path id="Path_3" data-name="Path 3" d="M26.13,8.629l-.47,3.839H20.148l-.364,2.951H24.8l-.47,3.814H19.314l-.836,6.819H14.062L16.2,8.629Z" transform="translate(18.979 11.645)" fill="#fff"/>
      <path id="Path_4" data-name="Path 4" d="M24.967,15.215,23.529,26.89H19.22l1.438-11.676ZM23.217,8.006a2.351,2.351,0,1,1-2.352,2.352,2.343,2.343,0,0,1,2.352-2.352" transform="translate(25.941 10.805)" fill="#fff"/>
      <path id="Path_5" data-name="Path 5" d="M41.417,16.661V17c0,5.721-3.814,9.587-9.455,9.587-5.667,0-9.507-3.553-9.507-8.8,0-5.461,4.074-9.3,9.847-9.3,5.275,0,8.905,3.24,9.114,8.177m-4.544.5a4.491,4.491,0,0,0-4.753-4.493,4.893,4.893,0,0,0-5.146,4.963,4.564,4.564,0,0,0,4.885,4.779,4.758,4.758,0,0,0,5.04-4.937,1.277,1.277,0,0,0-.026-.313" transform="translate(30.307 11.45)" fill="#fff"/>
      <path id="Path_6" data-name="Path 6" d="M39.427,12.468l-1.7,13.583H33.341l1.671-13.583H31.3l.47-3.839H43.607l-.47,3.839Z" transform="translate(42.25 11.646)" fill="#fff"/>
      <path id="Path_7" data-name="Path 7" d="M59.4,24.571a16.1,16.1,0,0,0,1.368-5.691h-6.6v2.808c-.634-.418-1.184-.768-1.715-1.147-.087-.061-.117-.247-.122-.376-.014-.406,0-.815,0-1.311a13.252,13.252,0,0,0-1.37.009,1.986,1.986,0,0,1-1.624-.562A18.458,18.458,0,0,1,47.889,17h4.4V10.27c-.155-.009-.305-.028-.458-.028-1.259,0-2.519.012-3.781-.007a.611.611,0,0,0-.651.4,16.471,16.471,0,0,0-1.405,4.145c-.031.162-.078.322-.141.578-.519-.512-1-.961-1.443-1.438a.535.535,0,0,1-.019-.43c.331-1.062.681-2.119,1.046-3.245H44.219c-.331,0-.66.009-.992,0-.585-.019-1.187-.094-1.433.761-.406-.583-.759-1.06-1.069-1.565-.054-.089.045-.32.132-.439a15.259,15.259,0,0,1,27.538,7.018A14.865,14.865,0,0,1,65.88,26.476c-.085.125-.3.268-.421.242A27.3,27.3,0,0,1,59.4,24.571M54.21,10.242a1.905,1.905,0,0,0-.047.268c0,2.047,0,4.091-.009,6.135,0,.327.16.343.411.343q2.88-.007,5.759,0c.136,0,.273-.019.444-.033-.014-.251-.019-.468-.042-.684a16.266,16.266,0,0,0-1.633-5.627.589.589,0,0,0-.634-.409c-.611.031-1.227.009-1.84.009H54.21m12.376,6.725a1.112,1.112,0,0,0,.026-.181c0-.1-.007-.19-.016-.284A14.137,14.137,0,0,0,64.753,11a1.268,1.268,0,0,0-1.372-.771c-.771.073-1.553.016-2.413.016a18.643,18.643,0,0,1,1.668,6.725ZM61.16,25.153c1.057,0,2.014-.012,2.97.007a.632.632,0,0,0,.639-.359,13.7,13.7,0,0,0,1.722-4.718c.063-.395.089-.794.134-1.205h-3.99a18.469,18.469,0,0,1-1.476,6.276m-7-20.355c0,1.184,0,2.263.009,3.339,0,.085.132.24.2.24,1.076.016,2.152.012,3.344.012A15.823,15.823,0,0,0,54.163,4.8M48.8,8.36h3.48V4.824A16.23,16.23,0,0,0,48.8,8.36m-4.984.031c.926,0,1.722.012,2.517-.012.12,0,.266-.139.35-.249.493-.649.968-1.311,1.464-1.96.228-.3.491-.571.74-.855a12.429,12.429,0,0,0-5.071,3.076m18.8,0c-1.036-1.238-4-3.038-4.913-3.071.693.933,1.412,1.906,2.143,2.867a.5.5,0,0,0,.336.2c.785.016,1.57.009,2.434.009" transform="translate(54.944 3.559)" fill="#fff"/>
      <path id="Path_8" data-name="Path 8" d="M73.42,20.458a14.468,14.468,0,0,1,2.907,6.3,4.244,4.244,0,0,1-3.6,4.847A13.291,13.291,0,0,1,66.66,31.1a42.036,42.036,0,0,1-10.71-4.857A56.838,56.838,0,0,1,43.73,16.417a24.489,24.489,0,0,1-4.608-6.588,7.216,7.216,0,0,1-.754-3.8A4.164,4.164,0,0,1,42.111,2.29a14.142,14.142,0,0,1,6.017.552c.313.085.623.183.933.275-.985.634-1.924,1.259-2.885,1.844a1.3,1.3,0,0,1-.674.047c-.8-.042-1.6-.169-2.4-.139-1.788.075-2.411.977-1.936,2.7a13.38,13.38,0,0,0,2.289,4.314A39.392,39.392,0,0,0,50.391,19a54.307,54.307,0,0,0,13.243,8.2,19.936,19.936,0,0,0,7.181,1.856,5.756,5.756,0,0,0,1.722-.2,1.415,1.415,0,0,0,1.1-1.847c-.216-.876-.592-1.715-.874-2.578a1.457,1.457,0,0,1-.066-.7c.193-.987.421-1.967.637-2.949.016-.073.038-.143.089-.329" transform="translate(51.735 2.914)" fill="#fff"/>
      <path id="Path_9" data-name="Path 9" d="M58.935,3.56A12.169,12.169,0,0,0,51.106,0l-.287,2.354a9.89,9.89,0,0,1,9.338,9.876h2.371a12.18,12.18,0,0,0-3.593-8.67" transform="translate(68.589 0)" fill="#fff"/>
      <path id="Path_10" data-name="Path 10" d="M50.851,2.084l-.275,2.232-.012.134h.045a4.966,4.966,0,0,1,4.967,4.97h2.373a7.339,7.339,0,0,0-7.1-7.336" transform="translate(68.245 2.812)" fill="#fff"/>
      <path id="Path_11" data-name="Path 11" d="M45.406,20.056h4.048a3.674,3.674,0,0,1-3.788,2.716,4.531,4.531,0,0,1-4.57-4.831c0-3.266,2.115-5.721,4.885-5.721a4.212,4.212,0,0,1,4.074,2.848l2.824-1.095a53.375,53.375,0,0,1-6.154-5.468c-.211-.012-.423-.021-.641-.021a9.237,9.237,0,0,0-9.535,9.535c0,5.068,3.553,8.567,8.673,8.567a8.315,8.315,0,0,0,8.125-5.2,13.55,13.55,0,0,0,.86-4.833H45.824Z" transform="translate(49.33 11.45)" fill="#fff"/>
    </g>
  </g>
</svg>
