<svg xmlns="http://www.w3.org/2000/svg" width="52.486" height="65.932" viewBox="0 0 52.486 65.932">
  <g id="Group_610" data-name="Group 610" transform="translate(-3600.737 -3476.6)">
    <ellipse id="Ellipse_165" data-name="Ellipse 165" cx="25.243" cy="7.991" rx="25.243" ry="7.991" transform="translate(3601.737 3477.6)" fill="#fff" stroke="#000" stroke-linecap="round" stroke-linejoin="round" stroke-width="2"/>
    <ellipse id="Ellipse_166" data-name="Ellipse 166" cx="25.243" cy="7.991" rx="25.243" ry="7.991" transform="translate(3601.737 3525.549)" fill="#fff" stroke="#000" stroke-linecap="round" stroke-linejoin="round" stroke-width="2"/>
    <path id="Path_423" data-name="Path 423" d="M3652.223,3517.557c0,4.414-11.3,7.992-25.243,7.992s-25.243-3.578-25.243-7.992v-15.982c0,4.413,11.3,7.991,25.243,7.991s25.243-3.578,25.243-7.991Z" fill="#fff" stroke="#000" stroke-linecap="round" stroke-linejoin="round" stroke-width="2"/>
    <path id="Path_424" data-name="Path 424" d="M3652.223,3533.54c0,4.414-11.3,7.992-25.243,7.992s-25.243-3.578-25.243-7.992v-15.983c0,4.414,11.3,7.992,25.243,7.992s25.243-3.578,25.243-7.992Z" fill="#2988bf" stroke="#000" stroke-linecap="round" stroke-linejoin="round" stroke-width="2"/>
    <path id="Path_425" data-name="Path 425" d="M3652.223,3501.575c0,4.413-11.3,7.991-25.243,7.991s-25.243-3.578-25.243-7.991v-15.983c0,4.413,11.3,7.991,25.243,7.991s25.243-3.578,25.243-7.991Z" fill="#fff" stroke="#000" stroke-linecap="round" stroke-linejoin="round" stroke-width="2"/>
  </g>
</svg>
