<svg xmlns="http://www.w3.org/2000/svg" width="52.486" height="65.932" viewBox="0 0 52.486 65.932">
  <g id="Group_619" data-name="Group 619" transform="translate(-3975.738 -3476.6)">
    <ellipse id="Ellipse_169" data-name="Ellipse 169" cx="25.243" cy="7.991" rx="25.243" ry="7.991" transform="translate(3976.738 3477.6)" fill="#fff" stroke="#000" stroke-linecap="round" stroke-linejoin="round" stroke-width="2"/>
    <ellipse id="Ellipse_170" data-name="Ellipse 170" cx="25.243" cy="7.991" rx="25.243" ry="7.991" transform="translate(3976.738 3525.549)" fill="#fff" stroke="#000" stroke-linecap="round" stroke-linejoin="round" stroke-width="2"/>
    <path id="Path_439" data-name="Path 439" d="M4027.224,3517.557c0,4.414-11.3,7.992-25.243,7.992s-25.243-3.578-25.243-7.992v-15.982c0,4.413,11.3,7.991,25.243,7.991s25.243-3.578,25.243-7.991Z" fill="#2988bf" stroke="#000" stroke-linecap="round" stroke-linejoin="round" stroke-width="2"/>
    <path id="Path_440" data-name="Path 440" d="M4027.224,3533.54c0,4.414-11.3,7.992-25.243,7.992s-25.243-3.578-25.243-7.992v-15.983c0,4.414,11.3,7.992,25.243,7.992s25.243-3.578,25.243-7.992Z" fill="#2988bf" stroke="#000" stroke-linecap="round" stroke-linejoin="round" stroke-width="2"/>
    <path id="Path_441" data-name="Path 441" d="M4027.224,3501.575c0,4.413-11.3,7.991-25.243,7.991s-25.243-3.578-25.243-7.991v-15.983c0,4.413,11.3,7.991,25.243,7.991s25.243-3.578,25.243-7.991Z" fill="#fff" stroke="#000" stroke-linecap="round" stroke-linejoin="round" stroke-width="2"/>
  </g>
</svg>
