<svg xmlns="http://www.w3.org/2000/svg" width="52.486" height="65.932" viewBox="0 0 52.486 65.932">
  <g id="Group_626" data-name="Group 626" transform="translate(-4350.738 -3476.6)">
    <ellipse id="Ellipse_173" data-name="Ellipse 173" cx="25.243" cy="7.991" rx="25.243" ry="7.991" transform="translate(4351.738 3477.6)" fill="#2988bf" stroke="#000" stroke-linecap="round" stroke-linejoin="round" stroke-width="2"/>
    <ellipse id="Ellipse_174" data-name="Ellipse 174" cx="25.243" cy="7.991" rx="25.243" ry="7.991" transform="translate(4351.738 3525.549)" fill="#fff" stroke="#000" stroke-linecap="round" stroke-linejoin="round" stroke-width="2"/>
    <path id="Path_447" data-name="Path 447" d="M4402.224,3517.557c0,4.414-11.3,7.992-25.243,7.992s-25.243-3.578-25.243-7.992v-15.982c0,4.413,11.3,7.991,25.243,7.991s25.243-3.578,25.243-7.991Z" fill="#2988bf" stroke="#000" stroke-linecap="round" stroke-linejoin="round" stroke-width="2"/>
    <path id="Path_448" data-name="Path 448" d="M4402.224,3533.54c0,4.414-11.3,7.992-25.243,7.992s-25.243-3.578-25.243-7.992v-15.983c0,4.414,11.3,7.992,25.243,7.992s25.243-3.578,25.243-7.992Z" fill="#2988bf" stroke="#000" stroke-linecap="round" stroke-linejoin="round" stroke-width="2"/>
    <path id="Path_449" data-name="Path 449" d="M4402.224,3501.575c0,4.413-11.3,7.991-25.243,7.991s-25.243-3.578-25.243-7.991v-15.983c0,4.413,11.3,7.991,25.243,7.991s25.243-3.578,25.243-7.991Z" fill="#2988bf" stroke="#000" stroke-linecap="round" stroke-linejoin="round" stroke-width="2"/>
  </g>
</svg>
