<?xml version="1.0" encoding="utf-8"?>
<!-- Generator: Adobe Illustrator 24.1.1, SVG Export Plug-In . SVG Version: 6.00 Build 0)  -->
<svg version="1.1" id="ad6a89b1-93f2-4578-bf0d-849d1f8fb048"
	 xmlns="http://www.w3.org/2000/svg" xmlns:xlink="http://www.w3.org/1999/xlink" x="0px" y="0px" width="61.1px" height="71.6px"
	 viewBox="0 0 61.1 71.6" style="enable-background:new 0 0 61.1 71.6;" xml:space="preserve">
<style type="text/css">
	.st0{fill:none;stroke:#000000;stroke-width:4;stroke-linecap:round;stroke-linejoin:round;}
	.st1{fill:#FFC924;}
	.st2{fill:#2988BF;stroke:#000000;stroke-width:2;stroke-linecap:round;stroke-linejoin:round;}
	.st3{fill:#FFFFFF;stroke:#000000;stroke-width:2;stroke-linecap:round;stroke-linejoin:round;}
</style>
<g>
	<polygon class="st0" points="50.3,15.6 59.1,17.6 58.9,12.7 	"/>
	<polygon class="st1" points="50.3,15.6 59.1,17.6 58.9,12.7 	"/>
	<polygon class="st0" points="48.7,10.9 56.5,6.2 52.8,3 	"/>
	<polygon class="st1" points="48.7,10.9 56.5,6.2 52.8,3 	"/>
	<polygon class="st0" points="43.4,10.6 45.7,2 40.7,2.3 	"/>
	<polygon class="st1" points="43.4,10.6 45.7,2 40.7,2.3 	"/>
	<ellipse class="st2" cx="24" cy="19.7" rx="23" ry="7.3"/>
	<ellipse class="st3" cx="24" cy="63.3" rx="23" ry="7.3"/>
	<path class="st2" d="M46.9,48.8c0,4-10.3,7.3-23,7.3S1,52.8,1,48.8V34.3c0,4,10.3,7.3,23,7.3s23-3.3,23-7.3L46.9,48.8z"/>
	<path class="st2" d="M46.9,63.3c0,4-10.3,7.3-23,7.3S1,67.3,1,63.3V48.8c0,4,10.3,7.3,23,7.3s23-3.3,23-7.3L46.9,63.3z"/>
	<path class="st2" d="M46.9,34.3c0,4-10.3,7.3-23,7.3S1,38.3,1,34.3V19.7c0,4,10.3,7.3,23,7.3s23-3.3,23-7.3L46.9,34.3z"/>
</g>
</svg>
