<?xml version="1.0" encoding="utf-8"?>
<!-- Generator: Adobe Illustrator 15.1.0, SVG Export Plug-In  -->
<!DOCTYPE svg PUBLIC "-//W3C//DTD SVG 1.1//EN" "http://www.w3.org/Graphics/SVG/1.1/DTD/svg11.dtd" [
	<!ENTITY ns_flows "http://ns.adobe.com/Flows/1.0/">
]>
<svg version="1.1"
	 xmlns="http://www.w3.org/2000/svg" xmlns:xlink="http://www.w3.org/1999/xlink" xmlns:a="http://ns.adobe.com/AdobeSVGViewerExtensions/3.0/"
	 x="0px" y="0px" width="52px" height="41px" viewBox="0.5 -0.389 52 41"
	 overflow="visible" enable-background="new 0.5 -0.389 52 41" xml:space="preserve">
<defs>
</defs>
<rect x="0.133" y="0.181" fill="#FFFFFF" width="45.304" height="29.906"/>
<path fill="#004098" d="M0.341,0.178h19.427c0.355,3.215-0.145,5.386-2.101,7.828c-1.955,2.438-5.744,4.465-9.83,3.393
	c-4.084-1.071-6.931-4.7-7.343-7.319C0.079,1.458,0.341,0.178,0.341,0.178"/>
<path fill="#004098" d="M21.157,0.178h11.607c-0.411,4.433-4.437,9.555-6.922,11.22c-2.491,1.665-6.575,3.81-11.135,3.513
	c-4.56-0.299-7.758-1.728-9.889-3.213c2.486,1.131,6.75,2.259,10.895-0.3C19.86,8.84,21.746,4.555,21.157,0.178"/>
<path fill="#004098" d="M35.428,0.178H45.44c-0.474,4.497-2.356,10.222-6.454,14.434c-2.606,2.677-7.486,6.199-13.621,6.965
	C18.2,22.47,10.68,20.088,6.002,15.267c4.855,2.5,10.115,2.313,12.73,1.906c5.676-0.886,10.068-3.693,13.206-8.51
	C35.078,3.839,35.428,0.178,35.428,0.178"/>
<path fill="#004098" d="M0.139,14.192c2.665,3.454,7.995,8.695,14.862,10.36c6.869,1.668,12.969,1.428,19.839-2.261
	c6.869-3.689,10.6-10.062,10.6-10.062v17.858H0.139V14.192"/>
<path d="M0.124,33.906h3.214v-1.908h1.488v1.908h3.066v1.251H4.914c0,0,0,1.248,0,2.025c0,1.264-0.818,2.177-1.687,2.177
	c-0.954,0-2.418,0.031-2.418,0.031v-1.317c0,0,0.978,0,1.451,0c0.477,0,1.06-0.297,1.099-1.216c0.035-0.859,0.008-1.734,0.008-1.734
	H0.139L0.124,33.906"/>
<path d="M8.782,31.998c0,0,0,5.269,0,6.131c0,0.866,0.418,1.311,1.044,1.342c0.624,0.029,4.999,0,4.999,0v-1.342c0,0-3.87,0-4.225,0
	c-0.358,0-0.565-0.297-0.565-0.711c0-0.417,0-2.233,0-2.233h4.375v-1.191h-4.345v-1.997H8.782"/>
<rect x="13.547" y="31.998" width="0.862" height="1.223"/>
<rect x="14.856" y="31.998" width="0.862" height="1.223"/>
<rect x="23.129" y="31.998" width="0.864" height="1.223"/>
<rect x="24.438" y="31.998" width="0.862" height="1.223"/>
<path d="M21.313,33.309h-3.004c-0.269,0.828-0.686,1.636-2.264,2.053v-1.308c0.714-0.149,1.161-1.103,1.281-2.057h5.324
	c0,1.042,0.126,3.004-0.264,4.141c-0.597,1.725-1.519,2.587-3.037,2.973c-1.52,0.389-3.125,0.269-3.125,0.269v-1.219
	c0,0,1.786-0.013,2.71-0.386c1.151-0.471,1.665-0.805,2.01-1.728h-2.993v-1.042h3.261C21.331,34.437,21.313,33.309,21.313,33.309"/>
<path d="M23.248,36.019v-1.131c0,0,1.905,0.029,2.827-0.211c0.924-0.234,1.815-0.654,2.233-1.396
	c0.416-0.745,0.476-1.282,0.476-1.282h1.339c-0.298,1.491-0.445,1.879-0.982,2.445c-0.536,0.562-1.516,1.16-1.516,1.16v3.721h-1.401
	v-3.424C25.212,36.139,24.023,36.076,23.248,36.019"/>
<path d="M30.539,33.4h1.518v-1.314h1.371v1.251h4.493c0,0-0.014,1.703-0.741,2.77c-0.717,1.04-1.402,1.548-2.862,1.548v-1.159
	c0,0,0.709-0.047,1.37-0.524c0.447-0.328,0.567-0.906,0.597-1.295h-2.829v4.704h-1.399v-4.729H30.51L30.539,33.4"/>
<path d="M38.99,31.998h1.339c0,0,0,3.604,0,4.407c0,0.805-0.293,1.823-1.366,2.442c-0.774,0.445-1.192,0.356-1.192,0.356l0.06-1.339
	c0,0,0.657-0.089,0.954-0.863c0.297-0.777,0.178-1.162,0.178-1.908C38.963,34.352,38.99,31.998,38.99,31.998"/>
<path d="M40.865,31.998h1.458v5.509c0,0,0.915,0.022,1.463-0.954c0.417-0.743,0.504-1.756,0.504-1.756h1.194
	c0,0-0.15,1.848-0.809,2.65c-0.652,0.802-1.248,1.725-3.836,1.725L40.865,31.998"/>
<path d="M46.347,28.015c0,1.197,0.97,2.167,2.166,2.167c1.194,0,2.167-0.97,2.167-2.167c0-1.191-0.973-2.164-2.167-2.164
	C47.316,25.851,46.347,26.824,46.347,28.015z M46.581,28.015c0-1.064,0.867-1.933,1.932-1.933s1.933,0.869,1.933,1.933
	c0,1.068-0.867,1.937-1.933,1.937C47.448,29.951,46.581,29.083,46.581,28.015"/>
<path d="M49.566,29.417H49.15l-0.84-1.301h-0.368v1.301h-0.336v-2.862h0.815c0.268,0,0.483,0.066,0.641,0.199
	c0.158,0.129,0.237,0.316,0.237,0.549c0,0.177-0.057,0.329-0.172,0.468c-0.115,0.133-0.274,0.228-0.475,0.278L49.566,29.417z
	 M47.942,27.828h0.42c0.174,0,0.317-0.047,0.426-0.142c0.111-0.098,0.166-0.215,0.166-0.36c0-0.319-0.196-0.48-0.584-0.48h-0.428
	V27.828"/>
<path d="M46.347,37.207c0,1.194,0.97,2.161,2.166,2.161c1.194,0,2.167-0.967,2.167-2.161c0-1.194-0.973-2.167-2.167-2.167
	C47.316,35.04,46.347,36.013,46.347,37.207z M46.581,37.207c0-1.068,0.867-1.933,1.932-1.933s1.933,0.865,1.933,1.933
	c0,1.064-0.867,1.933-1.933,1.933C47.448,39.14,46.581,38.271,46.581,37.207"/>
<path d="M49.566,38.606H49.15l-0.84-1.298h-0.368v1.298h-0.336v-2.859h0.815c0.268,0,0.483,0.063,0.641,0.199
	c0.158,0.129,0.237,0.312,0.237,0.549c0,0.171-0.057,0.329-0.172,0.464c-0.115,0.133-0.274,0.228-0.475,0.278L49.566,38.606z
	 M47.942,37.021h0.42c0.174,0,0.317-0.05,0.426-0.145c0.111-0.098,0.166-0.212,0.166-0.36c0-0.319-0.196-0.48-0.584-0.48h-0.428
	V37.021"/>
<rect id="_x3C_スライス_x3E__1_" fill="none" width="52" height="41"/>
</svg>
