<?xml version="1.0" encoding="utf-8"?>
<!-- Generator: Adobe Illustrator 23.0.1, SVG Export Plug-In . SVG Version: 6.00 Build 0)  -->
<svg version="1.1" id="レイヤー_1" xmlns="http://www.w3.org/2000/svg" xmlns:xlink="http://www.w3.org/1999/xlink" x="0px"
	 y="0px" viewBox="0 0 50 50" style="enable-background:new 0 0 50 50;" xml:space="preserve">
<style type="text/css">
	.st0{fill:#0461CE;}
</style>
<g>
	<g>
		<g>
			<path class="st0" d="M37.94,34.18H12.06c-0.3,0-0.54-0.24-0.54-0.54V16.36c0-0.3,0.24-0.54,0.54-0.54h25.89
				c0.3,0,0.54,0.24,0.54,0.54v17.29C38.48,33.94,38.24,34.18,37.94,34.18z M12.6,33.1H37.4V16.9H12.6V33.1z"/>
			<path class="st0" d="M37.94,34.24H12.06c-0.33,0-0.6-0.27-0.6-0.6V16.36c0-0.33,0.27-0.6,0.6-0.6h25.89c0.33,0,0.6,0.27,0.6,0.6
				v17.29C38.54,33.97,38.27,34.24,37.94,34.24z M12.06,15.87c-0.27,0-0.48,0.22-0.48,0.48v17.29c0,0.27,0.22,0.48,0.48,0.48h25.89
				c0.27,0,0.48-0.22,0.48-0.48V16.36c0-0.27-0.22-0.48-0.48-0.48H12.06z M37.46,33.16H12.54V16.84h24.92V33.16z M12.65,33.05h24.69
				V16.95H12.65V33.05z"/>
		</g>
		<g>
			<path class="st0" d="M25,29.41c-0.14,0-0.27-0.05-0.38-0.15L11.68,16.75c-0.16-0.15-0.21-0.39-0.13-0.59
				c0.08-0.2,0.28-0.34,0.5-0.34h25.89c0.22,0,0.42,0.13,0.5,0.34c0.08,0.2,0.03,0.44-0.13,0.59L25.38,29.26
				C25.27,29.36,25.14,29.41,25,29.41z M13.39,16.9L25,28.12L36.61,16.9H13.39z"/>
			<path class="st0" d="M25,29.47c-0.16,0-0.3-0.06-0.42-0.17L11.64,16.79c-0.17-0.17-0.23-0.43-0.14-0.65
				c0.09-0.23,0.31-0.37,0.55-0.37h25.89c0.24,0,0.46,0.15,0.55,0.37c0.09,0.23,0.04,0.48-0.14,0.65L25.42,29.3
				C25.3,29.41,25.16,29.47,25,29.47z M12.06,15.87c-0.2,0-0.37,0.12-0.45,0.3c-0.07,0.18-0.03,0.39,0.11,0.53l12.94,12.52
				c0.18,0.17,0.49,0.17,0.67,0L38.28,16.7c0.14-0.14,0.19-0.34,0.11-0.53c-0.07-0.18-0.25-0.3-0.45-0.3H12.06z M25,28.2l-0.04-0.04
				L13.25,16.84h23.5L25,28.2z M13.53,16.95L25,28.05l11.47-11.09H13.53z"/>
		</g>
		<g>
			<path class="st0" d="M37.94,34.18H12.06c-0.22,0-0.41-0.13-0.5-0.33c-0.08-0.2-0.04-0.43,0.11-0.59l8.63-8.75l0.77,0.76
				l-7.73,7.83h23.3l-7.84-7.94l0.77-0.76l8.75,8.86c0.15,0.16,0.2,0.39,0.11,0.59C38.36,34.05,38.16,34.18,37.94,34.18z"/>
			<path class="st0" d="M37.94,34.24H12.06c-0.24,0-0.46-0.14-0.55-0.37c-0.09-0.22-0.04-0.48,0.13-0.65l8.67-8.79l0.85,0.84
				l-7.67,7.77h23.03l-7.78-7.89l0.85-0.84l8.79,8.9c0.17,0.17,0.22,0.43,0.13,0.65C38.4,34.1,38.18,34.24,37.94,34.24z M20.31,24.6
				l-8.59,8.71c-0.14,0.14-0.18,0.35-0.1,0.53c0.08,0.18,0.25,0.3,0.45,0.3h25.89c0.2,0,0.37-0.12,0.45-0.3
				c0.07-0.18,0.03-0.39-0.1-0.53l-8.71-8.82l-0.69,0.68l7.89,8H13.21l0.1-0.1L21,25.28L20.31,24.6z"/>
		</g>
	</g>
	<g>
		<path class="st0" d="M25,49.94C11.25,49.94,0.06,38.75,0.06,25S11.25,0.06,25,0.06S49.94,11.25,49.94,25S38.75,49.94,25,49.94z
			 M25,1.31C11.94,1.31,1.31,11.94,1.31,25S11.94,48.69,25,48.69S48.69,38.06,48.69,25S38.06,1.31,25,1.31z"/>
		<path class="st0" d="M25,50C11.22,50,0,38.78,0,25S11.22,0,25,0s25,11.22,25,25S38.78,50,25,50z M25,0.11
			C11.28,0.11,0.11,11.28,0.11,25S11.28,49.89,25,49.89S49.89,38.72,49.89,25S38.72,0.11,25,0.11z M25,48.74
			C11.91,48.74,1.26,38.09,1.26,25S11.91,1.26,25,1.26S48.74,11.91,48.74,25S38.09,48.74,25,48.74z M25,1.37
			C11.97,1.37,1.37,11.97,1.37,25S11.97,48.63,25,48.63S48.63,38.03,48.63,25S38.03,1.37,25,1.37z"/>
	</g>
</g>
</svg>
