<?xml version="1.0" encoding="utf-8"?>
<!-- Generator: Adobe Illustrator 23.0.1, SVG Export Plug-In . SVG Version: 6.00 Build 0)  -->
<svg version="1.1" id="レイヤー_1" xmlns="http://www.w3.org/2000/svg" xmlns:xlink="http://www.w3.org/1999/xlink" x="0px"
	 y="0px" viewBox="0 0 50 50" style="enable-background:new 0 0 50 50;" xml:space="preserve">
<style type="text/css">
	.st0{fill:#26B7BC;}
</style>
<g>
	<g>
		<path class="st0" d="M31.94,39.49c-0.1,0-0.2,0-0.3,0c-3.16-0.07-8.87-3.45-13.27-7.85c-4.4-4.4-7.78-10.11-7.85-13.27
			c-0.07-3.2,1.06-5.78,3.03-6.9c1.56-0.88,2.4-1.1,3.22-0.82c0.77,0.26,1.32,0.7,1.82,1.48c0.42,0.66,2.96,4.67,3.25,5.21
			c0.74,1.34,0.61,2.35-0.43,3.39c-0.18,0.18-0.4,0.35-0.64,0.53c-0.7,0.54-1.15,0.94-1.12,1.59c0.06,1.19,1.03,2.74,2.89,4.61
			c1.86,1.86,3.41,2.84,4.61,2.89c0.64,0.02,1.05-0.43,1.59-1.12c0.18-0.24,0.36-0.46,0.53-0.64c1.04-1.04,2.06-1.17,3.39-0.43
			c0.53,0.3,4.57,2.85,5.21,3.26c0.78,0.5,1.23,1.04,1.48,1.82c0.27,0.82,0.06,1.66-0.82,3.22C37.45,38.36,35,39.49,31.94,39.49z
			 M16.09,11.77c-0.31,0-0.83,0.16-1.93,0.78c-1.57,0.89-2.47,3.05-2.4,5.79c0.07,2.83,3.35,8.29,7.49,12.42
			c4.13,4.13,9.59,7.42,12.42,7.49c2.76,0.07,4.9-0.83,5.79-2.4c0.85-1.51,0.83-1.92,0.73-2.22c-0.14-0.41-0.36-0.77-0.97-1.16
			c-0.95-0.6-4.69-2.96-5.15-3.22c-0.93-0.52-1.34-0.35-1.91,0.22c-0.14,0.14-0.28,0.32-0.43,0.52c-0.54,0.7-1.3,1.65-2.63,1.61
			c-1.53-0.07-3.31-1.14-5.43-3.26l0,0c-2.12-2.12-3.18-3.89-3.25-5.43c-0.06-1.35,0.9-2.09,1.61-2.63
			c0.19-0.15,0.37-0.28,0.51-0.43c0.57-0.57,0.74-0.98,0.22-1.91c-0.26-0.47-2.68-4.3-3.22-5.14c-0.39-0.62-0.75-0.84-1.16-0.97
			C16.3,11.79,16.21,11.77,16.09,11.77z"/>
		<path class="st0" d="M31.94,39.72c-0.1,0-0.2,0-0.3,0c-3.21-0.07-8.99-3.48-13.43-7.92c-4.44-4.44-7.84-10.21-7.92-13.43
			c-0.08-3.29,1.1-5.94,3.15-7.1c1.63-0.92,2.52-1.14,3.41-0.84c0.83,0.27,1.41,0.75,1.94,1.58c0.39,0.61,2.95,4.67,3.26,5.22
			c0.79,1.42,0.65,2.55-0.46,3.67c-0.19,0.19-0.44,0.38-0.66,0.55c-0.75,0.57-1.06,0.9-1.04,1.4c0.06,1.14,1.01,2.63,2.83,4.46
			c1.82,1.82,3.32,2.77,4.45,2.83c0.01,0,0.02,0,0.03,0c0.48,0,0.83-0.34,1.37-1.04c0.18-0.24,0.37-0.47,0.55-0.66
			c1.11-1.11,2.24-1.25,3.66-0.46c0.54,0.3,4.61,2.87,5.22,3.26c0.83,0.53,1.3,1.11,1.58,1.94c0.3,0.89,0.08,1.78-0.84,3.4
			C37.62,38.54,35.08,39.72,31.94,39.72z M16.09,10.76c-0.6,0-1.33,0.28-2.43,0.91c-1.9,1.07-2.99,3.57-2.92,6.69
			c0.07,3.11,3.42,8.75,7.78,13.11c4.37,4.37,10,7.71,13.11,7.78c0.1,0,0.19,0,0.29,0c2.97,0,5.37-1.09,6.4-2.92
			c0.85-1.49,1.06-2.29,0.81-3.03c-0.24-0.72-0.65-1.23-1.39-1.7c-0.61-0.39-4.67-2.95-5.2-3.25c-1.25-0.69-2.16-0.58-3.12,0.39
			c-0.17,0.17-0.34,0.39-0.51,0.61c-0.53,0.69-0.99,1.21-1.73,1.21c-0.01,0-0.03,0-0.04,0c-1.26-0.06-2.86-1.05-4.76-2.96
			c-1.9-1.9-2.9-3.5-2.96-4.76c-0.04-0.76,0.48-1.22,1.21-1.78c0.21-0.16,0.44-0.34,0.61-0.51c0.97-0.97,1.08-1.87,0.39-3.12
			c-0.29-0.52-2.77-4.45-3.25-5.2c-0.47-0.74-0.97-1.15-1.69-1.39C16.5,10.79,16.31,10.76,16.09,10.76z M31.98,38.47
			c-0.1,0-0.21,0-0.32,0c-2.88-0.07-8.41-3.38-12.58-7.55c-4.17-4.17-7.49-9.69-7.56-12.58c-0.07-2.82,0.88-5.06,2.52-5.99
			c1.26-0.71,1.76-0.8,2.04-0.8c0.15,0,0.27,0.03,0.36,0.06c0.4,0.13,0.83,0.35,1.28,1.07c0.56,0.88,2.96,4.68,3.22,5.16
			c0.58,1.05,0.37,1.56-0.26,2.19c-0.14,0.14-0.31,0.27-0.49,0.41l-0.05,0.04c-0.7,0.54-1.58,1.21-1.52,2.44
			c0.07,1.47,1.11,3.2,3.19,5.28c2.08,2.08,3.8,3.12,5.27,3.19c0.03,0,0.05,0,0.08,0c1.19,0,1.9-0.91,2.36-1.52l0.04-0.05
			c0.14-0.18,0.27-0.35,0.4-0.49c0.63-0.63,1.14-0.84,2.19-0.26c0.47,0.26,4.31,2.68,5.16,3.22c0.72,0.45,0.94,0.88,1.07,1.28
			c0.12,0.36,0.15,0.81-0.75,2.4C36.75,37.54,34.64,38.47,31.98,38.47z M16.09,12c-0.34,0-0.93,0.24-1.82,0.75
			c-1.5,0.85-2.35,2.93-2.29,5.58c0.07,2.78,3.32,8.17,7.42,12.27c4.1,4.1,9.48,7.35,12.27,7.42c2.62,0.06,4.73-0.78,5.58-2.29
			c0.87-1.54,0.77-1.86,0.71-2.03c-0.12-0.38-0.32-0.68-0.88-1.04c-0.95-0.6-4.69-2.96-5.13-3.21c-0.85-0.47-1.15-0.31-1.64,0.18
			c-0.12,0.12-0.24,0.28-0.37,0.44l-0.04,0.05c-0.49,0.64-1.31,1.7-2.73,1.7c-0.03,0-0.06,0-0.09,0c-1.59-0.08-3.42-1.16-5.58-3.32
			c-2.16-2.16-3.25-3.98-3.32-5.58c-0.07-1.47,0.99-2.28,1.7-2.82l0.05-0.04c0.17-0.13,0.32-0.25,0.44-0.37
			c0.49-0.49,0.65-0.79,0.18-1.64c-0.26-0.46-2.67-4.29-3.21-5.13c-0.36-0.56-0.66-0.75-1.04-0.88C16.25,12.02,16.18,12,16.09,12z"
			/>
	</g>
	<g>
		<path class="st0" d="M25,49.77C11.34,49.77,0.23,38.66,0.23,25S11.34,0.23,25,0.23S49.77,11.34,49.77,25S38.66,49.77,25,49.77z
			 M25,1.48C12.03,1.48,1.48,12.03,1.48,25S12.03,48.52,25,48.52S48.52,37.97,48.52,25S37.97,1.48,25,1.48z"/>
		<path class="st0" d="M25,50C11.22,50,0,38.79,0,25S11.22,0,25,0c13.78,0,25,11.22,25,25S38.78,50,25,50z M25,0.46
			C11.47,0.46,0.46,11.47,0.46,25S11.47,49.54,25,49.54S49.54,38.53,49.54,25S38.53,0.46,25,0.46z M25,48.75
			C11.9,48.75,1.25,38.1,1.25,25C1.25,11.9,11.9,1.25,25,1.25C38.1,1.25,48.75,11.9,48.75,25C48.75,38.1,38.1,48.75,25,48.75z
			 M25,1.7C12.16,1.7,1.71,12.16,1.71,25S12.16,48.3,25,48.3c12.84,0,23.29-10.45,23.29-23.29S37.84,1.7,25,1.7z"/>
	</g>
</g>
</svg>
