<?xml version="1.0" encoding="utf-8"?>
<!-- Generator: Adobe Illustrator 26.2.1, SVG Export Plug-In . SVG Version: 6.00 Build 0)  -->
<svg version="1.1" id="圖層_1" xmlns="http://www.w3.org/2000/svg" xmlns:xlink="http://www.w3.org/1999/xlink" x="0px" y="0px"
	 viewBox="0 0 200 200" style="enable-background:new 0 0 200 200;" xml:space="preserve">
<style type="text/css">
	.st0{fill:#FFFFFF;}
</style>
<g>
	<path class="st0" d="M166,60.8l-1.1-1.1C139.3,35.3,106,38,88.5,41.8c-6.1,1.3-12.1,3.1-17.8,5.5c-0.7,0.3-1.4,0.8-1.8,1.5
		c-0.5,0.7-0.7,1.4-0.7,2.2c0,0.8,0.2,1.6,0.6,2.3c0.4,0.7,1,1.3,1.7,1.6c2.7,1.5,4.2,3.1,4.5,4.9c0.4,3.2-2.8,7.2-4.5,8.8
		c-6.4,4.5-12.3,9.7-17.6,15.4c-0.2-0.8-0.5-1.5-0.8-2.3c2.9-1.7,5.2-4.7,6.6-8.8c1.5-4,3.1-12.6-1.2-16.5c-0.9-0.8-2.1-1.3-3.3-1.5
		c-1.2-0.1-2.5,0.1-3.5,0.7c-3.1,1.6-5.7,3.8-7.8,6.6c-2.9-1.5-7.9-3.3-13-1.3c-4.7,1.9-5.3,5.4-5.3,6.8c-0.1,4.5,4.2,8.7,8.2,10.6
		c2.7,1.3,5.8,1.7,8.8,1.3c2.3,3.6,3.7,7.6,4.1,11.8c0,0.3,0.1,0.6,0.1,0.9c-2.2,2.9-4.1,6-5.8,9.2c-1.5-2.4-3.5-4.4-6.1-5.7
		c-2.2-1.1-4.7-1.6-7.2-1.4c-2.5,0.2-4.9,1.1-6.9,2.6c-5.4,3.9-9.7,12.5-7.2,17.8c0.4,0.9,2.7,5.1,8.8,3.5
		c6.6-1.6,10.5-7.2,12.3-10.6c1.2,3.1,1.7,6.4,1.6,9.8c0,0.3,0,0.6,0.1,0.8c-0.3,4.6,0.1,9.3,1.1,13.8c2.2,9.7,8.1,18.2,16.5,23.6
		l0.1,0.1c7.7,4,15.4,5.2,23.1,3.6c5.8-1.3,11.2-4.1,15.7-8c5.9,4.4,12.5,7.8,19.5,10.1c0.1,0,6.9,2.3,19,2.2l0.4,0
		c0.1,0,0.2,0,0.3,0l0.2,0c3.7,0,7.4-0.5,11.1-1.3c26-5.7,44.8-29.6,44.6-56.9C186.6,88.9,178.7,71.6,166,60.8z M40.8,70.2
		c-0.1,0.7-0.2,1.4-0.2,2.1l0,0.7l-0.7,0c-0.2,0-0.5,0-0.7,0c-1.3,0-2.5-0.2-3.6-0.8c-1.6-0.7-2.9-1.9-3.9-3.3l-0.4-0.7L32,68
		c0.1-0.1,0.2-0.1,0.3-0.2c2.9-1.2,6.4,0.5,8.2,1.6l0.4,0.3L40.8,70.2z M28.2,102.9c0,0.1-2.7,7.3-8.4,8.9l-1.2,0.3l0.2-1.2
		c0.7-3.1,2.5-5.9,4.9-7.8c0.8-0.6,1.7-1,2.6-1.2c0.3-0.1,0.7-0.1,1-0.1l1.1-0.1L28.2,102.9z M46.5,70.3c0.9-2.8,2.8-5.3,5.3-7
		l1.1-0.8L53,64c0.1,3.2-0.6,6.3-2.1,9.1c-0.6,1.3-1.6,2.3-2.9,3l-0.7,0.3L47,75.7C46.1,74,45.9,72.1,46.5,70.3z M95.9,134.4
		c-0.9,2.6-2.2,4.9-3.9,7l-0.6,0.7l-0.6-0.7c-3.5-3.8-5.7-8.7-6.4-13.8c0,0-0.4-3.9,1.7-6.3c0.8-0.9,1.9-1.6,3.2-1.9
		c2-0.4,3.9,0.4,5.7,2.6C95.3,122.6,98.1,127.2,95.9,134.4z M140.3,154.6c-3,0.7-6,1-9.1,1.1l-0.4,0c-0.1,0-0.3,0-0.4,0h0
		c-10.4,0.1-16.4-1.7-16.4-1.8c-5.8-1.9-11.3-4.7-16.3-8.2c2.2-2.8,3.9-5.9,5-9.2c3.4-11.1-1.8-18.2-2-18.5l-0.2-0.2
		c-4.8-5.8-10.1-5.7-12.8-5.1c-2.7,0.6-5.1,2-6.9,4.1c-4.2,4.7-3.6,11.1-3.5,11.8c0.8,6.5,3.6,12.7,8,17.6
		c-3.2,2.7-7.1,4.6-11.2,5.6c-5.6,1.2-11.4,0.3-17.1-2.7c-6.3-4.2-10.7-10.7-12.4-18.1c-1.7-7.3-1.2-15,1.4-22.1
		c0.3-0.7,7-17.1,29.3-33c0.1-0.1,0.3-0.2,0.4-0.3c0.9-0.8,8.5-7.9,7.4-16.4c-0.3-2.2-1.1-4.4-2.5-6.2c3.1-1,6.2-1.8,9.5-2.5
		c19.4-4.2,47.1-4.9,68.7,15.7l1.2,1.2l0.1,0.1c0,0,0.1,0.1,0.1,0.1c5.5,4.8,9.9,10.7,12.9,17.3c3.1,6.7,4.8,14.1,4.8,21.5
		C178.3,129.4,162.4,149.8,140.3,154.6z"/>
	<path class="st0" d="M155.4,85.7c-1.4-4.1-3.9-5.3-5.7-5.6c-1.5-0.2-4.5-0.1-7.3,3.6c-0.9,1.2-1.6,2.5-2.2,3.9
		c-2.4-2-5.3-3.4-8.4-4c-1.2-0.2-2.4-0.2-3.5,0.1c-1.1,0.3-2.2,1-3,1.8c-2,2.2-2.4,5.8-1.1,9.6c1,3.1,4.8,10.4,17,13.1
		c-0.1,2.4-0.4,4.8-0.9,7.2c-0.1,0.6-0.1,1.3,0,1.9c0.2,0.6,0.4,1.2,0.8,1.7c0.4,0.5,0.9,0.9,1.5,1.2c0.6,0.3,1.2,0.4,1.8,0.4
		c0.3,0,0.6,0,0.9-0.1c0.8-0.2,1.5-0.6,2.1-1.2c0.6-0.6,1-1.3,1.2-2.1c1-4.2,1.3-8.6,0.9-12.9C152.2,102.1,158.8,95.2,155.4,85.7z
		 M147.6,88.6l0.9-1.5l0.4,1.7c0.3,1.4,0.3,2.8,0,4.2c-0.3,1.4-1,2.6-1.9,3.7l-0.9,1.2l-0.4-1.5C145.1,94,146.5,90.4,147.6,88.6
		L147.6,88.6z M130.5,91.6l-0.2-1.2l1.1,0.3c4.2,1.6,7.7,4.8,9.7,8.9l0.8,1.6l-1.7-0.6c-5.1-1.7-7.5-4.3-8.7-6.2v0
		C131,93.6,130.7,92.6,130.5,91.6L130.5,91.6z"/>
</g>
</svg>
