<svg xmlns="http://www.w3.org/2000/svg" width="60" height="60" viewBox="0 0 60 60">
  <path id="circle-xmark-regular" d="M30,5.625A24.375,24.375,0,1,1,5.625,30,24.375,24.375,0,0,1,30,5.625ZM30,60A30,30,0,1,0,0,30,30,30,0,0,0,30,60ZM20.508,20.508a2.8,2.8,0,0,0,0,3.973l5.508,5.508L20.508,35.5a2.809,2.809,0,0,0,3.973,3.973l5.508-5.508L35.5,39.469A2.809,2.809,0,0,0,39.469,35.5l-5.508-5.508,5.508-5.508A2.809,2.809,0,0,0,35.5,20.508l-5.508,5.508L24.48,20.508A2.8,2.8,0,0,0,20.508,20.508Z" fill="#ff5441"/>
</svg>
