<?xml version="1.0" encoding="utf-8"?>
<!-- Generator: Adobe Illustrator 27.8.1, SVG Export Plug-In . SVG Version: 6.00 Build 0)  -->
<svg version="1.1" id="圖層_1" xmlns="http://www.w3.org/2000/svg" xmlns:xlink="http://www.w3.org/1999/xlink" x="0px" y="0px"
	 viewBox="0 0 146 69" style="enable-background:new 0 0 146 69;" xml:space="preserve">
<style type="text/css">
	.st0{fill:#08BF5B;}
	.st1{fill:#FFFFFF;}
</style>
<g>
	<g>
		<g>
			<path d="M37.7,25H35c-0.4,0-0.8,0.3-0.8,0.8v17c0,0.4,0.3,0.8,0.8,0.8h2.7c0.4,0,0.8-0.3,0.8-0.8v-17C38.5,25.3,38.1,25,37.7,25z
				"/>
			<path d="M31.1,39.3h-7.4V25.7c0-0.4-0.3-0.8-0.8-0.8h-2.7c-0.4,0-0.8,0.3-0.8,0.8v17c0,0.4,0.3,0.8,0.8,0.8h10.9
				c0.4,0,0.8-0.3,0.8-0.8V40C31.9,39.6,31.5,39.3,31.1,39.3z"/>
			<path d="M71.7,29.2c0.4,0,0.8-0.3,0.8-0.8v-2.7c0-0.4-0.3-0.8-0.8-0.8H60.9c-0.4,0-0.8,0.3-0.8,0.8v17c0,0.4,0.3,0.8,0.8,0.8
				h10.9c0.4,0,0.8-0.3,0.8-0.8V40c0-0.4-0.3-0.8-0.8-0.8h-7.4v-2.9h7.4c0.4,0,0.8-0.3,0.8-0.8v-2.7c0-0.4-0.3-0.8-0.8-0.8h-7.4
				v-2.9H71.7z"/>
			<path d="M56.5,25h-2.7c-0.4,0-0.8,0.3-0.8,0.8v9.8l-7.2-10.2C45.6,25.1,45.3,25,45,25c0,0-0.1,0-0.1,0h-2.7
				c-0.4,0-0.8,0.3-0.8,0.8v17c0,0.4,0.3,0.8,0.8,0.8h2.7c0.4,0,0.8-0.3,0.8-0.8V32.5l7.5,10.7c0,0,0.1,0.1,0.1,0.1
				c0.1,0.2,0.3,0.3,0.5,0.3c0,0,0.1,0,0.1,0h2.7c0.4,0,0.8-0.3,0.8-0.8v-17C57.2,25.3,56.9,25,56.5,25z"/>
		</g>
	</g>
	<g>
		<g>
			<g>
				<path class="st0" d="M129.3,50.6h-47c-1.4,0-2.6-1.2-2.6-2.6V20.5c0-1.4,1.2-2.6,2.6-2.6h47c1.4,0,2.6,1.2,2.6,2.6V48
					C131.9,49.4,130.7,50.6,129.3,50.6z"/>
			</g>
		</g>
		<g>
			<path class="st1" d="M98.5,30.6c0,2.9-2.3,5.2-5.3,5.2h-2.3v4.3c0,0.3-0.2,0.5-0.5,0.5H88c-0.3,0-0.5-0.2-0.5-0.5V25.9
				c0-0.3,0.2-0.5,0.5-0.5h5.2C96.2,25.4,98.5,27.8,98.5,30.6z M95,30.6c0-1.1-0.8-1.9-1.8-1.9h-2.3v3.9h2.3
				C94.2,32.6,95,31.7,95,30.6z"/>
			<path class="st1" d="M111.3,30v10.3c0,0.1-0.1,0.3-0.3,0.3h-2.7c-0.1,0-0.3-0.1-0.3-0.3v-0.7c-0.7,0.8-1.8,1.3-3.2,1.3
				c-2.8,0-5.2-2.5-5.2-5.7s2.3-5.7,5.2-5.7c1.4,0,2.5,0.5,3.2,1.3V30c0-0.1,0.1-0.3,0.3-0.3h2.7C111.2,29.8,111.3,29.9,111.3,30z
				 M108.1,35.2c0-1.6-1.1-2.6-2.6-2.6c-1.5,0-2.6,1-2.6,2.6s1.1,2.6,2.6,2.6C107,37.8,108.1,36.8,108.1,35.2z"/>
			<path class="st1" d="M122.1,30l-2.5,6.3l-2.6-6.3c-0.1-0.2-0.2-0.3-0.4-0.3h-2.8c-0.2,0-0.3,0.2-0.2,0.4l4.3,10.5l-1.6,3.9
				c-0.1,0.2,0.1,0.4,0.2,0.4h2.8c0.2,0,0.3-0.1,0.4-0.3l5.8-14.5c0.1-0.2-0.1-0.4-0.2-0.4h-2.8C122.4,29.8,122.2,29.9,122.1,30z"/>
		</g>
	</g>
</g>
</svg>
