<?xml version="1.0" encoding="UTF-8"?>
<svg id="Layer_1" data-name="Layer 1" xmlns="http://www.w3.org/2000/svg" viewBox="0 0 255.12 385.32">
  <g>
    <g>
      <path d="m26.86,384.88v-2.96h-.06c-.53,1.1-1.3,1.95-2.31,2.53-1.01.58-2.13.87-3.36.87-1.04,0-1.92-.14-2.66-.43-.73-.29-1.33-.69-1.78-1.22-.46-.53-.79-1.18-1-1.95-.21-.77-.32-1.63-.32-2.61v-10.66h2.01v10.7c.04,1.49.39,2.61,1.03,3.37.65.76,1.77,1.15,3.36,1.15.87,0,1.61-.19,2.23-.56.62-.38,1.12-.87,1.53-1.48.4-.61.7-1.32.89-2.11.19-.8.29-1.61.29-2.44v-8.63h2.01v16.43h-1.85Z"/>
      <path d="m47.85,368.45v2.83h.06c.38-1,1.06-1.8,2.04-2.4.98-.6,2.05-.91,3.22-.91s2.11.15,2.88.44c.77.3,1.4.72,1.86,1.26.47.54.8,1.21.98,1.99.19.78.29,1.67.29,2.64v10.57h-2.01v-10.25c0-.7-.06-1.35-.19-1.96-.13-.6-.35-1.12-.67-1.57-.31-.45-.74-.8-1.29-1.05-.54-.25-1.22-.38-2.02-.38s-1.53.14-2.15.43c-.63.28-1.16.68-1.59,1.17-.43.5-.77,1.09-1.02,1.78-.24.69-.38,1.44-.39,2.25v9.58h-2.01v-16.43h2.01Z"/>
      <path d="m78.38,362.15v3.21h-2.01v-3.21h2.01Zm0,6.3v16.43h-2.01v-16.43h2.01Z"/>
      <path d="m105.67,370.71c-.75-.7-1.78-1.05-3.12-1.05-.95,0-1.79.2-2.51.6-.72.41-1.32.94-1.8,1.6-.48.65-.84,1.4-1.08,2.24-.24.84-.36,1.69-.36,2.56s.12,1.73.36,2.56c.24.84.6,1.59,1.08,2.25.48.66,1.08,1.19,1.8,1.59.72.41,1.56.61,2.51.61.62,0,1.2-.12,1.75-.35.55-.23,1.04-.56,1.46-.97.42-.41.78-.91,1.05-1.48.28-.57.45-1.2.51-1.88h2c-.27,2-1.01,3.55-2.2,4.66-1.19,1.12-2.72,1.67-4.59,1.67-1.25,0-2.36-.23-3.33-.68-.97-.46-1.78-1.08-2.43-1.86-.66-.79-1.16-1.71-1.5-2.75-.34-1.06-.51-2.17-.51-3.37s.17-2.31.51-3.36c.34-1.05.84-1.97,1.5-2.75.66-.79,1.47-1.41,2.43-1.88.97-.47,2.08-.7,3.33-.7,1.76,0,3.25.47,4.48,1.4,1.22.93,1.95,2.35,2.18,4.24h-2c-.28-1.23-.79-2.2-1.53-2.9Z"/>
      <path d="m127.35,368.45v3.85h.06c.51-1.33,1.3-2.37,2.37-3.09,1.07-.72,2.35-1.05,3.84-.99v2.01c-.92-.04-1.74.08-2.49.36-.74.28-1.38.69-1.92,1.23-.54.53-.96,1.16-1.26,1.89-.29.73-.45,1.54-.45,2.4v8.76h-2.01v-16.43h1.85Z"/>
      <path d="m149.81,379.45c.2.77.52,1.47.97,2.08.44.62,1,1.13,1.69,1.53.68.41,1.49.61,2.45.61,1.47,0,2.61-.39,3.44-1.15.83-.76,1.4-1.78,1.72-3.05h2c-.42,1.87-1.2,3.31-2.34,4.33-1.13,1.02-2.75,1.52-4.83,1.52-1.3,0-2.42-.23-3.35-.68-.95-.46-1.72-1.08-2.31-1.88-.6-.8-1.03-1.72-1.33-2.77-.29-1.05-.43-2.16-.43-3.33,0-1.08.14-2.14.43-3.18.29-1.03.73-1.97,1.33-2.78.59-.82,1.36-1.48,2.31-1.98.94-.49,2.06-.75,3.35-.75s2.44.27,3.38.8c.94.53,1.7,1.22,2.28,2.09.58.85,1,1.84,1.25,2.96.25,1.11.36,2.24.32,3.39h-12.64c0,.72.1,1.47.31,2.25Zm9.93-6.13c-.25-.7-.59-1.32-1.04-1.86-.44-.54-.98-.98-1.63-1.31-.63-.33-1.35-.49-2.16-.49s-1.56.16-2.19.49c-.64.33-1.18.77-1.62,1.31-.44.54-.8,1.17-1.07,1.88-.26.71-.44,1.43-.53,2.18h10.63c-.02-.76-.15-1.5-.4-2.2Z"/>
      <path d="m178.64,370.99c.34-.7.8-1.27,1.38-1.71.59-.45,1.28-.78,2.06-.99.78-.22,1.65-.32,2.61-.32.72,0,1.45.07,2.17.21.72.14,1.37.39,1.94.77.57.39,1.04.92,1.4,1.61.36.69.54,1.59.54,2.69v8.73c0,.81.39,1.21,1.18,1.21.23,0,.44-.04.63-.13v1.69c-.23.04-.44.07-.62.1-.18.02-.4.03-.68.03-.51,0-.92-.07-1.23-.2-.31-.14-.55-.34-.72-.59-.17-.25-.27-.56-.33-.91-.05-.35-.08-.74-.08-1.16h-.06c-.36.53-.73,1-1.1,1.41-.37.42-.79.76-1.25,1.04-.45.27-.97.49-1.56.63-.58.15-1.28.22-2.08.22s-1.49-.09-2.15-.27c-.67-.18-1.25-.46-1.75-.85-.5-.4-.9-.9-1.18-1.5-.28-.6-.43-1.32-.43-2.15,0-1.14.26-2.04.77-2.69.5-.65,1.18-1.13,2.02-1.48.84-.34,1.78-.58,2.83-.72,1.06-.14,2.12-.27,3.2-.39.43-.05.8-.1,1.11-.17.32-.06.59-.17.8-.33.22-.16.38-.38.49-.65.12-.28.18-.64.18-1.09,0-.68-.11-1.23-.34-1.67-.22-.43-.53-.77-.92-1.03-.4-.25-.85-.43-1.37-.53-.52-.09-1.08-.14-1.67-.14-1.27,0-2.32.31-3.12.91-.81.61-1.24,1.58-1.28,2.91h-2c.06-.95.26-1.78.6-2.49Zm10.03,4.91c-.13.24-.37.41-.73.51-.36.1-.68.18-.95.22-.85.15-1.72.28-2.63.4-.91.12-1.72.29-2.47.53-.74.23-1.35.57-1.83,1-.48.43-.72,1.06-.72,1.86,0,.51.1.96.3,1.35.2.39.48.73.81,1.01.34.29.74.51,1.18.65.44.15.9.23,1.37.23.76,0,1.49-.12,2.19-.35.69-.23,1.31-.57,1.83-1.02.52-.45.93-.99,1.24-1.63.31-.64.47-1.35.47-2.16v-2.61h-.06Z"/>
      <path d="m214.65,368.45v1.69h-3.34v11.08c0,.66.09,1.17.27,1.54.18.38.63.58,1.35.62.57,0,1.15-.03,1.72-.1v1.69c-.3,0-.59.01-.89.03-.3.02-.6.04-.89.04-1.34,0-2.27-.26-2.8-.79-.53-.52-.79-1.48-.76-2.88v-11.24h-2.87v-1.69h2.87v-4.94h2v4.94h3.34Z"/>
      <path d="m232.4,379.45c.2.77.53,1.47.97,2.08.45.62,1.01,1.13,1.69,1.53.68.41,1.5.61,2.45.61,1.47,0,2.61-.39,3.44-1.15.82-.76,1.4-1.78,1.72-3.05h2c-.43,1.87-1.21,3.31-2.34,4.33-1.14,1.02-2.74,1.52-4.83,1.52-1.29,0-2.41-.23-3.36-.68-.95-.46-1.71-1.08-2.31-1.88-.59-.8-1.03-1.72-1.32-2.77-.28-1.05-.43-2.16-.43-3.33,0-1.08.15-2.14.43-3.18.29-1.03.73-1.97,1.32-2.78.6-.82,1.37-1.48,2.31-1.98.95-.49,2.06-.75,3.36-.75s2.44.27,3.38.8c.93.53,1.69,1.22,2.27,2.09.59.85,1.01,1.84,1.27,2.96.25,1.11.36,2.24.31,3.39h-12.65c0,.72.1,1.47.3,2.25Zm9.94-6.13c-.24-.7-.59-1.32-1.03-1.86-.44-.54-.99-.98-1.62-1.31-.64-.33-1.36-.49-2.17-.49s-1.56.16-2.2.49c-.63.33-1.18.77-1.62,1.31-.44.54-.8,1.17-1.06,1.88-.26.71-.44,1.43-.53,2.18h10.64c-.02-.76-.16-1.5-.4-2.2Z"/>
    </g>
    <g>
      <path d="m205.43,305.19l1.01-.94c.84-.77,1.76-1.49,2.73-2.11l.29-.16v-18.92c0-6.05-4.16-11.41-9.96-12.98v-.16h-.61s-.05,0-.09,0l-.12-.02h0c-.37-.09-.64-.43-.64-.8v-17.99c0-1.11-.89-2.02-2-2.02s-1.99.91-1.99,2.02v17.99c0,.37-.26.69-.59.79l-.18.03s-.05,0-.09,0l-.6.05v.11c-5.8,1.57-9.98,6.93-9.98,12.98v44.68c0,1.13.91,2.01,2.03,2.01s2.01-.88,2.01-2.01v-44.68c0-4.2,2.82-7.9,6.84-9.03.33.11.56.41.56.77v75.79c0,1.11.9,2.02,1.99,2.02s2-.92,2-2.02v-75.79c0-.36.24-.66.57-.77,4.02,1.14,6.82,4.84,6.82,9.03v22.13Z"/>
      <path d="m247.41,304.32h-14.27c-.49,0-.86-.38-.86-.84v-29.26c0-.29.17-.57.43-.72,9.54-1.19,16.75-9.32,16.75-18.93v-.65h-.08c-.28-.79-1.02-1.38-1.91-1.38s-1.65.58-1.91,1.38h-.11v.62c0,7.23-5.16,13.47-12.28,14.82h-.04c-.49,0-.86-.38-.86-.84v-17.42c0-1.11-.9-2.02-2-2.02s-2.02.91-2.02,2.02v52.38c0,.46-.37.84-.84.84h-14.27c-4.25,0-7.72,3.45-7.72,7.69v32.85c0,4.26,3.47,7.73,7.72,7.73h34.26c4.26,0,7.71-3.47,7.71-7.73v-32.85c0-4.25-3.45-7.69-7.71-7.69Zm0,44.21h-34.26c-2.03,0-3.69-1.63-3.69-3.66v-32.85c0-2,1.67-3.68,3.69-3.68h34.26c2,0,3.63,1.59,3.68,3.6v33.01c-.06,1.99-1.69,3.58-3.68,3.58Z"/>
      <path d="m69.07,269.63H21.98c-.44,0-.81-.34-.83-.8v-17.73c0-1.11-.91-2.02-2.03-2.02s-2,.91-2,2.02v17.7c-.02.44-.4.82-.86.82h-5.7c-5.84,0-10.57,4.75-10.57,10.59s4.73,10.56,10.57,10.56,10.58-4.76,10.58-10.56v-5.79c.02-.41.37-.76.76-.78h47.16c1.12,0,2.03-.89,2.03-2s-.91-2.02-2.03-2.02Zm-58.5,17.11h0c-3.61,0-6.54-2.94-6.54-6.52s2.93-6.57,6.54-6.57h5.76c.41.04.77.38.79.77v5.8c0,1.73-.68,3.36-1.92,4.61-1.24,1.26-2.89,1.91-4.63,1.91Z"/>
      <path d="m94.72,282.86h65.67c1.11,0,2.01-.89,2.01-2.01s-.9-1.99-2.01-1.99h-65.67c-1.11,0-2.03.89-2.03,1.99s.92,2.01,2.03,2.01Z"/>
      <path d="m41.96,282.04c-13.72,0-24.84,11.13-24.84,24.84v43.69c0,1.11.89,2.02,2,2.02s2.03-.92,2.03-2.02v-17.62c0-.99.81-1.8,1.77-1.8h38.05c.99,0,1.79.81,1.79,1.8v11.91c0,2.03-1.64,3.66-3.68,3.66h-.61v.13c-.81.27-1.38,1.01-1.38,1.91,0,1.58,1.48,1.95,1.96,2.02h.67v-.05c3.94-.31,7.07-3.68,7.07-7.68v-37.99c0-13.72-11.13-24.84-24.82-24.84Zm-19.04,26.3h38.05c.99,0,1.79.8,1.79,1.79v15.22c0,.97-.8,1.78-1.79,1.78H22.92c-.96,0-1.77-.82-1.77-1.78v-15.22h0c0-.99.81-1.79,1.77-1.79Zm19.04-22.27c10.08,0,18.86,7.47,20.52,17.41-.33.52-.91.84-1.52.84H22.92c-.63,0-1.17-.32-1.49-.84,1.63-9.94,10.43-17.41,20.54-17.41Z"/>
      <path d="m100.86,251.7c.87,10.55,8.57,19.61,18.92,22.12h.03c.13.02.25.03.35.03.55,0,1.02-.23,1.35-.63.26-.34.4-.77.4-1.29,0-1.34-1.32-1.96-1.84-2.1h0c-8.48-2.35-14.61-9.89-15.23-18.69v-.06c-.01-1.11-.91-2.01-2.01-2.01s-1.99.87-2.02,1.96v.66h.04Z"/>
      <path d="m134.93,273.86h0c.1,0,.23,0,.34-.03h.07c10.35-2.51,18.03-11.57,18.9-22.12h.06v-.6l-.04-.06c0-1.09-.91-1.96-1.99-1.96s-1.98.9-2.02,2.01v.06c-.62,8.8-6.74,16.34-15.23,18.69h0c-.53.14-1.86.76-1.86,2.1,0,1.13.74,1.92,1.76,1.92Z"/>
      <path d="m121.92,289.78c0-1.13-.71-1.9-1.75-1.9-.1,0-.22,0-.35.02l-.03.02c-10.35,2.48-18.05,11.53-18.92,22.1h-.04v.66c.03,1.08.92,1.93,2.02,1.93s1.99-.86,2.01-1.93v-.08c.62-8.84,6.75-16.36,15.23-18.72h0c.52-.13,1.84-.76,1.84-2.1Z"/>
      <path d="m150.26,310.59v.08c.03,1.07.91,1.93,2.02,1.93s1.99-.85,1.99-1.93h.04l-.04-.66h-.02c-.88-10.57-8.55-19.62-18.9-22.1l-.07-.02c-.1-.02-.23-.02-.34-.02-1.02,0-1.76.77-1.76,1.9,0,1.34,1.33,1.97,1.86,2.1h0c8.49,2.36,14.61,9.88,15.23,18.72Z"/>
      <path d="m160.53,348.53c-.79-.16-2.12-.63-2.58-1.1-.67-.67-1.02-1.53-1.02-2.49v-20.8l-.02-.61h-.05c-.5-3.61-3.64-6.41-7.36-6.41h-43.85c-3.74,0-6.87,2.8-7.37,6.41h-.09v21.41c0,.95-.35,1.82-1.03,2.49-.46.47-1.8.94-2.55,1.1-1.09.06-1.95.95-1.95,2.04s.9,2.02,2,2.02h65.79c1.11,0,2-.92,2-2.02s-.85-1.98-1.92-2.04Zm-59.42.13c.65-1.12.99-2.38.99-3.72v-20.37c0-1.94,1.6-3.54,3.53-3.54h10.03c.43,0,.79.35.79.81v26.01c0,.47-.36.8-.79.8h-14.56Zm19.26-.8v-26.01c0-.46.36-.81.78-.81h12.79c.44,0,.78.35.78.81v26.01c0,.47-.34.8-.78.8h-12.79c-.42,0-.78-.33-.78-.8Zm33.62.8h-14.58c-.41,0-.77-.33-.77-.8v-26.01c0-.46.36-.81.77-.81h10.07c1.92,0,3.51,1.6,3.51,3.54v20.37c0,1.34.36,2.59,1,3.72Z"/>
    </g>
  </g>
  <g>
    <path d="m55.97,158.18c-4.56,0-8.23-1.59-11.05-3.6-9.55-2.23-18.82-26.75-20.21-36.63-2.8-32.23,10.87-65.62,36.58-89.36C85.45,6.31,115.99-3.67,145.07,1.22c7.21,1.27,14.31,4.73,21.18,8.07,11.38,5.54,22.13,10.76,33.31,6.96l3.54-1.2-2.66,2.63c-9.79,9.67-22.74,9.55-35.26,9.44-5.3-.05-10.79-.1-15.87.63-22.2,3.34-38.76,20.33-45.42,46.63-1.27,5-2.32,10.89-3.43,17.13-3.43,19.23-7.71,43.16-21.54,55.56-9.28,8.32-16.9,11.12-22.95,11.12ZM130.43,1.72c-24.03,0-48.17,9.87-67.96,28.14-25.32,23.38-38.79,56.24-36.04,87.9,1.34,9.58,10.64,33.48,19.03,35.18l.18.04.15.11c10.89,7.91,23.41.39,31.99-7.3,13.39-12.01,17.61-35.62,21-54.59,1.12-6.27,2.18-12.19,3.46-17.25,6.83-27,23.9-44.46,46.83-47.91,5.21-.74,10.76-.69,16.13-.64,11.02.11,22.38.2,31.32-6.58-10.6,1.95-20.96-3.09-31.02-7.98-6.76-3.29-13.75-6.69-20.72-7.92-4.76-.8-9.55-1.19-14.35-1.19Z"/>
    <path d="m230.07,140.72l-1.71-.17c1.39-13.86-.29-27.67-4.86-39.95l1.61-.6c4.65,12.52,6.37,26.6,4.96,40.72Z"/>
    <path d="m227.65,176.22c-.26,0-.52-.07-.76-.22-.67-.4-.97-1.25-.73-2.05,2.39-7.97,2.32-15.64,2.23-25.36-.02-2.5-.05-5.14-.03-7.96h1.72c-.01,2.82.01,5.46.03,7.95.09,9.73.16,17.44-2.2,25.54,4.97-5.93,15.06-36.74,5.93-88.59-1.41-8.03-4.64-17.44-8.63-25.17-3.38-6.54-8.9-15.02-16.05-18.28-4.46-2.03-8.99-1.7-13.46.99l-.17.1-.19.02c-5.69.58-8.91,7.42-10.04,13.64-1.14,6.32.06,12.79,1.62,19.99l.04.18c1.45,6.67,2.95,13.57,1.96,20.43-1.36,9.39-7.04,16.88-12.53,24.11-.76,1-1.52,2-2.26,3-6.19,8.33-9.39,15.65-9.73,22.31,3.79-10.01,15.15-19.78,20.82-24.65l1.33-1.14c11.53-9.83,16.17-18.72,13.77-26.43l1.64-.51c2.62,8.42-2.2,17.93-14.3,28.25l-1.32,1.14c-5.98,5.14-18.41,15.83-21.01,26.1-.17.67-.76,1.11-1.42,1.04-.67-.06-1.18-.62-1.22-1.32-.41-7.7,2.88-16.14,10.07-25.8.74-1,1.51-2,2.27-3.01,5.36-7.06,10.91-14.37,12.2-23.32.95-6.56-.52-13.3-1.93-19.82l-.04-.18c-1.6-7.38-2.83-14.03-1.63-20.66,1.22-6.77,4.85-14.22,11.36-15.02,4.93-2.91,9.94-3.25,14.89-.99,13.34,6.07,23.04,29.8,25.66,44.71,9.61,54.58-1.62,85.46-6.8,90.54-.31.3-.69.46-1.08.46Z"/>
    <path d="m57.01,174.95c-.29,0-.63-.05-1.01-.19-1.82-.65-2.35-1.38-3.64-3.14-.21-.29-.44-.6-.71-.96-2.75-3.68-8.42-15.15-8.16-17.01l1.7.24c0,1.36,4.95,11.89,7.83,15.75.27.36.51.68.72.97,1.25,1.71,1.51,2.06,2.84,2.54.33.12.53.11.59.05.14-.14.31-.82-.09-2.04-.16-.48-.76-.89-1.39-1.32-.71-.48-1.44-.98-1.86-1.76-.1-.2-.38-.6-.69-1.07-1.41-2.08-4.33-6.42-4.97-10.64l1.7-.26c.58,3.84,3.36,7.96,4.69,9.94.37.55.64.94.78,1.21.22.41.75.78,1.32,1.16.8.55,1.71,1.17,2.05,2.2.55,1.67.42,3.06-.34,3.8-.23.23-.67.53-1.36.53Z"/>
    <path d="m71.01,40.97l-1.43-.95c2.78-4.19,2.96-12.31,1.15-15.77l1.52-.8c2.07,3.96,1.98,12.66-1.24,17.52Z"/>
    <path d="m41.94,119.67c-.54-6.22-1.45-16.63-10.9-24.16l1.07-1.34c10.03,7.99,10.97,18.86,11.54,25.35l-1.71.15Z"/>
    <path d="m48.16,89.35l-1.6-.63c2.84-7.16,9.3-15.07,16.88-20.63,8.94-6.56,18.37-9.2,26.57-7.43l-.36,1.68c-17.05-3.68-36.27,13.83-41.49,27.02Z"/>
    <path d="m139.54,20.03c-11.98-7.46-21.95-10.25-40.26-3.69l-.58-1.62c18.97-6.8,29.31-3.9,41.75,3.85l-.91,1.46Z"/>
    <path d="m46.14,153.85l-1.71-.14c.71-8.64,4.25-17.87,9.7-25.34,5.8-7.94,13.08-13.04,20.51-14.35l.3,1.69c-12.57,2.22-27.14,18.07-28.79,38.14Z"/>
    <path d="m197.86,67.22c-1.28,0-2.57-.15-3.83-.45l.4-1.67c6.22,1.5,13.08-1.25,17.08-6.84l1.4,1c-3.6,5.03-9.32,7.96-15.05,7.96Z"/>
    <path d="m200.53,82.07c-1.66,0-3.32-.19-4.95-.58l.4-1.67c8.26,1.99,17.38-1.66,22.69-9.08l1.4,1c-4.67,6.52-12.1,10.34-19.53,10.34Z"/>
    <path d="m197.89,215.48c-.46,0-.89-.25-1.13-.68-3.83-6.89-2.02-16.48.7-22.59,1.96-4.28,4.71-8.36,7.37-12.31,4.64-6.89,9.42-13.99,10.01-22.23-10.73,23.88-29.75,42.82-51.52,51.1-29.46,11.2-63.89,3.57-87.72-19.44-.54-.52-.59-1.36-.1-1.95.44-.54,1.18-.64,1.75-.24,12.9,9.03,30.73,14.96,48.92,16.28,18.31,1.33,34.82-2.11,46.8-9.72-12.29-1.88-20.27.07-26.75,1.65-2.13.52-4.14,1.01-6.01,1.28-4.03.57-8.18.85-12.2,1.13l-2.5.17c-3.63.27-8.62-2.08-12.18-5.69-.46-.47-.48-1.2-.06-1.69.4-.47,1.06-.56,1.57-.2,5.48,3.8,14.22,3.11,20.44.73,11.59-4.75,21.37-5.8,29.22-6.65,8.6-.93,15.4-1.66,20.88-6.63,7.39-6.71,14.29-20.18,17.33-29.88-5.26,10.41-15.53,17.54-24.77,21.08-3.81,1.46-8.28,2.28-13.03,3.16-10.57,1.95-21.49,3.96-27.5,13.1-.36.55-1.03.75-1.62.5-.62-.26-.95-.95-.8-1.62,1.76-7.6,8.23-14.18,17.3-17.61,3.49-1.32,7.15-2.22,10.68-3.08,4.78-1.17,9.73-2.39,14.21-4.67,11.9-6.06,22.8-27.79,19.58-47.81l1.7-.27c2.75,17.1-5.44,41.95-20.5,49.62-4.66,2.37-9.7,3.61-14.58,4.8-3.48.85-7.08,1.74-10.48,3.02-7.73,2.92-13.43,8.22-15.66,14.42,6.62-8.28,17.6-10.3,27.35-12.1,4.66-.86,9.07-1.67,12.72-3.07,11.46-4.39,24.52-14.45,26.85-29.52l.68-4.41,1.01,4.34c1.58,6.81-8.1,31.07-19.32,41.26-5.89,5.36-12.93,6.11-21.85,7.07-8.15.88-17.4,1.87-28.78,6.53-4.97,1.9-12.08,3.02-18.01,1.07,2.57,1.66,5.37,2.62,7.48,2.47l2.5-.17c3.99-.27,8.11-.55,12.08-1.11,1.79-.25,3.66-.71,5.84-1.24,6.64-1.62,15.72-3.84,29.59-1.31l2.03.37-1.69,1.18c-12.42,8.66-30.06,12.64-49.7,11.21-16.86-1.22-33.44-6.36-46.2-14.24,23.18,20.35,55.26,26.76,82.87,16.27,22.47-8.54,41.96-28.69,52.14-53.9l1.31-3.25.34,3.49c1.03,10.61-4.7,19.12-10.25,27.36-2.62,3.89-5.33,7.92-7.23,12.06-2.31,5.2-3.95,13.04-1.62,19.19.05-9.88,6.49-17.97,12.21-25.17.97-1.22,1.93-2.43,2.85-3.63,8.65-11.7,14.3-26.89,15.89-42.76l1.71.17c-1.62,16.17-7.38,31.66-16.22,43.62-.94,1.22-1.9,2.44-2.88,3.67-6.2,7.8-12.62,15.87-11.76,26,.05.65-.33,1.23-.93,1.42-.12.04-.25.06-.37.06Zm-84.03-23.73s0,0,0,0c0,0,0,0,0,0Z"/>
    <path d="m44.44,153.95c-4.71-22.43-3.32-47.81,3.91-71.46,7.36-24.07,20.39-44.88,36.69-58.59,17.07-14.36,45.91-28.09,86.38-11.98l-.64,1.6c-39.68-15.79-67.93-2.35-84.64,11.7-16.05,13.5-28.89,34.02-36.15,57.78-7.15,23.38-8.52,48.45-3.87,70.61l-1.68.35Z"/>
    <path d="m195.19,47.71c-.44,0-.87-.08-1.25-.26-.61-.28-1.06-.76-1.27-1.36-.48-1.41.49-3.08,2.19-3.81.96-.41,1.97-.44,2.78-.07.61.28,1.07.76,1.27,1.36.48,1.41-.49,3.09-2.19,3.81-.51.22-1.03.33-1.54.33Zm1.21-4.04c-.27,0-.57.06-.86.19-.9.38-1.4,1.2-1.24,1.68.05.15.17.27.34.35.37.16.91.13,1.41-.08h0c.9-.38,1.4-1.2,1.24-1.68-.05-.15-.17-.27-.34-.35-.16-.07-.34-.11-.55-.11Z"/>
  </g>
</svg>