<svg xmlns="http://www.w3.org/2000/svg" xmlns:xlink="http://www.w3.org/1999/xlink" width="80" height="80" viewBox="0 0 80 80">
  <defs>
    <clipPath id="clip-path">
      <rect id="Rectangle_1" data-name="Rectangle 1" width="26.41" height="57.211" fill="none"/>
    </clipPath>
    <clipPath id="clip-icon-freezing-01">
      <rect width="80" height="80"/>
    </clipPath>
  </defs>
  <g id="icon-freezing-01" clip-path="url(#clip-icon-freezing-01)">
    <g id="Group_2" data-name="Group 2" transform="translate(27 11.367)">
      <g id="Group_1" data-name="Group 1" transform="translate(0 0)" clip-path="url(#clip-path)">
        <path id="Path_1" data-name="Path 1" d="M11.156,13.842H7.542c0-1.136-.007-2.247.012-3.359a.384.384,0,0,1,.258-.263c1.111-.018,2.224-.012,3.345-.012Z" transform="translate(9.841 13.323)" fill="#5d6042"/>
        <path id="Path_2" data-name="Path 2" d="M14.1,0a9.667,9.667,0,0,1,3.266,1.206A7.671,7.671,0,0,1,21.027,7.63c.055,1.521.012,10.659.012,12.217H17.38c0-1.332.023-2.63-.012-3.928-.016-.609-.069-8.847-.24-9.423a4.122,4.122,0,0,0-4.507-2.78,4.165,4.165,0,0,0-3.55,3.757c-.021.316-.032.632-.032.95q0,13.077.012,26.158a1.2,1.2,0,0,1-.648,1.2A9.459,9.459,0,0,0,3.8,42.449a9.542,9.542,0,0,0,18.745,3.557,9.4,9.4,0,0,0-4.474-10.193,1.275,1.275,0,0,1-.7-1.279c.03-3.522.014.567.014-2.953v-.687h3.663v.625c0,2.981.007-1.648,0,1.332a.963.963,0,0,0,.38.851,12.966,12.966,0,0,1,4.958,11.4,13.21,13.21,0,1,1-22.924-9.97,16.13,16.13,0,0,1,1.514-1.4,1.025,1.025,0,0,0,.417-.892Q5.367,20.457,5.373,8.077A7.779,7.779,0,0,1,8.68,1.459,7.3,7.3,0,0,1,12,.1a1.971,1.971,0,0,0,.311-.1Z" transform="translate(0.001 0.001)" fill="#5d6042"/>
        <path id="Path_3" data-name="Path 3" d="M7.222,14h3.644v.733c0,9.389,0-4.258-.009,5.131a.874.874,0,0,0,.6.947,5.576,5.576,0,0,1,3.416,5.143,5.519,5.519,0,0,1-2.937,5.216,5.46,5.46,0,0,1-6.166-.226A5.54,5.54,0,0,1,3.26,25.286a5.562,5.562,0,0,1,3.416-4.5.789.789,0,0,0,.556-.862c-.012-9.407-.009,4.221-.009-5.187V14" transform="translate(4.165 18.267)" fill="#5d6042"/>
      </g>
    </g>
  </g>
</svg>
