<svg xmlns="http://www.w3.org/2000/svg" xmlns:xlink="http://www.w3.org/1999/xlink" width="80" height="80" viewBox="0 0 80 80">
  <defs>
    <clipPath id="clip-path">
      <rect id="Rectangle_13" data-name="Rectangle 13" width="59.176" height="47.408" fill="none"/>
    </clipPath>
    <clipPath id="clip-path-2">
      <rect id="Rectangle_12" data-name="Rectangle 12" width="59.175" height="47.409" fill="none"/>
    </clipPath>
    <clipPath id="clip-icon-freezing-05">
      <rect width="80" height="80"/>
    </clipPath>
  </defs>
  <g id="icon-freezing-05" clip-path="url(#clip-icon-freezing-05)">
    <g id="Group_30" data-name="Group 30" transform="translate(10.412 16.296)">
      <g id="Group_29" data-name="Group 29" clip-path="url(#clip-path)">
        <g id="Group_28" data-name="Group 28" transform="translate(0 -0.001)">
          <g id="Group_27" data-name="Group 27" clip-path="url(#clip-path-2)">
            <g id="Group_26" data-name="Group 26" transform="translate(0 0.001)" style="mix-blend-mode: multiply;isolation: isolate">
              <g id="Group_25" data-name="Group 25" transform="translate(0 0)">
                <g id="Group_24" data-name="Group 24" clip-path="url(#clip-path)">
                  <path id="Path_16" data-name="Path 16" d="M39.155,4.633q-16.552,0-33.106,0c-1.019,0-1.42.413-1.425,1.448,0,.65,0,29.559,0,30.594,0,1.072.4,1.473,1.455,1.473q16.528,0,33.051,0c1.033,0,1.438-.4,1.438-1.434V6.035c0-.984-.422-1.4-1.413-1.4M31.838,6.955c-.6.793-1.139,1.521-1.706,2.227-.067.085-.284.071-.431.071-4.737,0-9.474.007-14.209-.012a.977.977,0,0,1-.648-.332c-.5-.6-.95-1.242-1.487-1.955ZM38.228,35.8H6.964V6.945c1.118,0,2.213-.014,3.3.014.148,0,.323.175.429.313.9,1.178,1.8,2.356,2.669,3.554a1.644,1.644,0,0,0,1.459.747q7.769-.021,15.543,0a1.633,1.633,0,0,0,1.457-.745c.86-1.185,1.761-2.337,2.623-3.52a.809.809,0,0,1,.765-.373c1,.023,1.992.009,3.015.009Zm.927-31.163q-16.552,0-33.106,0c-1.019,0-1.42.413-1.425,1.448,0,.65,0,29.559,0,30.594,0,1.072.4,1.473,1.455,1.473q16.528,0,33.051,0c1.033,0,1.438-.4,1.438-1.434V6.035c0-.984-.422-1.4-1.413-1.4M31.838,6.955c-.6.793-1.139,1.521-1.706,2.227-.067.085-.284.071-.431.071-4.737,0-9.474.007-14.209-.012a.977.977,0,0,1-.648-.332c-.5-.6-.95-1.242-1.487-1.955ZM38.228,35.8H6.964V6.945c1.118,0,2.213-.014,3.3.014.148,0,.323.175.429.313.9,1.178,1.8,2.356,2.669,3.554a1.644,1.644,0,0,0,1.459.747q7.769-.021,15.543,0a1.633,1.633,0,0,0,1.457-.745c.86-1.185,1.761-2.337,2.623-3.52a.809.809,0,0,1,.765-.373c1,.023,1.992.009,3.015.009Zm.927-31.163q-16.552,0-33.106,0c-1.019,0-1.42.413-1.425,1.448,0,.65,0,29.559,0,30.594,0,1.072.4,1.473,1.455,1.473q16.528,0,33.051,0c1.033,0,1.438-.4,1.438-1.434V6.035c0-.984-.422-1.4-1.413-1.4M31.838,6.955c-.6.793-1.139,1.521-1.706,2.227-.067.085-.284.071-.431.071-4.737,0-9.474.007-14.209-.012a.977.977,0,0,1-.648-.332c-.5-.6-.95-1.242-1.487-1.955ZM38.228,35.8H6.964V6.945c1.118,0,2.213-.014,3.3.014.148,0,.323.175.429.313.9,1.178,1.8,2.356,2.669,3.554a1.644,1.644,0,0,0,1.459.747q7.769-.021,15.543,0a1.633,1.633,0,0,0,1.457-.745c.86-1.185,1.761-2.337,2.623-3.52a.809.809,0,0,1,.765-.373c1,.023,1.992.009,3.015.009ZM57.741.009Q29.6.009,1.457,0A1.506,1.506,0,0,0,0,.818V46.586a1.566,1.566,0,0,0,1.574.821c2.464-.032,4.931-.009,7.395-.012,1.028,0,1.429-.408,1.434-1.441s0-2.075,0-3.146H48.774c0,1.072,0,2.125,0,3.179,0,.984.422,1.406,1.406,1.406q3.786.007,7.57,0c1.017,0,1.422-.415,1.422-1.45q0-22.247,0-44.5c0-1.033-.4-1.438-1.434-1.438M8.045,45.042H2.337V42.8H8.045Zm48.783.03h-5.7V42.811h5.7Zm.012-4.643H2.36V2.36H56.84ZM4.624,36.674c0,1.072.4,1.473,1.455,1.473q16.528,0,33.051,0c1.033,0,1.438-.4,1.438-1.434V6.035c0-.984-.422-1.4-1.413-1.4q-16.552,0-33.106,0c-1.019,0-1.42.413-1.425,1.448,0,.65,0,29.559,0,30.594M31.838,6.955c-.6.793-1.139,1.521-1.706,2.227-.067.085-.284.071-.431.071-4.737,0-9.474.007-14.209-.012a.977.977,0,0,1-.648-.332c-.5-.6-.95-1.242-1.487-1.955ZM6.964,6.945c1.118,0,2.213-.014,3.3.014.148,0,.323.175.429.313.9,1.178,1.8,2.356,2.669,3.554a1.644,1.644,0,0,0,1.459.747q7.769-.021,15.543,0a1.633,1.633,0,0,0,1.457-.745c.86-1.185,1.761-2.337,2.623-3.52a.809.809,0,0,1,.765-.373c1,.023,1.992.009,3.015.009V35.8H6.964ZM39.155,4.633q-16.552,0-33.106,0c-1.019,0-1.42.413-1.425,1.448,0,.65,0,29.559,0,30.594,0,1.072.4,1.473,1.455,1.473q16.528,0,33.051,0c1.033,0,1.438-.4,1.438-1.434V6.035c0-.984-.422-1.4-1.413-1.4M31.838,6.955c-.6.793-1.139,1.521-1.706,2.227-.067.085-.284.071-.431.071-4.737,0-9.474.007-14.209-.012a.977.977,0,0,1-.648-.332c-.5-.6-.95-1.242-1.487-1.955ZM38.228,35.8H6.964V6.945c1.118,0,2.213-.014,3.3.014.148,0,.323.175.429.313.9,1.178,1.8,2.356,2.669,3.554a1.644,1.644,0,0,0,1.459.747q7.769-.021,15.543,0a1.633,1.633,0,0,0,1.457-.745c.86-1.185,1.761-2.337,2.623-3.52a.809.809,0,0,1,.765-.373c1,.023,1.992.009,3.015.009Zm.927-31.163q-16.552,0-33.106,0c-1.019,0-1.42.413-1.425,1.448,0,.65,0,29.559,0,30.594,0,1.072.4,1.473,1.455,1.473q16.528,0,33.051,0c1.033,0,1.438-.4,1.438-1.434V6.035c0-.984-.422-1.4-1.413-1.4M31.838,6.955c-.6.793-1.139,1.521-1.706,2.227-.067.085-.284.071-.431.071-4.737,0-9.474.007-14.209-.012a.977.977,0,0,1-.648-.332c-.5-.6-.95-1.242-1.487-1.955ZM38.228,35.8H6.964V6.945c1.118,0,2.213-.014,3.3.014.148,0,.323.175.429.313.9,1.178,1.8,2.356,2.669,3.554a1.644,1.644,0,0,0,1.459.747q7.769-.021,15.543,0a1.633,1.633,0,0,0,1.457-.745c.86-1.185,1.761-2.337,2.623-3.52a.809.809,0,0,1,.765-.373c1,.023,1.992.009,3.015.009Z" transform="translate(0 0)" fill="#5d6042"/>
                  <path id="Path_17" data-name="Path 17" d="M30.162,8.272a5.775,5.775,0,1,1-5.767-5.76,5.775,5.775,0,0,1,5.767,5.76m-2.312.037A3.463,3.463,0,1,0,20.923,8.3a3.5,3.5,0,0,0,3.465,3.458A3.456,3.456,0,0,0,27.85,8.309" transform="translate(24.29 3.278)" fill="#5d6042"/>
                  <path id="Path_18" data-name="Path 18" d="M22.916,12.331a1.14,1.14,0,0,1-1.134,1.13,1.153,1.153,0,1,1-.012-2.305,1.138,1.138,0,0,1,1.146,1.176" transform="translate(26.909 14.559)" fill="#5d6042"/>
                  <path id="Path_19" data-name="Path 19" d="M22.916,14.32A1.137,1.137,0,0,1,21.8,15.465a1.152,1.152,0,1,1,.014-2.3,1.137,1.137,0,0,1,1.1,1.157" transform="translate(26.909 17.178)" fill="#5d6042"/>
                  <path id="Path_20" data-name="Path 20" d="M22.916,10.284a1.138,1.138,0,0,1-1.15,1.171,1.153,1.153,0,1,1,.021-2.305,1.138,1.138,0,0,1,1.13,1.134" transform="translate(26.909 11.942)" fill="#5d6042"/>
                  <path id="Path_21" data-name="Path 21" d="M8.045,8.107v6.669c0,2,.77,3.022,2.1,3.022,1.378,0,2.135-.97,2.135-3.022V8.107H14.9v6.505c0,3.578-1.81,5.276-4.843,5.276-2.925,0-4.633-1.623-4.633-5.306V8.107Z" transform="translate(7.079 10.581)" fill="#5d6042"/>
                  <path id="Path_22" data-name="Path 22" d="M14,19.7,10.28,8.107h2.87l1.4,4.908c.406,1.378.756,2.692,1.047,4.138h.035c.3-1.392.668-2.771,1.063-4.1L18.17,8.107h2.787L17.059,19.7Z" transform="translate(13.417 10.581)" fill="#5d6042"/>
                </g>
              </g>
            </g>
          </g>
        </g>
      </g>
    </g>
  </g>
</svg>
