<svg xmlns="http://www.w3.org/2000/svg" xmlns:xlink="http://www.w3.org/1999/xlink" width="80" height="80" viewBox="0 0 80 80">
  <defs>
    <clipPath id="clip-path">
      <rect id="Rectangle_14" data-name="Rectangle 14" width="67.579" height="67.139" fill="none"/>
    </clipPath>
    <clipPath id="clip-icon-freezing-06">
      <rect width="80" height="80"/>
    </clipPath>
  </defs>
  <g id="icon-freezing-06" clip-path="url(#clip-icon-freezing-06)">
    <g id="Group_32" data-name="Group 32" transform="translate(9.21 6.207)">
      <g id="Group_31" data-name="Group 31" transform="translate(0 0)" clip-path="url(#clip-path)">
        <path id="Path_23" data-name="Path 23" d="M1.684,27.294q.124-1.214.254-2.425c.095-.394.191-.786.281-1.18a15.906,15.906,0,0,1,5.346-8.833A23.289,23.289,0,0,1,17.3,10.229,49.031,49.031,0,0,1,29.588,9a80.817,80.817,0,0,1,12.247,1.132,22.5,22.5,0,0,1,2.347.475,1.292,1.292,0,0,1,.664,2.084,14.67,14.67,0,0,0-2.427,4.2,83.46,83.46,0,0,0-4.158,13.9,24.328,24.328,0,0,1-2.734,7.171,16.276,16.276,0,0,1-6.387,6.2,18.22,18.22,0,0,1-10.832,1.853A28.76,28.76,0,0,1,7.722,42.57c-.8-.438-1.6-.906-2.407-1.367a3.949,3.949,0,0,0-.219.35Q3.907,43.88,2.722,46.212c-.044.085-.076.175-.118.26A1.359,1.359,0,0,1,.783,47.2a1.336,1.336,0,0,1-.625-1.858c.913-1.839,1.835-3.674,2.821-5.477A1.943,1.943,0,0,0,3.2,38.213a34.446,34.446,0,0,1-1.45-8c-.055-.97-.044-1.946-.062-2.916m11.807,3.564a26.289,26.289,0,0,0,7.955,2.022c.781.065,1.57.044,2.354.1a1.319,1.319,0,0,1,1.215,1.378,1.338,1.338,0,0,1-1.272,1.293c-.62.018-1.245.012-1.865-.028A28.351,28.351,0,0,1,11.9,33.1a.459.459,0,0,0-.652.136c-.821.991-1.683,1.946-2.485,2.948-.692.862-1.325,1.773-2,2.679.111.083.171.134.235.175A29.612,29.612,0,0,0,16.108,42.9a18.576,18.576,0,0,0,8.566.09A13.054,13.054,0,0,0,31.2,39.239a16.618,16.618,0,0,0,3.882-7.04c.634-2.224,1.116-4.49,1.7-6.729a66.656,66.656,0,0,1,3.331-10.041c.053-.118.085-.244.145-.41A82.374,82.374,0,0,0,26.276,21.4c.4.134.712.244,1.03.341a16.854,16.854,0,0,0,3.926.585,1.3,1.3,0,0,1,1.236,1.431,1.33,1.33,0,0,1-1.429,1.247,17.024,17.024,0,0,1-7.319-1.766.584.584,0,0,0-.5.039c-1.973,1.408-3.967,2.789-5.885,4.267-1.316,1.012-2.524,2.165-3.847,3.31m-8.079,5.21c.083-.081.122-.115.157-.154C6.915,34.287,8.263,32.665,9.6,31.03a.739.739,0,0,0,.131-.479,19.35,19.35,0,0,1,.929-7.531c.35-1.076.793-2.125,1.236-3.17a1.338,1.338,0,0,1,2.563.579,2.448,2.448,0,0,1-.251.846,19.861,19.861,0,0,0-1.77,6.507c-.009.113,0,.228,0,.417.717-.636,1.365-1.229,2.033-1.8a67.1,67.1,0,0,1,7.374-5.459.688.688,0,0,0,.337-.546c.15-1.028.29-2.065.53-3.075a14.95,14.95,0,0,1,.779-2.259,1.309,1.309,0,0,1,1.752-.724,1.357,1.357,0,0,1,.728,1.759c-.074.205-.18.4-.244.6-.224.715-.436,1.431-.655,2.146.037.023.071.046.106.067a94.085,94.085,0,0,1,13.951-6.461c-2.685-.293-5.355-.539-8.031-.682a49.53,49.53,0,0,0-9.758.438,25.756,25.756,0,0,0-10.378,3.506,13.485,13.485,0,0,0-6.3,9.557,21.121,21.121,0,0,0-.231,4.654,33.108,33.108,0,0,0,.98,6.143" transform="translate(0.001 11.746)" fill="#5d6042"/>
        <path id="Path_24" data-name="Path 24" d="M30.788,30.457a1.153,1.153,0,0,1-1.123-.89C28.128,23.019,27.1,22,20.553,20.453a1.151,1.151,0,0,1,0-2.241c6.551-1.54,7.572-2.563,9.112-9.112a1.2,1.2,0,0,1,2.245,0c1.542,6.549,2.563,7.572,9.112,9.112a1.15,1.15,0,0,1,0,2.241c-6.553,1.542-7.575,2.566-9.114,9.114a1.151,1.151,0,0,1-1.123.89M25.007,19.333a8.542,8.542,0,0,1,5.781,5.784,8.545,8.545,0,0,1,5.784-5.784,8.538,8.538,0,0,1-5.784-5.781,8.534,8.534,0,0,1-5.781,5.781" transform="translate(25.666 10.853)" fill="#5c6042"/>
        <path id="Path_25" data-name="Path 25" d="M22.93,16.025a1.151,1.151,0,0,1-1.123-.89C20.763,10.7,20.2,10.126,15.752,9.08a1.15,1.15,0,0,1,0-2.241C20.2,5.792,20.763,5.223,21.807.783a1.2,1.2,0,0,1,2.245,0c1.044,4.44,1.609,5.009,6.056,6.056a1.151,1.151,0,0,1,0,2.241c-4.447,1.047-5.011,1.616-6.056,6.056a1.153,1.153,0,0,1-1.123.89M19.836,7.959A5.863,5.863,0,0,1,22.93,11.05a5.848,5.848,0,0,1,3.093-3.091A5.848,5.848,0,0,1,22.93,4.868a5.863,5.863,0,0,1-3.093,3.091" transform="translate(19.397 0)" fill="#5c6042"/>
        <path id="Path_26" data-name="Path 26" d="M24.156,38.2h0a1.156,1.156,0,0,1-1.123-.89c-1.044-4.442-1.609-5.011-6.053-6.056a1.15,1.15,0,0,1,0-2.241c4.444-1.047,5.009-1.616,6.053-6.058a1.2,1.2,0,0,1,2.245,0c1.047,4.442,1.611,5.011,6.058,6.058a1.15,1.15,0,0,1,0,2.241c-4.444,1.044-5.009,1.614-6.056,6.056a1.151,1.151,0,0,1-1.123.89m-3.091-8.066a5.836,5.836,0,0,1,3.091,3.091,5.848,5.848,0,0,1,3.093-3.091,5.86,5.86,0,0,1-3.093-3.093,5.848,5.848,0,0,1-3.091,3.093" transform="translate(20.999 28.94)" fill="#5c6042"/>
      </g>
    </g>
  </g>
</svg>
