<svg xmlns="http://www.w3.org/2000/svg" xmlns:xlink="http://www.w3.org/1999/xlink" width="80" height="80" viewBox="0 0 80 80">
  <defs>
    <clipPath id="clip-path">
      <rect id="Rectangle_7" data-name="Rectangle 7" width="58.705" height="58.674" fill="none"/>
    </clipPath>
    <clipPath id="clip-path-2">
      <rect id="Rectangle_6" data-name="Rectangle 6" width="58.704" height="58.675" fill="none"/>
    </clipPath>
    <clipPath id="clip-icon-freezing-03">
      <rect width="80" height="80"/>
    </clipPath>
  </defs>
  <g id="icon-freezing-03" clip-path="url(#clip-icon-freezing-03)">
    <g id="Group_16" data-name="Group 16" transform="translate(10.648 4.959)">
      <g id="Group_15" data-name="Group 15" clip-path="url(#clip-path)">
        <g id="Group_14" data-name="Group 14" transform="translate(0 -0.001)">
          <g id="Group_13" data-name="Group 13" clip-path="url(#clip-path-2)">
            <g id="Group_12" data-name="Group 12" transform="translate(0 0.001)" style="mix-blend-mode: multiply;isolation: isolate">
              <g id="Group_11" data-name="Group 11" transform="translate(0 0)">
                <g id="Group_10" data-name="Group 10" clip-path="url(#clip-path)">
                  <path id="Path_5" data-name="Path 5" d="M0,10.19a2.072,2.072,0,0,1,2.229-1.3C7.257,9.03,12.27,8.705,17.284,8.4a184.724,184.724,0,0,1,22.622-.081c5.565.339,11.129.74,16.714.59,1.461-.039,2.084.622,2.084,2.088V45.209c0,1.5-.627,2.162-2.114,2.123-6.065-.157-12.1.341-18.148.657a173.491,173.491,0,0,1-18.614-.03c-5.834-.32-11.664-.807-17.517-.609A2.179,2.179,0,0,1,0,46.076ZM47.87,43.941V12.285a209.514,209.514,0,0,0-37.025,0V43.935a207.985,207.985,0,0,0,37.025.007m-44.39-.085H7.314V12.364H3.481Zm47.91,0h3.833V12.366H51.39Z" transform="translate(0 10.45)" fill="#5d6042"/>
                  <path id="Path_6" data-name="Path 6" d="M14.815,0c2.307,1.189,3.573,5.376.927,8.266a2.283,2.283,0,0,0-.68,2.441,3.182,3.182,0,0,0,.535.869,1.736,1.736,0,0,1-.088,2.469,1.755,1.755,0,0,1-2.5-.207,5.575,5.575,0,0,1-.041-7.6,2.3,2.3,0,0,0,.705-2.386,2.9,2.9,0,0,0-.507-.881A1.723,1.723,0,0,1,13.775.106.532.532,0,0,0,13.9,0Z" transform="translate(14.995 0)" fill="#5d6042"/>
                  <path id="Path_7" data-name="Path 7" d="M22,5.149a5.61,5.61,0,0,1-1.45,3.907,2.233,2.233,0,0,0-.106,3.393,1.717,1.717,0,0,1-2.6,2.247,5.624,5.624,0,0,1-.122-7.641c1.111-1.24,1.139-2.109.1-3.439A1.721,1.721,0,0,1,18,1.242a1.694,1.694,0,0,1,2.377.09A5.409,5.409,0,0,1,22,5.149" transform="translate(21.259 1.042)" fill="#5d6042"/>
                  <path id="Path_8" data-name="Path 8" d="M6.7,10.73a5.486,5.486,0,0,1,1.448-3.7,2.234,2.234,0,0,0,.108-3.393,1.742,1.742,0,0,1,.129-2.381,1.712,1.712,0,0,1,2.42.085A5.637,5.637,0,0,1,11.092,8.9c-.111.131-.231.256-.341.385a2.163,2.163,0,0,0-.035,3.008A1.728,1.728,0,1,1,8.126,14.55,5.5,5.5,0,0,1,6.7,10.73" transform="translate(8.745 1.044)" fill="#5d6042"/>
                  <path id="Path_9" data-name="Path 9" d="M19.015,13.356a6.787,6.787,0,0,1,.655-.788,1.712,1.712,0,0,1,2.381.051,1.732,1.732,0,0,1,.06,2.344,1,1,0,0,1-.2.207,3.024,3.024,0,0,0-1.284,3.16,17.192,17.192,0,0,1,.014,2.052c1.157-.673,2.243-1.291,3.31-1.939.12-.071.166-.288.212-.449.136-.475.244-.961.385-1.436a1.714,1.714,0,1,1,3.329.816c-.06.3-.143.59-.228.938.313.092.62.177.922.274a1.71,1.71,0,0,1-.717,3.34,1.009,1.009,0,0,1-.334-.074,3.027,3.027,0,0,0-3.382.468,17.4,17.4,0,0,1-1.759,1.035c.9.526,1.766.984,2.579,1.521a1.727,1.727,0,0,0,1.708.224,7.267,7.267,0,0,1,.991-.281,1.717,1.717,0,1,1,.883,3.317c-.288.092-.579.173-.89.263.088.364.18.694.244,1.028a1.718,1.718,0,0,1-1.153,1.987A1.7,1.7,0,0,1,24.637,30.4a7.628,7.628,0,0,1-.4-1.429,1.333,1.333,0,0,0-.791-1.023c-.917-.5-1.812-1.033-2.8-1.6,0,1.312-.007,2.526.012,3.739a.752.752,0,0,0,.233.426c.353.378.733.728,1.088,1.1a1.733,1.733,0,0,1,.053,2.51,1.711,1.711,0,0,1-2.464-.067,5.041,5.041,0,0,1-.512-.685h-.263a5.54,5.54,0,0,1-.595.763,1.706,1.706,0,0,1-2.381-.012,1.734,1.734,0,0,1-.025-2.43.353.353,0,0,1,.041-.041,3.324,3.324,0,0,0,1.383-3.518A15.373,15.373,0,0,1,17.2,26.4c-.168.074-.3.122-.42.189a12.24,12.24,0,0,1-1.146.648,3.5,3.5,0,0,0-2.379,2.948,1.628,1.628,0,0,1-2.111,1.247A1.733,1.733,0,0,1,9.97,29.31c.065-.3.143-.588.224-.908-.337-.1-.648-.182-.952-.281a1.719,1.719,0,0,1-1.2-2.065,1.741,1.741,0,0,1,1.975-1.268.791.791,0,0,1,.224.051,3.182,3.182,0,0,0,3.587-.509,16.939,16.939,0,0,1,1.648-.973c-1.134-.652-2.194-1.277-3.276-1.872a.869.869,0,0,0-.549.021c-.484.115-.957.27-1.438.385a1.75,1.75,0,0,1-2.167-1.2,1.729,1.729,0,0,1,1.277-2.114c.272-.083.546-.159.86-.251-.085-.364-.177-.708-.242-1.058a1.7,1.7,0,0,1,3.264-.922c.2.537.284,1.111.479,1.646a1.307,1.307,0,0,0,.5.632c.954.588,1.939,1.134,3.02,1.757a21.582,21.582,0,0,1,.016-2.39,2.78,2.78,0,0,0-1.072-2.63c-1.049-.9-1.12-1.959-.355-2.736s1.775-.664,2.757.3c.108.106.221.207.466.436" transform="translate(10.431 15.801)" fill="#5d6042"/>
                </g>
              </g>
            </g>
          </g>
        </g>
      </g>
    </g>
  </g>
</svg>
