<svg xmlns="http://www.w3.org/2000/svg" xmlns:xlink="http://www.w3.org/1999/xlink" width="80" height="80" viewBox="0 0 80 80">
  <defs>
    <clipPath id="clip-path">
      <rect id="Rectangle_4" data-name="Rectangle 4" width="56.619" height="56.619" fill="none"/>
    </clipPath>
    <clipPath id="clip-path-2">
      <rect id="Rectangle_3" data-name="Rectangle 3" width="56.618" height="56.618" fill="none"/>
    </clipPath>
    <clipPath id="clip-icon-freezing-02">
      <rect width="80" height="80"/>
    </clipPath>
  </defs>
  <g id="icon-freezing-02" clip-path="url(#clip-icon-freezing-02)">
    <g id="Group_9" data-name="Group 9" transform="translate(11.691 11.592)">
      <g id="Group_8" data-name="Group 8" clip-path="url(#clip-path)">
        <g id="Group_7" data-name="Group 7" transform="translate(0 0)">
          <g id="Group_6" data-name="Group 6" clip-path="url(#clip-path-2)">
            <g id="Group_5" data-name="Group 5" transform="translate(0 0)" style="mix-blend-mode: multiply;isolation: isolate">
              <g id="Group_4" data-name="Group 4" transform="translate(0 0)">
                <g id="Group_3" data-name="Group 3" clip-path="url(#clip-path)">
                  <path id="Path_4" data-name="Path 4" d="M54.742,26.848c-.477.035-.959.007-1.436,0-.108,0-.244.023-.3-.088-.088-.164.085-.217.168-.3.6-.6,1.224-1.176,1.793-1.8a1.524,1.524,0,0,0,.009-2.185,1.506,1.506,0,0,0-2.165.168c-1.176,1.169-2.4,2.294-3.5,3.534-.821.929-1.763.629-2.738.581.615-.712,1.272-1.351,1.913-2.005a1.56,1.56,0,0,0,.542-1.436,1.349,1.349,0,0,0-.989-1.153,1.481,1.481,0,0,0-1.531.367c-1.307,1.323-2.635,2.63-3.942,3.953a1.153,1.153,0,0,1-.878.378c-3.04-.009-6.081,0-9.124-.009-.168,0-.415.088-.484-.136-.053-.168.154-.274.27-.39,2.121-2.125,4.251-4.246,6.367-6.378a1.264,1.264,0,0,1,.982-.394c1.657.014,3.317.009,4.977,0a4.305,4.305,0,0,0,.878-.074,1.466,1.466,0,0,0,1.21-1.547,1.422,1.422,0,0,0-1.475-1.353c-.7-.016-1.4.007-2.1-.012-.265-.007-.662.148-.763-.1s.29-.42.473-.611A1.935,1.935,0,0,1,44.466,15c1.692.071,3.391.028,5.085.018A1.585,1.585,0,0,0,51.3,13.5c-.016-.892-.675-1.452-1.729-1.459-.775,0-1.549,0-2.324,0-.1,0-.256-.009-.3-.074-.1-.141.067-.224.148-.311.424-.459.874-.9,1.279-1.374a1.372,1.372,0,0,0-.122-2.022,1.371,1.371,0,0,0-1.985.028c-.42.39-.811.807-1.219,1.206-.1.1-.2.274-.355.221-.2-.069-.122-.286-.124-.44-.009-.848.014-1.7-.018-2.543a1.436,1.436,0,0,0-1.146-1.385,1.475,1.475,0,0,0-1.567.678,1.964,1.964,0,0,0-.256,1.063c0,1.491-.065,2.99.025,4.477a2.531,2.531,0,0,1-1.053,2.43c-.129.092-.221.318-.394.249-.21-.083-.12-.323-.122-.5-.012-.848.014-1.7-.018-2.545a1.4,1.4,0,0,0-1.3-1.353A1.486,1.486,0,0,0,37.161,10.9a3.226,3.226,0,0,0-.111.929c0,1.678-.009,3.354.009,5.032a1.368,1.368,0,0,1-.44,1.074c-2.107,2.088-4.2,4.193-6.3,6.288-.124.124-.244.364-.426.3-.233-.081-.131-.353-.131-.542-.007-2.987,0-5.973-.012-8.958A1.328,1.328,0,0,1,30.17,14c1.289-1.263,2.559-2.549,3.836-3.824a1.49,1.49,0,0,0-.2-2.4,1.479,1.479,0,0,0-1.833.247c-.581.539-1.123,1.118-1.692,1.669-.131.129-.219.353-.528.3A8.8,8.8,0,0,0,29.748,9a1.9,1.9,0,0,1,.7-1.7c1.231-1.169,2.411-2.386,3.605-3.589a1.5,1.5,0,0,0,.309-1.773,1.468,1.468,0,0,0-1.6-.728,1.8,1.8,0,0,0-.982.581c-.551.542-1.093,1.1-1.637,1.648-.074.076-.134.212-.254.182-.161-.041-.129-.205-.129-.327-.007-.59,0-1.18-.009-1.768a1.447,1.447,0,1,0-2.891-.009c-.012.569,0,1.141-.007,1.713,0,.141.051.332-.122.39-.141.046-.205-.127-.293-.214-.6-.6-1.176-1.224-1.807-1.789a1.509,1.509,0,0,0-2.181.044,1.5,1.5,0,0,0,.182,2.123c1.155,1.164,2.261,2.386,3.5,3.46.945.825.7,1.782.7,2.773-.281-.023-.373-.2-.5-.325-.542-.528-1.065-1.072-1.609-1.6a1.551,1.551,0,0,0-1.339-.526,1.347,1.347,0,0,0-1.2.931,1.47,1.47,0,0,0,.332,1.586c1.321,1.312,2.63,2.637,3.953,3.944a1.207,1.207,0,0,1,.39.927c-.012,3.024,0,6.046-.009,9.071,0,.173.085.422-.122.493s-.307-.166-.431-.29q-3.171-3.164-6.339-6.33a1.25,1.25,0,0,1-.406-.975c.014-1.678.009-3.354,0-5.032a4.274,4.274,0,0,0-.083-.876A1.461,1.461,0,0,0,17.95,9.843,1.424,1.424,0,0,0,16.583,11.3c-.018.59.007,1.18-.012,1.77-.012.378.175.966-.1,1.083-.3.131-.542-.44-.841-.664a1.582,1.582,0,0,1-.615-1.443c.037-1.6.014-3.206.009-4.811a3.392,3.392,0,0,0-.071-.765,1.5,1.5,0,0,0-1.544-1.162,1.452,1.452,0,0,0-1.351,1.431c-.032.793-.007,1.586-.016,2.379,0,.189.071.4-.113.595a4.543,4.543,0,0,1-.77-.7c-.274-.247-.539-.5-.821-.74a1.394,1.394,0,0,0-2.068.065,1.393,1.393,0,0,0,.083,2.068c.383.4.781.781,1.169,1.178.095.1.27.187.177.362-.069.129-.231.09-.353.09-.867.007-1.733-.016-2.6.016A1.449,1.449,0,0,0,5.313,13.4a1.5,1.5,0,0,0,1.157,1.547,3.063,3.063,0,0,0,.712.071c1.455,0,2.918.081,4.366-.023a2.6,2.6,0,0,1,2.473,1.083c.088.113.274.2.228.353-.06.207-.279.134-.431.136-.867.009-1.733-.014-2.6.016a1.4,1.4,0,0,0-1.372,1.337,1.482,1.482,0,0,0,1.093,1.533,3.328,3.328,0,0,0,.931.1c1.676,0,3.354.009,5.032-.007a1.316,1.316,0,0,1,1.023.426c2.075,2.093,4.168,4.175,6.247,6.263.145.145.44.27.332.509-.088.2-.369.1-.562.1-2.93,0-5.862-.007-8.792.014a1.6,1.6,0,0,1-1.261-.528c-1.259-1.3-2.547-2.561-3.826-3.838a1.448,1.448,0,0,0-1.639-.281,1.328,1.328,0,0,0-.846,1.256,1.672,1.672,0,0,0,.59,1.321c.528.542,1.07,1.07,1.6,1.609.1.108.293.184.21.452a8.607,8.607,0,0,0-.975,0,1.9,1.9,0,0,1-1.7-.7c-1.166-1.229-2.383-2.411-3.589-3.605a1.5,1.5,0,0,0-1.773-.307,1.467,1.467,0,0,0-.726,1.6,1.794,1.794,0,0,0,.581.982c.544.551,1.1,1.093,1.648,1.637.076.074.214.134.182.254-.041.159-.205.127-.327.129-.59.007-1.18,0-1.77.007a1.447,1.447,0,1,0-.007,2.891c.569.014,1.141,0,1.713.009.141,0,.332-.053.39.122.044.141-.129.2-.217.293-.6.6-1.224,1.176-1.786,1.807a1.507,1.507,0,0,0,.044,2.181,1.5,1.5,0,0,0,2.123-.182c1.164-1.157,2.386-2.264,3.46-3.5.825-.947,1.782-.7,2.773-.7-.025.281-.2.373-.325.5-.542.556-1.111,1.081-1.63,1.657a1.531,1.531,0,0,0-.025,2.229,1.582,1.582,0,0,0,2.176-.2c1.279-1.275,2.561-2.549,3.829-3.836a1.155,1.155,0,0,1,.878-.376c3.04.009,6.083,0,9.124.007.159,0,.378-.067.461.092.113.217-.131.316-.249.433-2.121,2.13-4.251,4.248-6.367,6.381a1.267,1.267,0,0,1-.982.394c-1.678-.014-3.354-.009-5.032,0A4.122,4.122,0,0,0,11,37.14a1.459,1.459,0,0,0-1.157,1.535,1.41,1.41,0,0,0,1.422,1.346c.885.025,1.77.007,2.653.016.138,0,.387-.062.316.228a3.309,3.309,0,0,1-1.793,1.314c-1.807,0-3.612,0-5.419.007a1.572,1.572,0,0,0-1.715,1.5c0,.894.664,1.471,1.708,1.48.756,0,1.512,0,2.266,0,.138,0,.337-.071.394.1.055.157-.131.244-.226.348-.4.431-.821.846-1.2,1.293a1.375,1.375,0,0,0,.095,2.024,1.38,1.38,0,0,0,2.026-.037c.39-.367.754-.758,1.141-1.127.122-.118.224-.36.436-.258.168.078.095.3.1.456.007.793,0,1.586.007,2.379a1.456,1.456,0,0,0,.876,1.418,1.505,1.505,0,0,0,2.093-1.512c.025-1.531.085-3.066-.018-4.587a2.6,2.6,0,0,1,1.081-2.473c.124-.092.205-.316.4-.214.148.076.09.267.092.408.007.867-.014,1.733.016,2.6a1.4,1.4,0,0,0,1.332,1.378,1.486,1.486,0,0,0,1.538-1.088,3.424,3.424,0,0,0,.1-.931c0-1.7.007-3.391,0-5.087a1.2,1.2,0,0,1,.385-.929q3.195-3.178,6.378-6.367c.122-.12.228-.364.431-.265.187.092.1.334.1.509,0,3.006,0,6.009.009,9.013a1.258,1.258,0,0,1-.406.977c-1.325,1.3-2.637,2.628-3.953,3.946a1.449,1.449,0,0,0-.286,1.639,1.325,1.325,0,0,0,1.254.848,1.672,1.672,0,0,0,1.323-.585c.539-.528,1.067-1.07,1.609-1.6.106-.1.182-.29.406-.231a6.181,6.181,0,0,1,.051.987,1.879,1.879,0,0,1-.692,1.7c-1.242,1.18-2.437,2.411-3.642,3.628a1.488,1.488,0,0,0-.3,1.683,1.443,1.443,0,0,0,1.455.8,1.72,1.72,0,0,0,1.15-.595c.562-.556,1.113-1.127,1.671-1.69.062-.06.15-.148.217-.141.138.016.129.159.131.265,0,.5.035,1,0,1.494a1.668,1.668,0,0,0,1.123,1.874h.664c1.06-.242,1.342-.539,1.374-1.457.009-.293,0-.588.009-.883,0-.177-.069-.417.138-.5s.316.145.447.265a10.258,10.258,0,0,0,1.508,1.374,1.748,1.748,0,0,0,1.791.06A1.691,1.691,0,0,0,34.31,52.8c-1.229-1.27-2.494-2.506-3.746-3.757a1.554,1.554,0,0,1-.544-1.219c.012-.175-.083-.413.129-.5.171-.065.281.138.4.247a14.405,14.405,0,0,0,1.4,1.328,1.789,1.789,0,0,0,2.446-.189,1.824,1.824,0,0,0-.2-2.443q-1.784-1.812-3.6-3.6a1.843,1.843,0,0,1-.595-1.42c.016-2.6.007-5.2.007-7.8a2.144,2.144,0,0,1,.016-.385c.041-.235.168-.265.35-.136a2.057,2.057,0,0,1,.244.226q2.794,2.794,5.592,5.585a1.786,1.786,0,0,1,.558,1.381c-.016,1.531-.007,3.059,0,4.589a3.634,3.634,0,0,0,.078.878,1.786,1.786,0,0,0,1.89,1.429A1.69,1.69,0,0,0,40.3,45.263c.014-.609,0-1.217.009-1.826,0-.122-.032-.281.127-.332.115-.035.2.074.279.145a1.613,1.613,0,0,1,.6,1.3c-.012,1.678-.018,3.354,0,5.032a1.866,1.866,0,0,0,1.8,1.98,1.757,1.757,0,0,0,1.727-1.955c.007-.535,0-1.07,0-1.6,0-.124-.035-.288.092-.353.168-.09.267.078.362.177a8.416,8.416,0,0,0,.966.825,1.6,1.6,0,0,0,2.277-.237,1.576,1.576,0,0,0,.053-2.241c-.228-.267-.491-.5-.731-.756-.12-.127-.325-.247-.214-.459.088-.168.29-.127.452-.129.609-.009,1.219.028,1.826-.018a1.711,1.711,0,0,0,1.346-2.674,1.953,1.953,0,0,0-1.713-.841c-1.694,0-3.391,0-5.085,0a1.421,1.421,0,0,1-1.113-.387c-.122-.129-.327-.244-.265-.449.069-.221.3-.161.479-.166.627-.012,1.254.023,1.879-.016a1.7,1.7,0,0,0,1.374-2.524,1.947,1.947,0,0,0-1.849-.989q-2.517-.021-5.032,0a1.656,1.656,0,0,1-1.279-.532c-.56-.583-1.143-1.148-1.717-1.722-1.3-1.3-2.609-2.6-3.9-3.912-.124-.124-.325-.249-.224-.459.081-.171.288-.124.449-.134.129,0,.258,0,.387,0,2.4,0,4.792.035,7.187-.016a2.613,2.613,0,0,1,2.135.894c1.109,1.183,2.268,2.321,3.437,3.444a1.713,1.713,0,0,0,2.706-.5,1.839,1.839,0,0,0-.44-2.171c-.394-.44-.832-.837-1.24-1.263-.074-.078-.18-.164-.127-.284s.187-.1.3-.1a1.68,1.68,0,0,1,1.4.507c1.236,1.242,2.5,2.453,3.7,3.727a1.88,1.88,0,0,0,2.455.095,1.815,1.815,0,0,0,.074-2.448c-.41-.5-.86-.961-1.312-1.42-.088-.09-.207-.191-.15-.332s.212-.124.339-.129c.258-.009.516,0,.775,0,1.2-.009,1.468-.226,1.729-1.378v-.662a1.664,1.664,0,0,0-1.876-1.125" transform="translate(0 0)" fill="#5d6042"/>
                </g>
              </g>
            </g>
          </g>
        </g>
      </g>
    </g>
  </g>
</svg>
