<svg xmlns="http://www.w3.org/2000/svg" xmlns:xlink="http://www.w3.org/1999/xlink" width="80" height="80" viewBox="0 0 80 80">
  <defs>
    <clipPath id="clip-path">
      <rect id="Rectangle_10" data-name="Rectangle 10" width="64.349" height="59.409" fill="none"/>
    </clipPath>
    <clipPath id="clip-path-2">
      <rect id="Rectangle_9" data-name="Rectangle 9" width="64.35" height="59.41" fill="none"/>
    </clipPath>
    <clipPath id="clip-icon-freezing-04">
      <rect width="80" height="80"/>
    </clipPath>
  </defs>
  <g id="icon-freezing-04" clip-path="url(#clip-icon-freezing-04)">
    <g id="Group_33" data-name="Group 33" transform="translate(7.825 10.296)">
      <g id="Group_22" data-name="Group 22" clip-path="url(#clip-path)">
        <g id="Group_21" data-name="Group 21" transform="translate(0 -0.001)">
          <g id="Group_20" data-name="Group 20" clip-path="url(#clip-path-2)">
            <g id="Group_19" data-name="Group 19" transform="translate(0 0.001)" style="mix-blend-mode: multiply;isolation: isolate">
              <g id="Group_18" data-name="Group 18" transform="translate(0 0)">
                <g id="Group_17" data-name="Group 17" clip-path="url(#clip-path)">
                  <path id="Path_10" data-name="Path 10" d="M0,24.322c.159-1.049.267-2.111.489-3.146C2.393,12.2,7.535,5.75,15.931,2.128a25.737,25.737,0,0,1,28.855,5.86,25.54,25.54,0,0,1,6.5,11.581c.037.143.076.284.12.422.012.032.046.055.106.127.24-.357.461-.708.7-1.042a1.255,1.255,0,1,1,2.077,1.4q-1.214,1.871-2.471,3.709a1.226,1.226,0,0,1-1.853.369q-1.756-1.158-3.476-2.367a1.217,1.217,0,0,1-.348-1.761,1.257,1.257,0,0,1,1.777-.288c.32.2.627.413,1.079.712-.074-.332-.113-.537-.168-.738A23.543,23.543,0,1,0,18.049,48.244,22.272,22.272,0,0,0,24.6,49.588a1.4,1.4,0,0,1,1.378.8A1.237,1.237,0,0,1,24.7,52.105a22.709,22.709,0,0,1-7.358-1.452C8.156,47.115,2.5,40.522.449,30.875c-.214-1-.3-2.022-.449-3.034v-3.52" transform="translate(0 -0.001)" fill="#5d6042"/>
                  <path id="Path_11" data-name="Path 11" d="M41.121,24.457A15.715,15.715,0,1,1,38.8,54.287a15.736,15.736,0,0,1-9.751-14.28c-6.5,2.211-12.581,1.572-18.139-2.42a18.394,18.394,0,0,1-7.658-12.45A19.083,19.083,0,0,1,19.874,3.173,18.389,18.389,0,0,1,35.66,8.7a18.776,18.776,0,0,1,5.461,15.758M12.309,35.51c.249-.39.449-.731.675-1.053a1.23,1.23,0,0,1,1.747-.417,1.248,1.248,0,0,1,.362,1.766c-.191.341-.4.671-.629,1.053a16.338,16.338,0,0,0,6.4,1.828c0-.431-.018-.825,0-1.215a1.253,1.253,0,0,1,1.3-1.316,1.233,1.233,0,0,1,1.208,1.33c.012.387,0,.777,0,1.367,1.533-.378,2.925-.724,4.317-1.065a2.381,2.381,0,0,0,1.932-2,15.129,15.129,0,0,1,8.315-10.147c.189-.095.436-.254.477-.424.136-.576.189-1.173.286-1.823-.477,0-.851.009-1.224,0a1.225,1.225,0,0,1-1.332-1.2,1.246,1.246,0,0,1,1.3-1.309c.394-.016.786,0,1.233,0a16.2,16.2,0,0,0-1.464-5.636c-.4.212-.738.406-1.09.581A1.254,1.254,0,1,1,34.9,13.634c.337-.205.687-.392,1.072-.611a16.512,16.512,0,0,0-4.027-4.251c-.254.4-.461.763-.7,1.1a1.249,1.249,0,0,1-2.118-1.325c.2-.364.426-.71.671-1.116a15.624,15.624,0,0,0-6.424-1.81c0,.417.007.77,0,1.123a1.275,1.275,0,0,1-1.208,1.4,1.3,1.3,0,0,1-1.3-1.395c-.014-.367,0-.735,0-1.146a15.977,15.977,0,0,0-6.4,1.83c.221.364.422.678.609,1a1.259,1.259,0,1,1-2.128,1.332c-.214-.32-.413-.652-.632-1a16.364,16.364,0,0,0-4.027,4.244c.39.226.761.42,1.111.645a1.242,1.242,0,0,1,.491,1.687,1.263,1.263,0,0,1-1.738.482c-.367-.182-.722-.383-1.109-.59A15.678,15.678,0,0,0,5.6,20.881c.454,0,.828-.014,1.2,0a1.282,1.282,0,0,1,1.328,1.3A1.255,1.255,0,0,1,6.8,23.392c-.387.009-.775,0-1.208,0a15.9,15.9,0,0,0,1.459,5.664c.392-.214.733-.417,1.088-.595a1.255,1.255,0,1,1,1.219,2.192c-.334.207-.685.39-1.076.613a16.285,16.285,0,0,0,4.032,4.244m19.255,4.246a13.173,13.173,0,1,0,13.1-13.144,13.182,13.182,0,0,0-13.1,13.144" transform="translate(3.933 3.954)" fill="#5d6042"/>
                  <path id="Path_12" data-name="Path 12" d="M14,23.633a1.251,1.251,0,0,1-.037-2.5,1.251,1.251,0,1,1,.037,2.5" transform="translate(16.647 27.58)" fill="#5d6042"/>
                  <path id="Path_13" data-name="Path 13" d="M16.421,12.773c0,1.655-.009,3.308,0,4.963a1.569,1.569,0,0,1-.74,1.427c-1.77,1.192-3.527,2.4-5.295,3.6a1.283,1.283,0,0,1-1.842-.219,1.255,1.255,0,0,1,.42-1.842c1.5-1.035,3-2.065,4.516-3.073a.851.851,0,0,0,.431-.814q-.021-4.585-.007-9.172a1.264,1.264,0,1,1,2.508-.021c.014,1.717,0,3.435,0,5.152" transform="translate(10.839 8.102)" fill="#5d6042"/>
                  <path id="Path_14" data-name="Path 14" d="M17.656,26.869V25.458L18.94,24.3c2.181-1.959,3.241-3.073,3.259-4.237,0-.811-.475-1.455-1.63-1.455a3.7,3.7,0,0,0-2.135.818l-.655-1.664a5.514,5.514,0,0,1,3.257-1.028c2.264,0,3.492,1.319,3.492,3.123,0,1.674-1.2,3.015-2.649,4.294l-.924.765v.032h3.771v1.92Z" transform="translate(23.043 21.839)" fill="#5d6042"/>
                  <path id="Path_15" data-name="Path 15" d="M25.809,26.773V24.392H21.39V22.88l3.764-6.074H28.01v5.841H29.2v1.745H28.01v2.381Zm0-4.126v-2.2c0-.6.032-1.215.065-1.858l-.055,0c-.318.652-.586,1.229-.924,1.849l-1.328,2.183-.009.032Z" transform="translate(27.917 21.934)" fill="#5d6042"/>
                </g>
              </g>
            </g>
          </g>
        </g>
      </g>
    </g>
  </g>
</svg>
