<svg xmlns="http://www.w3.org/2000/svg" xmlns:xlink="http://www.w3.org/1999/xlink" width="80" height="80" viewBox="0 0 80 80">
  <defs>
    <clipPath id="clip-path">
      <rect id="Rectangle_73" data-name="Rectangle 73" width="35.036" height="54.6" fill="none"/>
    </clipPath>
    <clipPath id="clip-pro_icon_e_03">
      <rect width="80" height="80"/>
    </clipPath>
  </defs>
  <g id="pro_icon_e_03" clip-path="url(#clip-pro_icon_e_03)">
    <g id="Group_94" data-name="Group 94" transform="translate(22.704 11)">
      <g id="Group_93" data-name="Group 93" transform="translate(0 0)" clip-path="url(#clip-path)">
        <path id="Path_5565" data-name="Path 5565" d="M17.035,16.776a2.216,2.216,0,0,0,.144.477,19.687,19.687,0,0,1,1.094,11.061,2.177,2.177,0,0,0,4.239.992A23.467,23.467,0,0,0,21.66,16.8a6.662,6.662,0,0,1-4.625-.02" transform="translate(9.546 9.401)" fill="#8f7052"/>
        <path id="Path_5566" data-name="Path 5566" d="M17.56,26.771l-.4,2.6.772.12.591-5.021a3.326,3.326,0,0,0-.833-2.62l-1.927-2.141a47.362,47.362,0,0,1-.418,6.724Z" transform="translate(8.599 11.043)" fill="#8f7052"/>
        <path id="Path_5567" data-name="Path 5567" d="M14.837,36.018a3.371,3.371,0,0,0,.395.023,3.335,3.335,0,0,0,3.026-1.949l-6.335-.974a3.33,3.33,0,0,0,2.915,2.9" transform="translate(6.681 18.559)" fill="#8f7052"/>
        <path id="Path_5568" data-name="Path 5568" d="M.434,45.9a3.333,3.333,0,0,0,5.8,3.288l6.8-11.984.351-2.283.868.134,1.1-1.936a3.335,3.335,0,0,0,.359-2.344L13.441,20.24l.615-.115,1.571,7.3,3.022,3.355a112.348,112.348,0,0,0-.476-15.39l.623-.055c.474,5.263,1.025,14.578.039,18.791a2.177,2.177,0,0,0,4.239.992c.85-3.634.743-9.807.457-14.787A6.933,6.933,0,0,1,23.1,19.7,6.75,6.75,0,0,1,28.907,9.52c.117,0,.234.006.351.012A10.693,10.693,0,0,0,21.567,6.4c-8.011-.2-15.433,7.318-15.538,8.839a3.308,3.308,0,0,0-.1,1.766l.96,4.461,2.038,9.467Z" transform="translate(0 3.587)" fill="#8f7052"/>
        <path id="Path_5569" data-name="Path 5569" d="M18.425.647c.264-.253.009-.839-.256-.584A4.218,4.218,0,0,0,16.894,2.7c-.117,1.178.754,1.935.852,3.041a3.114,3.114,0,0,1-.68,2.057c-.24.3.12.775.359.477a4.007,4.007,0,0,0,.74-3.21c-.22-1.173-1.058-1.74-.605-3.077A3.509,3.509,0,0,1,18.425.647" transform="translate(9.461 0.001)" fill="#8f7052"/>
        <path id="Path_5570" data-name="Path 5570" d="M20.331.647c.264-.253.009-.839-.256-.584A4.218,4.218,0,0,0,18.8,2.7c-.115,1.178.754,1.935.852,3.041a3.114,3.114,0,0,1-.68,2.057c-.24.3.12.775.359.477a4.007,4.007,0,0,0,.74-3.21c-.22-1.173-1.058-1.74-.605-3.077A3.509,3.509,0,0,1,20.331.647" transform="translate(10.529 0.001)" fill="#8f7052"/>
        <path id="Path_5571" data-name="Path 5571" d="M22.238.647c.264-.253.011-.839-.256-.584A4.218,4.218,0,0,0,20.708,2.7c-.115,1.178.754,1.935.852,3.041a3.106,3.106,0,0,1-.68,2.057c-.24.3.12.775.359.477a4.007,4.007,0,0,0,.74-3.21c-.22-1.173-1.058-1.74-.6-3.077A3.488,3.488,0,0,1,22.238.647" transform="translate(11.598 0.001)" fill="#8f7052"/>
        <path id="Path_5572" data-name="Path 5572" d="M18.544,32.973a2.948,2.948,0,1,1-2.465-3.361,2.946,2.946,0,0,1,2.465,3.361m.607-7,.5.078-.214,1.389-1.323-.2a2.811,2.811,0,0,1-2.2.392,2.778,2.778,0,0,1-1.535-.966l-.863-.133.214-1.389.033,0a2.833,2.833,0,0,1,.061-.883c.025-.108.05-.22.072-.335l-1.191-.183-.4,2.6-2.8-.431L7.843,36.759,21.786,38.9l1.668-10.843-2.8-.431.4-2.6-1.6-.247c-.048.262-.1.518-.156.758a3,3,0,0,1-.14.434" transform="translate(4.395 13.307)" fill="#8f7052"/>
        <path id="Path_5573" data-name="Path 5573" d="M14.2,28.283l-.807-.123-.22,1.428-1.429-.22-.123.807,1.429.22-.22,1.428.807.123.22-1.428,1.429.22.123-.807-1.429-.22Z" transform="translate(6.511 15.78)" fill="#8f7052"/>
        <path id="Path_5574" data-name="Path 5574" d="M26,11.811c.1.173.2.35.279.532a6.092,6.092,0,0,1,.56,2.921,5.845,5.845,0,0,1-.062.6c-.031.2-.072.395-.122.588s-.109.385-.178.574a5.945,5.945,0,0,1-.234.554c-.087.179-.183.356-.287.527s-.217.337-.337.5a6.248,6.248,0,0,1-1.279,1.262c-.162.117-.329.228-.5.329a5.563,5.563,0,0,1-.532.279,5.915,5.915,0,0,1-.555.226,6.284,6.284,0,0,1-1.167.284,5.905,5.905,0,0,1-.6.055c-.2.008-.4.006-.6,0a5.876,5.876,0,0,1-.6-.062q-.3-.047-.59-.122c-.193-.05-.385-.109-.573-.178a5.945,5.945,0,0,1-.554-.234c-.181-.087-.357-.183-.529-.287a5.549,5.549,0,0,1-.5-.337,5.735,5.735,0,0,1-.462-.384c-.148-.136-.289-.278-.423-.428s-.259-.3-.378-.467-.228-.329-.331-.5-.2-.35-.279-.531-.159-.368-.226-.557-.123-.381-.17-.576-.086-.392-.114-.59-.045-.4-.055-.6-.006-.4,0-.6.033-.4.062-.6.072-.395.122-.588.109-.385.178-.574.148-.371.234-.552a5.925,5.925,0,0,1,.287-.527c.1-.172.217-.337.337-.5s.25-.314.385-.462.278-.289.428-.421.306-.259.467-.378a5.933,5.933,0,0,1,.5-.331c.173-.1.35-.2.532-.279s.367-.159.557-.226.381-.123.576-.17.392-.086.59-.114.4-.045.6-.055.4-.006.6,0,.4.033.6.062.393.072.588.122.385.109.574.178.373.147.552.234.357.183.529.287.337.217.5.337.314.248.462.384.287.278.421.428.259.306.378.467a5.934,5.934,0,0,1,.331.5" transform="translate(8.185 4.932)" fill="#8f7052"/>
      </g>
    </g>
  </g>
</svg>
