<svg xmlns="http://www.w3.org/2000/svg" xmlns:xlink="http://www.w3.org/1999/xlink" width="80" height="80" viewBox="0 0 80 80">
  <defs>
    <clipPath id="clip-path">
      <rect id="Rectangle_57" data-name="Rectangle 57" width="38.49" height="57.068" fill="none"/>
    </clipPath>
    <clipPath id="clip-pro_icon_a_03">
      <rect width="80" height="80"/>
    </clipPath>
  </defs>
  <g id="pro_icon_a_03" clip-path="url(#clip-pro_icon_a_03)">
    <g id="Group_62" data-name="Group 62" transform="translate(20.755 11.466)">
      <g id="Group_61" data-name="Group 61" transform="translate(0 0)" clip-path="url(#clip-path)">
        <path id="Path_5474" data-name="Path 5474" d="M30.106,15.234a2.264,2.264,0,0,1,1.6-.694h.033a2.24,2.24,0,0,1,.444.044,2.3,2.3,0,0,0-1-2.2,2.031,2.031,0,0,0-.939-.291A5.716,5.716,0,0,0,30.3,9.58a2.056,2.056,0,0,0-.869-.129,3.145,3.145,0,0,1,.37,2.563,2.063,2.063,0,0,0-.946-.819,2.714,2.714,0,0,0-3.351,1.792A2.719,2.719,0,0,0,26.6,16.63a2.019,2.019,0,0,0,.836.148,1.986,1.986,0,0,0,.607.59,2.087,2.087,0,0,0,1.222.3,2.239,2.239,0,0,0,.2-.8,2.27,2.27,0,0,1,.643-1.625" transform="translate(4.114 1.538)" fill="#92993a"/>
        <path id="Path_5475" data-name="Path 5475" d="M32.006,10.713c-.92-.419-2.089.912-2.089.912.737-.14.492.286,1.84.656s1.855-1.357,1.855-1.357a2.449,2.449,0,0,1-1.606-.211" transform="translate(4.878 1.734)" fill="#92993a"/>
        <path id="Path_5476" data-name="Path 5476" d="M30.869,27.889h.074a1.631,1.631,0,0,0,1.142-.466c.912-.9,5.459-5.541,5.4-9.087a1.63,1.63,0,1,0-3.26.05c.019,1.253-1.639,3.616-3.223,5.424l-.955-1.127-2.476-2.919a1.621,1.621,0,0,0-1.013-.554,1.682,1.682,0,0,0-.362-.04H17.788l-10.834-15L8.427,3.1l.814,1.118,1.3-.95L8.166,0l-1.3.95.814,1.119L5.979,3.3A1.631,1.631,0,0,0,3.792,4.9L2.118,6.119,1.3,5,0,5.951,2.38,9.22l1.3-.95L2.869,7.152,4.317,6.1,15.472,21.536V35.354l-2.535,18.52a2.81,2.81,0,1,0,5.569.763l2.021-14.774h2.245l2.021,14.774a2.81,2.81,0,1,0,5.569-.763l-2.535-18.52V25.1l1.161,1.369.714.842a1.632,1.632,0,0,0,1.169.575" transform="translate(0 0)" fill="#92993a"/>
        <path id="Path_5477" data-name="Path 5477" d="M17.541,13.754s3.732.537,5.977-1.033c0,0-2.16,5.051-5.977,1.033m1.852-7.637a5.555,5.555,0,1,0,5.552,5.555,5.554,5.554,0,0,0-5.552-5.555" transform="translate(2.256 0.998)" fill="#92993a"/>
      </g>
    </g>
  </g>
</svg>
