<svg xmlns="http://www.w3.org/2000/svg" xmlns:xlink="http://www.w3.org/1999/xlink" width="80" height="80" viewBox="0 0 80 80">
  <defs>
    <clipPath id="clip-path">
      <rect id="Rectangle_63" data-name="Rectangle 63" width="47.36" height="48.884" transform="translate(0 0)" fill="none"/>
    </clipPath>
    <clipPath id="clip-pro_icon_c_01">
      <rect width="80" height="80"/>
    </clipPath>
  </defs>
  <g id="pro_icon_c_01" clip-path="url(#clip-pro_icon_c_01)">
    <g id="Group_74" data-name="Group 74" transform="translate(13 15.558)">
      <g id="Group_73" data-name="Group 73" clip-path="url(#clip-path)">
        <path id="Path_5517" data-name="Path 5517" d="M26.509,31.331c.071-.253.246-.531.185-.742a2.829,2.829,0,0,0-.531-.765c-.333.263-.866.463-.968.8-.936,3.058-1.8,6.138-2.744,9.436L38.213,34.6c.407,1.431.831,2.783,1.143,4.161.05.222-.339.718-.62.815-5.478,1.9-10.955,3.8-16.467,5.6a3.61,3.61,0,0,1-4.744-4.217c.673-3.879,1.354-7.762,2.207-11.6.7-3.159,3.446-5.1,6.587-5.526a1.5,1.5,0,0,1,.862.283,9.7,9.7,0,0,0,10.44.094,3.974,3.974,0,0,1,2.7.152c3.159.992,4.547,3.44,5.091,6.529.615,3.488,1.264,6.969,1.9,10.452.392,2.134-2.068,4.606-4.266,4.031a52.987,52.987,0,0,1-7.987-2.909c1.7-.6,3.382-1.259,5.107-1.775.977-.292,1.259-.588.9-1.68-.853-2.632-1.464-5.342-2.271-7.991-.142-.466-.764-.786-1.164-1.174a4.758,4.758,0,0,0-.162,1.525c.563,2.421-.081,2.266-2,1.973-2.521-.386-4.992-1.1-7.484-1.676-.473-.109-.948-.209-1.489-.327" fill="#526452"/>
        <path id="Path_5518" data-name="Path 5518" d="M9.284.057a8.813,8.813,0,0,1,9.184,7.205,14.132,14.132,0,0,1-.494,5.535,3.53,3.53,0,0,0,.073,2.571,1.634,1.634,0,0,1,.148.5c.1.816.185,1.634.275,2.451-.856.007-1.714-.021-2.568.028a49.728,49.728,0,0,0-4.992.143c-4.525.7-9.292-1.467-10.613-6.9A9.322,9.322,0,0,1,7.248.079,8.484,8.484,0,0,1,9.284.057M7.63,14.422c1.207-.119,5.823-4.711,6-5.977H10.156c-.01-1.608,1.234-2.966.552-4.514L4.751,9.976l3.8.234c-.317,1.447-.616,2.814-.922,4.212" fill="#526452"/>
        <path id="Path_5519" data-name="Path 5519" d="M28.493,21.367l-6.1,1.987c-.111-.207-.216-.312-.216-.417-.011-4.373-.219-8.757.046-13.113a9.627,9.627,0,0,1,7.718-8.71,10.248,10.248,0,0,1,12.74,10.2c-.011,3.956,0,7.912,0,11.918a3.34,3.34,0,0,1-.883-.01c-1.589-.509-3.15-1.114-4.758-1.553-1.053-.287-.847-.672-.251-1.182a7.9,7.9,0,0,0,2.883-6.322c0-.865.016-1.731,0-2.6-.041-1.874-1.283-2.871-3.1-3.133A50.874,50.874,0,0,1,29.5,6.815a3.243,3.243,0,0,0-4.265,2.592,34.6,34.6,0,0,0,.274,7.011,8.693,8.693,0,0,0,1.685,3.2,6.585,6.585,0,0,0,1.449,1.216l-.147.529" fill="#526452"/>
        <path id="Path_5520" data-name="Path 5520" d="M34.561,20.118a11.537,11.537,0,0,1,.612,2.413,1.519,1.519,0,0,1-.819,1.213,9.928,9.928,0,0,1-3.306.229c-1.06-.142-1.935-.66-1.267-2.121.479-1.048.468-1.9-.97-2.618a4.186,4.186,0,0,1-2-3.845q-.009-2.661,0-5.323c.008-1.474.965-2.129,2.4-1.776,2.643.646,5.306,1.211,7.951,1.854.318.077.817.422.815.641a47.1,47.1,0,0,1-.235,5.512c-.228,1.835-1.6,2.884-3.186,3.821" fill="#526452"/>
        <path id="Path_5521" data-name="Path 5521" d="M41.821,46.617v2.266H23.074V46.6c2.694-.933,5.451-1.921,8.235-2.822a3.3,3.3,0,0,1,1.889-.037c2.882.9,5.735,1.9,8.623,2.874" fill="#526452"/>
        <path id="Path_5522" data-name="Path 5522" d="M6.236,37.061a10.893,10.893,0,0,1,.993-1.73c.719-.82,1.532-1.556,2.307-2.326a2.232,2.232,0,0,1,3.1-.272,2.212,2.212,0,0,1-.109,3.02,14.905,14.905,0,0,1-2.538,2.463A3.75,3.75,0,0,1,7.5,38.7c-.469-.079-.8-.994-1.267-1.641" fill="#526452"/>
        <path id="Path_5523" data-name="Path 5523" d="M6.495,27.9c-.636,0-1.277.048-1.908-.011A2.034,2.034,0,0,1,2.745,25.8,1.932,1.932,0,0,1,4.56,23.832a27.147,27.147,0,0,1,3.952-.014A2,2,0,0,1,10.4,25.975,2.043,2.043,0,0,1,8.4,27.9c-.634.038-1.273.007-1.909.006" fill="#526452"/>
        <path id="Path_5524" data-name="Path 5524" d="M33.044,34.777l-8.18,2.881c.127-.745.191-1.269.31-1.779a23.118,23.118,0,0,1,.65-2.416c.092-.26.505-.642.688-.6,2.187.5,4.359,1.065,6.535,1.614l0,.3" fill="#526452"/>
        <path id="Path_5525" data-name="Path 5525" d="M7.63,14.422c.306-1.4.6-2.765.922-4.212l-3.8-.234,5.957-6.045c.682,1.548-.562,2.906-.552,4.514h3.472c-.175,1.266-4.791,5.858-6,5.977" fill="#526452"/>
      </g>
    </g>
  </g>
</svg>
