<svg xmlns="http://www.w3.org/2000/svg" xmlns:xlink="http://www.w3.org/1999/xlink" width="80" height="80" viewBox="0 0 80 80">
  <defs>
    <clipPath id="clip-path">
      <rect id="Rectangle_74" data-name="Rectangle 74" width="43.981" height="43.921" fill="none"/>
    </clipPath>
    <clipPath id="clip-pro_icon_e_04">
      <rect width="80" height="80"/>
    </clipPath>
  </defs>
  <g id="pro_icon_e_04" clip-path="url(#clip-pro_icon_e_04)">
    <g id="Group_96" data-name="Group 96" transform="translate(21.219 16)">
      <g id="Group_95" data-name="Group 95" transform="translate(0 0)" clip-path="url(#clip-path)">
        <path id="Path_5575" data-name="Path 5575" d="M8.073,24.213c.672-4.073,2.241-7.648,5.707-10.149a13.3,13.3,0,0,1,8-2.35A29.1,29.1,0,0,1,36.442,15.83a35.39,35.39,0,0,1,5.182,3.538c.311.26.338.441.095.771A32.285,32.285,0,0,1,32.135,29.2a16.976,16.976,0,0,1-9.757,2.483,33.923,33.923,0,0,1-8.91-1.48,8.6,8.6,0,0,1-1.5-.589c-.419-.231-.572-.092-.782.259-1.3,2.184-2.471,4.444-3.622,6.709a1.915,1.915,0,0,1-2.627.9,1.824,1.824,0,0,1-.689-2.616,40.562,40.562,0,0,1,9.809-11.272,19.6,19.6,0,0,1,12.029-3.909c1.2-.011,2.4,0,3.6-.052a14.164,14.164,0,0,0-4.8-1.355,20.01,20.01,0,0,0-9.849,1.356,21.029,21.029,0,0,0-6.48,4.548c-.11.1-.217.21-.328.314-.236.008-.21-.129-.153-.282" transform="translate(2.099 6.218)" fill="#8f7052"/>
        <path id="Path_5576" data-name="Path 5576" d="M9.461,24.5a39.007,39.007,0,0,1-2.8-14.761C4.718,15.249,5.5,20.524,7.629,25.868a9.612,9.612,0,0,1-2.691-1.494C.534,21.044-.986,16.365.628,10.85A26.189,26.189,0,0,1,7.145.188c.2-.205.326-.286.554-.014a28.813,28.813,0,0,1,5.521,9.212c1.639,4.952.511,9.434-2.48,13.553-.363.5-.79.963-1.28,1.557" transform="translate(0 0.001)" fill="#8f7052"/>
        <path id="Path_5577" data-name="Path 5577" d="M6.687,19.88c.055.092-.017.253.153.282-.028.129-.147.207-.22.127-.112-.126-.026-.282.067-.409" transform="translate(3.485 10.552)" fill="#8f7052"/>
      </g>
    </g>
  </g>
</svg>
