<svg xmlns="http://www.w3.org/2000/svg" xmlns:xlink="http://www.w3.org/1999/xlink" width="80" height="80" viewBox="0 0 80 80">
  <defs>
    <clipPath id="clip-path">
      <rect id="Rectangle_59" data-name="Rectangle 59" width="47.554" height="48.419" fill="none"/>
    </clipPath>
    <clipPath id="clip-pro_icon_b_01">
      <rect width="80" height="80"/>
    </clipPath>
  </defs>
  <g id="pro_icon_b_01" clip-path="url(#clip-pro_icon_b_01)">
    <g id="Group_66" data-name="Group 66" transform="translate(14.4 14.231)">
      <g id="Group_65" data-name="Group 65" transform="translate(0 0)" clip-path="url(#clip-path)">
        <path id="Path_5483" data-name="Path 5483" d="M5.276,29.749A27.2,27.2,0,0,1,3.714,26.6c-.341-.971-.486-1.9-1.788-2.074a1.561,1.561,0,0,1-.95-1.053,30.639,30.639,0,0,1-.887-5.516C.034,15.587,2.6,13.152,4.9,12.995a1.634,1.634,0,0,0,1.041-.38c2.607-2.994,8.351-3.207,11.8-.261.5.425.8.794,1.632.439.946-.4,2.652.845,3.076,1.92a17.029,17.029,0,0,1,1.1,2.651,10.233,10.233,0,0,1,.034,2.927c-.049.554-.473,1.074-.52,1.628-.161,1.84-.7,2.549-2.184,2.969-.754,1.524-1.434,2.814-2.018,4.146a1.22,1.22,0,0,0,.212,1.056c1.328,1.5,2.712,2.94,3.861,4.17,1.37-1.608,2.993-3.516,4.561-5.36l-1.5-3.927a2.806,2.806,0,0,1-2.359-2.8,2.346,2.346,0,0,1,1.97-2.617c.657-1.925,1.279-3.676,1.839-5.447a1.635,1.635,0,0,0-.086-1.094,4.407,4.407,0,1,1,8.311-2.8,8.647,8.647,0,0,1,7.727,9.156c2.557.938,3.262,2.475,2.032,4.457-.154.248-.355.608-.582.649-2.474.444-1.551,3.191-2.957,4.353a1.272,1.272,0,0,0,.369.612,11.965,11.965,0,0,1,5.107,8.088,45.574,45.574,0,0,1,.164,6.538c.019,3.581.006,3.581-3.6,3.581-14.034,0-28.067-.022-42.1.034-1.473.006-1.877-.435-1.813-1.854.109-2.384.012-4.777.034-7.165.032-3.536,1.816-6.157,4.425-8.33.3-.246.622-.455.809-.59m23.6-12.924c.578-.66,1.2-1.291,1.726-1.988a2.225,2.225,0,0,1,3.01-.917c2.5,1.128,5.052,2.163,7.409,3.163-.584-3.127-3.607-4.717-6.322-4.936-2.422-.194-5.129,1.929-6.021,4.424l-.206.522.4-.268M18.553,45.8c0-1.282-.078-2.519.022-3.742a15.428,15.428,0,0,1,.641-3.675c.172-.506,1.019-.782,1.56-1.162a6.794,6.794,0,0,1,.388,1.895c-.188,2.216-.5,4.421-.766,6.677h1.441a67.825,67.825,0,0,0-.053-7.345,8.949,8.949,0,0,0-4.571-6.973c-1.483,1.91-2.833,3.793-4.367,5.51a2.009,2.009,0,0,1-1.957.073C9.412,35.305,8.125,33.39,6.7,31.439a8.278,8.278,0,0,0-4.537,6.415c-.3,2.485-.239,5.013-.33,7.522a1.515,1.515,0,0,0,.106.413H3.355c-.307-2.372.6-4.771-.828-6.983-.174-.268.349-.984.548-1.493.448.186,1.155.258,1.3.579a11.339,11.339,0,0,1,1,3.267,43.345,43.345,0,0,1,.041,4.64ZM28.3,31.251a11.158,11.158,0,0,0-4.372,8.6h2.561a5.206,5.206,0,0,1,.447-1.357,5.789,5.789,0,0,1,1.1-.991c.194.465.565.939.544,1.4a23.8,23.8,0,0,0-.417,2.7,35.576,35.576,0,0,0,.8,4.155h11.7c0-2.547-.029-4.985.029-7.422.01-.38.414-.751.636-1.125a8.985,8.985,0,0,1,1.117.868,1.215,1.215,0,0,1,.291.8c-.029.927.513,1.056,1.251,1.021.571-.028,1.145-.006,1.723-.006-.5-3.486-1.519-6.493-4.557-8.5-1.235,3.964-3.437,4.682-6.445,2.244-2.175,2.691-4.635,1.8-6.4-2.384M5.051,23.37l.361.2c-.3,3.965,2.8,6.622,6.447,7.041,2.462.281,5.9-2.4,6.356-4.989.219-1.234.547-2.947-.074-3.735-1.694-2.153-1.434-4.545-1.646-6.922-.035-.4-.078-.982-.336-1.159-2.824-1.931-4.864-2.158-7.869-.444a1.8,1.8,0,0,0-.9,1.829,22.843,22.843,0,0,1-1.033,5.634,12.97,12.97,0,0,1-1.31,2.547m23.534-3.54c-1.187,2.34-.373,6.928,1.529,8.747a6.289,6.289,0,0,0,6.753,1.51c3.837-1.7,4.8-3.843,4.281-9.881-.4,2.422-1.332,3.9-3.645,3.911-.234,1.705-1.393,2.356-3.565,2.03-1.5-.227-2.031-.813-1.847-2.043-2.626-.172-3.115-.751-3.506-4.274M45.67,41.718H43c-.231,1.333-.463,2.663-.711,4.084H45.67ZM22.044,19.047a39.653,39.653,0,0,0-1.875-3.911c-.411-.667-1.579-.256-1.565.6a13.331,13.331,0,0,0,.613,3.8c.113.355,1.118.628,1.68.574.409-.039.761-.678,1.146-1.058m-16.562-3.1c-.173-.216-.474-.813-.653-.778a2.687,2.687,0,0,0-1.448.734,13.515,13.515,0,0,0-1.062,1.835c-.5.8-.77,1.5.209,2.183a1.328,1.328,0,0,0,2.259-.671,20.939,20.939,0,0,0,.7-3.3M23.965,45.787h3.053c-.154-1.415-.3-2.737-.439-4.02H23.965ZM37.6,17.771c-.339-.176-.872-.495-1.437-.732-.483-.2-1.01-.295-1.51-.458-2.293-.749-2.436-.693-3.705,1.565,1.7-.347,3.04.08,3.624,1.443L37.6,17.771m-4.218-7.7c-.8-.774-1.535-1.708-2.939-.943a2.349,2.349,0,0,0-1.344,2.91l4.283-1.967M14.054,32.493H9.881l1.95,2.742c.738-.91,1.37-1.691,2.222-2.742M33.229,21.15l-1.461-1.256c-.322.378-.791.714-.908,1.147-.061.22.512.872.791.867.445-.007.885-.4,1.578-.759m5.97-.025-1.482-1.23c-.314.385-.772.734-.884,1.17-.055.218.533.854.814.845.444-.016.874-.416,1.551-.785m-3.139,2.767-1.3-1.864c-.405.564-.8,1.12-1.34,1.864Z" transform="translate(0 0.731)" fill="#9e5d82"/>
        <path id="Path_5484" data-name="Path 5484" d="M21.852.715A18.146,18.146,0,0,1,24.593.029a2.989,2.989,0,0,1,3.1,1.7,3.2,3.2,0,0,1-.384,4.02,43.955,43.955,0,0,1-4.54,3.928,1.716,1.716,0,0,1-1.578-.164A49.56,49.56,0,0,1,17.169,6.12a3.525,3.525,0,0,1-.532-4.845,3.871,3.871,0,0,1,4.649-.87c.258.128.506.277.566.31M18.036,3.5c.016.124-.047.473.091.594a23.019,23.019,0,0,0,3.838,3.082c.361.2,1.5-1.011,2.279-1.582.426-.313.831-.658,1.261-.965a1.26,1.26,0,0,0,.146-2.114,2.054,2.054,0,0,0-1.941-.172,2.489,2.489,0,0,1-3.283-.051A1.49,1.49,0,0,0,18.036,3.5" transform="translate(1.708 0)" fill="#9e5d82"/>
        <path id="Path_5485" data-name="Path 5485" d="M26.119,15.879l-.4.269.206-.523c.066.084.132.169.2.254" transform="translate(2.761 1.678)" fill="#9e5d82"/>
        <path id="Path_5486" data-name="Path 5486" d="M32.819,40.009c-.646.381-1.085.812-1.551.842-.23.014-.744-.743-.7-1.093a1.307,1.307,0,0,1,.986-.853c.382.038.713.591,1.262,1.1" transform="translate(3.282 4.178)" fill="#9e5d82"/>
        <path id="Path_5487" data-name="Path 5487" d="M33.022,33.9c-.742.379-1.179.792-1.546.736s-.647-.586-.966-.908c.365-.275.725-.756,1.1-.766s.739.463,1.413.938" transform="translate(3.276 3.539)" fill="#9e5d82"/>
        <path id="Path_5488" data-name="Path 5488" d="M11.32,23.848A8.249,8.249,0,0,1,9,23.336a1.876,1.876,0,0,1-.54-1.448c0-.19.732-.5,1.148-.54a15.129,15.129,0,0,1,2.806.02A1.831,1.831,0,0,1,13.6,22a1.137,1.137,0,0,1-.323,1.068,11.582,11.582,0,0,1-1.961.783" transform="translate(0.909 2.287)" fill="#9e5d82"/>
        <path id="Path_5489" data-name="Path 5489" d="M11.013,12.956A6.449,6.449,0,0,1,12.777,13c.386.114.96.656.917.919a1.508,1.508,0,0,1-.919,1.072,13.416,13.416,0,0,1-3.391,0c-.371-.049-.662-.705-.99-1.085a4.552,4.552,0,0,1,1.152-.912,4.407,4.407,0,0,1,1.467-.031" transform="translate(0.901 1.386)" fill="#9e5d82"/>
        <path id="Path_5490" data-name="Path 5490" d="M9.308,15.378a17.365,17.365,0,0,1,2.577.041c.337.052.6.559.9.859-.3.3-.557.7-.919.859-.332.147-.785-.008-1.176.039-1.309.157-1.725-.434-1.383-1.8" transform="translate(0.987 1.649)" fill="#9e5d82"/>
        <path id="Path_5491" data-name="Path 5491" d="M13.337,18.073c.941-.05,1.678.34,1.458,1.321a2.028,2.028,0,0,1-1.339,1.27c-.344.063-1.1-.7-1.228-1.2-.177-.675.016-1.506,1.108-1.389" transform="translate(1.307 1.94)" fill="#9e5d82"/>
        <path id="Path_5492" data-name="Path 5492" d="M8.169,17.522c.734.822,1.576,1.423,1.479,1.726a2.358,2.358,0,0,1-1.414,1.466c-.38.079-1.22-.764-1.365-1.321-.1-.38.647-.98,1.3-1.871" transform="translate(0.737 1.882)" fill="#9e5d82"/>
      </g>
    </g>
  </g>
</svg>
