<svg xmlns="http://www.w3.org/2000/svg" xmlns:xlink="http://www.w3.org/1999/xlink" width="80" height="80" viewBox="0 0 80 80">
  <defs>
    <clipPath id="clip-path">
      <rect id="Rectangle_62" data-name="Rectangle 62" width="38.299" height="56.784" fill="none"/>
    </clipPath>
    <clipPath id="clip-pro_icon_b_04">
      <rect width="80" height="80"/>
    </clipPath>
  </defs>
  <g id="pro_icon_b_04" clip-path="url(#clip-pro_icon_b_04)">
    <g id="Group_72" data-name="Group 72" transform="translate(19.901 10.2)">
      <g id="Group_71" data-name="Group 71" transform="translate(0 0)" clip-path="url(#clip-path)">
        <path id="Path_5513" data-name="Path 5513" d="M29.234,14.889a2.258,2.258,0,0,1,1.6-.691h.034a2.248,2.248,0,0,1,.442.044,2.292,2.292,0,0,0-.993-2.185,2.019,2.019,0,0,0-.934-.29,5.674,5.674,0,0,0,.05-2.505,2.038,2.038,0,0,0-.863-.128,3.133,3.133,0,0,1,.368,2.551,2.052,2.052,0,0,0-.941-.815,2.7,2.7,0,0,0-3.334,1.784,2.7,2.7,0,0,0,1.086,3.623,2,2,0,0,0,.832.148,1.979,1.979,0,0,0,.6.587,2.069,2.069,0,0,0,1.215.293,2.2,2.2,0,0,0,.2-.8,2.262,2.262,0,0,1,.641-1.617" transform="translate(4.815 1.8)" fill="#9e5d82"/>
        <path id="Path_5514" data-name="Path 5514" d="M30.992,10.356c-.916-.417-2.078.906-2.078.906.733-.138.489.285,1.83.653s1.846-1.35,1.846-1.35a2.438,2.438,0,0,1-1.6-.21" transform="translate(5.709 2.029)" fill="#9e5d82"/>
        <path id="Path_5515" data-name="Path 5515" d="M30.716,27.751h.074a1.623,1.623,0,0,0,1.136-.463c.908-.891,5.433-5.514,5.377-9.043a1.622,1.622,0,1,0-3.244.051c.019,1.245-1.63,3.6-3.207,5.4L29.9,22.572l-2.463-2.905a1.613,1.613,0,0,0-1.008-.551,1.694,1.694,0,0,0-.359-.04H17.7L6.919,4.154,8.386,3.085,9.2,4.2l1.3-.945L8.125,0l-1.3.946.809,1.112L5.95,3.288A1.623,1.623,0,0,0,3.772,4.876L2.108,6.089,1.3,4.978,0,5.923,2.367,9.175l1.3-.946L2.855,7.116,4.3,6.066l11.1,15.363V35.179L12.873,53.607a2.8,2.8,0,1,0,5.541.759l2.012-14.7h2.232l2.013,14.7a2.8,2.8,0,1,0,5.539-.759L27.687,35.179V24.98l1.154,1.361.711.838a1.62,1.62,0,0,0,1.163.571" transform="translate(0 0)" fill="#9e5d82"/>
        <path id="Path_5516" data-name="Path 5516" d="M17.057,13.51s3.714.535,5.948-1.027c0,0-2.149,5.027-5.948,1.027m1.843-7.6a5.527,5.527,0,1,0,5.524,5.527A5.526,5.526,0,0,0,18.9,5.912" transform="translate(2.641 1.167)" fill="#9e5d82"/>
      </g>
    </g>
  </g>
</svg>
