<svg xmlns="http://www.w3.org/2000/svg" xmlns:xlink="http://www.w3.org/1999/xlink" width="80" height="80" viewBox="0 0 80 80">
  <defs>
    <clipPath id="clip-path">
      <rect id="Rectangle_60" data-name="Rectangle 60" width="45.18" height="41.8" fill="none"/>
    </clipPath>
    <clipPath id="clip-pro_icon_b_02">
      <rect width="80" height="80"/>
    </clipPath>
  </defs>
  <g id="pro_icon_b_02" clip-path="url(#clip-pro_icon_b_02)">
    <g id="Group_68" data-name="Group 68" transform="translate(17.41 17.54)">
      <g id="Group_67" data-name="Group 67" transform="translate(0 0)" clip-path="url(#clip-path)">
        <path id="Path_5493" data-name="Path 5493" d="M12.39,20.84c1.031,1.759,2.032,3.536,3.121,5.259.2.319.754.414,1.143.617,2.313,1.213,2.761,3.371,1.33,5.591a5.353,5.353,0,0,1-6.266,2.224c-2.672-.708-5.392-1.3-7.981-2.237C-.928,30.6-.956,25.085,2.165,22.211A49.4,49.4,0,0,1,7.4,18.469,28.229,28.229,0,0,1,5.222,14.9c-.3-.682-.338-2.082.058-2.352.834-.571,1.812-.306,2.394.875A33.823,33.823,0,0,0,10,17.151a1.98,1.98,0,0,0,.978.664c-.529-1.6-.422-3.284-1.675-4.711-.575-.652-.126-2.384.149-3.558A37.431,37.431,0,0,1,10.985,5.3c2.148.776,3.013-1.142,4.288-2.084a12.7,12.7,0,0,1,15.889.787c.766.691,1.342,1.623,2.632,1.425.237-.037.705.5.836.853q1.008,2.727,1.865,5.509c.11.36.031,1.055-.2,1.2-1.8,1.089-1.044,3.105-1.71,4.224,2.534,1.335,5.02,2.52,7.378,3.92,2.761,1.638,3.562,4.346,3.094,7.313-.384,2.435-2.466,3.546-4.525,4.457a31.005,31.005,0,0,1-3.007.986c.926,1.8,1.827,3.519,2.691,5.254.747,1.5.219,2.393-1.479,2.556-.3.029-.6,0-.908,0q-14.071,0-28.143,0c-1.174,0-2.4,0-2.689-1.466-.192-.98.909-1.562,2.731-1.562h27c-.733-1.393-1.339-2.7-2.111-3.89-.158-.245-.959-.2-1.422-.1-3.154.688-6.876-1.828-6.591-4.955.193-2.122,1.772-3.228,4.005-3.786a38.212,38.212,0,0,0,4.375-1.467c.878-.337,1.612-.575,2.279.382a1.3,1.3,0,0,1-.628,2.1c-1.581.71-3.275,1.17-4.924,1.727-.091.031-.213-.025-.3.01-.813.327-2.014.215-2.012,1.524,0,.663,1.942,1.931,2.694,1.775,2.238-.465,4.5-.872,6.681-1.539,1.495-.458,3.239-.939,3.586-2.854.377-2.075-.968-3.5-2.443-4.457a44.039,44.039,0,0,0-5.658-2.631c-1.025-.473-1.59.064-2.167.821a8.921,8.921,0,0,1-4.972,3.4c-.809.2-1.783.075-1.818-.95a2.612,2.612,0,0,1,1.024-1.718c.859-.7,2.064-1.041,2.792-1.836a21.822,21.822,0,0,0,3.112-4.668A36.093,36.093,0,0,1,13.4,15.239c1.187,4.33,4.051,6.87,8.15,7.4a2.906,2.906,0,0,1,1.265.321,11.317,11.317,0,0,1,1.4,1.374c-.5.442-1,1.262-1.5,1.261a12.059,12.059,0,0,1-7.737-2.7c-.858-.693-1.595-1.538-2.385-2.313l-.412-.281.206.534m-1.51,3.938.529.209-.272-.409L8.984,21.023c-1.453.889-2.832,1.633-4.1,2.531-2.2,1.559-3.221,5.146.383,6.325,2.621.858,5.32,1.491,8.012,2.106.927.213,3-1.457,2.648-1.894A5.741,5.741,0,0,0,13.6,28.708c-1.659-.669-3.417-1.116-5.014-1.9-.43-.21-.425-1.306-.62-2a17.487,17.487,0,0,1,1.95-.351,2.741,2.741,0,0,1,.96.317M12.8,8.621c-.186.546-.411,1.286-.691,2-.314.808-.323,1.18.756,1.5,4.728,1.383,9.489,2.347,14.406,1.4,2.154-.417,4.239-1.194,6.349-1.805a13.454,13.454,0,0,0-.745-2.3c-.183-.33-.794-.747-1.053-.659-3.636,1.246-7.393.909-11.1.807C18.1,9.5,15.487,8.959,12.8,8.621M29.2,6.567c-2.41-3.514-9.1-4.252-12.863-.289A40.347,40.347,0,0,0,29.2,6.567" transform="translate(0 0.086)" fill="#9e5d82"/>
        <path id="Path_5494" data-name="Path 5494" d="M34.225,7.272c-.633-.339-1.278-.5-1.311-.74a2.49,2.49,0,0,1,.256-1.787,8.945,8.945,0,0,1,2.546-1.964,1.917,1.917,0,0,1,1.8.174,1.794,1.794,0,0,1,0,1.778,30.264,30.264,0,0,1-3.289,2.539" transform="translate(3.529 0.284)" fill="#9e5d82"/>
        <path id="Path_5495" data-name="Path 5495" d="M36.524,9.984a13.3,13.3,0,0,0-1.8-.347c-.942-.051-1.326-.6-1.054-1.374.189-.544.753-1.311,1.195-1.342a12.356,12.356,0,0,1,3.521.36c.3.068.636.782.638,1.2a1.459,1.459,0,0,1-.7,1.076,7.583,7.583,0,0,1-1.8.426" transform="translate(3.607 0.741)" fill="#9e5d82"/>
        <path id="Path_5496" data-name="Path 5496" d="M32.608.025c.151,0,.367-.064.439.011.324.337.927.811.852,1.058a19.7,19.7,0,0,1-1.482,3.548c-.1.179-.948-.04-1.448-.087-.089-.008-.243-.071-.246-.117a5.117,5.117,0,0,1-.045-2.023c.374-.953.365-2.359,1.931-2.389" transform="translate(3.283 0)" fill="#9e5d82"/>
        <path id="Path_5497" data-name="Path 5497" d="M24.641,17.3c.039,1.025-.368,1.591-1.456,1.6-1.015.011-1.581-.363-1.594-1.453-.011-1.014.363-1.567,1.452-1.6,1.046-.028,1.572.409,1.6,1.444" transform="translate(2.318 1.703)" fill="#9e5d82"/>
        <path id="Path_5498" data-name="Path 5498" d="M17.636,15.87c1.058-.056,1.536.433,1.535,1.5,0,1.053-.446,1.535-1.515,1.535s-1.536-.446-1.535-1.515c0-1.053.427-1.595,1.515-1.524" transform="translate(1.731 1.704)" fill="#9e5d82"/>
        <path id="Path_5499" data-name="Path 5499" d="M10.082,22.272l.272.409-.529-.209.257-.2" transform="translate(1.055 2.392)" fill="#9e5d82"/>
        <path id="Path_5500" data-name="Path 5500" d="M11.209,18.949,11,18.415l.411.281-.2.252" transform="translate(1.181 1.978)" fill="#9e5d82"/>
      </g>
    </g>
  </g>
</svg>
