<svg xmlns="http://www.w3.org/2000/svg" xmlns:xlink="http://www.w3.org/1999/xlink" width="80" height="80" viewBox="0 0 80 80">
  <defs>
    <clipPath id="clip-path">
      <rect id="Rectangle_55" data-name="Rectangle 55" width="52.603" height="52.167" fill="none"/>
    </clipPath>
    <clipPath id="clip-pro_icon_a_01">
      <rect width="80" height="80"/>
    </clipPath>
  </defs>
  <g id="pro_icon_a_01" clip-path="url(#clip-pro_icon_a_01)">
    <g id="Group_58" data-name="Group 58" transform="translate(15.245 12.226)">
      <g id="Group_57" data-name="Group 57" transform="translate(0 0)" clip-path="url(#clip-path)">
        <path id="Path_5464" data-name="Path 5464" d="M29.223,18.931c-2.585,1.586-3.288,4.147-3.519,6.915a2.419,2.419,0,0,1-2.626,2.289c-1.3-.2-1.559-1.175-1.726-2.274a19.078,19.078,0,0,0-3.592-8.913,2.7,2.7,0,0,1-.277-.725l-.452.316v1.621c0,10.2-.015,20.411.018,30.615a2.712,2.712,0,0,1-1.933,2.877A2.619,2.619,0,0,1,11.854,50.6a2.718,2.718,0,0,1-.374-1.548c-.024-6.03-.016-12.061-.016-18.091a3.988,3.988,0,0,0-.018-.923,2.4,2.4,0,0,0-.406-.653c-.168.24-.45.467-.48.725a16.073,16.073,0,0,0-.023,1.853c0,5.67-.089,11.342.052,17.009.045,1.78-1.287,2.754-2.94,2.951-1.42.17-2.676-1.331-2.677-3.034q-.006-14.843,0-29.688V17.813l-.347-.052c-.3,1.97-.718,3.931-.855,5.911a64.529,64.529,0,0,0-.016,6.492,1.744,1.744,0,0,1-1.824,1.958A1.65,1.65,0,0,1,.05,30.385c.044-4.812-.5-9.674,1.194-14.359,1.239-3.424,3.068-5.5,7.212-5.219a21.92,21.92,0,0,0,3.863-.006c5.091-.56,7.925,2.443,10.214,6.342.375.639.668,1.326,1.067,2.126,1.855-3.281,4.751-4.74,8.187-5.464-1.245-2.467-1.309-4.785.936-6.794a1.943,1.943,0,0,0,.384-.934,2.946,2.946,0,0,1,2.911-2.368A2.823,2.823,0,0,1,38.637,6.32c.022.165.022.391.126.479a5.04,5.04,0,0,1,1.33,6.568,53.919,53.919,0,0,1,6.594,3.875A11.986,11.986,0,0,1,50.455,23.6a13.167,13.167,0,0,0,1.071,1.8,6.818,6.818,0,0,1,1.022,2.58c.082,7.421.042,14.844.053,22.267,0,.785-.008,1.423-1.092,1.422s-1.086-.648-1.085-1.428c.01-7.316.006-14.631.006-21.757l-3.353-.53a1.953,1.953,0,0,1-.284.858,1.36,1.36,0,0,1-1.022.52,1.244,1.244,0,0,1-.87-.768,3.151,3.151,0,0,1,1.832-3.708,9.019,9.019,0,0,0-4.592-6.014c.58,3.4,1.236,6.713,1.683,10.05.371,2.76.578,5.549.7,8.333.072,1.668-.746,2.479-2.467,3.019a5.39,5.39,0,0,1,.319,1.239q.043,3.787.01,7.576a2.369,2.369,0,0,1-2.659,2.59,2.375,2.375,0,0,1-2.59-2.66c-.014-2.447,0-4.894,0-7.473l1.715-.168-.01-.068h-5.8c-.01.036-.018.072-.027.108l1.645.095c0,2.648.119,5.314-.045,7.964-.1,1.6-1.394,2.376-3.036,2.2-1.389-.147-2.168-1.129-2.17-2.736,0-2.422-.013-4.846.012-7.268a7.052,7.052,0,0,1,.266-1.3c-.545-.3-1.564-.52-1.933-1.134a4.707,4.707,0,0,1-.475-2.768c.509-4.657,1.133-9.3,1.72-13.947.138-1.1.29-2.2.436-3.294l.214-.542-.418.278" transform="translate(0 0.231)" fill="#92993a"/>
        <path id="Path_5465" data-name="Path 5465" d="M10.678,10.125A4.823,4.823,0,0,1,5.571,5.164C5.709,1.657,7.708.058,10.627,0c2.853-.055,4.915,1.726,5.091,4.957a4.857,4.857,0,0,1-5.04,5.166" transform="translate(0.348 0)" fill="#92993a"/>
        <path id="Path_5466" data-name="Path 5466" d="M27.5,18.052l.418-.278-.214.542-.2-.263" transform="translate(1.718 1.11)" fill="#92993a"/>
      </g>
    </g>
  </g>
</svg>
