<svg xmlns="http://www.w3.org/2000/svg" xmlns:xlink="http://www.w3.org/1999/xlink" width="80" height="80" viewBox="0 0 80 80">
  <defs>
    <clipPath id="clip-path">
      <rect id="Rectangle_68" data-name="Rectangle 68" width="51.755" height="47.444" fill="none"/>
    </clipPath>
    <clipPath id="clip-pro_icon_d_02">
      <rect width="80" height="80"/>
    </clipPath>
  </defs>
  <g id="pro_icon_d_02" clip-path="url(#clip-pro_icon_d_02)">
    <g id="Group_84" data-name="Group 84" transform="translate(14.123 16.278)">
      <g id="Group_83" data-name="Group 83" transform="translate(0 0)" clip-path="url(#clip-path)">
        <path id="Path_5545" data-name="Path 5545" d="M26.712,17.505a9.967,9.967,0,0,1-2.785,2.6,1.611,1.611,0,0,1-1.892.034,1.508,1.508,0,0,1-.535-1.8,2.7,2.7,0,0,0,.013-1.551,8.115,8.115,0,0,1-2.845,3.15c-.672.355-1.325.721-2.079.18s-.623-1.277-.469-2.024c.021-.1.025-.2.058-.48a18.313,18.313,0,0,1-2.606,2.122,11.172,11.172,0,0,1-4.838,1.575c-.58.085-.949-.067-1.036-.8A12.037,12.037,0,0,1,13.414,8.185c4.332-2.8,8.918-2.718,13.328-.161,4.688,2.716,6.424,7.379,6.014,12.463-.049.621-.4.785-.958.848a4.772,4.772,0,0,1-5.086-3.83" transform="translate(3.717 2.986)" fill="#4f8f94"/>
        <path id="Path_5546" data-name="Path 5546" d="M33.38,20.927a2.429,2.429,0,0,1-2.365,2.6,1.065,1.065,0,0,0-1.064.878,9.831,9.831,0,0,1-6.86,6.753c-.557.164-.669.457-.715.955-.119,1.27-.755,1.784-2.089,1.761s-1.752-.392-1.858-1.787a.883.883,0,0,0-.739-.934,9.779,9.779,0,0,1-6.908-6.709,1.135,1.135,0,0,0-1.176-.927,2.546,2.546,0,0,1-2.347-2.426,2.9,2.9,0,0,1,1.769-2.724q2.74-1.29,5.415-2.718c.653-.35,1.048-.645,1.551.261a2.07,2.07,0,0,0,2.712.516,5.549,5.549,0,0,0,.933-.615C20.307,15.246,20.8,15,21.41,16a2.049,2.049,0,0,0,2.918.3c1.433-1.1,2.506-1.547,3.959.182a6.275,6.275,0,0,0,3.429,1.983,2.2,2.2,0,0,1,1.664,2.462m-15.634-.317A2.668,2.668,0,0,0,15.587,18a2.5,2.5,0,0,0-2.344,1.888,1.47,1.47,0,0,0,.815,1.875,1.214,1.214,0,0,0,1.606-.647c.174-.347.353-.747-.043-1-.444-.28-.553.152-.677.462-.106.268-.289.468-.59.393a.537.537,0,0,1-.376-.507,1.443,1.443,0,0,1,1.3-1.538c.8-.057,1.4.134,1.495,1.086.165,1.638-.346,2.7-1.442,2.845a10.014,10.014,0,0,1-1.121.025c-.349.007-.776.046-.79.449-.018.5.45.493.827.519a3.2,3.2,0,0,0,3.5-3.24m8.9.027c.01,1.53-.614,2.189-2.12,2.24a5.408,5.408,0,0,0-.779.039c-.253.048-.565.145-.572.444s.308.389.556.459A3.692,3.692,0,0,0,26.914,22.6a3.285,3.285,0,0,0,.133-3.554,2.2,2.2,0,0,0-2.655-.775,2.165,2.165,0,0,0-1.3,2.56,1.2,1.2,0,0,0,1.41.978,1.163,1.163,0,0,0,1.085-1.088.512.512,0,0,0-.218-.589c-.283-.142-.41.067-.495.282-.145.365-.3.775-.778.46a.836.836,0,0,1-.177-1.119,1.411,1.411,0,0,1,1.666-.812c.948.183,1.1.884,1.064,1.69m-8.619,6.311a.748.748,0,0,0-.331.072c-.288.139-.781.229-.674.617.118.422.58.072.846.137a7.391,7.391,0,0,0,4.709-.043c.124-.051.34.121.513.191.21.086.446.2.572-.091.113-.258-.1-.419-.277-.544a2.013,2.013,0,0,0-2.12-.158,2.5,2.5,0,0,1-1.852.127,2.883,2.883,0,0,0-1.386-.307" transform="translate(3.551 7.501)" fill="#4f8f94"/>
        <path id="Path_5547" data-name="Path 5547" d="M14.712,28.008a2.145,2.145,0,0,1-1.422,2.256,2.85,2.85,0,0,0-1.353,1.061,2.123,2.123,0,0,1-2.526.94,1.692,1.692,0,0,0-1.3.03,1.262,1.262,0,0,1-1.189-.055,1.633,1.633,0,0,0-1.39-.057,2.515,2.515,0,0,1-3.213-1.226,2.4,2.4,0,0,0-.907-.788A2.672,2.672,0,0,1,1.18,25.6a1.809,1.809,0,0,0,.879-1.313,3.017,3.017,0,0,1,2.2-2.566,3.123,3.123,0,0,1,3.558.893,1.187,1.187,0,0,0,1.6.408,2.588,2.588,0,0,1,3.715,2.138,1.692,1.692,0,0,0,.688.963,2.232,2.232,0,0,1,.9,1.886" transform="translate(0 10.54)" fill="#4f8f94"/>
        <path id="Path_5548" data-name="Path 5548" d="M30.284,19.087a2.826,2.826,0,0,1,2.663,1.237c.32.46.432.554.989.246a2.681,2.681,0,0,1,4.052,1.979,1.211,1.211,0,0,0,.554.9,2.533,2.533,0,0,1-.755,4.47,1.567,1.567,0,0,0-.821.647c-.4.59-.922,1.223-1.676,1.17-1.283-.091-2.584.229-3.846-.153a1.665,1.665,0,0,0-.972.1,2.632,2.632,0,0,1-3.344-1.293,2.622,2.622,0,0,0-.916-.766,2.693,2.693,0,0,1-.075-4.649,1.483,1.483,0,0,0,.751-1.118,3.131,3.131,0,0,1,3.4-2.766" transform="translate(12.174 9.349)" fill="#4f8f94"/>
        <path id="Path_5549" data-name="Path 5549" d="M3.766,6.258a2.229,2.229,0,0,1,1.34-2.374.971.971,0,0,0,.669-.927A2.741,2.741,0,0,1,7.858.231,3.129,3.129,0,0,1,11.635,1.3c.362.487.63.507,1.168.229a2.68,2.68,0,0,1,3.9,1.965,2.082,2.082,0,0,0,.678,1.115c1.563,1.583,1.2,3.485-.851,4.366a1.469,1.469,0,0,0-.882.772,1.62,1.62,0,0,1-1.5,1.018c-1.277-.063-2.581.289-3.828-.146a2.046,2.046,0,0,0-1.295.106,2.524,2.524,0,0,1-3-1.1A2.485,2.485,0,0,0,5.115,8.7,2.218,2.218,0,0,1,3.766,6.258" transform="translate(1.835 0)" fill="#4f8f94"/>
        <path id="Path_5550" data-name="Path 5550" d="M19.73,34.261a34.24,34.24,0,0,1-8.672-.624C9.179,33.3,8.741,32.255,9.75,30.6a7.87,7.87,0,0,1,5.415-3.774,1.248,1.248,0,0,1,1.569.66,2.907,2.907,0,0,0,5.367-.159c.231-.565.615-.568,1.068-.557a7.729,7.729,0,0,1,6.2,4.536c.454,1.283-.028,2.089-1.413,2.311-1.432.229-2.861.511-4.3.62-1.411.107-2.839.024-3.922.024" transform="translate(4.52 13.119)" fill="#4f8f94"/>
      </g>
    </g>
  </g>
</svg>
