<svg xmlns="http://www.w3.org/2000/svg" xmlns:xlink="http://www.w3.org/1999/xlink" width="80" height="80" viewBox="0 0 80 80">
  <defs>
    <clipPath id="clip-path">
      <rect id="Rectangle_65" data-name="Rectangle 65" width="55.067" height="48.753" fill="none"/>
    </clipPath>
    <clipPath id="clip-pro_icon_c_03">
      <rect width="80" height="80"/>
    </clipPath>
  </defs>
  <g id="pro_icon_c_03" clip-path="url(#clip-pro_icon_c_03)">
    <g id="Group_78" data-name="Group 78" transform="translate(13 15.142)">
      <g id="Group_77" data-name="Group 77" transform="translate(0 0)" clip-path="url(#clip-path)">
        <path id="Path_5529" data-name="Path 5529" d="M2.044,48.452a2.039,2.039,0,0,0,.888-3.876v-.77c.407-.451,2.007-1.923,6.55-2.133l.246,2.819a2.043,2.043,0,1,0,1.623.109l.256-2.929a12.428,12.428,0,0,1,5.31,1.214,4.833,4.833,0,0,1,1.113.787c.051.05.093.095.126.133v.737a2.047,2.047,0,1,0,1.512-.045V43.341l-.105-.178c-.1-.21-1.815-2.721-7.824-3l.411-4.7h7.123a.754.754,0,0,0,.754-.754V31.9a.754.754,0,0,0-.754-.754,47.1,47.1,0,0,1-8.87.647,44.15,44.15,0,0,1-5.816-.307,27.537,27.537,0,0,1-.569-3.4C3.7,24.829,5.471,15.707,5.471,15.707a.754.754,0,0,0-.755-.753H1.395a.755.755,0,0,0-.755.753v19a.755.755,0,0,0,.755.754H8.938l.411,4.7c-6.01.28-7.722,2.79-7.824,3l-.106.178v1.128a2.04,2.04,0,0,0,.625,3.983" transform="translate(0 0.301)" fill="#526452"/>
        <path id="Path_5530" data-name="Path 5530" d="M11.386,30.65c.071,0,.141-.016.212-.022s.162.012.245.012H21.13L22.5,34.886c.321-3.657.637-7.117.845-9.172a6.781,6.781,0,0,1,.272-1.356c-.061,0-.122-.007-.185-.007H17.037A26.149,26.149,0,0,1,20.6,15.817l-4.034-2.822a2.512,2.512,0,0,1-.616-3.5,2.519,2.519,0,0,1,3.509-.615L22.1,10.723A5.3,5.3,0,0,0,20.764,7.7C18.9,5.642,14.9,6.26,12.617,9.618A36.213,36.213,0,0,0,6.909,23.591c-.719,4,1.708,7.23,4.477,7.059" transform="translate(0.136 0.131)" fill="#526452"/>
        <path id="Path_5531" data-name="Path 5531" d="M27.209,3.94a2.567,2.567,0,0,1,.622.078,2.512,2.512,0,0,1,1.823,3.056l-1.01,3.972a5.666,5.666,0,1,0-5.006-.764l1.13-4.446a2.516,2.516,0,0,1,2.44-1.9" transform="translate(0.428 0)" fill="#526452"/>
        <path id="Path_5532" data-name="Path 5532" d="M25.392,44.347a3.149,3.149,0,0,0,5.7-2.575l-4.3-13.385c-.288,2.894-.655,6.711-.981,10.759-.151,1.873-.294,3.658-.416,5.2" transform="translate(0.511 0.571)" fill="#526452"/>
        <path id="Path_5533" data-name="Path 5533" d="M19.588,23.588q1.021-1.093,1.952-2.31a36.384,36.384,0,0,0,.413-4.522l-1.538-1.077a29.608,29.608,0,0,1-1.221,5.031,27.608,27.608,0,0,1,.395,2.878" transform="translate(0.386 0.315)" fill="#526452"/>
        <path id="Path_5534" data-name="Path 5534" d="M22.392,19.4v2.808a.886.886,0,0,0,.888.885H24.3a6.16,6.16,0,0,0-.752,2.426c-.517,5.1-1.7,18.924-2,22.846h3.12c.137-1.749.41-5.226.721-9.065.443-5.49.962-10.582,1.255-13.47a2.852,2.852,0,0,1,.632-1.6,4,4,0,0,1,1.8-1.134H47.1a4,4,0,0,1,1.8,1.134,2.859,2.859,0,0,1,.632,1.6c.293,2.888.812,7.979,1.255,13.47.31,3.839.585,7.316.721,9.065h3.12c-.307-3.921-1.485-17.749-2-22.846a6.16,6.16,0,0,0-.752-2.426h1.016a.887.887,0,0,0,.889-.885V19.4a.887.887,0,0,0-.889-.886H23.28a.887.887,0,0,0-.889.886" transform="translate(0.434 0.372)" fill="#526452"/>
        <path id="Path_5535" data-name="Path 5535" d="M51.907,2.125l-.717-.245a.506.506,0,0,0-.642.314L46.137,15.076a.539.539,0,0,0-.023.105H34.95a.5.5,0,0,0-.5.5v.756a.505.505,0,0,0,.5.5H48.589a.505.505,0,0,0,.5-.5v-.756a.5.5,0,0,0-.5-.5h-.62L52.221,2.765a.5.5,0,0,0-.314-.64" transform="translate(0.693 0.037)" fill="#526452"/>
        <path id="Path_5536" data-name="Path 5536" d="M18.986,9.331a2.014,2.014,0,1,0-2.315,3.3l7.064,4.942a2.017,2.017,0,0,0,3.111-1.153l2.429-9.554a2.016,2.016,0,0,0-3.909-.99L23.657,12.6Z" transform="translate(0.318 0.087)" fill="#526452"/>
      </g>
    </g>
  </g>
</svg>
