<svg xmlns="http://www.w3.org/2000/svg" xmlns:xlink="http://www.w3.org/1999/xlink" width="80" height="80" viewBox="0 0 80 80">
  <defs>
    <clipPath id="clip-path">
      <rect id="Rectangle_66" data-name="Rectangle 66" width="44.989" height="54.557" transform="translate(0 0)" fill="none"/>
    </clipPath>
    <clipPath id="clip-pro_icon_c_04">
      <rect width="80" height="80"/>
    </clipPath>
  </defs>
  <g id="pro_icon_c_04" clip-path="url(#clip-pro_icon_c_04)">
    <g id="Group_80" data-name="Group 80" transform="translate(16 13)">
      <g id="Group_79" data-name="Group 79" clip-path="url(#clip-path)">
        <path id="Path_5537" data-name="Path 5537" d="M34.087,42.854c.767,1.552,1.52,3.164,2.356,4.733.511.958.095,1.6-.511,2.278-1.722,1.921-4.176,2.36-6.449,3.03a36.227,36.227,0,0,1-13.419,1.548,36.926,36.926,0,0,1-7.485-1.53C4.888,51.789,5.616,49.8,7,47.47a23.921,23.921,0,0,1,3.2-3.618c-1.658-.937-3.573-1.9-5.364-3.052A10.919,10.919,0,0,1,1.709,25.867a17.963,17.963,0,0,0,2.738-8.644c.278-3.72.57-7.487,2.673-10.862A12.376,12.376,0,0,1,15.484.393c9.229-1.774,17.324,2.492,20.609,12.152.433,1.273.5,2.682,1,3.916A16.927,16.927,0,0,0,39.2,20.047c1.535,2.07,3.483,3.886,4.734,6.1,2.385,4.23.509,11-3.509,13.715a23.167,23.167,0,0,1-3.091,1.846,31.311,31.311,0,0,1-3.249,1.142M21.119,18.347l.05.047c-.61-.616-1.124-1.539-1.854-1.766a7.391,7.391,0,0,0-2.752.23q-.125-.228-.248-.458L17.946,15l-4.78-6.03L8.581,15.289l3.046.92c-.035.206-.069.411-.1.617a6.333,6.333,0,0,1-1.39.056c-2.112-.382-3.2.666-2.967,2.842.246,2.329.571,4.664.6,7,.042,3.749,4.731,7.55,7.545,7.218,1.69-.2,3.358-.591,5.046-.813a4.175,4.175,0,0,1,1.375.306,4.4,4.4,0,0,1-.946,1.016,8.8,8.8,0,0,1-1.7.552c1.181,4.325,1,4.682-3.44,6.858.891,1.834,2.612,2.234,4.367,2.339a9.149,9.149,0,0,0,7.647-3.942,16.056,16.056,0,0,1-2.067-3.237,46.487,46.487,0,0,1-1.288-5.7,1.572,1.572,0,0,1,.127-1.037c.931-1.518,1.919-3,3.015-4.7a.838.838,0,0,1,.58.141c1.335.906,2.277.259,3.173-.711a5.163,5.163,0,0,0,.565-4.731c-.579-1.016-2.32-1.461-2.984-.563-1.228,1.663-2.482,1.068-3.852.407-1.264-.61-2.541-1.192-3.812-1.787" fill="#526452"/>
        <path id="Path_5538" data-name="Path 5538" d="M9.014,20.07l-1.519-.686c.355-.334.692-.921,1.069-.948.824-.059,2.1-.116,2.4.345a3.637,3.637,0,0,1,.06,2.645c-.088.315-1.135.363-1.9.577-.049-.87-.085-1.521-.108-1.933" fill="#526452"/>
        <path id="Path_5539" data-name="Path 5539" d="M21.119,18.347a25.983,25.983,0,0,1-.078,3.035c-.024.192-.771.423-1.169.4a1.211,1.211,0,0,1-.832-.667A3.843,3.843,0,0,1,19,19.8l-1.1.163c-.134-1.418.584-1.979,2.06-1.7.4.076.806.09,1.21.133l-.051-.048" fill="#526452"/>
        <path id="Path_5540" data-name="Path 5540" d="M12.484,27.414h4.365c-.224,1.4-1.469,1.576-2.578,1.505-.808-.051-2.139-.052-1.787-1.505" fill="#526452"/>
        <path id="Path_5541" data-name="Path 5541" d="M31.176,21.8l-2.569,1.9a1.177,1.177,0,0,1,.1-2.036c.746-.516,1.717-.977,2.473.14" fill="#526452"/>
        <path id="Path_5542" data-name="Path 5542" d="M14.337,25.667a8.517,8.517,0,0,1-1.9-.063c-.128-.029-.069-.861-.1-1.323l2.118.6q-.062.391-.121.783" fill="#526452"/>
      </g>
    </g>
  </g>
</svg>
