<svg xmlns="http://www.w3.org/2000/svg" xmlns:xlink="http://www.w3.org/1999/xlink" width="80" height="80" viewBox="0 0 80 80">
  <defs>
    <clipPath id="clip-path">
      <rect id="Rectangle_70" data-name="Rectangle 70" width="57.758" height="43.606" fill="none"/>
    </clipPath>
    <clipPath id="clip-pro_icon_d_04">
      <rect width="80" height="80"/>
    </clipPath>
  </defs>
  <g id="pro_icon_d_04" clip-path="url(#clip-pro_icon_d_04)">
    <g id="Group_88" data-name="Group 88" transform="translate(13.842 18.197)">
      <g id="Group_87" data-name="Group 87" transform="translate(0 0)" clip-path="url(#clip-path)">
        <path id="Path_5553" data-name="Path 5553" d="M43.769,12.474H43.2a2.649,2.649,0,0,0-2.644,2.654v8.784H27.2l-.536,11.006c-.017.352-.047.706-.047,1h13.97A2.637,2.637,0,0,0,43.2,38.29h.565a2.651,2.651,0,0,0,2.644-2.654V15.128a2.649,2.649,0,0,0-2.644-2.654" transform="translate(11.345 5.317)" fill="#4f8f94"/>
        <path id="Path_5554" data-name="Path 5554" d="M17.026,9.228a3.926,3.926,0,0,0,4.985-2.587A4.1,4.1,0,0,0,19.5,1.5,3.927,3.927,0,0,0,14.511,4.1a4.088,4.088,0,0,0,2.516,5.131" transform="translate(6.099 0.555)" fill="#4f8f94"/>
        <path id="Path_5555" data-name="Path 5555" d="M19.057,20.981c-.715.114-2.33.367-6.692.79l.449,9.162a8.97,8.97,0,0,1,.073,1.369H25.343c0-.981,0-.981.021-1.512l.442-9.026-4.019-.416a19.017,19.017,0,0,0-2.731-.367" transform="translate(5.27 8.937)" fill="#4f8f94"/>
        <path id="Path_5556" data-name="Path 5556" d="M10.159,25.992H5.622V10.249A2.651,2.651,0,0,0,2.975,7.595H2.643A2.65,2.65,0,0,0,0,10.249V37.715a2.65,2.65,0,0,0,2.643,2.654h.332A2.64,2.64,0,0,0,5.594,38h5.149c0-.4-.026-.65-.044-1.005Z" transform="translate(0 3.237)" fill="#4f8f94"/>
        <path id="Path_5557" data-name="Path 5557" d="M34.654.613A1.848,1.848,0,0,0,31.827.7L23.813,10.876H18.686L10.7.821A1.913,1.913,0,0,0,8.3.277,1.861,1.861,0,0,0,7.75,3.058l7.723,9.722c0,.029-.007.054-.007.08V24.071l-5.116.535a2.778,2.778,0,0,0-2.48,2.9l.759,13.375A2.776,2.776,0,0,0,11.4,43.529c.043,0,.09,0,.138,0a2.779,2.779,0,0,0,2.633-2.918l-.632-10.739c11.9-1.124,5.514-1.152,10.488-.508l4.886.508-.478,10.6a2.9,2.9,0,0,0,2.326,3.026,2.306,2.306,0,0,0,.438.037,2.776,2.776,0,0,0,2.768-2.646l.612-13.375a2.778,2.778,0,0,0-2.483-2.9l-5.113-.535V12.86l0-.021,7.69-9.758A1.929,1.929,0,0,0,34.654.613" transform="translate(3.132 0)" fill="#4f8f94"/>
      </g>
    </g>
  </g>
</svg>
