<svg xmlns="http://www.w3.org/2000/svg" xmlns:xlink="http://www.w3.org/1999/xlink" width="80" height="80" viewBox="0 0 80 80">
  <defs>
    <clipPath id="clip-path">
      <rect id="Rectangle_58" data-name="Rectangle 58" width="51.825" height="49.465" fill="none"/>
    </clipPath>
    <clipPath id="clip-pro_icon_a_04">
      <rect width="80" height="80"/>
    </clipPath>
  </defs>
  <g id="pro_icon_a_04" clip-path="url(#clip-pro_icon_a_04)">
    <g id="Group_64" data-name="Group 64" transform="translate(16.512 12.4)">
      <g id="Group_63" data-name="Group 63" transform="translate(0 0)" clip-path="url(#clip-path)">
        <path id="Path_5478" data-name="Path 5478" d="M3.733,19.258c-.113-2.18-.229-4.436-.345-6.675.726-.2,1.264-.363,1.809-.5,2.746-.7,3.348-.2,3.45,2.587a18.323,18.323,0,0,0,.971,5.265c.174-.479.534-.976.493-1.436-.164-1.859-.622-3.7-.65-5.558-.036-2.371,2.195-1.1,3.291-1.7.753-.409,1.763-.161,1.852,1.258a35,35,0,0,0,.786,5.128c.1.471.682.84,1.338,1.6.238-2.591.414-4.5.6-6.47a22.359,22.359,0,0,1,3.782.064c.526.1,1.324.894,1.313,1.358-.047,2.106-.337,4.208-.589,6.813.515-.48.94-.686,1.026-.987.451-1.593.847-3.2,1.2-4.821.262-1.181.678-1.939,2.069-1.261A3.107,3.107,0,0,0,27.6,14.3c1.975-.127,1.819,1.282,1.571,2.383-.685,3.046-1.556,6.049-2.392,9.212,3.347.912,1.232,3.3,1.065,4.88-.469,4.458-1.541,8.85-2.149,13.3-.477,3.493-.349,3.535-3.794,3.535-5.148,0-10.3-.1-15.442.052-1.907.056-2.688-.72-2.965-2.385C2.558,39.634,1.593,34,.751,28.345a3.039,3.039,0,0,1,1.057-2.318C1.215,24.371.621,22.716,0,20.984l3.733-1.726m-.625,9.97c.823,5.3,1.559,10.242,2.411,15.164a1.883,1.883,0,0,0,1.363,1.181c5.4.084,10.808.053,16.374.053.913-5.413,1.812-10.748,2.765-16.4a31.1,31.1,0,0,1-22.912,0m13.773.062V21.094l-1.464.076v8.119ZM13.255,28l.112.013c0-3.208.043-6.418-.02-9.626a32.434,32.434,0,0,0-.448-4.248c-.043-.28-.5-.5-.769-.741-.116.307-.361.627-.33.919.464,4.563.963,9.122,1.455,13.682M6.547,13.874c-1.691,1.284-1.268,6.229.929,11.345-.328-4-.625-7.618-.929-11.345m20.407,2.363-1.063-.3q-.85,4.794-1.7,9.59l.569.1q1.1-4.695,2.192-9.388M18.922,25.12l.208.091c.2-1.726.4-3.451.586-5.179.148-1.414.3-2.829.365-4.248.015-.338-.324-.692-.5-1.04-.22.37-.625.735-.63,1.108-.051,3.088-.029,6.178-.029,9.267M11,26.1l.155-.024c-.184-1.133-.324-2.275-.578-3.39-.069-.307-.473-.538-.723-.8-.145.3-.427.618-.412.915.085,1.729.214,3.46.393,5.183a3.126,3.126,0,0,0,.533,1.006c.211-.308.554-.6.6-.929A13.207,13.207,0,0,0,11,26.1M2.658,22.012c1.014,3.743,1.967,5.356,3.487,6-1.317-4.063-2.349-5.9-3.487-6M20.9,28.795c1.183-.978,2.085-4.985,1.525-5.843a.762.762,0,0,0-.629-.256.678.678,0,0,0-.463.448c-.161,1.775-.279,3.553-.433,5.651" transform="translate(0 1.804)" fill="#92993a"/>
        <path id="Path_5479" data-name="Path 5479" d="M28.1,30.525l.278,2.584A12.615,12.615,0,0,1,36,23.693c-1.609,3,.185,5.056,1.538,7.308a26.458,26.458,0,0,1,1.633,4.267c.373-.793.732-1.556,1.167-2.483,2.112,1.985,1.692,4.6,1.528,7-.181,2.665-2.679,4.867-5.6,5.557.3-1.2.614-2.5.97-3.953L33.9,43.009c.879-2.2,1.6-4.028-.126-5.963a5.04,5.04,0,0,1-.422,1.391A5.681,5.681,0,0,1,32.112,39.7c-2.439,1.96-2.7,3.038-1.317,5.628a6.794,6.794,0,0,1-6.714-6.025,10.32,10.32,0,0,1,3.757-9.118l.263.335" transform="translate(3.923 3.864)" fill="#92993a"/>
        <path id="Path_5480" data-name="Path 5480" d="M30.2,19.079c-1.852-2.508-3.476-4.71-5.27-7.14l2.2-.263V0h5.911V11.706l2.361.185-5.2,7.188" transform="translate(4.065 0)" fill="#92993a"/>
        <path id="Path_5481" data-name="Path 5481" d="M35.821,23.512l2.125-.154V11.272H43.9V23.349l2.088.114c-1.753,2.389-3.389,4.622-5.141,7.01-1.766-2.448-3.316-4.6-5.023-6.961" transform="translate(5.841 1.838)" fill="#92993a"/>
        <path id="Path_5482" data-name="Path 5482" d="M27.308,29.329l.535-.357-.272.692-.263-.335" transform="translate(4.453 4.725)" fill="#92993a"/>
      </g>
    </g>
  </g>
</svg>
