<svg xmlns="http://www.w3.org/2000/svg" xmlns:xlink="http://www.w3.org/1999/xlink" width="80" height="80" viewBox="0 0 80 80">
  <defs>
    <clipPath id="clip-path">
      <rect id="Rectangle_64" data-name="Rectangle 64" width="24.644" height="53.098" transform="translate(0 0)" fill="none"/>
    </clipPath>
    <clipPath id="clip-pro_icon_c_02">
      <rect width="80" height="80"/>
    </clipPath>
  </defs>
  <g id="pro_icon_c_02" clip-path="url(#clip-pro_icon_c_02)">
    <g id="Group_76" data-name="Group 76" transform="translate(24 13.451)">
      <g id="Group_75" data-name="Group 75" clip-path="url(#clip-path)">
        <path id="Path_5526" data-name="Path 5526" d="M19.7,17.86c0,3.627-.093,7.463.03,11.293.095,2.947.445,5.888.715,8.829.306,3.337.671,6.668.964,10.006a16.966,16.966,0,0,1,0,2.956c-.1,1.186-1.547,2.168-2.956,2.122a2.734,2.734,0,0,1-2.7-2.394Q15.39,45.7,15,40.735q-.344-4.354-.743-8.705c-.054-.595-.2-1.181-.321-1.861l-1.164-.074c-.163,1.845-.322,3.641-.482,5.437q-.492,5.493-.986,10.99a45.073,45.073,0,0,1-.5,4.672,2.629,2.629,0,0,1-3.078,1.869,2.6,2.6,0,0,1-2.33-2.62c.192-3.111.473-6.217.719-9.324.083-1.05.2-2.1.246-3.149.349-7.252.686-14.5,1.039-22.024a29.866,29.866,0,0,1-3.61,2.283c-1.886.832-3.7-.092-3.765-2.273C-.108,11.619.182,7.269,2.678,3.45A11.241,11.241,0,0,1,3.8,2.181c1.48,1.34,1.549,1.9.38,3.126a2.428,2.428,0,0,1,.545,3.146,24.646,24.646,0,0,0-.971,5.033A16.69,16.69,0,0,1,6.259,12.1a16.183,16.183,0,0,1,3.9-.95c2.085-.156,4.191-.038,6.287-.043,3.75-.007,5.513,1.687,6.716,4.882A27.309,27.309,0,0,1,24.638,26.2c-.025,1.48,0,2.961-.006,4.441-.008,1.4-.752,2.2-2.006,2.184s-1.978-.838-1.932-2.25a31.372,31.372,0,0,0,.208-3.514c-.24-2.883-.622-5.755-.97-8.628a1.566,1.566,0,0,0-.234-.575" fill="#526452"/>
        <path id="Path_5527" data-name="Path 5527" d="M18.463,5.069c0,3.109-2.031,5.051-5.283,5.05C10.26,10.119,8.342,8,8.343,4.77,8.345,1.78,10.36,0,13.737,0c2.8,0,4.726,2.065,4.726,5.069m-7.9,2.169c2.564,1.859,3.972,1.8,5.294,0Z" fill="#526452"/>
        <path id="Path_5528" data-name="Path 5528" d="M10.562,7.238h5.294c-1.322,1.8-2.73,1.859-5.294,0" fill="#526452"/>
      </g>
    </g>
  </g>
</svg>
