<svg xmlns="http://www.w3.org/2000/svg" xmlns:xlink="http://www.w3.org/1999/xlink" width="80" height="80" viewBox="0 0 80 80">
  <defs>
    <clipPath id="clip-path">
      <rect id="Rectangle_69" data-name="Rectangle 69" width="42.48" height="50.258" fill="none"/>
    </clipPath>
    <clipPath id="clip-pro_icon_d_03">
      <rect width="80" height="80"/>
    </clipPath>
  </defs>
  <g id="pro_icon_d_03" clip-path="url(#clip-pro_icon_d_03)">
    <g id="Group_86" data-name="Group 86" transform="translate(21.133 13.8)">
      <g id="Group_85" data-name="Group 85" transform="translate(0 0)" clip-path="url(#clip-path)">
        <path id="Path_5551" data-name="Path 5551" d="M22.6,50.249c-4.774-.235-9.354-1.15-13.4-3.894a4.582,4.582,0,0,1-2.1-5.223,21.168,21.168,0,0,0,.432-3.566,5.351,5.351,0,0,0-1.719-4.153A18.609,18.609,0,0,1,.045,18.282,19.511,19.511,0,0,1,12.816,1.248a18.925,18.925,0,0,1,15.111.678c5.351,2.629,9.3,6.7,10.617,12.8a6.4,6.4,0,0,1-.149,3.939c-.958,2.159.188,3.615,1.433,5.059.615.715,1.29,1.375,1.856,2.138,1.409,1.9.921,3.662-1.263,4.468-.08.028-.17.034-.25.063-1.677.584-1.689.588-1.172,2.243a2.243,2.243,0,0,1-.442,2.608c-.124.113-.295.288-.282.417.194,1.966-1.432,3.313-1.7,5.166-.3,2.066-1.633,2.953-3.727,2.967-.086,0-.173,0-.259,0-2.923.033-3.469-.5-4.08,3.131-.352,2.089-2.027,3.17-4.614,3.319-.429.024-.861,0-1.292,0m-1.238-2.23c4.514,0,4.514,0,5.369-3.234.584-2.209,1.563-2.96,3.867-2.967.6,0,1.207.025,1.807-.012,1.517-.092,2.048-.6,2.233-2.109a5.059,5.059,0,0,1,.587-1.825c.49-.892,1.2-1.707.557-2.836A.735.735,0,0,1,36,34.348c1.4-.673.751-1.663.454-2.607a1.962,1.962,0,0,1,1.366-2.814c.521-.2,1.052-.369,1.57-.572.728-.285,1.067-.594.383-1.381-.533-.614-1.064-1.232-1.634-1.813-1.917-1.957-2.81-4.219-1.858-6.915a7.25,7.25,0,0,0-.32-4.874,15.181,15.181,0,0,0-3.143-4.956A16.715,16.715,0,0,0,20.944,2.242,16.94,16.94,0,0,0,5.609,9.281a16.613,16.613,0,0,0-3.538,10.8A16.859,16.859,0,0,0,7.542,32.055a7.521,7.521,0,0,1,1.981,3.823c.515,2.1-.122,4.086-.338,6.111a2.4,2.4,0,0,0,1.157,2.483,22.153,22.153,0,0,0,11.022,3.547" transform="translate(0 0)" fill="#4f8f94"/>
        <path id="Path_5552" data-name="Path 5552" d="M24.483,22.756c-1.362-.535-3.039.337-4.818.769-3.529.855-6.856.6-9.3-2.605a1.683,1.683,0,0,0-1.152-.706,5.786,5.786,0,0,1-4.9-3.836A6.581,6.581,0,0,1,5.6,9.42a8.7,8.7,0,0,1,4.688-2.769,2.429,2.429,0,0,0,1.625-1.092c1.044-1.639,2.808-2.083,4.575-2.251a11.49,11.49,0,0,1,8.33,2.416.737.737,0,0,1,.2.167c1.39,2.385,3.717,3.969,5.317,6.148a7.351,7.351,0,0,1,.98,6.647,6.268,6.268,0,0,1-6.832,4.07m-.612-12.017a11.74,11.74,0,0,1,1.195,2.188c.778,2.856-.868,5.154-3.425,4.691a5.284,5.284,0,0,1-2.734-1.607c-.508-.508-.87-.661-1.259.1a5.565,5.565,0,0,1-.635.806c-.371.471-.413.879.149,1.266a13.156,13.156,0,0,0,3.8,2.109,2.13,2.13,0,0,0,2.026-.368A7.159,7.159,0,0,0,25.813,12.1a1.479,1.479,0,0,0-1.943-1.363M8.82,18.194c-1.128-2.665-.523-4.678,1.667-6.24.508-.363.828-2.759.49-3.276-.18-.277-.4-.2-.673-.15A6.685,6.685,0,0,0,5.831,13.08c-.346,2.08.635,3.843,2.99,5.114m16.1-9.382c-1.859-2.719-4.7-3.365-7.644-3.791a3.573,3.573,0,0,0-3.259,1.317,8.5,8.5,0,0,1,5.16,1.381,6.827,6.827,0,0,0,5.743,1.093m-5.157,1.315A11.35,11.35,0,0,0,13.853,8.1C13.438,8.1,13,8.032,12.8,8.6c-.562,1.566.066,2.607,1.664,2.695a1.784,1.784,0,0,1,.757.1c1.865,1.076,3.42.894,4.539-1.268m8.131,2.452c-.037.07-.109.142-.107.212.083,2.821.063,5.609-2.418,7.618-.133.107-.253.262-.091.435a.751.751,0,0,0,.7.188,4.292,4.292,0,0,0,3.6-3.212c.311-1.522.122-4.283-1.689-5.241M11.773,18.539a3.107,3.107,0,0,0,1.278-.283c.74-.264,1.14-.588.341-1.308a8.488,8.488,0,0,1-1.479-2.235c-.217-.377-.165-1.122-.734-1.053s-.755.74-.961,1.25a3.186,3.186,0,0,0-.183.745c-.17,1.254.767,2.884,1.738,2.884M23.44,14.5c.027-1.061-1.421-3.009-2.118-2.982a4.573,4.573,0,0,0-1.969,2.106c-.006.629,1.929,2.065,2.777,2.038A1.221,1.221,0,0,0,23.44,14.5m-4.31,7.232a15.989,15.989,0,0,1-2.354-1.435c-.98-.858-1.9-1.156-3-.293-.256.2-.794.113-.8.508s.41.623.739.821a6.263,6.263,0,0,0,5.414.4M14.186,13c-.258.222-1.226-.411-.866.644a5.294,5.294,0,0,0,1.417,2.095c.644.606.956-.074,1.184-.42.276-.416,1.137-.863.416-1.448A3.542,3.542,0,0,0,14.186,13" transform="translate(1.879 1.592)" fill="#4f8f94"/>
      </g>
    </g>
  </g>
</svg>
