<svg xmlns="http://www.w3.org/2000/svg" xmlns:xlink="http://www.w3.org/1999/xlink" width="80" height="80" viewBox="0 0 80 80">
  <defs>
    <clipPath id="clip-path">
      <rect id="Rectangle_71" data-name="Rectangle 71" width="55.2" height="39.487" fill="none"/>
    </clipPath>
    <clipPath id="clip-pro_icon_e_01">
      <rect width="80" height="80"/>
    </clipPath>
  </defs>
  <g id="pro_icon_e_01" clip-path="url(#clip-pro_icon_e_01)">
    <g id="Group_90" data-name="Group 90" transform="translate(13 19)">
      <g id="Group_89" data-name="Group 89" transform="translate(0 0)" clip-path="url(#clip-path)">
        <path id="Path_5558" data-name="Path 5558" d="M.013,19.9q0-8.679,0-17.36C.018.647.627.051,2.549.009,3.053,0,3.555,0,4.059.009c1.891.046,2.5.657,2.5,2.561.007,5.887.051,11.775-.028,17.662-.021,1.488.465,1.886,1.894,1.846,3.317-.094,6.641-.07,9.961-.009,1.162.021,1.616-.312,1.581-1.537-.077-2.715.01-5.435-.039-8.151-.019-1.076.315-1.523,1.458-1.52,9.762.031,19.523,0,29.285.031,2.49.007,4.391,2.093,4.45,5.3.131,6.992.076,13.988.016,20.982-.013,1.755-.712,2.305-2.457,2.286-4.09-.043-4.4.8-4.37-4.319.022-3.729.526-3.207-3.155-3.215-12.228-.019-24.456.019-36.682-.042-1.538-.007-2.081.419-1.937,1.954.122,1.3.016,2.614.022,3.922,0,1.1-.505,1.7-1.635,1.7C-.433,39.452,0,40.019.012,34.992s0-10.064,0-15.1" transform="translate(0 0)" fill="#8f7052"/>
        <path id="Path_5559" data-name="Path 5559" d="M16.067,12.341c-.007,3.187-2.048,5.15-5.346,5.141-3.448-.007-5.432-1.987-5.429-5.415,0-3.3,2.151-5.379,5.534-5.36,3.239.018,5.25,2.179,5.242,5.633" transform="translate(2.573 3.262)" fill="#8f7052"/>
      </g>
    </g>
  </g>
</svg>
