<svg xmlns="http://www.w3.org/2000/svg" xmlns:xlink="http://www.w3.org/1999/xlink" width="80" height="80" viewBox="0 0 80 80">
  <defs>
    <clipPath id="clip-path">
      <rect id="Rectangle_56" data-name="Rectangle 56" width="53.236" height="48.356" fill="none"/>
    </clipPath>
    <clipPath id="clip-pro_icon_a_02">
      <rect width="80" height="80"/>
    </clipPath>
  </defs>
  <g id="pro_icon_a_02" clip-path="url(#clip-pro_icon_a_02)">
    <g id="Group_60" data-name="Group 60" transform="translate(17.666 14.936)">
      <g id="Group_59" data-name="Group 59" transform="translate(0 0)" clip-path="url(#clip-path)">
        <path id="Path_5467" data-name="Path 5467" d="M36.048,25.262c-1.515-1.781-2.864-3.3-4.129-4.88a2.818,2.818,0,0,1-.684-3.157c1.087-2.443-.567-4.437-1.414-6.494-.164-.4-1.6-.5-2.388-.374a76.187,76.187,0,0,0-7.619,1.533,4.785,4.785,0,0,0-3.286,5.859,13.063,13.063,0,0,1,.138,3.793c-.034.409-.751.76-1.156,1.137a4.694,4.694,0,0,1-.617-1.358c-.168-1.67-.231-3.35-.335-5.026-.232-3.728,1.832-5.507,4.81-6.594a22.908,22.908,0,0,1,9.557-1.2c1.413.1,2.145-.471,2.219-1.711a32.252,32.252,0,0,0-.261-4.1c-3.212,1.594-6.131,1.239-9.056.9-4.8-.556-9.563-.954-13.709,2.388C4.859,8.6,2.513,11.755,2.2,16.052c-.475,6.6,1.788,12.537,4.719,18.264.569,1.113,1.717.869,2.724.556.33-.1.654-.427.951-.392a6.905,6.905,0,0,1,1.471.5c-.242.517-.353,1.225-.759,1.505a6.921,6.921,0,0,1-2.076.607c.248,1.652.563,3.279.716,4.921.17,1.825.236,3.664.228,5.5,0,.284-.629.565-.968.848-.279-.394-.744-.76-.809-1.186-.466-3.08-.851-6.173-1.27-9.26-.033-.241-.045-.588-.2-.7-2.785-1.963-3.492-5.122-4.562-8.03A32.229,32.229,0,0,1,.019,16.673C.23,11.6,2.64,7.636,6.418,4.493A15.678,15.678,0,0,1,17.37,1.081c2.82.109,5.619.651,8.439.858A4.759,4.759,0,0,0,29.793.527a1.307,1.307,0,0,1,2.285.344c1.272,2.784,2.132,5.638.256,8.564a1.71,1.71,0,0,0-.116,1.271c.424,1.369,1,2.692,1.406,4.065a2.544,2.544,0,0,1,.028,1.8c-1.109,1.765.142,2.745,1.076,3.868.807.971,1.675,1.9,2.4,2.93,1.346,1.926.736,3.76-1.479,4.538a3.533,3.533,0,0,1-1.9.288c-.49-.129-.839-.787-1.252-1.211a6,6,0,0,1,1.136-.872c.737-.333,1.529-.545,2.416-.849" transform="translate(0 0)" fill="#92993a"/>
        <path id="Path_5468" data-name="Path 5468" d="M50.847,30.535a4.969,4.969,0,0,1-3.209,5.091,1.88,1.88,0,0,0-.829,1.031c-1.226,3.353-4.235,4.189-6.233,3.185a7.918,7.918,0,0,1-2.543-2.461,1.728,1.728,0,0,1,.355-1.67c.61-.425,1.344-.133,1.622.712a2.2,2.2,0,0,0,2.8,1.6,2.249,2.249,0,0,0,1.836-2.587c-.123-1.147.52-1.583,1.476-1.68a3.471,3.471,0,0,0,2.861-3.369A3.538,3.538,0,0,0,45.995,27.3c-1.159-.071-1.4-.667-1.315-1.539a2.5,2.5,0,0,0-2.129-2.736,2.294,2.294,0,0,0-2.576,1.624c-.3.765-.835,1.492-1.665.9-.329-.236-.344-1.293-.135-1.835.821-2.124,2.08-2.772,4.694-2.643a4.259,4.259,0,0,1,3.689,3.048A3.033,3.033,0,0,0,47.862,25.6a4.815,4.815,0,0,1,2.984,4.934" transform="translate(2.369 1.314)" fill="#92993a"/>
        <path id="Path_5469" data-name="Path 5469" d="M25.753,39.71c-2.507-.438-5.35-.81-8.128-1.46a6.222,6.222,0,0,1-4.4-4.119c-.169-.445.206-1.1.33-1.652.456.123,1.235.137,1.317.386.975,2.9,3.422,3.576,5.978,4.031a20.974,20.974,0,0,0,9.915-.126,2.62,2.62,0,0,0,2.182-2.512c.025-.327.592-.611.911-.915.3.321.814.61.866.967.33,2.289-.892,3.994-3.39,4.564-1.711.391-3.478.531-5.586.836" transform="translate(0.823 2.028)" fill="#92993a"/>
        <path id="Path_5470" data-name="Path 5470" d="M12.831,29.858c-2.848.267-5.049-1.426-6.1-4.681C5.7,22.02,6.27,19.686,8.474,17.883a2.841,2.841,0,0,1,3.608,0,4.967,4.967,0,0,1,1.425,1.877c.1.194-.263.891-.528.969a1.485,1.485,0,0,1-1.245-.279c-1.332-1.311-2.4-1.066-3.145.686-1.07,2.511.744,5.6,3.027,6.612,1.037.461,1.6.945,1.215,2.108" transform="translate(0.389 1.076)" fill="#92993a"/>
        <path id="Path_5471" data-name="Path 5471" d="M34.49,30.4c2.223.352,4.456.649,6.656,1.107.38.08.619.844.923,1.291-.5.221-1,.651-1.484.628-2.82-.133-5.633-.386-8.451-.568-.943-.062-2.292.153-2.339-1.037-.058-1.479,1.384-1.092,2.342-1.129.768-.03,1.538-.006,2.308-.006.015-.095.031-.19.046-.285" transform="translate(1.86 1.898)" fill="#92993a"/>
        <path id="Path_5472" data-name="Path 5472" d="M34.811,29.365c-1.333,0-2.67.055-4-.035-.38-.025-.733-.467-1.1-.718.369-.368.714-1.019,1.109-1.052,1.529-.124,3.08.044,4.609-.075,1.688-.131,3.356-.508,5.042-.666a4.269,4.269,0,0,1,1.5.455c-.2.462-.288,1.187-.626,1.333a9.569,9.569,0,0,1-2.853.73c-1.219.119-2.458.029-3.689.029" transform="translate(1.856 1.674)" fill="#92993a"/>
        <path id="Path_5473" data-name="Path 5473" d="M26.037,43.1A7.215,7.215,0,0,1,26,44.931a1.42,1.42,0,0,1-.925.847c-.234.049-.823-.457-.844-.742a28.082,28.082,0,0,1,0-3.978c.02-.277.6-.718.907-.711a1.205,1.205,0,0,1,.858.773,9.772,9.772,0,0,1,.041,1.983" transform="translate(1.509 2.519)" fill="#92993a"/>
      </g>
    </g>
  </g>
</svg>
