<svg xmlns="http://www.w3.org/2000/svg" xmlns:xlink="http://www.w3.org/1999/xlink" width="80" height="80" viewBox="0 0 80 80">
  <defs>
    <clipPath id="clip-path">
      <rect id="Rectangle_72" data-name="Rectangle 72" width="37.252" height="43.206" fill="none"/>
    </clipPath>
    <clipPath id="clip-pro_icon_e_02">
      <rect width="80" height="80"/>
    </clipPath>
  </defs>
  <g id="pro_icon_e_02" clip-path="url(#clip-pro_icon_e_02)">
    <g id="Group_92" data-name="Group 92" transform="translate(22.061 17)">
      <g id="Group_91" data-name="Group 91" transform="translate(0 0)" clip-path="url(#clip-path)">
        <path id="Path_5560" data-name="Path 5560" d="M3.022,28.65a4.016,4.016,0,0,0-1.81-2.293,5.349,5.349,0,0,1-.728-.543,1.378,1.378,0,0,1-.173-1.921c.461-.6.984-1.161,1.469-1.747a6.792,6.792,0,0,0,1.583-5.134,25.964,25.964,0,0,1-.18-4.206,12.1,12.1,0,0,1,3.88-8.075A17.27,17.27,0,0,1,18.382.043a20.155,20.155,0,0,1,9.975,1.8,15.027,15.027,0,0,1,8.282,10.3,17.193,17.193,0,0,1-2.618,14.525c-.513.774-1.03,1.549-1.6,2.283a8.368,8.368,0,0,0-1.637,6.161A37.377,37.377,0,0,0,32.2,41.946a.893.893,0,0,1-.912,1.258q-7.237,0-14.477,0a.888.888,0,0,1-1.01-.844,35.413,35.413,0,0,0-1.009-4.182c-.591-1.758-1.305-2.275-3.168-2.305a36.389,36.389,0,0,0-3.645.257,8.755,8.755,0,0,1-1.368.034c-1.761-.126-2.643-1.019-2.9-2.927-.15-1.14-.268-2.284-.4-3.426a1.444,1.444,0,0,1,.86-.237,7.587,7.587,0,0,0,1.516-.4,1.069,1.069,0,0,0,.231-.1c.18-.11.359-.243.275-.481-.094-.263-.324-.28-.549-.2a5.691,5.691,0,0,1-1.414.384c-.406.034-.835.176-1.21-.128" transform="translate(0 0)" fill="#8f7052"/>
        <path id="Path_5561" data-name="Path 5561" d="M2.031,19.408A4.373,4.373,0,0,0,4.4,19.086a2.154,2.154,0,0,1,.378-.141.476.476,0,0,1,.6.338.5.5,0,0,1-.318.656,6.383,6.383,0,0,1-2.29.57.878.878,0,0,0-.445.061l-.29-1.162" transform="translate(0.991 9.243)" fill="#ada99c"/>
        <path id="Path_5562" data-name="Path 5562" d="M10.686,19.205a5.2,5.2,0,0,1-.933-6,8.236,8.236,0,0,1,4.311-4.237c1.473-.671,2.964-1.3,4.4-2.048a1.461,1.461,0,0,1,2.067.752,5.653,5.653,0,0,1,.393,2.03,14.338,14.338,0,0,1-1.009,6.954,6.345,6.345,0,0,1-4.968,4.1,4.543,4.543,0,0,1-3.357-.821c-.061-.257.15-.351.295-.481A17.671,17.671,0,0,0,14.6,16.577a5.51,5.51,0,0,0,.643-1.149c.06-.152.171-.351-.016-.457-.228-.131-.329.094-.415.25a10.88,10.88,0,0,1-2.04,2.637,18.7,18.7,0,0,1-1.515,1.271c-.158.122-.341.33-.566.076" transform="translate(4.495 3.289)" fill="#fff"/>
        <path id="Path_5563" data-name="Path 5563" d="M11.423,16.577c.525.031.78-.412,1.113-.677A10.743,10.743,0,0,0,15.5,12.422c.106-.205.247-.39.516-.259.293.143.216.375.118.606a8.015,8.015,0,0,1-1.537,2.3,16.749,16.749,0,0,1-2.039,1.966,1.632,1.632,0,0,0-.226.265,2.354,2.354,0,0,0-.762.484A13.806,13.806,0,0,1,8.708,19.3c-.574.217-.887.156-.984-.216-.131-.506.254-.634.618-.753a11.981,11.981,0,0,0,2.805-1.394c.124-.08.344-.118.275-.357" transform="translate(3.758 5.917)" fill="#aea99c"/>
        <path id="Path_5564" data-name="Path 5564" d="M4.063,13.968a1.412,1.412,0,0,1-.769-.22.476.476,0,0,1-.205-.655.445.445,0,0,1,.577-.286,1.165,1.165,0,0,0,1.225-.223.5.5,0,0,1,.763.049c.232.3.124.571-.152.789a2.415,2.415,0,0,1-1.439.546" transform="translate(1.48 6.069)" fill="#ada99b"/>
      </g>
    </g>
  </g>
</svg>
