<svg xmlns="http://www.w3.org/2000/svg" xmlns:xlink="http://www.w3.org/1999/xlink" width="80" height="80" viewBox="0 0 80 80">
  <defs>
    <clipPath id="clip-path">
      <rect id="Rectangle_67" data-name="Rectangle 67" width="36.547" height="47.085" fill="none"/>
    </clipPath>
    <clipPath id="clip-pro_icon_d_01">
      <rect width="80" height="80"/>
    </clipPath>
  </defs>
  <g id="pro_icon_d_01" clip-path="url(#clip-pro_icon_d_01)">
    <g id="Group_82" data-name="Group 82" transform="translate(21.727 16.458)">
      <g id="Group_81" data-name="Group 81" transform="translate(0 0)" clip-path="url(#clip-path)">
        <path id="Path_5543" data-name="Path 5543" d="M17.917,27.649a2.72,2.72,0,0,0-.192,1.682c-.016,4.974,0,9.948-.015,14.922,0,2.053-.677,2.8-2.484,2.83-1.724.031-2.73-.966-2.734-2.86q-.029-13.666-.01-27.332c0-3.943-.022-3.916-3.073-6.372Q5.088,7.043.861,3.448A1.788,1.788,0,0,1,.5.7,1.8,1.8,0,0,1,3.263.595C6.431,3.223,9.63,5.815,12.73,8.521a7.993,7.993,0,0,0,4.689,2.006c3.521.4,5.773-1.362,8.1-3.465C28,4.83,30.6,2.742,33.188.636a2.025,2.025,0,0,1,3.029.155c.751,1.2.106,2.08-.8,2.837Q29.967,8.2,24.5,12.745a3.061,3.061,0,0,0-1.153,2.587c.039,9.371.022,18.744.021,28.116,0,2.937-.514,3.648-2.626,3.636-1.9-.01-2.606-1.028-2.608-3.782,0-4.712.006-9.425-.01-14.137,0-.484.179-1.016-.21-1.515m1.465-6.136c-.216-1.778-.423-3.473-.629-5.168a2.12,2.12,0,0,0-.03-.31c-.109-.408-.234-.869-.724-.9-.6-.042-.556.486-.62.887-.2,1.225-.486,2.442-.578,3.675-.1,1.378-.772,2.9.735,4.023.335.252.56.517.854.057.46-.724,1.268-1.31.992-2.261" transform="translate(0 0)" fill="#4f8f94"/>
        <path id="Path_5544" data-name="Path 5544" d="M9.01,4.994C9.043,2.165,10.917.406,13.843.461a4.421,4.421,0,0,1,4.323,4.627,4.787,4.787,0,0,1-4.584,4.63A4.508,4.508,0,0,1,9.01,4.994" transform="translate(4.416 0.226)" fill="#4f8f94"/>
      </g>
    </g>
  </g>
</svg>
