<svg xmlns="http://www.w3.org/2000/svg" xmlns:xlink="http://www.w3.org/1999/xlink" width="80" height="80" viewBox="0 0 80 80">
  <defs>
    <clipPath id="clip-path">
      <rect id="Rectangle_61" data-name="Rectangle 61" width="46.266" height="53.592" fill="none"/>
    </clipPath>
    <clipPath id="clip-pro_icon_b_03">
      <rect width="80" height="80"/>
    </clipPath>
  </defs>
  <g id="pro_icon_b_03" clip-path="url(#clip-pro_icon_b_03)">
    <g id="Group_70" data-name="Group 70" transform="translate(17.961 11.541)">
      <g id="Group_69" data-name="Group 69" transform="translate(0 0)" clip-path="url(#clip-path)">
        <path id="Path_5501" data-name="Path 5501" d="M31.507,32.545c-1-1.659-1.917-3.188-2.835-4.719-1.637-2.728-.766-5.411,2-6.277a3.537,3.537,0,0,1,4.061,1.717c1.668,2.708,3.253,5.47,4.819,8.24.593,1.05.031,3.664-.938,4.6-2.1,2.028-4.115,4.175-6.394,5.985-2.019,1.6-2.4,3.678-2.587,5.952-.033.4.077.868-.1,1.182-.207.371-.764.914-.973.838-.408-.146-.983-.693-.961-1.038.23-3.488.341-6.882,3.955-9.135,2.241-1.4,3.946-3.686,5.775-5.682a2.08,2.08,0,0,0,.173-1.895c-1.395-2.675-2.888-5.3-4.448-7.883a1.557,1.557,0,0,0-2.289-.674c-1.108.575-.965,1.374-.586,2.128.825,1.644,1.754,3.241,2.718,4.81,1.05,1.711,1.029,2.535-.413,3.926q-2.654,2.563-5.385,5.042a1.849,1.849,0,0,1-2.988-.98c-.206-.952.363-1.239,1.23-1.3a3.024,3.024,0,0,0,1.694-.473c1.5-1.341,2.9-2.8,4.473-4.361" transform="translate(3.908 3.475)" fill="#9e5d82"/>
        <path id="Path_5502" data-name="Path 5502" d="M9.9,32.723c1.542,1.469,3.1,3,4.72,4.452.3.264.871.212,1.313.314s1.15.1,1.25.348a1.7,1.7,0,0,1-.241,1.37c-.794,1.152-1.817,1.2-2.847.232-1.919-1.8-3.909-3.535-5.7-5.456a2.624,2.624,0,0,1-.1-2.3,54.616,54.616,0,0,1,2.843-5.313c.629-1.077.636-2.068-.429-2.708-.994-.6-1.77-.024-2.318.919-1.485,2.559-3.09,5.056-4.426,7.69a2.72,2.72,0,0,0,.588,2.4c2.594,2.671,5.374,5.162,8,7.806a4.262,4.262,0,0,1,.926,2.2,25.29,25.29,0,0,1,.341,4.062c0,.457-.427.916-.658,1.374-.35-.348-.866-.635-1.015-1.053a6.763,6.763,0,0,1-.649-2.906c.22-1.685-.8-2.519-1.789-3.458-2.155-2.055-4.3-4.119-6.489-6.14C1.42,34.9,1.233,32.6,2.791,29.953,4.04,27.831,5.329,25.734,6.566,23.6c1.31-2.256,3.012-2.768,5.371-1.561,1.5.767,2.112,3.23,1.157,5.043s-2.029,3.592-3.2,5.636" transform="translate(0.282 3.476)" fill="#9e5d82"/>
        <path id="Path_5503" data-name="Path 5503" d="M20.748,36.807c-4.459-.008-8.614-4.046-8.218-8.5.451-5.086,3.343-7.961,8.277-8.029a7.938,7.938,0,0,1,8.22,8.255c.022,4.658-3.607,8.074-8.279,8.278m6.257-8.232a6.436,6.436,0,0,0-6.112-6.336c-3.43-.144-6.329,3.441-6.324,6.25a6.323,6.323,0,0,0,6.162,6.239,6.345,6.345,0,0,0,6.274-6.153" transform="translate(2.03 3.292)" fill="#9e5d82"/>
        <path id="Path_5504" data-name="Path 5504" d="M14.141,9.8l2.2-1.208c.9,4.612,2.379,8.852,2.472,13.334l-.849.358-4.618-6.408c-1.571,1.034-2.35.156-3.012-1.413-.8-1.906-1.8-3.732-2.761-5.569C7.07,7.925,7.13,7.2,8.146,6.6c.962-.568,1.857-1.251,2.8-1.857.837-.539,1.4-.554,1.709.646.386,1.505.986,2.955,1.488,4.411m1.131,1.689c-2.221.85-2.224.851-2.94-1.362-.353-1.095-.7-2.193-1.065-3.353L9.23,8.031c.995,1.977,1.989,3.954,3.049,6.062,2.379-1.448,2.536,1.107,3.907,2.257-.348-1.846-.631-3.353-.914-4.856" transform="translate(1.18 0.714)" fill="#9e5d82"/>
        <path id="Path_5505" data-name="Path 5505" d="M25.027,14.071c-1.645-.5-1.6-1.481-.917-2.652,1.121-1.933,2.269-3.85,3.335-5.812a1.764,1.764,0,0,1,2.587-.832c.615.273,1.17.686,1.794.935,2.362.946,2.42,1.209.7,3.167-.671.762-1.275,1.582-1.986,2.472a3.411,3.411,0,0,0,.7.635c1.1.553,1.011,1.3.291,2.033q-3.756,3.822-7.588,7.566c-.262.256-.775.252-1.173.368-.12-.518-.474-1.123-.321-1.54.766-2.084,1.666-4.119,2.587-6.339m1.269,2.7,3.518-3.319c-1.993-1.13-2.052-1.737-.675-3.3.773-.875,1.475-1.811,2.241-2.758l-2.286-.911L25.74,12.265c1.505.6,1.33,1.687.888,2.841-.177.464-.377.918-.566,1.376q-.117.3-.235.606l.468-.315" transform="translate(3.637 0.734)" fill="#9e5d82"/>
        <path id="Path_5506" data-name="Path 5506" d="M37.81,12.811c-.762,2.64-2.95,3.535-5.16,5.2-.059-1.093-.353-2.189-.087-2.349,1.612-.965,2.513-3.2,5.247-2.854" transform="translate(5.269 2.074)" fill="#9e5d82"/>
        <path id="Path_5507" data-name="Path 5507" d="M20.8,6.692a7.86,7.86,0,0,1-.048,2.056,1.592,1.592,0,0,1-1.075.917c-.255.046-.881-.546-.905-.883a27.427,27.427,0,0,1,.006-4.3c.03-.353.657-.832,1.073-.908.255-.046.831.523.905.889A11.424,11.424,0,0,1,20.8,6.692" transform="translate(3.035 0.58)" fill="#9e5d82"/>
        <path id="Path_5508" data-name="Path 5508" d="M2.9,13.109c2.34-.384,2.994,1.678,4.388,2.492.288.169.042,1.253-.235,1.982C5.4,16.261,2.9,15.9,2.9,13.109" transform="translate(0.471 2.121)" fill="#9e5d82"/>
        <path id="Path_5509" data-name="Path 5509" d="M0,10.738c2.112-.109,2.353.122,2.32,2.114C.6,13.167-.048,12.611,0,10.738" transform="translate(0 1.74)" fill="#9e5d82"/>
        <path id="Path_5510" data-name="Path 5510" d="M21.447,1.232c-.883.561-1.394,1.127-1.732,1.039a1.554,1.554,0,0,1-.928-1.188A1.513,1.513,0,0,1,19.814,0c.361-.044.8.57,1.633,1.23" transform="translate(3.05 0)" fill="#9e5d82"/>
        <path id="Path_5511" data-name="Path 5511" d="M40.175,11.229,38.1,13.109c-.2-.471-.7-1.208-.552-1.365a10.413,10.413,0,0,1,1.9-1.384l.731.869" transform="translate(6.091 1.682)" fill="#9e5d82"/>
        <path id="Path_5512" data-name="Path 5512" d="M25.817,15.1l-.468.315q.119-.3.235-.606l.234.291" transform="translate(4.115 2.405)" fill="#9e5d82"/>
      </g>
    </g>
  </g>
</svg>
