<svg xmlns="http://www.w3.org/2000/svg" xmlns:xlink="http://www.w3.org/1999/xlink" width="80" height="80" viewBox="0 0 80 80">
  <defs>
    <clipPath id="clip-path">
      <rect id="Rectangle_17" data-name="Rectangle 17" width="40.98" height="63.623" fill="none"/>
    </clipPath>
    <clipPath id="clip-step-hot-icon-03">
      <rect width="80" height="80"/>
    </clipPath>
  </defs>
  <g id="step-hot-icon-03" clip-path="url(#clip-step-hot-icon-03)">
    <g id="Group_39" data-name="Group 39" transform="translate(20 9.608)">
      <g id="Group_38" data-name="Group 38" transform="translate(0 0)" clip-path="url(#clip-path)">
        <path id="Path_54" data-name="Path 54" d="M9.437,1.925A9.169,9.169,0,0,0,8.519,1.6c-.594-.143-.8-.43-.592-1.06S8.494-.068,9,.1c.96.315,1.926.624,2.9.89.616.171.756.486.554,1.078-.338.986-.642,1.985-.922,2.988-.169.607-.5.637-1.039.486-.579-.162-.642-.462-.465-.951a1.349,1.349,0,0,0,.134-.887A17.057,17.057,0,0,0,5.552,7.913,18.352,18.352,0,1,0,36.765,11.32c-.064-.14-.134-.278-.2-.414-.3-.591-.5-1.214.261-1.567.714-.329,1.063.213,1.33.767A19.611,19.611,0,0,1,38.6,27.012a20.1,20.1,0,0,1-19.191,12.11C9.371,38.771.839,30.872.075,20.943A19.5,19.5,0,0,1,8.8,2.491c.151-.1.305-.2.453-.315a1.761,1.761,0,0,0,.189-.252" transform="translate(0 -0.001)" fill="#5f5e5e"/>
        <path id="Path_55" data-name="Path 55" d="M15.469,8.8c0,1.656.009,3.311-.006,4.967a1.353,1.353,0,0,0,.55,1.177,2.515,2.515,0,0,1,1.006,2.912,2.563,2.563,0,0,1-2.671,1.83,1.428,1.428,0,0,0-1.245.6c-1.5,1.9-3.026,3.782-4.544,5.67-.23.285-.44.607-.832.69a.848.848,0,0,1-.89-.351A.893.893,0,0,1,6.95,25.12q1.543-1.945,3.1-3.88c.4-.5.787-1.019,1.212-1.5a2.167,2.167,0,0,0,.7-2.355A2.145,2.145,0,0,1,12.986,15a1.444,1.444,0,0,0,.622-1.328c-.018-3.126-.009-6.253-.007-9.38,0-.276-.009-.554.011-.828.044-.587.189-1.141.92-1.142s.9.581.909,1.15c.029,1.777.011,3.556.011,5.333h.018" transform="translate(5.593 1.947)" fill="#5f5e5e"/>
        <path id="Path_56" data-name="Path 56" d="M1.618,37.657l1.076-1.291A3.691,3.691,0,0,0,5.077,37.4c.975,0,1.494-.418,1.494-1.076,0-.7-.57-.912-1.405-1.268L3.91,34.528a2.715,2.715,0,0,1-1.9-2.52c0-1.532,1.343-2.712,3.243-2.712a4.159,4.159,0,0,1,2.94,1.2l-.951,1.177a2.984,2.984,0,0,0-1.989-.773c-.822,0-1.343.366-1.343.988,0,.671.659.912,1.457,1.229l1.229.519a2.589,2.589,0,0,1,1.887,2.546c0,1.532-1.279,2.839-3.446,2.839a5,5,0,0,1-3.42-1.369" transform="translate(1.359 24.598)" fill="#5f5e5e"/>
        <path id="Path_57" data-name="Path 57" d="M8.308,30.956H5.674V29.385h7.169v1.571h-2.66v7.817H8.308Z" transform="translate(4.764 24.673)" fill="#5f5e5e"/>
        <path id="Path_58" data-name="Path 58" d="M10.4,29.386h5.751v1.571H12.272v2.165h3.293v1.571H12.272V37.2h4.016v1.569H10.4Z" transform="translate(8.73 24.673)" fill="#5f5e5e"/>
        <path id="Path_59" data-name="Path 59" d="M14.632,29.385H17.71c2.079,0,3.674.736,3.674,2.953,0,2.14-1.608,3.1-3.622,3.1H16.507v3.332H14.632Zm3,4.573c1.291,0,1.913-.545,1.913-1.621s-.684-1.457-1.976-1.457H16.507v3.078Z" transform="translate(12.286 24.673)" fill="#5f5e5e"/>
        <path id="Path_60" data-name="Path 60" d="M18.778,37.61l.874-1.177a2.979,2.979,0,0,0,2.09.962c.951,0,1.6-.456,1.6-1.242,0-.887-.545-1.431-2.585-1.431V33.379c1.724,0,2.281-.57,2.281-1.356,0-.708-.456-1.126-1.255-1.126a2.566,2.566,0,0,0-1.773.835l-.949-1.141a4.171,4.171,0,0,1,2.811-1.165c1.812,0,3.041.887,3.041,2.458a2.172,2.172,0,0,1-1.558,2.064v.063a2.3,2.3,0,0,1,1.862,2.255c0,1.672-1.507,2.647-3.293,2.647a3.986,3.986,0,0,1-3.142-1.3" transform="translate(15.767 24.708)" fill="#5f5e5e"/>
      </g>
    </g>
  </g>
</svg>
