<svg xmlns="http://www.w3.org/2000/svg" xmlns:xlink="http://www.w3.org/1999/xlink" width="80" height="80" viewBox="0 0 80 80">
  <defs>
    <clipPath id="clip-path">
      <rect id="Rectangle_18" data-name="Rectangle 18" width="53.517" height="77.374" transform="translate(0 3)" fill="none"/>
    </clipPath>
    <clipPath id="clip-step-hot-icon-04">
      <rect width="80" height="80"/>
    </clipPath>
  </defs>
  <g id="step-hot-icon-04" clip-path="url(#clip-step-hot-icon-04)">
    <g id="Group_41" data-name="Group 41" transform="translate(17 -1)">
      <g id="Group_40" data-name="Group 40" transform="translate(0 0)" clip-path="url(#clip-path)">
        <path id="Path_61" data-name="Path 61" d="M6.916,23.308a3.093,3.093,0,0,1,.935-2.147c1.056-1.077,1.054-1.4,0-2.5a3.011,3.011,0,0,1-.918-2A.926.926,0,0,1,7.7,15.573a.867.867,0,0,1,1.048.8,2.558,2.558,0,0,0,.8,1.362,2.982,2.982,0,0,1-.031,4.388c-.987,1.014-1,1.47.012,2.474a3.2,3.2,0,0,1,.943,1.916.966.966,0,0,1-.743,1.175.879.879,0,0,1-1.089-.829,2.25,2.25,0,0,0-.785-1.291,3.108,3.108,0,0,1-.946-2.262" transform="translate(6.388 17.367)" fill="#5f5e5e"/>
        <path id="Path_62" data-name="Path 62" d="M10.5,24.46a3.179,3.179,0,0,1,.8-2.278c1.216-1.358,1.21-1.435,0-2.758a2.78,2.78,0,0,1-.794-1.97.892.892,0,0,1,.8-.993.847.847,0,0,1,1,.769,2.678,2.678,0,0,0,.844,1.418,3,3,0,0,1,.025,4.292c-.11.121-.229.235-.337.358a1.213,1.213,0,0,0,.013,1.91,3.664,3.664,0,0,1,1.191,2.172c.075.648-.219,1.145-.773,1.208a.886.886,0,0,1-1.06-.866,2.1,2.1,0,0,0-.746-1.235A2.939,2.939,0,0,1,10.5,24.46" transform="translate(9.698 18.195)" fill="#5f5e5e"/>
        <path id="Path_63" data-name="Path 63" d="M1.415,29c.152.933.346,1.851.573,2.758H3.938c-.112-.406-.233-.808-.321-1.233-.289-1.4-.483-2.818-.783-4.215-.137-.642.027-.829.673-.827,5.373.017,10.747.01,16.12.01h15.91c1,0,1.006,0,.831.964-.281,1.545-.537,3.1-.858,4.63-.048.231-.137.444-.2.671H37.35a37.467,37.467,0,0,0,.719-3.747c.1-.662.369-.877,1.006-.829.606.044,1.218.01,1.952.01a18.166,18.166,0,0,1,2.61.113,3.012,3.012,0,0,1,2.414,3.945c-.054.177-.14.337-.2.508H47.81c.05-.169.112-.327.154-.5A4.985,4.985,0,0,0,43.828,25.4a36.877,36.877,0,0,0-4.149-.092c-.6-.012-1.233.144-1.108-.869.056-.444-.379-.735-.839-.808a5.317,5.317,0,0,0-.841-.037q-8.627,0-17.253,0-8.694,0-17.391,0C.814,23.6.5,23.988.763,25.4c.223,1.2.458,2.395.652,3.6" transform="translate(0.626 24.791)" fill="#5f5e5e"/>
        <path id="Path_64" data-name="Path 64" d="M3.864,31.914h2a12.794,12.794,0,0,1-.925-3.074,18.3,18.3,0,0,1-.165-2.732c-.017-.7-.4-1.135-.981-1.146-.523-.01-.877.423-.9,1.116-.01.258,0,.516,0,.773a14.386,14.386,0,0,0,.6,4.017c.108.365.24.7.369,1.046" transform="translate(2.667 26.055)" fill="#5f5e5e"/>
        <path id="Path_65" data-name="Path 65" d="M22.755,26.99l-9.816-3.024c-.15-.048-.3-.09-.45-.142-.273-.1-.535-.215-.577-.55a.709.709,0,0,1,.369-.664q1.414-1.056,2.83-2.114,5.658-4.233,11.319-8.46a2.444,2.444,0,0,0,.764-.969,7.661,7.661,0,0,1,5.194-4.3,7.885,7.885,0,0,1,9.824,8.612,19.218,19.218,0,0,1-.844,3.23q-.239.814-.5,1.62c-.079.246-.013.389.239.46.287.083.573.165.852.269.464.173.654.45.519.912q-.661,2.259-1.385,4.5c-.158.485-.473.614-.975.466q-1.6-.473-3.2-.983a.73.73,0,0,1-.556-1.02q.649-2.19,1.347-4.367a.737.737,0,0,1,1.01-.508c1.01.239,1.02.242,1.314-.756a22.924,22.924,0,0,0,1.085-4.136,6.8,6.8,0,0,0-12.986-3.407,1.069,1.069,0,0,0,.033.86Q31,20.785,33.833,29.053c.115.337.323.693-.012,1.006-.315.3-.685.129-1.025.023q-5.021-1.541-10.041-3.091m3.528-13.323L26.19,13.6l-7.785,5.829c.56.1.983.185,1.406.25.7.106.777.164.706.6-.1.606-.2.66-.918.527s-1.422-.244-2.129-.381a.711.711,0,0,0-.608.158c-.925.7-1.86,1.391-2.787,2.091-.1.079-.3.131-.254.3.033.123.208.119.325.156q8.979,2.77,17.961,5.532c.113.035.25.144.348.035s-.01-.239-.048-.352c-.587-1.724-1.183-3.443-1.762-5.171a.658.658,0,0,0-.6-.494c-.619-.088-1.235-.21-1.854-.317-.271-.048-.514-.138-.4-.483.094-.281-.038-.771.552-.642.4.087.8.148,1.2.223.137.023.292.125.4.013.137-.135,0-.3-.046-.435q-1.146-3.364-2.3-6.727c-.037-.106-.029-.254-.215-.314-.14.454-.289.9-.412,1.35-.11.4-.36.35-.656.25s-.6-.148-.448-.589.279-.894.415-1.343m11.84,9.351c-.158.51-.31,1.021-.473,1.529-.077.24-.019.387.235.462q.949.28,1.893.583a.313.313,0,0,0,.464-.235q.465-1.529.941-3.06c.079-.25-.027-.383-.262-.456-.617-.187-1.233-.373-1.847-.569a.336.336,0,0,0-.494.262c-.144.5-.3.991-.456,1.485" transform="translate(10.997 9.009)" fill="#5f5e5e"/>
        <path id="Path_66" data-name="Path 66" d="M24.192,12.691c.2.05.265.165.121.364s-.264.389-.41.573a5.9,5.9,0,0,0-1.085,2.17c-.652,2.441-2.353,2.793-4.265,2.264-.439-.123-.631-.029-.769.36a1.258,1.258,0,0,1-.212.364.5.5,0,0,1-.669.16c-.275-.14-.431-.448-.265-.667a3.569,3.569,0,0,0,.39-2.481,3.283,3.283,0,0,1,2.358-3.12,8.393,8.393,0,0,1,4.182-.094c.2.035.4.069.623.11M18.159,15.75c.19.031.248-.106.331-.185a9.1,9.1,0,0,1,1.368-1.071c.308-.2.6-.287.869.046.219.277.121.592-.25.873-.1.075-.208.142-.31.212a6.95,6.95,0,0,0-1.195,1.058c-.1.115-.181.214.029.323A1.82,1.82,0,0,0,21.547,16a10.264,10.264,0,0,1,.85-2.133c.117-.2.081-.325-.167-.346a5.385,5.385,0,0,0-2.814.344,2.172,2.172,0,0,0-1.256,1.887" transform="translate(15.304 14.419)" fill="#5f5e5e"/>
        <path id="Path_67" data-name="Path 67" d="M22.1,16.907a.5.5,0,0,1,.321.677.537.537,0,0,1-1.014-.356.516.516,0,0,1,.693-.321" transform="translate(19.736 18.588)" fill="#5f5e5e"/>
        <path id="Path_68" data-name="Path 68" d="M15.363,15a.514.514,0,0,1-.358-.683.494.494,0,0,1,.669-.348.5.5,0,0,1,.346.673.529.529,0,0,1-.658.358" transform="translate(13.827 15.873)" fill="#5f5e5e"/>
        <path id="Path_69" data-name="Path 69" d="M14.58,14.591a.521.521,0,0,1,.365.679.5.5,0,0,1-.675.346.536.536,0,0,1,.31-1.025" transform="translate(12.835 16.458)" fill="#5f5e5e"/>
        <path id="Path_70" data-name="Path 70" d="M16.181,15.085a.5.5,0,0,1,.375.654.506.506,0,0,1-.656.377.534.534,0,0,1,.281-1.031" transform="translate(14.321 16.916)" fill="#5f5e5e"/>
        <path id="Path_71" data-name="Path 71" d="M18.733,15.87a.534.534,0,0,1-.3,1.023.5.5,0,0,1-.364-.662.51.51,0,0,1,.667-.362" transform="translate(16.662 17.64)" fill="#5f5e5e"/>
        <path id="Path_72" data-name="Path 72" d="M20.343,16.368a.507.507,0,0,1,.354.667.535.535,0,0,1-1.021-.315.508.508,0,0,1,.667-.352" transform="translate(18.144 18.096)" fill="#5f5e5e"/>
        <path id="Path_73" data-name="Path 73" d="M21.173,16.788a.5.5,0,0,1-.365-.66.533.533,0,1,1,1.027.283.521.521,0,0,1-.662.377" transform="translate(19.192 17.527)" fill="#5f5e5e"/>
        <path id="Path_74" data-name="Path 74" d="M19.433,16.253a.519.519,0,0,1-.348-.675A.531.531,0,1,1,20.1,15.9a.511.511,0,0,1-.666.358" transform="translate(17.598 17.035)" fill="#5f5e5e"/>
        <path id="Path_75" data-name="Path 75" d="M1.635,43.292l1-1.2a3.426,3.426,0,0,0,2.214.966c.906,0,1.389-.389,1.389-1,0-.646-.529-.846-1.308-1.175l-1.164-.494A2.527,2.527,0,0,1,2,38.043c0-1.425,1.247-2.52,3.012-2.52a3.866,3.866,0,0,1,2.732,1.118l-.883,1.1a2.773,2.773,0,0,0-1.849-.719c-.764,0-1.247.342-1.247.919,0,.623.612.846,1.352,1.141l1.143.483a2.407,2.407,0,0,1,1.754,2.366c0,1.425-1.189,2.637-3.2,2.637a4.644,4.644,0,0,1-3.178-1.272" transform="translate(1.51 32.809)" fill="#5f5e5e"/>
        <path id="Path_76" data-name="Path 76" d="M7.689,37.063H5.24V35.6H11.9v1.46H9.432v7.264H7.689Z" transform="translate(4.84 32.882)" fill="#5f5e5e"/>
        <path id="Path_77" data-name="Path 77" d="M9.439,35.6h5.346v1.46h-3.6v2.014h3.06v1.458h-3.06v2.331h3.732v1.46H9.439Z" transform="translate(8.718 32.883)" fill="#5f5e5e"/>
        <path id="Path_78" data-name="Path 78" d="M13.2,35.6h2.86c1.929,0,3.414.683,3.414,2.743,0,1.989-1.5,2.884-3.368,2.884H14.945v3.1H13.2Zm2.789,4.249c1.2,0,1.777-.506,1.777-1.506s-.635-1.354-1.837-1.354h-.989v2.86Z" transform="translate(12.195 32.883)" fill="#5f5e5e"/>
        <path id="Path_79" data-name="Path 79" d="M17.231,42.812H19.1V37.526H17.525V36.454a5.651,5.651,0,0,0,2.026-.729h1.283v7.087h1.637v1.4h-5.24Z" transform="translate(15.915 32.996)" fill="#5f5e5e"/>
        <path id="Path_80" data-name="Path 80" d="M11.124,23.776q-4.914.9-9.826,1.81c-.15.027-.3.058-.454.079A.676.676,0,0,1,.1,25.451a.685.685,0,0,1,.019-.739l1.489-3.1q2.975-6.2,5.952-12.39a2.378,2.378,0,0,0,.223-1.181A7.45,7.45,0,0,1,10.328,2,7.667,7.667,0,0,1,22.673,5.009,18.422,18.422,0,0,1,23.4,8.171c.106.541.208,1.081.3,1.624.042.246.165.34.414.289.283-.06.571-.115.858-.152.475-.06.764.092.858.552q.447,2.245.829,4.505c.083.487-.131.741-.631.839q-1.6.315-3.2.591a.71.71,0,0,1-.937-.629q-.427-2.181-.8-4.37c-.087-.487.14-.768.639-.893.981-.248.991-.25.794-1.243a22.479,22.479,0,0,0-.925-4.055A6.617,6.617,0,0,0,8.862,8.135a1.049,1.049,0,0,0,.417.727Q15.445,14.711,21.6,20.567c.25.239.591.452.444.873-.14.4-.535.417-.875.481q-5.024.932-10.049,1.854M8.171,10.7c-.037-.006-.075-.012-.112-.015-1.345,2.8-2.687,5.6-4.09,8.529C4.5,19.048,4.9,18.93,5.3,18.8c.654-.225.746-.208.879.2.187.567.123.658-.552.866s-1.339.429-2.01.631a.694.694,0,0,0-.454.41c-.481,1.021-.975,2.037-1.46,3.057-.054.115-.2.246-.085.371.083.092.233.01.348-.012q8.991-1.653,17.982-3.312c.11-.021.277.012.314-.129s-.117-.2-.2-.281c-1.283-1.221-2.572-2.437-3.847-3.664a.635.635,0,0,0-.741-.156c-.575.2-1.16.375-1.741.56-.256.081-.506.113-.562-.237-.046-.285-.381-.648.187-.8.383-.1.758-.231,1.137-.348.129-.04.31-.023.356-.169.056-.179-.133-.256-.237-.354q-2.5-2.386-5.015-4.763c-.079-.077-.138-.208-.327-.173.085.454.154.9.252,1.348.087.4-.152.464-.452.512s-.585.14-.652-.306-.162-.9-.244-1.345m14.417,2.733c.094.51.19,1.021.281,1.531.04.242.154.342.408.292.631-.123,1.262-.24,1.893-.348.248-.042.344-.162.3-.412-.194-1.02-.381-2.041-.567-3.062-.044-.252-.2-.319-.433-.275-.614.117-1.231.233-1.849.34-.264.046-.362.181-.308.446.1.494.185.991.277,1.487" transform="translate(0 3)" fill="#5f5e5e"/>
        <path id="Path_81" data-name="Path 81" d="M8.743,7.037c.2-.048.3.025.271.26s-.054.454-.1.679a5.732,5.732,0,0,0,.042,2.358c.537,2.4-.771,3.468-2.66,3.872-.433.092-.556.26-.5.656a1.275,1.275,0,0,1-.019.41.488.488,0,0,1-.506.439c-.3,0-.573-.192-.527-.456.162-.933-.385-1.574-.781-2.316a3.193,3.193,0,0,1,.629-3.751A8.188,8.188,0,0,1,8.158,7.221l.585-.185M4.918,12.39c.179-.06.165-.2.2-.308a9,9,0,0,1,.7-1.539c.175-.314.392-.521.771-.352.314.139.373.456.177.866-.052.11-.113.215-.171.323a6.635,6.635,0,0,0-.552,1.448c-.038.144-.062.265.167.265A1.771,1.771,0,0,0,7.952,11.08a10.04,10.04,0,0,1-.229-2.222c.012-.229-.075-.317-.3-.225A5.24,5.24,0,0,0,5.153,10.2a2.113,2.113,0,0,0-.235,2.193" transform="translate(3.332 9.486)" fill="#5f5e5e"/>
        <path id="Path_82" data-name="Path 82" d="M9.509,10.245a.481.481,0,0,1,.581.441.488.488,0,0,1-.441.591.493.493,0,0,1-.592-.442.5.5,0,0,1,.452-.589" transform="translate(8.358 12.458)" fill="#5f5e5e"/>
        <path id="Path_83" data-name="Path 83" d="M2.84,11.628c-.342.025-.564-.1-.616-.429a.479.479,0,0,1,.419-.6.491.491,0,0,1,.6.425.513.513,0,0,1-.406.6" transform="translate(2.046 12.781)" fill="#5f5e5e"/>
        <path id="Path_84" data-name="Path 84" d="M1.984,11.626c.335-.027.571.108.617.421a.489.489,0,0,1-.425.6.521.521,0,0,1-.192-1.023" transform="translate(1.449 13.734)" fill="#5f5e5e"/>
        <path id="Path_85" data-name="Path 85" d="M3.587,11.332c.321-.04.554.069.617.394a.492.492,0,0,1-.4.621.52.52,0,0,1-.221-1.016" transform="translate(2.936 13.458)" fill="#5f5e5e"/>
        <path id="Path_86" data-name="Path 86" d="M6.142,10.863a.518.518,0,0,1,.2,1.018.487.487,0,0,1-.612-.4.5.5,0,0,1,.414-.614" transform="translate(5.278 13.027)" fill="#5f5e5e"/>
        <path id="Path_87" data-name="Path 87" d="M7.753,10.567a.5.5,0,0,1,.606.417.48.48,0,0,1-.419.6.479.479,0,0,1-.6-.414.493.493,0,0,1,.417-.6" transform="translate(6.765 12.754)" fill="#5f5e5e"/>
        <path id="Path_88" data-name="Path 88" d="M8.655,10.556a.489.489,0,0,1-.612-.4.518.518,0,1,1,1.012-.219.5.5,0,0,1-.4.623" transform="translate(7.415 11.791)" fill="#5f5e5e"/>
        <path id="Path_89" data-name="Path 89" d="M6.915,10.876a.508.508,0,0,1-.606-.425.488.488,0,0,1,.419-.6.477.477,0,0,1,.6.421.494.494,0,0,1-.412.608" transform="translate(5.818 12.084)" fill="#5f5e5e"/>
      </g>
    </g>
  </g>
</svg>
