<svg xmlns="http://www.w3.org/2000/svg" xmlns:xlink="http://www.w3.org/1999/xlink" width="80" height="80" viewBox="0 0 80 80">
  <defs>
    <clipPath id="clip-path">
      <rect id="Rectangle_20" data-name="Rectangle 20" width="52.195" height="70.227" fill="none"/>
    </clipPath>
    <clipPath id="clip-step-hot-icon-06">
      <rect width="80" height="80"/>
    </clipPath>
  </defs>
  <g id="step-hot-icon-06" clip-path="url(#clip-step-hot-icon-06)">
    <g id="Group_45" data-name="Group 45" transform="translate(14 6)">
      <g id="Group_44" data-name="Group 44" transform="translate(0 0)" clip-path="url(#clip-path)">
        <path id="Path_97" data-name="Path 97" d="M26.869,22.828q0,6.308,0,12.617a3.824,3.824,0,0,1-3.109,4.061.776.776,0,0,0-.666.821,1.039,1.039,0,0,1-1.106,1.135.987.987,0,0,1-.981-1.145c.01-.525-.239-.681-.725-.681q-6.778.014-13.556,0c-.473,0-.737.135-.76.66-.029.671-.362,1.173-1.083,1.164s-1.031-.516-1-1.2c.019-.477-.254-.619-.646-.729A3.928,3.928,0,0,1,.017,35.354C0,26.857.017,18.361,0,9.862c0-.741.271-.975,1-.973q12.453.026,24.909,0c.735,0,.981.24.977.981-.027,4.319-.013,8.637-.013,12.957m-4-8.974h0c0-.621.01-1.243,0-1.864-.012-.556-.275-.952-.86-.937-.548.013-.769.425-.775.931q-.014,1.821,0,3.643c.006.512.208.893.8.875a.792.792,0,0,0,.833-.869c.017-.592,0-1.187,0-1.779" transform="translate(2 12.21)" fill="#5f5e5e"/>
        <path id="Path_98" data-name="Path 98" d="M13.455,15.456q-6.143,0-12.286,0C.078,15.454.01,15.385.01,14.306,0,11,0,7.7.012,4.4.024,1.562,1.6,0,4.439,0Q13.5,0,22.572,0c2.753,0,4.292,1.547,4.294,4.305q.006,5,0,10c0,1.125-.019,1.15-1.125,1.15q-6.143.006-12.286,0m9.389-3.943h.01c0-.337.027-.675-.006-1.008a.75.75,0,0,0-.837-.752.719.719,0,0,0-.762.737c-.023.7-.023,1.4.013,2.1a.7.7,0,0,0,.731.679.753.753,0,0,0,.841-.664,7.9,7.9,0,0,0,.01-1.089" transform="translate(2.003 4)" fill="#5f5e5e"/>
        <path id="Path_99" data-name="Path 99" d="M20.987,2.492a4.552,4.552,0,0,0-.491-.175c-.317-.077-.427-.231-.315-.566s.3-.323.569-.235c.514.167,1.029.331,1.55.475.329.09.4.258.294.575-.181.527-.342,1.06-.492,1.595-.09.323-.265.34-.554.26-.31-.087-.342-.246-.248-.508a.72.72,0,0,0,.071-.473,9.08,9.08,0,0,0-2.458,2.249A9.8,9.8,0,1,0,35.576,7.507c-.033-.075-.069-.146-.108-.219-.16-.315-.269-.648.14-.837.381-.177.567.113.71.408a10.469,10.469,0,0,1,.239,9.028,10.753,10.753,0,0,1-20.567-3.241,10.408,10.408,0,0,1,4.655-9.851c.079-.056.162-.11.24-.167a.822.822,0,0,0,.1-.135" transform="translate(16.731 5.353)" fill="#5f5e5e"/>
        <path id="Path_100" data-name="Path 100" d="M24.053,6.111c0,.883.006,1.768,0,2.651a.728.728,0,0,0,.294.629,1.343,1.343,0,0,1,.537,1.556,1.368,1.368,0,0,1-1.425.977.757.757,0,0,0-.664.321c-.8,1.014-1.616,2.018-2.428,3.026-.121.152-.235.325-.442.367a.451.451,0,0,1-.477-.187.477.477,0,0,1,.06-.629q.825-1.039,1.656-2.072c.215-.267.421-.544.648-.8a1.155,1.155,0,0,0,.375-1.256,1.145,1.145,0,0,1,.544-1.275.764.764,0,0,0,.331-.708c-.01-1.67,0-3.339,0-5.007,0-.148-.006-.3.006-.442.025-.314.1-.61.491-.61s.481.31.487.614c.015.948.006,1.9.006,2.847Z" transform="translate(19.872 6.448)" fill="#5f5e5e"/>
        <path id="Path_101" data-name="Path 101" d="M3.819,39.577l1-1.2a3.427,3.427,0,0,0,2.214.966c.906,0,1.389-.389,1.389-1,0-.646-.529-.846-1.308-1.175L5.95,36.671a2.527,2.527,0,0,1-1.766-2.343c0-1.425,1.247-2.52,3.012-2.52a3.866,3.866,0,0,1,2.732,1.118l-.883,1.1A2.773,2.773,0,0,0,7.2,33.3c-.764,0-1.247.342-1.247.919,0,.623.612.846,1.352,1.141l1.143.483A2.407,2.407,0,0,1,10.2,38.212c0,1.425-1.189,2.637-3.2,2.637a4.644,4.644,0,0,1-3.178-1.272" transform="translate(3.527 29.379)" fill="#5f5e5e"/>
        <path id="Path_102" data-name="Path 102" d="M9.873,33.347H7.424v-1.46h6.663v1.46H11.615v7.264H9.873Z" transform="translate(6.857 29.452)" fill="#5f5e5e"/>
        <path id="Path_103" data-name="Path 103" d="M11.623,31.887h5.346v1.46h-3.6v2.014h3.06v1.458h-3.06v2.331H17.1v1.46H11.623Z" transform="translate(10.735 29.452)" fill="#5f5e5e"/>
        <path id="Path_104" data-name="Path 104" d="M15.388,31.888h2.86c1.929,0,3.412.683,3.412,2.743,0,1.989-1.495,2.883-3.366,2.883H17.129v3.1H15.388Zm2.789,4.249c1.2,0,1.777-.506,1.777-1.506s-.635-1.354-1.837-1.354h-.989v2.86Z" transform="translate(14.213 29.452)" fill="#5f5e5e"/>
        <path id="Path_105" data-name="Path 105" d="M19.072,39.53l.812-1.095a2.768,2.768,0,0,0,1.943.894c.883,0,1.483-.423,1.483-1.154,0-.823-.506-1.329-2.4-1.329V35.6c1.6,0,2.118-.531,2.118-1.26,0-.66-.423-1.048-1.166-1.048a2.38,2.38,0,0,0-1.647.777l-.885-1.058a3.881,3.881,0,0,1,2.614-1.085c1.683,0,2.826.825,2.826,2.285a2.02,2.02,0,0,1-1.448,1.918v.06a2.138,2.138,0,0,1,1.731,2.095c0,1.554-1.4,2.46-3.06,2.46a3.7,3.7,0,0,1-2.92-1.212" transform="translate(17.615 29.486)" fill="#5f5e5e"/>
      </g>
    </g>
  </g>
</svg>
