<svg xmlns="http://www.w3.org/2000/svg" xmlns:xlink="http://www.w3.org/1999/xlink" width="80" height="80" viewBox="0 0 80 80">
  <defs>
    <clipPath id="clip-path">
      <rect id="Rectangle_16" data-name="Rectangle 16" width="60.021" height="66.783" fill="none"/>
    </clipPath>
    <clipPath id="clip-step-hot-icon-02">
      <rect width="80" height="80"/>
    </clipPath>
  </defs>
  <g id="step-hot-icon-02" clip-path="url(#clip-step-hot-icon-02)">
    <g id="Group_37" data-name="Group 37" transform="translate(10 6.608)">
      <g id="Group_36" data-name="Group 36" transform="translate(0 0)" clip-path="url(#clip-path)">
        <path id="Path_42" data-name="Path 42" d="M32.921,15.41a5.64,5.64,0,0,0,3.821-1.28.943.943,0,0,1,1.078-.145,7.857,7.857,0,0,1,2.371,1.391,3.11,3.11,0,0,1,.993,1.893.751.751,0,0,1-.712.909,4.488,4.488,0,0,0-2.2.828,17.27,17.27,0,0,0-4.016,4.042,9.415,9.415,0,0,1-2.373,2.335,5.775,5.775,0,0,1-4.143.786,1.131,1.131,0,0,0-.973.241,12.715,12.715,0,0,1-4.538,2.237,1.19,1.19,0,0,0-.76.533,1.506,1.506,0,0,1-2.027.589q-6.719-3.033-13.431-6.078A1.515,1.515,0,0,1,5.1,21.746.994.994,0,0,0,5.061,21a13.31,13.31,0,0,1-1.2-4.126,3.324,3.324,0,0,0-.256-.927,43.476,43.476,0,0,0-2.445-4.792A7.084,7.084,0,0,1,.979,3.679,5.358,5.358,0,0,1,8.468,1.473a5.516,5.516,0,0,1,1.992,1.95c.221.364.408.394.767.2a10.479,10.479,0,0,1,1.347-.548,7.385,7.385,0,0,0,1.56-.786c.627-.412,1.119-.946,1.694-1.393A3.8,3.8,0,0,1,19.8.316c1,.407,1.985.866,2.966,1.326.305.143.469.116.585-.213a2.7,2.7,0,0,1,.324-.648.677.677,0,0,1,.938-.232.688.688,0,0,1,.372.894,3.186,3.186,0,0,1-.142.361c-.287.651-.287.648.344.931q1.239.555,2.476,1.117A3.988,3.988,0,0,1,30,8.338,1.036,1.036,0,0,0,30.068,9a.9.9,0,0,1,.107.513,2.54,2.54,0,0,0,.375,1.613,12.372,12.372,0,0,1,.958,3.692c.05.449.247.589.637.6.259,0,.517,0,.776,0M28.6,24.7a2.844,2.844,0,0,0,1.028-.022,5.141,5.141,0,0,0,3-2.009c.583-.714,1.13-1.459,1.744-2.143a11.971,11.971,0,0,1,4.726-3.619c.351-.127.232-.274.057-.443a5.29,5.29,0,0,0-1.492-.89.393.393,0,0,0-.407.075A7.525,7.525,0,0,1,32,16.924c-.337-.044-.442.092-.469.427a12.334,12.334,0,0,1-.815,3.481,10.816,10.816,0,0,1-.559,1.236.742.742,0,0,1-1.35-.614,3.955,3.955,0,0,1,.215-.489,11.565,11.565,0,0,0,1.023-4.213A11.682,11.682,0,0,0,28.774,10.9a1.3,1.3,0,0,1-.166-.979c.1-.316-.046-.436-.3-.546C27.464,9,26.624,8.62,25.79,8.226c-.526-.25-.7-.635-.506-1.041.206-.432.622-.552,1.159-.316.561.248,1.119.508,1.681.754.44.2.5.155.44-.335a2.383,2.383,0,0,0-1.394-1.97C24.541,4.105,21.911,2.9,19.26,1.734a2.374,2.374,0,0,0-2.441.3c-.3.219-.327.331.05.5,1.641.727,3.273,1.475,4.908,2.217.78.355,1.567.7,2.338,1.069a.75.75,0,0,1,.412,1.008.76.76,0,0,1-1.027.361C23.274,7.1,23.053,7,22.832,6.9Q19.165,5.235,15.5,3.566c-.274-.125-.469-.147-.648.145a1.229,1.229,0,0,1-.76.488c-.4.12-.808.232-1.2.372A11.471,11.471,0,0,0,6.415,20.285a2.146,2.146,0,0,1,.237,1.5c-.123.44.044.6.41.76,2.305,1.028,4.6,2.079,6.9,3.12q2.873,1.3,5.749,2.592c.18.081.4.261.55-.013a2.856,2.856,0,0,1,1.928-1.177,10.545,10.545,0,0,0,5-3.105c.191-.219.361-.46.567-.662a.71.71,0,0,1,1.01-.063.719.719,0,0,1,.155.964,5.433,5.433,0,0,1-.326.5M3.981,12.958c.044-.182.086-.366.134-.55a3.921,3.921,0,0,1,.167-.605.771.771,0,0,0-.23-.94,5.1,5.1,0,0,1-1.078-5.7A2.92,2.92,0,0,1,5.624,3.119,2.993,2.993,0,0,1,8.586,4.768c.074.14.127.41.364.2.173-.149.585-.193.337-.6-1.337-2.2-3.944-2.815-5.813-1.293A5.3,5.3,0,0,0,1.7,8.447c.289,1.726,1.578,2.966,2.285,4.511M4.055,7.24A3.992,3.992,0,0,0,4.781,9.4c.184.245.311.285.471-.031A12.33,12.33,0,0,1,7.309,6.451a.464.464,0,0,0,.177-.377A1.735,1.735,0,0,0,6.264,4.7a1.414,1.414,0,0,0-1.586.524A3.7,3.7,0,0,0,4.055,7.24" transform="translate(0 0.001)" fill="#5f5e5e"/>
        <path id="Path_43" data-name="Path 43" d="M3.3,11.485a11.034,11.034,0,0,1,2.035-6.3c.338-.469.729-.6,1.111-.384.432.245.508.71.153,1.21A9.335,9.335,0,0,0,5.066,13.43c.037.156.081.313.116.471a.8.8,0,0,1-.522,1.041c-.429.121-.784-.127-.946-.67A11.773,11.773,0,0,1,3.3,11.485" transform="translate(2.769 3.944)" fill="#5f5e5e"/>
        <path id="Path_44" data-name="Path 44" d="M8.785,3.809a.821.821,0,0,1-.48.681,14.191,14.191,0,0,0-1.623.968A.753.753,0,1,1,5.807,4.24,8.465,8.465,0,0,1,7.678,3.127a.769.769,0,0,1,1.107.683" transform="translate(4.572 2.567)" fill="#5f5e5e"/>
        <path id="Path_45" data-name="Path 45" d="M29.546,16.446q4.733,0,9.463,0a2.965,2.965,0,0,1,.462.02c.254.039.491.2.46.443-.068.556.278.471.609.476a20.43,20.43,0,0,1,2.276.05,2.737,2.737,0,0,1,2.27,3.214,6.837,6.837,0,0,1-3.9,4.618c-.092.046-.189.079-.283.121-.142.061-.2.116-.077.28a1.762,1.762,0,0,1-.464,2.848,9.653,9.653,0,0,1-3.4,1.405,29.368,29.368,0,0,1-7.037.806A29.579,29.579,0,0,1,21,29.609a7.451,7.451,0,0,1-2.415-1.179,1.762,1.762,0,0,1-.109-2.975,6.762,6.762,0,0,1,2.355-1.21c.436-.151.445-.156.2-.526a10.62,10.62,0,0,1-1.481-4.308c-.107-.659-.235-1.315-.357-1.972-.145-.776.029-.992.815-.992q4.771,0,9.54,0m-.007,1.041c-2.947,0-5.894,0-8.843-.006-.353,0-.443.1-.368.453.164.767.27,1.545.429,2.312a7.921,7.921,0,0,0,4.882,6.036,11.443,11.443,0,0,0,5.821.493,7.834,7.834,0,0,0,6.794-6.22c.177-.843.316-1.692.471-2.541.1-.526.092-.528-.458-.528H29.539m.2,12.247,2.7-.158a22.226,22.226,0,0,0,5.011-.846,6.84,6.84,0,0,0,2.465-1.153c.261-.213.517-.454.377-.852a1.326,1.326,0,0,0-1.078-.815,27.11,27.11,0,0,1-2.969.075.7.7,0,0,0-.43.138,8.631,8.631,0,0,1-4.9,1.757,16.737,16.737,0,0,1-4-.16,8.631,8.631,0,0,1-4.662-2.485c-.131-.136-.243-.294-.488-.215a8.61,8.61,0,0,0-2.4,1.041c-.824.583-.828,1.1-.011,1.683.063.044.131.083.2.123a9.288,9.288,0,0,0,2.283.924,31.05,31.05,0,0,0,7.909.944M41.279,18.418c-.4,0-.74.02-1.073-.006s-.5.092-.55.454a10.434,10.434,0,0,1-2.312,5.859c-.149.162-.042.223.125.223.281,0,.565,0,.848-.006a6.155,6.155,0,0,0,5.718-4.3,1.65,1.65,0,0,0-1.325-2.163,9.7,9.7,0,0,0-1.431-.063" transform="translate(14.869 13.809)" fill="#5f5e5e"/>
        <path id="Path_46" data-name="Path 46" d="M22.067,16.088a1.693,1.693,0,0,1,.513-1.177c.578-.591.578-.767,0-1.374a1.661,1.661,0,0,1-.5-1.1.509.509,0,0,1,.425-.6.478.478,0,0,1,.576.442,1.405,1.405,0,0,0,.44.747,1.635,1.635,0,0,1-.017,2.406c-.543.557-.548.806.006,1.358a1.756,1.756,0,0,1,.519,1.05.532.532,0,0,1-.408.646.483.483,0,0,1-.6-.456,1.231,1.231,0,0,0-.43-.708,1.7,1.7,0,0,1-.519-1.24" transform="translate(18.529 9.938)" fill="#5f5e5e"/>
        <path id="Path_47" data-name="Path 47" d="M24.122,16.742a1.743,1.743,0,0,1,.44-1.249c.668-.745.664-.787,0-1.512a1.539,1.539,0,0,1-.436-1.082.49.49,0,0,1,.438-.545.464.464,0,0,1,.548.421,1.48,1.48,0,0,0,.464.778,1.645,1.645,0,0,1,.015,2.355c-.063.066-.127.129-.186.2a.664.664,0,0,0,.007,1.047,2.008,2.008,0,0,1,.653,1.192c.04.355-.12.627-.425.662a.484.484,0,0,1-.579-.475,1.166,1.166,0,0,0-.41-.677,1.618,1.618,0,0,1-.528-1.113" transform="translate(20.254 10.369)" fill="#5f5e5e"/>
        <path id="Path_48" data-name="Path 48" d="M19.758,18.268c0-.142,0-.283,0-.425.015-.381.21-.616.5-.613.316.007.528.243.539.629a9.988,9.988,0,0,0,.09,1.5,5.112,5.112,0,0,0,2.794,4.047,5.677,5.677,0,0,0,1.209.386c.5.116.692.316.627.662s-.381.478-.879.364a5.831,5.831,0,0,1-4.546-4.347,7.9,7.9,0,0,1-.331-2.2" transform="translate(16.588 14.467)" fill="#5f5e5e"/>
        <path id="Path_49" data-name="Path 49" d="M5.611,39.374l1.076-1.291A3.691,3.691,0,0,0,9.07,39.12c.975,0,1.494-.418,1.494-1.076,0-.7-.568-.912-1.405-1.268L7.9,36.245A2.715,2.715,0,0,1,6,33.725c0-1.532,1.343-2.712,3.243-2.712a4.159,4.159,0,0,1,2.94,1.2L11.235,33.4a2.984,2.984,0,0,0-1.989-.773c-.822,0-1.343.366-1.343.988,0,.671.659.912,1.457,1.229l1.229.519A2.589,2.589,0,0,1,12.477,37.9c0,1.532-1.279,2.839-3.446,2.839a5,5,0,0,1-3.42-1.369" transform="translate(4.711 26.04)" fill="#5f5e5e"/>
        <path id="Path_50" data-name="Path 50" d="M12.3,32.674H9.667V31.1h7.169v1.571h-2.66v7.817H12.3Z" transform="translate(8.117 26.116)" fill="#5f5e5e"/>
        <path id="Path_51" data-name="Path 51" d="M14.391,31.1h5.751v1.571H16.265v2.165h3.293v1.571H16.265V38.92h4.016v1.569H14.391Z" transform="translate(12.083 26.116)" fill="#5f5e5e"/>
        <path id="Path_52" data-name="Path 52" d="M18.626,31.1H21.7c2.079,0,3.674.736,3.674,2.953,0,2.14-1.608,3.1-3.622,3.1H20.5v3.332H18.626Zm3,4.573c1.291,0,1.913-.545,1.913-1.621S22.857,32.6,21.566,32.6H20.5v3.078Z" transform="translate(15.639 26.116)" fill="#5f5e5e"/>
        <path id="Path_53" data-name="Path 53" d="M22.928,39.378c2.445-2.331,4.053-3.928,4.053-5.282a1.321,1.321,0,0,0-1.405-1.483,2.466,2.466,0,0,0-1.722.975L22.84,32.575a3.778,3.778,0,0,1,2.977-1.431A2.734,2.734,0,0,1,28.767,34c0,1.595-1.468,3.241-3.14,4.991.469-.052,1.089-.1,1.532-.1h2.051v1.571H22.928Z" transform="translate(19.178 26.15)" fill="#5f5e5e"/>
      </g>
    </g>
  </g>
</svg>
