<svg xmlns="http://www.w3.org/2000/svg" xmlns:xlink="http://www.w3.org/1999/xlink" width="80" height="80" viewBox="0 0 80 80">
  <defs>
    <clipPath id="clip-path">
      <rect id="Rectangle_19" data-name="Rectangle 19" width="42.806" height="70.079" fill="none"/>
    </clipPath>
    <clipPath id="clip-step-hot-icon05">
      <rect width="80" height="80"/>
    </clipPath>
  </defs>
  <g id="step-hot-icon05" clip-path="url(#clip-step-hot-icon05)">
    <g id="Group_43" data-name="Group 43" transform="translate(19 6)">
      <g id="Group_42" data-name="Group 42" transform="translate(0 0)" clip-path="url(#clip-path)">
        <path id="Path_90" data-name="Path 90" d="M24.53,43.68H8.514c-1.16,0-1.337-.135-1.591-1.247A23.234,23.234,0,0,1,6.5,34.82a.893.893,0,0,0-.387-.939,5.66,5.66,0,0,1-1.881-2.953A29.85,29.85,0,0,1,3.1,25.536a10.89,10.89,0,0,0-2.63-5.511c-.637-.756-.641-1.145.046-1.843q.69-.7,1.391-1.387a1.067,1.067,0,0,1,1.533-.231q3.5,1.9,6.994,3.828c.519.285,1.039.571,1.564.848.544.287.671.212.673-.429.006-2.616,0-5.234,0-7.85A12.721,12.721,0,0,1,23.56.146,12.625,12.625,0,0,1,38,10.224a13.265,13.265,0,0,1,.264,2.8c-.008,3.272,0,6.544-.01,9.814a1.731,1.731,0,0,0,.346,1.073,22.129,22.129,0,0,1,4.086,10.953,23.476,23.476,0,0,1-.464,7.671c-.221.96-.439,1.141-1.425,1.141q-8.131,0-16.262,0m.037-1.908c5.053,0,10.1-.006,15.156.01.506,0,.725-.148.8-.664a23.63,23.63,0,0,0,.267-5.367,19.969,19.969,0,0,0-6-13.261,1.787,1.787,0,0,0-1.354-.554c-5.605.015-11.209.046-16.812-.019a3.335,3.335,0,0,0-2.88,1.2c-.621.741-.973.737-1.822.273C9.091,21.843,6.25,20.3,3.42,18.746a.608.608,0,0,0-.85.123c-.315.3-.115.5.056.725A13.124,13.124,0,0,1,5.14,25.832,20.128,20.128,0,0,0,6.3,30.9a2.921,2.921,0,0,0,1.252,1.614c1.079.573,1.135.712.954,1.922a21.192,21.192,0,0,0,.117,6.586c.1.589.319.768.91.766,5.011-.023,10.022-.013,15.033-.013m-9.816-22.2a.557.557,0,0,0,.152-.037,16.486,16.486,0,0,1,8.322-3.149c.26-.019.354-.167.354-.406s-.015-.491.01-.735c.048-.487-.164-.637-.639-.631-.723.012-1.131-.348-1.146-.912-.013-.587.437-.987,1.148-.993,1.085-.01,2.168-.008,3.251,0,.723.006,1.123.335,1.145.914.023.614-.377,1.006-1.118.991-.527-.013-.7.194-.654.683a2.983,2.983,0,0,1,0,.491c-.029.4.108.571.544.616a16.857,16.857,0,0,1,8.343,3.27c.629.46,1.195,1,1.893,1.6-.1-3.311.131-6.458-.133-9.6a10.267,10.267,0,0,0-3.532-6.992,10.7,10.7,0,0,0-9.3-2.562A10.839,10.839,0,0,0,14.81,11.1a77.155,77.155,0,0,0-.11,8.385c0,.017.019.035.05.087m16.3.348a13.612,13.612,0,0,0-12.906,0Z" transform="translate(0 0.001)" fill="#5f5e5e"/>
        <path id="Path_91" data-name="Path 91" d="M20.174,23.948a17.366,17.366,0,0,0-1.558-7.677,1.366,1.366,0,0,1-.194-.7.929.929,0,0,1,.723-.887.944.944,0,0,1,1.146.592,17.789,17.789,0,0,1,1.543,4.83A18.319,18.319,0,0,1,22.1,25.47a1.054,1.054,0,0,1-1.05,1.052c-.558-.015-.871-.41-.873-1.1,0-.491,0-.981,0-1.472" transform="translate(17.011 13.528)" fill="#5f5e5e"/>
        <path id="Path_92" data-name="Path 92" d="M2.441,39.5l1-1.2a3.427,3.427,0,0,0,2.214.966c.906,0,1.389-.389,1.389-1,0-.646-.529-.846-1.308-1.177l-1.164-.494a2.522,2.522,0,0,1-1.766-2.341c0-1.425,1.247-2.52,3.012-2.52A3.866,3.866,0,0,1,8.55,32.849l-.883,1.095a2.781,2.781,0,0,0-1.849-.718c-.764,0-1.247.342-1.247.919,0,.623.612.846,1.352,1.141l1.143.483a2.407,2.407,0,0,1,1.754,2.366c0,1.425-1.189,2.637-3.2,2.637A4.644,4.644,0,0,1,2.441,39.5" transform="translate(2.255 29.308)" fill="#5f5e5e"/>
        <path id="Path_93" data-name="Path 93" d="M8.5,33.27H6.046V31.81H12.71v1.46H10.238v7.264H8.5Z" transform="translate(5.585 29.381)" fill="#5f5e5e"/>
        <path id="Path_94" data-name="Path 94" d="M10.245,31.81h5.346v1.46h-3.6v2.012h3.06v1.46h-3.06v2.331H15.72v1.46H10.245Z" transform="translate(9.463 29.381)" fill="#5f5e5e"/>
        <path id="Path_95" data-name="Path 95" d="M14.01,31.81h2.86c1.929,0,3.412.683,3.412,2.743,0,1.989-1.495,2.883-3.366,2.883H15.751v3.1H14.01ZM16.8,36.059c1.2,0,1.777-.506,1.777-1.506S17.942,33.2,16.74,33.2h-.989v2.86Z" transform="translate(12.94 29.381)" fill="#5f5e5e"/>
        <path id="Path_96" data-name="Path 96" d="M17.839,39.5c2.272-2.166,3.766-3.649,3.766-4.909A1.227,1.227,0,0,0,20.3,33.213a2.288,2.288,0,0,0-1.6.906l-.943-.941a3.507,3.507,0,0,1,2.766-1.331A2.541,2.541,0,0,1,23.265,34.5c0,1.483-1.366,3.014-2.92,4.638.437-.046,1.014-.094,1.425-.094h1.906V40.5H17.839Z" transform="translate(16.4 29.415)" fill="#5f5e5e"/>
      </g>
    </g>
  </g>
</svg>
