<svg xmlns="http://www.w3.org/2000/svg" xmlns:xlink="http://www.w3.org/1999/xlink" width="80" height="80" viewBox="0 0 80 80">
  <defs>
    <clipPath id="clip-path">
      <rect id="Rectangle_15" data-name="Rectangle 15" width="49.027" height="64.736" fill="none"/>
    </clipPath>
    <clipPath id="clip-step-hot-icon-01">
      <rect width="80" height="80"/>
    </clipPath>
  </defs>
  <g id="step-hot-icon-01" clip-path="url(#clip-step-hot-icon-01)">
    <g id="Group_35" data-name="Group 35" transform="translate(15 8.608)">
      <g id="Group_34" data-name="Group 34" transform="translate(0 0)" clip-path="url(#clip-path)">
        <path id="Path_27" data-name="Path 27" d="M19.547,39.67H2.1c-.267,0-.534.006-.8-.006-.491-.02-.977-.083-1.212-.6A1.2,1.2,0,0,1,.357,37.8q1.769-2.426,3.536-4.847,7.064-9.7,14.138-19.39a4.14,4.14,0,0,0,.754-1.957,13.015,13.015,0,0,1,6.281-9.572A13.391,13.391,0,0,1,45.316,11.1a32.746,32.746,0,0,1,.247,5.662c.011.96.013,1.921,0,2.879-.006.438.175.637.616.627.506-.011,1.015-.018,1.52.011.837.048,1.284.4,1.3,1.22q.061,4,0,8c-.013.865-.46,1.233-1.348,1.244q-2.84.033-5.681,0a1.239,1.239,0,0,1-1.411-1.376q-.041-3.88,0-7.76c.009-.863.491-1.271,1.383-1.33,1.761-.118,1.777-.118,1.757-1.884a38.891,38.891,0,0,0-.307-7.256,11.553,11.553,0,0,0-22.78.966,1.82,1.82,0,0,0,.484,1.38Q29.83,25.473,38.556,37.475c.357.489.872.964.488,1.641-.364.64-1.049.548-1.652.55q-8.921.008-17.845,0m-.935-23.388c-.063-.02-.125-.039-.186-.059-3.192,4.384-6.384,8.768-9.719,13.35.96-.116,1.687-.189,2.408-.3,1.192-.177,1.343-.121,1.444.625.14,1.034.006,1.168-1.223,1.312s-2.43.315-3.648.447a1.2,1.2,0,0,0-.907.561c-1.152,1.6-2.323,3.188-3.477,4.787-.131.18-.418.361-.263.611.112.184.4.09.6.09q15.961.006,31.92,0c.2,0,.476.109.583-.121s-.136-.381-.256-.546c-1.816-2.5-3.644-5-5.447-7.508a1.108,1.108,0,0,0-1.222-.5c-1.052.167-2.112.276-3.168.41-.465.059-.905.035-.89-.585.013-.5-.445-1.233.576-1.319.69-.057,1.376-.156,2.062-.239.234-.028.539.059.664-.177.153-.289-.149-.482-.294-.683q-3.54-4.89-7.1-9.767c-.112-.155-.175-.4-.508-.4,0,.808-.02,1.6.007,2.4.024.708-.407.747-.938.736s-1.049.057-1.023-.732.006-1.591.006-2.388M42.5,25.538c0,.907.007,1.812,0,2.719,0,.429.162.637.614.631q1.678-.019,3.359,0c.436.006.638-.169.637-.611q-.008-2.721,0-5.44c0-.445-.237-.609-.655-.607-1.093.006-2.187.009-3.28,0-.471-.006-.681.2-.673.67.013.879,0,1.761,0,2.64" transform="translate(0 0.001)" fill="#5f5e5e"/>
        <path id="Path_28" data-name="Path 28" d="M17.988,12.16c.355-.02.515.138.381.532-.129.377-.235.763-.381,1.135a10.007,10.007,0,0,0-.673,4.064c.162,4.288-2.423,5.71-5.791,5.806-.774.022-1.038.269-1.067.969a2.242,2.242,0,0,1-.164.7.855.855,0,0,1-1.006.6c-.517-.092-.924-.515-.763-.951.574-1.553-.16-2.826-.607-4.224A5.576,5.576,0,0,1,10.18,14.54a14.286,14.286,0,0,1,6.742-2.246l1.065-.134m-8.26,7.982c.326-.044.35-.294.445-.465a15.814,15.814,0,0,1,1.681-2.423c.4-.482.839-.769,1.437-.359.493.338.493.9.029,1.542-.123.173-.265.333-.4.5a11.694,11.694,0,0,0-1.407,2.314c-.11.235-.189.436.206.508a3.089,3.089,0,0,0,3.628-2.909,17.521,17.521,0,0,1,.313-3.885c.09-.39-.031-.57-.443-.482a9.156,9.156,0,0,0-4.395,1.967,3.694,3.694,0,0,0-1.1,3.692" transform="translate(6.435 10.21)" fill="#5f5e5e"/>
        <path id="Path_29" data-name="Path 29" d="M18.057,18.923a.841.841,0,0,1,.859.938.853.853,0,0,1-.944.876.861.861,0,0,1-.878-.946c.017-.556.392-.843.962-.868" transform="translate(14.354 15.89)" fill="#5f5e5e"/>
        <path id="Path_30" data-name="Path 30" d="M5.63,19.119c-.594-.066-.935-.359-.922-.931a.838.838,0,0,1,.911-.9.854.854,0,0,1,.9.92.894.894,0,0,1-.887.909" transform="translate(3.953 14.518)" fill="#5f5e5e"/>
        <path id="Path_31" data-name="Path 31" d="M4.091,18.921c.587.061.949.366.931.92a.854.854,0,0,1-.92.9.909.909,0,0,1-.011-1.818" transform="translate(2.698 15.888)" fill="#5f5e5e"/>
        <path id="Path_32" data-name="Path 32" d="M7.069,18.922c.565.031.927.294.935.874a.857.857,0,0,1-.876.94.907.907,0,0,1-.059-1.814" transform="translate(5.205 15.889)" fill="#5f5e5e"/>
        <path id="Path_33" data-name="Path 33" d="M11.81,18.923a.906.906,0,0,1,.018,1.812.851.851,0,0,1-.922-.89c-.017-.556.335-.863.9-.922" transform="translate(9.157 15.89)" fill="#5f5e5e"/>
        <path id="Path_34" data-name="Path 34" d="M14.8,18.923a.862.862,0,0,1,.907.907.907.907,0,0,1-1.814,0,.861.861,0,0,1,.907-.907" transform="translate(11.666 15.89)" fill="#5f5e5e"/>
        <path id="Path_35" data-name="Path 35" d="M16.424,19.113a.855.855,0,0,1-.924-.887.9.9,0,1,1,1.808-.055.882.882,0,0,1-.885.942" transform="translate(13.015 14.518)" fill="#5f5e5e"/>
        <path id="Path_36" data-name="Path 36" d="M13.194,19.115c-.554-.066-.911-.362-.905-.924a.848.848,0,0,1,.911-.9.832.832,0,0,1,.894.911.864.864,0,0,1-.9.914" transform="translate(10.318 14.519)" fill="#5f5e5e"/>
        <path id="Path_37" data-name="Path 37" d="M3.706,38.261,4.782,36.97a3.691,3.691,0,0,0,2.382,1.038c.975,0,1.494-.418,1.494-1.076,0-.7-.568-.912-1.405-1.268L6,35.132a2.717,2.717,0,0,1-1.9-2.52c0-1.534,1.343-2.712,3.243-2.712a4.153,4.153,0,0,1,2.94,1.2L9.33,32.282a2.984,2.984,0,0,0-1.989-.773C6.519,31.51,6,31.876,6,32.5c0,.671.659.912,1.457,1.229l1.229.519a2.589,2.589,0,0,1,1.887,2.546c0,1.532-1.279,2.839-3.446,2.839a5,5,0,0,1-3.42-1.369" transform="translate(3.112 25.107)" fill="#5f5e5e"/>
        <path id="Path_38" data-name="Path 38" d="M10.4,31.56H7.763V29.989h7.169V31.56h-2.66v7.817H10.4Z" transform="translate(6.518 25.182)" fill="#5f5e5e"/>
        <path id="Path_39" data-name="Path 39" d="M12.486,29.99h5.751v1.571H14.361v2.165h3.293V35.3H14.361v2.509h4.016v1.569H12.486Z" transform="translate(10.484 25.182)" fill="#5f5e5e"/>
        <path id="Path_40" data-name="Path 40" d="M16.721,29.989H19.8c2.079,0,3.674.736,3.674,2.953,0,2.14-1.608,3.1-3.622,3.1H18.6v3.332H16.721Zm3,4.573c1.291,0,1.913-.545,1.913-1.621s-.684-1.457-1.978-1.457H18.6v3.078Z" transform="translate(14.04 25.181)" fill="#5f5e5e"/>
        <path id="Path_41" data-name="Path 41" d="M21.252,37.753h2.014V32.065h-1.7V30.914a6.107,6.107,0,0,0,2.178-.786h1.382v7.625h1.761V39.26H21.252Z" transform="translate(17.844 25.298)" fill="#5f5e5e"/>
      </g>
    </g>
  </g>
</svg>
