<svg xmlns="http://www.w3.org/2000/svg" xmlns:xlink="http://www.w3.org/1999/xlink" viewBox="0 0 502.89 111.77"><defs><style>.cls-1{filter:url(#luminosity-noclip);}.cls-2{fill:#3d2614;}.cls-3{mask:url(#mask);}</style><filter id="luminosity-noclip" x="184.04" y="-3.32" width="113.62" height="115.69" filterUnits="userSpaceOnUse" color-interpolation-filters="sRGB"><feFlood flood-color="#fff" result="bg"/><feBlend in="SourceGraphic" in2="bg"/></filter><mask id="mask" x="184.04" y="-3.32" width="113.62" height="115.69" maskUnits="userSpaceOnUse"><g id="_群組_" data-name="&lt;群組&gt;" class="cls-1"><g id="_群組_2" data-name="&lt;群組&gt;"><path id="_路徑_" data-name="&lt;路徑&gt;" d="M224.27,26.68,238.64,28a.24.24,0,0,0,.26-.22l.5-5.44a.25.25,0,0,0,0-.16A36.89,36.89,0,0,0,232,13.86a.25.25,0,0,0-.34,0l-4.26,4.73a4.81,4.81,0,0,1-1,0L225,18.48Z"/><path id="_複合路徑_" data-name="&lt;複合路徑&gt;" d="M218.08,69.11a.24.24,0,0,1,.26-.22l9,.82a4.19,4.19,0,0,0,4.56-3.79L234,42.51a.24.24,0,0,1,.26-.22l3.22.3a.24.24,0,0,0,.26-.22l.43-4.74a.25.25,0,0,0,0-.16,22.75,22.75,0,0,0-7-7.08.24.24,0,0,0-.3,0l-3.68,4a.24.24,0,0,1-.2.07l-5.45-.5a.24.24,0,0,1-.22-.26l3.41-36a.24.24,0,0,0-.22-.26l-8.71-.8a.24.24,0,0,0-.26.22l-2,20.3a.24.24,0,0,1-.26.22l-21.94-2.08a.24.24,0,0,0-.26.22l-.71,7.72a.24.24,0,0,0,.22.26l21.94,2.08a.24.24,0,0,1,.22.26l-.64,7a.24.24,0,0,1-.26.22l-9.18-.84a3.79,3.79,0,0,0-4.12,3.43L195.54,69a.24.24,0,0,0,.22.26l6.91.63a.24.24,0,0,0,.26-.22l1.49-16.22a.24.24,0,0,1,.26-.22l6,.55a.24.24,0,0,1,.22.26l-.35,3.77a.24.24,0,0,0,.22.26l7.54.69a.24.24,0,0,0,.26-.22l.35-3.77a.24.24,0,0,1,.26-.22l3.14.29a.24.24,0,0,0,.26-.22l.56-6.1a.24.24,0,0,0-.22-.26L219.73,48a.24.24,0,0,1-.22-.26l.6-6.51a.24.24,0,0,1,.26-.22l4.52.41a1.79,1.79,0,0,1,1.62,1.94L225,59.81A2.44,2.44,0,0,1,222.35,62l-15.75-1.44a.24.24,0,0,0-.26.22l-.62,6.71a.24.24,0,0,0,.22.26l2.75.25a.24.24,0,0,1,.22.26l-.76,8.33a.24.24,0,0,1-.26.22L185,74.62a.24.24,0,0,0-.26.22L184,82.56a.24.24,0,0,0,.22.26L207.13,85a.24.24,0,0,1,.22.26l-1.84,26a.24.24,0,0,0,.22.26l8.71.8a.24.24,0,0,0,.26-.22ZM211.49,47a.24.24,0,0,1-.26.22l-6-.55a.24.24,0,0,1-.22-.26l.43-4.65a2.1,2.1,0,0,1,2.29-1.9l4.11.38a.24.24,0,0,1,.22.26Z"/><path id="_路徑_2" data-name="&lt;路徑&gt;" d="M246.46,81.89,265.2,83.6a.24.24,0,0,1,.22.26l-.74,8.06c-.25,2.73-.6,6.17-4.4,5.82-1-.09-4.43-.59-6.14-.77a.23.23,0,0,0-.25.26l1,9.2a.25.25,0,0,0,.22.21c14.6,1.42,18.1,0,18.94-9.18L275.94,77a1.2,1.2,0,0,1,0-.13l.2-2.13a.24.24,0,0,0-.22-.26l-9.34-.86a.24.24,0,0,0-.26.22l-.2,2.2a.24.24,0,0,1-.26.22l-32-2.92a.24.24,0,0,0-.26.22l-.57,6.23a.24.24,0,0,1-.43.11,33.67,33.67,0,0,0-6.23-6.49.25.25,0,0,0-.34,0L222.23,78a.24.24,0,0,1-.21.09l-2-.18c-.29,2.73-.43,5.47-.75,8.2l14,1.29a.24.24,0,0,0,.26-.22l.5-5.43c-.39-.44-.47-.66-.86-1.1l11.29,1Z"/><circle id="_路徑_3" data-name="&lt;路徑&gt;" cx="245.39" cy="92.75" r="6.88"/><path id="_路徑_4" data-name="&lt;路徑&gt;" d="M296.67,78.84l-18.56-1.51-.68,7.39,18.42,1.52a.24.24,0,0,0,.26-.22Z"/><path id="_路徑_5" data-name="&lt;路徑&gt;" d="M272.79,28l21.76,2,.44-4.76a33.8,33.8,0,0,0-9.11-8.59l-4.5,5-7.94-.73Z"/><path id="_複合路徑_2" data-name="&lt;複合路徑&gt;" d="M272.6,2l-9.18-.84-1.87,18.6L242.3,17.88,241.65,25l19.25,1.92-.45,5L246.6,30.57A4.21,4.21,0,0,0,242,34.38l-2.25,24.54,9,.82,1.14-12.45,9.07.83-.22,2.4,9.18.84.22-2.4,6.79.64.5-5.46-6.79-.64.44-4.76,9.39.86-1.07,11.66a3.23,3.23,0,0,1-3.52,2.93l-21.6-2-.59,6a1.33,1.33,0,0,1,0,.13L258,59l-.49,5.36-20.89-1.92.49,7.39c17.37.88,19.81.9,27.14,1.06v.07l9.88.22c.85,0,4.67.12,5.42.09.28.43,1.08,2.14,1.26,2.46h0c.37,1.14,1.41,1.23,3.34-.2l6.29-3.92a91.22,91.22,0,0,0-8.8-8.46,3.92,3.92,0,0,0,4.26-3.55l1.57-17.15,3.27.3.35-3.85a30.77,30.77,0,0,0-4.9-5.39c-2.08-1.94-4.66-1.88-5.82-.51l-2.27,2.46-8.44-.77ZM259.45,42.66l-9.07-.83.23-2.52a2.24,2.24,0,0,1,2.44-2l6.84.63Zm17,23.1c-2.12-.09-5.6-.41-9.83-.7l.48-5.26,10.23.94-3,1.66A36.29,36.29,0,0,0,276.48,65.76Z"/></g></g></mask></defs><title>資產 1</title><g id="圖層_2" data-name="圖層 2"><g id="Layer_1" data-name="Layer 1"><g id="_群組_3" data-name="&lt;群組&gt;"><g id="_群組_4" data-name="&lt;群組&gt;"><g id="_群組_5" data-name="&lt;群組&gt;"><path id="_複合路徑_3" data-name="&lt;複合路徑&gt;" class="cls-2" d="M486.63,44.6l-2.43,2.66H474.12V35h-9v2.82H451.66v5.36h13.47v4.13H450.44a4.55,4.55,0,0,0-4.55,4.55V73.37h8.8V61.94h10.45v2.34h9V61.94h8.26v-5.1h-8.26V52.63h10.63V64.2a2.22,2.22,0,0,1-2.22,2.22H456.85c0,1.79,0,3.57,0,5.36h8.29v4.92H441.22V83h23.92v7.12h9V71.79h10.63v1.58h6.51l-2.2,3.34h-12.6V83h25V78.64a29.49,29.49,0,0,0-7.88-6.24V52.63h3V49.46c0-1.44-4.84-4.06-7.36-5.33A2.16,2.16,0,0,0,486.63,44.6Zm1.78-1.47h1V40c-.28-.26-.28-.35-.46-.53l4.77,2.11a68.35,68.35,0,0,0,5.5-8.18h3.12V27.93a32.26,32.26,0,0,0-8.16-6.68l-3.48,4.39H450.93c.18-1.67.18-1.93.37-3.52l-7.24-.7c-2.2,10.72-4.4,15.29-6.42,18.63l8.25,3.69,1.19.35a99.49,99.49,0,0,0,2.84-11.78h40c-.27,1-.82,3.16-1.92,6.33A30.55,30.55,0,0,0,481.81,34l-2.75,3.78h-2.63v5.36h10.69m-22,13.71H454.69V54.71a2.09,2.09,0,0,1,2.09-2.09h8.36Z"/><path id="_路徑_6" data-name="&lt;路徑&gt;" class="cls-2" d="M437.64,63.27V77.93c0,5.77-1.62,9.61-4.91,13.12a126.92,126.92,0,0,1-9.76,10.1l-5.41-9.32c4.4-2.11,10.63-6,10.63-10.82V67.09c0-1.43-.32-3.48-2.94-3.48h-6.59V56.14h10.9C435.42,56.14,437.64,58.26,437.64,63.27Z"/><circle id="_路徑_7" data-name="&lt;路徑&gt;" class="cls-2" cx="427.89" cy="36.52" r="8.68"/><path id="_路徑_8" data-name="&lt;路徑&gt;" class="cls-2" d="M467.61,91.83c-17,0-20.71-.35-25.38-2.72a7.35,7.35,0,0,1-3.89-4.38A13.59,13.59,0,0,1,435,91.64l-.18.18c5,7.48,14.52,8.1,27,8.1H501L502.89,91C492.9,91.3,477,91.83,467.61,91.83Z"/></g><g id="_群組_6" data-name="&lt;群組&gt;"><path id="_路徑_9" data-name="&lt;路徑&gt;" class="cls-2" d="M339.43,36.8l12.43.1a.2.2,0,0,0,.21-.2l0-4.71a.21.21,0,0,0-.05-.14,31.77,31.77,0,0,0-6.93-6.61.21.21,0,0,0-.29,0l-3.32,4.37a4.14,4.14,0,0,1-.81.08h-1.2Z"/><path id="_複合路徑_4" data-name="&lt;複合路徑&gt;" class="cls-2" d="M337.17,73.66a.2.2,0,0,1,.21-.2l7.77.06a3.61,3.61,0,0,0,3.64-3.58l.16-20.25a.2.2,0,0,1,.21-.2l2.78,0a.2.2,0,0,0,.21-.2l0-4.09a.22.22,0,0,0,0-.14,19.59,19.59,0,0,0-6.51-5.57.21.21,0,0,0-.25.06l-2.88,3.66a.2.2,0,0,1-.16.08l-4.71,0a.2.2,0,0,1-.2-.21l.17-21.29a.2.2,0,0,0-.2-.21l-7.53-.06a.2.2,0,0,0-.21.2l-.06,7.73a.2.2,0,0,1-.21.2l-12.45-.1a.2.2,0,0,0-.21.2l-.05,6.68a.2.2,0,0,0,.2.21l12.45.1a.2.2,0,0,1,.2.21l0,6.07a.2.2,0,0,1-.21.2l-7.93-.06A3.26,3.26,0,0,0,318,46.38l-.23,28.82a.2.2,0,0,0,.2.21l6,0a.2.2,0,0,0,.21-.2l.11-14a.2.2,0,0,1,.21-.2l5.15,0a.2.2,0,0,1,.2.21l0,3.26a.2.2,0,0,0,.2.21l6.52.05a.2.2,0,0,0,.21-.2l0-3.26a.2.2,0,0,1,.21-.2l2.72,0a.2.2,0,0,0,.21-.2l0-5.28a.2.2,0,0,0-.2-.21l-2.72,0a.2.2,0,0,1-.2-.21l0-5.63a.2.2,0,0,1,.21-.2l3.91,0A1.54,1.54,0,0,1,342.55,51l-.11,14.21a2.1,2.1,0,0,1-2.12,2.09l-13.62-.11a.2.2,0,0,0-.21.2l0,5.8a.2.2,0,0,0,.2.21l2.38,0a.2.2,0,0,1,.2.21l-.06,7.2a.2.2,0,0,1-.21.2l-12.45-.1a.2.2,0,0,0-.21.2l-.05,6.68a.2.2,0,0,0,.2.21l12.45.1a.2.2,0,0,1,.2.21l-.1,12.8a.2.2,0,0,0,.2.21l7.53.06a.2.2,0,0,0,.21-.2Zm-7.24-18.49a.2.2,0,0,1-.21.2l-5.15,0a.2.2,0,0,1-.2-.21l0-4a1.81,1.81,0,0,1,1.82-1.8l3.55,0a.2.2,0,0,1,.2.21Z"/><path id="_路徑_10" data-name="&lt;路徑&gt;" class="cls-2" d="M362.44,82.58l17.16.16a.2.2,0,0,1,.2.21l-.05,7c0,2.36,0,3.76-3.31,3.74-.86,0-3.84-.19-5.32-.22a.2.2,0,0,0-.19.24l1.5,7.83a.21.21,0,0,0,.2.17c12.63.17,15.53-1.32,15.59-9.24l.12-16.16a1,1,0,0,1,0-.11V74.31a.2.2,0,0,0-.2-.21L380.07,74a.2.2,0,0,0-.21.2v1.9a.2.2,0,0,1-.21.2L351,76.1a.2.2,0,0,0-.21.2l0,5.39a.21.21,0,0,1-.36.13,29,29,0,0,0-5.81-5.12.21.21,0,0,0-.29,0l-3,4.27a.21.21,0,0,1-.17.09h-1.74c0,2.36,0,4.73-.06,7.09l12.13.1a.2.2,0,0,0,.21-.2l0-4.7c-.36-.35-.45-.53-.81-.88l9.76.08Z"/><circle id="_路徑_11" data-name="&lt;路徑&gt;" class="cls-2" cx="362.17" cy="90.81" r="5.92" transform="translate(265.74 451.53) rotate(-89.11)"/><path id="_路徑_12" data-name="&lt;路徑&gt;" class="cls-2" d="M399.66,76.56l-9.43-.13-.05,6.39,9.21,0a.2.2,0,0,0,.21-.2Z"/><path id="_路徑_13" data-name="&lt;路徑&gt;" class="cls-2" d="M381.15,34.42l18.82.15,0-4.11a29.11,29.11,0,0,0-8.43-6.72l-3.5,4.61-6.87-.05Z"/><path id="_複合路徑_5" data-name="&lt;複合路徑&gt;" class="cls-2" d="M378.9,21.89,371,21.82l-.05,6.39-17.61-.14,0,6.13,17.61.14,0,4.29-12-.09a3.63,3.63,0,0,0-3.66,3.6L355,63.35l7.75.06.08-10.76,7.85.06,0,2.08,7.94.06,0-2.08,6.17.06,0-4.73L378.7,48l0-4.11,8.12.06-.08,10.08A2.78,2.78,0,0,1,384,56.84l-18.67-.15-.07,5.22a1.15,1.15,0,0,1,0,.11l5.46,0,0,4.64-18.06-.14,1,6.31c15-.5,17.07-.65,23.36-1v.06l8.49-.52c.73-.08,4-.23,4.66-.31.27.35,1.08,1.76,1.26,2h0c.4.95,1.3,1,2.85-.41l5.12-3.81a78.54,78.54,0,0,0-8.16-6.63,3.38,3.38,0,0,0,3.4-3.35l.12-14.83,2.83,0,0-3.32a26.49,26.49,0,0,0-4.59-4.27c-1.92-1.52-4.14-1.28-5,0l-1.77,2.27-7.3-.06ZM370.76,48l-7.85-.06,0-2.18a1.93,1.93,0,0,1,1.94-1.91l5.92,0ZM387,66.58c-1.83.07-4.84,0-8.49.11l0-4.55,8.85.07L385,63.85A31.25,31.25,0,0,0,387,66.58Z"/></g><g id="_群組_7" data-name="&lt;群組&gt;"><path id="_路徑_14" data-name="&lt;路徑&gt;" class="cls-2" d="M44,55.1H69V50.28a32.27,32.27,0,0,0-7.61-6.13l-3.73,4.49H44Z"/><path id="_路徑_15" data-name="&lt;路徑&gt;" class="cls-2" d="M38.85,67.52H74V62.86a30.1,30.1,0,0,0-8.1-6L62.62,61H38.85Z"/><path id="_路徑_16" data-name="&lt;路徑&gt;" class="cls-2" d="M42,80.27H71.77v-4.9a31.25,31.25,0,0,0-7.61-5.88l-3.48,4.25H43.35a26.44,26.44,0,0,1-1.13,6.06Z"/><path id="_路徑_17" data-name="&lt;路徑&gt;" class="cls-2" d="M40.1,83.7c-.34.51-.68,1-1,1.47C46.45,93.64,59.4,98.8,70.4,101.27l4.37-8.91c-9.31-1.42-18.62-3.74-26.47-8.66Z"/><path id="_路徑_18" data-name="&lt;路徑&gt;" class="cls-2" d="M32.34,70.6c-.15,1-.33,2-.59,3.13H2.35v6.54H28.92C23.49,88.36,10.94,92.53,0,94.9l2.92,6.62C12.39,99.51,29,95.6,36.46,84c1.19-1.83,3.63-5.93,4.47-13.37Z"/><path id="_路徑_19" data-name="&lt;路徑&gt;" class="cls-2" d="M41.23,65.31V42.68H71.61V38.43a27.74,27.74,0,0,0-7.7-6.29l-3.32,4.09H51.71A36.69,36.69,0,0,0,56,28.7L46.34,26.5a59.71,59.71,0,0,1-4.7,9.73H27.06l4.37-2.29a54.86,54.86,0,0,0-7.53-7.52l-7.56,3.72c2.78,3,5.54,5.68,5.7,6.09H2.83v6.46h30v6h-30V55.1h30V61H0v6.54H41.9Z"/></g><g id="_群組_8" data-name="&lt;群組&gt;"><path id="_路徑_20" data-name="&lt;路徑&gt;" class="cls-2" d="M148.56,44.15h18V39.33a29.8,29.8,0,0,0-8.43-6.7l-3.83,4.58h-5.75Z"/><path id="_路徑_21" data-name="&lt;路徑&gt;" class="cls-2" d="M147.71,76.72c3.18,6.67,6,11,16.14,21.2l6.65-8.09a77.23,77.23,0,0,1-19.37-22.37h-3.41Z"/><path id="_路徑_22" data-name="&lt;路徑&gt;" class="cls-2" d="M145.11,71V101.6h-8.95V73.24c-4.77,7.84-10,14.79-22.32,24.6l-4.69-5.47c10.73-8.66,17-16.59,21.9-27.29H120.13V58.12h16.94v-14H122V37.2h15.1V27.07H146V58.12h10.85l3.83-4.41a30.5,30.5,0,0,1,8.6,6.54v4.82h-24.2Z"/><path id="_路徑_23" data-name="&lt;路徑&gt;" class="cls-2" d="M109.16,40.75l3.24-4.41a28,28,0,0,1,7.75,6.78v4.5h-3v28A5.38,5.38,0,0,1,111.79,81h-7.63V74.06h3.41a1.67,1.67,0,0,0,1.67-1.67V47.61h-6a2,2,0,0,0-2,2v36h-8V46.43A5.75,5.75,0,0,1,99,40.68Z"/></g></g><g class="cls-3"><circle id="_路徑_24" data-name="&lt;路徑&gt;" class="cls-2" cx="241.77" cy="55.88" r="55.88"/></g></g></g></g></svg>