<?xml version="1.0" encoding="utf-8"?>
<!-- Generator: Adobe Illustrator 19.0.0, SVG Export Plug-In . SVG Version: 6.00 Build 0)  -->
<svg version="1.1" id="圖層_1" xmlns="http://www.w3.org/2000/svg" xmlns:xlink="http://www.w3.org/1999/xlink" x="0px" y="0px"
	 viewBox="-349 249 259.1 64" style="enable-background:new -349 249 259.1 64;" xml:space="preserve">
<style type="text/css">
	.st0{fill:#FFFFFF;}
</style>
<g id="XMLID_1_">
	<path id="XMLID_11_" class="st0" d="M-103.9,265v-5.4h1.7v5.4h5.4v1.7h-5.4v5.4h-1.7v-5.4h-5.4V265H-103.9z"/>
</g>
<g>
	<g id="XMLID_148_">
		<path id="XMLID_162_" class="st0" d="M-312.1,276.7l-2.3,2.2c-1.7-1.6-3.5-2.9-5.5-3.7c-2-0.8-3.9-1.3-5.8-1.3
			c-2.3,0-4.6,0.6-6.7,1.7c-2.1,1.2-3.8,2.7-4.9,4.7c-1.2,2-1.8,4.1-1.8,6.3c0,2.3,0.6,4.4,1.8,6.4c1.2,2,2.9,3.6,5,4.8
			s4.5,1.7,7,1.7c3.1,0,5.7-0.9,7.8-2.6c2.1-1.7,3.4-4,3.8-6.8h-9.5v-2.9h12.9c0,4.6-1.4,8.3-4.1,11s-6.4,4.1-10.9,4.1
			c-5.5,0-9.9-1.9-13.1-5.7c-2.5-2.9-3.7-6.3-3.7-10.1c0-2.8,0.7-5.5,2.1-7.9c1.4-2.4,3.4-4.4,5.9-5.7c2.5-1.3,5.3-2.1,8.4-2.1
			c2.5,0,4.9,0.5,7.2,1.4C-316.2,273.1-314.2,274.7-312.1,276.7z"/>
		<path id="XMLID_159_" class="st0" d="M-282,270.9c4.5,0,8.3,1.5,11.4,4.5s4.6,6.8,4.6,11.2s-1.5,8.1-4.6,11.2
			c-3,3.1-6.8,4.6-11.2,4.6c-4.4,0-8.2-1.5-11.2-4.6c-3.1-3-4.6-6.7-4.6-11c0-2.9,0.7-5.5,2.1-8s3.3-4.4,5.7-5.8
			S-284.8,270.9-282,270.9z M-281.9,273.8c-2.2,0-4.3,0.6-6.3,1.7c-2,1.2-3.5,2.7-4.6,4.7s-1.7,4.1-1.7,6.5c0,3.6,1.2,6.6,3.7,9
			c2.5,2.4,5.4,3.7,8.9,3.7c2.3,0,4.5-0.6,6.5-1.7c2-1.1,3.5-2.7,4.6-4.6c1.1-2,1.7-4.1,1.7-6.5c0-2.4-0.6-4.5-1.7-6.4
			c-1.1-1.9-2.7-3.5-4.7-4.6C-277.5,274.4-279.6,273.8-281.9,273.8z"/>
		<path id="XMLID_157_" class="st0" d="M-251.7,271.7h3v27.1h11.5v2.9h-14.5V271.7z"/>
		<path id="XMLID_154_" class="st0" d="M-209.9,270.9c4.5,0,8.3,1.5,11.4,4.5s4.6,6.8,4.6,11.2s-1.5,8.1-4.6,11.2
			c-3,3.1-6.8,4.6-11.2,4.6c-4.4,0-8.2-1.5-11.2-4.6c-3.1-3-4.6-6.7-4.6-11c0-2.9,0.7-5.5,2.1-8s3.3-4.4,5.7-5.8
			S-212.7,270.9-209.9,270.9z M-209.7,273.8c-2.2,0-4.3,0.6-6.3,1.7c-2,1.2-3.5,2.7-4.6,4.7s-1.7,4.1-1.7,6.5c0,3.6,1.2,6.6,3.7,9
			c2.5,2.4,5.4,3.7,8.9,3.7c2.3,0,4.5-0.6,6.5-1.7c2-1.1,3.5-2.7,4.6-4.6c1.1-2,1.7-4.1,1.7-6.5c0-2.4-0.6-4.5-1.7-6.4
			c-1.1-1.9-2.7-3.5-4.7-4.6C-205.3,274.4-207.5,273.8-209.7,273.8z"/>
		<path id="XMLID_151_" class="st0" d="M-165.3,270.9c4.5,0,8.3,1.5,11.4,4.5c3.1,3,4.6,6.8,4.6,11.2s-1.5,8.1-4.6,11.2
			c-3,3.1-6.8,4.6-11.2,4.6s-8.2-1.5-11.2-4.6c-3.1-3-4.6-6.7-4.6-11c0-2.9,0.7-5.5,2.1-8s3.3-4.4,5.7-5.8S-168.1,270.9-165.3,270.9
			z M-165.2,273.8c-2.2,0-4.3,0.6-6.3,1.7c-2,1.2-3.5,2.7-4.6,4.7s-1.7,4.1-1.7,6.5c0,3.6,1.2,6.6,3.7,9c2.5,2.4,5.4,3.7,8.9,3.7
			c2.3,0,4.5-0.6,6.5-1.7c2-1.1,3.5-2.7,4.6-4.6c1.1-2,1.7-4.1,1.7-6.5c0-2.4-0.6-4.5-1.7-6.4c-1.1-1.9-2.7-3.5-4.7-4.6
			C-160.8,274.4-162.9,273.8-165.2,273.8z"/>
		<path id="XMLID_149_" class="st0" d="M-135,271.7h3.1v11.2l12-11.2h4l-14.4,13.4l15.5,16.5h-4l-13.1-13.9v13.9h-3.1V271.7z"/>
	</g>
</g>
<g id="XMLID_33_">
</g>
</svg>
