<?xml version="1.0" encoding="utf-8"?>
<!-- Generator: Adobe Illustrator 19.0.0, SVG Export Plug-In . SVG Version: 6.00 Build 0)  -->
<svg version="1.1" id="圖層_1" xmlns="http://www.w3.org/2000/svg" xmlns:xlink="http://www.w3.org/1999/xlink" x="0px" y="0px"
	 viewBox="-580.3 158.8 2121.2 167.3" style="enable-background:new -580.3 158.8 2121.2 167.3;" xml:space="preserve">
<style type="text/css">
	.st0{opacity:0.8;}
	.st1{fill:#FFFFFF;}
	.st2{fill:#FFD788;}
	.st3{fill:none;stroke:#FFFFFF;stroke-width:3;stroke-miterlimit:10;}
	.st4{opacity:0.8;fill:#FFFFFF;enable-background:new    ;}
	.st5{fill:#FFFFFF;stroke:#FFD788;stroke-width:3;stroke-miterlimit:10;}
	.st6{fill:none;stroke:#FFFFFF;stroke-width:2;stroke-miterlimit:10;}
	.st7{fill:none;stroke:#FFD788;stroke-width:3;stroke-linecap:round;stroke-miterlimit:10;}
</style>
<g class="st0">
	<path class="st1" d="M-564.4,224.7l15.5,40.6c0.6,1.5,1.6,2.8,3,3.7l82.3,51.3c3.4,2.1,7.8,1.2,9.8-2l27.8-44.6
		c2-3.2,0.9-7.5-2.5-9.6l-82.3-51.3c-1.4-0.9-3-1.3-4.6-1.1l-43.2,4C-563.2,216-566,220.4-564.4,224.7z"/>
	<g id="XMLID_89_">
		<path id="XMLID_90_" class="st2" d="M-531.8,247.5c7.1-1.2,11.3-2.7,12.9-5.3c1-1.7,0.9-3.4-0.9-4.5c-1.2-0.8-2.7-0.6-4.1-0.2
			l-0.5-2.2c2.2-0.6,4.1-0.6,6.2,0.6c2.8,1.8,3.5,4.8,1.8,7.6c-1.9,3-6.2,4.6-11.4,5.7c0.9,0.4,1.9,1,2.6,1.4l3.9,2.4l-1.3,2.1
			l-10-6.2L-531.8,247.5z"/>
		<path id="XMLID_92_" class="st2" d="M-515.6,248.7c3.3-5.4,6.9-6.8,10-4.8c3,1.9,3.4,5.7,0,11.1c-3.4,5.4-7,6.8-10,5
			C-518.7,258-519,254.1-515.6,248.7z M-508,253.5c2.8-4.4,2.7-6.8,1.1-7.7c-1.6-1-3.7-0.1-6.5,4.4c-2.8,4.5-2.7,6.9-1.1,7.8
			C-512.9,259-510.7,258-508,253.5z"/>
		<path id="XMLID_95_" class="st2" d="M-486.2,256l1.5,1l-18.5,10.8l-1.5-0.9L-486.2,256z M-501.9,253c1.9-3.1,4.5-4,6.7-2.6
			s2.5,4,0.6,7.1s-4.5,4-6.7,2.7C-503.5,258.8-503.8,256.1-501.9,253z M-496.4,256.4c1.5-2.4,1.4-3.9,0.3-4.6
			c-1.1-0.7-2.5-0.1-4,2.3s-1.4,4-0.3,4.6C-499.3,259.4-497.9,258.8-496.4,256.4z M-494.8,266.1c1.9-3.1,4.5-4,6.7-2.6
			c2.1,1.3,2.5,4,0.6,7.1s-4.5,4-6.7,2.6C-496.4,271.9-496.7,269.2-494.8,266.1z M-489.3,269.5c1.5-2.4,1.4-3.9,0.3-4.6
			s-2.5-0.1-4,2.3s-1.4,4-0.3,4.7C-492.3,272.6-490.8,271.9-489.3,269.5z"/>
		<path id="XMLID_101_" class="st2" d="M-483.5,268.8c3.1-5,7.7-6.3,11.7-3.8s4.9,7.2,1.8,12.2s-7.8,6.3-11.8,3.9
			C-485.8,278.5-486.6,273.7-483.5,268.8z M-472.5,275.6c2.3-3.6,2-6.9-0.6-8.5s-5.6-0.4-7.9,3.2s-2,7,0.5,8.6
			C-477.9,280.5-474.8,279.2-472.5,275.6z"/>
		<path id="XMLID_104_" class="st2" d="M-461.9,271.6l9.2,5.7l-1.3,2l-6.7-4.2l-2.9,4.7l5.7,3.6l-1.3,2l-5.7-3.6l-4.2,6.7l-2.4-1.5
			L-461.9,271.6z"/>
		<path id="XMLID_106_" class="st2" d="M-449.9,279l9.2,5.7l-1.3,2l-6.7-4.2l-2.9,4.7l5.7,3.6l-1.3,2l-5.7-3.6l-4.2,6.7l-2.4-1.5
			L-449.9,279z"/>
	</g>
	<circle class="st2" cx="-550.6" cy="227.2" r="5.6"/>
</g>
<g class="st0">
	<path class="st1" d="M177.4,294.1l38,15.6c1.4,0.6,3,0.7,4.5,0.3l88.6-23.6c3.7-1,5.9-4.6,4.9-8l-12.8-48c-0.9-3.5-4.6-5.5-8.3-4.5
		l-88.6,23.6c-1.5,0.4-2.8,1.3-3.8,2.5l-25.2,32.4C172.1,287.7,173.4,292.5,177.4,294.1z"/>
	<g id="XMLID_68_">
		<path id="XMLID_69_" class="st2" d="M217.5,285.8L217.5,285.8v1.4l-2,0.5l-4.8-18.1l2.6-0.7l1.3,4.8l0.5,2.1
			c0.8-1.2,2-2.3,3.3-2.6c3.1-0.8,5.6,1.2,6.6,5c1.1,4.3-0.8,7.4-3.6,8.2C220.2,286.7,218.8,286.5,217.5,285.8z M222.3,279
			c-0.7-2.6-2-4-4-3.4c-1,0.3-1.8,1-2.6,2.3l1.6,6.1c1.2,0.6,2.2,0.6,3,0.4C222.1,283.9,223,282,222.3,279z"/>
		<path id="XMLID_72_" class="st2" d="M227.3,277.9c-1.1-4.1,1-7.3,3.9-8.1c3.3-0.9,5.7,1,6.6,4.6c0.1,0.5,0.2,1,0.2,1.3l-8.1,2.2
			c0.8,2.3,2.7,3.4,4.9,2.8c1.1-0.3,2-0.9,2.7-1.7l1.3,1.4c-1,1.1-2.2,2-3.9,2.4C231.7,283.7,228.4,282,227.3,277.9z M235.5,274.5
			c-0.6-2.2-1.9-3.1-3.7-2.7c-1.6,0.4-2.6,2-2.3,4.2L235.5,274.5z"/>
		<path id="XMLID_75_" class="st2" d="M239.4,268l2.1-0.6l0.7,1.7h0.1c0.9-1.4,1.9-2.7,3.6-3.1c2.6-0.7,4.3,0.7,5.1,3.9l2.1,7.8
			l-2.6,0.7l-2-7.5c-0.6-2.2-1.4-2.8-2.9-2.5c-1.2,0.3-1.8,1.1-2.6,2.5l2.4,8.8l-2.6,0.7L239.4,268z"/>
		<path id="XMLID_77_" class="st2" d="M254.5,270.7c-1.1-4.1,1-7.3,3.9-8.1c3.3-0.9,5.7,1,6.6,4.6c0.1,0.5,0.2,1,0.2,1.3l-8.1,2.2
			c0.8,2.3,2.7,3.4,4.9,2.8c1.1-0.3,2-0.9,2.7-1.7l1.3,1.4c-0.9,1.1-2.2,2-3.9,2.4C258.9,276.4,255.5,274.8,254.5,270.7z
			 M262.7,267.3c-0.6-2.2-1.9-3.1-3.7-2.7c-1.6,0.4-2.6,2-2.3,4.2L262.7,267.3z"/>
		<path id="XMLID_80_" class="st2" d="M266.5,259.1c-0.7-2.6,0-4.6,2.8-5.4c0.8-0.2,1.7-0.3,2.3-0.2v2.1c-0.5-0.1-1-0.1-1.4,0
			c-1.1,0.3-1.5,1.2-1.1,2.7l0.4,1.6l2.5-0.7l0.6,2.1l-2.5,0.7l2.8,10.4l-2.6,0.7l-2.8-10.4l-1.7,0.5l-0.5-1.9l1.7-0.6L266.5,259.1z
			 M273.4,254.8c-0.2-0.9,0.3-1.7,1.3-2s1.8,0.2,2.1,1.1c0.2,0.9-0.3,1.7-1.3,2C274.5,256.1,273.6,255.7,273.4,254.8z M274.8,258.6
			l2.6-0.7l3.3,12.5l-2.6,0.7L274.8,258.6z"/>
		<path id="XMLID_84_" class="st2" d="M284.1,265.1l-1.7-6.3l-1.8,0.5l-0.5-1.9l1.9-0.6l-0.6-3.5l2.2-0.6l0.9,3.4l3.2-0.9l0.6,2.1
			l-3.2,0.9l1.7,6.3c0.4,1.5,1.1,2.1,2.4,1.8c0.4-0.1,0.9-0.4,1.3-0.7l1,1.8c-0.6,0.4-1.4,0.9-2.3,1.1
			C286.2,269.2,284.8,267.7,284.1,265.1z"/>
		<path id="XMLID_86_" class="st2" d="M290.7,252.3l-0.8-2.7l2.6-0.7l0.6,2.7l2,9.2l-1.7,0.5L290.7,252.3z M293.6,265.3
			c-0.3-1.1,0.3-2.1,1.2-2.3c1-0.3,2,0.3,2.3,1.4s-0.3,2-1.3,2.3C294.8,266.9,293.9,266.3,293.6,265.3z"/>
	</g>
	<circle class="st2" cx="188" cy="286.2" r="5.3"/>
</g>
<g class="st0">
	
		<rect x="-255" y="232.9" transform="matrix(-0.9723 0.2336 -0.2336 -0.9723 -365.0419 584.7159)" class="st1" width="75.7" height="75.7"/>
	<polygon class="st1" points="-189.1,221.9 -262.8,239.6 -256,225 -182.4,207.3 	"/>
	<polygon class="st1" points="-162.7,283.8 -167.8,297 -185.5,223.4 -180.4,210.1 	"/>
	<path class="st3" d="M-223.2,210.1c0,0,5.4-42.5,30.4-15.8c0,0,6.5,7-0.3,10.6l-29.5,7.1L-223.2,210.1z"/>
	<path class="st3" d="M-223.6,210.2c0,0-24.1-35.4-34.3-0.2c0,0-2.7,9.2,5.1,9.3l29.5-7.1L-223.6,210.2z"/>
</g>
<g class="st0">
	<circle class="st1" cx="47.6" cy="252.5" r="32.7"/>
	<g id="XMLID_65_">
		<path id="XMLID_66_" class="st2" d="M49.1,242.6c-2.1-0.8-3.7-1.1-5.8-0.2c-2.3,1-3.3,2.9-2.3,5.1c2.2,5.3,13-0.6,16.6,7.9
			c1.6,3.9,0.5,7.7-3.3,10.1l1.7,4.2l-2.9,1.2l-1.7-4.1c-2.7,0.8-5.9,0.7-8.4-0.2l0.7-3.7c2.5,0.8,5,1,7.3,0
			c2.9-1.2,3.6-3.2,2.7-5.6c-2.5-5.9-13.4-0.2-16.6-8c-1.6-3.8-0.3-7.5,3.1-9.6l-1.7-4.1l2.9-1.2l1.7,4.1c2.8-0.8,5.1-0.2,7.2,0.7
			L49.1,242.6z"/>
	</g>
</g>
<g class="st0">
	<circle class="st1" cx="99.4" cy="266" r="35.4"/>
	<g id="XMLID_53_">
		<path id="XMLID_63_" class="st2" d="M109.3,261.6c-0.5-2.4-1.2-4-3.2-5.4c-2.3-1.5-4.6-1.2-6,0.9c-3.5,5.2,8.3,11.5,2.6,19.7
			c-2.6,3.8-6.7,4.9-11.1,3l-2.8,4l-2.8-1.9l2.7-3.9c-2.3-1.9-4.1-4.9-4.8-7.7l3.8-1.5c0.8,2.7,2,5.1,4.3,6.6
			c2.8,1.9,5.1,1.4,6.6-0.9c3.9-5.8-7.7-12.2-2.6-19.8c2.5-3.7,6.6-4.7,10.6-2.9l2.7-4l2.8,1.9l-2.7,4c2.3,2.1,3.2,4.5,3.6,7
			L109.3,261.6z"/>
	</g>
</g>
<g class="st0">
	<path id="XMLID_60_" class="st1" d="M389.1,298.4c0.9-3.3,3.8-5.1,6.8-4.3c3.1,0.8,4.8,3.9,3.9,7.2s-3.9,5-6.9,4.1
		C390,304.6,388.3,301.7,389.1,298.4z M401.2,259.1l2-8.3l8.1,2.1l-2.5,8.2l-8.5,27.7l-5.4-1.4L401.2,259.1z"/>
</g>
<g class="st0">
	<path id="XMLID_54_" class="st1" d="M-374.9,259.8c0-8.2,3.8-12.9,9.6-12.9c5.7,0,9.6,4.7,9.6,12.9c0,8.2-3.9,13-9.6,13
		C-371.1,272.8-374.9,268-374.9,259.8z M-360.4,259.8c0-6.3-2.1-9.1-5-9.1c-2.8,0-4.9,2.8-4.9,9.1c0,6.3,2.1,9.2,4.9,9.2
		C-362.4,269-360.4,266-360.4,259.8z M-341.6,246.8h4.1l-22.5,42.5h-4L-341.6,246.8z M-345.9,276.3c0-8.2,3.9-12.9,9.6-12.9
		s9.6,4.7,9.6,12.9c0,8.2-3.9,13-9.6,13S-345.9,284.6-345.9,276.3z M-331.3,276.3c0-6.3-2.1-9.1-4.9-9.1c-2.9,0-5,2.8-5,9.1
		c0,6.3,2.1,9.2,5,9.2C-333.4,285.6-331.3,282.6-331.3,276.3z"/>
</g>
<path class="st4" d="M-51.5,247.3c0.7-4.5-2.2-8.7-6.7-9.4s-8.6,2.3-9.3,6.8l-3.2,19.2l-20.1-3.3c-6.2-1-11.7,2.9-12.8,9.1
	l-2.7,16.4c-1,6.2,2.9,12.1,9.1,13.2l25.4,4.2c6.2,1,11.5-3.4,12.6-9.6l2.7-16.4c0.2-0.9,0.2-1.9,0.1-2.8c0.3-0.7,0.6-1.5,0.7-2.3
	L-51.5,247.3z"/>
<g class="st0">
	<g>
		<circle class="st1" cx="524.8" cy="267.4" r="47.1"/>
		
			<ellipse transform="matrix(0.2151 -0.9766 0.9766 0.2151 125.0746 669.7734)" class="st1" cx="479.2" cy="257.1" rx="28.9" ry="18.2"/>
		<path class="st5" d="M491.6,230.2c0,0,11.6,33-12.4,56.4"/>
		<path class="st5" d="M529.2,231.2c0,0,1.8,2.2,14.3-2.6c0,0,5.5-0.7,0,8.8c-0.2,0.4-0.5,0.9-0.8,1.3"/>
		<path class="st6" d="M586.5,300.9c0,0-23.9,15.1-7-9.9c0,0,8.2-8.5,0.8,4.5c0,0-8.6,18.2-18.4,5.7"/>
		<circle class="st2" cx="505.7" cy="233.1" r="2.9"/>
	</g>
	<line class="st7" x1="468.8" y1="244.8" x2="465.1" y2="259.8"/>
	<line class="st7" x1="476.8" y1="246.7" x2="473.1" y2="261.8"/>
</g>
<g class="st0">
	<path class="st1" d="M643.2,229.5l15.5,40.6c0.6,1.5,1.6,2.8,3,3.7L744,325c3.4,2.1,7.8,1.2,9.8-2l27.8-44.6c2-3.2,0.9-7.5-2.5-9.6
		l-82.3-51.3c-1.4-0.9-3-1.3-4.6-1.1l-43.2,4C644.3,220.8,641.6,225.2,643.2,229.5z"/>
	<g id="XMLID_34_">
		<path id="XMLID_35_" class="st2" d="M675.8,252.3c7.1-1.2,11.3-2.7,12.9-5.3c1-1.7,0.9-3.4-0.9-4.5c-1.2-0.8-2.7-0.6-4.1-0.2
			l-0.5-2.2c2.2-0.6,4.1-0.6,6.2,0.6c2.8,1.8,3.5,4.8,1.8,7.6c-1.9,3-6.2,4.6-11.4,5.7c0.9,0.4,1.9,1,2.6,1.4l3.9,2.4l-1.3,2.1
			l-10-6.2L675.8,252.3z"/>
		<path id="XMLID_37_" class="st2" d="M691.9,253.5c3.3-5.4,6.9-6.8,10-4.8c3,1.9,3.4,5.7,0,11.1s-7,6.8-10,5
			C688.8,262.8,688.6,258.9,691.9,253.5z M699.6,258.3c2.8-4.4,2.7-6.8,1.1-7.7c-1.6-1-3.7-0.1-6.5,4.4c-2.8,4.5-2.7,6.9-1.1,7.8
			C694.7,263.7,696.8,262.8,699.6,258.3z"/>
		<path id="XMLID_40_" class="st2" d="M721.3,260.7l1.5,1l-18.5,10.7l-1.5-0.9L721.3,260.7z M705.7,257.8c1.9-3.1,4.5-4,6.7-2.6
			c2.2,1.3,2.5,4,0.6,7.1s-4.5,4-6.7,2.7C704.1,263.6,703.8,260.9,705.7,257.8z M711.2,261.2c1.5-2.4,1.4-3.9,0.3-4.6
			c-1.1-0.7-2.5-0.1-4,2.3s-1.4,4-0.3,4.6C708.3,264.2,709.7,263.6,711.2,261.2z M712.8,270.9c1.9-3.1,4.5-4,6.7-2.6
			c2.1,1.3,2.5,4,0.6,7.1s-4.5,4-6.7,2.6C711.2,276.7,710.8,274,712.8,270.9z M718.3,274.3c1.5-2.4,1.4-3.9,0.3-4.6
			c-1.1-0.7-2.5-0.1-4,2.3s-1.4,4-0.3,4.7C715.3,277.3,716.8,276.7,718.3,274.3z"/>
		<path id="XMLID_46_" class="st2" d="M724.1,273.5c3.1-5,7.7-6.3,11.7-3.8s4.9,7.2,1.8,12.2c-3.1,5-7.8,6.3-11.8,3.9
			S721,278.5,724.1,273.5z M735.1,280.4c2.3-3.6,2-6.9-0.6-8.5s-5.6-0.4-7.9,3.2s-2,7,0.5,8.6C729.7,285.3,732.8,284,735.1,280.4z"
			/>
		<path id="XMLID_49_" class="st2" d="M745.7,276.3l9.2,5.7l-1.3,2l-6.7-4.2l-3,4.7l5.7,3.6l-1.3,2l-5.7-3.6l-4.2,6.7l-2.4-1.5
			L745.7,276.3z"/>
		<path id="XMLID_51_" class="st2" d="M757.7,283.8l9.2,5.7l-1.3,2l-6.7-4.2l-3,4.7l5.7,3.6l-1.3,2l-5.7-3.6l-4.2,6.7l-2.4-1.5
			L757.7,283.8z"/>
	</g>
	<circle class="st2" cx="657" cy="232" r="5.6"/>
</g>
<g class="st0">
	<path class="st1" d="M1384.9,297.6l38,15.6c1.4,0.6,3,0.7,4.5,0.3l88.6-23.6c3.7-1,5.9-4.6,4.9-8l-12.8-48
		c-0.9-3.5-4.6-5.5-8.3-4.5l-88.6,23.6c-1.5,0.4-2.8,1.3-3.8,2.5l-25.2,32.4C1379.7,291.2,1381,295.9,1384.9,297.6z"/>
	<g id="XMLID_13_">
		<path id="XMLID_14_" class="st2" d="M1425.1,289.2L1425.1,289.2v1.4l-2,0.5l-4.8-18.1l2.6-0.7l1.3,4.8l0.5,2.1
			c0.8-1.2,2-2.3,3.3-2.6c3.1-0.8,5.6,1.2,6.6,5c1.1,4.3-0.8,7.4-3.6,8.2C1427.8,290.2,1426.4,290,1425.1,289.2z M1429.8,282.5
			c-0.7-2.6-2-4-4-3.4c-1,0.3-1.8,1-2.6,2.3l1.6,6.1c1.2,0.6,2.2,0.6,3,0.4C1429.7,287.4,1430.6,285.4,1429.8,282.5z"/>
		<path id="XMLID_17_" class="st2" d="M1434.9,281.3c-1.1-4.1,1-7.3,3.9-8.1c3.3-0.9,5.7,1,6.6,4.6c0.1,0.5,0.2,1,0.2,1.3l-8.1,2.2
			c0.8,2.3,2.7,3.4,4.9,2.8c1.1-0.3,2-0.9,2.7-1.7l1.3,1.4c-0.9,1.1-2.2,2-3.9,2.4C1439.3,287.1,1436,285.4,1434.9,281.3z
			 M1443.1,277.9c-0.6-2.2-1.9-3.1-3.7-2.7c-1.6,0.4-2.6,2-2.3,4.2L1443.1,277.9z"/>
		<path id="XMLID_20_" class="st2" d="M1447,271.4l2.1-0.6l0.7,1.7h0.1c0.9-1.4,1.9-2.7,3.6-3.1c2.6-0.7,4.3,0.7,5.1,3.9l2.1,7.8
			l-2.6,0.7l-2-7.5c-0.6-2.2-1.4-2.8-2.9-2.5c-1.2,0.3-1.8,1.1-2.6,2.5l2.4,8.8l-2.6,0.7L1447,271.4z"/>
		<path id="XMLID_22_" class="st2" d="M1462,274.1c-1.1-4.1,1-7.3,3.9-8.1c3.3-0.9,5.7,1,6.6,4.6c0.1,0.5,0.2,1,0.2,1.3l-8.1,2.2
			c0.8,2.3,2.7,3.4,4.9,2.8c1.1-0.3,2-0.9,2.7-1.7l1.3,1.4c-1,1.1-2.2,2-3.9,2.4C1466.4,279.9,1463.1,278.2,1462,274.1z
			 M1470.2,270.7c-0.6-2.2-1.9-3.1-3.7-2.7c-1.6,0.4-2.6,2-2.3,4.2L1470.2,270.7z"/>
		<path id="XMLID_25_" class="st2" d="M1474.1,262.5c-0.7-2.6,0-4.6,2.8-5.4c0.8-0.2,1.7-0.3,2.3-0.2v2.1c-0.5-0.1-1-0.1-1.4,0
			c-1.1,0.3-1.5,1.2-1.1,2.7l0.4,1.6l2.5-0.7l0.6,2.1l-2.5,0.7l2.8,10.4l-2.6,0.7l-2.8-10.4l-1.7,0.5l-0.5-1.9l1.7-0.6L1474.1,262.5
			z M1481,258.2c-0.2-0.9,0.3-1.7,1.3-2c1-0.3,1.8,0.2,2.1,1.1c0.2,0.9-0.3,1.7-1.3,2S1481.2,259.1,1481,258.2z M1482.3,262l2.6-0.7
			l3.3,12.5l-2.6,0.7L1482.3,262z"/>
		<path id="XMLID_29_" class="st2" d="M1491.6,268.5l-1.7-6.3l-1.8,0.5l-0.5-1.9l1.9-0.6l-0.6-3.5l2.2-0.6l0.9,3.4l3.2-0.9l0.6,2.1
			l-3.2,0.9l1.7,6.3c0.4,1.5,1.1,2.1,2.4,1.8c0.4-0.1,0.9-0.4,1.3-0.6l1,1.8c-0.6,0.4-1.4,0.9-2.3,1.1
			C1493.8,272.6,1492.3,271.1,1491.6,268.5z"/>
		<path id="XMLID_31_" class="st2" d="M1498.2,255.7l-0.8-2.7l2.6-0.7l0.6,2.7l2,9.2l-1.7,0.5L1498.2,255.7z M1501.2,268.7
			c-0.3-1.1,0.3-2.1,1.2-2.3c1-0.3,2,0.3,2.3,1.4s-0.3,2-1.3,2.3C1502.4,270.3,1501.4,269.8,1501.2,268.7z"/>
	</g>
	<circle class="st2" cx="1395.6" cy="289.7" r="5.3"/>
</g>
<g class="st0">
	
		<rect x="952.5" y="233.8" transform="matrix(-0.9723 0.2336 -0.2336 -0.9723 2016.67 304.4766)" class="st1" width="75.7" height="75.7"/>
	<polygon class="st1" points="1018.4,222.9 944.8,240.6 951.6,225.9 1025.2,208.2 	"/>
	<polygon class="st1" points="1044.8,284.7 1039.8,298 1022.1,224.3 1027.1,211.1 	"/>
	<path class="st3" d="M984.4,211.1c0,0,5.4-42.5,30.4-15.8c0,0,6.5,7-0.3,10.6L985,213L984.4,211.1z"/>
	<path class="st3" d="M984,211.2c0,0-24.1-35.4-34.3-0.2c0,0-2.7,9.2,5.1,9.3l29.5-7.1L984,211.2z"/>
</g>
<g class="st0">
	<circle class="st1" cx="1260.9" cy="258.2" r="32.7"/>
	<g id="XMLID_10_">
		<path id="XMLID_11_" class="st2" d="M1262.4,248.3c-2.1-0.8-3.7-1.1-5.8-0.2c-2.3,1-3.3,2.9-2.3,5.1c2.2,5.3,13-0.6,16.6,7.9
			c1.6,3.9,0.5,7.7-3.3,10.1l1.7,4.2l-2.9,1.2l-1.7-4.1c-2.7,0.8-5.9,0.7-8.4-0.2l0.7-3.7c2.5,0.8,5,1,7.3,0
			c2.9-1.2,3.6-3.2,2.7-5.6c-2.5-5.9-13.4-0.2-16.6-8c-1.6-3.8-0.3-7.5,3.1-9.6l-1.7-4.1l2.9-1.2l1.7,4.1c2.8-0.8,5.1-0.2,7.2,0.7
			L1262.4,248.3z"/>
	</g>
</g>
<g class="st0">
	<circle class="st1" cx="1312.7" cy="271.7" r="35.4"/>
	<g id="XMLID_1_">
		<path id="XMLID_8_" class="st2" d="M1322.6,267.3c-0.5-2.4-1.2-4-3.2-5.4c-2.3-1.5-4.6-1.2-6,0.9c-3.5,5.2,8.3,11.5,2.6,19.7
			c-2.6,3.8-6.7,4.9-11.1,3l-2.8,4l-2.8-1.9l2.7-3.9c-2.3-1.9-4.1-4.9-4.8-7.7l3.8-1.5c0.8,2.7,2,5.1,4.3,6.6
			c2.8,1.9,5.1,1.4,6.6-0.9c3.9-5.8-7.7-12.2-2.6-19.8c2.5-3.7,6.6-4.7,10.6-2.9l2.7-4l2.8,1.9l-2.7,4c2.3,2.1,3.2,4.5,3.6,7
			L1322.6,267.3z"/>
	</g>
</g>
<g class="st0">
	<path id="XMLID_2_" class="st1" d="M838.2,262.7c0-8.2,3.8-12.9,9.6-12.9c5.7,0,9.6,4.7,9.6,12.9c0,8.2-3.9,13-9.6,13
		C842,275.7,838.2,271,838.2,262.7z M852.7,262.7c0-6.3-2.1-9.1-5-9.1c-2.8,0-4.9,2.8-4.9,9.1c0,6.3,2.1,9.2,4.9,9.2
		C850.7,272,852.7,269,852.7,262.7z M871.5,249.8h4.1l-22.5,42.5h-4L871.5,249.8z M867.3,279.3c0-8.2,3.9-12.9,9.6-12.9
		c5.7,0,9.6,4.7,9.6,12.9c0,8.2-3.9,13-9.6,13S867.3,287.5,867.3,279.3z M881.8,279.3c0-6.3-2.1-9.1-4.9-9.1c-2.9,0-5,2.8-5,9.1
		c0,6.3,2.1,9.2,5,9.2C879.7,288.5,881.8,285.6,881.8,279.3z"/>
</g>
<path class="st4" d="M1156.1,251.2c0.7-4.5-2.2-8.7-6.7-9.4s-8.6,2.3-9.3,6.8l-3.2,19.2l-20.1-3.3c-6.2-1-11.7,2.9-12.8,9.1
	l-2.7,16.4c-1,6.2,2.9,12.1,9.1,13.2l25.4,4.2c6.2,1,11.5-3.4,12.6-9.6l2.7-16.4c0.2-0.9,0.2-1.9,0.1-2.8c0.3-0.7,0.6-1.5,0.7-2.3
	L1156.1,251.2z"/>
<g id="XMLID_108_">
</g>
<g id="XMLID_109_">
</g>
<g id="XMLID_110_">
</g>
<g id="XMLID_111_">
</g>
<g id="XMLID_112_">
</g>
<g id="XMLID_113_">
</g>
<g id="XMLID_114_">
</g>
<g id="XMLID_115_">
</g>
<g id="XMLID_116_">
</g>
<g id="XMLID_117_">
</g>
<g id="XMLID_118_">
</g>
<g id="XMLID_119_">
</g>
<g id="XMLID_120_">
</g>
<g id="XMLID_121_">
</g>
<g id="XMLID_122_">
</g>
</svg>
