<?xml version="1.0" encoding="utf-8"?>
<!-- Generator: Adobe Illustrator 19.0.0, SVG Export Plug-In . SVG Version: 6.00 Build 0)  -->
<svg version="1.1" id="圖層_1" xmlns="http://www.w3.org/2000/svg" xmlns:xlink="http://www.w3.org/1999/xlink" x="0px" y="0px"
	 viewBox="429.7 241.8 103.5 75" style="enable-background:new 429.7 241.8 103.5 75;" xml:space="preserve">
<style type="text/css">
	.st0{fill:#EB6D52;}
	.st1{fill:#FFFFFF;stroke:#EB6D52;stroke-width:3;stroke-miterlimit:10;}
	.st2{fill:none;stroke:#EB6D52;stroke-width:3;stroke-miterlimit:10;}
</style>
<g>
	<rect x="448.2" y="241.8" class="st0" width="68.2" height="6.3"/>
	<rect x="448.2" y="272.7" class="st1" width="68.2" height="44.1"/>
	<rect x="466.8" y="272.4" class="st1" width="29.3" height="29.3"/>
	<line class="st2" x1="467" y1="287.5" x2="495" y2="287.5"/>
	<line class="st2" x1="481.5" y1="302" x2="481.5" y2="273"/>
	<path class="st0" d="M533.2,274.4L516.6,250h-68.3l-18.6,24.4c0,0,8.8,8.4,18.4-0.2c1.1,1,8.7,7.7,17-0.1c1.3,1.2,8.8,7.6,17-0.1
		c1.3,1.2,8.8,7.7,17-0.1c1.2,1.2,8.7,8,17,0.3C517.3,275.5,524.9,282.3,533.2,274.4z"/>
</g>
<g id="XMLID_1_">
</g>
<g id="XMLID_2_">
</g>
<g id="XMLID_3_">
</g>
<g id="XMLID_4_">
</g>
<g id="XMLID_5_">
</g>
<g id="XMLID_6_">
</g>
<g id="XMLID_7_">
</g>
<g id="XMLID_8_">
</g>
<g id="XMLID_9_">
</g>
<g id="XMLID_10_">
</g>
<g id="XMLID_11_">
</g>
<g id="XMLID_12_">
</g>
<g id="XMLID_13_">
</g>
<g id="XMLID_14_">
</g>
<g id="XMLID_15_">
</g>
</svg>
