<?xml version="1.0" encoding="utf-8"?>
<!-- Generator: Adobe Illustrator 19.0.0, SVG Export Plug-In . SVG Version: 6.00 Build 0)  -->
<svg version="1.1" id="圖層_1" xmlns="http://www.w3.org/2000/svg" xmlns:xlink="http://www.w3.org/1999/xlink" x="0px" y="0px"
	 viewBox="127.5 231.5 143.6 104.5" style="enable-background:new 127.5 231.5 143.6 104.5;" xml:space="preserve">
<style type="text/css">
	.st0{fill:#FFFFFF;stroke:#359B96;stroke-width:3;stroke-miterlimit:10;}
	.st1{fill:#359994;}
	.st2{fill:#359B96;}
	.st3{fill:#FFFFFF;}
</style>
<g>
	<path class="st0" d="M243.7,236.3H142.5c-6.5,0-12,5.1-12,11.6v15.5c0,6,4.6,11,10.4,11.8c-0.5,3.8-0.4,12.6,8.2,14.5
		c0,0-5.7-7.4-1.8-13.4h96.3c6.5,0,11.8-6.3,11.8-12.9v-15.5C255.5,241.4,250.2,236.3,243.7,236.3z"/>
	<path class="st1" d="M260.2,282.8h-61.4c-6.5,0-13.8,4.6-13.8,11.1v15.5c0,6.5,7.2,12.4,13.8,12.4h56.9c3.3,8-2.1,13.2-2.1,13.2
		c8.3-1.9,7.6-9.7,7.2-13.7c5.8-0.8,9.3-5.9,9.3-11.9v-15.5C270,287.4,266.8,282.8,260.2,282.8z"/>
	<g>
		<g id="XMLID_178_">
			<path id="XMLID_195_" class="st2" d="M158.1,261.4h3V251h-2.4v-1c1.2-0.2,2-0.5,2.8-0.9h1.2v12.3h2.8v1.3h-7.3v-1.3H158.1z"/>
			<path id="XMLID_192_" class="st2" d="M167.6,255.8c0-4.7,1.6-7,4.2-7c2.5,0,4.1,2.3,4.1,7c0,4.8-1.6,7.1-4.1,7.1
				C169.2,262.9,167.6,260.6,167.6,255.8z M174.4,255.8c0-4-1.1-5.8-2.7-5.8s-2.7,1.8-2.7,5.8c0,4.1,1.1,5.9,2.7,5.9
				C173.4,261.7,174.4,259.9,174.4,255.8z"/>
			<path id="XMLID_186_" class="st2" d="M177.6,253.1c0-2.7,1.2-4.3,3-4.3s3,1.5,3,4.3s-1.2,4.3-3,4.3S177.6,255.8,177.6,253.1z
				 M182.5,253.1c0-2.2-0.8-3.3-1.9-3.3s-1.9,1.1-1.9,3.3s0.8,3.3,1.9,3.3C181.8,256.4,182.5,255.3,182.5,253.1z M188.6,248.8h1.1
				l-7.5,14.1H181L188.6,248.8z M187,258.6c0-2.7,1.2-4.3,3-4.3s3,1.5,3,4.3c0,2.8-1.2,4.3-3,4.3S187,261.4,187,258.6z M191.9,258.6
				c0-2.2-0.8-3.3-1.9-3.3s-1.9,1.1-1.9,3.3c0,2.2,0.7,3.4,1.9,3.4C191.2,262,191.9,260.8,191.9,258.6z"/>
			<path id="XMLID_183_" class="st2" d="M199.1,255.8c0-4.3,2.4-7,5.7-7c3.4,0,5.8,2.7,5.8,7c0,4.3-2.4,7.1-5.8,7.1
				C201.5,262.9,199.1,260.2,199.1,255.8z M209,255.8c0-3.5-1.7-5.6-4.2-5.6s-4.2,2.2-4.2,5.6c0,3.5,1.7,5.7,4.2,5.7
				C207.4,261.5,209,259.3,209,255.8z"/>
			<path id="XMLID_181_" class="st2" d="M213.6,249.1h7.7v1.3h-6.2v4.8h5.2v1.3h-5.2v6.2h-1.5V249.1z"/>
			<path id="XMLID_179_" class="st2" d="M223.7,249.1h7.7v1.3h-6.2v4.8h5.2v1.3h-5.2v6.2h-1.5V249.1z"/>
		</g>
	</g>
	<g>
		<g id="XMLID_115_">
			<path id="XMLID_123_" class="st3" d="M211,307.1l0.9-1.1c1,1.1,2.4,1.7,3.8,1.7c1.9,0,3-0.9,3-2.3c0-1.5-1-1.9-2.3-2.5l-2-0.9
				c-1.3-0.5-2.8-1.5-2.8-3.5c0-2.1,1.8-3.5,4.2-3.5c1.6,0,3,0.7,4,1.7l-0.8,1c-0.8-0.8-1.8-1.3-3.1-1.3c-1.6,0-2.6,0.8-2.6,2.1
				c0,1.4,1.2,1.9,2.3,2.4l2,0.8c1.6,0.7,2.8,1.6,2.8,3.6c0,2.1-1.8,3.8-4.6,3.8C213.8,309.1,212.2,308.3,211,307.1z"/>
			<path id="XMLID_120_" class="st3" d="M229.2,304.6h-5.1l-1.4,4.3h-1.5l4.6-13.6h1.7l4.7,13.6h-1.6L229.2,304.6z M228.9,303.4
				l-0.7-2.2c-0.5-1.5-0.9-3-1.4-4.6h-0.1c-0.4,1.6-0.9,3.1-1.4,4.6l-0.7,2.2H228.9z"/>
			<path id="XMLID_118_" class="st3" d="M234.2,295.3h1.5v12.3h6v1.3h-7.5V295.3z"/>
			<path id="XMLID_116_" class="st3" d="M244.2,295.3h7.8v1.3h-6.2v4.5h5.2v1.3h-5.2v5.2h6.4v1.3h-8V295.3z"/>
		</g>
	</g>
</g>
<g id="XMLID_1_">
</g>
<g id="XMLID_12_">
</g>
<g id="XMLID_16_">
</g>
<g id="XMLID_31_">
</g>
<g id="XMLID_32_">
</g>
<g id="XMLID_33_">
</g>
<g id="XMLID_34_">
</g>
<g id="XMLID_35_">
</g>
<g id="XMLID_36_">
</g>
<g id="XMLID_37_">
</g>
<g id="XMLID_38_">
</g>
<g id="XMLID_39_">
</g>
<g id="XMLID_40_">
</g>
<g id="XMLID_41_">
</g>
<g id="XMLID_42_">
</g>
</svg>
