<?xml version="1.0" encoding="utf-8"?>
<!-- Generator: Adobe Illustrator 19.0.0, SVG Export Plug-In . SVG Version: 6.00 Build 0)  -->
<svg version="1.1" id="圖層_1" xmlns="http://www.w3.org/2000/svg" xmlns:xlink="http://www.w3.org/1999/xlink" x="0px" y="0px"
	 viewBox="409 218 144 114.1" style="enable-background:new 409 218 144 114.1;" xml:space="preserve">
<style type="text/css">
	.st0{fill:#359994;}
	.st1{fill:#FFFFFF;stroke:#EB6D52;stroke-width:3;stroke-miterlimit:10;}
	.st2{fill:#FFFFFF;}
	.st3{fill:#EB6D52;}
	.st4{fill:none;stroke:#FFFFFF;stroke-width:3;stroke-miterlimit:10;}
	.st5{fill:none;stroke:#FFFFFF;stroke-width:3;stroke-miterlimit:10;stroke-dasharray:11.6691,11.6691;}
</style>
<g>
	<g>
		<path class="st0" d="M487,280.4l-27.4,25.1c-2,1.9-5.2,1.7-7.1-0.3l-37.3-40.8c-1.9-2-1.7-5.2,0.3-7.1l27.4-25.1
			c2-1.9,5.2-1.7,7.1,0.3l37.3,40.8C489.2,275.4,489,278.6,487,280.4z"/>
		<path class="st1" d="M487.4,287.8l-9,35c-0.8,2.9-3.7,4.7-6.7,4l-52.6-13.4c-2.9-0.8-4.7-3.7-4-6.7l9-35c0.8-2.9,3.7-4.7,6.7-4
			l52.6,13.4C486.3,281.9,488.1,284.9,487.4,287.8z"/>
		
			<rect x="449" y="274.5" transform="matrix(-0.2476 0.9689 -0.9689 -0.2476 887.1622 -74.7531)" class="st2" width="47.2" height="65.3"/>
		<path class="st0" d="M548.7,274.7l-0.5,37.2c0,2.7-2.3,5-5.1,4.9l-55.2-0.7c-2.7,0-5-2.3-4.9-5.1l0.5-37.2c0-2.7,2.3-5,5.1-4.9
			l55.2,0.7C546.5,269.7,548.7,271.9,548.7,274.7z"/>
		<path class="st1" d="M547.8,246.6l-9.2,36c-0.7,2.7-3.4,4.3-6.1,3.6L479,272.5c-2.7-0.7-4.3-3.4-3.6-6.1l9.2-36
			c0.7-2.7,3.4-4.3,6.1-3.6l53.5,13.7C546.9,241.2,548.5,243.9,547.8,246.6z"/>
		<path class="st3" d="M520.9,331H445c-9,0-16.3-7.3-16.3-16.3v-75.9c0-9,7.3-16.3,16.3-16.3h75.9c9,0,16.3,7.3,16.3,16.3v75.9
			C537.2,323.6,529.9,331,520.9,331z"/>
		<g>
			<g>
				<line class="st4" x1="7.1" y1="121.6" x2="7.1" y2="127.6"/>
				<path class="st5" d="M7.1,139.2V188c0,6-4.9,10.9-10.9,10.9h-66.5c-6,0-10.9-4.9-10.9-10.9v-54.6"/>
				<line class="st4" x1="-81.2" y1="127.6" x2="-81.2" y2="121.6"/>
			</g>
		</g>
	</g>
	<rect x="474.3" y="316" class="st1" width="19.6" height="6.8"/>
</g>
<g id="XMLID_1_">
</g>
<g id="XMLID_2_">
</g>
<g id="XMLID_3_">
</g>
<g id="XMLID_4_">
</g>
<g id="XMLID_5_">
</g>
<g id="XMLID_6_">
</g>
<g id="XMLID_7_">
</g>
<g id="XMLID_8_">
</g>
<g id="XMLID_9_">
</g>
<g id="XMLID_10_">
</g>
<g id="XMLID_11_">
</g>
<g id="XMLID_12_">
</g>
<g id="XMLID_13_">
</g>
<g id="XMLID_14_">
</g>
<g id="XMLID_15_">
</g>
</svg>
