<?xml version="1.0" encoding="utf-8"?>
<!-- Generator: Adobe Illustrator 21.0.0, SVG Export Plug-In . SVG Version: 6.00 Build 0)  -->
<svg version="1.1" id="圖層_1" xmlns="http://www.w3.org/2000/svg" xmlns:xlink="http://www.w3.org/1999/xlink" x="0px" y="0px"
	 viewBox="0 0 200 223.8" style="enable-background:new 0 0 200 223.8;" xml:space="preserve">
<style type="text/css">
	.st0{opacity:0.25;enable-background:new    ;}
</style>
<path class="st0" d="M87.5,7.1l-60.9,29c-9.3,4.4-13.3,15.7-8.9,25l69.9,146.7c4.4,9.3,15.7,13.3,25,8.9l60.9-29
	c9.3-4.4,13.3-15.7,8.9-25L112.5,16C108,6.7,96.8,2.7,87.5,7.1z M38.5,40.8l45.1-21.5l2.7,5.6L41.2,46.5L38.5,40.8z M138.8,193.4
	c-6.2,3-13.7,0.3-16.7-5.9s-0.3-13.7,5.9-16.7s13.7-0.3,16.7,5.9C147.7,183,145,190.4,138.8,193.4z M166.1,144.9L84,184L25.9,62
	L108,22.9L166.1,144.9z"/>
<rect x="39" y="55" transform="matrix(0.9029 -0.4299 0.4299 0.9029 -19.9786 34.5649)" class="st0" width="55" height="13"/>
<rect x="49.9" y="80.2" transform="matrix(0.9029 -0.4299 0.4299 0.9029 -30.7937 37.0669)" class="st0" width="33.5" height="13"/>
<rect x="58.9" y="97.4" transform="matrix(0.9029 -0.4299 0.4299 0.9029 -36.525 46.1004)" class="st0" width="49.7" height="13"/>
</svg>
