<svg xmlns="http://www.w3.org/2000/svg" viewBox="0 0 173.96 150.56"><defs><style>.cls-1{fill:#d71208;}</style></defs><title>q-icon</title><g id="圖層_2" data-name="圖層 2"><g id="圖層_1-2" data-name="圖層 1"><path class="cls-1" d="M162.3,0H11.66A11.67,11.67,0,0,0,0,11.66v92.1a11.67,11.67,0,0,0,11.66,11.66H26.72l-8.46,27.37a6,6,0,0,0,8.85,6.89l56.11-34.26H162.3A11.67,11.67,0,0,0,174,103.76V11.66A11.67,11.67,0,0,0,162.3,0ZM86.82,92.11a7.63,7.63,0,1,1,7.63-7.63A7.63,7.63,0,0,1,86.82,92.11Zm12-34c-1.85,1.76-3.69,3.28-5.15,4.42l0,5.33a6.73,6.73,0,0,1-6.72,6.58H86.8a6.73,6.73,0,0,1-6.58-6.87l0-8.63a6.73,6.73,0,0,1,3-5.42,56.27,56.27,0,0,0,6.34-5.18c4.83-4.62,5-6.83,5-6.85A7.6,7.6,0,0,0,87,33.9c-1.27,0-7.6.29-7.6,5.92a6.73,6.73,0,1,1-13.45,0c0-11.23,8.85-19.37,21-19.37a21.07,21.07,0,0,1,21,21C108,46.77,105,52.21,98.78,58.14Z"/></g></g></svg>