<svg xmlns="http://www.w3.org/2000/svg" width="25.712" height="22.953" viewBox="0 0 25.712 22.953">
  <g id="Group_824" data-name="Group 824" transform="translate(-1741.679 -932.127)">
    <path id="stamp-solid" d="M11,7.112a2.792,2.792,0,0,1,.7-1.656,3.383,3.383,0,1,0-5.35,0,2.792,2.792,0,0,1,.7,1.656,1.912,1.912,0,0,1-1.91,1.91H3.947A3.945,3.945,0,0,0,0,12.969a1.7,1.7,0,0,0,1.128,1.6v1.787a1.692,1.692,0,0,0,1.692,1.692h12.4a1.692,1.692,0,0,0,1.692-1.692V14.565a1.7,1.7,0,0,0,1.128-1.6A3.945,3.945,0,0,0,14.1,9.022H12.905A1.912,1.912,0,0,1,11,7.112ZM14.66,14.66v1.128H3.383V14.66Z" transform="translate(1741.679 937.037)" fill="#11948a"/>
    <path id="history-solid" d="M19.931,13.954a5.966,5.966,0,0,1-9.709,4.656.577.577,0,0,1-.044-.857l.271-.271a.578.578,0,0,1,.767-.048,4.426,4.426,0,1,0-.283-6.694l1.221,1.221a.385.385,0,0,1-.272.657h-3.5A.385.385,0,0,1,8,12.234v-3.5a.385.385,0,0,1,.657-.272L9.845,9.652a5.965,5.965,0,0,1,10.086,4.3Zm-4.352,1.9.236-.3a.577.577,0,0,0-.1-.81l-.979-.761v-2.51a.577.577,0,0,0-.577-.577h-.385a.577.577,0,0,0-.577.577v3.263l1.573,1.224A.577.577,0,0,0,15.579,15.849Z" transform="translate(1747.46 924.127)" fill="#11948a"/>
  </g>
</svg>
