<svg id="Group_758" data-name="Group 758" xmlns="http://www.w3.org/2000/svg" xmlns:xlink="http://www.w3.org/1999/xlink" width="28.9" height="31.542" viewBox="0 0 28.9 31.542">
  <defs>
    <clipPath id="clip-path">
      <rect id="Rectangle_1075" data-name="Rectangle 1075" width="28.9" height="31.542" fill="none"/>
    </clipPath>
  </defs>
  <g id="Group_757" data-name="Group 757" clip-path="url(#clip-path)">
    <path id="Path_908" data-name="Path 908" d="M13.8,7.885V0H3.943A3.947,3.947,0,0,0,0,3.943V27.6a3.947,3.947,0,0,0,3.943,3.943H19.714a3.94,3.94,0,0,0,3.576-2.3l-.651-.649a8.8,8.8,0,1,1,1.017-15.363V9.857H15.771A1.97,1.97,0,0,1,13.8,7.885M8.871,9.857H4.928a.986.986,0,1,1,0-1.971H8.871a.986.986,0,0,1,0,1.971m0-3.943H4.928a.986.986,0,0,1,0-1.971H8.871a.986.986,0,0,1,0,1.971M15.771,0V7.885h7.885Z" fill="#11948a"/>
    <path id="Path_909" data-name="Path 909" d="M13.176,11.453h-.828v2.6h.828c.871,0,1.411-.357,1.411-1.321,0-.921-.54-1.277-1.411-1.277m9.441,10.533-4.148-4.152a6.814,6.814,0,1,0-1.484,1.484l4.15,4.152a1.049,1.049,0,0,0,1.482-1.484m-9.384-6.143h-.885v2.068a.17.17,0,0,1-.183.185H10.416a.17.17,0,0,1-.181-.185V9.845a.168.168,0,0,1,.181-.183h2.817c2.332,0,3.539,1.057,3.539,3.093,0,2.021-1.206,3.089-3.539,3.089" transform="translate(5.974 6.799)" fill="#ffad0a"/>
  </g>
</svg>
