<svg xmlns="http://www.w3.org/2000/svg" width="38" height="38" viewBox="0 0 38 38">
  <g id="Group_812" data-name="Group 812" transform="translate(-686 -629)" opacity="0.5">
    <circle id="Ellipse_58" data-name="Ellipse 58" cx="19" cy="19" r="19" transform="translate(686 629)" fill="#11948a"/>
    <path id="stamp-solid" d="M11.6,7.5a2.945,2.945,0,0,1,.74-1.747,3.568,3.568,0,1,0-5.642,0A2.945,2.945,0,0,1,7.434,7.5,2.016,2.016,0,0,1,5.419,9.515H4.163A4.161,4.161,0,0,0,0,13.678a1.789,1.789,0,0,0,1.189,1.684v1.884a1.785,1.785,0,0,0,1.784,1.784H16.057a1.785,1.785,0,0,0,1.784-1.784V15.362a1.789,1.789,0,0,0,1.189-1.684,4.161,4.161,0,0,0-4.163-4.163H13.612A2.016,2.016,0,0,1,11.6,7.5Zm3.866,7.962v1.189H3.568V15.463Z" transform="translate(695.494 638.494)" fill="#fff"/>
  </g>
</svg>
