<svg xmlns="http://www.w3.org/2000/svg" xmlns:xlink="http://www.w3.org/1999/xlink" width="38.003" height="38.003" viewBox="0 0 38.003 38.003">
  <defs>
    <clipPath id="clip-path">
      <rect id="Rectangle_1081" data-name="Rectangle 1081" width="38.003" height="38.003" transform="translate(0 0.001)" fill="none"/>
    </clipPath>
  </defs>
  <g id="Group_772" data-name="Group 772" transform="translate(0 0)">
    <g id="Group_770" data-name="Group 770" clip-path="url(#clip-path)">
      <path id="Path_912" data-name="Path 912" d="M37.88,21.154A19,19,0,1,1,21.154.125,19,19,0,0,1,37.88,21.154" fill="#11948a"/>
      <path id="Path_913" data-name="Path 913" d="M21.08,12.991a2.939,2.939,0,0,1,.738-1.744,3.563,3.563,0,1,0-5.633,0,2.94,2.94,0,0,1,.739,1.744A2.013,2.013,0,0,1,14.912,15H13.658A4.154,4.154,0,0,0,9.5,19.159a1.786,1.786,0,0,0,1.187,1.681v1.881A1.782,1.782,0,0,0,12.47,24.5H25.533a1.782,1.782,0,0,0,1.781-1.781V20.84A1.787,1.787,0,0,0,28.5,19.159,4.154,4.154,0,0,0,24.345,15H23.091a2.013,2.013,0,0,1-2.011-2.011m3.859,9.136H13.064V20.94H24.939Z" fill="#fff"/>
      <path id="Path_914" data-name="Path 914" d="M26.491,29.464H11.512a1.25,1.25,0,1,1,0-2.5H26.491a1.25,1.25,0,0,1,0,2.5" transform="translate(0 1)" fill="#ffad0a"/>
    </g>
  </g>
</svg>
