<svg xmlns="http://www.w3.org/2000/svg" xmlns:xlink="http://www.w3.org/1999/xlink" width="28.902" height="31.543" viewBox="0 0 28.902 31.543">
  <defs>
    <clipPath id="clip-path">
      <rect id="Rectangle_1111" data-name="Rectangle 1111" width="28.902" height="31.543" fill="#d54848"/>
    </clipPath>
  </defs>
  <g id="Group_821" data-name="Group 821" clip-path="url(#clip-path)">
    <path id="Path_930" data-name="Path 930" d="M18.94,29.4a8.787,8.787,0,1,1,4.718-16.176V9.857H15.772A1.97,1.97,0,0,1,13.8,7.886V0H3.943A3.947,3.947,0,0,0,0,3.943V27.6a3.947,3.947,0,0,0,3.943,3.943H19.715a3.941,3.941,0,0,0,3.576-2.3l-.651-.649a8.711,8.711,0,0,1-3.7.812M8.872,9.857H4.929a.986.986,0,1,1,0-1.971H8.872a.986.986,0,1,1,0,1.971m0-3.943H4.929a.986.986,0,1,1,0-1.971H8.872a.986.986,0,1,1,0,1.971M15.772,0V7.886h7.886ZM28.594,28.787l-4.148-4.152a6.814,6.814,0,1,0-1.485,1.485l4.148,4.152a1.05,1.05,0,0,0,1.485-1.485M19.876,25.03a.225.225,0,0,1-.219.138H18.209A.214.214,0,0,1,18,25.03l-3.275-8.091c-.047-.112.02-.205.148-.205h2.058a.208.208,0,0,1,.217.15l1.816,5.262,1.78-5.262a.213.213,0,0,1,.221-.15H23c.126,0,.2.093.138.205Z" fill="#d54848"/>
  </g>
</svg>
