<svg id="Group_856" data-name="Group 856" xmlns="http://www.w3.org/2000/svg" xmlns:xlink="http://www.w3.org/1999/xlink" width="28.9" height="31.542" viewBox="0 0 28.9 31.542">
  <defs>
    <clipPath id="clip-path">
      <rect id="Rectangle_1131" data-name="Rectangle 1131" width="28.9" height="31.542" fill="none"/>
    </clipPath>
  </defs>
  <g id="Group_855" data-name="Group 855" clip-path="url(#clip-path)">
    <path id="Path_941" data-name="Path 941" d="M13.8,7.885V0H3.943A3.947,3.947,0,0,0,0,3.943V27.6a3.947,3.947,0,0,0,3.943,3.943H19.714a3.94,3.94,0,0,0,3.576-2.3l-.651-.649a8.8,8.8,0,1,1,1.017-15.363V9.857H15.771A1.97,1.97,0,0,1,13.8,7.885M8.871,9.857H4.928a.986.986,0,1,1,0-1.971H8.871a.986.986,0,0,1,0,1.971m0-3.943H4.928a.986.986,0,0,1,0-1.971H8.871a.986.986,0,0,1,0,1.971M15.771,0V7.885h7.885Z" fill="#11948a"/>
    <path id="Path_942" data-name="Path 942" d="M22.618,21.986,18.47,17.835a6.814,6.814,0,1,0-1.484,1.484l4.148,4.152a1.05,1.05,0,0,0,1.484-1.484M17.183,17.6a.15.15,0,0,1-.164.164H15.511a.152.152,0,0,1-.166-.164V13.318L13.613,16.21a.183.183,0,0,1-.183.112h-.956a.186.186,0,0,1-.183-.112l-1.733-2.821V17.6a.151.151,0,0,1-.164.164H8.885A.151.151,0,0,1,8.72,17.6v-7.2a.151.151,0,0,1,.166-.164h1.662a.19.19,0,0,1,.185.112L13,14.119,15.2,10.343a.2.2,0,0,1,.185-.112h1.63a.15.15,0,0,1,.164.164Z" transform="translate(5.975 6.799)" fill="#ffad0a"/>
  </g>
</svg>
