<svg id="Group_854" data-name="Group 854" xmlns="http://www.w3.org/2000/svg" xmlns:xlink="http://www.w3.org/1999/xlink" width="28.9" height="31.542" viewBox="0 0 28.9 31.542">
  <defs>
    <clipPath id="clip-path">
      <rect id="Rectangle_1130" data-name="Rectangle 1130" width="28.9" height="31.542" fill="none"/>
    </clipPath>
  </defs>
  <g id="Group_853" data-name="Group 853" clip-path="url(#clip-path)">
    <path id="Path_939" data-name="Path 939" d="M13.8,7.885V0H3.943A3.947,3.947,0,0,0,0,3.943V27.6a3.947,3.947,0,0,0,3.943,3.943H19.714a3.94,3.94,0,0,0,3.576-2.3l-.651-.649a8.8,8.8,0,1,1,1.017-15.363V9.857H15.771A1.97,1.97,0,0,1,13.8,7.885M8.871,9.857H4.928a.986.986,0,1,1,0-1.971H8.871a.986.986,0,0,1,0,1.971m0-3.943H4.928a.986.986,0,0,1,0-1.971H8.871a.986.986,0,0,1,0,1.971M15.771,0V7.885h7.885Z" fill="#11948a"/>
    <path id="Path_940" data-name="Path 940" d="M22.618,21.986,18.47,17.835a6.814,6.814,0,1,0-1.484,1.484l4.148,4.152a1.05,1.05,0,0,0,1.484-1.484m-9.685-3.73a3.18,3.18,0,0,1-3.251-2.241.167.167,0,0,1,.126-.231l1.6-.39a.185.185,0,0,1,.229.114,1.3,1.3,0,0,0,1.354.863c.554,0,.932-.185.932-.576,0-.426-.369-.631-1.068-.883L11.98,14.6a2.687,2.687,0,0,1-2.1-2.541A2.756,2.756,0,0,1,12.9,9.5a2.922,2.922,0,0,1,3.01,2.08.158.158,0,0,1-.114.229l-1.678.449a.172.172,0,0,1-.231-.116,1.025,1.025,0,0,0-1.021-.757c-.461,0-.8.207-.8.564s.31.6,1.171.883l.633.209c1.492.5,2.23,1.262,2.23,2.653,0,1.492-1.3,2.563-3.162,2.563" transform="translate(5.975 6.799)" fill="#ffad0a"/>
  </g>
</svg>
