<svg id="Group_760" data-name="Group 760" xmlns="http://www.w3.org/2000/svg" xmlns:xlink="http://www.w3.org/1999/xlink" width="28.9" height="31.542" viewBox="0 0 28.9 31.542">
  <defs>
    <clipPath id="clip-path">
      <rect id="Rectangle_1076" data-name="Rectangle 1076" width="28.9" height="31.542" fill="none"/>
    </clipPath>
  </defs>
  <g id="Group_759" data-name="Group 759" clip-path="url(#clip-path)">
    <path id="Path_910" data-name="Path 910" d="M18.941,11.828a8.707,8.707,0,0,1,4.715,1.4V9.857H15.771A1.97,1.97,0,0,1,13.8,7.885V0H3.943A3.947,3.947,0,0,0,0,3.943V27.6a3.947,3.947,0,0,0,3.943,3.943H19.714a3.94,3.94,0,0,0,3.576-2.3l-.651-.649a8.788,8.788,0,1,1-3.7-16.76M8.871,9.857H4.928a.986.986,0,1,1,0-1.971H8.871a.986.986,0,0,1,0,1.971m0-3.943H4.928a.986.986,0,0,1,0-1.971H8.871a.986.986,0,0,1,0,1.971M15.771,0V7.885h7.885Z" fill="#11948a"/>
    <path id="Path_911" data-name="Path 911" d="M22.619,21.986l-4.148-4.152a6.814,6.814,0,1,0-1.484,1.484l4.148,4.152a1.05,1.05,0,0,0,1.484-1.484M13.9,18.229a.225.225,0,0,1-.219.138H12.234a.214.214,0,0,1-.205-.138l-3.274-8.09c-.047-.112.02-.205.148-.205H10.96a.208.208,0,0,1,.217.15l1.816,5.262,1.78-5.262a.213.213,0,0,1,.221-.15h2.032c.126,0,.2.093.138.205Z" transform="translate(5.974 6.799)" fill="#ffad0a"/>
  </g>
</svg>
