<svg xmlns="http://www.w3.org/2000/svg" xmlns:xlink="http://www.w3.org/1999/xlink" width="28.9" height="31.542" viewBox="0 0 28.9 31.542">
  <defs>
    <clipPath id="clip-path">
      <rect id="Rectangle_1129" data-name="Rectangle 1129" width="28.9" height="31.542" fill="none"/>
    </clipPath>
  </defs>
  <g id="Group_852" data-name="Group 852" opacity="0.5">
    <g id="Group_851" data-name="Group 851" clip-path="url(#clip-path)">
      <path id="Path_938" data-name="Path 938" d="M18.941,29.4a8.786,8.786,0,1,1,4.715-16.177V9.857H15.771A1.97,1.97,0,0,1,13.8,7.885V0H3.943A3.947,3.947,0,0,0,0,3.943V27.6a3.947,3.947,0,0,0,3.943,3.943H19.714a3.94,3.94,0,0,0,3.576-2.3l-.649-.649a8.746,8.746,0,0,1-3.7.812M8.871,9.857H4.928a.986.986,0,1,1,0-1.971H8.871a.986.986,0,0,1,0,1.971m0-3.943H4.928a.986.986,0,0,1,0-1.971H8.871a.986.986,0,0,1,0,1.971M15.771,0V7.885h7.885ZM28.592,28.786l-4.148-4.152a6.814,6.814,0,1,0-1.484,1.484l4.148,4.152a1.05,1.05,0,0,0,1.484-1.484M23.157,24.4a.15.15,0,0,1-.164.164H21.486a.152.152,0,0,1-.166-.164V20.118L19.587,23.01a.183.183,0,0,1-.183.112h-.956a.186.186,0,0,1-.183-.112l-1.733-2.821V24.4a.151.151,0,0,1-.164.164H14.86a.151.151,0,0,1-.166-.164v-7.2a.151.151,0,0,1,.166-.164h1.662a.19.19,0,0,1,.185.112l2.265,3.775,2.206-3.775a.2.2,0,0,1,.185-.112h1.63a.15.15,0,0,1,.164.164Z" fill="#11948a"/>
    </g>
  </g>
</svg>
