<svg id="Group_756" data-name="Group 756" xmlns="http://www.w3.org/2000/svg" xmlns:xlink="http://www.w3.org/1999/xlink" width="26.32" height="31.542" viewBox="0 0 26.32 31.542">
  <defs>
    <clipPath id="clip-path">
      <rect id="Rectangle_1074" data-name="Rectangle 1074" width="26.32" height="31.542" fill="none"/>
    </clipPath>
  </defs>
  <g id="Group_755" data-name="Group 755" clip-path="url(#clip-path)">
    <path id="Path_906" data-name="Path 906" d="M15.771,0V7.886h7.886ZM13.8,7.886V0H3.943A3.947,3.947,0,0,0,0,3.943V27.6a3.947,3.947,0,0,0,3.943,3.943h8.534a2.742,2.742,0,0,1-.26-1.157,6.8,6.8,0,0,1,3.852-6.127,5.419,5.419,0,0,1,7.588-7.675V9.857H15.771A1.97,1.97,0,0,1,13.8,7.886M8.871,9.857H4.928a.986.986,0,1,1,0-1.971H8.871a.986.986,0,0,1,0,1.971m0-3.943H4.928a.986.986,0,1,1,0-1.971H8.871a.986.986,0,0,1,0,1.971" fill="#11948a"/>
    <path id="Path_907" data-name="Path 907" d="M13.263,15.72A3.467,3.467,0,1,0,9.8,12.253a3.469,3.469,0,0,0,3.466,3.468m1.238,1.3H12.025A4.827,4.827,0,0,0,7.2,21.847a.8.8,0,0,0,.8.8H18.525a.8.8,0,0,0,.8-.8A4.827,4.827,0,0,0,14.5,17.02" transform="translate(6.991 8.536)" fill="#ffad0a"/>
  </g>
</svg>
