<svg xmlns="http://www.w3.org/2000/svg" xmlns:xlink="http://www.w3.org/1999/xlink" width="34" height="30.227" viewBox="0 0 34 30.227">
  <defs>
    <clipPath id="clip-path">
      <rect id="Rectangle_1073" data-name="Rectangle 1073" width="34" height="30.227" fill="#11948a"/>
    </clipPath>
  </defs>
  <g id="Group_809" data-name="Group 809" opacity="0.5">
    <g id="Group_753" data-name="Group 753" clip-path="url(#clip-path)">
      <path id="Path_902" data-name="Path 902" d="M3.778,0A3.782,3.782,0,0,0,0,3.778v22.67a3.782,3.782,0,0,0,3.778,3.778H18.892a3.782,3.782,0,0,0,3.778-3.778V25.31a3.71,3.71,0,0,1-.484.159l-3.548.886a3.251,3.251,0,0,1-.533.083,1.494,1.494,0,0,1-.159.011H14.169a.938.938,0,0,1-.844-.52l-.52-1.045a.581.581,0,0,0-.52-.325.575.575,0,0,0-.52.325l-.52,1.045A.943.943,0,0,1,9.5,25.782l-1-3.289-.578,1.936a2.836,2.836,0,0,1-2.717,2.02H4.723a.945.945,0,1,1,0-1.889h.484a.936.936,0,0,0,.9-.673l.88-2.923a1.577,1.577,0,0,1,3.023,0l.686,2.278a2.447,2.447,0,0,1,1.581-.572,2.475,2.475,0,0,1,2.214,1.37l.259.52h.525a2.885,2.885,0,0,1-.081-1.642l.884-3.548a3.746,3.746,0,0,1,.994-1.753l5.6-5.6V9.446H15.114a1.887,1.887,0,0,1-1.889-1.889V0Z" fill="#11948a"/>
      <path id="Path_903" data-name="Path 903" d="M8,0V7.557h7.557Z" transform="translate(7.114)" fill="#11948a"/>
      <path id="Path_904" data-name="Path 904" d="M19.571,4.691a2.365,2.365,0,0,0-3.342,0L14.493,6.428l4.192,4.19,1.736-1.734a2.368,2.368,0,0,0,0-3.342Z" transform="translate(12.887 3.557)" fill="#11948a"/>
      <path id="Path_905" data-name="Path 905" d="M10.411,13.624a1.86,1.86,0,0,0-.495.88L9.03,18.053A.943.943,0,0,0,10.175,19.2l3.548-.886a1.887,1.887,0,0,0,.88-.495l7.627-7.634L18.04,5.99Z" transform="translate(8.003 5.326)" fill="#11948a"/>
    </g>
  </g>
</svg>
