<svg xmlns="http://www.w3.org/2000/svg" xmlns:xlink="http://www.w3.org/1999/xlink" width="26.321" height="31.543" viewBox="0 0 26.321 31.543">
  <defs>
    <clipPath id="clip-path">
      <rect id="Rectangle_1107" data-name="Rectangle 1107" width="26.321" height="31.543" fill="none"/>
    </clipPath>
  </defs>
  <g id="Group_810" data-name="Group 810" opacity="0.5" clip-path="url(#clip-path)">
    <path id="Path_926" data-name="Path 926" d="M15.772,0V7.886h7.886Zm.3,24.259a5.437,5.437,0,0,1,4.185-8.907,5.374,5.374,0,0,1,3.4,1.232V9.857H15.772A1.97,1.97,0,0,1,13.8,7.886V0H3.943A3.946,3.946,0,0,0,0,3.943V27.6a3.947,3.947,0,0,0,3.943,3.943h8.534a2.758,2.758,0,0,1-.26-1.159,6.805,6.805,0,0,1,3.852-6.125m-7.2-14.4H4.929a.986.986,0,1,1,0-1.971H8.872a.986.986,0,0,1,0,1.971m0-3.943H4.929a.986.986,0,1,1,0-1.971H8.872a.986.986,0,1,1,0,1.971M20.255,17.323a3.467,3.467,0,1,0,3.468,3.466,3.466,3.466,0,0,0-3.468-3.466m1.238,8.233H19.017a4.827,4.827,0,0,0-4.828,4.828.8.8,0,0,0,.8.8H25.517a.8.8,0,0,0,.8-.8,4.827,4.827,0,0,0-4.828-4.828" fill="#11948a"/>
  </g>
</svg>
