<svg xmlns="http://www.w3.org/2000/svg" xmlns:xlink="http://www.w3.org/1999/xlink" width="28.902" height="31.543" viewBox="0 0 28.902 31.543">
  <defs>
    <clipPath id="clip-path">
      <rect id="Rectangle_1109" data-name="Rectangle 1109" width="28.902" height="31.543" fill="none"/>
    </clipPath>
  </defs>
  <g id="Group_813" data-name="Group 813" opacity="0.5" clip-path="url(#clip-path)">
    <path id="Path_928" data-name="Path 928" d="M18.94,29.4a8.787,8.787,0,1,1,4.718-16.176V9.857H15.772A1.97,1.97,0,0,1,13.8,7.886V0H3.943A3.947,3.947,0,0,0,0,3.943V27.6a3.947,3.947,0,0,0,3.943,3.943H19.715a3.941,3.941,0,0,0,3.576-2.3l-.651-.649a8.74,8.74,0,0,1-3.7.812M8.872,9.857H4.929a.986.986,0,1,1,0-1.971H8.872a.986.986,0,1,1,0,1.971m0-3.943H4.929a.986.986,0,1,1,0-1.971H8.872a.986.986,0,1,1,0,1.971M15.772,0V7.886h7.886ZM28.594,28.787l-4.148-4.152a6.814,6.814,0,1,0-1.485,1.485l4.148,4.152a1.05,1.05,0,0,0,1.485-1.485m-9.386-6.143h-.885V24.71a.169.169,0,0,1-.183.185H16.393a.169.169,0,0,1-.183-.185V16.645a.169.169,0,0,1,.183-.183h2.815c2.332,0,3.539,1.057,3.539,3.091s-1.207,3.091-3.539,3.091m-.057-4.39h-.828v2.6h.828c.871,0,1.414-.355,1.414-1.321,0-.919-.542-1.276-1.414-1.276" fill="#11948a"/>
  </g>
</svg>
