<svg xmlns="http://www.w3.org/2000/svg" width="247.383" height="41.001" viewBox="0 0 247.383 41.001">
  <g id="Group_119" data-name="Group 119" transform="translate(-25 -42.221)">
    <g id="Group_118" data-name="Group 118" transform="translate(25 42.221)">
      <path id="Path_66" data-name="Path 66" d="M460.854,63.374l-2.139,4.836c-.184-.1-.327-.169-.466-.248a5.51,5.51,0,0,0-7.174,1.133,9.194,9.194,0,0,0-2.449,6.365c-.016,5.188,0,16.133,0,16.472h-5.039V63.367h5.02v4.172l.142.034c.129-.185.263-.367.386-.555a8.9,8.9,0,0,1,9.087-4.148c.881.1,1.757.239,2.635.361Z" transform="translate(-213.471 -51.483)" fill="#5f5e5e" fill-rule="evenodd"/>
      <path id="Path_67" data-name="Path 67" d="M166.7,80.658c-.425.616-.891,1.223-1.279,1.876a1.169,1.169,0,0,1-1.234.635c-.548-.045-1.1-.01-1.717-.01V42.221h5V55.974a9.366,9.366,0,0,1,3.915-2.121,12.334,12.334,0,0,1,13.994,6.012,16.457,16.457,0,0,1,1.9,9.314,16.5,16.5,0,0,1-2.494,8.381,12.12,12.12,0,0,1-9.476,5.524,11.591,11.591,0,0,1-6.828-1.269C167.885,81.485,167.329,81.068,166.7,80.658Zm.8-12.418c0,2.522.023,5.044-.015,7.566a1.541,1.541,0,0,0,.772,1.411c2.663,1.9,5.523,1.955,8.507.975a6.17,6.17,0,0,0,4.1-3.762,16.347,16.347,0,0,0,.335-10.866c-1.476-4.676-7.928-7.773-12.812-4.3a1.754,1.754,0,0,0-.91,1.628C167.538,63.34,167.5,65.791,167.5,68.241Z" transform="translate(-86.898 -42.221)" fill="#5f5e5e" fill-rule="evenodd"/>
      <path id="Path_68" data-name="Path 68" d="M44.98,73.318c-1.832,4.229-7.253,16.669-8.12,18.8-.245.6-.631.583-1.122.6s-.579-.276-.706-.638q-4.923-14.013-9.86-28.022c-.055-.156-.091-.319-.173-.612.583,0,3.486-.016,4.751-.013.533-.023.738.176.9.668q2.828,8.724,5.7,17.436c.05.153.117.3.224.571.925-2.257,5.826-14.22,7.376-18.067a.814.814,0,0,1,.9-.61.884.884,0,0,1,.969.61q3.613,8.661,7.276,17.3c.091.217.189.43.352.8.6-1.713,4.77-13.722,6.324-18.157.07-.2.262-.5.4-.508,1.576-.036,3.153-.023,4.841-.023l-1.371,3.9Q59.311,79.68,54.984,92c-.135.384-.208.754-.788.733-.528-.019-.857-.1-1.1-.656C50.534,86.078,45.132,73.645,44.98,73.318Z" transform="translate(-25 -51.772)" fill="#5f5e5e" fill-rule="evenodd"/>
      <path id="Path_69" data-name="Path 69" d="M333.1,57.063a10.739,10.739,0,0,1,12.423-2.616,9.1,9.1,0,0,1,4.893,6.9,18.52,18.52,0,0,1,.317,3.434c.031,5.766.014,11.532.013,17.3,0,.167-.019.333-.032.552h-5.057c0-.279.007-11.934-.008-17.483a13.17,13.17,0,0,0-.176-2.294c-.745-4.11-4.3-6.127-8.214-4.551a16.617,16.617,0,0,0-3.308,2.114,2.254,2.254,0,0,0-.862,2.008c.039,6.439.021,19.883.021,20.212h-5.075v-40.3H333.1Z" transform="translate(-161.446 -42.274)" fill="#5f5e5e" fill-rule="evenodd"/>
      <path id="Path_70" data-name="Path 70" d="M408.041,78.011h-20.6c-.343,4.123,1.771,8.844,6.739,9.788a11.086,11.086,0,0,0,9.442-2.279l2.162,3.692a9.546,9.546,0,0,1-1.168.863c-4.366,2.305-8.988,3.093-13.7,1.517-4.952-1.657-7.8-5.374-8.694-10.475a16.631,16.631,0,0,1,1.707-11.589c2.843-4.864,7.1-7.252,12.816-6.848a12.792,12.792,0,0,1,7.4,2.642c3.334,2.7,4.418,6.322,4.2,10.45C408.309,76.508,408.15,77.237,408.041,78.011Zm-20.563-3.792h15.765a6.865,6.865,0,0,0-1.466-4.525c-2.6-3.333-8.318-3.721-11.576-.8A7.817,7.817,0,0,0,387.478,74.218Z" transform="translate(-185.688 -51.413)" fill="#5f5e5e" fill-rule="evenodd"/>
      <path id="Path_71" data-name="Path 71" d="M126.251,85.522l2.159,3.682a9.782,9.782,0,0,1-1.19.878,17.016,17.016,0,0,1-13.292,1.624c-5.3-1.619-8.244-5.5-9.133-10.9a17.962,17.962,0,0,1,.97-9.7,13.284,13.284,0,0,1,13.491-8.447,12.837,12.837,0,0,1,8.092,3.14,11.37,11.37,0,0,1,3.641,8.489c.025,1-.146,2-.207,3.009-.035.577-.313.722-.877.721-6.343-.021-12.686-.013-19.028-.013h-.843c-.279,5.187,2.677,9.538,7.853,9.954A11.093,11.093,0,0,0,126.251,85.522Zm-.371-11.289a7,7,0,0,0-1.951-5.093c-3.456-3.586-10.083-2.722-12.717,1.651a7.237,7.237,0,0,0-1.1,3.441Z" transform="translate(-60.808 -51.406)" fill="#5f5e5e" fill-rule="evenodd"/>
      <path id="Path_72" data-name="Path 72" d="M281.344,90.046c.528-1.434,1.038-2.827,1.554-4.219.065-.176.15-.346.226-.52,1.2.638,2.363,1.3,3.564,1.876a7.574,7.574,0,0,0,5.111.649,3.671,3.671,0,0,0,2.183-5.819,8.016,8.016,0,0,0-3.1-2.4c-1.565-.784-3.174-1.485-4.7-2.332a8.39,8.39,0,0,1-4.465-5.378c-1.015-4.2,1.29-7.761,5.666-8.873a16.036,16.036,0,0,1,9.724.937c.472.175.941.358,1.409.542a1.45,1.45,0,0,1,.237.172l-1.425,4.634c-.418-.278-.765-.52-1.121-.745a8.585,8.585,0,0,0-6.065-1.53,2.562,2.562,0,0,0-.285.041c-1.292.355-2.525.859-2.86,2.315a3.5,3.5,0,0,0,1.371,3.639,11.081,11.081,0,0,0,2.027,1.213c1.861.937,3.816,1.712,5.6,2.775a7.873,7.873,0,0,1,3.868,9.109c-.7,3.168-2.887,4.925-5.87,5.688a16.73,16.73,0,0,1-12.339-1.556A3.706,3.706,0,0,1,281.344,90.046Z" transform="translate(-140.421 -51.411)" fill="#5f5e5e" fill-rule="evenodd"/>
      <path id="Path_73" data-name="Path 73" d="M231.476,78.637V83.1c-3.6.224-7.621-.952-8.986-4.267a10.478,10.478,0,0,1-.824-3.825c-.064-10.685-.009-32.475.007-32.718h5.047c0,.3,0,21.217,0,31.374a4.521,4.521,0,0,0,3.534,4.786C230.647,78.539,231.052,78.573,231.476,78.637Z" transform="translate(-113.537 -42.252)" fill="#5f5e5e" fill-rule="evenodd"/>
      <path id="Path_74" data-name="Path 74" d="M259.662,92.248h-5.005V67.926h-3.92V63.662h8.925Z" transform="translate(-126.64 -51.875)" fill="#5f5e5e" fill-rule="evenodd"/>
      <path id="Path_75" data-name="Path 75" d="M260.492,43.6a3.076,3.076,0,0,1,3.164,3.121,3.145,3.145,0,1,1-6.29.023A3.034,3.034,0,0,1,260.492,43.6Z" transform="translate(-129.625 -42.841)" fill="#5f5e5e" fill-rule="evenodd"/>
    </g>
  </g>
</svg>
