<svg xmlns="http://www.w3.org/2000/svg" width="199.955" height="97.848" viewBox="0 0 199.955 97.848">
  <g id="Group_53" data-name="Group 53" transform="translate(-300 -74.312)">
    <g id="Group_51" data-name="Group 51">
      <g id="Group_50" data-name="Group 50">
        <path id="Path_87" data-name="Path 87" d="M328.641,93.585l.425-3.706q.219-1.916-1.454-1.917c-1.117,0-2.49-.531-2.368-1.6l1.077-9.391q.22-1.917-1.712-1.917h-5.926q-1.8,0-2.038,2.044l-6.609,57.629q-.221,1.917,1.712,1.917h5.8a1.936,1.936,0,0,0,2.151-1.917L324.013,97.1c.122-1.064,1.639-1.6,2.8-1.6q1.609,0,1.83-1.916" fill="#f90"/>
        <path id="Path_88" data-name="Path 88" d="M362.437,111.346a1.938,1.938,0,0,0,2.153-1.917l.432-3.769q.219-1.917-.94-1.917c-.773,0-2.776-.193-2.776-1.6l2.374-20.7q.219-1.917-1.713-1.917H351.082c-1.074,0-1.549-1.276-1.427-2.342l.11-.958q.22-1.917-1.712-1.917h-5.926q-1.8,0-2.038,2.045l-.1.83c-.122,1.066-.72,2.342-1.793,2.342h-3.736a1.937,1.937,0,0,0-2.152,1.917l-.425,3.705q-.219,1.917,1.712,1.917h3.736q1.609,0,1.427,1.6l-1.546,13.481a1.614,1.614,0,0,1-1.793,1.6h-4.766a1.938,1.938,0,0,0-2.153,1.917l-.432,3.769q-.219,1.917,1.713,1.917h3.864q1.609,0,1.1,1.661-2.208,6.327-4.156,12.651-1.284,3.9-4.389,3.45-1.482,0-1.374,2.428l.149,3.194a1.806,1.806,0,0,0,2.035,1.917h5.668q4-1.15,5.4-6.134,2.922-8.625,6.035-17.25.8-1.917,2.347-1.917Zm-15.558-9.2,1.546-13.481a1.613,1.613,0,0,1,1.792-1.6h3.221q1.48,0,1.283,1.725l-1.531,13.353a1.614,1.614,0,0,1-1.793,1.6H348.3q-1.611,0-1.426-1.6" fill="#f90"/>
        <path id="Path_89" data-name="Path 89" d="M364.34,129.108c-1.208.042-6.738-.661-7.044-2.109q-.933-4.792-1.67-9.583A2.029,2.029,0,0,0,353.4,115.5h-5.345q-1.934,0-1.552,2.3.636,5.112,1.467,10.223a31.036,31.036,0,0,0,.9,5.111q1.236,3.258,4.106,3.514h9.8a1.937,1.937,0,0,0,2.152-1.917l.425-3.706q.221-1.917-1-1.916" fill="#f90"/>
        <path id="Path_90" data-name="Path 90" d="M311.387,101.316a41.2,41.2,0,0,0,.657-5.111q.612-5.111,1.081-10.222.281-2.3-1.142-2.3H308.05q-1.422,0-1.639,1.916c-.362,3.195-1.056,7.263-1.514,10.458-.225,1.448-3.245,3.575-4.134,3.533q-.9,0-.739,1.917l.313,3.7q.162,1.916,1.584,1.917l6.16-1.425c1.407-.17,2.7-2.216,3.306-4.388" fill="#f90"/>
        <path id="Path_91" data-name="Path 91" d="M498.185,81.7h-6.637q-1.643,0-1.456-1.63l.314-2.738q.225-1.956-1.748-1.956h-6.044q-1.841,0-2.08,2.086L478.2,97.8a1.648,1.648,0,0,1-1.831,1.629h-4.008a1.976,1.976,0,0,0-2.2,1.956L466.2,135.932q-.223,1.957,1.747,1.956h19.715q5.076-.719,5.644-5.084l3.6-31.42q.223-1.956-1.747-1.956h-5.652q-1.643,0-1.456-1.629l.777-6.78a1.648,1.648,0,0,1,1.83-1.63H497.3a1.976,1.976,0,0,0,2.2-1.955l.433-3.781q.225-1.956-1.747-1.955m-11.521,27.117L484.578,127a3.12,3.12,0,0,1-1.468,3.064q-2.718.2-5.206.13-1.644,0-1.457-1.629l2.273-19.817a1.648,1.648,0,0,1,1.83-1.63h4.731q1.578,0,1.383,1.695" fill="#f90"/>
        <path id="Path_92" data-name="Path 92" d="M448.088,130.066a1.356,1.356,0,0,1-1.278-1.213,32.965,32.965,0,0,1,.34-4.09q.221-1.917-1.712-1.917h-.645a1.937,1.937,0,0,0-2.152,1.917l-.806,7.028q-.088,4.152,3.9,4.792a1.864,1.864,0,0,0,2.145-1.853l.307-2.684q.221-1.916-.094-1.98" fill="#f90"/>
        <path id="Path_93" data-name="Path 93" d="M455.395,129.811q-1.078-1.28-.258-5.048.221-1.917-1.712-1.917h-.644a1.938,1.938,0,0,0-2.153,1.917l-.8,6.965q-.205,4.023,3.572,4.791a1.794,1.794,0,0,0,2.137-1.789l.33-2.875q.183-1.6-.474-2.044" fill="#f90"/>
        <path id="Path_94" data-name="Path 94" d="M438.034,122.846H436.8a2.165,2.165,0,0,0-2.15,1.917l-.228,2.177c.039,1.81-2.212,2.813-3.456,3.515q-.533.127-.5,2.108l.15,2.62q.1,1.917,2.357,1.916c2.859-.885,5.846-3.009,6.043-5.611l.723-6.725a1.685,1.685,0,0,0-1.709-1.917" fill="#f90"/>
        <path id="Path_95" data-name="Path 95" d="M458.17,101.124a12.919,12.919,0,0,0,6.264-.7,6.407,6.407,0,0,0,2.817-4.345l2.088-18.208q.219-1.917-1.713-1.917H441.8q-1.8,0-2.038,2.045l-2.432,21.211q-.221,1.917,1.712,1.917h6.249q1.606,0,1.39,1.917-.213,1.853-1.823,1.853h-6.312a1.936,1.936,0,0,0-2.152,1.916l-.168,1.469Q436,110.2,437.936,110.2h6.312q1.608,0,1.4,1.789t-1.815,1.789h-6.826a1.938,1.938,0,0,0-2.153,1.917l-.19,1.661q-.221,1.917,1.712,1.917h26.471A1.938,1.938,0,0,0,465,117.352l.19-1.661q.221-1.917-1.713-1.917h-6.762q-1.611,0-1.4-1.789t1.815-1.789h5.99a1.937,1.937,0,0,0,2.152-1.917l.169-1.469q.219-1.917-1.713-1.916h-5.99q-1.609,0-1.39-1.917.213-1.853,1.823-1.853m-.788-6.945,1.09-10.843a1.575,1.575,0,0,1,1.763-1.576h2.89q1.542,0,1.377,1.639l-.945,9.957-.005.029a2.53,2.53,0,0,1-2.45,2.094c-.752.019-1.848.035-3.129.049a1.2,1.2,0,0,1-.591-1.349m-10.638,1.4c-1.514,0-2.586-.005-2.828-.016q-1.609,0-1.434-1.533l.451-3.932c.259,1.124,1.4,1.646,2.762,1.174a4.322,4.322,0,0,0,2.621-2.73l-.566,5.635a1.479,1.479,0,0,1-1.006,1.4m2.09-12.182-.411,4.091c-.139-1.294-1.347-1.928-2.8-1.423a4.366,4.366,0,0,0-2.5,2.382l.621-5.406a1.776,1.776,0,0,1,.582-1.231,2.492,2.492,0,0,1,.5-.052h2.632q1.542,0,1.377,1.639" fill="#f90"/>
        <path id="Path_96" data-name="Path 96" d="M463.371,130a1.439,1.439,0,0,1-.908-1.088,34.767,34.767,0,0,1,.349-4.161q.219-1.918-1.716-1.92h-.71a1.94,1.94,0,0,0-2.156,1.92l-.8,6.977q-.09,4.159,3.644,4.8a1.8,1.8,0,0,0,2.141-1.792l.316-2.752q.219-1.92-.16-1.984" fill="#f90"/>
        <path id="Path_97" data-name="Path 97" d="M428.887,109.771a2.236,2.236,0,0,0-.083-.857c-.751-2.647-1.517-5.291-2.279-7.935l0-.007a.585.585,0,0,0-.864-.339l-.016.011a15.185,15.185,0,0,1-9.946,2.474c-2.362-.131-4.7-.284-7.044-.44q-13.6-.906-27.182-1.824a11.392,11.392,0,0,0-5.628.975c-2.432,1.13-2.984,2.339-2.642,3.522q1.181,4.1,2.375,8.184a.372.372,0,0,0,.022.055.438.438,0,0,0,.61.159c.125-.073.224-.131.317-.191a15.675,15.675,0,0,1,9.507-2.4c.857.05,1.7.111,2.556.167q16.023,1.065,32.05,2.125c3.958.26,8.02-1.561,8.249-3.681" fill="#f90"/>
        <path id="Path_98" data-name="Path 98" d="M459.224,91.274a4.112,4.112,0,0,0,2.743-3.569c-.021-1.438-1.282-2.171-2.818-1.638a4.115,4.115,0,0,0-2.743,3.569c.021,1.438,1.283,2.172,2.818,1.638" fill="#f90"/>
      </g>
    </g>
    <g id="Group_52" data-name="Group 52">
      <path id="Path_99" data-name="Path 99" d="M318.333,159.568a1.19,1.19,0,0,1-1.21,1.21h-4.287c-.1,0-.143.055-.143.164V170.95a1.153,1.153,0,0,1-.359.861,1.179,1.179,0,0,1-.851.349h-.021a1.178,1.178,0,0,1-.851-.349,1.152,1.152,0,0,1-.358-.861V154.565a1.154,1.154,0,0,1,.358-.862,1.182,1.182,0,0,1,.851-.349h5.661a1.192,1.192,0,0,1,1.21,1.211Zm-2.359-4.286a.126.126,0,0,0-.143-.143h-2.995a.126.126,0,0,0-.143.143v.759c0,.109.048.164.143.164h2.995c.1,0,.143-.055.143-.164Zm-3.281,3.548a.127.127,0,0,0,.143.144h2.995a.127.127,0,0,0,.143-.144v-.861a.127.127,0,0,0-.143-.144h-2.995a.127.127,0,0,0-.143.144Zm11.453,6.86a1.038,1.038,0,0,1,0,1.456.962.962,0,0,1-.707.3h-1.148a.127.127,0,0,0-.144.144v3.076a1.122,1.122,0,0,1-1.107,1.108,1.029,1.029,0,0,1-.769-.329,1.075,1.075,0,0,1-.318-.779v-3.076a.127.127,0,0,0-.144-.144h-1.723a.15.15,0,0,0-.164.144,6.914,6.914,0,0,1-1.845,3.855.993.993,0,0,1-.7.287H315.3a1.366,1.366,0,0,1-.8-.348.859.859,0,0,1-.287-.656.96.96,0,0,1,.266-.677,4.975,4.975,0,0,0,1.292-2.461q.021-.144-.123-.144H314.7a1.025,1.025,0,1,1,0-2.05h1.025a.127.127,0,0,0,.144-.144v-1.271a.127.127,0,0,0-.144-.144h-.779a.929.929,0,0,1-.7-.3.978.978,0,0,1-.288-.707.982.982,0,0,1,.985-.984h8.182a.98.98,0,0,1,.985.984.981.981,0,0,1-.287.707.933.933,0,0,1-.7.3h-.84a.127.127,0,0,0-.144.144v1.271a.127.127,0,0,0,.144.144h1.148A.966.966,0,0,1,324.146,165.69ZM318,165.249a.127.127,0,0,0,.144.144h1.661a.127.127,0,0,0,.144-.144v-1.271a.127.127,0,0,0-.144-.144h-1.661a.127.127,0,0,0-.144.144Zm8.737-11.895a1.192,1.192,0,0,1,1.21,1.211v14.683a4.311,4.311,0,0,1-.215,1.528,1.571,1.571,0,0,1-.77.83,5.083,5.083,0,0,1-2.235.472h-.061a1.276,1.276,0,0,1-.841-.307,1.724,1.724,0,0,1-.575-.862l-.041-.164a.992.992,0,0,1-.041-.267.9.9,0,0,1,.144-.492.781.781,0,0,1,.656-.328h.431q.43,0,.656-.02a.488.488,0,0,0,.339-.092.447.447,0,0,0,.092-.318v-8.245c0-.109-.048-.164-.144-.164h-4.409a1.19,1.19,0,0,1-1.21-1.21v-5.044a1.192,1.192,0,0,1,1.21-1.211Zm-1.251,1.928a.127.127,0,0,0-.144-.143h-3.1c-.11,0-.164.047-.164.143v.759a.145.145,0,0,0,.164.164h3.1c.1,0,.144-.055.144-.164Zm-3.4,3.589c0,.1.054.144.164.144h3.1a.127.127,0,0,0,.144-.144v-.9a.127.127,0,0,0-.144-.144h-3.1c-.11,0-.164.048-.164.144Z" fill="#f90"/>
      <path id="Path_100" data-name="Path 100" d="M347.879,154.831c0,.1.054.144.163.144h6.3a1.189,1.189,0,1,1,0,2.378H340.455q-.144,0-.144.165v2.768q0,6.912-1.682,10.746a.865.865,0,0,1-.635.533,1.859,1.859,0,0,1-.267.021,1.023,1.023,0,0,1-.6-.185,1.234,1.234,0,0,1-.143-.082,1.279,1.279,0,0,1-.574-.759,1.416,1.416,0,0,1-.062-.41,1.132,1.132,0,0,1,.123-.512q1.333-3.2,1.333-9.352v-4.1a1.18,1.18,0,0,1,.349-.852,1.155,1.155,0,0,1,.861-.358h6.111a.127.127,0,0,0,.144-.144v-1.046a1.149,1.149,0,0,1,.359-.861,1.178,1.178,0,0,1,.851-.349h.184a1.192,1.192,0,0,1,1.211,1.21Zm-.39,2.851a1.19,1.19,0,0,1,1.21,1.21v.594a.145.145,0,0,0,.164.164h5.291a1.085,1.085,0,0,1,.779.318,1.089,1.089,0,0,1,0,1.558,1.078,1.078,0,0,1-.779.319h-5.291a.145.145,0,0,0-.164.164v1.969a.145.145,0,0,0,.164.164H352.8a1.189,1.189,0,0,1,1.21,1.21v5.578a1.19,1.19,0,0,1-1.21,1.21h-.676a.666.666,0,0,1-.677-.677.072.072,0,0,0-.082-.082h-7.28a.072.072,0,0,0-.082.082.7.7,0,0,1-.7.7h-.533a1.178,1.178,0,0,1-.851-.349,1.149,1.149,0,0,1-.359-.861v-5.6a1.153,1.153,0,0,1,.359-.862,1.181,1.181,0,0,1,.851-.348h3.24c.1,0,.144-.055.144-.164v-5.086a1.155,1.155,0,0,1,.358-.862,1.185,1.185,0,0,1,.852-.348Zm3.814,11.525c.1,0,.144-.055.144-.164V166.5c0-.109-.048-.164-.144-.164h-7.157c-.1,0-.143.055-.143.164v2.543c0,.109.047.164.143.164Z" fill="#f90"/>
      <path id="Path_101" data-name="Path 101" d="M369.242,163.526a.153.153,0,0,0-.185-.123l-.759.062c-.1,0-.143.055-.143.164v7.465a1.077,1.077,0,0,1-2.153,0v-7.3q0-.163-.144-.144l-1.682.123a.329.329,0,0,1-.1.021,1.113,1.113,0,0,1-.718-.267,1.045,1.045,0,0,1-.39-.738.475.475,0,0,1-.02-.143.953.953,0,0,1,.246-.636.969.969,0,0,1,.738-.369l.267-.021a.311.311,0,0,0,.246-.123q.348-.409.759-.984a.24.24,0,0,0,0-.267,17.136,17.136,0,0,0-1.6-2.051,1.254,1.254,0,0,1-.328-.861,1.27,1.27,0,0,1,.226-.738l.266-.369a.508.508,0,0,1,.369-.205.563.563,0,0,1,.411.123c.04.041.068.041.082,0a25.775,25.775,0,0,0,1.107-2.5,1.125,1.125,0,0,1,.6-.636,1.092,1.092,0,0,1,.492-.123,1.16,1.16,0,0,1,.369.061.923.923,0,0,1,.6.575.913.913,0,0,1,.082.369.935.935,0,0,1-.123.451q-1.047,2.029-1.764,3.138a.188.188,0,0,0,.021.246q.225.246.471.574c.028.041.058.058.093.052a.191.191,0,0,0,.092-.052q.738-1.189,1.312-2.276a1.063,1.063,0,0,1,.657-.554.9.9,0,0,1,.369-.082,1.092,1.092,0,0,1,.492.123.928.928,0,0,1,.513.6,1.047,1.047,0,0,1,.041.287.913.913,0,0,1-.164.512q-1.764,2.646-3.179,4.471a.067.067,0,0,0-.021.082.042.042,0,0,0,.062.021l1.517-.082a.1.1,0,0,0,.092-.051.09.09,0,0,0,.011-.093c-.055-.123-.109-.239-.164-.349a.911.911,0,0,1-.1-.41.879.879,0,0,1,.062-.307.8.8,0,0,1,.472-.513,1.086,1.086,0,0,1,.41-.082.98.98,0,0,1,.348.061,1.029,1.029,0,0,1,.575.493,20.752,20.752,0,0,1,1.148,2.625,1.162,1.162,0,0,1,.062.369.925.925,0,0,1-.124.451,1.15,1.15,0,0,1-.594.6.874.874,0,0,1-.349.082.913.913,0,0,1-.369-.082.8.8,0,0,1-.472-.554A.354.354,0,0,1,369.242,163.526Zm-5.64,2.318a.967.967,0,0,1,.39-.656.841.841,0,0,1,.554-.206.664.664,0,0,1,.164.021.96.96,0,0,1,.676.41.922.922,0,0,1,.226.615.594.594,0,0,1-.021.144,20.678,20.678,0,0,1-.758,3.466.8.8,0,0,1-.513.512.929.929,0,0,1-.328.062.9.9,0,0,1-.41-.1,1.1,1.1,0,0,1-.534-.574,1.163,1.163,0,0,1-.082-.431,1.1,1.1,0,0,1,.062-.348A18.237,18.237,0,0,0,363.6,165.844Zm5.045.287a.722.722,0,0,1-.061-.287.794.794,0,0,1,.1-.39A.876.876,0,0,1,369.2,165a1.286,1.286,0,0,1,.307-.041.943.943,0,0,1,.431.1.87.87,0,0,1,.472.533,18.36,18.36,0,0,1,.574,1.886,1.457,1.457,0,0,1,.02.246,1.007,1.007,0,0,1-.164.534,1.11,1.11,0,0,1-.615.492.847.847,0,0,1-.266.041.794.794,0,0,1-.411-.123.811.811,0,0,1-.389-.574Q368.955,167.135,368.647,166.131Zm9.146,3.1c0,.109.048.164.144.164h3.589a1.075,1.075,0,0,1,.79.318,1.117,1.117,0,0,1,0,1.559,1.082,1.082,0,0,1-.79.317h-10.09a1.088,1.088,0,0,1-.779-.317,1.09,1.09,0,0,1,0-1.559,1.081,1.081,0,0,1,.779-.318h3.671a.145.145,0,0,0,.164-.164v-2.564c0-.1-.055-.143-.164-.143h-2.42a1.033,1.033,0,0,1-.77-.329,1.116,1.116,0,0,1,0-1.558,1.032,1.032,0,0,1,.77-.328h7.957a1.052,1.052,0,0,1,.789.328,1.111,1.111,0,0,1,0,1.558,1.053,1.053,0,0,1-.789.329h-2.707a.127.127,0,0,0-.144.143Zm3.4-15.627a1.087,1.087,0,0,1,0,2.173h-9.27a1.087,1.087,0,0,1,0-2.173Zm-9,3.465a1.433,1.433,0,0,1,.656-.615,1.307,1.307,0,0,1,.554-.123,1.364,1.364,0,0,1,.328.041.744.744,0,0,1,.533.472.686.686,0,0,1,.082.307.794.794,0,0,1-.123.411q-.738,1.251-1.374,2.214a.205.205,0,0,0,0,.247,19.9,19.9,0,0,1,1.5,2.276.9.9,0,0,1,.062.779,1,1,0,0,1-.554.554,1.066,1.066,0,0,1-.82,0,1.142,1.142,0,0,1-.615-.574,22.253,22.253,0,0,0-1.231-2.133,1.876,1.876,0,0,1-.308-1.046,1.9,1.9,0,0,1,.267-.984Q371.7,157.989,372.2,157.066Zm5.783,5.23a.832.832,0,0,1,.144.451,1.293,1.293,0,0,1-.041.308.926.926,0,0,1-.534.553.939.939,0,0,1-.43.1.9.9,0,0,1-.369-.082,1.079,1.079,0,0,1-.636-.533,22.111,22.111,0,0,0-1.415-2.215,1.7,1.7,0,0,1-.328-1.026,1.764,1.764,0,0,1,.266-.943q.636-.963,1.128-1.846a1.435,1.435,0,0,1,.657-.615,1.3,1.3,0,0,1,.553-.123,1.358,1.358,0,0,1,.328.041.747.747,0,0,1,.534.472.614.614,0,0,1,.082.307.685.685,0,0,1-.124.39q-.594.984-1.456,2.235a.191.191,0,0,0,.021.247A23.319,23.319,0,0,1,377.978,162.3Zm3.712-.041a.819.819,0,0,1,.164.492.992.992,0,0,1-.041.267.864.864,0,0,1-.513.574,1.083,1.083,0,0,1-.451.1,1.2,1.2,0,0,1-1.025-.594,21.3,21.3,0,0,0-1.538-2.236,1.655,1.655,0,0,1-.062-1.948q.636-.963,1.149-1.846a1.553,1.553,0,0,1,.676-.615,1.267,1.267,0,0,1,.534-.123.981.981,0,0,1,.348.062.689.689,0,0,1,.533.451.878.878,0,0,1,.062.307.8.8,0,0,1-.123.411q-.369.573-1.477,2.214a.191.191,0,0,0,.021.247A25.371,25.371,0,0,1,381.69,162.255Z" fill="#f90"/>
      <path id="Path_102" data-name="Path 102" d="M403.115,153.662a1.289,1.289,0,0,1,.4-.79,1.149,1.149,0,0,1,.811-.317,1.063,1.063,0,0,1,.779.328.961.961,0,0,1,.267.677v.1a10.344,10.344,0,0,1-.39,2.071.173.173,0,0,0,.1.226q1.558.759,2.83,1.476a.943.943,0,0,1,.492.7v.184a1.034,1.034,0,0,1-.246.657l-.246.266a.085.085,0,0,0,.01.041.032.032,0,0,0,.031.021.725.725,0,0,1,.544.225.778.778,0,0,1,.214.554v2.071a1.179,1.179,0,0,1-.348.851,1.152,1.152,0,0,1-.861.359h-.1a1.224,1.224,0,0,1-1.21-1.21v-.8a.127.127,0,0,0-.144-.144H393.271c-.109,0-.164.048-.164.144v.82a1.189,1.189,0,0,1-2.379,0V159.63a.315.315,0,0,1,.093-.236.294.294,0,0,1,.215-.092c.027,0,.034-.007.02-.021a4.708,4.708,0,0,0-.246-.43.865.865,0,0,1-.143-.472.954.954,0,0,1,.041-.267.8.8,0,0,1,.533-.553,4.142,4.142,0,0,0,2.133-1.436,5.561,5.561,0,0,0,.8-2.5,1.179,1.179,0,0,1,1.169-1.066,1.008,1.008,0,0,1,.739.307.941.941,0,0,1,.266.657v.1a10.584,10.584,0,0,1-.41,2.174.176.176,0,0,0,.082.226q1.107.635,1.928,1.148a.818.818,0,0,1,.389.636.329.329,0,0,1,.021.1.842.842,0,0,1-.267.615,1.23,1.23,0,0,1-.779.37h-.123a1.245,1.245,0,0,1-.718-.226l-1.415-.943a.178.178,0,0,0-.225.041,6.37,6.37,0,0,1-2.318,1.5.018.018,0,0,0-.02.02.018.018,0,0,0,.02.021h7.445a.084.084,0,0,0,.082-.041.091.091,0,0,0,0-.082q-.123-.246-.287-.513a.768.768,0,0,1-.144-.451.993.993,0,0,1,.041-.267.8.8,0,0,1,.513-.533,4.066,4.066,0,0,0,2.184-1.344A5.063,5.063,0,0,0,403.115,153.662Zm-11.567.472a1,1,0,0,1,.482-.451.769.769,0,0,1,.626-.021.817.817,0,0,1,.492.431.854.854,0,0,1,.082.348.687.687,0,0,1-.082.308,5.875,5.875,0,0,1-.759,1.333.855.855,0,0,1-.656.328.379.379,0,0,1-.123.021,1.042,1.042,0,0,1-.615-.205.624.624,0,0,1-.308-.575.671.671,0,0,1,.2-.492A5.467,5.467,0,0,0,391.548,154.134Zm9.619,11.976a.251.251,0,0,0-.226.144l-.287.656a.1.1,0,0,0,.011.1.1.1,0,0,0,.091.041h5.394a1.226,1.226,0,0,1,1.21,1.21v2.666a1.153,1.153,0,0,1-.359.861,1.183,1.183,0,0,1-.851.349h-.841a.42.42,0,0,1-.41-.411c0-.027-.02-.04-.062-.04h-9.925c-.041,0-.062.013-.062.04a.417.417,0,0,1-.123.308.394.394,0,0,1-.287.123h-.759a1.114,1.114,0,0,1-.831-.349,1.143,1.143,0,0,1-.338-.82v-2.727a1.18,1.18,0,0,1,.349-.851,1.152,1.152,0,0,1,.861-.359h4.266a.176.176,0,0,0,.184-.144,2.018,2.018,0,0,1,.062-.276,3.673,3.673,0,0,0,.082-.38q.04-.144-.123-.144H395.2a1.179,1.179,0,0,1-.851-.348,1.153,1.153,0,0,1-.359-.862v-1.64a1.153,1.153,0,0,1,.359-.862,1.179,1.179,0,0,1,.851-.348h8.921a1.19,1.19,0,0,1,1.21,1.21v1.64a1.19,1.19,0,0,1-1.21,1.21Zm3.568,3.815a.145.145,0,0,0,.164-.164v-.821a.145.145,0,0,0-.164-.164h-9.721a.145.145,0,0,0-.164.164v.821a.145.145,0,0,0,.164.164Zm-8.265-6.378a.145.145,0,0,0-.164.164v.718c0,.1.055.143.164.143h6.255c.11,0,.164-.048.164-.143v-.718a.145.145,0,0,0-.164-.164Zm1.908-7.9a1.157,1.157,0,0,1-.575.349,1.458,1.458,0,0,1-.246.021,1.158,1.158,0,0,1-.43-.082.651.651,0,0,1-.359-.411.589.589,0,0,1,.071-.533l.37-.615a1.361,1.361,0,0,1,.635-.574,1.485,1.485,0,0,1,.472-.082,1.16,1.16,0,0,1,.369.061.639.639,0,0,1,.472.472,1.019,1.019,0,0,1,.02.205.7.7,0,0,1-.164.451Zm2.932.41a.919.919,0,0,1-.656.349h-.123a1.15,1.15,0,0,1-.636-.184.6.6,0,0,1-.287-.5.762.762,0,0,1,.2-.585,4.243,4.243,0,0,0,.636-.944.969.969,0,0,1,.492-.471.854.854,0,0,1,.349-.082,1.237,1.237,0,0,1,.307.041.881.881,0,0,1,.472.471.727.727,0,0,1,.082.328.607.607,0,0,1-.082.308A5.694,5.694,0,0,1,401.31,156.061Zm-.061,3.2a.018.018,0,0,0-.021.02.019.019,0,0,0,.021.021h5.434c.014,0,.024-.01.03-.031a.047.047,0,0,0-.009-.051q-1.109-.677-2.625-1.5a.18.18,0,0,0-.226.041A6.541,6.541,0,0,1,401.249,159.261Zm5.209-4.881a1.412,1.412,0,0,1,.7-.6,1.129,1.129,0,0,1,.472-.1,1.094,1.094,0,0,1,.41.082.647.647,0,0,1,.471.512.539.539,0,0,1,.041.205.648.648,0,0,1-.205.472q-.451.534-.656.779a1.158,1.158,0,0,1-.615.349,1.46,1.46,0,0,1-.246.021,1.215,1.215,0,0,1-.451-.082.643.643,0,0,1-.379-.431.673.673,0,0,1,.071-.574C406.2,154.81,406.335,154.6,406.458,154.38Z" fill="#f90"/>
      <path id="Path_103" data-name="Path 103" d="M434.465,164.388a1.224,1.224,0,0,1-1.21,1.21h-5.373a.191.191,0,0,0-.2.143,6.877,6.877,0,0,1-1.374,2.646c-.068.082-.054.136.041.164a18.108,18.108,0,0,0,3.835.727q2.154.2,5.23.2a.609.609,0,0,1,.574.348.758.758,0,0,1,.1.369.934.934,0,0,1-.062.329c-.041.082-.082.17-.123.266a1.948,1.948,0,0,1-.636.841,1.422,1.422,0,0,1-.861.287h-.062a48.739,48.739,0,0,1-5.721-.472,18.281,18.281,0,0,1-4.348-1.169.3.3,0,0,0-.267,0,17.466,17.466,0,0,1-4.388,1.641,1.162,1.162,0,0,1-.369.062,1.577,1.577,0,0,1-.636-.144,1.9,1.9,0,0,1-.779-.7c-.055-.069-.11-.144-.164-.226a.738.738,0,0,1-.144-.431.682.682,0,0,1,.061-.266.7.7,0,0,1,.534-.472,19.3,19.3,0,0,0,3.425-.964.072.072,0,0,0,.04-.072.074.074,0,0,0-.04-.071,9.555,9.555,0,0,1-1.292-1.292.849.849,0,0,1-.226-.554.98.98,0,0,1,.041-.266.917.917,0,0,1,.574-.616l.636-.266a.018.018,0,0,0,.02-.021.018.018,0,0,0-.02-.02h-.862a1.156,1.156,0,0,1-.861-.359,1.181,1.181,0,0,1-.348-.851v-6.214a1.19,1.19,0,0,1,1.209-1.21h4.84a.145.145,0,0,0,.164-.164v-.923a.145.145,0,0,0-.164-.164H418.49a1.109,1.109,0,0,1-.8-.317,1.045,1.045,0,0,1-.328-.78,1.076,1.076,0,0,1,.328-.79,1.087,1.087,0,0,1,.8-.328h16.16a1.12,1.12,0,0,1,1.128,1.118,1.048,1.048,0,0,1-.328.78,1.111,1.111,0,0,1-.8.317h-6.46c-.1,0-.144.055-.144.164v.923c0,.109.048.164.144.164h5.065a1.18,1.18,0,0,1,.852.349,1.155,1.155,0,0,1,.358.861Zm-12.755-5.414a.144.144,0,0,0-.164.164v1.025a.145.145,0,0,0,.164.164h3.547a.145.145,0,0,0,.164-.164v-1.025a.144.144,0,0,0-.164-.164Zm0,3.219c-.11,0-.164.048-.164.144V163.4c0,.1.054.144.164.144h3.527c.109,0,.164-.048.164-.144a5.386,5.386,0,0,0,.02-.553v-.513c0-.1-.054-.144-.164-.144Zm3.24,3.548q.04-.062,0-.1a.117.117,0,0,0-.082-.041h-2.953a.065.065,0,0,0-.062.041c-.014.027-.014.047,0,.061a8.26,8.26,0,0,0,1.825,1.641.161.161,0,0,0,.226-.021A4.372,4.372,0,0,0,424.95,165.741Zm6.89-2.194a.127.127,0,0,0,.144-.144v-1.066a.127.127,0,0,0-.144-.144h-3.65a.127.127,0,0,0-.144.144v.533a5.113,5.113,0,0,1-.02.533.127.127,0,0,0,.144.144Zm.144-4.409c0-.11-.048-.164-.144-.164h-3.65c-.1,0-.144.054-.144.164v1.025c0,.109.048.164.144.164h3.65c.1,0,.144-.055.144-.164Z" fill="#f90"/>
      <path id="Path_104" data-name="Path 104" d="M457.122,153.908a.065.065,0,0,0,0,.071c.013.022.041.032.082.032h4.839a.912.912,0,0,1,.668.277.953.953,0,0,1-.668,1.63h-2.378a.067.067,0,0,0-.062.041.041.041,0,0,0,.021.062,3.151,3.151,0,0,1,.184.287.706.706,0,0,1,.164.451.769.769,0,0,1-.061.307.863.863,0,0,1-.615.534,1.17,1.17,0,0,1-.37.061,1.3,1.3,0,0,1-.553-.123,1.593,1.593,0,0,1-.739-.636q-.266-.409-.615-.861a.277.277,0,0,0-.246-.123h-.779a.31.31,0,0,0-.246.123q-.328.431-.677.82a1.37,1.37,0,0,1-.9.452h-.184a1.656,1.656,0,0,1-.82-.206l-.369-.205a.509.509,0,0,1-.308-.421.545.545,0,0,1,.184-.5.034.034,0,0,0-.02-.061h-2.522a.084.084,0,0,0-.083.041.091.091,0,0,0,0,.082l.124.205a.955.955,0,0,1,.1.431.9.9,0,0,1-.082.369.924.924,0,0,1-.615.533,1.63,1.63,0,0,1-.349.041,1.263,1.263,0,0,1-.533-.123,1.4,1.4,0,0,1-.636-.666,7.308,7.308,0,0,0-.451-.831.227.227,0,0,0-.349,0q-.409.554-.84,1.046a1.185,1.185,0,0,1-.841.431h-.123a1.459,1.459,0,0,1-.841-.267l-.021-.02a.911.911,0,0,1-.41-.677v-.123a.912.912,0,0,1,.267-.636,11.771,11.771,0,0,0,1.681-2.276,1.546,1.546,0,0,1,.718-.7,1.326,1.326,0,0,1,.6-.143,1.16,1.16,0,0,1,.369.061l.2.062a.8.8,0,0,1,.554.451.928.928,0,0,1,.061.328.9.9,0,0,1-.082.369.069.069,0,0,0,0,.071.068.068,0,0,0,.062.032h3.343a1.228,1.228,0,0,1,1.21,1.21v.143c0,.028.009.045.031.051a.086.086,0,0,0,.071-.01,10.868,10.868,0,0,0,1.4-1.927,1.542,1.542,0,0,1,.718-.7,1.338,1.338,0,0,1,.635-.164,1.359,1.359,0,0,1,.328.041l.2.041a.811.811,0,0,1,.575.472.719.719,0,0,1,0,.738Zm-4.225,8.511a1.192,1.192,0,0,1-1.21,1.21h-4.163a.145.145,0,0,0-.164.164v7.219a1.122,1.122,0,0,1-1.128,1.128,1.126,1.126,0,0,1-.811-.329,1.074,1.074,0,0,1-.337-.8V159.22a1.153,1.153,0,0,1,.359-.862,1.177,1.177,0,0,1,.85-.348h5.394a1.19,1.19,0,0,1,1.21,1.21Zm-2.235-2.81c0-.095-.055-.143-.164-.143h-2.974c-.109,0-.164.048-.164.143V160c0,.1.055.144.164.144H450.5c.109,0,.164-.048.164-.144Zm-3.3,2.441a.145.145,0,0,0,.164.164H450.5a.145.145,0,0,0,.164-.164v-.41c0-.1-.055-.144-.164-.144h-2.974c-.109,0-.164.048-.164.144Zm13.556-4.04a1.182,1.182,0,0,1,.851.348,1.16,1.16,0,0,1,.359.862v10.418a3.5,3.5,0,0,1-.216,1.384,1.436,1.436,0,0,1-.769.728,5.533,5.533,0,0,1-2.194.39h-.041a1.333,1.333,0,0,1-.882-.329,1.918,1.918,0,0,1-.574-.84c-.055-.164-.116-.335-.185-.513a.21.21,0,0,0-.205-.143h-5.25a.072.072,0,0,0-.082.082.666.666,0,0,1-.656.656H450.6a1.1,1.1,0,0,1-.79-.328,1.079,1.079,0,0,1-.338-.8v-4.286a1.228,1.228,0,0,1,1.21-1.21h5.537a1.226,1.226,0,0,1,1.21,1.21v4.183c0,.11.048.164.144.164q.348.021,1.8.021a.481.481,0,0,0,.317-.082.435.435,0,0,0,.093-.328v-5.8c0-.109-.048-.164-.144-.164h-4.265a1.192,1.192,0,0,1-1.211-1.21v-3.2a1.19,1.19,0,0,1,1.211-1.21Zm-5.7,7.957a.127.127,0,0,0-.143-.144h-3.179c-.109,0-.164.048-.164.144v.574a.145.145,0,0,0,.164.164h3.179c.1,0,.143-.055.143-.164Zm-3.486,2.83c0,.1.055.143.164.143h3.179a.126.126,0,0,0,.143-.143v-.6c0-.109-.047-.164-.143-.164h-3.179a.145.145,0,0,0-.164.164Zm8.06-9.188a.127.127,0,0,0-.144-.143h-3.076c-.109,0-.164.048-.164.143V160c0,.1.055.144.164.144h3.076a.127.127,0,0,0,.144-.144ZM456.4,162.05a.145.145,0,0,0,.164.164h3.076c.1,0,.144-.055.144-.164v-.41a.127.127,0,0,0-.144-.144h-3.076c-.109,0-.164.048-.164.144Z" fill="#f90"/>
      <path id="Path_105" data-name="Path 105" d="M488.616,167.361a1.068,1.068,0,0,1,.769.308,1.006,1.006,0,0,1,.318.748,1.084,1.084,0,0,1-1.087,1.077h-6.932a.145.145,0,0,0-.164.164v1.292a1.192,1.192,0,0,1-1.21,1.21h-.143a1.178,1.178,0,0,1-.852-.349,1.152,1.152,0,0,1-.358-.861v-1.292c0-.109-.048-.164-.144-.164h-6.747a1.084,1.084,0,0,1-1.087-1.077,1,1,0,0,1,.318-.748,1.064,1.064,0,0,1,.769-.308h6.747c.1,0,.144-.054.144-.164v-.779c0-.109-.048-.164-.144-.164H474.2a1.19,1.19,0,0,1-1.21-1.21v-5.455a1.186,1.186,0,0,1,.348-.852,1.159,1.159,0,0,1,.862-.358h12.468a1.226,1.226,0,0,1,1.211,1.21v5.455a1.153,1.153,0,0,1-.36.861,1.176,1.176,0,0,1-.851.349h-4.983a.145.145,0,0,0-.164.164v.779a.145.145,0,0,0,.164.164Zm-10.111-13.986a1.19,1.19,0,0,1,1.21,1.21v1.764a1.19,1.19,0,0,1-1.21,1.21H473.44a1.192,1.192,0,0,1-1.21-1.21v-1.764a1.192,1.192,0,0,1,1.21-1.21Zm-1.271,2.707a.145.145,0,0,0,.164-.164v-.9a.145.145,0,0,0-.164-.164h-2.625a.145.145,0,0,0-.164.164v.9a.145.145,0,0,0,.164.164Zm-1.661,4.245c-.11,0-.164.048-.164.144v.8a.145.145,0,0,0,.164.164h3.24c.1,0,.144-.055.144-.164v-.8a.127.127,0,0,0-.144-.144Zm-.164,3.876c0,.1.054.144.164.144h3.24a.127.127,0,0,0,.144-.144v-.841a.127.127,0,0,0-.144-.143h-3.24c-.11,0-.164.048-.164.143Zm11.915-10.828a1.192,1.192,0,0,1,1.21,1.21v1.764a1.192,1.192,0,0,1-1.21,1.21h-5.107a1.192,1.192,0,0,1-1.21-1.21v-1.764a1.192,1.192,0,0,1,1.21-1.21Zm-2.174,8.06a.145.145,0,0,0,.164-.164v-.8c0-.1-.055-.144-.164-.144h-3.466c-.109,0-.164.048-.164.144v.8a.145.145,0,0,0,.164.164Zm0,2.912c.109,0,.164-.048.164-.144v-.841c0-.1-.055-.143-.164-.143h-3.466c-.109,0-.164.048-.164.143v.841c0,.1.055.144.164.144Zm.9-8.265a.145.145,0,0,0,.164-.164v-.9a.144.144,0,0,0-.164-.164h-2.686a.144.144,0,0,0-.164.164v.9a.145.145,0,0,0,.164.164Z" fill="#f90"/>
    </g>
  </g>
</svg>
