<svg xmlns="http://www.w3.org/2000/svg" width="110.667" height="50.534" viewBox="0 0 110.667 50.534">
  <g id="tc_logo_white-01" transform="translate(-0.053)">
    <g id="Group_908" data-name="Group 908" transform="translate(43.474 39.452)">
      <g id="Group_907" data-name="Group 907">
        <path id="Path_2918" data-name="Path 2918" d="M39.491,35.115H37V33.94h6.287v1.175H40.878v6.24H39.491Z" transform="translate(-37 -33.505)" fill="#fff"/>
        <path id="Path_2919" data-name="Path 2919" d="M42.27,38.314a3.009,3.009,0,1,1,3.009,2.9,2.844,2.844,0,0,1-3.009-2.9Zm4.7,0a1.681,1.681,0,1,0-1.681,1.763,1.645,1.645,0,0,0,1.657-1.763Z" transform="translate(-36.077 -33.284)" fill="#fff"/>
        <path id="Path_2920" data-name="Path 2920" d="M53.953,35.44v5.653H52.637v-.717a2.35,2.35,0,0,1-1.822.8,2.233,2.233,0,0,1-2.433-2.491V35.44H49.71v3.009c0,1.022.482,1.516,1.328,1.516a1.493,1.493,0,0,0,1.6-1.669V35.44Z" transform="translate(-35.008 -33.242)" fill="#fff"/>
        <path id="Path_2921" data-name="Path 2921" d="M54.2,38.282a2.856,2.856,0,0,1,3.056-2.891,2.538,2.538,0,0,1,2.409,1.316l-1,.576a1.6,1.6,0,0,0-1.41-.787,1.763,1.763,0,1,0,0,3.526,1.6,1.6,0,0,0,1.41-.787l1.011.588a2.574,2.574,0,0,1-2.409,1.328A2.868,2.868,0,0,1,54.2,38.282Z" transform="translate(-33.986 -33.252)" fill="#fff"/>
        <path id="Path_2922" data-name="Path 2922" d="M65.339,38.189V41.42H64.023V38.353c0-1.011-.494-1.493-1.34-1.493a1.5,1.5,0,0,0-1.575,1.7V41.42H59.78V33.57h1.328v2.856a2.515,2.515,0,0,1,1.88-.717,2.209,2.209,0,0,1,2.35,2.48Z" transform="translate(-33.009 -33.57)" fill="#fff"/>
        <path id="Path_2923" data-name="Path 2923" d="M68.09,37.675A4.007,4.007,0,0,1,75.036,35.1l-.893.834a2.609,2.609,0,1,0,0,3.455l.893.846a4.007,4.007,0,0,1-6.9-2.574Z" transform="translate(-31.552 -33.527)" fill="#fff"/>
        <path id="Path_2924" data-name="Path 2924" d="M75,33.57h1.293v7.85H75Z" transform="translate(-30.342 -33.57)" fill="#fff"/>
        <path id="Path_2925" data-name="Path 2925" d="M77.18,38.314a3.009,3.009,0,1,1,3.009,2.9,2.844,2.844,0,0,1-3.009-2.9Zm4.7,0A1.681,1.681,0,1,0,80.2,40.077a1.645,1.645,0,0,0,1.657-1.763Z" transform="translate(-29.96 -33.284)" fill="#fff"/>
        <path id="Path_2926" data-name="Path 2926" d="M88.812,35.44v5.653H87.637v-.717a2.35,2.35,0,0,1-1.822.8,2.233,2.233,0,0,1-2.433-2.491V35.44H84.71v3.009c0,1.022.482,1.516,1.328,1.516a1.493,1.493,0,0,0,1.54-1.7V35.44Z" transform="translate(-28.876 -33.242)" fill="#fff"/>
        <path id="Path_2927" data-name="Path 2927" d="M95.121,33.57v7.85H93.84v-.729a2.35,2.35,0,0,1-1.869.8,2.891,2.891,0,0,1,0-5.782,2.35,2.35,0,0,1,1.822.764v-2.9Zm-1.3,5.03a1.681,1.681,0,1,0-1.681,1.763A1.657,1.657,0,0,0,93.816,38.6Z" transform="translate(-27.875 -33.57)" fill="#fff"/>
      </g>
    </g>
    <path id="Path_2928" data-name="Path 2928" d="M49.512,29.317a5.747,5.747,0,0,0,.364-.881c.423-.118,1.175-.564.881-2.115,0,0-1.457.27-1.316,1.551a5.159,5.159,0,0,1-.787,1.786,2.691,2.691,0,0,0-.529-1.634,1.728,1.728,0,0,0-.447,2.621,4.877,4.877,0,0,1-1.61.858c.435-.411.811-1.175.129-2.7a1.939,1.939,0,0,0-.928,2.879,4.607,4.607,0,0,1-1.34,0l.317.623a5.206,5.206,0,0,0,2.35-.341c.27.458,1.081,1.4,3.02.353a2.35,2.35,0,0,0-1.6-1.175,5.641,5.641,0,0,0,.975-1c.294.247,1.175.752,2.292-.588a1.645,1.645,0,0,0-1.775-.235Z" transform="translate(7.688 4.612)" fill="#fff"/>
    <path id="Path_2929" data-name="Path 2929" d="M43.8,0C32.276,6.616,27.552,16.958,29.914,23.916c4.959,14.655-2.574,22.623-2.574,22.623,11.306-5.782,8.932-18.662,7.557-26.63C32.875,8.285,43.8,0,43.8,0Z" transform="translate(4.781)" fill="#fff"/>
    <path id="Path_2930" data-name="Path 2930" d="M30.546,27.1c-3.161-3.7-4.818-5.712-5.112-10.577S28.584,5.95,28.584,5.95,22.308,9.628,21.7,16.774s4.9,15.865,4.9,15.865Z" transform="translate(3.784 1.043)" fill="#fff"/>
    <path id="Path_2931" data-name="Path 2931" d="M34.554,24.52c-2.115,3.678-5.03,9.5-13.879,12.927A18.075,18.075,0,0,1,2,34.039c.67,1.857,8.532,15,21.941,11.658C37.832,42.242,34.554,24.52,34.554,24.52Z" transform="translate(0.341 4.296)" fill="#fff"/>
    <path id="Path_2932" data-name="Path 2932" d="M16.969,37.846s-6.182-4.7-11.082-15.278c-.165-.353-1.657-2.574-3.232-1.634s-.611,3.373-.611,3.373S8.2,35.648,16.969,37.846Z" transform="translate(0.298 3.628)" fill="#fff"/>
    <path id="Path_2933" data-name="Path 2933" d="M14.293,37.359A32.177,32.177,0,0,1,2.482,27.147s-.987-1.34-1.939-.893S.32,28.475.32,28.475,4.445,37.089,14.293,37.359Z" transform="translate(0 4.584)" fill="#fff"/>
    <path id="Path_2934" data-name="Path 2934" d="M35.18,20.945a27.911,27.911,0,0,1,0,10.93c1.88-3.126,7.639-.517,7.639-.517.388-.823,1.622-.8,1.622-.8C44.546,19.84,35.18,20.945,35.18,20.945Z" transform="translate(6.155 3.664)" fill="#fff"/>
    <path id="Path_2935" data-name="Path 2935" d="M44.268,31.156l-.893-1.716L42,30.1a14.937,14.937,0,0,1,2.1,1.352,4.383,4.383,0,0,1,.388.353l.141.165L44.55,31.8Z" transform="translate(7.35 5.158)" fill="#fff"/>
  </g>
</svg>
