<svg xmlns="http://www.w3.org/2000/svg" xmlns:xlink="http://www.w3.org/1999/xlink" width="165.267" height="62" viewBox="0 0 165.267 62">
  <defs>
    <clipPath id="clip-path">
      <rect id="Rectangle_751" data-name="Rectangle 751" width="165.267" height="62" fill="none"/>
    </clipPath>
    <clipPath id="clip-path-2">
      <rect id="Rectangle_752" data-name="Rectangle 752" width="71.434" height="61.78" fill="none"/>
    </clipPath>
  </defs>
  <g id="Group_975" data-name="Group 975" transform="translate(0 0.003)">
    <path id="Path_3270" data-name="Path 3270" d="M2689.792,2413.39v-12.129h-4.824v-1.621h11.589v1.621h-4.824v12.129Z" transform="translate(-2631.228 -2351.614)"/>
    <g id="Group_972" data-name="Group 972" transform="translate(0 -0.003)">
      <g id="Group_971" data-name="Group 971" transform="translate(0 0)" clip-path="url(#clip-path)">
        <path id="Path_3271" data-name="Path 3271" d="M3205.882,2582.844a4.975,4.975,0,0,1,1.633-4.1,5.11,5.11,0,0,1,3.326-1.106,4.7,4.7,0,0,1,4.948,5.063,6.26,6.26,0,0,1-.612,3.024,4.209,4.209,0,0,1-1.782,1.711,5.446,5.446,0,0,1-2.554.61,4.91,4.91,0,0,1-3.59-1.341,5.165,5.165,0,0,1-1.369-3.863m1.841.005a4.078,4.078,0,0,0,.886,2.866,3.073,3.073,0,0,0,4.452,0,4.168,4.168,0,0,0,.887-2.917,3.957,3.957,0,0,0-.891-2.8,3.078,3.078,0,0,0-4.447,0,4.06,4.06,0,0,0-.886,2.861" transform="translate(-3141.716 -2526.048)"/>
        <path id="Path_3272" data-name="Path 3272" d="M3811.026,2598.608v-1.475a3.93,3.93,0,0,1-3.353,1.7,4.5,4.5,0,0,1-1.747-.338,2.87,2.87,0,0,1-1.2-.849,3.082,3.082,0,0,1-.552-1.253,8.071,8.071,0,0,1-.109-1.576v-6.173h1.8v5.521a9.249,9.249,0,0,0,.11,1.781,1.753,1.753,0,0,0,.716,1.045,2.316,2.316,0,0,0,1.353.38,3.088,3.088,0,0,0,1.512-.389,2.209,2.209,0,0,0,1-1.06,5.021,5.021,0,0,0,.294-1.945v-5.333h1.8v9.967Z" transform="translate(-3727.922 -2536.828)"/>
        <path id="Path_3273" data-name="Path 3273" d="M4354.685,2584.185l1.762.22a4.211,4.211,0,0,1-1.478,2.676,4.484,4.484,0,0,1-2.921.967,4.684,4.684,0,0,1-3.489-1.336,5.225,5.225,0,0,1-1.319-3.83,6.572,6.572,0,0,1,.568-2.822,3.814,3.814,0,0,1,1.729-1.814,5.381,5.381,0,0,1,2.526-.6,4.591,4.591,0,0,1,2.82.818,3.712,3.712,0,0,1,1.4,2.324l-1.741.26a2.7,2.7,0,0,0-.882-1.514,2.374,2.374,0,0,0-1.531-.508,2.864,2.864,0,0,0-2.2.916,4.169,4.169,0,0,0-.848,2.9,4.311,4.311,0,0,0,.816,2.921,2.725,2.725,0,0,0,2.13.911,2.605,2.605,0,0,0,1.762-.609,2.951,2.951,0,0,0,.9-1.873" transform="translate(-4260.228 -2526.048)"/>
        <path id="Path_3274" data-name="Path 3274" d="M4883.152,2413.39v-13.75h1.8v4.939a4.087,4.087,0,0,1,3.16-1.376,4.47,4.47,0,0,1,2.037.436,2.634,2.634,0,0,1,1.236,1.206,5.267,5.267,0,0,1,.373,2.232v6.313h-1.8v-6.308a2.514,2.514,0,0,0-.58-1.841,2.225,2.225,0,0,0-1.64-.577,3.02,3.02,0,0,0-1.491.389,2.246,2.246,0,0,0-1,1.055,4.6,4.6,0,0,0-.3,1.837v5.446Z" transform="translate(-4785.415 -2351.611)"/>
        <path id="Path_3275" data-name="Path 3275" d="M5728.659,2396.8l1.942.459a6.08,6.08,0,0,1-2.19,3.418,6.289,6.289,0,0,1-3.865,1.177,7.3,7.3,0,0,1-3.846-.9,5.735,5.735,0,0,1-2.255-2.62,8.858,8.858,0,0,1-.773-3.684,7.682,7.682,0,0,1,.874-3.745,5.789,5.789,0,0,1,2.486-2.428,7.641,7.641,0,0,1,3.549-.83,6.27,6.27,0,0,1,3.694,1.051,5.456,5.456,0,0,1,2.087,2.955l-1.9.421a4.23,4.23,0,0,0-1.478-2.182,4.125,4.125,0,0,0-2.436-.683,4.964,4.964,0,0,0-2.821.759,4.041,4.041,0,0,0-1.593,2.037,7.754,7.754,0,0,0-.459,2.636,7.93,7.93,0,0,0,.543,3.058,3.86,3.86,0,0,0,1.689,1.952,4.96,4.96,0,0,0,2.48.646,4.327,4.327,0,0,0,2.75-.881,4.441,4.441,0,0,0,1.524-2.613" transform="translate(-5603.231 -2339.85)"/>
        <rect id="Rectangle_750" data-name="Rectangle 750" width="1.801" height="13.75" transform="translate(129.462 48.029)"/>
        <path id="Path_3276" data-name="Path 3276" d="M6663.73,2582.844a4.978,4.978,0,0,1,1.632-4.1,5.112,5.112,0,0,1,3.326-1.106,4.7,4.7,0,0,1,4.949,5.063,6.265,6.265,0,0,1-.612,3.024,4.2,4.2,0,0,1-1.782,1.711,5.444,5.444,0,0,1-2.554.61,4.91,4.91,0,0,1-3.59-1.341,5.168,5.168,0,0,1-1.368-3.863m1.841.005a4.077,4.077,0,0,0,.886,2.866,3.074,3.074,0,0,0,4.453,0,4.169,4.169,0,0,0,.886-2.917,3.956,3.956,0,0,0-.892-2.8,3.078,3.078,0,0,0-4.447,0,4.059,4.059,0,0,0-.886,2.861" transform="translate(-6530.354 -2526.048)"/>
        <path id="Path_3277" data-name="Path 3277" d="M7268.873,2598.608v-1.475a3.93,3.93,0,0,1-3.353,1.7,4.5,4.5,0,0,1-1.747-.338,2.862,2.862,0,0,1-1.2-.849,3.082,3.082,0,0,1-.552-1.253,8.111,8.111,0,0,1-.109-1.576v-6.173h1.8v5.521a9.242,9.242,0,0,0,.11,1.781,1.751,1.751,0,0,0,.716,1.045,2.314,2.314,0,0,0,1.353.38,3.089,3.089,0,0,0,1.512-.389,2.21,2.21,0,0,0,1-1.06,5.025,5.025,0,0,0,.294-1.945v-5.333h1.8v9.967Z" transform="translate(-7116.559 -2536.828)"/>
        <path id="Path_3278" data-name="Path 3278" d="M7805.612,2413.39v-1.254a3.363,3.363,0,0,1-2.965,1.474,4.352,4.352,0,0,1-2.33-.656,4.4,4.4,0,0,1-1.647-1.833,6.011,6.011,0,0,1-.584-2.706,6.711,6.711,0,0,1,.528-2.7,3.972,3.972,0,0,1,1.582-1.862,4.426,4.426,0,0,1,2.359-.647,3.7,3.7,0,0,1,1.7.381,3.523,3.523,0,0,1,1.214.992v-4.936h1.8v13.75Zm-5.685-4.969a4.136,4.136,0,0,0,.86,2.861,2.659,2.659,0,0,0,2.032.947,2.615,2.615,0,0,0,2.006-.9,3.989,3.989,0,0,0,.826-2.762,4.468,4.468,0,0,0-.841-3,2.651,2.651,0,0,0-2.071-.957,2.557,2.557,0,0,0-2.006.92,4.327,4.327,0,0,0-.806,2.9" transform="translate(-7642.006 -2351.611)"/>
      </g>
    </g>
    <g id="Group_974" data-name="Group 974" transform="translate(0 -0.003)">
      <g id="Group_973" data-name="Group 973" transform="translate(0 0)" clip-path="url(#clip-path-2)">
        <path id="Path_3279" data-name="Path 3279" d="M3133.1,2101.25s.709,2.109,3.451.637a2.137,2.137,0,0,0-3.451-.637" transform="translate(-3070.394 -2058.542)" fill="#31e217"/>
        <path id="Path_3280" data-name="Path 3280" d="M3046.757,1977.114s2.149-.57.86-3.4a2.139,2.139,0,0,0-.86,3.4" transform="translate(-2985.222 -1934.206)" fill="#31e217"/>
        <path id="Path_3281" data-name="Path 3281" d="M3172.447,1930.756s1.827-.772.337-3.114a1.909,1.909,0,0,0-.337,3.114" transform="translate(-3108.268 -1889.059)" fill="#31e217"/>
        <path id="Path_3282" data-name="Path 3282" d="M3264.891,1990.458s1.109,1.3,2.647-.531a1.643,1.643,0,0,0-2.647.531" transform="translate(-3199.544 -1949.63)" fill="#31e217"/>
        <path id="Path_3283" data-name="Path 3283" d="M3295.644,1836.63s1.71-.025,1.275-2.382a1.646,1.646,0,0,0-1.275,2.382" transform="translate(-3229.496 -1797.535)" fill="#31e217"/>
        <path id="Path_3284" data-name="Path 3284" d="M2982.44,1911.211l.114-.623a5.427,5.427,0,0,0,6.218-4.48l.622.116a6.059,6.059,0,0,1-6.953,4.987" transform="translate(-2922.746 -1867.957)" fill="#31e217"/>
        <path id="Path_3285" data-name="Path 3285" d="M1936.691,130.668s-12.043,9.142-9.831,21.955c1.516,8.779,4.144,22.991-8.325,29.359,0,0,8.312-8.787,2.838-24.944-2.6-7.67,2.609-19.081,15.317-26.371" transform="translate(-1880.135 -128.053)" fill="#00afde"/>
        <path id="Path_3286" data-name="Path 3286" d="M1558.454,518.791s-3.8,6.3-3.476,11.631,2.157,7.55,5.637,11.63l-4.352,6.174s-6.071-9.618-5.4-17.5,7.591-11.938,7.591-11.938" transform="translate(-1519.771 -508.407)" fill="#00afde"/>
        <path id="Path_3287" data-name="Path 3287" d="M314.161,1717.717s3.614,19.55-11.708,23.354c-14.789,3.671-23.457-10.811-24.192-12.854,0,0,8.62,8.5,20.6,3.8,9.754-3.83,12.966-10.248,15.3-14.3" transform="translate(-272.692 -1683.337)" fill="#1f4b8e"/>
        <path id="Path_3288" data-name="Path 3288" d="M277.366,1491.236s-6.816-5.2-12.217-16.811c-.182-.39-1.828-2.838-3.559-1.806-1.815,1.082-.7,3.7-.7,3.7s6.807,12.5,16.477,14.918" transform="translate(-255.335 -1442.898)" fill="#1f4b8e"/>
        <path id="Path_3289" data-name="Path 3289" d="M164.819,1837.138a35.487,35.487,0,0,1-13.015-11.251s-1.084-1.472-2.142-.983c-1.207.557-.248,2.44-.248,2.44s4.547,9.5,15.405,9.794" transform="translate(-146.069 -1788.281)" fill="#00afde"/>
        <path id="Path_3290" data-name="Path 3290" d="M2426.494,1484.855s10.317-1.239,10.208,10.6c0,0-1.359-.038-1.787.882,0,0-6.349-2.863-8.418.576a30.771,30.771,0,0,0,0-12.054" transform="translate(-2377.927 -1455.099)" fill="#1f4b8e"/>
        <path id="Path_3291" data-name="Path 3291" d="M2664.435,1747.113a1.854,1.854,0,1,0-2.159,1.49,1.855,1.855,0,0,0,2.159-1.49" transform="translate(-2607.502 -1709.997)" fill="#fff"/>
        <path id="Path_3292" data-name="Path 3292" d="M2708.918,1792.345a.927.927,0,1,0-1.08.744.929.929,0,0,0,1.08-.744" transform="translate(-2652.896 -1755.396)" fill="#121212"/>
        <path id="Path_3293" data-name="Path 3293" d="M2870.685,2035.962l-1.48.7a12.259,12.259,0,0,1,2.912,2.058Z" transform="translate(-2811.777 -1995.212)" fill="#972372"/>
      </g>
    </g>
  </g>
</svg>
