<svg xmlns="http://www.w3.org/2000/svg" viewBox="0 0 59.06 59.06"><defs><style>.cls-1{fill:#c18156;opacity:0.9;}</style></defs><title>資產 1</title><g id="圖層_2" data-name="圖層 2"><g id="圖層_1-2" data-name="圖層 1"><path class="cls-1" d="M29.53,0A29.53,29.53,0,1,0,59.06,29.53,29.53,29.53,0,0,0,29.53,0Zm0,57.2A27.67,27.67,0,1,1,57.2,29.53,27.67,27.67,0,0,1,29.53,57.2Zm0-54.48A26.81,26.81,0,1,0,56.35,29.53,26.82,26.82,0,0,0,29.53,2.72Zm0,52.85a26,26,0,1,1,26-26A26,26,0,0,1,29.53,55.56Zm5.24-33.24L29.53,11.72,24.3,22.33,12.59,24l8.47,8.25-2,11.65,10.47-5.5L40,43.94,38,32.29,46.47,24Z"/></g></g></svg>