<svg xmlns="http://www.w3.org/2000/svg" viewBox="0 0 59.06 45.17"><defs><style>.cls-1{fill:#7a430b;opacity:0.9;}</style></defs><title>資產 3</title><g id="圖層_2" data-name="圖層 2"><g id="圖層_1-2" data-name="圖層 1"><path class="cls-1" d="M29,4.63,35.36,26l11.31-15.6L44,28.28l11.75-9.87L52.12,29,48.87,45.17H9.26L5.79,29,2.55,18.41l9.54,9.87-.73-17.85L22.5,26,28.92,4.63a2.32,2.32,0,1,1,.06,0ZM51.35,25.07,41.19,33.74,42.63,21.3,34.46,31.49,29,11.47l-5.58,20L14,19.26l.33,14.48L6.95,26l1.44,4.32L10,38.22H48l1.52-7.89ZM10.54,40.53,11,42.85H47l.51-2.32Zm-8.81-22A1.74,1.74,0,1,0,0,16.79,1.74,1.74,0,0,0,1.74,18.53ZM11,10.42A1.74,1.74,0,1,0,9.26,8.69,1.74,1.74,0,0,0,11,10.42Zm46.32,8.11a1.74,1.74,0,1,0-1.74-1.74A1.74,1.74,0,0,0,57.33,18.53ZM46.9,10.42a1.74,1.74,0,1,0-1.74-1.74A1.74,1.74,0,0,0,46.9,10.42Z"/></g></g></svg>