<svg xmlns="http://www.w3.org/2000/svg" viewBox="0 0 50.85 46.06"><defs><style>.cls-1{fill:#512702;opacity:0.9;}</style></defs><title>資產 4</title><g id="圖層_2" data-name="圖層 2"><g id="圖層_1-2" data-name="圖層 1"><path class="cls-1" d="M14.13,17.92H37.29L26.16,46.06l-12-28.14Zm2.81-9.07H34.23l3.06,7.68H14.85l2.09-7.68Zm-4.1,7.28L0,9.72,6.9,3.59l8.24,5.1-2.3,7.45ZM0,12.08l12.17,5.85L25.43,46.06,0,12.08Zm39.44,5.85L50.85,11.5,26.93,46.06,39.44,17.92Zm-.24-1.85L36,8.17,43.33,3.3l6.33,6.36L39.2,16.08ZM16.95,6.82,14.07,6,8.64,2.57,15,0H35.8l6.32,3L36,6.26l-2,.56H16.95Z"/></g></g></svg>