<?xml version="1.0" encoding="utf-8"?>
<!-- Generator: Adobe Illustrator 21.0.0, SVG Export Plug-In . SVG Version: 6.00 Build 0)  -->
<svg version="1.1" id="圖層_1" xmlns="http://www.w3.org/2000/svg" xmlns:xlink="http://www.w3.org/1999/xlink" x="0px" y="0px"
	 viewBox="0 0 211 211" style="enable-background:new 0 0 211 211;" xml:space="preserve">
<style type="text/css">
	.st0{opacity:0.25;enable-background:new    ;}
</style>
<path class="st0" d="M159,62.7l-7.8,3.6l-17.9-39c-2.8-6-9.9-8.7-15.9-5.9L72.1,42.2l-8.4-18.3l-9.4,4.3l8.4,18.3L17.6,67.3
	c-6,2.8-8.7,9.9-5.9,15.9l17.9,39l-7.8,3.6c-6,2.8-8.7,9.9-5.9,15.9l30.8,67l159-73.1l-30.8-67C172.2,62.6,165,60,159,62.7z
	 M21,78.9c-0.4-0.9,0-1.9,0.8-2.3l99.8-45.9c0.9-0.4,1.9,0,2.3,0.9l4.3,9.3c3.6,7.7,0.2,16.9-7.6,20.5s-16.9,0.2-20.5-7.6
	c-1.2-2.6-4.3-3.7-6.8-2.5c-2.6,1.2-3.7,4.3-2.5,6.8c3.6,7.7,0.2,16.9-7.6,20.5c-7.7,3.6-16.9,0.2-20.5-7.6
	c-1.2-2.6-4.3-3.7-6.8-2.5c-2.6,1.2-3.7,4.2-2.5,6.8c3.6,7.7,0.1,16.9-7.6,20.5S28.9,96,25.3,88.2L21,78.9L21,78.9z M33.9,106.9
	c5.3,1.2,10.9,0.7,16.2-1.7c7.7-3.5,12.7-10.3,14.4-18c6.9,3.7,15.4,4.3,23,0.8c7.7-3.5,12.7-10.3,14.4-18c6.9,3.7,15.4,4.3,23,0.8
	c5.3-2.4,9.3-6.4,11.9-11.2l5,11L39,117.9L33.9,106.9z M25.3,137.4c-0.4-0.9,0-1.9,0.9-2.3l7.8-3.6l121.6-55.9l7.8-3.6
	c0.9-0.4,1.9,0,2.3,0.8l7.1,15.4c3.6,7.7,0.1,16.9-7.6,20.5c-7.7,3.6-16.9,0.2-20.5-7.6c-1.2-2.6-4.3-3.7-6.8-2.5
	c-2.6,1.2-3.7,4.2-2.5,6.8c3.6,7.7,0.1,16.9-7.6,20.5c-7.7,3.6-16.9,0.2-20.5-7.6c-1.2-2.6-4.3-3.7-6.8-2.5s-3.7,4.3-2.5,6.8
	c3.6,7.7,0.2,16.9-7.6,20.5c-7.7,3.6-16.9,0.2-20.5-7.6c-1.2-2.6-4.2-3.7-6.8-2.5c-2.6,1.2-3.7,4.3-2.5,6.8
	c3.6,7.7,0.2,16.9-7.6,20.5s-16.9,0.2-20.5-7.6L25.3,137.4L25.3,137.4z M51.8,195.1L41,171.5c5.3,1.1,10.9,0.7,16.2-1.7
	c7.7-3.5,12.7-10.3,14.4-18c6.9,3.7,15.4,4.3,23,0.8c7.7-3.5,12.7-10.3,14.4-18c6.9,3.7,15.4,4.3,23,0.8c7.7-3.5,12.7-10.3,14.4-18
	c6.9,3.7,15.4,4.3,23,0.8c5.3-2.4,9.3-6.4,11.9-11.2l10.8,23.6L51.8,195.1z"/>
<path class="st0" d="M55.6,18.6l2.6-7.1c1.4-3.9-0.6-8.2-4.5-9.7c-3.9-1.4-8.3,0.6-9.7,4.5s0.6,8.3,4.5,9.7L55.6,18.6z"/>
</svg>
