<?xml version="1.0" encoding="utf-8"?>
<!-- Generator: Adobe Illustrator 21.0.0, SVG Export Plug-In . SVG Version: 6.00 Build 0)  -->
<svg version="1.1" id="圖層_1" xmlns="http://www.w3.org/2000/svg" xmlns:xlink="http://www.w3.org/1999/xlink" x="0px" y="0px"
	 viewBox="0 0 200 200" style="enable-background:new 0 0 200 200;" xml:space="preserve">
<style type="text/css">
	.st0{fill:#D1001E;}
</style>
<path class="st0" d="M103,26.9C64.9,26.9,34,57.8,34,96S64.9,165,103,165s69.1-30.9,69.1-69.1S141.2,26.9,103,26.9z M133.8,120.4
	c1.8,1.8,1.8,4.6,0,6.3c-0.9,0.9-2,1.3-3.2,1.3c-1.1,0-2.3-0.4-3.2-1.3L103,102.3l-24.4,24.4c-0.9,0.9-2,1.3-3.2,1.3
	s-2.3-0.4-3.2-1.3c-1.8-1.8-1.8-4.6,0-6.3L96.7,96L72.2,71.5c-1.8-1.8-1.8-4.6,0-6.3c1.8-1.8,4.6-1.8,6.3,0L103,89.6l24.4-24.4
	c1.8-1.8,4.6-1.8,6.3,0c1.8,1.8,1.8,4.6,0,6.3L109.4,96L133.8,120.4z"/>
</svg>
