<svg xmlns="http://www.w3.org/2000/svg" viewBox="0 0 45.94 41.2"><defs><style>.cls-1{fill:#fff;opacity:0.6;}</style></defs><title>d-icon</title><g id="圖層_2" data-name="圖層 2"><g id="圖層_1-2" data-name="圖層 1"><path class="cls-1" d="M45.61,13.82,24.73,40.3a2.16,2.16,0,0,1-3.51,0L.33,13.82a1.86,1.86,0,0,1-.09-2L11.55,1A2.11,2.11,0,0,1,13.4,0H32.28a2.11,2.11,0,0,1,1.83,1L45.68,11.8a1.86,1.86,0,0,1-.07,2ZM22.88,35.88l8-22.15H15ZM21,36.7l-8.15-23h-10ZM13.4,2,3.12,11.77h9.95L20.9,2Zm2.25,9.81H30.57L23.06,2.49ZM32.28,2h-7l7.93,9.8H42.8L32.28,2Zm.79,11.77L24.67,37.09,43.08,13.73Z"/></g></g></svg>