<svg id="aeda24f5-d5ca-44cc-a818-d28c2e2a5bfa" data-name="圖層 1" xmlns="http://www.w3.org/2000/svg" viewBox="0 0 109.15 140.17"><defs><style>.f0b74de0-6214-4b31-8f0a-703b982a2e8d{fill:#bababa;}</style></defs><title>icon_lock</title><path class="f0b74de0-6214-4b31-8f0a-703b982a2e8d" d="M38.05,60V64.9H37c-1.6,0-2.91,1.66-2.91,3.7V93.06c0,2,1.31,3.71,2.91,3.71H72.26c1.61,0,2.92-1.67,2.92-3.71V68.6c0-2-1.31-3.7-2.92-3.7h-1V60a16.62,16.62,0,0,0-16.1-16.71h-1A16.61,16.61,0,0,0,38.05,60ZM57.94,80.81v7.38a1.58,1.58,0,0,1-1.56,1.57H52.89a1.58,1.58,0,0,1-1.56-1.57V80.81a4.48,4.48,0,0,1,2.81-7.62h1a4.48,4.48,0,0,1,2.82,7.62ZM44.91,60a9.72,9.72,0,1,1,19.44,0V64.9H44.91Zm62.85-31.65L55.08.31a2.64,2.64,0,0,0-2.5,0L1.36,28.39A2.65,2.65,0,0,0,0,30.7V67.36a75.91,75.91,0,0,0,45.51,69.49l7.11,3.1a2.64,2.64,0,0,0,2.08,0l8-3.46a75.78,75.78,0,0,0,46.43-69.86V30.7A2.63,2.63,0,0,0,107.76,28.38ZM103.9,66.64a70.51,70.51,0,0,1-43.24,65h0l-7,3L47.6,132A70.67,70.67,0,0,1,5.24,67.36V32.25L53.86,5.6l50,26.67Z"/></svg>